<?xml version="1.0" encoding="UTF-8"?>
<svg width="450px" height="450px" viewBox="0 0 450 450" version="1.1" xmlns="http://www.w3.org/2000/svg" xmlns:xlink="http://www.w3.org/1999/xlink">
    <title>Group 5</title>
    <defs>
        <rect id="path-1" x="0" y="0" width="450" height="450" rx="1"></rect>
    </defs>
    <g id="PlayFab-icons" stroke="none" stroke-width="1" fill="none" fill-rule="evenodd">
        <g id="Group-5">
            <g id="Rectangle-+-Path-Mask">
                <mask id="mask-2" fill="white">
                    <use xlink:href="#path-1"></use>
                </mask>
                <use id="Mask" fill="#0078D4" xlink:href="#path-1"></use>
                <polygon id="Rectangle" fill="#006BBE" mask="url(#mask-2)" transform="translate(302.836340, 363.903316) rotate(45.000000) translate(-302.836340, -363.903316) " points="65.8155252 224.60722 539.857156 224.60722 539.857156 500.60722 127.347815 503.199412 67.8715188 443.723116"></polygon>
            </g>
            <g id="Group" transform="translate(79.000000, 82.000000)" fill="#FFFFFF" fill-rule="nonzero">
                <path d="M247.388889,0.94634354 C272.026926,0.94634354 292,20.9194183 292,45.5574547 L292,248.335232 C292,272.973269 272.026926,292.946344 247.388889,292.946344 L44.6111111,292.946344 C19.9730748,292.946344 0,272.973269 0,248.335232 L0,45.5574547 C0,20.9194183 19.9730748,0.94634354 44.6111111,0.94634354 L247.388889,0.94634354 Z M77.0555556,98.3333333 C70.3360911,98.3333333 64.8888889,103.757127 64.8888889,110.447716 L64.8888889,215.996729 C64.8888889,222.687317 70.3360911,228.111111 77.0555556,228.111111 C83.77502,228.111111 89.2222222,222.687317 89.2222222,215.996729 L89.2222222,110.447716 C89.2222222,103.757127 83.77502,98.3333333 77.0555556,98.3333333 Z M214.944444,65.8888889 C208.224979,65.8888889 202.777778,71.1865245 202.777778,77.7214892 L202.777778,216.27851 C202.777778,222.813475 208.224979,228.111111 214.944444,228.111111 C221.66391,228.111111 227.111111,222.813475 227.111111,216.27851 L227.111111,77.7214892 C227.111111,71.1865245 221.66391,65.8888889 214.944444,65.8888889 Z M145.596109,146.945777 C139.035229,147.011781 133.769119,152.338959 133.833925,158.846091 L134.407027,216.391618 C134.471834,222.898751 139.843011,228.121719 146.403891,228.059174 C152.964771,227.993169 158.230881,222.665992 158.166075,216.15886 L157.592973,158.613333 C157.528166,152.106201 152.156989,146.883232 145.596109,146.945777 Z" id="🎨-Color"></path>
            </g>
        </g>
    </g>
</svg>