<?xml version="1.0" encoding="UTF-8"?>
<svg width="125px" height="125px" viewBox="0 0 125 125" version="1.1" xmlns="http://www.w3.org/2000/svg" xmlns:xlink="http://www.w3.org/1999/xlink">
    <title>Build</title>
    <g id="Build" stroke="none" stroke-width="1" fill="none" fill-rule="evenodd">
        <g id="e99c-64" transform="translate(3.000000, 3.000000)">
            <path d="M114,73.3095703 L114,85.5 L106.875,85.5 L106.875,76.3154297 L100.807617,70.1923828 L100.974609,70.0253906 C99.4902344,70.8417969 97.8388672,71.25 96.0205078,71.25 C94.3876953,71.25 92.8847656,70.9160156 91.5117188,70.2480469 L85.5,76.3154297 L85.5,85.5 L78.375,85.5 L78.375,73.3095703 L86.4462891,65.2939453 L86.2792969,64.9042969 L72.3076172,33.6210938 L49.5966797,57.0556641 C49.6708984,57.6494141 49.7265625,58.2246094 49.7636719,58.78125 C49.8007812,59.3378906 49.8378906,59.9316406 49.875,60.5625 L49.875,106.875 L57,106.875 L57,114 L0,114 L0,106.875 L7.125,106.875 L7.125,60.5625 C7.125,57.7421875 7.64453125,55.0888672 8.68359375,52.6025391 C9.72265625,50.1162109 11.1328125,47.9082031 12.9140625,45.9785156 C14.6953125,44.0488281 16.8105469,42.4902344 19.2597656,41.3027344 C21.7089844,40.1152344 24.34375,39.4287109 27.1640625,39.2431641 L61.0078125,4.34179688 C62.34375,2.93164063 63.9023438,1.85546875 65.6835938,1.11328125 C67.4648438,0.37109375 69.3203125,0 71.25,0 C72.5488281,0 73.8476562,0.185546875 75.1464844,0.556640625 C76.4453125,0.927734375 77.6884766,1.484375 78.8759766,2.2265625 C80.0634766,2.96875 81.1210938,3.82226563 82.0488281,4.78710938 C82.9765625,5.75195312 83.71875,6.86523438 84.2753906,8.12695312 L105.650391,55.8867188 C105.984375,56.6289062 106.225586,57.3896484 106.374023,58.1689453 C106.522461,58.9482422 106.59668,59.7275391 106.59668,60.5068359 C106.59668,61.3974609 106.503906,62.2695313 106.318359,63.1230469 C106.132812,63.9765625 105.817383,64.8115234 105.37207,65.6279297 L105.817383,65.1826172 L114,73.3095703 Z M42.75,106.875 L42.75,60.5625 C42.75,58.5957031 42.3789062,56.7587891 41.6367188,55.0517578 C40.8945312,53.3447266 39.8740234,51.8232422 38.5751953,50.4873047 C37.2763672,49.1513672 35.7734375,48.1308594 34.0664062,47.4257812 C32.359375,46.7207031 30.5039062,46.3496094 28.5,46.3125 C26.5332031,46.3125 24.6962891,46.6835938 22.9892578,47.4257812 C21.2822266,48.1679688 19.7607422,49.1884766 18.4248047,50.4873047 C17.0888672,51.7861328 16.0683594,53.2890625 15.3632812,54.9960938 C14.6582031,56.703125 14.2871094,58.5585938 14.25,60.5625 L14.25,106.875 L42.75,106.875 Z M35.8476562,40.4677734 C38.1484375,41.3212891 40.2451172,42.5273438 42.1376953,44.0859375 C44.0302734,45.6445313 45.6074219,47.4814453 46.8691406,49.5966797 L76.3710938,19.2041016 C77.7070312,17.7939453 78.375,16.1425781 78.375,14.25 C78.375,13.2480469 78.1894531,12.3203125 77.8183594,11.4667969 C77.4472656,10.6132812 76.9462891,9.87109375 76.3154297,9.24023438 C75.6845703,8.609375 74.9238281,8.08984375 74.0332031,7.68164062 C73.1425781,7.2734375 72.2148438,7.08789062 71.25,7.125 C69.2089844,7.125 67.5019531,7.84863281 66.1289062,9.29589844 L35.8476562,40.4677734 Z M82.8837891,22.4326172 C82.2158203,23.5087891 81.3994141,24.4921875 80.4345703,25.3828125 C79.4697266,26.2734375 78.5419922,27.1826172 77.6513672,28.1103516 L88.6171875,52.6582031 L95.1298828,49.875 L82.8837891,22.4326172 Z M96.0205078,64.125 C97.0966797,64.125 97.9501953,63.7724609 98.5810547,63.0673828 C99.2119141,62.3623047 99.5273438,61.5087891 99.5273438,60.5068359 C99.5273438,59.7646484 99.3603516,59.0595703 99.0263672,58.3916016 C98.6923828,57.7236328 98.3583984,57.0556641 98.0244141,56.3876953 L91.5117188,59.1708984 C91.734375,59.7275391 91.9570312,60.3027344 92.1796875,60.8964844 C92.4023438,61.4902344 92.6806641,62.0283203 93.0146484,62.5107422 C93.3486328,62.9931641 93.7382812,63.3828125 94.1835938,63.6796875 C94.6289062,63.9765625 95.2412109,64.125 96.0205078,64.125 Z M28.5,57 C29.5019531,57 30.4296875,57.1855469 31.2832031,57.5566406 C32.1367188,57.9277344 32.8789062,58.4287109 33.5097656,59.0595703 C34.140625,59.6904297 34.6601562,60.4511719 35.0683594,61.3417969 C35.4765625,62.2324219 35.6621094,63.1601562 35.625,64.125 C35.625,65.1269531 35.4394531,66.0546875 35.0683594,66.9082031 C34.6972656,67.7617187 34.1962891,68.5039062 33.5654297,69.1347656 C32.9345703,69.765625 32.1738281,70.2851562 31.2832031,70.6933594 C30.3925781,71.1015625 29.4648438,71.2871094 28.5,71.25 C27.4980469,71.25 26.5703125,71.0644531 25.7167969,70.6933594 C24.8632812,70.3222656 24.1210938,69.8212891 23.4902344,69.1904297 C22.859375,68.5595703 22.3398437,67.7988281 21.9316406,66.9082031 C21.5234375,66.0175781 21.3378906,65.0898437 21.375,64.125 C21.375,63.1230469 21.5605469,62.1953125 21.9316406,61.3417969 C22.3027344,60.4882812 22.8037109,59.7460937 23.4345703,59.1152344 C24.0654297,58.484375 24.8261719,57.9648437 25.7167969,57.5566406 C26.6074219,57.1484375 27.5351562,56.9628906 28.5,57 Z" id="Shape" fill="#000000" fill-rule="nonzero"></path>
            <path d="M96.0205078,64.125 C97.0966797,64.125 97.9501953,63.7724609 98.5810547,63.0673828 C99.2119141,62.3623047 99.5273438,61.5087891 99.5273438,60.5068359 C99.5273438,59.7646484 99.3603516,59.0595703 99.0263672,58.3916016 C98.6923828,57.7236328 98.3583984,57.0556641 98.0244141,56.3876953 L91.5117188,59.1708984 C91.734375,59.7275391 91.9570312,60.3027344 92.1796875,60.8964844 C92.4023438,61.4902344 92.6806641,62.0283203 93.0146484,62.5107422 C93.3486328,62.9931641 93.7382812,63.3828125 94.1835938,63.6796875 C94.6289062,63.9765625 95.2412109,64.125 96.0205078,64.125 Z" id="Path" fill="#FF781F"></path>
        </g>
    </g>
</svg>