<?xml version="1.0" encoding="UTF-8"?>
<svg width="450px" height="450px" viewBox="0 0 450 450" version="1.1" xmlns="http://www.w3.org/2000/svg" xmlns:xlink="http://www.w3.org/1999/xlink">
    <title>Group 4</title>
    <defs>
        <rect id="path-1" x="0" y="0" width="450" height="450" rx="1"></rect>
    </defs>
    <g id="PlayFab-icons" stroke="none" stroke-width="1" fill="none" fill-rule="evenodd">
        <g id="Group-4">
            <g id="Rectangle-+-Path-Mask">
                <mask id="mask-2" fill="white">
                    <use xlink:href="#path-1"></use>
                </mask>
                <use id="Mask" fill="#0078D4" xlink:href="#path-1"></use>
                <polygon id="Rectangle" fill="#006BBE" mask="url(#mask-2)" transform="translate(311.336340, 372.403316) rotate(45.000000) translate(-311.336340, -372.403316) " points="86.3363405 233.10722 536.33634 233.10722 536.33634 509.10722 147.86863 511.699412 88.3923341 452.223116"></polygon>
            </g>
            <g id="Group-3" transform="translate(79.000000, 79.000000)">
                <path d="M182.5,0 C185.826823,0 189.153646,0.475260417 192.480469,1.42578125 C195.807292,2.37630208 198.991537,3.80208333 202.033203,5.703125 C205.07487,7.60416667 207.783854,9.7903646 210.160156,12.2617188 C212.536458,14.7330729 214.4375,17.5846354 215.863281,20.8164062 L270.613282,143.148438 C271.46875,145.049479 272.086589,146.998047 272.466796,148.994141 C272.847005,150.990234 273.03711,152.986328 273.03711,154.982422 C273.03711,157.263672 272.799479,159.497396 272.324218,161.683594 C271.848957,163.869792 271.041016,166.008463 269.90039,168.099609 L271.041016,166.958984 L292,187.775391 L292,219 L273.75,219 L273.75,195.474609 L258.208984,179.791016 L258.636718,179.363281 C254.834635,181.454427 250.604818,182.5 245.947266,182.5 C241.764974,182.5 237.915365,181.644531 234.398438,179.933594 L219,195.474609 L219,219 L200.75,219 L200.75,187.775391 L221.423828,167.244141 L220.996094,166.246094 L185.208984,86.1171876 L127.037109,146.142578 C127.227213,147.663412 127.369792,149.136719 127.464844,150.5625 C127.559896,151.988281 127.654948,153.509115 127.75,155.125 L127.75,276.311404 L146,276.311404 L146,292 L0,292 L0,276.311404 L18.25,276.311404 L18.25,155.125 C18.25,147.901042 19.5807292,141.104818 22.2421875,134.736328 C24.9036458,128.367838 28.515625,122.71224 33.078125,117.769531 C37.640625,112.826823 43.0585938,108.834635 49.3320312,105.792969 C55.6054688,102.751302 62.3541667,100.992838 69.578125,100.517578 L156.265625,11.1210938 C159.6875,7.5091146 163.679688,4.75260417 168.242188,2.8515625 C172.804688,0.950520833 177.557292,0 182.5,0 Z M73,146 C70.5286457,145.904948 68.1523438,146.380208 65.8710938,147.425781 C63.5898438,148.471354 61.6412761,149.802083 60.0253906,151.417969 C58.4095051,153.033854 57.1263021,154.934896 56.1757812,157.121094 C55.2252605,159.307292 54.75,161.683594 54.75,164.25 C54.6549479,166.721354 55.1302083,169.097656 56.1757812,171.378906 C57.221354,173.660156 58.5520833,175.608724 60.1679688,177.224609 C61.7838543,178.840495 63.6848957,180.123698 65.8710938,181.074219 C68.0572917,182.02474 70.4335938,182.5 73,182.5 C75.4713543,182.595052 77.8476562,182.119792 80.1289062,181.074219 C82.4101562,180.028646 84.3587239,178.697917 85.9746094,177.082031 C87.5904949,175.466146 88.8736979,173.565104 89.8242188,171.378906 C90.7747395,169.192708 91.25,166.816406 91.25,164.25 C91.3450521,161.778646 90.8697917,159.402344 89.8242188,157.121094 C88.7786457,154.839844 87.4479167,152.891276 85.8320312,151.275391 C84.2161457,149.659505 82.3151043,148.376302 80.1289062,147.425781 C77.9427083,146.47526 75.5664062,146 73,146 Z M251.080078,144.431641 L234.398438,151.560547 L234.826172,152.638794 C235.253906,153.725952 235.681641,154.839844 236.109375,155.980469 C236.679688,157.501302 237.392578,158.879557 238.248047,160.115234 C239.103516,161.350912 240.101562,162.348958 241.242188,163.109375 C242.382812,163.869792 243.951172,164.25 245.947266,164.25 C248.703776,164.25 250.889974,163.347005 252.505859,161.541016 C254.121745,159.735026 254.929688,157.548828 254.929688,154.982422 C254.929688,153.08138 254.501953,151.275391 253.646484,149.564453 C252.791016,147.853516 251.935547,146.142578 251.080078,144.431641 L251.080078,144.431641 Z" id="Combined-Shape" fill="#FFFFFF" fill-rule="nonzero"></path>
                <path d="M212.298828,57.4589844 C210.587891,60.2154949 208.496745,62.734375 206.025391,65.015625 C203.554037,67.296875 201.177734,69.6256511 198.896484,72.0019532 L226.984375,134.878906 L243.666016,127.75 L212.298828,57.4589844 Z" id="Shape-path"></path>
            </g>
        </g>
    </g>
</svg>