<?xml version="1.0" encoding="UTF-8"?>
<svg width="450px" height="450px" viewBox="0 0 450 450" version="1.1" xmlns="http://www.w3.org/2000/svg" xmlns:xlink="http://www.w3.org/1999/xlink">
    <title>Rectangle + Group Mask 2</title>
    <defs>
        <rect id="path-1" x="0" y="0" width="450" height="450" rx="1"></rect>
    </defs>
    <g id="PlayFab-icons" stroke="none" stroke-width="1" fill="none" fill-rule="evenodd">
        <g id="Rectangle-+-Group-Mask">
            <g id="Mask">
                <mask id="mask-2" fill="white">
                    <use xlink:href="#path-1"></use>
                </mask>
                <use fill="#0078D4" xlink:href="#path-1"></use>
            </g>
            <polygon id="Rectangle" fill="#006BBE" transform="translate(365.180885, 413.511034) rotate(45.000000) translate(-365.180885, -413.511034) " points="151.460839 274.164794 578.900932 276.857273 578.900932 552.857273 167.533614 537.993637"></polygon>
            <g id="Group" transform="translate(79.000000, 89.000000)" fill="#FFFFFF" fill-rule="nonzero">
                <path d="M97.331777,214.323843 C97.331777,208.03214 98.8018319,202.501529 101.741942,197.732012 C104.682052,192.962494 108.534609,188.903331 113.299615,185.554521 C118.064621,182.205711 123.28585,179.668733 128.963304,177.943589 C134.640757,176.218444 140.318211,175.355872 145.995665,175.355872 C151.571735,175.355872 157.198497,176.218444 162.875951,177.943589 C168.553404,179.668733 173.774634,182.154971 178.539639,185.402302 C183.304645,188.649633 187.157203,192.708797 190.097313,197.579793 C193.037422,202.45079 194.558169,208.03214 194.659552,214.323843 L97.331777,214.323843 Z M228.724273,233.807829 C230.042254,233.807829 231.157468,234.264485 232.069916,235.177797 C232.982363,236.091109 233.489279,237.258118 233.590662,238.678826 L233.590662,272.775801 L58.400667,272.775801 L58.400667,238.678826 C58.400667,237.359597 58.8568909,236.243327 59.7693388,235.330016 C60.6817867,234.416704 61.8476924,233.909308 63.2670557,233.807829 L228.724273,233.807829 Z M272.521772,19.4839858 C275.259116,19.4839858 277.793693,19.9913812 280.125505,21.0061722 C282.457316,22.0209631 284.484978,23.3909308 286.20849,25.1160754 C287.932003,26.84122 289.351367,28.9215414 290.466581,31.3570396 C291.581795,33.7925378 292.08871,36.3295151 291.987327,38.9679715 L291.987327,68.1939502 C291.987327,78.1389012 290.162431,87.2720196 286.51264,95.5933052 C282.862848,103.914591 277.895076,111.068867 271.609324,117.056133 C265.323572,123.0434 257.871914,127.762177 249.254351,131.212467 C240.636787,134.662756 231.512309,136.3879 221.880914,136.3879 C217.724207,142.679604 212.857818,148.260954 207.281748,153.131951 C201.705677,158.002947 195.572,162.062111 188.880715,165.309442 C182.189431,168.556773 175.244689,171.04301 168.046489,172.768155 C160.848289,174.4933 153.498014,175.355872 145.995665,175.355872 C138.493315,175.355872 131.143041,174.544039 123.944841,172.920374 C116.74664,171.296708 109.801898,168.81047 103.110614,165.46166 C96.4193291,162.11285 90.3363432,158.002947 84.8616558,153.131951 C79.3869685,148.260954 74.4698882,142.679604 70.1104149,136.3879 C60.3776374,136.3879 51.2531585,134.713495 42.7369782,131.364685 C34.2207979,128.015875 26.8198317,123.297097 20.5340795,117.208352 C14.2483274,111.119606 9.22986397,103.914591 5.47868931,95.5933052 C1.72751465,87.2720196 -0.0973811346,78.1389012 0.00400196443,68.1939502 L0.00400196443,38.9679715 C0.00400196443,36.228036 0.510917459,33.6910587 1.52474845,31.3570396 C2.53857944,29.0230205 3.90725128,26.9934386 5.63076396,25.268294 C7.35427664,23.5431495 9.43263017,22.1224422 11.8658245,21.0061722 C14.2990189,19.8899021 16.8335964,19.3825067 19.469557,19.4839858 L58.400667,19.4839858 L58.400667,0 L233.590662,0 L233.590662,19.4839858 L272.521772,19.4839858 Z M58.400667,38.9679715 L19.469557,38.9679715 L19.469557,68.1939502 C19.469557,73.9782585 20.4326964,79.508869 22.3589753,84.7857818 C24.2852542,90.0626946 26.9719063,94.7814724 30.4189317,98.9421152 C33.865957,103.102758 37.9719725,106.705266 42.7369782,109.749639 C47.5019839,112.794011 52.7232134,114.874333 58.400667,115.990603 L58.400667,38.9679715 Z M272.521772,38.9679715 L233.590662,38.9679715 L233.590662,115.990603 C239.268116,114.772854 244.489345,112.692532 249.254351,109.749639 C254.019357,106.806745 258.125372,103.254977 261.572397,99.0943339 C265.019423,94.9336911 267.706075,90.1641737 269.632354,84.7857818 C271.558633,79.4073899 272.521772,73.8767794 272.521772,68.1939502 L272.521772,38.9679715 Z" id="Shape"></path>
            </g>
        </g>
    </g>
</svg>