<?xml version="1.0" encoding="UTF-8"?>
<svg width="125px" height="125px" viewBox="0 0 125 125" version="1.1" xmlns="http://www.w3.org/2000/svg" xmlns:xlink="http://www.w3.org/1999/xlink">
    <title>Engage</title>
    <g id="Engage" stroke="none" stroke-width="1" fill="none" fill-rule="evenodd">
        <g id="ed3f-32" transform="translate(19.000000, 8.000000)">
            <path d="M88,7.92857143 L88,35.6166295 C88,37.9704241 87.6041667,40.2209821 86.8125,42.3683036 C86.0208333,44.515625 84.8958333,46.4564732 83.4375,48.1908482 C81.9791667,49.9252232 80.25,51.391183 78.25,52.5887277 C76.25,53.7862723 74.0833333,54.6121652 71.75,55.0664062 C71.375,58.1635045 70.5208333,61.0541295 69.1875,63.7382812 C67.8541667,66.422433 66.125,68.8381696 64,70.9854911 C61.875,73.1328125 59.4583333,74.8878348 56.75,76.250558 C54.0416667,77.6132812 51.125,78.5217634 48,78.9760045 L48,87.2142857 L72,87.2142857 L72,103.071429 L80,103.071429 L80,111 L8,111 L8,103.071429 L16,103.071429 L16,87.2142857 L40,87.2142857 L40,78.9760045 C36.875,78.563058 33.9583333,77.6752232 31.25,76.3125 C28.5416667,74.9497768 26.1458333,73.1947545 24.0625,71.047433 C21.9791667,68.9001116 20.25,66.484375 18.875,63.8002232 C17.5,61.1160714 16.625,58.2047991 16.25,55.0664062 C13.9166667,54.6121652 11.75,53.7862723 9.75,52.5887277 C7.75,51.391183 6.04166667,49.9458705 4.625,48.2527902 C3.20833333,46.5597098 2.08333333,44.6188616 1.25,42.4302455 C0.416666667,40.2416295 0,37.9704241 0,35.6166295 L0,7.92857143 L16,7.92857143 L16,0 L72,0 L72,7.92857143 L88,7.92857143 Z M24,95.1428571 L24,103.071429 L64,103.071429 L64,95.1428571 L24,95.1428571 Z M8,35.6166295 C8,36.8554688 8.1875,38.0530134 8.5625,39.2092634 C8.9375,40.3655134 9.47916667,41.4391741 10.1875,42.4302455 C10.8958333,43.421317 11.7291667,44.2885045 12.6875,45.031808 C13.6458333,45.7751116 14.75,46.3738839 16,46.828125 L16,15.8571429 L8,15.8571429 L8,35.6166295 Z M44,71.3571429 C46.75,71.3571429 49.3333333,70.8409598 51.75,69.8085938 C54.1666667,68.7762277 56.2708333,67.3722098 58.0625,65.5965402 C59.8541667,63.8208705 61.2916667,61.7148437 62.375,59.2784598 C63.4583333,56.8420759 64,54.2611607 64,51.5357143 L64,7.92857143 L24,7.92857143 L24,51.5357143 C24,54.2611607 24.5208333,56.8214286 25.5625,59.2165179 C26.6041667,61.6116071 28.0208333,63.7176339 29.8125,65.5345982 C31.6041667,67.3515625 33.7291667,68.7762277 36.1875,69.8085938 C38.6458333,70.8409598 41.25,71.3571429 44,71.3571429 Z M80,15.8571429 L72,15.8571429 L72,46.828125 C73.1666667,46.4151786 74.25,45.8370536 75.25,45.09375 C76.25,44.3504464 77.0833333,43.4832589 77.75,42.4921875 C78.4166667,41.5011161 78.9583333,40.4274554 79.375,39.2712054 C79.7916667,38.1149554 80,36.8967634 80,35.6166295 L80,15.8571429 Z" id="Shape" fill="#000000" fill-rule="nonzero"></path>
            <polygon id="Path" fill="#FF781F" points="24 95.1428571 24 103.071429 64 103.071429 64 95.1428571"></polygon>
        </g>
    </g>
</svg>