<svg xmlns="http://www.w3.org/2000/svg" viewBox="0 0 2048 2048" width="64" height="64">
  <path d="M1914 1539q6 30 6 61t-6 61l124 51-49 119-124-52q-35 51-86 86l52 124-119 49-51-124q-30 6-61 6t-61-6l-51 124-119-49 52-124q-51-35-86-86l-124 52-49-119 124-51q-6-30-6-61t6-61l-124-51 49-119 124 52q35-51 86-86l-52-124 119-49 51 124q30-6 61-6t61 6l51-124 119 49-52 124q51 35 86 86l124-52 49 119-124 51zm-314 253q40 0 75-15t61-41 41-61 15-75q0-40-15-75t-41-61-61-41-75-15q-40 0-75 15t-61 41-41 61-15 75q0 40 15 75t41 61 61 41 75 15zm-326-774q-11 57-39 105t-71 83-94 54-110 20H576q-32 0-61 10t-53 28-42 43-27 56q54 13 99 42t78 71 51 92 19 106q0 66-25 124t-69 102-102 69-124 25q-66 0-124-25t-102-68-69-102-25-125q0-57 19-109t53-93 81-71 103-40V633q-56-11-103-40t-81-70-53-94T0 320q0-66 25-124T93 95t102-69T320 0q66 0 124 25t101 69 69 102 26 124q0 57-19 109t-53 93-81 71-103 40v585q42-32 91-49t101-17h384q32 0 61-10t53-28 42-43 27-56q-54-13-99-42t-78-70-51-92-19-107q0-66 25-124t68-101 102-69 125-26q66 0 124 25t101 69 69 102 26 124q0 58-19 110t-55 94-83 71-105 39zm-250-314q0 40 15 75t41 61 61 41 75 15q40 0 75-15t61-41 41-61 15-75q0-40-15-75t-41-61-61-41-75-15q-40 0-75 15t-61 41-41 61-15 75zM128 320q0 40 15 75t41 61 61 41 75 15q40 0 75-15t61-41 41-61 15-75q0-40-15-75t-41-61-61-41-75-15q-40 0-75 15t-61 41-41 61-15 75zm384 1408q0-40-15-75t-41-61-61-41-75-15q-40 0-75 15t-61 41-41 61-15 75q0 40 15 75t41 61 61 41 75 15q40 0 75-15t61-41 41-61 15-75z" />
</svg>