<?xml version="1.0" encoding="UTF-8"?>
<svg width="450px" height="450px" viewBox="0 0 450 450" version="1.1" xmlns="http://www.w3.org/2000/svg" xmlns:xlink="http://www.w3.org/1999/xlink">
    <title>Frameworks</title>
    <defs>
        <rect id="path-1" x="0" y="0" width="450" height="450" rx="1"></rect>
    </defs>
    <g id="PlayFab-icons" stroke="none" stroke-width="1" fill="none" fill-rule="evenodd">
        <g id="Frameworks">
            <g id="Rectangle-+-Path-Mask">
                <mask id="mask-2" fill="white">
                    <use xlink:href="#path-1"></use>
                </mask>
                <use id="Mask" fill="#0078D4" xlink:href="#path-1"></use>
            </g>
            <g id="Group" transform="translate(80.000000, 79.000000)" fill="#FFFFFF" fill-rule="nonzero">
                <path d="M272.894531,219.427734 C273.464844,222.279297 273.75,225.178385 273.75,228.125 C273.75,231.071615 273.464844,233.970703 272.894531,236.822266 L290.574219,244.09375 L283.587891,261.060547 L265.908203,253.646484 C262.58138,258.494141 258.494141,262.58138 253.646484,265.908203 L261.060547,283.587891 L244.09375,290.574219 L236.822266,272.894531 C233.970703,273.464844 231.071615,273.75 228.125,273.75 C225.178385,273.75 222.279297,273.464844 219.427734,272.894531 L212.15625,290.574219 L195.189453,283.587891 L202.603516,265.908203 C197.755859,262.58138 193.66862,258.494141 190.341797,253.646484 L172.662109,261.060547 L165.675781,244.09375 L183.355469,236.822266 C182.785156,233.970703 182.5,231.071615 182.5,228.125 C182.5,225.178385 182.785156,222.279297 183.355469,219.427734 L165.675781,212.15625 L172.662109,195.189453 L190.341797,202.603516 C193.66862,197.755859 197.755859,193.66862 202.603516,190.341797 L195.189453,172.662109 L212.15625,165.675781 L219.427734,183.355469 C222.279297,182.785156 225.178385,182.5 228.125,182.5 C231.071615,182.5 233.970703,182.785156 236.822266,183.355469 L244.09375,165.675781 L261.060547,172.662109 L253.646484,190.341797 C258.494141,193.66862 262.58138,197.755859 265.908203,202.603516 L283.587891,195.189453 L290.574219,212.15625 L272.894531,219.427734 Z M228.125,255.5 C231.927083,255.5 235.491536,254.787109 238.818359,253.361328 C242.145182,251.935547 245.044271,249.986979 247.515625,247.515625 C249.986979,245.044271 251.935547,242.145182 253.361328,238.818359 C254.787109,235.491536 255.5,231.927083 255.5,228.125 C255.5,224.322917 254.787109,220.758464 253.361328,217.431641 C251.935547,214.104818 249.986979,211.205729 247.515625,208.734375 C245.044271,206.263021 242.145182,204.314453 238.818359,202.888672 C235.491536,201.462891 231.927083,200.75 228.125,200.75 C224.322917,200.75 220.758464,201.462891 217.431641,202.888672 C214.104818,204.314453 211.205729,206.263021 208.734375,208.734375 C206.263021,211.205729 204.314453,214.104818 202.888672,217.431641 C201.462891,220.758464 200.75,224.322917 200.75,228.125 C200.75,231.927083 201.462891,235.491536 202.888672,238.818359 C204.314453,242.145182 206.263021,245.044271 208.734375,247.515625 C211.205729,249.986979 214.104818,251.935547 217.431641,253.361328 C220.758464,254.787109 224.322917,255.5 228.125,255.5 Z M181.644531,145.144531 C180.598958,150.5625 178.745443,155.552734 176.083984,160.115234 C173.422526,164.677734 170.048177,168.622396 165.960937,171.949219 C161.873698,175.276042 157.40625,177.842448 152.558594,179.648438 C147.710937,181.454427 142.483073,182.404948 136.875,182.5 L82.125,182.5 C79.0833333,182.5 76.1842448,182.97526 73.4277344,183.925781 C70.671224,184.876302 68.1523438,186.207031 65.8710937,187.917969 C63.5898437,189.628906 61.59375,191.672526 59.8828125,194.048828 C58.171875,196.42513 56.8886719,199.086589 56.0332031,202.033203 C61.1660156,203.26888 65.8710937,205.264974 70.1484375,208.021484 C74.4257812,210.777995 78.1328125,214.152344 81.2695312,218.144531 C84.40625,222.136719 86.8300781,226.509115 88.5410156,231.261719 C90.2519531,236.014323 91.1549479,241.052083 91.25,246.375 C91.25,252.648438 90.061849,258.541667 87.6855469,264.054688 C85.3092448,269.567708 82.0299479,274.415365 77.8476562,278.597656 C73.6653646,282.779948 68.8177083,286.059245 63.3046875,288.435547 C57.7916667,290.811849 51.8984375,292 45.625,292 C39.3515625,292 33.4583333,290.811849 27.9453125,288.435547 C22.4322917,286.059245 17.5846354,282.827474 13.4023437,278.740234 C9.22005208,274.652995 5.94075521,269.805339 3.56445312,264.197266 C1.18815104,258.589193 0,252.648438 0,246.375 C0,240.957031 0.902994792,235.776693 2.70898437,230.833984 C4.51497396,225.891276 7.03385417,221.471354 10.265625,217.574219 C13.4973958,213.677083 17.3470052,210.302734 21.8144531,207.451172 C26.281901,204.599609 31.1770833,202.698568 36.5,201.748047 L36.5,90.2519531 C31.1770833,89.2063802 26.281901,87.3053385 21.8144531,84.5488281 C17.3470052,81.7923177 13.4973958,78.4654948 10.265625,74.5683594 C7.03385417,70.671224 4.51497396,66.203776 2.70898437,61.1660156 C0.902994792,56.1282552 0,50.9479167 0,45.625 C0,39.3515625 1.18815104,33.4583333 3.56445312,27.9453125 C5.94075521,22.4322917 9.17252604,17.6321615 13.2597656,13.5449219 C17.3470052,9.45768229 22.1946615,6.17838542 27.8027344,3.70703125 C33.4108073,1.23567708 39.3515625,0 45.625,0 C51.8984375,0 57.7916667,1.18815104 63.3046875,3.56445312 C68.8177083,5.94075521 73.6178385,9.22005208 77.7050781,13.4023438 C81.7923177,17.5846354 85.0716146,22.4322917 87.5429687,27.9453125 C90.0143229,33.4583333 91.25,39.3515625 91.25,45.625 C91.25,51.0429688 90.3470052,56.2233073 88.5410156,61.1660156 C86.735026,66.108724 84.2161458,70.5286458 80.984375,74.4257812 C77.7526042,78.3229167 73.9029948,81.6972656 69.4355469,84.5488281 C64.968099,87.4003906 60.0729167,89.3014323 54.75,90.2519531 L54.75,173.660156 C58.7421875,170.61849 63.0670573,168.289714 67.7246094,166.673828 C72.3821615,165.057943 77.1822917,164.25 82.125,164.25 L136.875,164.25 C139.916667,164.25 142.815755,163.77474 145.572266,162.824219 C148.328776,161.873698 150.847656,160.542969 153.128906,158.832031 C155.410156,157.121094 157.40625,155.077474 159.117187,152.701172 C160.828125,150.32487 162.111328,147.663411 162.966797,144.716797 C157.833984,143.48112 153.128906,141.485026 148.851562,138.728516 C144.574219,135.972005 140.867187,132.645182 137.730469,128.748047 C134.59375,124.850911 132.169922,120.478516 130.458984,115.630859 C128.748047,110.783203 127.845052,105.697917 127.75,100.375 C127.75,94.1015625 128.938151,88.2083333 131.314453,82.6953125 C133.690755,77.1822917 136.922526,72.3821615 141.009766,68.2949219 C145.097005,64.2076823 149.944661,60.9283854 155.552734,58.4570312 C161.160807,55.9856771 167.101562,54.75 173.375,54.75 C179.648437,54.75 185.541667,55.938151 191.054687,58.3144531 C196.567708,60.6907552 201.367839,63.9700521 205.455078,68.1523438 C209.542318,72.3346354 212.821615,77.1822917 215.292969,82.6953125 C217.764323,88.2083333 219,94.1015625 219,100.375 C219,105.888021 218.097005,111.115885 216.291016,116.058594 C214.485026,121.001302 211.871094,125.46875 208.449219,129.460938 C205.027344,133.453125 201.082682,136.827474 196.615234,139.583984 C192.147786,142.340495 187.157552,144.19401 181.644531,145.144531 Z M146,100.375 C146,104.177083 146.712891,107.741536 148.138672,111.068359 C149.564453,114.395182 151.513021,117.294271 153.984375,119.765625 C156.455729,122.236979 159.354818,124.185547 162.681641,125.611328 C166.008464,127.037109 169.572917,127.75 173.375,127.75 C177.177083,127.75 180.741536,127.037109 184.068359,125.611328 C187.395182,124.185547 190.294271,122.236979 192.765625,119.765625 C195.236979,117.294271 197.185547,114.395182 198.611328,111.068359 C200.037109,107.741536 200.75,104.177083 200.75,100.375 C200.75,96.5729167 200.037109,93.0084635 198.611328,89.6816406 C197.185547,86.3548177 195.236979,83.4557292 192.765625,80.984375 C190.294271,78.5130208 187.395182,76.5644531 184.068359,75.1386719 C180.741536,73.7128906 177.177083,73 173.375,73 C169.572917,73 166.008464,73.7128906 162.681641,75.1386719 C159.354818,76.5644531 156.455729,78.5130208 153.984375,80.984375 C151.513021,83.4557292 149.564453,86.3548177 148.138672,89.6816406 C146.712891,93.0084635 146,96.5729167 146,100.375 Z M18.25,45.625 C18.25,49.4270833 18.9628906,52.9915365 20.3886719,56.3183594 C21.8144531,59.6451823 23.7630208,62.5442708 26.234375,65.015625 C28.7057292,67.4869792 31.6048177,69.4355469 34.9316406,70.8613281 C38.2584635,72.2871094 41.8229167,73 45.625,73 C49.4270833,73 52.9915365,72.2871094 56.3183594,70.8613281 C59.6451823,69.4355469 62.5442708,67.4869792 65.015625,65.015625 C67.4869792,62.5442708 69.4355469,59.6451823 70.8613281,56.3183594 C72.2871094,52.9915365 73,49.4270833 73,45.625 C73,41.8229167 72.2871094,38.2584635 70.8613281,34.9316406 C69.4355469,31.6048177 67.4869792,28.7057292 65.015625,26.234375 C62.5442708,23.7630208 59.6451823,21.8144531 56.3183594,20.3886719 C52.9915365,18.9628906 49.4270833,18.25 45.625,18.25 C41.8229167,18.25 38.2584635,18.9628906 34.9316406,20.3886719 C31.6048177,21.8144531 28.7057292,23.7630208 26.234375,26.234375 C23.7630208,28.7057292 21.8144531,31.6048177 20.3886719,34.9316406 C18.9628906,38.2584635 18.25,41.8229167 18.25,45.625 Z M73,246.375 C73,242.572917 72.2871094,239.008464 70.8613281,235.681641 C69.4355469,232.354818 67.4869792,229.455729 65.015625,226.984375 C62.5442708,224.513021 59.6451823,222.564453 56.3183594,221.138672 C52.9915365,219.712891 49.4270833,219 45.625,219 C41.8229167,219 38.2584635,219.712891 34.9316406,221.138672 C31.6048177,222.564453 28.7057292,224.513021 26.234375,226.984375 C23.7630208,229.455729 21.8144531,232.354818 20.3886719,235.681641 C18.9628906,239.008464 18.25,242.572917 18.25,246.375 C18.25,250.177083 18.9628906,253.741536 20.3886719,257.068359 C21.8144531,260.395182 23.7630208,263.294271 26.234375,265.765625 C28.7057292,268.236979 31.6048177,270.185547 34.9316406,271.611328 C38.2584635,273.037109 41.8229167,273.75 45.625,273.75 C49.4270833,273.75 52.9915365,273.037109 56.3183594,271.611328 C59.6451823,270.185547 62.5442708,268.236979 65.015625,265.765625 C67.4869792,263.294271 69.4355469,260.395182 70.8613281,257.068359 C72.2871094,253.741536 73,250.177083 73,246.375 Z" id="Shape"></path>
            </g>
        </g>
    </g>
</svg>