<?xml version="1.0" encoding="utf-8"?>
<!-- Generator: Adobe Illustrator 24.0.0, SVG Export Plug-In . SVG Version: 6.00 Build 0)  -->
<svg version="1.1" id="Layer_1" xmlns="http://www.w3.org/2000/svg" xmlns:xlink="http://www.w3.org/1999/xlink" x="0px" y="0px"
	 viewBox="0 0 160 160" style="enable-background:new 0 0 160 160;" xml:space="preserve">
<style type="text/css">
	.st0{fill:#333333;}
	.st1{fill:#137E13;}
</style>
<g id="Layer_11">
	<g>
		<path class="st0" d="M78.8,127c2.1-1,4.2-2.1,6.3-3.1c2.1-1,4.1-2.1,6.2-3.2l5.6,5l-1,2.9c-3.6,1.8-7.2,3.6-10.8,5.4
			s-7.2,3.6-10.8,5.4L15.4,110V40.9l58.9-29.5l58.9,29.5v56.3L124.1,69c0,0-0.1-0.5-0.1-1.3s0-1.8,0-3c0-1.2,0-2.5,0-3.9
			s0-2.8,0-4.1s0-2.5,0-3.5s0-1.7,0-2.1L78.8,73.7V127z M24.4,104.3L69.8,127V73.7L24.4,51.1V104.3z M74.3,21.6L30,43.7l44.3,22.1
			l44.2-22.1L74.3,21.6z"/>
	</g>
	<polygon class="st1" points="140,147.9 119.6,132 99.2,147.9 107.4,122.4 87.9,107.1 112.3,107.1 119.6,84.5 126.9,107.1 
		151.3,107.1 131.8,122.4 	"/>
</g>
</svg>
