<?xml version="1.0" encoding="utf-8"?>
<!-- Generator: Adobe Illustrator 24.0.0, SVG Export Plug-In . SVG Version: 6.00 Build 0)  -->
<svg version="1.1" id="Layer_1" xmlns="http://www.w3.org/2000/svg" xmlns:xlink="http://www.w3.org/1999/xlink" x="0px" y="0px"
	 viewBox="0 0 160 160" style="enable-background:new 0 0 160 160;" xml:space="preserve">
<style type="text/css">
	.st0{fill:#333333;}
	.st1{fill:#137E13;}
</style>
<g id="Layer_3">
	<g>
		<path class="st0" d="M130.2,76.1c-0.8-2.9-2.1-5.9-3.8-8.4c-1.7-2.7-3.6-5-5.9-7.1s-4.8-3.8-7.8-5.3c3.2-2.5,5.7-5.5,7.6-9
			c1.9-3.6,2.7-7.4,2.7-11.3c0-3.6-0.6-6.7-1.9-9.9c-1.3-2.9-3.2-5.7-5.5-8s-4.8-4.2-8-5.5s-6.5-1.9-9.9-1.9c-3.6,0-6.9,0.6-9.9,1.9
			c-2.9,1.3-5.7,3.2-8,5.5s-4.2,4.8-5.5,8s-1.9,6.5-1.9,9.9c0,4,0.8,7.8,2.7,11.3c1.9,3.6,4.4,6.7,7.6,9c-3.4,1.7-6.3,3.8-8.8,6.3
			s-4.6,5.5-6.3,8.8c-2.5-3.2-5.5-5.7-9-7.6c-3.6-1.9-7.4-2.7-11.3-2.7c-3.6,0-6.9,0.6-9.9,1.9c-2.9,1.3-5.7,3.2-8,5.5
			c-2.3,2.3-4.2,4.8-5.5,8S22,82,22,85.4c0,4,0.8,7.8,2.7,11.3c1.9,3.6,4.4,6.7,7.6,9c-2.9,1.3-5.5,3.2-7.8,5.3
			c-2.3,2.1-4.2,4.6-5.9,7.1c-1.7,2.5-2.9,5.5-3.8,8.4c-0.8,2.9-1.3,6.1-1.3,9.2h8.4c0-3.6,0.6-6.7,1.9-9.9c1.3-2.9,3.2-5.7,5.5-8
			s5-4.2,8-5.5c3.2-1.3,6.3-1.9,9.9-1.9c3.6,0,6.7,0.6,9.9,1.9c2.9,1.3,5.7,3.2,8,5.5c2.3,2.3,4.2,4.8,5.5,8
			c1.3,3.2,1.9,6.5,1.9,9.9H81c0-3.2-0.4-6.3-1.3-9.2c-0.8-2.9-2.1-5.9-3.8-8.4c-1.7-2.7-3.6-5-5.9-7.1s-4.8-3.8-7.8-5.3
			c3.2-2.5,5.7-5.5,7.6-9c1.9-3.6,2.7-7.4,2.7-11.3c0-3.6,0.6-6.7,1.9-9.9c1.3-2.9,3.2-5.7,5.5-8s5-4.2,8-5.5
			c3.2-1.3,6.3-1.9,9.9-1.9c3.4,0,6.7,0.6,9.9,1.9c2.9,1.3,5.7,3.2,8,5.5s4.2,4.8,5.5,8c0.8,2,1.3,4.1,1.6,6.2l8.7,3.5
			C131.4,82,131,79,130.2,76.1z M62.8,92.1c-0.8,1.9-2.1,3.8-3.6,5.3s-3.2,2.7-5.3,3.6c-2.1,0.8-4.2,1.3-6.5,1.3s-4.4-0.4-6.5-1.3
			c-1.9-0.8-3.8-2.1-5.3-3.6s-2.7-3.2-3.6-5.3c-0.8-2.1-1.3-4.2-1.3-6.5s0.4-4.4,1.3-6.5c0.8-1.9,2.1-3.8,3.6-5.3s3.2-2.7,5.3-3.6
			c2.1-0.8,4.2-1.3,6.5-1.3s4.4,0.4,6.5,1.3c1.9,0.8,3.8,2.1,5.3,3.6s2.7,3.2,3.6,5.3c0.8,2.1,1.3,4.2,1.3,6.5
			C64,87.9,63.6,90,62.8,92.1z M104.2,50.2c-2.1,0.8-4.2,1.3-6.5,1.3s-4.4-0.4-6.5-1.3c-1.9-0.8-3.8-2.1-5.3-3.6s-2.7-3.2-3.6-5.3
			c-0.8-2.1-1.3-4.2-1.3-6.5s0.4-4.4,1.3-6.5c0.8-1.9,2.1-3.8,3.6-5.3s3.2-2.7,5.3-3.6c2.1-0.8,4.2-1.3,6.5-1.3s4.4,0.4,6.5,1.3
			c1.9,0.8,3.8,2.1,5.3,3.6s2.7,3.2,3.6,5.3c0.8,2.1,1.3,4.2,1.3,6.5s-0.4,4.4-1.3,6.5c-0.8,1.9-2.1,3.8-3.6,5.3
			C107.9,48.1,106.3,49.4,104.2,50.2z"/>
	</g>
	<g>
		<path class="st1" d="M137.6,118.9c0-0.2,0-0.4,0-0.6s0-0.4,0-0.6s0-0.4,0-0.6l8-4.9l-4.9-11.4l-9,2c-0.4-0.6-1-1-1.4-1.4l2-9
			l-11.6-4.9l-4.9,8c-0.2,0-0.4,0-0.6,0s-0.4,0-0.6,0s-0.4,0-0.6,0s-0.4,0-0.6,0l-4.7-8L97,92.3l2,9c-0.6,0.4-1,1-1.4,1.4l-9-2
			l-4.9,11.6l8,4.9c0,0.2,0,0.4,0,0.6s0,0.4,0,0.6s0,0.4,0,0.6s0,0.4,0,0.6l-8,4.9l4.9,11.6l9-2c0.4,0.6,1,1,1.4,1.4l-2,9l11.6,4.9
			l4.9-8c0.2,0,0.4,0,0.6,0s0.4,0,0.6,0s0.4,0,0.6,0s0.4,0,0.6,0l4.9,8l11.6-4.9l-2-9c0.6-0.4,1-1,1.4-1.4l9,2l4.9-11.6l-8-4.9
			C137.6,119.3,137.6,119.1,137.6,118.9z M114.5,134.2c-8.8,0-15.7-7.1-15.7-15.7s7.1-15.7,15.7-15.7s15.7,7.1,15.7,15.7
			S123.3,134.2,114.5,134.2z"/>
	</g>
</g>
</svg>
