<?xml version="1.0" encoding="utf-8"?>
<!-- Generator: Adobe Illustrator 24.0.0, SVG Export Plug-In . SVG Version: 6.00 Build 0)  -->
<svg version="1.1" id="Layer_1" xmlns="http://www.w3.org/2000/svg" xmlns:xlink="http://www.w3.org/1999/xlink" x="0px" y="0px"
	 viewBox="0 0 160 160" style="enable-background:new 0 0 160 160;" xml:space="preserve">
<style type="text/css">
	.st0{fill:#333333;}
</style>
<g id="Layer_9">
	<path class="st0" d="M152.2,77c-0.7-2.3-1.6-4.5-2.8-6.6s-2.7-3.9-4.4-5.7c-1.7-1.7-3.7-3.2-5.8-4.4c1.6-1.7,2.8-3.6,3.6-5.7
		c0.9-2.2,1.3-4.4,1.3-6.7c0-2.5-0.5-4.8-1.5-7s-2.3-4.1-3.9-5.8c-1.6-1.6-3.6-2.9-5.8-3.9c-2.2-1-4.6-1.5-7-1.5
		c-2.5,0-4.8,0.5-7,1.5c-2.2,1-4.1,2.3-5.7,3.9s-2.9,3.6-3.9,5.8s-1.5,4.6-1.5,7c0,2.3,0.4,4.6,1.3,6.7c0.9,2.2,2.1,4.1,3.6,5.7
		c-3.9,2.1-7,5.1-9.5,8.8c-2.5-3.8-5.8-6.7-9.8-8.9s-8.3-3.3-12.9-3.3s-8.9,1.1-12.9,3.3s-7.3,5.1-9.8,8.9c-2.5-3.7-5.6-6.7-9.5-8.8
		c1.6-1.7,2.8-3.6,3.6-5.7c0.9-2.2,1.3-4.4,1.3-6.7c0-2.5-0.5-4.8-1.5-7s-2.3-4.1-3.9-5.8c-1.6-1.6-3.6-2.9-5.8-3.9
		c-2.2-1-4.6-1.5-7-1.5c-2.5,0-4.8,0.5-7,1.5c-2.2,1-4.1,2.3-5.7,3.9s-2.9,3.6-3.9,5.8s-1.5,4.6-1.5,7c0,2.3,0.4,4.6,1.3,6.7
		c0.9,2.2,2.1,4.1,3.6,5.7c-2.1,1.2-4.1,2.6-5.8,4.4c-1.7,1.7-3.2,3.6-4.4,5.7S9.5,74.6,8.8,77c-0.7,2.3-1,4.7-1,7.2h9.1
		c0-2.5,0.5-4.8,1.5-7s2.3-4.1,3.9-5.8c1.6-1.6,3.5-2.9,5.7-3.9s4.5-1.5,7-1.5s4.8,0.5,7,1.5s4.1,2.3,5.8,3.9
		c1.6,1.6,2.9,3.6,3.9,5.8c1,2.2,1.5,4.6,1.5,7c0,4.3,1,8.4,2.9,12.2c2,3.9,4.7,7.1,8.1,9.6c-3.1,1.6-5.8,3.5-8.3,5.8
		s-4.6,4.8-6.3,7.6c-1.7,2.8-3.1,5.8-4,9.1c-0.9,3.2-1.4,6.6-1.4,10h9.1c0-3.7,0.7-7.2,2.2-10.5c1.4-3.3,3.4-6.2,5.8-8.6
		c2.5-2.5,5.3-4.4,8.6-5.8c3.3-1.4,6.8-2.2,10.5-2.2s7.2,0.7,10.5,2.2c3.3,1.4,6.2,3.4,8.6,5.8c2.5,2.5,4.4,5.3,5.8,8.6
		c1.4,3.3,2.2,6.8,2.2,10.5h9.1c0-3.4-0.5-6.8-1.4-10s-2.3-6.3-4-9.1c-1.7-2.8-3.9-5.4-6.3-7.6c-2.5-2.3-5.3-4.2-8.3-5.8
		c3.4-2.5,6.1-5.8,8.1-9.6c2-3.9,2.9-8,2.9-12.2c0-2.5,0.5-4.8,1.5-7s2.3-4.1,3.9-5.8c1.6-1.6,3.5-2.9,5.7-3.9s4.5-1.5,7-1.5
		c2.5,0,4.8,0.5,7,1.5s4.1,2.3,5.8,3.9c1.6,1.6,2.9,3.6,3.9,5.8c1,2.2,1.5,4.6,1.5,7h9.1C153.2,81.7,152.9,79.3,152.2,77z M35.4,57
		c-5,0-9.1-4.1-9.1-9.1s4.1-9.1,9.1-9.1s9.1,4.1,9.1,9.1S40.4,57,35.4,57z M80.7,102.1c-10,0-18-8.1-18-18s8.1-18,18-18
		s18,8.1,18,18S90.7,102.1,80.7,102.1z M126,57c-5,0-9.1-4.1-9.1-9.1s4.1-9.1,9.1-9.1s9.1,4.1,9.1,9.1S131,57,126,57z"/>
</g>
</svg>
