<?xml version="1.0" encoding="UTF-8"?>
<svg width="125px" height="125px" viewBox="0 0 125 125" version="1.1" xmlns="http://www.w3.org/2000/svg" xmlns:xlink="http://www.w3.org/1999/xlink">
    <title>Reference</title>
    <g id="Reference" stroke="none" stroke-width="1" fill="none" fill-rule="evenodd">
        <g id="Group" transform="translate(11.000000, 17.000000)" fill-rule="nonzero">
            <polygon id="Shape" fill="#FF6E21" points="68 8.67706708 92.9010989 84 101 81.3229329 76.0384615 6"></polygon>
            <path d="M30.2154846,91.5887612 L30.2154846,1.35121328 L52.877098,1.35121328 L52.877098,91.5887612 L30.2154846,91.5887612 Z M37.7693557,8.87100894 L37.7693557,84.0689655 L45.3232269,84.0689655 L45.3232269,8.87100894 L37.7693557,8.87100894 Z M0,91.5887612 L0,1.35121328 L22.6616134,1.35121328 L22.6616134,91.5887612 L0,91.5887612 Z M7.55387114,8.87100894 L7.55387114,84.0689655 L15.1077423,84.0689655 L15.1077423,8.87100894 L7.55387114,8.87100894 Z M80.4369247,0 L109,85.1851852 L88.5809421,92 L60.0178668,6.81481481 L80.4369247,0 Z M68.3979426,10.9272031 L92.7119653,83.6577267 L100.619924,81.0727969 L76.2468868,8.34227331 L68.3979426,10.9272031 Z" id="Shape" fill="#000000"></path>
        </g>
    </g>
</svg>