<?xml version="1.0" encoding="UTF-8"?>
<svg width="450px" height="450px" viewBox="0 0 450 450" version="1.1" xmlns="http://www.w3.org/2000/svg" xmlns:xlink="http://www.w3.org/1999/xlink">
    <title>Scripting</title>
    <defs>
        <rect id="path-1" x="0" y="0" width="450" height="450" rx="1"></rect>
    </defs>
    <g id="PlayFab-icons" stroke="none" stroke-width="1" fill="none" fill-rule="evenodd">
        <g id="Scripting">
            <g id="Rectangle-+-Path-Mask">
                <mask id="mask-2" fill="white">
                    <use xlink:href="#path-1"></use>
                </mask>
                <use id="Mask" fill="#0078D4" xlink:href="#path-1"></use>
            </g>
            <g id="Group" transform="translate(79.000000, 79.000000)" fill="#FFFFFF" fill-rule="nonzero">
                <path d="M255.5,0 C260.53776,0 265.242839,0.950520833 269.615234,2.8515625 C273.98763,4.75260417 277.884766,7.36653646 281.306641,10.6933594 C284.728516,14.0201823 287.342448,17.8697917 289.148438,22.2421875 C290.954427,26.6145833 291.904948,31.3671875 292,36.5 C292,41.5377604 291.049479,46.2428385 289.148438,50.6152344 C287.247396,54.9876302 284.633464,58.8847656 281.306641,62.3066406 C277.979818,65.7285156 274.130208,68.3424479 269.757812,70.1484375 C265.385417,71.9544271 260.632812,72.9049479 255.5,73 L237.25,73 L237.25,255.5 C237.25,260.53776 236.299479,265.242839 234.398438,269.615234 C232.497396,273.98763 229.883464,277.884766 226.556641,281.306641 C223.229818,284.728516 219.380208,287.342448 215.007812,289.148438 C210.635417,290.954427 205.882812,291.904948 200.75,292 L36.5,292 C31.4622396,292 26.7571615,291.049479 22.3847656,289.148438 C18.0123698,287.247396 14.1152344,284.633464 10.6933594,281.306641 C7.27148438,277.979818 4.65755208,274.130208 2.8515625,269.757812 C1.04557292,265.385417 0.0950520833,260.632812 0,255.5 C0,250.46224 0.950520833,245.757161 2.8515625,241.384766 C4.75260417,237.01237 7.36653646,233.115234 10.6933594,229.693359 C14.0201823,226.271484 17.8697917,223.657552 22.2421875,221.851562 C26.6145833,220.045573 31.3671875,219.095052 36.5,219 L36.5,36.5 C36.5,31.4622396 37.4505208,26.7571615 39.3515625,22.3847656 C41.2526042,18.0123698 43.8665365,14.1152344 47.1933594,10.6933594 C50.5201823,7.27148438 54.3697917,4.65755208 58.7421875,2.8515625 C63.1145833,1.04557292 67.8671875,0.0950520833 73,0 L255.5,0 Z M169.097656,273.75 C165.865885,268.046875 164.25,261.963542 164.25,255.5 C164.25,249.036458 165.865885,242.953125 169.097656,237.25 L36.5,237.25 C33.9335937,237.25 31.5572917,237.72526 29.3710937,238.675781 C27.1848958,239.626302 25.2838542,240.909505 23.6679687,242.525391 C22.0520833,244.141276 20.7213542,246.089844 19.6757812,248.371094 C18.6302083,250.652344 18.1549479,253.028646 18.25,255.5 C18.25,258.066406 18.7252604,260.442708 19.6757812,262.628906 C20.6263021,264.815104 21.9095052,266.716146 23.5253906,268.332031 C25.141276,269.947917 27.0898437,271.278646 29.3710937,272.324219 C31.6523437,273.369792 34.0286458,273.845052 36.5,273.75 L169.097656,273.75 Z M200.75,273.75 C203.316406,273.75 205.692708,273.27474 207.878906,272.324219 C210.065104,271.373698 211.966146,270.090495 213.582031,268.474609 C215.197917,266.858724 216.528646,264.910156 217.574219,262.628906 C218.619792,260.347656 219.095052,257.971354 219,255.5 L219,36.5 C219,30.0364583 220.615885,23.953125 223.847656,18.25 L73,18.25 C70.4335937,18.25 68.0572917,18.7252604 65.8710938,19.6757812 C63.6848958,20.6263021 61.7838542,21.9095052 60.1679687,23.5253906 C58.5520833,25.141276 57.2213542,27.0898438 56.1757812,29.3710938 C55.1302083,31.6523438 54.6549479,34.0286458 54.75,36.5 L54.75,219 L200.75,219 C203.221354,219 205.360026,219.902995 207.166016,221.708984 C208.972005,223.514974 209.875,225.653646 209.875,228.125 C209.875,230.596354 208.972005,232.735026 207.166016,234.541016 C205.360026,236.347005 203.221354,237.25 200.75,237.25 C198.373698,237.25 196.044922,237.677734 193.763672,238.533203 C191.482422,239.388672 189.486328,240.719401 187.775391,242.525391 C186.064453,244.236328 184.78125,246.232422 183.925781,248.513672 C183.070312,250.794922 182.595052,253.123698 182.5,255.5 C182.5,258.066406 182.97526,260.442708 183.925781,262.628906 C184.876302,264.815104 186.159505,266.716146 187.775391,268.332031 C189.391276,269.947917 191.339844,271.278646 193.621094,272.324219 C195.902344,273.369792 198.278646,273.845052 200.75,273.75 Z M255.5,54.75 C258.066406,54.75 260.442708,54.2747396 262.628906,53.3242188 C264.815104,52.3736979 266.716146,51.0904948 268.332031,49.4746094 C269.947917,47.858724 271.278646,45.9101562 272.324219,43.6289062 C273.369792,41.3476562 273.845052,38.9713542 273.75,36.5 C273.75,33.9335938 273.27474,31.5572917 272.324219,29.3710938 C271.373698,27.1848958 270.090495,25.2838542 268.474609,23.6679688 C266.858724,22.0520833 264.910156,20.7213542 262.628906,19.6757813 C260.347656,18.6302083 257.971354,18.1549479 255.5,18.25 C252.933594,18.25 250.557292,18.7252604 248.371094,19.6757813 C246.184896,20.6263021 244.283854,21.9095052 242.667969,23.5253906 C241.052083,25.141276 239.721354,27.0898438 238.675781,29.3710938 C237.630208,31.6523438 237.154948,34.0286458 237.25,36.5 L237.25,54.75 L255.5,54.75 Z M73,54.75 L200.75,54.75 L200.75,73 L73,73 L73,54.75 Z M73,91.25 L200.75,91.25 L200.75,109.5 L73,109.5 L73,91.25 Z M73,127.75 L200.75,127.75 L200.75,146 L73,146 L73,127.75 Z M73,164.25 L200.75,164.25 L200.75,182.5 L73,182.5 L73,164.25 Z" id="Shape"></path>
            </g>
        </g>
    </g>
</svg>