<?xml version="1.0" encoding="UTF-8"?>
<svg width="450px" height="450px" viewBox="0 0 450 450" version="1.1" xmlns="http://www.w3.org/2000/svg" xmlns:xlink="http://www.w3.org/1999/xlink">
    <title>Tools</title>
    <defs>
        <rect id="path-1" x="0" y="0" width="450" height="450" rx="1"></rect>
    </defs>
    <g id="PlayFab-icons" stroke="none" stroke-width="1" fill="none" fill-rule="evenodd">
        <g id="Tools">
            <g id="Rectangle-+-Path-Mask">
                <mask id="mask-2" fill="white">
                    <use xlink:href="#path-1"></use>
                </mask>
                <use id="Mask" fill="#0078D4" xlink:href="#path-1"></use>
            </g>
            <g id="Group" transform="translate(134.000000, 79.000000)" fill="#FFFFFF" fill-rule="nonzero">
                <path d="M182.5,164.25 L164.25,164.25 L164.25,264.625 C164.25,268.427083 163.537109,271.991536 162.111328,275.318359 C160.685547,278.645182 158.736979,281.544271 156.265625,284.015625 C153.794271,286.486979 150.895182,288.435547 147.568359,289.861328 C144.241536,291.287109 140.677083,292 136.875,292 C133.072917,292 129.508464,291.287109 126.181641,289.861328 C122.854818,288.435547 119.955729,286.486979 117.484375,284.015625 C115.013021,281.544271 113.064453,278.645182 111.638672,275.318359 C110.212891,271.991536 109.5,268.427083 109.5,264.625 L109.5,164.25 L91.25,164.25 L91.25,146 L127.75,146 L127.75,67.7246094 L109.5,49.4746094 L109.5,0 L164.25,0 L164.25,49.4746094 L146,67.7246094 L146,146 L182.5,146 L182.5,164.25 Z M127.75,41.7753906 L136.875,51.0429688 L146,41.7753906 L146,18.25 L127.75,18.25 L127.75,41.7753906 Z M146,164.25 L127.75,164.25 L127.75,264.625 C127.75,267.096354 128.652995,269.235026 130.458984,271.041016 C132.264974,272.847005 134.403646,273.75 136.875,273.75 C139.346354,273.75 141.485026,272.847005 143.291016,271.041016 C145.097005,269.235026 146,267.096354 146,264.625 L146,164.25 Z M45.625,0 C51.8984375,0 57.7916667,1.18815104 63.3046875,3.56445312 C68.8177083,5.94075521 73.6178385,9.22005208 77.7050781,13.4023438 C81.7923177,17.5846354 85.0716146,22.4322917 87.5429688,27.9453125 C90.0143229,33.4583333 91.25,39.3515625 91.25,45.625 C91.25,52.7539062 89.6341146,59.5026042 86.4023438,65.8710938 C83.1705729,72.2395833 78.703125,77.610026 73,81.9824219 L73,264.625 C73,268.427083 72.2871094,271.991536 70.8613281,275.318359 C69.4355469,278.645182 67.4869792,281.544271 65.015625,284.015625 C62.5442708,286.486979 59.6451823,288.435547 56.3183594,289.861328 C52.9915365,291.287109 49.4270833,292 45.625,292 C41.8229167,292 38.2584635,291.287109 34.9316406,289.861328 C31.6048177,288.435547 28.7057292,286.486979 26.234375,284.015625 C23.7630208,281.544271 21.8144531,278.645182 20.3886719,275.318359 C18.9628906,271.991536 18.25,268.427083 18.25,264.625 L18.25,81.9824219 C12.546875,77.7050781 8.07942708,72.3821615 4.84765625,66.0136719 C1.61588542,59.6451823 0,52.8489583 0,45.625 C0,39.3515625 1.18815104,33.4583333 3.56445312,27.9453125 C5.94075521,22.4322917 9.17252604,17.6321615 13.2597656,13.5449219 C17.3470052,9.45768229 22.1946615,6.17838542 27.8027344,3.70703125 C33.4108073,1.23567708 39.3515625,0 45.625,0 Z M54.75,71.859375 C57.4114583,70.3385417 59.8352865,68.7226562 62.0214844,67.0117188 C64.2076823,65.3007812 66.15625,63.4472656 67.8671875,61.4511719 C69.578125,59.4550781 70.8138021,57.1263021 71.5742188,54.4648438 C72.3346354,51.8033854 72.8098958,48.8567708 73,45.625 C73,42.7734375 72.5722656,40.0169271 71.7167969,37.3554688 C70.8613281,34.6940104 69.625651,32.2226562 68.0097656,29.9414062 C66.3938802,27.6601562 64.4453125,25.6640625 62.1640625,23.953125 C59.8828125,22.2421875 57.4114583,20.9114583 54.75,19.9609375 L54.75,45.625 L45.625,54.75 L36.5,45.625 L36.5,19.9609375 C33.7434896,20.9114583 31.2721354,22.2421875 29.0859375,23.953125 C26.8997396,25.6640625 24.9986979,27.6601562 23.3828125,29.9414062 C21.7669271,32.2226562 20.53125,34.6940104 19.6757812,37.3554688 C18.8203125,40.0169271 18.3450521,42.7734375 18.25,45.625 C18.25,48.9518229 18.6777344,51.8984375 19.5332031,54.4648438 C20.3886719,57.03125 21.671875,59.3125 23.3828125,61.3085938 C25.09375,63.3046875 26.9947917,65.2057292 29.0859375,67.0117188 C31.1770833,68.8177083 33.6484375,70.4335938 36.5,71.859375 L36.5,264.625 C36.5,267.096354 37.4029948,269.235026 39.2089844,271.041016 C41.014974,272.847005 43.1536458,273.75 45.625,273.75 C48.0963542,273.75 50.235026,272.847005 52.0410156,271.041016 C53.8470052,269.235026 54.75,267.096354 54.75,264.625 L54.75,71.859375 Z" id="Shape"></path>
            </g>
        </g>
    </g>
</svg>