<svg xmlns="http://www.w3.org/2000/svg" viewBox="0 0 131.02 151.29"><defs><style>.cls-1{fill:#2a3548;}.cls-2{fill:#f25c00;}.cls-3{fill:#1e2937;}.cls-4{fill:#cc4602;}.cls-5{fill:none;stroke:#f25c00;stroke-miterlimit:10;stroke-width:4px;}.cls-6{fill:#d7deed;}</style></defs><title>insights</title><g id="Layer_2" data-name="Layer 2"><g id="insights"><g id="Shield"><polygon class="cls-1" points="131.02 109.75 131.02 37.82 65.51 0 0 37.82 0 109.75 65.51 147.58 131.02 109.75"/><polygon class="cls-2" points="0 105.09 65.51 142.91 131.02 105.09 131.02 113.47 65.51 151.29 0 113.47 0 105.09"/><polygon class="cls-3" points="131.02 109.75 131.02 37.82 65.51 0 65.51 147.58 131.02 109.75"/><polygon class="cls-4" points="131.02 113.47 131.02 105.09 65.51 142.91 65.51 151.29 131.02 113.47"/></g><g id="Shadow"><path class="cls-3" d="M47.62,52.2h-12v48l1,3h12v-48Zm-7,7h3v37h-3Z"/><polygon class="cls-3" points="79.62 88.2 75.62 88.2 75.62 96.2 72.62 96.2 72.62 78.2 71.62 75.2 67.62 75.2 67.62 100.2 68.62 103.2 80.62 103.2 80.62 91.2 79.62 88.2"/><path class="cls-3" d="M95.62,88.2h-12v12l1,3h12v-12Zm-7,7h3v1h-3Z"/><path class="cls-3" d="M63.62,64.2h-12v36l1,3h12v-36Zm-7,7h3v25h-3Z"/><path class="cls-3" d="M89.62,82.2V78.59a6.8,6.8,0,0,1,1.51-3.8c.27-.28,6.49-6.9,6.49-13.07a14.81,14.81,0,0,0-1.35-6.18A14.13,14.13,0,0,0,82.62,44.2a14.28,14.28,0,0,0-14,14.52A13.51,13.51,0,0,0,69.87,64c1.18,5.43,6,10.57,6.23,10.81a3.86,3.86,0,0,1,.51.69s0,.08,0,.11V79.2a4.94,4.94,0,0,0,1,3v0a5,5,0,0,0,5,5h2A5,5,0,0,0,89.62,82.2Zm-16-20.48a10.28,10.28,0,0,1,10-10.52,10,10,0,0,1,8.82,5.57,11.31,11.31,0,0,1,.18,1.95c0,3.79-3.89,8.73-5.39,10.32a7.71,7.71,0,0,0-.89,1.16H78.89A7.1,7.1,0,0,0,78,69a27.26,27.26,0,0,1-4.28-6.23A6.9,6.9,0,0,1,73.62,61.72ZM81.47,77.2h3.15v2a1,1,0,0,1-1,1h-2V78.59A7.66,7.66,0,0,0,81.47,77.2Z"/></g><g id="Icon"><path class="cls-5" d="M94.62,58.72a12,12,0,1,0-24,0c0,5.44,5.93,11.69,5.93,11.69a8.69,8.69,0,0,1,2.07,5.18V79.2a3,3,0,0,0,3,3h2a3,3,0,0,0,3-3V75.59a8.74,8.74,0,0,1,2.06-5.18S94.62,64.16,94.62,58.72Z"/><line class="cls-5" x1="78.62" y1="72.2" x2="86.62" y2="72.2"/><path class="cls-6" d="M35.62,100.2h12v-48h-12Zm4-44h4v40h-4Z"/><polygon class="cls-6" points="75.62 88.2 75.62 96.2 71.62 96.2 71.62 75.2 67.62 75.2 67.62 100.2 79.62 100.2 79.62 88.2 75.62 88.2"/><path class="cls-6" d="M83.62,100.2h12v-12h-12Zm4-8h4v4h-4Z"/><path class="cls-6" d="M51.62,100.2h12v-36h-12Zm4-32h4v28h-4Z"/></g></g></g></svg>