<?xml version="1.0" encoding="utf-8"?>
<!-- Generator: Adobe Illustrator 21.1.0, SVG Export Plug-In . SVG Version: 6.00 Build 0)  -->
<svg version="1.1" id="Layer_1" xmlns="http://www.w3.org/2000/svg" xmlns:xlink="http://www.w3.org/1999/xlink" x="0px" y="0px"
	 viewBox="0 0 160 160" style="enable-background:new 0 0 160 160;" xml:space="preserve">
<style type="text/css">
	.st0{opacity:0.25;}
	.st1{fill:#537191;}
	.st2{fill:#2A3548;}
	.st3{fill:#F25C00;}
</style>
<g>
	<g class="st0">
		<polygon class="st1" points="117.4,71 43,112.6 43.8,139.6 116.2,140.8 		"/>
		<g>
			<path class="st1" d="M79.6,105.4c-2-1.2-4-2.4-6-3.8s-3.8-2.8-5.6-4.4c-1.8-1.6-3.4-3.2-5-5s-2.8-3.6-4-5.6s-2-4.2-2.6-6.4
				c-0.6-2.2-1-4.6-1-7.2V60c1.4,0,2.8,0,4-0.2c1.4-0.2,2.6-0.2,3.8-0.6c1.2-0.2,2.4-0.6,3.6-1.2c1.2-0.4,2.4-1.2,3.6-1.8
				c1.4-1,2.8-1.6,4.2-2s3-0.6,4.8-0.6c0.8,0,1.6,0,2.4,0.2s1.6,0.2,2.2,0.6c0.8,0.2,1.4,0.6,2.2,0.8c0.8,0.4,1.4,0.8,2.2,1.2
				c1.2,0.8,2.4,1.4,3.6,1.8c1.2,0.4,2.4,0.8,3.6,1.2c1.2,0.2,2.6,0.4,3.8,0.6c1.4,0.2,2.6,0.2,4,0.2v13c0,2.6-0.4,5-1,7.2
				s-1.6,4.4-2.6,6.4c-1.2,2-2.4,3.8-4,5.6s-3.2,3.4-5,5s-3.6,3-5.6,4.4C83.6,103,81.6,104.2,79.6,105.4z M62.1,66v8.2
				c0,1.8,0.2,3.4,0.8,5.2c0.4,1.6,1.2,3.2,2,4.6c0.8,1.4,1.8,2.8,3,4.2c1.2,1.4,2.4,2.6,3.6,3.8c1.2,1.2,2.6,2.2,4,3.2
				s2.8,2,4.2,2.8c1.4-0.8,2.8-1.8,4.2-2.8s2.8-2,4-3.2s2.4-2.4,3.6-3.8s2-2.8,3-4.2c0.8-1.4,1.4-3,2-4.6c0.4-1.6,0.8-3.4,0.8-5.2
				V66c-2-0.2-4-0.4-6-1s-3.8-1.4-5.6-2.6c-1-0.6-2-1-2.8-1.4c-1-0.2-2-0.4-3.2-0.4s-2.2,0.2-3.2,0.4s-1.8,0.8-2.8,1.4
				c-1.8,1.2-3.6,2-5.6,2.6C66.3,65.6,64.3,66,62.1,66z"/>
		</g>
	</g>
	<g>
		<g>
			<path class="st2" d="M112.8,14c1.2,0,2.2,0.2,3.2,0.6c1,0.4,1.8,1,2.6,1.8s1.4,1.6,1.8,2.6s0.6,2,0.6,3.2v115.6
				c0,1.2-0.2,2.2-0.6,3.2s-1,1.8-1.8,2.6s-1.6,1.4-2.6,1.8c-1,0.4-2,0.6-3.2,0.6H47.2c-1.2,0-2.2-0.2-3.2-0.6c-1-0.4-1.8-1-2.6-1.8
				S40,142,39.6,141s-0.6-2-0.6-3.2V22.2c0-1.2,0.2-2.2,0.6-3.2s1-1.8,1.8-2.6c0.8-0.8,1.6-1.4,2.6-1.8c1-0.4,2-0.6,3.2-0.6
				C47.2,14,112.8,14,112.8,14z M112.8,22.2H47.2v115.6h65.7L112.8,22.2L112.8,22.2z M71.8,121.2h16.5v8.2H71.8V121.2z"/>
		</g>
		<g>
			<path class="st3" d="M79.6,99.4c-2-1.2-4-2.4-6-3.8s-3.8-2.8-5.6-4.4c-1.8-1.6-3.4-3.2-5-5s-2.8-3.6-4-5.6s-2-4.2-2.6-6.4
				c-0.6-2.2-1-4.6-1-7.2V54c1.4,0,2.8,0,4-0.2c1.4-0.2,2.6-0.2,3.8-0.6c1.2-0.2,2.4-0.6,3.6-1.2c1.2-0.4,2.4-1.2,3.6-1.8
				c1.4-1,2.8-1.6,4.2-2c1.4-0.4,3-0.6,4.8-0.6c0.8,0,1.6,0,2.4,0.2s1.6,0.2,2.2,0.6c0.8,0.2,1.4,0.6,2.2,0.8
				c0.8,0.4,1.4,0.8,2.2,1.2c1.2,0.8,2.4,1.4,3.6,1.8c1.2,0.4,2.4,0.8,3.6,1.2c1.2,0.2,2.6,0.4,3.8,0.6c1.4,0.2,2.6,0.2,4,0.2v13
				c0,2.6-0.4,5-1,7.2s-1.6,4.4-2.6,6.4c-1.2,2-2.4,3.8-4,5.6s-3.2,3.4-5,5s-3.6,3-5.6,4.4C83.6,97,81.6,98.2,79.6,99.4z M62.1,60
				v8.2c0,1.8,0.2,3.4,0.8,5.2c0.4,1.6,1.2,3.2,2,4.6c0.8,1.4,1.8,2.8,3,4.2c1.2,1.4,2.4,2.6,3.6,3.8c1.2,1.2,2.6,2.2,4,3.2
				s2.8,2,4.2,2.8c1.4-0.8,2.8-1.8,4.2-2.8s2.8-2,4-3.2s2.4-2.4,3.6-3.8s2-2.8,3-4.2c0.8-1.4,1.4-3,2-4.6c0.4-1.6,0.8-3.4,0.8-5.2
				V60c-2-0.2-4-0.4-6-1s-3.8-1.4-5.6-2.6c-1-0.6-2-1-2.8-1.4c-1-0.2-2-0.4-3.2-0.4s-2.2,0.2-3.2,0.4s-1.8,0.8-2.8,1.4
				c-1.8,1.2-3.6,2-5.6,2.6C66.3,59.6,64.3,60,62.1,60z"/>
		</g>
	</g>
</g>
</svg>
