<?xml version="1.0" encoding="utf-8"?>
<!-- Generator: Adobe Illustrator 21.1.0, SVG Export Plug-In . SVG Version: 6.00 Build 0)  -->
<svg version="1.1" id="Layer_1" xmlns="http://www.w3.org/2000/svg" xmlns:xlink="http://www.w3.org/1999/xlink" x="0px" y="0px"
	 viewBox="0 0 160 160" style="enable-background:new 0 0 160 160;" xml:space="preserve">
<style type="text/css">
	.st0{fill:#2A3548;}
	.st1{fill:#F25C00;}
	.st2{fill:#1E2937;}
	.st3{fill:#CC4602;}
	.st4{fill:#D7DEED;}
</style>
<g>
	<g>
		<polygon class="st0" points="145.4,114.1 145.4,42.2 79.9,4.4 14.4,42.2 14.4,114.1 79.9,152 		"/>
		<polygon class="st1" points="14.4,109.5 79.9,147.3 145.4,109.5 145.4,117.8 79.9,155.7 14.4,117.8 		"/>
		<polygon class="st2" points="145.4,114.1 145.4,42.2 79.9,4.4 79.9,152 		"/>
		<polygon class="st3" points="145.4,117.8 145.4,109.5 79.9,147.3 79.9,155.7 		"/>
	</g>
</g>
<g>
	<g>
		<path class="st2" d="M61.3,89.4c1,0,1.9-0.2,2.8-0.6c0.9-0.4,1.6-0.9,2.3-1.5c0.7-0.7,1.2-1.4,1.5-2.3c0.4-0.9,0.6-1.8,0.6-2.8
			c0-1-0.2-1.9-0.6-2.8c-0.4-0.9-0.9-1.6-1.5-2.3c-0.7-0.7-1.4-1.2-2.3-1.5c-0.9-0.4-1.8-0.6-2.8-0.6c-1,0-1.9,0.2-2.8,0.6
			c-0.9,0.4-1.6,0.9-2.3,1.5c-0.7,0.7-1.2,1.4-1.5,2.3c-0.4,0.9-0.6,1.8-0.6,2.8c0,1,0.2,1.9,0.6,2.8c0.4,0.9,0.9,1.6,1.5,2.3
			c0.7,0.7,1.4,1.2,2.3,1.5C59.4,89.2,60.3,89.4,61.3,89.4z M75.7,60.7c0,1,0.2,1.9,0.6,2.8c0.4,0.9,0.9,1.6,1.5,2.3
			c0.7,0.7,1.4,1.2,2.3,1.5c0.9,0.4,1.8,0.6,2.8,0.6c1,0,1.9-0.2,2.8-0.6c0.9-0.4,1.6-0.9,2.3-1.5c0.7-0.7,1.2-1.4,1.5-2.3
			c0.4-0.9,0.6-1.8,0.6-2.8c0-1-0.2-1.9-0.6-2.8c-0.4-0.9-0.9-1.6-1.5-2.3c-0.7-0.7-1.4-1.2-2.3-1.5c-0.9-0.4-1.8-0.6-2.8-0.6
			c-1,0-1.9,0.2-2.8,0.6c-0.9,0.4-1.6,0.9-2.3,1.5c-0.7,0.7-1.2,1.4-1.5,2.3C75.8,58.8,75.7,59.8,75.7,60.7z M82.8,71.5
			c-1.5,0-2.9,0.3-4.2,0.8c-1.3,0.6-2.4,1.3-3.4,2.3c-1,1-1.7,2.1-2.3,3.4c-0.6,1.3-0.8,2.7-0.8,4.2c0,1.7-0.4,3.3-1.1,4.8
			c-0.8,1.5-1.8,2.8-3.2,3.8c1.2,0.6,2.3,1.4,3.3,2.3c1,0.9,1.8,1.9,2.5,3c0.7,1.1,1.2,2.3,1.6,3.6c0.4,1.3,0.6,2.6,0.6,4h-3.6
			c0-1.5-0.3-2.9-0.8-4.2c-0.6-1.3-1.3-2.4-2.3-3.4c-1-1-2.1-1.7-3.4-2.3c-1.3-0.6-2.7-0.8-4.2-0.8c-1.5,0-2.9,0.3-4.2,0.8
			c-1.3,0.6-2.4,1.3-3.4,2.3c-1,1-1.7,2.1-2.3,3.4c-0.6,1.3-0.8,2.7-0.8,4.2H47c0-1.4,0.2-2.7,0.6-4c0.4-1.3,0.9-2.5,1.6-3.6
			c0.7-1.1,1.5-2.1,2.5-3c1-0.9,2.1-1.7,3.3-2.3c-1.4-1-2.5-2.3-3.2-3.8c-0.8-1.5-1.1-3.1-1.1-4.8c0-1.5,0.3-2.9,0.8-4.2
			c0.6-1.3,1.3-2.4,2.3-3.4c1-1,2.1-1.7,3.4-2.3c1.3-0.6,2.7-0.8,4.2-0.8c1.7,0,3.3,0.4,4.8,1.1c1.5,0.8,2.8,1.8,3.8,3.2
			c0.7-1.4,1.6-2.6,2.7-3.7c1.1-1.1,2.4-2,3.7-2.7c-1.4-1-2.5-2.3-3.2-3.8c-0.8-1.5-1.1-3.1-1.1-4.8c0-1.5,0.3-2.9,0.8-4.2
			c0.6-1.3,1.3-2.4,2.3-3.4c1-1,2.1-1.7,3.4-2.3c1.3-0.6,2.7-0.8,4.2-0.8c1.5,0,2.9,0.3,4.2,0.8c1.3,0.6,2.4,1.3,3.4,2.3
			c1,1,1.7,2.1,2.3,3.4c0.6,1.3,0.8,2.7,0.8,4.2c0,1.7-0.4,3.3-1.1,4.8c-0.8,1.5-1.8,2.8-3.2,3.8c1.2,0.6,2.3,1.4,3.3,2.3
			c1,0.9,1.8,1.9,2.5,3c0.7,1.1,1.2,2.3,1.6,3.6c0.4,1.3,0.6,2.6,0.6,4h-3.6c0-1.5-0.3-2.9-0.8-4.2c-0.6-1.3-1.3-2.4-2.3-3.4
			c-1-1-2.1-1.7-3.4-2.3C85.7,71.8,84.3,71.5,82.8,71.5z"/>
	</g>
</g>
<g>
	<g>
		<path class="st1" d="M109.9,97.7c0,1.4-0.2,2.7-0.5,4c-0.4,1.3-0.9,2.5-1.5,3.7c-0.7,1.1-1.5,2.2-2.4,3.1c-0.9,0.9-2,1.7-3.1,2.4
			c-1.1,0.7-2.3,1.2-3.6,1.6c-1.3,0.4-2.6,0.6-4,0.6c-2.1,0-4.2-0.4-6-1.2c-1.9-0.8-3.5-1.9-4.9-3.3c-1.4-1.4-2.5-3-3.3-4.9
			c-0.8-1.9-1.2-3.9-1.2-6c0-2.1,0.4-4.1,1.2-6c0.8-1.9,1.9-3.5,3.3-4.9c1.4-1.4,3-2.5,4.9-3.3c1.9-0.8,3.8-1.2,6-1.2
			c2.1,0,4.1,0.4,6,1.2c1.9,0.8,3.5,1.9,4.9,3.3c1.4,1.4,2.5,3,3.3,4.9C109.5,93.6,109.9,95.5,109.9,97.7z M82.2,97.7
			c0,0.5,0,1,0.1,1.5c0.1,0.5,0.2,1,0.3,1.5h5.8c-0.1-2-0.1-4.1,0-6.1h-5.8c-0.1,0.5-0.2,1-0.3,1.5C82.3,96.6,82.2,97.1,82.2,97.7z
			 M89.9,86.3c-1.2,0.5-2.4,1.2-3.4,2.1s-1.9,1.9-2.6,3.1h4.8c0.1-0.9,0.3-1.8,0.4-2.7C89.3,88,89.5,87.1,89.9,86.3z M83.9,103.8
			c0.7,1.2,1.5,2.2,2.5,3.1c1,0.9,2.1,1.6,3.4,2.1c-0.3-0.8-0.6-1.7-0.7-2.6c-0.2-0.9-0.3-1.8-0.4-2.6H83.9z M97.5,100.7
			c0-1,0.1-2,0.1-3.1c0-1,0-2-0.1-3.1h-6c0,1-0.1,2.1-0.1,3.1c0,1,0,2,0.1,3.1H97.5z M94.5,109.9c0.3,0,0.6-0.1,0.9-0.4
			c0.3-0.2,0.5-0.6,0.7-0.9c0.2-0.4,0.4-0.8,0.5-1.3c0.1-0.5,0.3-0.9,0.4-1.4c0.1-0.5,0.2-0.9,0.2-1.3c0-0.4,0.1-0.7,0.1-0.9h-5.5
			c0,0.2,0.1,0.5,0.1,0.9c0.1,0.4,0.1,0.8,0.2,1.2c0.1,0.4,0.2,0.9,0.4,1.4c0.1,0.5,0.3,0.9,0.5,1.3c0.2,0.4,0.4,0.7,0.7,0.9
			C93.9,109.8,94.2,109.9,94.5,109.9z M94.5,85.4c-0.3,0-0.6,0.1-0.8,0.4c-0.2,0.2-0.5,0.6-0.6,1c-0.2,0.4-0.4,0.8-0.5,1.3
			c-0.1,0.5-0.3,0.9-0.4,1.4c-0.1,0.5-0.2,0.9-0.3,1.3c-0.1,0.4-0.1,0.7-0.1,0.9h5.4c0-0.2-0.1-0.5-0.1-0.8
			c-0.1-0.4-0.2-0.8-0.3-1.2c-0.1-0.5-0.2-0.9-0.4-1.4c-0.1-0.5-0.3-0.9-0.5-1.3c-0.2-0.4-0.4-0.7-0.6-1
			C95,85.5,94.8,85.4,94.5,85.4z M105.1,91.5c-0.7-1.2-1.6-2.3-2.6-3.2c-1-0.9-2.2-1.6-3.5-2.1c0.3,0.8,0.6,1.7,0.8,2.6
			c0.2,0.9,0.4,1.8,0.5,2.7H105.1z M99.3,108.9c1.2-0.5,2.3-1.2,3.3-2.1c1-0.9,1.8-1.9,2.5-3.1h-4.7c-0.1,0.9-0.2,1.8-0.4,2.6
			C99.9,107.3,99.6,108.1,99.3,108.9z M100.6,94.6c0,1,0.1,2,0.1,3.1c0,1,0,2,0,3.1h5.8c0.1-0.5,0.2-1,0.3-1.5
			c0.1-0.5,0.1-1,0.1-1.5c0-0.5,0-1-0.1-1.5c-0.1-0.5-0.2-1-0.3-1.5H100.6z"/>
	</g>
	<g>
		<path class="st4" d="M61.3,86.4c1,0,1.9-0.2,2.8-0.6c0.9-0.4,1.6-0.9,2.3-1.5c0.7-0.7,1.2-1.4,1.5-2.3c0.4-0.9,0.6-1.8,0.6-2.8
			c0-1-0.2-1.9-0.6-2.8c-0.4-0.9-0.9-1.6-1.5-2.3c-0.7-0.7-1.4-1.2-2.3-1.5c-0.9-0.4-1.8-0.6-2.8-0.6c-1,0-1.9,0.2-2.8,0.6
			c-0.9,0.4-1.6,0.9-2.3,1.5c-0.7,0.7-1.2,1.4-1.5,2.3c-0.4,0.9-0.6,1.8-0.6,2.8c0,1,0.2,1.9,0.6,2.8c0.4,0.9,0.9,1.6,1.5,2.3
			c0.7,0.7,1.4,1.2,2.3,1.5C59.4,86.2,60.3,86.4,61.3,86.4z M75.7,57.7c0,1,0.2,1.9,0.6,2.8c0.4,0.9,0.9,1.6,1.5,2.3
			c0.7,0.7,1.4,1.2,2.3,1.5c0.9,0.4,1.8,0.6,2.8,0.6c1,0,1.9-0.2,2.8-0.6c0.9-0.4,1.6-0.9,2.3-1.5c0.7-0.7,1.2-1.4,1.5-2.3
			c0.4-0.9,0.6-1.8,0.6-2.8c0-1-0.2-1.9-0.6-2.8c-0.4-0.9-0.9-1.6-1.5-2.3c-0.7-0.7-1.4-1.2-2.3-1.5c-0.9-0.4-1.8-0.6-2.8-0.6
			c-1,0-1.9,0.2-2.8,0.6c-0.9,0.4-1.6,0.9-2.3,1.5c-0.7,0.7-1.2,1.4-1.5,2.3C75.8,55.8,75.7,56.8,75.7,57.7z M82.8,68.5
			c-1.5,0-2.9,0.3-4.2,0.8c-1.3,0.6-2.4,1.3-3.4,2.3c-1,1-1.7,2.1-2.3,3.4c-0.6,1.3-0.8,2.7-0.8,4.2c0,1.7-0.4,3.3-1.1,4.8
			c-0.8,1.5-1.8,2.8-3.2,3.8c1.2,0.6,2.3,1.4,3.3,2.3c1,0.9,1.8,1.9,2.5,3c0.7,1.1,1.2,2.3,1.6,3.6c0.4,1.3,0.6,2.6,0.6,4h-3.6
			c0-1.5-0.3-2.9-0.8-4.2c-0.6-1.3-1.3-2.4-2.3-3.4c-1-1-2.1-1.7-3.4-2.3c-1.3-0.6-2.7-0.8-4.2-0.8c-1.5,0-2.9,0.3-4.2,0.8
			c-1.3,0.6-2.4,1.3-3.4,2.3c-1,1-1.7,2.1-2.3,3.4c-0.6,1.3-0.8,2.7-0.8,4.2H47c0-1.4,0.2-2.7,0.6-4c0.4-1.3,0.9-2.5,1.6-3.6
			c0.7-1.1,1.5-2.1,2.5-3c1-0.9,2.1-1.7,3.3-2.3c-1.4-1-2.5-2.3-3.2-3.8c-0.8-1.5-1.1-3.1-1.1-4.8c0-1.5,0.3-2.9,0.8-4.2
			c0.6-1.3,1.3-2.4,2.3-3.4c1-1,2.1-1.7,3.4-2.3c1.3-0.6,2.7-0.8,4.2-0.8c1.7,0,3.3,0.4,4.8,1.1c1.5,0.8,2.8,1.8,3.8,3.2
			c0.7-1.4,1.6-2.6,2.7-3.7c1.1-1.1,2.4-2,3.7-2.7c-1.4-1-2.5-2.3-3.2-3.8c-0.8-1.5-1.1-3.1-1.1-4.8c0-1.5,0.3-2.9,0.8-4.2
			c0.6-1.3,1.3-2.4,2.3-3.4c1-1,2.1-1.7,3.4-2.3c1.3-0.6,2.7-0.8,4.2-0.8c1.5,0,2.9,0.3,4.2,0.8c1.3,0.6,2.4,1.3,3.4,2.3
			c1,1,1.7,2.1,2.3,3.4c0.6,1.3,0.8,2.7,0.8,4.2c0,1.7-0.4,3.3-1.1,4.8c-0.8,1.5-1.8,2.8-3.2,3.8c1.2,0.6,2.3,1.4,3.3,2.3
			c1,0.9,1.8,1.9,2.5,3c0.7,1.1,1.2,2.3,1.6,3.6c0.4,1.3,0.6,2.6,0.6,4h-3.6c0-1.5-0.3-2.9-0.8-4.2c-0.6-1.3-1.3-2.4-2.3-3.4
			c-1-1-2.1-1.7-3.4-2.3C85.7,68.8,84.3,68.5,82.8,68.5z"/>
	</g>
</g>
</svg>
