<?xml version="1.0" encoding="utf-8"?>
<!-- Generator: Adobe Illustrator 21.1.0, SVG Export Plug-In . SVG Version: 6.00 Build 0)  -->
<svg version="1.1" id="Layer_1" xmlns="http://www.w3.org/2000/svg" xmlns:xlink="http://www.w3.org/1999/xlink" x="0px" y="0px"
	 viewBox="0 0 160 160" style="enable-background:new 0 0 160 160;" xml:space="preserve">
<style type="text/css">
	.st0{fill:#2A3548;}
	.st1{fill:#F25C00;}
	.st2{fill:#1E2937;}
	.st3{fill:#CC4602;}
	.st4{fill:#D7DEED;}
</style>
<g>
	<g>
		<polygon class="st0" points="145.4,114.1 145.4,42.2 79.9,4.4 14.4,42.2 14.4,114.1 79.9,152 		"/>
		<polygon class="st1" points="14.4,109.5 79.9,147.3 145.4,109.5 145.4,117.8 79.9,155.7 14.4,117.8 		"/>
		<polygon class="st2" points="145.4,114.1 145.4,42.2 79.9,4.4 79.9,152 		"/>
		<polygon class="st3" points="145.4,117.8 145.4,109.5 79.9,147.3 79.9,155.7 		"/>
	</g>
</g>
<g>
	<path class="st4" d="M91.6,68.6l9.9-8.3c-0.9-1-1.8-1.9-2.8-2.8l-8.3,9.9C90.8,67.8,91.2,68.2,91.6,68.6z"/>
	<path class="st4" d="M89.5,66.6l8.4-10c-1-0.8-2.1-1.6-3.3-2.3L88,65.6C88.5,65.9,89,66.2,89.5,66.6z"/>
	<path class="st4" d="M85.4,95.8l4.4,12.2c1.2-0.5,2.5-1,3.6-1.7L87,95C86.5,95.3,85.9,95.5,85.4,95.8z"/>
	<path class="st4" d="M63.2,86.4L51,90.8c0.5,1.2,1,2.5,1.7,3.6L64,88C63.7,87.5,63.5,86.9,63.2,86.4z"/>
	<path class="st4" d="M93.4,71l11.3-6.5c-0.7-1.1-1.5-2.2-2.3-3.3l-10,8.4C92.8,70,93.1,70.5,93.4,71z"/>
	<path class="st4" d="M94.8,73.6l12.2-4.4c-0.5-1.2-1-2.5-1.7-3.6L94,72C94.3,72.5,94.5,73.1,94.8,73.6z"/>
	<path class="st4" d="M84.2,63.8l4.4-12.2c-1.3-0.4-2.5-0.8-3.9-1l-2.3,12.8C83.1,63.5,83.7,63.6,84.2,63.8z"/>
	<path class="st4" d="M88,94.4l6.5,11.3c1.1-0.7,2.2-1.5,3.3-2.3l-8.4-10C89,93.8,88.5,94.1,88,94.4z"/>
	<path class="st4" d="M62.4,83.6l-12.8,2.3c0.3,1.3,0.6,2.6,1,3.9l12.2-4.4C62.6,84.7,62.5,84.1,62.4,83.6z"/>
	<path class="st4" d="M87,65l6.5-11.3c-1.2-0.6-2.4-1.2-3.6-1.7l-4.4,12.2C85.9,64.5,86.5,64.7,87,65z"/>
	<path class="st4" d="M79.6,97v13c1.4,0,2.7-0.1,4-0.3l-2.3-12.8C80.8,96.9,80.2,97,79.6,97z"/>
	<path class="st4" d="M81.3,63.1l2.3-12.8c-1.3-0.2-2.6-0.3-4-0.3v13C80.2,63,80.8,63.1,81.3,63.1z"/>
	<path class="st4" d="M71,95l-6.5,11.3c1.2,0.6,2.4,1.2,3.6,1.7l4.4-12.2C72.1,95.5,71.5,95.3,71,95z"/>
	<path class="st4" d="M68.5,93.4l-8.4,10c1,0.8,2.1,1.6,3.3,2.3L70,94.4C69.5,94.1,69,93.8,68.5,93.4z"/>
	<path class="st4" d="M76.7,96.9l-2.3,12.8c1.3,0.2,2.6,0.3,4,0.3V97C77.8,97,77.2,96.9,76.7,96.9z"/>
	<path class="st4" d="M64.6,89l-11.3,6.5c0.7,1.1,1.5,2.2,2.3,3.3l10-8.4C65.2,90,64.9,89.5,64.6,89z"/>
	<path class="st4" d="M82.6,96.6l2.3,12.8c1.3-0.3,2.6-0.6,3.9-1l-4.4-12.2C83.7,96.4,83.1,96.5,82.6,96.6z"/>
	<path class="st4" d="M95.6,76.4l12.8-2.3c-0.3-1.3-0.6-2.6-1-3.9l-12.2,4.4C95.4,75.3,95.5,75.9,95.6,76.4z"/>
	<path class="st4" d="M66.4,91.4l-9.9,8.3c0.9,1,1.8,1.9,2.8,2.8l8.3-9.9C67.2,92.2,66.8,91.8,66.4,91.4z"/>
	<path class="st4" d="M96,79.4h13c0-1.4-0.1-2.7-0.3-4l-12.8,2.3C95.9,78.2,96,78.8,96,79.4z"/>
	<path class="st4" d="M73.8,96.2l-4.4,12.2c1.3,0.4,2.5,0.8,3.9,1l2.3-12.8C74.9,96.5,74.3,96.4,73.8,96.2z"/>
	<path class="st4" d="M94,88l11.3,6.5c0.6-1.2,1.2-2.4,1.7-3.6l-12.2-4.4C94.5,86.9,94.3,87.5,94,88z"/>
	<path class="st4" d="M96,80.6c0,0.6-0.1,1.2-0.1,1.7l12.8,2.3c0.2-1.3,0.3-2.6,0.3-4H96z"/>
	<path class="st4" d="M62.1,77.7l-12.8-2.3c-0.2,1.3-0.3,2.6-0.3,4h13C62,78.8,62.1,78.2,62.1,77.7z"/>
	<path class="st4" d="M65.6,69.5l-10-8.4c-0.8,1-1.6,2.1-2.3,3.3L64.6,71C64.9,70.5,65.2,70,65.6,69.5z"/>
	<path class="st4" d="M67.6,67.4l-8.3-9.9c-1,0.9-1.9,1.8-2.8,2.8l9.9,8.3C66.8,68.2,67.2,67.8,67.6,67.4z"/>
	<path class="st4" d="M95.2,85.2l12.2,4.4c0.4-1.3,0.8-2.5,1-3.9l-12.8-2.3C95.5,84.1,95.4,84.7,95.2,85.2z"/>
	<path class="st4" d="M62.8,74.8l-12.2-4.4c-0.4,1.3-0.8,2.5-1,3.9l12.8,2.3C62.5,75.9,62.6,75.3,62.8,74.8z"/>
	<path class="st4" d="M64,72l-11.3-6.5c-0.6,1.2-1.2,2.4-1.7,3.6l12.2,4.4C63.5,73.1,63.7,72.5,64,72z"/>
	<path class="st4" d="M70,65.6l-6.5-11.3c-1.1,0.7-2.2,1.5-3.3,2.3l8.4,10C69,66.2,69.5,65.9,70,65.6z"/>
	<path class="st4" d="M75.4,63.4l-2.3-12.8c-1.3,0.3-2.6,0.6-3.9,1l4.4,12.2C74.3,63.6,74.9,63.5,75.4,63.4z"/>
	<path class="st4" d="M78.4,63V50c-1.4,0-2.7,0.1-4,0.3l2.3,12.8C77.2,63.1,77.8,63,78.4,63z"/>
	<path class="st4" d="M62,80.6H49c0,1.4,0.1,2.7,0.3,4l12.8-2.3C62.1,81.8,62,81.2,62,80.6z"/>
	<path class="st4" d="M92.4,90.5l10,8.4c0.8-1,1.6-2.1,2.3-3.3L93.4,89C93.1,89.5,92.8,90,92.4,90.5z"/>
	<path class="st4" d="M72.6,64.2L68.2,52c-1.2,0.5-2.5,1-3.6,1.7L71,65C71.5,64.7,72.1,64.5,72.6,64.2z"/>
	<path class="st4" d="M90.4,92.6l8.3,9.9c1-0.9,1.9-1.8,2.8-2.8l-9.9-8.3C91.2,91.8,90.8,92.2,90.4,92.6z"/>
</g>
</svg>
