<svg id="ICONS-64x" xmlns="http://www.w3.org/2000/svg" viewBox="0 0 64 64">
  <defs>
    <style>
      .cls-1, .cls-3 {
        fill: #fff;
      }

      .cls-2 {
        fill: #fedac3;
      }

      .cls-3, .cls-6 {
        stroke: #263746;
        stroke-miterlimit: 10;
        stroke-width: 2px;
      }

      .cls-4 {
        fill: #e5e5e5;
      }

      .cls-5 {
        fill: #263746;
      }

      .cls-6 {
        fill: none;
      }
    </style>
  </defs>
  <title>i_learn-about</title>
  <polygon class="cls-1" points="55.5 20.21 55.5 63.5 8.5 63.5 8.5 0.5 34.8 0.5 55.5 20.21"/>
  <polygon class="cls-2" points="55.5 20.5 34.5 20.5 34.5 0.5 55.5 20.5"/>
  <path class="cls-3" d="M34.88,1H10A1,1,0,0,0,9,2V62a1,1,0,0,0,1,1H54a1,1,0,0,0,1-1V20.37Z"/>
  <rect class="cls-4" x="10" y="2" width="16" height="60"/>
  <path class="cls-5" d="M18.6,23.41V32H17.24V25.07a4.33,4.33,0,0,1-.79.45,6.54,6.54,0,0,1-1,.33V24.69l.66-.23q.32-.12.62-.28t.62-.34q.31-.19.65-.43Z"/>
  <path class="cls-5" d="M20.85,44H15.57v-.65a2.44,2.44,0,0,1,.11-.75,3,3,0,0,1,.3-.66,3.66,3.66,0,0,1,.44-.58q.25-.27.54-.53l.59-.49.59-.48q.27-.23.49-.45A3,3,0,0,0,19,39a2.06,2.06,0,0,0,.25-.5,1.76,1.76,0,0,0,.09-.57,1.52,1.52,0,0,0-.1-.58,1.13,1.13,0,0,0-.29-.42,1.23,1.23,0,0,0-.44-.25,1.71,1.71,0,0,0-.55-.08,2.54,2.54,0,0,0-1,.24,3.59,3.59,0,0,0-1,.72V36.22a4.29,4.29,0,0,1,.52-.34,3.55,3.55,0,0,1,.54-.24,3.36,3.36,0,0,1,.59-.14,4.44,4.44,0,0,1,.66,0,3.35,3.35,0,0,1,1,.15A2.2,2.2,0,0,1,20,36a1.93,1.93,0,0,1,.51.72,2.6,2.6,0,0,1,.18,1,3.1,3.1,0,0,1-.13.92,3,3,0,0,1-.36.76,3.94,3.94,0,0,1-.56.67q-.33.32-.73.65l-.68.54q-.34.26-.61.51a2.85,2.85,0,0,0-.44.5.89.89,0,0,0-.17.5v0h3.79Z"/>
  <path class="cls-5" d="M15.72,55.69V54.41a2.9,2.9,0,0,0,1.85.65,2.16,2.16,0,0,0,1.34-.38,1.23,1.23,0,0,0,.5-1q0-1.43-2.19-1.43h-.65V51.13h.62q1.94,0,1.94-1.35t-1.51-1.24a2.48,2.48,0,0,0-1.59.6V47.94a4.06,4.06,0,0,1,2-.48,2.71,2.71,0,0,1,1.79.56,1.79,1.79,0,0,1,.67,1.44,2.05,2.05,0,0,1-1.69,2.13v0a2.21,2.21,0,0,1,1.44.64,1.89,1.89,0,0,1,.53,1.37A2.24,2.24,0,0,1,20,55.45a3.43,3.43,0,0,1-2.24.69A3.82,3.82,0,0,1,15.72,55.69Z"/>
  <polyline class="cls-6" points="34 1 34 21 55 21"/>
  <line class="cls-6" x1="27" y1="28" x2="47" y2="28"/>
  <line class="cls-6" x1="27" y1="40" x2="47" y2="40"/>
  <line class="cls-6" x1="27" y1="52" x2="47" y2="52"/>
</svg>
