<?xml version="1.0" encoding="utf-8"?>
<!-- Generator: Adobe Illustrator 21.1.0, SVG Export Plug-In . SVG Version: 6.00 Build 0)  -->
<svg version="1.1" id="Layer_1" xmlns="http://www.w3.org/2000/svg" xmlns:xlink="http://www.w3.org/1999/xlink" x="0px" y="0px"
	 viewBox="0 0 160 160" style="enable-background:new 0 0 160 160;" xml:space="preserve">
<style type="text/css">
	.st0{fill:#2A3548;}
</style>
<g>
	<path class="st0" d="M105.2,57.2L125,40.6c-1.8-2-3.6-3.8-5.6-5.6l-16.6,19.8C103.6,55.6,104.4,56.4,105.2,57.2z"/>
	<path class="st0" d="M101,53.2l16.8-20c-2-1.6-4.2-3.2-6.6-4.6L98,51.2C99,51.8,100,52.4,101,53.2z"/>
	<path class="st0" d="M92.8,111.6l8.8,24.4c2.4-1,5-2,7.2-3.4L96,110C95,110.6,93.8,111,92.8,111.6z"/>
	<path class="st0" d="M48.4,92.8L24,101.6c1,2.4,2,5,3.4,7.2L50,96C49.4,95,49,93.8,48.4,92.8z"/>
	<path class="st0" d="M108.8,62l22.6-13c-1.4-2.2-3-4.4-4.6-6.6l-20,16.8C107.6,60,108.2,61,108.8,62z"/>
	<path class="st0" d="M111.6,67.2l24.4-8.8c-1-2.4-2-5-3.4-7.2L110,64C110.6,65,111,66.2,111.6,67.2z"/>
	<path class="st0" d="M90.4,47.6l8.8-24.4c-2.6-0.8-5-1.6-7.8-2l-4.6,25.6C88.2,47,89.4,47.2,90.4,47.6z"/>
	<path class="st0" d="M98,108.8l13,22.6c2.2-1.4,4.4-3,6.6-4.6l-16.8-20C100,107.6,99,108.2,98,108.8z"/>
	<path class="st0" d="M46.8,87.2l-25.6,4.6c0.6,2.6,1.2,5.2,2,7.8l24.4-8.8C47.2,89.4,47,88.2,46.8,87.2z"/>
	<path class="st0" d="M96,50l13-22.6c-2.4-1.2-4.8-2.4-7.2-3.4L93,48.4C93.8,49,95,49.4,96,50z"/>
	<path class="st0" d="M81.2,114v26c2.8,0,5.4-0.2,8-0.6l-4.6-25.6C83.6,113.8,82.4,114,81.2,114z"/>
	<path class="st0" d="M84.6,46.2l4.6-25.6c-2.6-0.4-5.2-0.6-8-0.6v26C82.4,46,83.6,46.2,84.6,46.2z"/>
	<path class="st0" d="M64,110l-13,22.6c2.4,1.2,4.8,2.4,7.2,3.4l8.8-24.4C66.2,111,65,110.6,64,110z"/>
	<path class="st0" d="M59,106.8l-16.8,20c2,1.6,4.2,3.2,6.6,4.6L62,108.8C61,108.2,60,107.6,59,106.8z"/>
	<path class="st0" d="M75.4,113.8l-4.6,25.6c2.6,0.4,5.2,0.6,8,0.6v-26C77.6,114,76.4,113.8,75.4,113.8z"/>
	<path class="st0" d="M51.2,98l-22.6,13c1.4,2.2,3,4.4,4.6,6.6l20-16.8C52.4,100,51.8,99,51.2,98z"/>
	<path class="st0" d="M87.2,113.2l4.6,25.6c2.6-0.6,5.2-1.2,7.8-2l-8.8-24.4C89.4,112.8,88.2,113,87.2,113.2z"/>
	<path class="st0" d="M113.2,72.8l25.6-4.6c-0.6-2.6-1.2-5.2-2-7.8l-24.4,8.8C112.8,70.6,113,71.8,113.2,72.8z"/>
	<path class="st0" d="M54.8,102.8L35,119.4c1.8,2,3.6,3.8,5.6,5.6l16.6-19.8C56.4,104.4,55.6,103.6,54.8,102.8z"/>
	<path class="st0" d="M114,78.8h26c0-2.8-0.2-5.4-0.6-8l-25.6,4.6C113.8,76.4,114,77.6,114,78.8z"/>
	<path class="st0" d="M69.6,112.4l-8.8,24.4c2.6,0.8,5,1.6,7.8,2l4.6-25.6C71.8,113,70.6,112.8,69.6,112.4z"/>
	<path class="st0" d="M110,96l22.6,13c1.2-2.4,2.4-4.8,3.4-7.2L111.6,93C111,93.8,110.6,95,110,96z"/>
	<path class="st0" d="M114,81.2c0,1.2-0.2,2.4-0.2,3.4l25.6,4.6c0.4-2.6,0.6-5.2,0.6-8H114z"/>
	<path class="st0" d="M46.2,75.4l-25.6-4.6c-0.4,2.6-0.6,5.2-0.6,8h26C46,77.6,46.2,76.4,46.2,75.4z"/>
	<path class="st0" d="M53.2,59l-20-16.8c-1.6,2-3.2,4.2-4.6,6.6L51.2,62C51.8,61,52.4,60,53.2,59z"/>
	<path class="st0" d="M57.2,54.8L40.6,35c-2,1.8-3.8,3.6-5.6,5.6l19.8,16.6C55.6,56.4,56.4,55.6,57.2,54.8z"/>
	<path class="st0" d="M112.4,90.4l24.4,8.8c0.8-2.6,1.6-5,2-7.8l-25.6-4.6C113,88.2,112.8,89.4,112.4,90.4z"/>
	<path class="st0" d="M47.6,69.6l-24.4-8.8c-0.8,2.6-1.6,5-2,7.8l25.6,4.6C47,71.8,47.2,70.6,47.6,69.6z"/>
	<path class="st0" d="M50,64L27.4,51c-1.2,2.4-2.4,4.8-3.4,7.2L48.4,67C49,66.2,49.4,65,50,64z"/>
	<path class="st0" d="M62,51.2L49,28.6c-2.2,1.4-4.4,3-6.6,4.6l16.8,20C60,52.4,61,51.8,62,51.2z"/>
	<path class="st0" d="M72.8,46.8l-4.6-25.6c-2.6,0.6-5.2,1.2-7.8,2l8.8,24.4C70.6,47.2,71.8,47,72.8,46.8z"/>
	<path class="st0" d="M78.8,46V20c-2.8,0-5.4,0.2-8,0.6l4.6,25.6C76.4,46.2,77.6,46,78.8,46z"/>
	<path class="st0" d="M46,81.2H20c0,2.8,0.2,5.4,0.6,8l25.6-4.6C46.2,83.6,46,82.4,46,81.2z"/>
	<path class="st0" d="M106.8,101l20,16.8c1.6-2,3.2-4.2,4.6-6.6L108.8,98C108.2,99,107.6,100,106.8,101z"/>
	<path class="st0" d="M67.2,48.4L58.4,24c-2.4,1-5,2-7.2,3.4L64,50C65,49.4,66.2,49,67.2,48.4z"/>
	<path class="st0" d="M102.8,105.2l16.6,19.8c2-1.8,3.8-3.6,5.6-5.6l-19.8-16.6C104.4,103.6,103.6,104.4,102.8,105.2z"/>
</g>
</svg>
