<?xml version="1.0" encoding="utf-8"?>
<!-- Generator: Adobe Illustrator 21.1.0, SVG Export Plug-In . SVG Version: 6.00 Build 0)  -->
<svg version="1.1" id="Layer_1" xmlns="http://www.w3.org/2000/svg" xmlns:xlink="http://www.w3.org/1999/xlink" x="0px" y="0px"
	 viewBox="0 0 160 160" style="enable-background:new 0 0 160 160;" xml:space="preserve">
<style type="text/css">
	.st0{fill:#2A3548;}
	.st1{fill:#F25C00;}
	.st2{fill:#1E2937;}
	.st3{fill:#CC4602;}
	.st4{fill:#D7DEED;}
</style>
<g>
	<g>
		<polygon class="st0" points="145.4,114.1 145.4,42.2 79.9,4.4 14.4,42.2 14.4,114.1 79.9,152 		"/>
		<polygon class="st1" points="14.4,109.5 79.9,147.3 145.4,109.5 145.4,117.8 79.9,155.7 14.4,117.8 		"/>
		<polygon class="st2" points="145.4,114.1 145.4,42.2 79.9,4.4 79.9,152 		"/>
		<polygon class="st3" points="145.4,117.8 145.4,109.5 79.9,147.3 79.9,155.7 		"/>
	</g>
</g>
<rect x="54.7" y="109.3" class="st2" width="48.3" height="3.7"/>
<path class="st4" d="M108.7,58v-4H80.8v-4h-4v4H49v4h9.8l-6.6,19.6h4.2l4.5-13.4l4.5,13.4h4.2l-5.4-16L60,58h16.8v40.2
	c-3.5,0.2-6.7,1-9.8,2.3c-3.1,1.3-5.9,3.2-8.5,5.5H53v4h51.7v-4h-5.6c-2.5-2.4-5.4-4.2-8.5-5.5c-3.1-1.3-6.4-2.1-9.8-2.3V58h13.8
	l-6.6,19.6h4.2l4.5-13.4l4.5,13.4h4.2l-5.4-16.3L96,58H108.7z M86,103.1c2.3,0.7,4.5,1.7,6.6,3H65c2.1-1.3,4.3-2.3,6.6-3
	c2.3-0.7,4.7-1,7.2-1C81.3,102,83.7,102.4,86,103.1z"/>
<g>
	<path class="st1" d="M49,77.4v4h0.7c0.4,1.2,1,2.3,1.8,3.2c0.8,1,1.6,1.8,2.6,2.5c1,0.7,2.1,1.2,3.2,1.6c1.2,0.4,2.4,0.6,3.7,0.6
		c1.3,0,2.5-0.2,3.7-0.6c1.2-0.4,2.2-0.9,3.2-1.6c1-0.7,1.9-1.5,2.6-2.5c0.8-1,1.3-2.1,1.8-3.2h0.7v-4H49z"/>
	<path class="st1" d="M84.8,77.4v4h0.7c0.4,1.2,1,2.3,1.8,3.2c0.8,1,1.6,1.8,2.6,2.5c1,0.7,2.1,1.2,3.2,1.6c1.2,0.4,2.4,0.6,3.7,0.6
		c1.3,0,2.5-0.2,3.7-0.6c1.2-0.4,2.2-0.9,3.2-1.6c1-0.7,1.9-1.5,2.6-2.5c0.8-1,1.3-2.1,1.8-3.2h0.7v-4H84.8z"/>
</g>
</svg>
