<?xml version="1.0" encoding="utf-8"?>
<!-- Generator: Adobe Illustrator 21.1.0, SVG Export Plug-In . SVG Version: 6.00 Build 0)  -->
<svg version="1.1" id="Layer_1" xmlns="http://www.w3.org/2000/svg" xmlns:xlink="http://www.w3.org/1999/xlink" x="0px" y="0px"
	 viewBox="0 0 160 160" style="enable-background:new 0 0 160 160;" xml:space="preserve">
<style type="text/css">
	.st0{opacity:0.25;}
	.st1{fill:#537191;}
	.st2{fill:#2A3548;}
	.st3{fill:#F25C00;}
</style>
<g>
	<g class="st0">
		<path class="st1" d="M145.3,92.9c-1.4-3-3-5.6-5.4-7.8c-2.2-2.2-4.8-4-7.9-5.2c-3-1.2-6.2-2-9.7-2c-0.6-4.6-2-9-4-12.9
			c-1.4-2.4-2.8-4.8-4.6-6.8l-6,5.8c1.8,2.2,3.2,4.4,4.2,7c1.6,3.6,2.2,7.2,2.2,11.2v4.2h8.1c2.2,0,4.4,0.4,6.4,1.2
			c2,0.8,3.8,2,5.2,3.6c1.6,1.6,2.6,3.2,3.6,5.2c0.8,2,1.2,4.2,1.2,6.4s-0.4,4.4-1.2,6.4s-2,3.8-3.6,5.2c-1.6,1.6-3.2,2.6-5.2,3.6
			c-2,0.8-4.2,1.2-6.4,1.2H49c-3.4,0-6.6-0.6-9.5-2c-3-1.2-5.6-3-7.7-5.4c-2.2-2.2-4-4.8-5.4-7.8c-1.2-3-2-6.2-2-9.6s0.6-6.6,2-9.6
			c1.2-3,3-5.6,5.4-7.8c2.2-2.2,4.8-4,7.7-5.4c3-1.2,6.2-2,9.5-2c3.6,0,6.9,0.8,10.1,2.2c1-2.8,2.6-5.4,4.4-7.8
			c1.8-2.2,3.8-4.2,6.2-5.8s5-3,7.7-3.8c2.8-1,5.6-1.4,8.7-1.4c2,0,4,0.2,5.9,0.6c1.3,0.3,5.9-7,5-7.3c-3.4-1.1-7.1-1.7-10.9-1.7
			c-3.2,0-6.2,0.4-9.1,1.2c-3,0.8-5.8,1.8-8.5,3.4c-2.6,1.4-5.2,3.2-7.3,5.4c-2.2,2.2-4.2,4.6-6,7.2c-2-0.4-4-0.6-6-0.6
			c-4.6,0-8.7,0.8-12.7,2.6s-7.5,4-10.5,7s-5.4,6.4-6.9,10.6c-1.8,4-2.6,8.4-2.6,12.7c0,4.6,0.8,8.8,2.6,12.7c1.8,4,4,7.6,6.9,10.6
			c3,3,6.4,5.4,10.5,7c4,1.8,8.3,2.6,12.7,2.6h73.7c3.4,0,6.6-0.6,9.5-2c3-1.2,5.6-3,7.7-5.4c2.2-2.2,4-4.8,5.4-7.8
			c1.2-3,2-6.2,2-9.6C147.3,99.1,146.7,95.9,145.3,92.9z"/>
	</g>
	<g>
		<g>
			<path class="st2" d="M141.3,87c-1.4-3-3-5.6-5.4-7.8c-2.2-2.2-4.8-4-7.9-5.2c-3-1.2-6.2-2-9.7-2c-0.6-4.6-2-9-4-12.9
				c-1.4-2.4-2.8-4.8-4.6-6.8l-6,5.8c1.8,2.2,3.2,4.4,4.2,7c1.6,3.6,2.2,7.2,2.2,11.2v4.2h8.1c2.2,0,4.4,0.4,6.4,1.2
				c2,0.8,3.8,2,5.2,3.6c1.6,1.6,2.6,3.2,3.6,5.2c0.8,2,1.2,4.2,1.2,6.4s-0.4,4.4-1.2,6.4s-2,3.8-3.6,5.2c-1.6,1.6-3.2,2.6-5.2,3.6
				c-2,0.8-4.2,1.2-6.4,1.2H45.1c-3.4,0-6.6-0.6-9.5-2c-3-1.2-5.6-3-7.7-5.4c-2.2-2.2-4-4.8-5.4-7.8c-1.2-3-2-6.2-2-9.6
				s0.6-6.6,2-9.6c1.2-3,3-5.6,5.4-7.8c2.2-2.2,4.8-4,7.7-5.4c3-1.2,6.2-2,9.5-2c3.6,0,6.9,0.8,10.1,2.2c1-2.8,2.6-5.4,4.4-7.8
				c1.8-2.2,3.8-4.2,6.2-5.8c2.4-1.6,5-3,7.7-3.8c2.8-1,5.6-1.4,8.7-1.4c3.4,0,6.6,0.6,9.7,1.6l6.4-6.2c-0.8-0.4-1.8-0.8-2.6-1.2
				c-4.2-1.6-8.7-2.6-13.5-2.6c-3.2,0-6.2,0.4-9.1,1.2c-3,0.8-5.8,1.8-8.5,3.4c-2.6,1.4-5.2,3.2-7.3,5.4c-2.2,2.2-4.2,4.6-6,7.2
				c-2-0.4-4-0.6-6-0.6c-4.6,0-8.7,0.8-12.7,2.6s-7.5,4-10.5,7c-3,3-5.4,6.4-6.9,10.6c-1.8,4-2.6,8.4-2.6,12.7
				c0,4.6,0.8,8.8,2.6,12.7c1.8,4,4,7.6,6.9,10.6s6.4,5.4,10.5,7c4,1.8,8.3,2.6,12.7,2.6H119c3.4,0,6.6-0.6,9.5-2
				c3-1.2,5.6-3,7.7-5.4c2.2-2.2,4-4.8,5.4-7.8c1.2-3,2-6.2,2-9.6C143.3,93.1,142.7,90,141.3,87z"/>
		</g>
		<g>
			<path class="st3" d="M98.9,39.8c0.8-0.8,1.6-1.6,2.4-2.4c0.8-0.8,1.6-1.6,2.4-2.2c0.8-0.6,1.8-1.2,2.8-1.6c1-0.4,2.2-0.6,3.4-0.6
				c1.4,0,2.8,0.2,4,0.8s2.4,1.4,3.2,2.2c0.8,0.8,1.6,2,2.2,3.4c0.6,1.2,0.8,2.6,0.8,4c0,1.2-0.2,2.4-0.6,3.4s-0.8,2-1.4,2.8
				s-1.4,1.6-2.2,2.4c-0.8,0.8-1.6,1.6-2.4,2.4l-6.6,6.8l-40.1,40.4l-19.5,5l5-19.5l40.1-40.2L98.9,39.8z M63.3,95.5l49-49.2
				c0.8-0.8,1-1.6,1-2.6s-0.4-2-1.2-2.6c-0.8-0.8-1.6-1-2.6-1s-1.8,0.4-2.6,1l-49,49l-1.8,7"/>
		</g>
	</g>
</g>
</svg>
