<?xml version="1.0" encoding="utf-8"?>
<!-- Generator: Adobe Illustrator 21.1.0, SVG Export Plug-In . SVG Version: 6.00 Build 0)  -->
<svg version="1.1" id="Layer_1" xmlns="http://www.w3.org/2000/svg" xmlns:xlink="http://www.w3.org/1999/xlink" x="0px" y="0px"
	 viewBox="0 0 160 160" style="enable-background:new 0 0 160 160;" xml:space="preserve">
<style type="text/css">
	.st0{fill:#2A3548;}
	.st1{fill:#F25C00;}
	.st2{fill:#1E2937;}
	.st3{fill:#CC4602;}
	.st4{fill:#D7DEED;}
</style>
<g>
	<g>
		<polygon class="st0" points="145.4,114.1 145.4,42.2 79.9,4.4 14.4,42.2 14.4,114.1 79.9,152 		"/>
		<polygon class="st1" points="14.4,109.5 79.9,147.3 145.4,109.5 145.4,117.8 79.9,155.7 14.4,117.8 		"/>
		<polygon class="st2" points="145.4,114.1 145.4,42.2 79.9,4.4 79.9,152 		"/>
		<polygon class="st3" points="145.4,117.8 145.4,109.5 79.9,147.3 79.9,155.7 		"/>
	</g>
</g>
<polygon class="st0" points="98.6,76.3 62,96.3 62,49.8 98.6,49.8 "/>
<polygon class="st2" points="99.4,75.5 62,96.3 62.4,109.8 98.8,110.4 "/>
<g>
	<path class="st2" d="M80.4,92.7c-1-0.6-2-1.2-3-1.9c-1-0.7-1.9-1.4-2.8-2.2c-0.9-0.8-1.7-1.6-2.5-2.5c-0.8-0.9-1.4-1.8-2-2.8
		c-0.6-1-1-2.1-1.3-3.2c-0.3-1.1-0.5-2.3-0.5-3.6v-6.5c0.7,0,1.4,0,2-0.1c0.7-0.1,1.3-0.1,1.9-0.3c0.6-0.1,1.2-0.3,1.8-0.6
		c0.6-0.2,1.2-0.6,1.8-0.9c0.7-0.5,1.4-0.8,2.1-1c0.7-0.2,1.5-0.3,2.4-0.3c0.4,0,0.8,0,1.2,0.1c0.4,0.1,0.8,0.1,1.1,0.3
		c0.4,0.1,0.7,0.3,1.1,0.4c0.4,0.2,0.7,0.4,1.1,0.6c0.6,0.4,1.2,0.7,1.8,0.9c0.6,0.2,1.2,0.4,1.8,0.6c0.6,0.1,1.3,0.2,1.9,0.3
		c0.7,0.1,1.3,0.1,2,0.1v6.5c0,1.3-0.2,2.5-0.5,3.6c-0.3,1.1-0.8,2.2-1.3,3.2c-0.6,1-1.2,1.9-2,2.8c-0.8,0.9-1.6,1.7-2.5,2.5
		c-0.9,0.8-1.8,1.5-2.8,2.2C82.4,91.5,81.4,92.1,80.4,92.7z M71.6,73v4.1c0,0.9,0.1,1.7,0.4,2.6c0.2,0.8,0.6,1.6,1,2.3
		c0.4,0.7,0.9,1.4,1.5,2.1c0.6,0.7,1.2,1.3,1.8,1.9c0.6,0.6,1.3,1.1,2,1.6c0.7,0.5,1.4,1,2.1,1.4c0.7-0.4,1.4-0.9,2.1-1.4
		c0.7-0.5,1.4-1,2-1.6c0.6-0.6,1.2-1.2,1.8-1.9c0.6-0.7,1-1.4,1.5-2.1c0.4-0.7,0.7-1.5,1-2.3c0.2-0.8,0.4-1.7,0.4-2.6V73
		c-1-0.1-2-0.2-3-0.5c-1-0.3-1.9-0.7-2.8-1.3c-0.5-0.3-1-0.5-1.4-0.7c-0.5-0.1-1-0.2-1.6-0.2c-0.6,0-1.1,0.1-1.6,0.2
		c-0.5,0.1-0.9,0.4-1.4,0.7c-0.9,0.6-1.8,1-2.8,1.3C73.7,72.8,72.7,73,71.6,73z"/>
</g>
<g>
	<g>
		<path class="st4" d="M97.1,47c0.6,0,1.1,0.1,1.6,0.3c0.5,0.2,0.9,0.5,1.3,0.9c0.4,0.4,0.7,0.8,0.9,1.3c0.2,0.5,0.3,1,0.3,1.6v57.8
			c0,0.6-0.1,1.1-0.3,1.6c-0.2,0.5-0.5,0.9-0.9,1.3c-0.4,0.4-0.8,0.7-1.3,0.9c-0.5,0.2-1,0.3-1.6,0.3h-33c-0.6,0-1.1-0.1-1.6-0.3
			c-0.5-0.2-0.9-0.5-1.3-0.9c-0.4-0.4-0.7-0.8-0.9-1.3c-0.2-0.5-0.3-1-0.3-1.6V51.1c0-0.6,0.1-1.1,0.3-1.6c0.2-0.5,0.5-0.9,0.9-1.3
			c0.4-0.4,0.8-0.7,1.3-0.9c0.5-0.2,1-0.3,1.6-0.3H97.1z M97.1,51.1h-33v57.8h33V51.1z M76.5,100.6h8.3v4.1h-8.3V100.6z"/>
	</g>
	<g>
		<path class="st1" d="M80.4,89.7c-1-0.6-2-1.2-3-1.9c-1-0.7-1.9-1.4-2.8-2.2c-0.9-0.8-1.7-1.6-2.5-2.5c-0.8-0.9-1.4-1.8-2-2.8
			c-0.6-1-1-2.1-1.3-3.2c-0.3-1.1-0.5-2.3-0.5-3.6v-6.5c0.7,0,1.4,0,2-0.1c0.7-0.1,1.3-0.1,1.9-0.3c0.6-0.1,1.2-0.3,1.8-0.6
			c0.6-0.2,1.2-0.6,1.8-0.9c0.7-0.5,1.4-0.8,2.1-1c0.7-0.2,1.5-0.3,2.4-0.3c0.4,0,0.8,0,1.2,0.1c0.4,0.1,0.8,0.1,1.1,0.3
			c0.4,0.1,0.7,0.3,1.1,0.4c0.4,0.2,0.7,0.4,1.1,0.6c0.6,0.4,1.2,0.7,1.8,0.9c0.6,0.2,1.2,0.4,1.8,0.6c0.6,0.1,1.3,0.2,1.9,0.3
			c0.7,0.1,1.3,0.1,2,0.1v6.5c0,1.3-0.2,2.5-0.5,3.6c-0.3,1.1-0.8,2.2-1.3,3.2c-0.6,1-1.2,1.9-2,2.8c-0.8,0.9-1.6,1.7-2.5,2.5
			c-0.9,0.8-1.8,1.5-2.8,2.2C82.4,88.5,81.4,89.1,80.4,89.7z M71.6,70v4.1c0,0.9,0.1,1.7,0.4,2.6c0.2,0.8,0.6,1.6,1,2.3
			c0.4,0.7,0.9,1.4,1.5,2.1c0.6,0.7,1.2,1.3,1.8,1.9c0.6,0.6,1.3,1.1,2,1.6c0.7,0.5,1.4,1,2.1,1.4c0.7-0.4,1.4-0.9,2.1-1.4
			c0.7-0.5,1.4-1,2-1.6c0.6-0.6,1.2-1.2,1.8-1.9c0.6-0.7,1-1.4,1.5-2.1c0.4-0.7,0.7-1.5,1-2.3c0.2-0.8,0.4-1.7,0.4-2.6V70
			c-1-0.1-2-0.2-3-0.5c-1-0.3-1.9-0.7-2.8-1.3c-0.5-0.3-1-0.5-1.4-0.7c-0.5-0.1-1-0.2-1.6-0.2c-0.6,0-1.1,0.1-1.6,0.2
			c-0.5,0.1-0.9,0.4-1.4,0.7c-0.9,0.6-1.8,1-2.8,1.3C73.7,69.8,72.7,70,71.6,70z"/>
	</g>
</g>
</svg>
