<?xml version="1.0" encoding="utf-8"?>
<!-- Generator: Adobe Illustrator 21.1.0, SVG Export Plug-In . SVG Version: 6.00 Build 0)  -->
<svg version="1.1" id="Layer_1" xmlns="http://www.w3.org/2000/svg" xmlns:xlink="http://www.w3.org/1999/xlink" x="0px" y="0px"
	 viewBox="0 0 160 160" style="enable-background:new 0 0 160 160;" xml:space="preserve">
<style type="text/css">
	.st0{fill:#2A3548;}
	.st1{fill:#F25C00;}
	.st2{fill:#1E2937;}
	.st3{fill:#CC4602;}
	.st4{fill:#D7DEED;}
</style>
<g>
	<g>
		<polygon class="st0" points="145.4,114.1 145.4,42.2 79.9,4.4 14.4,42.2 14.4,114.1 79.9,152 		"/>
		<polygon class="st1" points="14.4,109.5 79.9,147.3 145.4,109.5 145.4,117.8 79.9,155.7 14.4,117.8 		"/>
		<polygon class="st2" points="145.4,114.1 145.4,42.2 79.9,4.4 79.9,152 		"/>
		<polygon class="st3" points="145.4,117.8 145.4,109.5 79.9,147.3 79.9,155.7 		"/>
	</g>
</g>
<g>
	<path class="st2" d="M101.1,99.9H83.3c0,0.6-0.1,1.1-0.3,1.5c-0.2,0.5-0.5,0.8-0.9,1.1c-0.4,0.3-0.8,0.5-1.3,0.7
		c-0.5,0.2-1,0.2-1.5,0.2c-0.2,0.5-0.5,1-0.8,1.5c-0.3,0.4-0.7,0.8-1.2,1.1c-0.5,0.3-0.9,0.6-1.5,0.7c-0.5,0.2-1.1,0.3-1.7,0.3
		c-0.6,0-1.1-0.1-1.7-0.3c-0.5-0.2-1-0.4-1.5-0.7c-0.5-0.3-0.9-0.7-1.2-1.1c-0.3-0.4-0.6-0.9-0.8-1.5h-7.9c-0.2,0.5-0.5,1-0.8,1.5
		c-0.3,0.4-0.7,0.8-1.2,1.1c-0.5,0.3-0.9,0.6-1.5,0.7c-0.5,0.2-1.1,0.3-1.7,0.3s-1.1-0.1-1.7-0.3c-0.5-0.2-1-0.4-1.5-0.7
		c-0.5-0.3-0.9-0.7-1.2-1.1c-0.3-0.4-0.6-0.9-0.8-1.5c-0.5,0-1.1-0.1-1.5-0.2c-0.5-0.2-0.9-0.4-1.2-0.7c-0.4-0.3-0.6-0.7-0.9-1.1
		c-0.2-0.5-0.3-1-0.3-1.5V67.3c0-0.5,0.1-1,0.3-1.4c0.2-0.4,0.4-0.8,0.8-1.1c0.3-0.3,0.7-0.6,1.1-0.8c0.4-0.2,0.9-0.3,1.4-0.3h12.7
		c1.7,0,3.2,0.4,4.5,1.2c1.4,0.8,2.5,1.9,3.3,3.3c0.3,0.5,0.5,1,0.7,1.5c0.2,0.6,0.4,1.1,0.6,1.6c0.4,1.1,0.8,2.2,1.2,3.3
		c0.4,1.1,0.8,2.2,1.2,3.3c0.4,1.2,0.9,2.5,1.3,3.7c0.4,1.2,0.8,2.5,1.3,3.7h2.3V63h3.6v33.3h17.8V99.9z M50.6,78.1l10.9,7.3h12
		c-0.6-1.8-1.2-3.6-1.9-5.4c-0.6-1.8-1.3-3.6-1.9-5.4c-0.1-0.2-0.2-0.6-0.3-1c-0.1-0.4-0.3-0.9-0.5-1.4c-0.2-0.5-0.3-0.9-0.5-1.3
		c-0.2-0.4-0.3-0.7-0.4-0.9c-0.5-0.9-1.2-1.5-2-2c-0.8-0.5-1.7-0.7-2.7-0.7H50.6V78.1z M50.6,99.9h0.3c0.2-0.5,0.5-1,0.8-1.5
		c0.3-0.5,0.7-0.8,1.2-1.1c0.4-0.3,0.9-0.6,1.5-0.7c0.5-0.2,1.1-0.3,1.7-0.3s1.1,0.1,1.7,0.3c0.5,0.2,1,0.4,1.5,0.7
		c0.5,0.3,0.9,0.7,1.2,1.1c0.3,0.4,0.6,0.9,0.8,1.5h7.9c0.2-0.5,0.5-1,0.8-1.5c0.3-0.4,0.7-0.8,1.2-1.1c0.5-0.3,0.9-0.6,1.5-0.7
		c0.5-0.2,1.1-0.3,1.7-0.3c0.6,0,1.1,0.1,1.7,0.3c0.5,0.2,1,0.4,1.5,0.7c0.4,0.3,0.8,0.7,1.2,1.1c0.3,0.5,0.6,0.9,0.8,1.5h0.3V89
		H59.9l-9.3-6.3V99.9z"/>
</g>
<g>
	<path class="st4" d="M100.1,96.9H82.3c0,0.6-0.1,1.1-0.3,1.5c-0.2,0.5-0.5,0.8-0.9,1.1c-0.4,0.3-0.8,0.5-1.3,0.7
		c-0.5,0.2-1,0.2-1.5,0.2c-0.2,0.5-0.5,1-0.8,1.5c-0.3,0.4-0.7,0.8-1.2,1.1c-0.5,0.3-0.9,0.6-1.5,0.7c-0.5,0.2-1.1,0.3-1.7,0.3
		c-0.6,0-1.1-0.1-1.7-0.3c-0.5-0.2-1-0.4-1.5-0.7c-0.5-0.3-0.9-0.7-1.2-1.1c-0.3-0.4-0.6-0.9-0.8-1.5h-7.9c-0.2,0.5-0.5,1-0.8,1.5
		c-0.3,0.4-0.7,0.8-1.2,1.1c-0.5,0.3-0.9,0.6-1.5,0.7c-0.5,0.2-1.1,0.3-1.7,0.3s-1.1-0.1-1.7-0.3c-0.5-0.2-1-0.4-1.5-0.7
		c-0.5-0.3-0.9-0.7-1.2-1.1c-0.3-0.4-0.6-0.9-0.8-1.5c-0.5,0-1.1-0.1-1.5-0.2c-0.5-0.2-0.9-0.4-1.2-0.7c-0.4-0.3-0.6-0.7-0.9-1.1
		c-0.2-0.5-0.3-1-0.3-1.5V64.3c0-0.5,0.1-1,0.3-1.4c0.2-0.4,0.4-0.8,0.8-1.1c0.3-0.3,0.7-0.6,1.1-0.8c0.4-0.2,0.9-0.3,1.4-0.3h12.7
		c1.7,0,3.2,0.4,4.5,1.2c1.4,0.8,2.5,1.9,3.3,3.3c0.3,0.5,0.5,1,0.7,1.5c0.2,0.6,0.4,1.1,0.6,1.6c0.4,1.1,0.8,2.2,1.2,3.3
		c0.4,1.1,0.8,2.2,1.2,3.3c0.4,1.2,0.9,2.5,1.3,3.7c0.4,1.2,0.8,2.5,1.3,3.7h2.3V60h3.6v33.3h17.8V96.9z M49.6,75.1l10.9,7.3h12
		c-0.6-1.8-1.2-3.6-1.9-5.4c-0.6-1.8-1.3-3.6-1.9-5.4c-0.1-0.2-0.2-0.6-0.3-1c-0.1-0.4-0.3-0.9-0.5-1.4c-0.2-0.5-0.3-0.9-0.5-1.3
		c-0.2-0.4-0.3-0.7-0.4-0.9c-0.5-0.9-1.2-1.5-2-2c-0.8-0.5-1.7-0.7-2.7-0.7H49.6V75.1z M49.6,96.9h0.3c0.2-0.5,0.5-1,0.8-1.5
		c0.3-0.5,0.7-0.8,1.2-1.1c0.4-0.3,0.9-0.6,1.5-0.7c0.5-0.2,1.1-0.3,1.7-0.3s1.1,0.1,1.7,0.3c0.5,0.2,1,0.4,1.5,0.7
		c0.5,0.3,0.9,0.7,1.2,1.1c0.3,0.4,0.6,0.9,0.8,1.5h7.9c0.2-0.5,0.5-1,0.8-1.5c0.3-0.4,0.7-0.8,1.2-1.1c0.5-0.3,0.9-0.6,1.5-0.7
		c0.5-0.2,1.1-0.3,1.7-0.3c0.6,0,1.1,0.1,1.7,0.3c0.5,0.2,1,0.4,1.5,0.7c0.4,0.3,0.8,0.7,1.2,1.1c0.3,0.5,0.6,0.9,0.8,1.5h0.3V86
		H58.9l-9.3-6.3V96.9z M55.1,101.4c0.7,0,1.4-0.3,1.9-0.8c0.5-0.5,0.8-1.2,0.8-1.9c0-0.7-0.3-1.4-0.8-1.9c-0.5-0.5-1.2-0.8-1.9-0.8
		c-0.7,0-1.4,0.3-1.9,0.8c-0.5,0.5-0.8,1.2-0.8,1.9c0,0.7,0.3,1.4,0.8,1.9S54.3,101.4,55.1,101.4z M73.2,101.5c0.8,0,1.4-0.3,2-0.8
		c0.5-0.5,0.8-1.2,0.8-2c0-0.8-0.3-1.4-0.8-2c-0.5-0.5-1.2-0.8-2-0.8c-0.8,0-1.4,0.3-2,0.8c-0.5,0.5-0.8,1.2-0.8,2
		c0,0.8,0.3,1.4,0.8,2S72.5,101.5,73.2,101.5z"/>
	<path class="st1" d="M99.3,60.7L112,67v16.8l-12.7,6.3l-12.7-6.3V67L99.3,60.7z M90.2,81.5l7.3,3.6V74.7l-7.3-3.6V81.5z M99.3,64.7
		l-6.8,3.4l6.8,3.4l6.8-3.4L99.3,64.7z M108.4,81.5V71.1l-7.3,3.6v10.4L108.4,81.5z"/>
</g>
</svg>
