<?xml version="1.0" encoding="utf-8"?>
<!-- Generator: Adobe Illustrator 21.1.0, SVG Export Plug-In . SVG Version: 6.00 Build 0)  -->
<svg version="1.1" id="Layer_1" xmlns="http://www.w3.org/2000/svg" xmlns:xlink="http://www.w3.org/1999/xlink" x="0px" y="0px"
	 viewBox="0 0 160 160" style="enable-background:new 0 0 160 160;" xml:space="preserve">
<style type="text/css">
	.st0{opacity:0.25;}
	.st1{fill:#537191;}
	.st2{fill:#2A3548;}
	.st3{fill:#F25C00;}
</style>
<g>
	<g class="st0">
		<g>
			<path class="st1" d="M96,71c-3.4,0-6.4,0.6-9.4,1.8c-2.8,1.2-5.4,3-7.6,5.2s-4,4.8-5.2,7.6c-1.2,3-1.8,6-1.8,9.4
				c0,3.8-0.8,7.4-2.6,10.8c-1.8,3.4-4.2,6.2-7.2,8.6c2.8,1.4,5.2,3,7.4,5s4,4.2,5.6,6.8c1.6,2.4,2.8,5.2,3.6,8
				C79.6,137,80,140,80,143h-8c0-3.2-0.6-6.4-1.8-9.4s-3-5.4-5.2-7.6c-2.2-2.2-4.8-4-7.6-5.2c-3-1.2-6-1.8-9.4-1.8s-6.4,0.6-9.4,1.8
				c-2.8,1.2-5.4,3-7.6,5.2c-2.2,2.2-4,4.8-5.2,7.6c-1.2,3-1.8,6-1.8,9.4h-8c0-3,0.4-6,1.2-8.8c0.8-2.8,2-5.6,3.6-8
				c1.6-2.4,3.4-4.8,5.6-6.8s4.6-3.8,7.4-5c-3-2.2-5.4-5.2-7.2-8.6c-1.8-3.4-2.6-7-2.6-10.8c0-3.2,0.6-6.4,1.8-9.4
				c1.2-3,3-5.4,5.2-7.6s4.8-4,7.6-5.2s6-1.8,9.4-1.8c3.8,0,7.4,0.8,10.8,2.6c3.4,1.8,6.2,4.2,8.6,7.2c1.6-3.2,3.6-6,6-8.4
				s5.2-4.4,8.4-6c-3-2.2-5.4-5.2-7.2-8.6S72,50.8,72,47c0-3.2,0.6-6.4,1.8-9.4s3-5.4,5.2-7.6s4.8-4,7.6-5.2s6-1.8,9.4-1.8
				c3.2,0,6.4,0.6,9.4,1.8c3,1.2,5.4,3,7.6,5.2s4,4.8,5.2,7.6c1.2,3,1.8,6,1.8,9.4c0,3.8-0.8,7.4-2.6,10.8c-1.8,3.4-4.2,6.2-7.2,8.6
				c2.8,1.4,5.2,3,7.4,5s4,4.2,5.6,6.8c1.6,2.4,2.8,5.2,3.6,8S128,92,128,95h-8c0-3.2-0.6-6.4-1.8-9.4s-3-5.4-5.2-7.6
				s-4.8-4-7.6-5.2C102.4,71.6,99.2,71,96,71z M48,111c2.2,0,4.2-0.4,6.2-1.2s3.6-2,5-3.4s2.6-3.2,3.4-5c0.8-2,1.2-4,1.2-6.2
				S63.4,91,62.6,89s-2-3.6-3.4-5s-3.2-2.6-5-3.4c-2-0.8-4-1.2-6.2-1.2s-4.2,0.4-6.2,1.2s-3.6,2-5,3.4s-2.6,3.2-3.4,5
				c-0.8,2-1.2,4-1.2,6.2s0.4,4.2,1.2,6.2s2,3.6,3.4,5s3.2,2.6,5,3.4C43.8,110.6,45.8,111,48,111z M80,47c0,2.2,0.4,4.2,1.2,6.2
				s2,3.6,3.4,5s3.2,2.6,5,3.4c2,0.8,4,1.2,6.2,1.2s4.2-0.4,6.2-1.2s3.6-2,5-3.4s2.6-3.2,3.4-5c0.8-2,1.2-4,1.2-6.2
				s-0.4-4.2-1.2-6.2s-2-3.6-3.4-5s-3.2-2.6-5-3.4c-2-0.8-4-1.2-6.2-1.2s-4.2,0.4-6.2,1.2c-2,0.8-3.6,2-5,3.4s-2.6,3.2-3.4,5
				C80.4,42.8,80,44.8,80,47z"/>
		</g>
	</g>
	<g>
		<g>
			<path class="st2" d="M96,65c-3.4,0-6.4,0.6-9.4,1.8c-2.8,1.2-5.4,3-7.6,5.2s-4,4.8-5.2,7.6c-1.2,3-1.8,6-1.8,9.4
				c0,3.8-0.8,7.4-2.6,10.8c-1.8,3.4-4.2,6.2-7.2,8.6c2.8,1.4,5.2,3,7.4,5s4,4.2,5.6,6.8c1.6,2.4,2.8,5.2,3.6,8
				C79.6,131,80,134,80,137h-8c0-3.2-0.6-6.4-1.8-9.4c-1.2-3-3-5.4-5.2-7.6c-2.2-2.2-4.8-4-7.6-5.2c-3-1.2-6-1.8-9.4-1.8
				s-6.4,0.6-9.4,1.8c-2.8,1.2-5.4,3-7.6,5.2s-4,4.8-5.2,7.6c-1.2,3-1.8,6-1.8,9.4h-8c0-3,0.4-6,1.2-8.8c0.8-2.8,2-5.6,3.6-8
				s3.4-4.8,5.6-6.8s4.6-3.8,7.4-5c-3-2.2-5.4-5.2-7.2-8.6c-1.8-3.4-2.6-7-2.6-10.8c0-3.2,0.6-6.4,1.8-9.4c1.2-3,3-5.4,5.2-7.6
				s4.8-4,7.6-5.2s6-1.8,9.4-1.8c3.8,0,7.4,0.8,10.8,2.6c3.4,1.8,6.2,4.2,8.6,7.2c1.6-3.2,3.6-6,6-8.4s5.2-4.4,8.4-6
				c-3-2.2-5.4-5.2-7.2-8.6S72,44.8,72,41c0-3.2,0.6-6.4,1.8-9.4s3-5.4,5.2-7.6s4.8-4,7.6-5.2s6-1.8,9.4-1.8c3.2,0,6.4,0.6,9.4,1.8
				c3,1.2,5.4,3,7.6,5.2s4,4.8,5.2,7.6c1.2,3,1.8,6,1.8,9.4c0,3.8-0.8,7.4-2.6,10.8c-1.8,3.4-4.2,6.2-7.2,8.6c2.8,1.4,5.2,3,7.4,5
				s4,4.2,5.6,6.8c1.6,2.4,2.8,5.2,3.6,8S128,86,128,89h-8c0-3.2-0.6-6.4-1.8-9.4s-3-5.4-5.2-7.6s-4.8-4-7.6-5.2
				C102.4,65.6,99.2,65,96,65z M48,105c2.2,0,4.2-0.4,6.2-1.2s3.6-2,5-3.4s2.6-3.2,3.4-5c0.8-2,1.2-4,1.2-6.2S63.4,85,62.6,83
				s-2-3.6-3.4-5s-3.2-2.6-5-3.4c-2-0.8-4-1.2-6.2-1.2s-4.2,0.4-6.2,1.2s-3.6,2-5,3.4s-2.6,3.2-3.4,5c-0.8,2-1.2,4-1.2,6.2
				s0.4,4.2,1.2,6.2s2,3.6,3.4,5s3.2,2.6,5,3.4C43.8,104.6,45.8,105,48,105z M80,41c0,2.2,0.4,4.2,1.2,6.2s2,3.6,3.4,5
				s3.2,2.6,5,3.4c2,0.8,4,1.2,6.2,1.2s4.2-0.4,6.2-1.2s3.6-2,5-3.4s2.6-3.2,3.4-5c0.8-2,1.2-4,1.2-6.2s-0.4-4.2-1.2-6.2
				s-2-3.6-3.4-5s-3.2-2.6-5-3.4c-2-0.8-4-1.2-6.2-1.2s-4.2,0.4-6.2,1.2c-2,0.8-3.6,2-5,3.4s-2.6,3.2-3.4,5C80.4,36.8,80,38.8,80,41
				z"/>
		</g>
		<polygon class="st3" points="144,121 128,121 128,137 120,137 120,121 104,121 104,113 120,113 120,97 128,97 128,113 144,113 		
			"/>
	</g>
</g>
</svg>
