<svg id="ICONS-64x" xmlns="http://www.w3.org/2000/svg" viewBox="0 0 64 64">
  <defs>
    <style>
      .cls-1 {
        fill: #fff;
        stroke: #263746;
        stroke-miterlimit: 10;
        stroke-width: 2px;
      }

      .cls-2 {
        fill: #fc6a0d;
      }
    </style>
  </defs>
  <title>i_vmm-cloud</title>
  <path class="cls-1" d="M63,37.41A11.6,11.6,0,0,0,48.19,26.27a10.64,10.64,0,0,0-16-11.37A11.61,11.61,0,0,0,22.83,10c-6,0-11.07,5-12,11.52C5.16,22.83,1,28.49,1,35.09S5.84,51.9,18.44,50.94c0,0,31.87,0,32,0S63,50.94,63,37.41Z"/>
  <g>
    <polygon class="cls-2" points="30 30.65 41.34 24.7 30 18.74 18.66 24.5 30 30.65"/>
    <g>
      <polygon class="cls-2" points="31 32.43 31 46.2 42 39.77 42 26.3 31 32.43"/>
      <polygon class="cls-2" points="29 32.43 18 26.3 18 39.77 29 46.2 29 32.43"/>
    </g>
  </g>
</svg>
