<?xml version="1.0" encoding="utf-8"?>
<!-- Generator: Adobe Illustrator 21.1.0, SVG Export Plug-In . SVG Version: 6.00 Build 0)  -->
<svg version="1.1" id="Layer_1" xmlns="http://www.w3.org/2000/svg" xmlns:xlink="http://www.w3.org/1999/xlink" x="0px" y="0px"
	 viewBox="0 0 160 160" style="enable-background:new 0 0 160 160;" xml:space="preserve">
<style type="text/css">
	.st0{fill:#2A3548;}
	.st1{fill:#F25C00;}
	.st2{fill:#1E2937;}
	.st3{fill:#CC4602;}
	.st4{fill:#D7DEED;}
</style>
<g>
	<g>
		<polygon class="st0" points="145.4,114.1 145.4,42.2 79.9,4.4 14.4,42.2 14.4,114.1 79.9,152 		"/>
		<polygon class="st1" points="14.4,109.5 79.9,147.3 145.4,109.5 145.4,117.8 79.9,155.7 14.4,117.8 		"/>
		<polygon class="st2" points="145.4,114.1 145.4,42.2 79.9,4.4 79.9,152 		"/>
		<polygon class="st3" points="145.4,117.8 145.4,109.5 79.9,147.3 79.9,155.7 		"/>
	</g>
</g>
<path class="st2" d="M54.1,103.9h23.4l1.8,4.1H50V50h49.7v36.4h-4.1V54.1H54.1V103.9z M62.4,66.6h-4.1v-4.1h4.1V66.6z M62.4,79h-4.1
	v-4.1h4.1V79z M58.3,87.3h4.1v4.1h-4.1V87.3z M91.5,66.6H66.6v-4.1h24.9V66.6z M91.5,79H66.6v-4.1h24.9V79z M66.6,87.3h18.8v4.1
	H66.6V87.3z"/>
<g>
	<path class="st4" d="M52.1,100.9h24.4l1.8,4.1H48V47h49.7v36.4h-4.1V51.1H52.1V100.9z M60.4,63.6h-4.1v-4.1h4.1V63.6z M60.4,76
		h-4.1v-4.1h4.1V76z M56.3,84.3h4.1v4.1h-4.1V84.3z M89.5,63.6H64.6v-4.1h24.9V63.6z M89.5,76H64.6v-4.1h24.9V76z M64.6,84.3h18.8
		v4.1H64.6V84.3z"/>
	<path class="st1" d="M105.6,96.8c0.1,0.6,0.2,1.3,0.2,2c0,0.7-0.1,1.3-0.2,2l4,1.7l-1.6,3.9l-4-1.7c-0.8,1.1-1.7,2-2.8,2.8l1.7,4
		l-3.9,1.6l-1.7-4c-0.6,0.1-1.3,0.2-2,0.2c-0.7,0-1.3-0.1-2-0.2l-1.7,4l-3.9-1.6l1.7-4c-1.1-0.8-2-1.7-2.8-2.8l-4,1.7l-1.6-3.9
		l4-1.7c-0.1-0.6-0.2-1.3-0.2-2c0-0.7,0.1-1.3,0.2-2l-4-1.7l1.6-3.9l4,1.7c0.8-1.1,1.7-2,2.8-2.8l-1.7-4l3.9-1.6l1.7,4
		c0.6-0.1,1.3-0.2,2-0.2c0.7,0,1.3,0.1,2,0.2l1.7-4l3.9,1.6l-1.7,4c1.1,0.8,2,1.7,2.8,2.8l4-1.7l1.6,3.9L105.6,96.8z M95.5,105
		c0.9,0,1.7-0.2,2.4-0.5c0.8-0.3,1.4-0.8,2-1.3c0.6-0.6,1-1.2,1.3-2c0.3-0.8,0.5-1.6,0.5-2.4c0-0.9-0.2-1.7-0.5-2.4
		c-0.3-0.8-0.8-1.4-1.3-2c-0.6-0.6-1.2-1-2-1.3c-0.8-0.3-1.6-0.5-2.4-0.5c-0.9,0-1.7,0.2-2.4,0.5c-0.8,0.3-1.4,0.8-2,1.3
		c-0.6,0.6-1,1.2-1.3,2c-0.3,0.8-0.5,1.6-0.5,2.4c0,0.9,0.2,1.7,0.5,2.4c0.3,0.8,0.8,1.4,1.3,2c0.6,0.6,1.2,1,2,1.3
		C93.8,104.9,94.6,105,95.5,105z"/>
</g>
</svg>
