<?xml version="1.0" encoding="utf-8"?>
<!-- Generator: Adobe Illustrator 21.1.0, SVG Export Plug-In . SVG Version: 6.00 Build 0)  -->
<svg version="1.1" id="Layer_1" xmlns="http://www.w3.org/2000/svg" xmlns:xlink="http://www.w3.org/1999/xlink" x="0px" y="0px"
	 viewBox="0 0 160 160" style="enable-background:new 0 0 160 160;" xml:space="preserve">
<style type="text/css">
	.st0{opacity:0.25;fill:#537191;}
	.st1{fill:#2A3548;}
	.st2{fill:#F25C00;}
</style>
<path class="st0" d="M84,105.8c0,1.1-0.2,2-0.5,2.7c-0.4,0.9-0.9,1.4-1.6,2s-1.4,0.9-2.3,1.3c-0.9,0.4-1.8,0.4-2.7,0.4
	c-0.4,0.9-0.9,1.8-1.4,2.7c-0.5,0.7-1.3,1.4-2.2,2c-0.9,0.5-1.6,1.1-2.7,1.3c-0.9,0.4-2,0.5-3.1,0.5c-1.1,0-2-0.2-3.1-0.5
	c-0.9-0.4-1.8-0.7-2.7-1.3c-0.9-0.5-1.6-1.3-2.2-2c-0.5-0.7-1.1-1.6-1.4-2.7H43.8c-0.4,0.9-0.9,1.8-1.4,2.7c-0.5,0.7-1.3,1.4-2.2,2
	c-0.9,0.5-1.6,1.1-2.7,1.3c-0.9,0.4-2,0.5-3.1,0.5s-2-0.2-3.1-0.5c-0.9-0.4-1.8-0.7-2.7-1.3c-0.9-0.5-1.6-1.3-2.2-2
	c-0.5-0.7-1.1-1.6-1.4-2.7c-0.9,0-2-0.2-2.7-0.4c-0.9-0.4-1.6-0.7-2.2-1.3c-0.7-0.5-1.1-1.3-1.6-2c-0.4-0.9-0.5-1.8-0.5-2.7V47.1
	c0-0.9,0.2-1.8,0.5-2.5c0.4-0.7,0.7-1.4,1.4-2c0.5-0.5,1.3-1.1,2-1.4c0.7-0.4,1.6-0.5,2.5-0.5h23c3.1,0,5.8,0.7,8.1,2.2
	c2.5,1.4,4.5,3.4,5.9,5.9c0.5,0.9,0.9,1.8,1.3,2.7c0.4,1.1,0.7,2,1.1,2.9c0.7,2,1.4,4,2.2,5.9c0.7,2,1.4,4,2.2,5.9
	c0.7,2.2,1.6,4.5,2.3,6.7c0.7,2.2,1.4,4.5,2.3,6.7H77V37.4h6.5v60.9h35.1v7.5L84,105.8z M25,66.6l19.7,13.1h21.7
	c-1.1-3.2-2.2-6.5-3.4-9.7c-1.1-3.2-2.3-6.5-3.4-9.7c-0.2-0.4-0.4-1.1-0.5-1.8c-0.2-0.7-0.5-1.6-0.9-2.5c-0.4-0.9-0.5-1.6-0.9-2.3
	c-0.4-0.7-0.5-1.3-0.7-1.6c-0.9-1.6-2.2-2.7-3.6-3.6c-1.4-0.9-3.1-1.3-4.9-1.3H25V66.6z M25,105.8h0.5c0.4-0.9,0.9-1.8,1.4-2.7
	c0.5-0.9,1.3-1.4,2.2-2c0.7-0.5,1.6-1.1,2.7-1.3c0.9-0.4,2-0.5,3.1-0.5c1.1,0,2,0.2,3.1,0.5c0.9,0.4,1.8,0.7,2.7,1.3
	c0.9,0.5,1.6,1.3,2.2,2c0.5,0.7,1.1,1.6,1.4,2.7h14.2c0.4-0.9,0.9-1.8,1.4-2.7c0.5-0.7,1.3-1.4,2.2-2c0.9-0.5,1.6-1.1,2.7-1.3
	c0.9-0.4,2-0.5,3.1-0.5s2,0.2,3.1,0.5c0.9,0.4,1.8,0.7,2.7,1.3c0.7,0.5,1.4,1.3,2.2,2c0.5,0.9,1.1,1.6,1.4,2.7h0.5V86.2H41.8
	L25,74.9V105.8z"/>
<g>
	<g>
		<path class="st1" d="M122.6,107.8H86.9c0,1.2-0.2,2.2-0.6,3c-0.4,1-1,1.6-1.8,2.2s-1.6,1-2.6,1.4s-2,0.4-3,0.4c-0.4,1-1,2-1.6,3
			c-0.6,0.8-1.4,1.6-2.4,2.2s-1.8,1.2-3,1.4c-1,0.4-2.2,0.6-3.4,0.6c-1.2,0-2.2-0.2-3.4-0.6c-1-0.4-2-0.8-3-1.4s-1.8-1.4-2.4-2.2
			c-0.6-0.8-1.2-1.8-1.6-3H42.2c-0.4,1-1,2-1.6,3c-0.6,0.8-1.4,1.6-2.4,2.2s-1.8,1.2-3,1.4c-1,0.4-2.2,0.6-3.4,0.6s-2.2-0.2-3.4-0.6
			c-1-0.4-2-0.8-3-1.4s-1.8-1.4-2.4-2.2c-0.6-0.8-1.2-1.8-1.6-3c-1,0-2.2-0.2-3-0.4c-1-0.4-1.8-0.8-2.4-1.4
			c-0.8-0.6-1.2-1.4-1.8-2.2c-0.4-1-0.6-2-0.6-3V42.6c0-1,0.2-2,0.6-2.8s0.8-1.6,1.6-2.2c0.6-0.6,1.4-1.2,2.2-1.6
			c0.8-0.4,1.8-0.6,2.8-0.6h25.5c3.4,0,6.4,0.8,9,2.4c2.8,1.6,5,3.8,6.6,6.6c0.6,1,1,2,1.4,3c0.4,1.2,0.8,2.2,1.2,3.2
			c0.8,2.2,1.6,4.4,2.4,6.6c0.8,2.2,1.6,4.4,2.4,6.6c0.8,2.4,1.8,5,2.6,7.4c0.8,2.4,1.6,5,2.6,7.4h4.6V34h7.2v66.6H122v7.2
			C122,107.8,122.6,107.8,122.6,107.8z M21.3,64.2l21.9,14.6h24.1c-1.2-3.6-2.4-7.2-3.8-10.8c-1.2-3.6-2.6-7.2-3.8-10.8
			c-0.2-0.4-0.4-1.2-0.6-2c-0.2-0.8-0.6-1.8-1-2.8s-0.6-1.8-1-2.6s-0.6-1.4-0.8-1.8c-1-1.8-2.4-3-4-4s-3.4-1.4-5.4-1.4H21.3V64.2z
			 M21.3,107.8h0.6c0.4-1,1-2,1.6-3s1.4-1.6,2.4-2.2c0.8-0.6,1.8-1.2,3-1.4c1-0.4,2.2-0.6,3.4-0.6c1.2,0,2.2,0.2,3.4,0.6
			c1,0.4,2,0.8,3,1.4s1.8,1.4,2.4,2.2c0.6,0.8,1.2,1.8,1.6,3h15.8c0.4-1,1-2,1.6-3c0.6-0.8,1.4-1.6,2.4-2.2s1.8-1.2,3-1.4
			c1-0.4,2.2-0.6,3.4-0.6c1.2,0,2.2,0.2,3.4,0.6c1,0.4,2,0.8,3,1.4c0.8,0.6,1.6,1.4,2.4,2.2c0.6,1,1.2,1.8,1.6,3h0.6V86H40
			L21.3,73.4V107.8z M32.4,116.8c1.4,0,2.8-0.6,3.8-1.6s1.6-2.4,1.6-3.8s-0.6-2.8-1.6-3.8s-2.4-1.6-3.8-1.6c-1.4,0-2.8,0.6-3.8,1.6
			S27,110,27,111.4s0.6,2.8,1.6,3.8C29.5,116.2,30.8,116.8,32.4,116.8z M68.7,117c1.6,0,2.8-0.6,4-1.6c1-1,1.6-2.4,1.6-4
			s-0.6-2.8-1.6-4c-1-1-2.4-1.6-4-1.6s-2.8,0.6-4,1.6c-1,1-1.6,2.4-1.6,4s0.6,2.8,1.6,4S67.3,117,68.7,117z"/>
		<path class="st2" d="M121,35.4L146.5,48v33.6L121,94.2L95.5,81.6V48L121,35.4z M102.8,77l14.6,7.2V63.4l-14.6-7.2V77z M121,43.4
			l-13.6,6.8L121,57l13.6-6.8L121,43.4z M139.3,77V56.2l-14.6,7.2v20.8L139.3,77z"/>
	</g>
</g>
</svg>
