<?xml version="1.0" encoding="utf-8"?>
<!-- Generator: Adobe Illustrator 21.1.0, SVG Export Plug-In . SVG Version: 6.00 Build 0)  -->
<svg version="1.1" id="Layer_1" xmlns="http://www.w3.org/2000/svg" xmlns:xlink="http://www.w3.org/1999/xlink" x="0px" y="0px"
	 viewBox="0 0 160 160" style="enable-background:new 0 0 160 160;" xml:space="preserve">
<style type="text/css">
	.st0{opacity:0.25;}
	.st1{fill:#537191;}
	.st2{fill:#F25C00;}
	.st3{fill:#2A3548;}
</style>
<g>
	<g class="st0">
		<g>
			<path class="st1" d="M45.6,98.6c2,0,3.8-0.4,5.6-1.2c1.8-0.8,3.2-1.8,4.6-3c1.4-1.4,2.4-2.8,3-4.6c0.8-1.8,1.2-3.6,1.2-5.6
				s-0.4-3.8-1.2-5.6c-0.8-1.8-1.8-3.2-3-4.6c-1.4-1.4-2.8-2.4-4.6-3c-1.8-0.8-3.6-1.2-5.6-1.2S41.8,70.2,40,71
				c-1.8,0.8-3.2,1.8-4.6,3c-1.4,1.4-2.4,2.8-3,4.6c-0.8,1.8-1.2,3.6-1.2,5.6s0.4,3.8,1.2,5.6c0.8,1.8,1.8,3.2,3,4.6
				c1.4,1.4,2.8,2.4,4.6,3C41.8,98.2,43.6,98.6,45.6,98.6z M74.5,41.2c0,2,0.4,3.8,1.2,5.6c0.8,1.8,1.8,3.2,3,4.6
				c1.4,1.4,2.8,2.4,4.6,3c1.8,0.8,3.6,1.2,5.6,1.2s3.8-0.4,5.6-1.2c1.8-0.8,3.2-1.8,4.6-3c1.4-1.4,2.4-2.8,3-4.6
				c0.8-1.8,1.2-3.6,1.2-5.6s-0.4-3.8-1.2-5.6c-0.8-1.8-1.8-3.2-3-4.6c-1.4-1.4-2.8-2.4-4.6-3c-1.8-0.8-3.6-1.2-5.6-1.2
				s-3.8,0.4-5.6,1.2c-1.8,0.8-3.2,1.8-4.6,3c-1.4,1.4-2.4,2.8-3,4.6C74.7,37.4,74.5,39.4,74.5,41.2z M88.7,62.8
				c-3,0-5.8,0.6-8.4,1.6c-2.6,1.2-4.8,2.6-6.8,4.6s-3.4,4.2-4.6,6.8c-1.2,2.6-1.6,5.4-1.6,8.4c0,3.4-0.8,6.6-2.2,9.6
				c-1.6,3-3.6,5.6-6.4,7.6c2.4,1.2,4.6,2.8,6.6,4.6s3.6,3.8,5,6s2.4,4.6,3.2,7.2c0.8,2.6,1.2,5.2,1.2,8h-7.2c0-3-0.6-5.8-1.6-8.4
				c-1.2-2.6-2.6-4.8-4.6-6.8s-4.2-3.4-6.8-4.6s-5.4-1.6-8.4-1.6s-5.8,0.6-8.4,1.6c-2.6,1.2-4.8,2.6-6.8,4.6s-3.4,4.2-4.6,6.8
				c-1.2,2.6-1.6,5.4-1.6,8.4H17c0-2.8,0.4-5.4,1.2-8c0.8-2.6,1.8-5,3.2-7.2c1.4-2.2,3-4.2,5-6s4.2-3.4,6.6-4.6
				c-2.8-2-5-4.6-6.4-7.6c-1.6-3-2.2-6.2-2.2-9.6c0-3,0.6-5.8,1.6-8.4c1.2-2.6,2.6-4.8,4.6-6.8s4.2-3.4,6.8-4.6
				c2.6-1.2,5.4-1.6,8.4-1.6c3.4,0,6.6,0.8,9.6,2.2c3,1.6,5.6,3.6,7.6,6.4c1.4-2.8,3.2-5.2,5.4-7.4c2.2-2.2,4.8-4,7.4-5.4
				c-2.8-2-5-4.6-6.4-7.6c-1.6-3-2.2-6.2-2.2-9.6c0-3,0.6-5.8,1.6-8.4c1.2-2.6,2.6-4.8,4.6-6.8s4.2-3.4,6.8-4.6
				c2.6-1.2,5.4-1.6,8.4-1.6s5.8,0.6,8.4,1.6c2.6,1.2,4.8,2.6,6.8,4.6s3.4,4.2,4.6,6.8s1.6,5.4,1.6,8.4c0,3.4-0.8,6.6-2.2,9.6
				c-1.6,3-3.6,5.6-6.4,7.6c2.4,1.2,4.6,2.8,6.6,4.6c2,1.8,3.6,3.8,5,6s2.4,4.6,3.2,7.2c0.8,2.6,1.2,5.2,1.2,8h-7.2
				c0-3-0.6-5.8-1.6-8.4c-1.2-2.6-2.6-4.8-4.6-6.8s-4.2-3.4-6.8-4.6C94.5,63.4,91.7,62.8,88.7,62.8z"/>
		</g>
	</g>
	<g>
		<g>
			<path class="st2" d="M143,115.2c0,2.8-0.4,5.4-1,8c-0.8,2.6-1.8,5-3,7.4c-1.4,2.2-3,4.4-4.8,6.2s-4,3.4-6.2,4.8
				c-2.2,1.4-4.6,2.4-7.2,3.2s-5.2,1.2-8,1.2c-4.2,0-8.4-0.8-12-2.4c-3.8-1.6-7-3.8-9.8-6.6s-5-6-6.6-9.8s-2.4-7.8-2.4-12
				s0.8-8.2,2.4-12s3.8-7,6.6-9.8c2.8-2.8,6-5,9.8-6.6s7.6-2.4,12-2.4c4.2,0,8.2,0.8,12,2.4s7,3.8,9.8,6.6s5,6,6.6,9.8
				C142.2,107,143,110.8,143,115.2z M87.5,115.2c0,1,0,2,0.2,3s0.4,2,0.6,3h11.6c-0.2-4-0.2-8.2,0-12.2H88.3c-0.2,1-0.4,2-0.6,3
				C87.7,113,87.5,114,87.5,115.2z M102.9,92.4c-2.4,1-4.8,2.4-6.8,4.2s-3.8,3.8-5.2,6.2h9.6c0.2-1.8,0.6-3.6,0.8-5.4
				C101.7,95.8,102.1,94,102.9,92.4z M90.9,127.4c1.4,2.4,3,4.4,5,6.2s4.2,3.2,6.8,4.2c-0.6-1.6-1.2-3.4-1.4-5.2
				c-0.4-1.8-0.6-3.6-0.8-5.2C100.5,127.4,90.9,127.4,90.9,127.4z M118.2,121.2c0-2,0.2-4,0.2-6.2c0-2,0-4-0.2-6.2h-12
				c0,2-0.2,4.2-0.2,6.2s0,4,0.2,6.2H118.2z M112.2,139.6c0.6,0,1.2-0.2,1.8-0.8c0.6-0.4,1-1.2,1.4-1.8c0.4-0.8,0.8-1.6,1-2.6
				s0.6-1.8,0.8-2.8s0.4-1.8,0.4-2.6s0.2-1.4,0.2-1.8h-11c0,0.4,0.2,1,0.2,1.8c0.2,0.8,0.2,1.6,0.4,2.4c0.2,0.8,0.4,1.8,0.8,2.8
				c0.2,1,0.6,1.8,1,2.6s0.8,1.4,1.4,1.8C110.9,139.4,111.6,139.6,112.2,139.6z M112.2,90.6c-0.6,0-1.2,0.2-1.6,0.8
				c-0.4,0.4-1,1.2-1.2,2c-0.4,0.8-0.8,1.6-1,2.6s-0.6,1.8-0.8,2.8c-0.2,1-0.4,1.8-0.6,2.6c-0.2,0.8-0.2,1.4-0.2,1.8h10.8
				c0-0.4-0.2-1-0.2-1.6c-0.2-0.8-0.4-1.6-0.6-2.4c-0.2-1-0.4-1.8-0.8-2.8c-0.2-1-0.6-1.8-1-2.6c-0.4-0.8-0.8-1.4-1.2-2
				C113.2,90.8,112.8,90.6,112.2,90.6z M133.4,102.8c-1.4-2.4-3.2-4.6-5.2-6.4s-4.4-3.2-7-4.2c0.6,1.6,1.2,3.4,1.6,5.2
				c0.4,1.8,0.8,3.6,1,5.4H133.4z M121.8,137.6c2.4-1,4.6-2.4,6.6-4.2c2-1.8,3.6-3.8,5-6.2H124c-0.2,1.8-0.4,3.6-0.8,5.2
				C123,134.4,122.4,136,121.8,137.6z M124.4,109c0,2,0.2,4,0.2,6.2c0,2,0,4,0,6.2h11.6c0.2-1,0.4-2,0.6-3c0.2-1,0.2-2,0.2-3
				s0-2-0.2-3s-0.4-2-0.6-3h-11.8C124.4,109.4,124.4,109,124.4,109z"/>
		</g>
		<g>
			<path class="st3" d="M45.6,92.6c2,0,3.8-0.4,5.6-1.2c1.8-0.8,3.2-1.8,4.6-3c1.4-1.4,2.4-2.8,3-4.6c0.8-1.8,1.2-3.6,1.2-5.6
				s-0.4-3.8-1.2-5.6c-0.8-1.8-1.8-3.2-3-4.6c-1.4-1.4-2.8-2.4-4.6-3c-1.8-0.8-3.6-1.2-5.6-1.2S41.8,64.2,40,65s-3.2,1.8-4.6,3
				c-1.4,1.4-2.4,2.8-3,4.6c-0.8,1.8-1.2,3.6-1.2,5.6s0.4,3.8,1.2,5.6c0.8,1.8,1.8,3.2,3,4.6c1.4,1.4,2.8,2.4,4.6,3
				C41.8,92.2,43.6,92.6,45.6,92.6z M74.5,35.2c0,2,0.4,3.8,1.2,5.6c0.8,1.8,1.8,3.2,3,4.6c1.4,1.4,2.8,2.4,4.6,3
				c1.8,0.8,3.6,1.2,5.6,1.2s3.8-0.4,5.6-1.2c1.8-0.8,3.2-1.8,4.6-3c1.4-1.4,2.4-2.8,3-4.6c0.8-1.8,1.2-3.6,1.2-5.6
				s-0.4-3.8-1.2-5.6c-0.8-1.8-1.8-3.2-3-4.6c-1.4-1.4-2.8-2.4-4.6-3c-1.8-0.8-3.6-1.2-5.6-1.2s-3.8,0.4-5.6,1.2
				c-1.8,0.8-3.2,1.8-4.6,3c-1.4,1.4-2.4,2.8-3,4.6C74.7,31.4,74.5,33.4,74.5,35.2z M88.7,56.8c-3,0-5.8,0.6-8.4,1.6
				c-2.6,1.2-4.8,2.6-6.8,4.6c-2,2-3.4,4.2-4.6,6.8s-1.6,5.4-1.6,8.4c0,3.4-0.8,6.6-2.2,9.6c-1.6,3-3.6,5.6-6.4,7.6
				c2.4,1.2,4.6,2.8,6.6,4.6s3.6,3.8,5,6s2.4,4.6,3.2,7.2c0.8,2.6,1.2,5.2,1.2,8h-7.2c0-3-0.6-5.8-1.6-8.4c-1.2-2.6-2.6-4.8-4.6-6.8
				s-4.2-3.4-6.8-4.6s-5.4-1.6-8.4-1.6s-5.8,0.6-8.4,1.6c-2.6,1.2-4.8,2.6-6.8,4.6s-3.4,4.2-4.6,6.8c-1.2,2.6-1.6,5.4-1.6,8.4H17
				c0-2.8,0.4-5.4,1.2-8c0.8-2.6,1.8-5,3.2-7.2c1.4-2.2,3-4.2,5-6s4.2-3.4,6.6-4.6c-2.8-2-5-4.6-6.4-7.6c-1.6-3-2.2-6.2-2.2-9.6
				c0-3,0.6-5.8,1.6-8.4c1.2-2.6,2.6-4.8,4.6-6.8c2-2,4.2-3.4,6.8-4.6c2.6-1.2,5.4-1.6,8.4-1.6c3.4,0,6.6,0.8,9.6,2.2
				c3,1.6,5.6,3.6,7.6,6.4c1.4-2.8,3.2-5.2,5.4-7.4c2.2-2.2,4.8-4,7.4-5.4c-2.8-2-5-4.6-6.4-7.6c-1.6-3-2.2-6.2-2.2-9.6
				c0-3,0.6-5.8,1.6-8.4c1.2-2.6,2.6-4.8,4.6-6.8s4.2-3.4,6.8-4.6c2.6-1.2,5.4-1.6,8.4-1.6s5.8,0.6,8.4,1.6c2.6,1.2,4.8,2.6,6.8,4.6
				s3.4,4.2,4.6,6.8s1.6,5.4,1.6,8.4c0,3.4-0.8,6.6-2.2,9.6c-1.6,3-3.6,5.6-6.4,7.6c2.4,1.2,4.6,2.8,6.6,4.6s3.6,3.8,5,6
				c1.4,2.2,2.4,4.6,3.2,7.2c0.8,2.6,1.2,5.2,1.2,8h-7.2c0-3-0.6-5.8-1.6-8.4c-1.2-2.6-2.6-4.8-4.6-6.8c-2-2-4.2-3.4-6.8-4.6
				C94.5,57.4,91.7,56.8,88.7,56.8z"/>
		</g>
	</g>
</g>
</svg>
