<svg xmlns="http://www.w3.org/2000/svg" viewBox="0 0 64 64"><defs><style>.cls-1,.cls-4{fill:none;}.cls-2{opacity:0.25;}.cls-3{fill:#537191;}.cls-4{stroke:#2a3548;stroke-miterlimit:10;stroke-width:4px;}.cls-5{fill:#f25c00;}</style></defs><title>explore</title><g id="Layer_2" data-name="Layer 2"><g id="Layer_1-2" data-name="Layer 1"><rect class="cls-1" width="64" height="64"/><g class="cls-2"><path class="cls-3" d="M55.38,50.62l-10-10a13.85,13.85,0,0,0,.37-12.41,14,14,0,1,0-26.42,8.66,14,14,0,0,0,22.61,8L53.55,56.45l2.83-2.83ZM23,34a10,10,0,0,1,18.85-4.63A9.69,9.69,0,0,1,42,31a10,10,0,0,1-18.85,4.63A9.69,9.69,0,0,1,23,34Z"/><path class="cls-3" d="M28.5,34c3,.83,3.67,1.5,4.5,4.5.83-3,1.5-3.67,4.5-4.5l-1-3c-3-.83-3.67-1.5-4.5-4.5-.83,3-1.5,3.67-4.5,4.5Z"/><polygon class="cls-3" points="57 17 47 17 47 21 48 24 58 24 58 20 57 17"/><polygon class="cls-3" points="32 49 7 49 7 53 8 56 33 56 33 52 32 49"/><polygon class="cls-3" points="57 25 51 25 51 29 52 32 58 32 58 28 57 25"/><polygon class="cls-3" points="57 33 51 33 51 37 52 40 58 40 58 36 57 33"/><polygon class="cls-3" points="57 9 7 9 7 13 8 16 58 16 58 12 57 9"/><polygon class="cls-3" points="8 24 18 24 18 20 17 17 7 17 7 21 8 24"/><polygon class="cls-3" points="8 48 18 48 18 44 17 41 7 41 7 45 8 48"/><polygon class="cls-3" points="8 32 14 32 14 28 13 25 7 25 7 29 8 32"/><polygon class="cls-3" points="8 40 14 40 14 36 13 33 7 33 7 37 8 40"/></g><circle class="cls-4" cx="32" cy="31" r="12"/><path class="cls-5" d="M36.5,31a6.33,6.33,0,0,0-3.12,1.5,6.82,6.82,0,0,0-1.38,3,6.94,6.94,0,0,0-1.37-3A6.42,6.42,0,0,0,27.5,31a6.27,6.27,0,0,0,3.18-1.56A7,7,0,0,0,32,26.5a6.5,6.5,0,0,0,1.44,3.06A6.5,6.5,0,0,0,36.5,31Z"/><line class="cls-4" x1="40.93" y1="39" x2="53.97" y2="52.03"/><line class="cls-4" x1="7" y1="11" x2="57" y2="11"/><line class="cls-4" x1="7" y1="19" x2="17" y2="19"/><line class="cls-4" x1="47" y1="19" x2="57" y2="19"/><line class="cls-4" x1="7" y1="43" x2="17" y2="43"/><line class="cls-4" x1="7" y1="51" x2="32" y2="51"/><line class="cls-4" x1="7" y1="27" x2="13" y2="27"/><line class="cls-4" x1="51" y1="27" x2="57" y2="27"/><line class="cls-4" x1="7" y1="35" x2="13" y2="35"/><line class="cls-4" x1="51" y1="35" x2="57" y2="35"/></g></g></svg>