<?xml version="1.0" encoding="utf-8"?>
<!-- Generator: Adobe Illustrator 21.1.0, SVG Export Plug-In . SVG Version: 6.00 Build 0)  -->
<svg version="1.1" id="Layer_1" xmlns="http://www.w3.org/2000/svg" xmlns:xlink="http://www.w3.org/1999/xlink" x="0px" y="0px"
	 viewBox="0 0 160 160" style="enable-background:new 0 0 160 160;" xml:space="preserve">
<style type="text/css">
	.st0{opacity:0.25;fill:#537191;}
	.st1{fill:#2A3548;}
	.st2{fill:#F25C00;}
</style>
<g>
	<path class="st0" d="M30.7,127.6h46.7l3.6,8.2H22.5V20h99.2v72.7h-8.2V28.2H30.7V127.6z M47.3,53.1h-8.2V45h8.2V53.1z M47.3,77.9
		h-8.2v-8.2h8.2V77.9z M39.1,94.5h8.2v8.2h-8.2V94.5z M105.4,53.1H55.6V45h49.7L105.4,53.1L105.4,53.1z M105.4,77.9H55.6v-8.2h49.7
		L105.4,77.9L105.4,77.9z M55.6,94.5h37.5v8.2H55.6V94.5z"/>
	<g>
		<path class="st1" d="M26.7,121.6h48.7l3.6,8.2H18.5V14h99.2v72.7h-8.2V22.2H26.7V121.6z M43.3,47.1h-8.2V39h8.2V47.1z M43.3,71.9
			h-8.2v-8.2h8.2V71.9z M35.1,88.5h8.2v8.2h-8.2V88.5z M101.4,47.1H51.6V39h49.7L101.4,47.1L101.4,47.1z M101.4,71.9H51.6v-8.2h49.7
			L101.4,71.9L101.4,71.9z M51.6,88.5h37.5v8.2H51.6V88.5z"/>
		<path class="st2" d="M133.5,113.4c0.2,1.2,0.4,2.6,0.4,4s-0.2,2.6-0.4,4l8,3.4l-3.2,7.8l-8-3.4c-1.6,2.2-3.4,4-5.6,5.6l3.4,8
			l-7.8,3.2l-3.4-8c-1.2,0.2-2.6,0.4-4,0.4s-2.6-0.2-4-0.4l-3.4,8l-7.8-3.2l3.4-8c-2.2-1.6-4-3.4-5.6-5.6l-8,3.4l-3.2-7.8l8-3.4
			c-0.2-1.2-0.4-2.6-0.4-4s0.2-2.6,0.4-4l-8-3.4l3.2-7.8l8,3.4c1.6-2.2,3.4-4,5.6-5.6l-3.4-8l7.8-3.2l3.4,8c1.2-0.2,2.6-0.4,4-0.4
			s2.6,0.2,4,0.4l3.4-8l7.8,3.2l-3.4,8c2.2,1.6,4,3.4,5.6,5.6l8-3.4l3.2,7.8L133.5,113.4z M113.3,129.8c1.8,0,3.4-0.4,4.8-1
			c1.6-0.6,2.8-1.6,4-2.6c1.2-1.2,2-2.4,2.6-4s1-3.2,1-4.8c0-1.8-0.4-3.4-1-4.8c-0.6-1.6-1.6-2.8-2.6-4c-1.2-1.2-2.4-2-4-2.6
			s-3.2-1-4.8-1c-1.8,0-3.4,0.4-4.8,1c-1.6,0.6-2.8,1.6-4,2.6c-1.2,1.2-2,2.4-2.6,4s-1,3.2-1,4.8c0,1.8,0.4,3.4,1,4.8
			c0.6,1.6,1.6,2.8,2.6,4c1.2,1.2,2.4,2,4,2.6C110,129.6,111.5,129.8,113.3,129.8z"/>
	</g>
</g>
</svg>
