<?xml version="1.0" encoding="utf-8"?>
<!-- Generator: Adobe Illustrator 21.1.0, SVG Export Plug-In . SVG Version: 6.00 Build 0)  -->
<svg version="1.1" id="Layer_1" xmlns="http://www.w3.org/2000/svg" xmlns:xlink="http://www.w3.org/1999/xlink" x="0px" y="0px"
	 viewBox="0 0 160 160" style="enable-background:new 0 0 160 160;" xml:space="preserve">
<style type="text/css">
	.st0{opacity:0.25;}
	.st1{fill:#537191;}
	.st2{fill:#2A3548;}
	.st3{fill:#F25C00;}
</style>
<g>
	<g class="st0">
		<g>
			<path class="st1" d="M134,40.4v-7.2H83.5V26h-7.2v7.2H26v7.2h17.7l-12,35.3h7.6l8.1-24.1l8.1,24.1h7.6l-9.8-28.8l-7.4-6.5h30.4
				v72.4c-6.3,0.4-12.2,1.8-17.7,4.1c-5.6,2.3-10.7,5.8-15.4,9.9h-10v7.2h93.6v-7.2h-10.2c-4.5-4.3-9.8-7.6-15.4-9.9
				c-5.6-2.3-11.6-3.8-17.7-4.1V40.4h24.9L96.6,75.7h7.6l8.1-24.1l8.1,24.1h7.6l-9.8-29.3l-7.2-5.9H134z"/>
		</g>
	</g>
	<g>
		<g>
			<path class="st2" d="M140,36v-8H83.9v-8h-8v8H20v8h19.7L26.4,75.2h8.4l9-26.8l9,26.8h8.4l-10.9-32L42.1,36h33.8v80.4
				c-7,0.4-13.5,2-19.7,4.6s-11.9,6.4-17.1,11H28v8h104v-8h-11.3c-5-4.8-10.9-8.4-17.1-11s-12.9-4.2-19.7-4.6V36h27.7L98.4,75.2h8.4
				l9-26.8l9,26.8h8.4l-10.9-32.6l-8-6.6H140z M94.4,126.2c4.6,1.4,9,3.4,13.3,6H52.2c4.2-2.6,8.6-4.6,13.3-6c4.6-1.4,9.4-2,14.5-2
				C84.9,124,89.7,124.8,94.4,126.2z"/>
			<g>
				<path class="st3" d="M20,74.8v8h1.4c0.8,2.4,2,4.6,3.6,6.4c1.6,2,3.2,3.6,5.2,5s4.2,2.4,6.4,3.2c2.4,0.8,4.8,1.2,7.4,1.2
					s5-0.4,7.4-1.2s4.4-1.8,6.4-3.2c2-1.4,3.8-3,5.2-5c1.6-2,2.6-4.2,3.6-6.4H68v-8H20z"/>
				<path class="st3" d="M92,74.8v8h1.4c0.8,2.4,2,4.6,3.6,6.4c1.6,2,3.2,3.6,5.2,5s4.2,2.4,6.4,3.2c2.4,0.8,4.8,1.2,7.4,1.2
					s5-0.4,7.4-1.2s4.4-1.8,6.4-3.2s3.8-3,5.2-5c1.6-2,2.6-4.2,3.6-6.4h1.4v-8H92z"/>
			</g>
		</g>
	</g>
</g>
</svg>
