<?xml version="1.0" encoding="utf-8"?>
<!-- Generator: Adobe Illustrator 21.1.0, SVG Export Plug-In . SVG Version: 6.00 Build 0)  -->
<svg version="1.1" id="Layer_1" xmlns="http://www.w3.org/2000/svg" xmlns:xlink="http://www.w3.org/1999/xlink" x="0px" y="0px"
	 viewBox="0 0 160 160" style="enable-background:new 0 0 160 160;" xml:space="preserve">
<style type="text/css">
	.st0{fill:#2A3548;}
	.st1{fill:#F25C00;}
	.st2{fill:#1E2937;}
	.st3{fill:#CC4602;}
	.st4{fill:#D7DEED;}
</style>
<g>
	<g>
		<polygon class="st0" points="145.4,114.1 145.4,42.2 79.9,4.4 14.4,42.2 14.4,114.1 79.9,152 		"/>
		<polygon class="st1" points="14.4,109.5 79.9,147.3 145.4,109.5 145.4,117.8 79.9,155.7 14.4,117.8 		"/>
		<polygon class="st2" points="145.4,114.1 145.4,42.2 79.9,4.4 79.9,152 		"/>
		<polygon class="st3" points="145.4,117.8 145.4,109.5 79.9,147.3 79.9,155.7 		"/>
	</g>
</g>
<g>
	<path class="st2" d="M101,77.5c1-0.2,2-0.1,2.9,0.1c0.9,0.2,1.8,0.6,2.6,1.2c0.8,0.6,1.4,1.2,2,2.1c0.5,0.8,0.9,1.7,1,2.8
		c0.2,1,0.1,2-0.1,2.9c-0.2,0.9-0.6,1.8-1.2,2.6c-0.6,0.8-1.2,1.4-2.1,2c-0.8,0.5-1.7,0.9-2.8,1c-1,0.2-1.9,0.1-2.8-0.1
		c-0.9-0.2-1.7-0.6-2.5-1c-0.8-0.5-1.4-1.1-2-1.9c-0.6-0.7-0.9-1.6-1.2-2.5l-4.4,0c-0.2,1.4-0.7,2.7-1.5,3.9
		c-0.7,1.2-1.7,2.2-2.8,3.1l2.5,4.7c0.1,0,0.2-0.1,0.3-0.1c0.1,0,0.2,0,0.3,0c1-0.2,2-0.1,2.9,0.1c0.9,0.2,1.8,0.6,2.6,1.2
		c0.8,0.6,1.4,1.2,2,2.1c0.5,0.8,0.9,1.7,1,2.8c0.2,1,0.1,2-0.1,2.9c-0.2,0.9-0.6,1.8-1.2,2.6c-0.6,0.8-1.2,1.4-2.1,2
		c-0.8,0.5-1.7,0.9-2.8,1c-1,0.2-2,0.1-2.9-0.1c-0.9-0.2-1.8-0.6-2.6-1.2c-0.8-0.6-1.4-1.2-2-2.1c-0.5-0.8-0.9-1.7-1-2.8
		c-0.2-1.3-0.1-2.5,0.3-3.7c0.4-1.2,1.1-2.2,2-3l-2.5-4.7c-0.3,0.1-0.5,0.2-0.8,0.2s-0.6,0.1-0.9,0.2c-1.8,0.3-3.5,0.2-5.2-0.4
		c-1.7-0.5-3.2-1.4-4.4-2.7l-5.5,3.9c0.2,0.5,0.3,1,0.4,1.5c0.2,1,0.1,2-0.1,2.9c-0.2,0.9-0.6,1.8-1.2,2.6c-0.6,0.8-1.2,1.4-2.1,2
		c-0.8,0.5-1.7,0.9-2.8,1c-1,0.2-2,0.1-2.9-0.1c-0.9-0.2-1.8-0.6-2.6-1.2c-0.8-0.6-1.4-1.2-2-2.1c-0.5-0.8-0.9-1.7-1-2.8
		c-0.2-1-0.1-2,0.1-2.9c0.2-0.9,0.6-1.8,1.2-2.6c0.6-0.8,1.2-1.4,2.1-2c0.8-0.5,1.7-0.9,2.8-1c1.1-0.2,2.1-0.1,3.1,0.2
		c1,0.3,2,0.8,2.8,1.4l5.5-4c-0.5-1-0.8-2.1-1-3.1c-0.2-1.4-0.2-2.7,0.1-4c0.3-1.3,0.8-2.6,1.5-3.7L66,75.1c-0.9,0.6-1.9,1-2.9,1.2
		c-1,0.2-2,0.1-2.9-0.1c-0.9-0.2-1.8-0.6-2.6-1.2c-0.8-0.6-1.4-1.2-2-2.1c-0.5-0.8-0.9-1.7-1-2.8c-0.2-1-0.1-2,0.1-2.9
		c0.2-0.9,0.6-1.8,1.2-2.6c0.6-0.8,1.2-1.4,2.1-2c0.8-0.5,1.7-0.9,2.8-1c1-0.2,2-0.1,2.9,0.1c0.9,0.2,1.8,0.6,2.6,1.2
		c0.8,0.6,1.4,1.2,2,2.1c0.5,0.8,0.9,1.7,1,2.8c0.3,1.6,0,3.2-0.7,4.6l4.1,3.8c0.7-0.6,1.6-1.1,2.4-1.4c0.9-0.4,1.8-0.7,2.7-0.8
		c1.6-0.3,3.1-0.2,4.6,0.2l3.5-7.8c-0.7-0.6-1.3-1.2-1.7-2c-0.5-0.8-0.8-1.6-0.9-2.6c-0.2-1-0.1-2,0.1-2.9c0.2-0.9,0.6-1.8,1.2-2.6
		c0.6-0.8,1.2-1.4,2.1-2c0.8-0.5,1.7-0.9,2.8-1c1-0.2,2-0.1,2.9,0.1c0.9,0.2,1.8,0.6,2.6,1.2c0.8,0.6,1.4,1.2,2,2.1
		c0.5,0.8,0.9,1.7,1,2.8c0.2,1,0.1,2-0.1,2.9c-0.2,0.9-0.6,1.8-1.2,2.6c-0.6,0.8-1.2,1.4-2.1,2c-0.8,0.5-1.7,0.9-2.8,1
		c-0.8,0.1-1.6,0.1-2.5,0l-3.6,7.8c1.3,0.8,2.3,1.9,3.2,3.2c0.8,1.3,1.4,2.7,1.6,4.2l4.4,0c0.2-0.7,0.5-1.4,0.8-2
		c0.4-0.6,0.8-1.2,1.3-1.6c0.5-0.5,1.1-0.9,1.7-1.2C99.5,77.9,100.2,77.6,101,77.5z M60,103.1c0.5-0.1,1-0.3,1.4-0.5
		c0.4-0.3,0.8-0.6,1-1c0.3-0.4,0.5-0.8,0.6-1.3c0.1-0.5,0.1-1,0.1-1.5c-0.1-0.5-0.3-1-0.5-1.4c-0.3-0.4-0.6-0.7-1-1
		c-0.4-0.3-0.8-0.5-1.3-0.6c-0.5-0.1-1-0.1-1.5-0.1c-0.5,0.1-1,0.3-1.4,0.5c-0.4,0.3-0.8,0.6-1,1c-0.3,0.4-0.5,0.8-0.6,1.3
		c-0.1,0.5-0.1,1-0.1,1.5c0.1,0.5,0.3,1,0.5,1.4c0.3,0.4,0.6,0.8,1,1c0.4,0.3,0.8,0.5,1.3,0.6C59,103.1,59.5,103.2,60,103.1z
		 M58.3,69.5c0.1,0.5,0.3,1,0.5,1.4c0.3,0.4,0.6,0.8,1,1c0.4,0.3,0.8,0.5,1.3,0.6c0.5,0.1,1,0.1,1.5,0.1c0.5-0.1,1-0.3,1.4-0.5
		c0.4-0.3,0.8-0.6,1-1c0.3-0.4,0.5-0.8,0.6-1.3c0.1-0.5,0.1-1,0.1-1.5c-0.1-0.5-0.3-1-0.5-1.4c-0.3-0.4-0.6-0.7-1-1
		c-0.4-0.3-0.8-0.5-1.3-0.6c-0.5-0.1-1-0.1-1.5-0.1c-0.5,0.1-1,0.3-1.4,0.5c-0.4,0.3-0.8,0.6-1,1c-0.3,0.4-0.5,0.8-0.6,1.3
		C58.2,68.5,58.2,69,58.3,69.5z M80.8,89.1c1-0.2,1.9-0.5,2.8-1c0.8-0.5,1.5-1.2,2.1-2c0.6-0.8,1-1.6,1.2-2.6
		c0.2-0.9,0.3-1.9,0.1-2.9c-0.2-1-0.5-1.9-1-2.8c-0.5-0.8-1.2-1.5-2-2.1c-0.8-0.6-1.6-1-2.6-1.2c-0.9-0.2-1.9-0.3-2.9-0.1
		c-1,0.2-1.9,0.5-2.8,1c-0.8,0.5-1.5,1.2-2.1,2c-0.6,0.8-1,1.6-1.2,2.6C72.1,81,72.1,82,72.3,83c0.2,1,0.5,1.9,1,2.8
		c0.5,0.8,1.2,1.5,2,2.1c0.8,0.6,1.6,1,2.6,1.2C78.8,89.3,79.8,89.3,80.8,89.1z M94.2,105c-0.1-0.5-0.3-1-0.5-1.4
		c-0.3-0.4-0.6-0.7-1-1c-0.4-0.3-0.8-0.5-1.3-0.6c-0.5-0.1-1-0.1-1.5-0.1c-0.5,0.1-1,0.3-1.4,0.5c-0.4,0.3-0.8,0.6-1,1
		c-0.3,0.4-0.5,0.8-0.6,1.3c-0.1,0.5-0.1,1-0.1,1.5c0.1,0.5,0.3,1,0.5,1.4c0.3,0.4,0.6,0.8,1,1c0.4,0.3,0.8,0.5,1.3,0.6
		c0.5,0.1,1,0.1,1.5,0.1c0.5-0.1,1-0.3,1.4-0.5c0.4-0.3,0.8-0.6,1-1c0.3-0.4,0.5-0.8,0.6-1.3C94.3,106,94.3,105.5,94.2,105z
		 M90,56.8c-0.5,0.1-1,0.3-1.4,0.5c-0.4,0.3-0.8,0.6-1,1c-0.3,0.4-0.5,0.8-0.6,1.3c-0.1,0.5-0.1,1-0.1,1.5c0.1,0.5,0.3,1,0.5,1.4
		c0.3,0.4,0.6,0.8,1,1c0.4,0.3,0.8,0.5,1.3,0.6c0.5,0.1,1,0.1,1.5,0.1c0.5-0.1,1-0.3,1.4-0.5c0.4-0.3,0.8-0.6,1-1
		c0.3-0.4,0.5-0.8,0.6-1.3c0.1-0.5,0.1-1,0.1-1.5c-0.1-0.5-0.3-1-0.5-1.4c-0.3-0.4-0.6-0.7-1-1c-0.4-0.3-0.8-0.5-1.3-0.6
		C91,56.7,90.5,56.7,90,56.8z M102.8,88.5c0.5-0.1,1-0.3,1.4-0.5c0.4-0.3,0.8-0.6,1-1c0.3-0.4,0.5-0.8,0.6-1.3
		c0.1-0.5,0.1-1,0.1-1.5c-0.1-0.5-0.3-1-0.5-1.4c-0.3-0.4-0.6-0.7-1-1c-0.4-0.3-0.8-0.5-1.3-0.6c-0.5-0.1-1-0.1-1.5-0.1
		c-0.5,0.1-1,0.3-1.4,0.5c-0.4,0.3-0.8,0.6-1,1c-0.3,0.4-0.5,0.8-0.6,1.3c-0.1,0.5-0.1,1-0.1,1.5c0.1,0.5,0.3,1,0.5,1.4
		c0.3,0.4,0.6,0.8,1,1c0.4,0.3,0.8,0.5,1.3,0.6C101.8,88.6,102.2,88.6,102.8,88.5z"/>
</g>
<g>
	<path class="st4" d="M101,74.5c1-0.2,2-0.1,2.9,0.1c0.9,0.2,1.8,0.6,2.6,1.2c0.8,0.6,1.4,1.2,2,2.1c0.5,0.8,0.9,1.7,1,2.8
		c0.2,1,0.1,2-0.1,2.9c-0.2,0.9-0.6,1.8-1.2,2.6c-0.6,0.8-1.2,1.4-2.1,2c-0.8,0.5-1.7,0.9-2.8,1c-1,0.2-1.9,0.1-2.8-0.1
		c-0.9-0.2-1.7-0.6-2.5-1c-0.8-0.5-1.4-1.1-2-1.9c-0.6-0.7-0.9-1.6-1.2-2.5l-4.4,0c-0.2,1.4-0.7,2.7-1.5,3.9
		c-0.7,1.2-1.7,2.2-2.8,3.1l2.5,4.7c0.1,0,0.2-0.1,0.3-0.1c0.1,0,0.2,0,0.3,0c1-0.2,2-0.1,2.9,0.1c0.9,0.2,1.8,0.6,2.6,1.2
		c0.8,0.6,1.4,1.2,2,2.1c0.5,0.8,0.9,1.7,1,2.8c0.2,1,0.1,2-0.1,2.9c-0.2,0.9-0.6,1.8-1.2,2.6c-0.6,0.8-1.2,1.4-2.1,2
		c-0.8,0.5-1.7,0.9-2.8,1c-1,0.2-2,0.1-2.9-0.1c-0.9-0.2-1.8-0.6-2.6-1.2c-0.8-0.6-1.4-1.2-2-2.1c-0.5-0.8-0.9-1.7-1-2.8
		c-0.2-1.3-0.1-2.5,0.3-3.7c0.4-1.2,1.1-2.2,2-3l-2.5-4.7c-0.3,0.1-0.5,0.2-0.8,0.2s-0.6,0.1-0.9,0.2c-1.8,0.3-3.5,0.2-5.2-0.4
		c-1.7-0.5-3.2-1.4-4.4-2.7l-5.5,3.9c0.2,0.5,0.3,1,0.4,1.5c0.2,1,0.1,2-0.1,2.9c-0.2,0.9-0.6,1.8-1.2,2.6c-0.6,0.8-1.2,1.4-2.1,2
		c-0.8,0.5-1.7,0.9-2.8,1c-1,0.2-2,0.1-2.9-0.1c-0.9-0.2-1.8-0.6-2.6-1.2c-0.8-0.6-1.4-1.2-2-2.1c-0.5-0.8-0.9-1.7-1-2.8
		c-0.2-1-0.1-2,0.1-2.9c0.2-0.9,0.6-1.8,1.2-2.6c0.6-0.8,1.2-1.4,2.1-2c0.8-0.5,1.7-0.9,2.8-1c1.1-0.2,2.1-0.1,3.1,0.2
		c1,0.3,2,0.8,2.8,1.4l5.5-4c-0.5-1-0.8-2.1-1-3.1c-0.2-1.4-0.2-2.7,0.1-4c0.3-1.3,0.8-2.6,1.5-3.7L66,72.1c-0.9,0.6-1.9,1-2.9,1.2
		c-1,0.2-2,0.1-2.9-0.1c-0.9-0.2-1.8-0.6-2.6-1.2c-0.8-0.6-1.4-1.2-2-2.1c-0.5-0.8-0.9-1.7-1-2.8c-0.2-1-0.1-2,0.1-2.9
		c0.2-0.9,0.6-1.8,1.2-2.6c0.6-0.8,1.2-1.4,2.1-2c0.8-0.5,1.7-0.9,2.8-1c1-0.2,2-0.1,2.9,0.1c0.9,0.2,1.8,0.6,2.6,1.2
		c0.8,0.6,1.4,1.2,2,2.1c0.5,0.8,0.9,1.7,1,2.8c0.3,1.6,0,3.2-0.7,4.6l4.1,3.8c0.7-0.6,1.6-1.1,2.4-1.4c0.9-0.4,1.8-0.7,2.7-0.8
		c1.6-0.3,3.1-0.2,4.6,0.2l3.5-7.8c-0.7-0.6-1.3-1.2-1.7-2c-0.5-0.8-0.8-1.6-0.9-2.6c-0.2-1-0.1-2,0.1-2.9c0.2-0.9,0.6-1.8,1.2-2.6
		c0.6-0.8,1.2-1.4,2.1-2c0.8-0.5,1.7-0.9,2.8-1c1-0.2,2-0.1,2.9,0.1c0.9,0.2,1.8,0.6,2.6,1.2c0.8,0.6,1.4,1.2,2,2.1
		c0.5,0.8,0.9,1.7,1,2.8c0.2,1,0.1,2-0.1,2.9c-0.2,0.9-0.6,1.8-1.2,2.6c-0.6,0.8-1.2,1.4-2.1,2c-0.8,0.5-1.7,0.9-2.8,1
		c-0.8,0.1-1.6,0.1-2.5,0l-3.6,7.8c1.3,0.8,2.3,1.9,3.2,3.2c0.8,1.3,1.4,2.7,1.6,4.2l4.4,0c0.2-0.7,0.5-1.4,0.8-2
		c0.4-0.6,0.8-1.2,1.3-1.6c0.5-0.5,1.1-0.9,1.7-1.2C99.5,74.9,100.2,74.6,101,74.5z M60,100.1c0.5-0.1,1-0.3,1.4-0.5
		c0.4-0.3,0.8-0.6,1-1c0.3-0.4,0.5-0.8,0.6-1.3c0.1-0.5,0.1-1,0.1-1.5c-0.1-0.5-0.3-1-0.5-1.4c-0.3-0.4-0.6-0.7-1-1
		c-0.4-0.3-0.8-0.5-1.3-0.6c-0.5-0.1-1-0.1-1.5-0.1c-0.5,0.1-1,0.3-1.4,0.5c-0.4,0.3-0.8,0.6-1,1c-0.3,0.4-0.5,0.8-0.6,1.3
		c-0.1,0.5-0.1,1-0.1,1.5c0.1,0.5,0.3,1,0.5,1.4c0.3,0.4,0.6,0.8,1,1c0.4,0.3,0.8,0.5,1.3,0.6C59,100.1,59.5,100.2,60,100.1z
		 M58.3,66.5c0.1,0.5,0.3,1,0.5,1.4c0.3,0.4,0.6,0.8,1,1c0.4,0.3,0.8,0.5,1.3,0.6c0.5,0.1,1,0.1,1.5,0.1c0.5-0.1,1-0.3,1.4-0.5
		c0.4-0.3,0.8-0.6,1-1c0.3-0.4,0.5-0.8,0.6-1.3c0.1-0.5,0.1-1,0.1-1.5c-0.1-0.5-0.3-1-0.5-1.4c-0.3-0.4-0.6-0.7-1-1
		c-0.4-0.3-0.8-0.5-1.3-0.6c-0.5-0.1-1-0.1-1.5-0.1s-1,0.3-1.4,0.5c-0.4,0.3-0.8,0.6-1,1c-0.3,0.4-0.5,0.8-0.6,1.3
		C58.2,65.5,58.2,66,58.3,66.5z M80.8,89.1c1-0.2,1.9-0.5,2.8-1c0.8-0.5,1.5-1.2,2.1-2c0.6-0.8,1-1.6,1.2-2.6
		c0.2-0.9,0.3-1.9,0.1-2.9c-0.2-1-0.5-1.9-1-2.8c-0.5-0.8-1.2-1.5-2-2.1c-0.8-0.6-1.6-1-2.6-1.2c-0.9-0.2-1.9-0.3-2.9-0.1
		c-1,0.2-1.9,0.5-2.8,1c-0.8,0.5-1.5,1.2-2.1,2c-0.6,0.8-1,1.6-1.2,2.6C72.1,81,72.1,82,72.3,83c0.2,1,0.5,1.9,1,2.8
		c0.5,0.8,1.2,1.5,2,2.1c0.8,0.6,1.6,1,2.6,1.2C78.8,89.3,79.8,89.3,80.8,89.1z M94.2,102c-0.1-0.5-0.3-1-0.5-1.4
		c-0.3-0.4-0.6-0.7-1-1c-0.4-0.3-0.8-0.5-1.3-0.6c-0.5-0.1-1-0.1-1.5-0.1c-0.5,0.1-1,0.3-1.4,0.5c-0.4,0.3-0.8,0.6-1,1
		c-0.3,0.4-0.5,0.8-0.6,1.3c-0.1,0.5-0.1,1-0.1,1.5c0.1,0.5,0.3,1,0.5,1.4c0.3,0.4,0.6,0.8,1,1c0.4,0.3,0.8,0.5,1.3,0.6
		c0.5,0.1,1,0.1,1.5,0.1c0.5-0.1,1-0.3,1.4-0.5c0.4-0.3,0.8-0.6,1-1c0.3-0.4,0.5-0.8,0.6-1.3C94.3,103,94.3,102.5,94.2,102z
		 M90,53.8c-0.5,0.1-1,0.3-1.4,0.5c-0.4,0.3-0.8,0.6-1,1c-0.3,0.4-0.5,0.8-0.6,1.3c-0.1,0.5-0.1,1-0.1,1.5c0.1,0.5,0.3,1,0.5,1.4
		c0.3,0.4,0.6,0.8,1,1c0.4,0.3,0.8,0.5,1.3,0.6c0.5,0.1,1,0.1,1.5,0.1s1-0.3,1.4-0.5c0.4-0.3,0.8-0.6,1-1c0.3-0.4,0.5-0.8,0.6-1.3
		c0.1-0.5,0.1-1,0.1-1.5c-0.1-0.5-0.3-1-0.5-1.4c-0.3-0.4-0.6-0.7-1-1c-0.4-0.3-0.8-0.5-1.3-0.6C91,53.7,90.5,53.7,90,53.8z
		 M102.8,85.5c0.5-0.1,1-0.3,1.4-0.5c0.4-0.3,0.8-0.6,1-1c0.3-0.4,0.5-0.8,0.6-1.3c0.1-0.5,0.1-1,0.1-1.5c-0.1-0.5-0.3-1-0.5-1.4
		c-0.3-0.4-0.6-0.7-1-1c-0.4-0.3-0.8-0.5-1.3-0.6c-0.5-0.1-1-0.1-1.5-0.1c-0.5,0.1-1,0.3-1.4,0.5c-0.4,0.3-0.8,0.6-1,1
		c-0.3,0.4-0.5,0.8-0.6,1.3c-0.1,0.5-0.1,1-0.1,1.5c0.1,0.5,0.3,1,0.5,1.4c0.3,0.4,0.6,0.8,1,1c0.4,0.3,0.8,0.5,1.3,0.6
		C101.8,85.6,102.2,85.6,102.8,85.5z"/>
</g>
</svg>
