<?xml version="1.0" encoding="utf-8"?>
<!-- Generator: Adobe Illustrator 21.1.0, SVG Export Plug-In . SVG Version: 6.00 Build 0)  -->
<svg version="1.1" id="Layer_1" xmlns="http://www.w3.org/2000/svg" xmlns:xlink="http://www.w3.org/1999/xlink" x="0px" y="0px"
	 viewBox="0 0 160 160" style="enable-background:new 0 0 160 160;" xml:space="preserve">
<style type="text/css">
	.st0{opacity:0.25;fill:#537191;}
	.st1{fill:#2A3548;}
	.st2{fill:#F25C00;}
</style>
<g>
	<path class="st0" d="M119.8,77c1.1-0.9,2.2-1.8,3.4-2.3c1.3-0.5,2.7-0.9,4.3-0.9h11V44.4H95.7L94,51.8h37.1v14.6h-3.6
		c-2.5,0-4.9,0.5-7.2,1.4c-2.2,0.9-4.1,2.3-5.8,4c-1.6,1.6-2.9,3.6-4,5.8c-0.9,2.2-1.4,4.5-1.4,7s0.5,4.9,1.4,7.2
		c0.9,2.2,2.3,4.1,4,5.8c1.6,1.6,3.6,2.9,5.8,4c2.2,0.9,4.7,1.4,7.2,1.4h3.6v14.6l-39.4,0.2l-5.8,10.1H74.4l-5.8-10.1l-14.2-0.2
		c-1.1,0-1.8-0.4-2.5-1.1c-0.7-0.7-1.1-1.6-1.1-2.5V95.7h-11c-1.4,0-2.9-0.4-4.3-0.9c-1.3-0.5-2.5-1.4-3.4-2.3
		c-1.1-0.9-1.8-2.2-2.3-3.4s-0.9-2.7-0.9-4.3c0-1.4,0.4-2.9,0.9-4.3c0.5-1.3,1.4-2.5,2.3-3.4c1.1-0.9,2.2-1.8,3.4-2.3
		c1.3-0.5,2.7-0.9,4.3-0.9h11V55.4c0-0.9,0.4-1.8,1.1-2.5c0.7-0.7,1.6-1.1,2.5-1.1h14.2l-3.8-7.4H54.4c-1.4,0-2.9,0.4-4.3,0.9
		c-1.3,0.5-2.5,1.4-3.4,2.3c-1.1,1.1-1.8,2.2-2.3,3.4c-0.5,1.3-0.9,2.7-0.9,4.3v11h-3.6c-2.5,0-4.9,0.5-7.2,1.4
		c-2.2,1.1-4.1,2.3-5.8,4s-2.9,3.6-4,5.8c-0.9,2.2-1.4,4.5-1.4,7s0.5,4.9,1.4,7.2c0.9,2.2,2.3,4.1,4,5.8s3.6,2.9,5.8,4
		c2.2,0.9,4.7,1.4,7.2,1.4h3.6v11c0,1.4,0.4,2.9,0.9,4.3c0.5,1.3,1.4,2.5,2.3,3.4c1.1,1.1,2.2,1.8,3.4,2.3c1.3,0.5,2.7,0.9,4.3,0.9
		h10.1l5.8,10.1h20l5.8-10.1h42.5V95.7h-11c-1.4,0-2.9-0.4-4.3-0.9c-1.3-0.5-2.5-1.4-3.4-2.3c-1.1-0.9-1.8-2.2-2.3-3.4
		c-0.5-1.3-0.9-2.7-0.9-4.3c0-1.4,0.4-2.9,0.9-4.3C118,79.2,118.7,77.9,119.8,77z"/>
	<g>
		<g>
			<path class="st1" d="M124.2,75.6c1.2-1,2.4-2,3.8-2.6c1.4-0.6,3-1,4.8-1H145V39.4H97.4l-1.8,8.2h41.2v16.2h-4
				c-2.8,0-5.4,0.6-8,1.6c-2.4,1-4.6,2.6-6.4,4.4s-3.2,4-4.4,6.4c-1,2.4-1.6,5-1.6,7.8s0.6,5.4,1.6,8c1,2.4,2.6,4.6,4.4,6.4
				s4,3.2,6.4,4.4c2.4,1,5.2,1.6,8,1.6h4v16.2L93,120.8L86.6,132H73.8l-6.4-11.2l-15.8-0.2c-1.2,0-2-0.4-2.8-1.2s-1.2-1.8-1.2-2.8
				V96.4H35.4c-1.6,0-3.2-0.4-4.8-1c-1.4-0.6-2.8-1.6-3.8-2.6c-1.2-1-2-2.4-2.6-3.8s-1-3-1-4.8c0-1.6,0.4-3.2,1-4.8
				c0.6-1.4,1.6-2.8,2.6-3.8c1.2-1,2.4-2,3.8-2.6c1.4-0.6,3-1,4.8-1h12.2V51.6c0-1,0.4-2,1.2-2.8s1.8-1.2,2.8-1.2h15.8l-4.2-8.2
				H51.6c-1.6,0-3.2,0.4-4.8,1C45.4,41,44,42,43,43c-1.2,1.2-2,2.4-2.6,3.8s-1,3-1,4.8v12.2h-4c-2.8,0-5.4,0.6-8,1.6
				C25,66.6,22.8,68,21,69.8s-3.2,4-4.4,6.4c-1,2.4-1.6,5-1.6,7.8s0.6,5.4,1.6,8c1,2.4,2.6,4.6,4.4,6.4s4,3.2,6.4,4.4
				c2.4,1,5.2,1.6,8,1.6h4v12.2c0,1.6,0.4,3.2,1,4.8c0.6,1.4,1.6,2.8,2.6,3.8c1.2,1.2,2.4,2,3.8,2.6c1.4,0.6,3,1,4.8,1h11.2
				l6.4,11.2h22.2l6.4-11.2H145V96.4h-12.2c-1.6,0-3.2-0.4-4.8-1c-1.4-0.6-2.8-1.6-3.8-2.6c-1.2-1-2-2.4-2.6-3.8s-1-3-1-4.8
				c0-1.6,0.4-3.2,1-4.8C122.2,78,123,76.6,124.2,75.6z"/>
			<path class="st2" d="M91.2,20h-22l-11,19.2l11,19.2h22.2l11-19.2L91.2,20z M86.6,50.2H73.8L67.4,39l6.4-11.2h12.8L93,39
				L86.6,50.2z"/>
		</g>
	</g>
</g>
</svg>
