<?xml version="1.0" encoding="utf-8"?>
<!-- Generator: Adobe Illustrator 21.1.0, SVG Export Plug-In . SVG Version: 6.00 Build 0)  -->
<svg version="1.1" id="Layer_1" xmlns="http://www.w3.org/2000/svg" xmlns:xlink="http://www.w3.org/1999/xlink" x="0px" y="0px"
	 viewBox="0 0 160 160" style="enable-background:new 0 0 160 160;" xml:space="preserve">
<style type="text/css">
	.st0{fill:#D7DEED;}
	.st1{opacity:0.25;}
	.st2{fill:#537191;}
	.st3{fill:#2A3548;}
	.st4{fill:#F25C00;}
</style>
<polygon class="st0" points="63,24 35.3,51 63,51 "/>
<g class="st1">
	<g>
		<path class="st2" d="M33,134l90.5,0.6L123,22h8v120H33V134z"/>
	</g>
</g>
<g>
	<g>
		<path class="st3" d="M127,18v120H29V50.2L61.3,18H127z M119.4,25.6H66.7v30H36.6v75h82.9L119.4,25.6
			C119.5,25.6,119.4,25.6,119.4,25.6z M41.9,48h17.3V30.8L41.9,48z"/>
	</g>
	<g>
		<path class="st4" d="M109.9,71.8c-0.6-2-1.4-4-2.4-5.8s-2.4-3.4-3.8-5c-1.4-1.4-3.2-2.8-5-3.8c-2-1.2-3.8-2-6-2.6
			c-2-0.6-4.2-0.8-6.6-0.8v24.6h24.7C110.7,76,110.5,73.8,109.9,71.8z"/>
		<path class="st4" d="M80.6,59.2h-1.8c-2.4,0-4.8,0.4-7,1s-4.4,1.6-6.2,2.6c-2,1.2-3.8,2.6-5.4,4.2c-1.6,1.6-3,3.4-4.2,5.4
			s-2,4-2.6,6.2s-1,4.6-1,7s0.4,4.8,1,7S55,97,56,98.8c1.2,2,2.6,3.8,4.2,5.4c1.6,1.6,3.4,3,5.4,4.2s4,2,6.2,2.6s4.6,1,7,1
			c2.6,0,5.2-0.4,7.6-1.2c2.4-0.8,4.8-1.8,6.8-3.2c2.2-1.4,4-3,5.6-5s3-4.2,4-6.6c0.4-1,0.8-2,1-3s0.4-2,0.6-3s0.2-2,0.4-3
			c0-1,0-2,0-3.2H80.6V59.2z M95.9,96.6c-1,1.4-2,2.6-3.2,3.8c-1.2,1.2-2.6,2-4,2.8s-3,1.4-4.6,1.8s-3.4,0.6-5,0.6
			c-1.8,0-3.6-0.2-5.4-0.8c-1.8-0.4-3.4-1.2-4.8-2s-2.8-2-4-3.2c-1.2-1.2-2.2-2.6-3.2-4c-0.8-1.4-1.6-3.2-2-4.8
			c-0.4-1.8-0.8-3.6-0.8-5.4s0.2-3.4,0.6-5c0.4-1.6,1-3.2,1.8-4.6s1.8-2.8,2.8-4c1.2-1.2,2.4-2.2,3.8-3.2s2.8-1.6,4.4-2.2
			c0.6-0.2,1.4-0.4,2-0.6v18v3.4V90h24.5c-0.2,0.8-0.4,1.4-0.6,2.2C97.5,93.8,96.7,95.2,95.9,96.6z"/>
	</g>
</g>
</svg>
