<?xml version="1.0" encoding="utf-8"?>
<!-- Generator: Adobe Illustrator 21.1.0, SVG Export Plug-In . SVG Version: 6.00 Build 0)  -->
<svg version="1.1" id="Layer_1" xmlns="http://www.w3.org/2000/svg" xmlns:xlink="http://www.w3.org/1999/xlink" x="0px" y="0px"
	 viewBox="0 0 160 160" style="enable-background:new 0 0 160 160;" xml:space="preserve">
<style type="text/css">
	.st0{fill:#2A3548;}
	.st1{fill:#F25C00;}
	.st2{fill:#1E2937;}
	.st3{fill:#CC4602;}
	.st4{fill:#D7DEED;}
</style>
<g>
	<g>
		<polygon class="st0" points="145.4,114.1 145.4,42.2 79.9,4.4 14.4,42.2 14.4,114.1 79.9,152 		"/>
		<polygon class="st1" points="14.4,109.5 79.9,147.3 145.4,109.5 145.4,117.8 79.9,155.7 14.4,117.8 		"/>
		<polygon class="st2" points="145.4,114.1 145.4,42.2 79.9,4.4 79.9,152 		"/>
		<polygon class="st3" points="145.4,117.8 145.4,109.5 79.9,147.3 79.9,155.7 		"/>
	</g>
</g>
<g>
	<path class="st2" d="M116,63v41.3H50V63H116z M111.9,99.1V72.5L83,86.9L54.1,72.5v26.6H111.9z"/>
</g>
<polygon class="st0" points="50,64.1 79.6,79.5 110.8,64 110.8,61.4 50,61.3 "/>
<g>
	<path class="st4" d="M113,59v41.3H47V59H113z M108.9,96.1V67.5L80,81.9L51.1,67.5v28.6H108.9z M51.6,63.1L80,77.3l28.4-14.2
		C108.4,63.1,51.6,63.1,51.6,63.1z"/>
</g>
</svg>
