<?xml version="1.0" encoding="utf-8"?>
<!-- Generator: Adobe Illustrator 21.1.0, SVG Export Plug-In . SVG Version: 6.00 Build 0)  -->
<svg version="1.1" id="Layer_1" xmlns="http://www.w3.org/2000/svg" xmlns:xlink="http://www.w3.org/1999/xlink" x="0px" y="0px"
	 viewBox="0 0 160 160" style="enable-background:new 0 0 160 160;" xml:space="preserve">
<style type="text/css">
	.st0{fill:#2A3548;}
	.st1{fill:#F25C00;}
	.st2{fill:#1E2937;}
	.st3{fill:#CC4602;}
	.st4{fill:#D7DEED;}
</style>
<g>
	<g>
		<polygon class="st0" points="145.4,114.1 145.4,42.2 79.9,4.4 14.4,42.2 14.4,114.1 79.9,152 		"/>
		<polygon class="st1" points="14.4,109.5 79.9,147.3 145.4,109.5 145.4,117.8 79.9,155.7 14.4,117.8 		"/>
		<polygon class="st2" points="145.4,114.1 145.4,42.2 79.9,4.4 79.9,152 		"/>
		<polygon class="st3" points="145.4,117.8 145.4,109.5 79.9,147.3 79.9,155.7 		"/>
	</g>
</g>
<g>
	<path class="st2" d="M105.1,57.3v15c0,1.3-0.2,2.5-0.7,3.7c-0.4,1.2-1,2.2-1.8,3.1c-0.8,0.9-1.7,1.7-2.8,2.4
		c-1.1,0.6-2.2,1.1-3.5,1.3c-0.2,1.7-0.7,3.2-1.4,4.7c-0.7,1.5-1.7,2.8-2.8,3.9c-1.1,1.1-2.4,2.1-3.9,2.8c-1.5,0.7-3,1.2-4.7,1.5
		v4.5h12.9v8.6h4.3v4.3H62.3v-4.3h4.3v-8.6h12.9v-4.5c-1.7-0.2-3.2-0.7-4.7-1.5c-1.5-0.7-2.7-1.7-3.9-2.8c-1.1-1.1-2.1-2.5-2.8-3.9
		c-0.7-1.5-1.2-3-1.4-4.7c-1.3-0.2-2.4-0.7-3.5-1.3c-1.1-0.6-2-1.4-2.8-2.4c-0.8-0.9-1.4-2-1.8-3.1c-0.4-1.2-0.7-2.4-0.7-3.7v-15
		h8.6V53h30v4.3H105.1z M62.3,72.3c0,0.7,0.1,1.3,0.3,2c0.2,0.6,0.5,1.2,0.9,1.7c0.4,0.5,0.8,1,1.3,1.4c0.5,0.4,1.1,0.7,1.8,1V61.6
		h-4.3V72.3z M79.6,89.5c1.6,0,3.1-0.3,4.6-0.9c1.4-0.6,2.7-1.4,3.7-2.4c1.1-1,1.9-2.2,2.5-3.6c0.6-1.4,0.9-2.8,0.9-4.4V53.3H67.8
		v24.9c0,1.6,0.3,3,0.9,4.4c0.6,1.4,1.5,2.6,2.5,3.6c1.1,1,2.3,1.8,3.8,2.4C76.4,89.2,77.9,89.5,79.6,89.5z M67.5,100.1v6.9h24.1
		v-6.9H67.5z M100.9,61.6h-4.3v16.7c0.6-0.2,1.2-0.5,1.7-1c0.5-0.4,1-0.9,1.4-1.4c0.4-0.5,0.7-1.1,0.9-1.7c0.2-0.6,0.3-1.3,0.3-2
		V61.6z"/>
</g>
<g>
	<path class="st4" d="M103.1,54.3v15c0,1.3-0.2,2.5-0.7,3.7c-0.4,1.2-1,2.2-1.8,3.1c-0.8,0.9-1.7,1.7-2.8,2.4
		c-1.1,0.6-2.2,1.1-3.5,1.3c-0.2,1.7-0.7,3.2-1.4,4.7c-0.7,1.5-1.7,2.8-2.8,3.9c-1.1,1.1-2.4,2.1-3.9,2.8c-1.5,0.7-3,1.2-4.7,1.5
		v4.5h12.9v8.6h4.3v4.3H60.3v-4.3h4.3v-8.6h12.9v-4.5c-1.7-0.2-3.2-0.7-4.7-1.5c-1.5-0.7-2.7-1.7-3.9-2.8c-1.1-1.1-2.1-2.5-2.8-3.9
		c-0.7-1.5-1.2-3-1.4-4.7c-1.3-0.2-2.4-0.7-3.5-1.3c-1.1-0.6-2-1.4-2.8-2.4c-0.8-0.9-1.4-2-1.8-3.1c-0.4-1.2-0.7-2.4-0.7-3.7v-15
		h8.6V50h30v4.3H103.1z M60.3,69.3c0,0.7,0.1,1.3,0.3,2c0.2,0.6,0.5,1.2,0.9,1.7c0.4,0.5,0.8,1,1.3,1.4c0.5,0.4,1.1,0.7,1.8,1V58.6
		h-4.3V69.3z M79.6,88.6c1.5,0,2.9-0.3,4.2-0.8c1.3-0.6,2.4-1.3,3.4-2.3c1-1,1.7-2.1,2.3-3.4c0.6-1.3,0.9-2.7,0.9-4.2V54.3H68.9
		v23.6c0,1.5,0.3,2.9,0.8,4.2c0.6,1.3,1.3,2.4,2.3,3.4c1,1,2.1,1.7,3.4,2.3C76.7,88.3,78.1,88.6,79.6,88.6z M68.9,101.4v4.3h21.4
		v-4.3H68.9z M98.9,58.6h-4.3v16.7c0.6-0.2,1.2-0.5,1.7-1c0.5-0.4,1-0.9,1.4-1.4c0.4-0.5,0.7-1.1,0.9-1.7c0.2-0.6,0.3-1.3,0.3-2
		V58.6z"/>
</g>
</svg>
