<?xml version="1.0" encoding="utf-8"?>
<!-- Generator: Adobe Illustrator 21.1.0, SVG Export Plug-In . SVG Version: 6.00 Build 0)  -->
<svg version="1.1" id="Layer_1" xmlns="http://www.w3.org/2000/svg" xmlns:xlink="http://www.w3.org/1999/xlink" x="0px" y="0px"
	 viewBox="0 0 160 160" style="enable-background:new 0 0 160 160;" xml:space="preserve">
<style type="text/css">
	.st0{opacity:0.25;}
	.st1{fill:#537191;}
	.st2{fill:#2A3548;}
	.st3{fill:#F25C00;}
</style>
<g>
	<g class="st0">
		<g>
			<path class="st1" d="M52.4,95.2H41.8V84.5h10.6V95.2z M52.4,113H41.8v-10.6h10.6V113z M70.3,77.2H59.7V66.5h10.6V77.2z M70.3,113
				H59.7v-10.6h10.6V113z M88.1,77.2H77.5V66.5h10.6V77.2z M88.1,95.2H77.5V84.5h10.6V95.2z M88.1,113H77.5v-10.6h10.6V113z
				 M105.7,77.2H95.1V66.5h10.6V77.2z M105.7,95.2H95.1V84.5h10.6V95.2z"/>
		</g>
		<g>
			<path class="st1" d="M85.9,124.7H32.2V56.7h85.3V93c0.2,0,0.2,0,0.4,0c2.2,0,4.6,0.2,6.6,0.6V31.7L110.3,46L25,46.3v85.5h61.5
				c-0.4-2.2-0.6-4.4-0.6-6.6C85.9,124.9,85.9,124.9,85.9,124.7z"/>
		</g>
	</g>
	<g>
		<g>
			<path class="st2" d="M49.4,92.2H38.8V81.5h10.6V92.2z M49.4,110H38.8V99.4h10.6V110z M67.3,74.2H56.7V63.5h10.6V74.2z M67.3,110
				H56.7V99.4h10.6V110z M85.1,74.2H74.5V63.5h10.6V74.2z M85.1,92.2H74.5V81.5h10.6V92.2z M85.1,110H74.5V99.4h10.6V110z
				 M102.7,74.2H92.1V63.5h10.6V74.2z M102.7,92.2H92.1V81.5h10.6V92.2z"/>
		</g>
		<g>
			<path class="st3" d="M137,111.4c-1.4-3-3.2-5.6-5.4-8c-2.2-2.2-4.8-4-8-5.4c-3-1.4-6.2-2-9.8-2c-3.4,0-6.6,0.6-9.8,2
				c-3,1.4-5.6,3.2-8,5.4c-2.2,2.2-4,4.8-5.4,8c-1.4,3-2,6.2-2,9.8c0,3.4,0.6,6.6,2,9.8c1.4,3,3.2,5.6,5.4,8c2.2,2.2,4.8,4,8,5.4
				c3,1.4,6.2,2,9.8,2c3.4,0,6.6-0.6,9.8-2c3-1.4,5.6-3.2,8-5.4c2.2-2.2,4-4.8,5.4-8c1.4-3,2-6.2,2-9.8
				C139,117.7,138.2,114.5,137,111.4z M131.8,128.8c-1,2.4-2.4,4.4-4.2,6.2s-3.8,3.2-6.2,4.2c-2.4,1-4.8,1.6-7.6,1.6
				c-2.6,0-5.2-0.6-7.6-1.6c-2.4-1-4.4-2.4-6.2-4.2c-1.8-1.8-3.2-3.8-4.2-6.2c-1-2.4-1.6-4.8-1.6-7.6c0-2.6,0.6-5.2,1.6-7.6
				s2.4-4.4,4.2-6.2c1.8-1.8,3.8-3.2,6.2-4.2c2.4-1,4.8-1.6,7.6-1.6c2.6,0,5.2,0.6,7.6,1.6c2.4,1,4.4,2.4,6.2,4.2
				c1.8,1.8,3.2,3.8,4.2,6.2c1,2.4,1.6,4.8,1.6,7.6C133.4,123.9,132.8,126.4,131.8,128.8z"/>
			<polygon class="st3" points="116.4,107.4 111.2,107.4 111.2,123.9 120,132.8 123.6,129 116.4,121.7 			"/>
		</g>
		<g>
			<path class="st2" d="M81.9,120.7H28.2V52.7h85.3V89c0.2,0,0.2,0,0.4,0c2.2,0,4.6,0.2,6.6,0.6V27.7L106.3,42V27.7v-8.8
				c0-1.4-0.6-2.8-1.6-3.8s-2.2-1.6-3.6-1.6s-2.8,0.6-3.8,1.6s-1.6,2.2-1.6,3.8v8.8H60.1L45.8,42V27.7v-8.8c0-1.4-0.6-2.8-1.6-3.8
				s-2.2-1.6-3.8-1.6c-1.4,0-2.8,0.6-3.8,1.6S35,17.2,35,18.8v8.8H21v100.1h61.5c-0.4-2.2-0.6-4.4-0.6-6.6
				C81.9,120.9,81.9,120.9,81.9,120.7z"/>
		</g>
		<rect x="56.7" y="81.3" class="st3" width="10.6" height="10.6"/>
	</g>
</g>
</svg>
