<?xml version="1.0" encoding="utf-8"?>
<!-- Generator: Adobe Illustrator 21.1.0, SVG Export Plug-In . SVG Version: 6.00 Build 0)  -->
<svg version="1.1" id="Layer_1" xmlns="http://www.w3.org/2000/svg" xmlns:xlink="http://www.w3.org/1999/xlink" x="0px" y="0px"
	 viewBox="0 0 64 64" style="enable-background:new 0 0 64 64;" xml:space="preserve">
<style type="text/css">
	.st0{opacity:0.25;enable-background:new    ;}
	.st1{fill:#547190;}
	.st2{fill:#F05E22;}
	.st3{fill:#2A3548;}
</style>
<g class="st0">
	<polygon class="st1" points="46.1,10.5 46.1,14.3 52.7,14.3 52.7,59.3 15.2,59.3 15.2,14.3 18.4,14.3 18.4,10.5 11.4,10.5 11.4,63 
		56.4,63 56.4,10.5 	"/>
</g>
<polygon class="st2" points="32.9,53.6 25,32.7 21.1,41.7 11.6,41.7 11.6,37.7 18.5,37.7 25.2,22.1 33.3,43.5 40.8,28.2 46,37.6 
	51.6,37.6 51.6,41.6 43.6,41.6 41,36.9 "/>
<path class="st3" d="M54.4,8.5h-15c0-1-0.2-2-0.6-2.9s-0.9-1.7-1.6-2.4S35.8,2,34.9,1.6S33,1,31.9,1c-1,0-2,0.2-2.9,0.6
	s-1.7,0.9-2.4,1.6S25.4,4.7,25,5.6s-0.6,1.9-0.6,2.9h-15V61h45V8.5z M20.7,12.3h7.5V8.5c0-0.5,0.1-1,0.3-1.5s0.5-0.8,0.8-1.2
	s0.7-0.6,1.2-0.8s0.9-0.3,1.5-0.3c0.5,0,1,0.1,1.5,0.3s0.8,0.5,1.2,0.8s0.6,0.7,0.8,1.2s0.3,0.9,0.3,1.5v3.8h7.5V16H20.7V12.3z
	 M13.2,57.3v-45h3.7v7.5h30v-7.5h3.8v45H13.2z"/>
</svg>
