<?xml version="1.0" encoding="utf-8"?>
<!-- Generator: Adobe Illustrator 21.1.0, SVG Export Plug-In . SVG Version: 6.00 Build 0)  -->
<svg version="1.1" id="Layer_1" xmlns="http://www.w3.org/2000/svg" xmlns:xlink="http://www.w3.org/1999/xlink" x="0px" y="0px"
	 viewBox="0 0 160 160" style="enable-background:new 0 0 160 160;" xml:space="preserve">
<style type="text/css">
	.st0{opacity:0.25;}
	.st1{fill:#537191;}
	.st2{fill:#2A3548;}
</style>
<g>
	<g class="st0">
		<g>
			<path class="st1" d="M122.3,33.7v27c0,2.3-0.4,4.5-1.3,6.6c-0.7,2.2-1.8,4-3.2,5.6s-3.1,3.1-5,4.3c-2,1.1-4,2-6.3,2.3
				c-0.4,3.1-1.3,5.8-2.5,8.4c-1.3,2.7-3.1,5-5,7c-2,2-4.3,3.8-7,5s-5.4,2.2-8.4,2.7v8.1h23.1v15.5h7.7v7.7H45.8v-7.7h7.7v-15.5h23
				v-8.1c-3.1-0.4-5.7-1.3-8.4-2.7c-2.7-1.3-4.8-3.1-7-5c-2-2-3.8-4.5-5-7c-1.3-2.7-2.2-5.4-2.5-8.4c-2.3-0.4-4.3-1.3-6.3-2.3
				c-2-1.1-3.6-2.5-5-4.3c-1.4-1.6-2.5-3.6-3.2-5.6c-0.7-2.2-1.3-4.3-1.3-6.6v-27h15.4V26h53.7v7.7H122.3z M45.8,60.6
				c0,1.3,0.2,2.3,0.5,3.6c0.4,1.1,0.9,2.2,1.6,3.1c0.7,0.9,1.4,1.8,2.3,2.5c0.9,0.7,2,1.3,3.2,1.8V41.5h-7.7
				C45.8,41.5,45.8,60.6,45.8,60.6z M99.7,47.8v-14H61.1V76c0,2.7,0.5,5.2,1.4,7.5C69.4,90.4,99.7,47.8,99.7,47.8z M114.8,41.5h-7.7
				v29.9c1.1-0.4,2.2-0.9,3.1-1.8c0.9-0.7,1.8-1.6,2.5-2.5c0.7-0.9,1.3-2,1.6-3.1c0.4-1.1,0.5-2.3,0.5-3.6
				C114.8,60.4,114.8,41.5,114.8,41.5z"/>
		</g>
	</g>
	<g>
		<g>
			<path class="st2" d="M127,28.6v30c0,2.6-0.4,5-1.4,7.4c-0.8,2.4-2,4.4-3.6,6.2c-1.6,1.8-3.4,3.4-5.6,4.8c-2.2,1.2-4.4,2.2-7,2.6
				c-0.4,3.4-1.4,6.4-2.8,9.4c-1.4,3-3.4,5.6-5.6,7.8c-2.2,2.2-4.8,4.2-7.8,5.6c-3,1.4-6,2.4-9.4,3v9h25.6v17.2h8.6v8.6H42v-8.6h8.6
				v-17.2h25.5v-9c-3.4-0.4-6.4-1.4-9.4-3c-3-1.4-5.4-3.4-7.8-5.6c-2.2-2.2-4.2-5-5.6-7.8c-1.4-3-2.4-6-2.8-9.4
				c-2.6-0.4-4.8-1.4-7-2.6s-4-2.8-5.6-4.8c-1.6-1.8-2.8-4-3.6-6.2c-0.8-2.4-1.4-4.8-1.4-7.4v-30h17.1V20h59.7v8.6H127z M42,58.4
				c0,1.4,0.2,2.6,0.6,4c0.4,1.2,1,2.4,1.8,3.4s1.6,2,2.6,2.8c1,0.8,2.2,1.4,3.6,2V37.2H42C42,37.2,42,58.4,42,58.4z M80.3,97
				c3,0,5.8-0.6,8.4-1.6c2.6-1.2,4.8-2.6,6.8-4.6c2-2,3.4-4.2,4.6-6.8c1.2-2.6,1.8-5.4,1.8-8.4v-47H59v47c0,3,0.6,5.8,1.6,8.4
				c1.2,2.6,2.6,4.8,4.6,6.8c2,2,4.2,3.4,6.8,4.6C74.5,96.4,77.3,97,80.3,97z M59,122.4v8.6h42.5v-8.6H59z M118.7,37.2h-8.6v33.2
				c1.2-0.4,2.4-1,3.4-2c1-0.8,2-1.8,2.8-2.8c0.8-1,1.4-2.2,1.8-3.4c0.4-1.2,0.6-2.6,0.6-4C118.7,58.2,118.7,37.2,118.7,37.2z"/>
		</g>
	</g>
</g>
</svg>
