<?xml version="1.0" encoding="utf-8"?>
<!-- Generator: Adobe Illustrator 21.1.0, SVG Export Plug-In . SVG Version: 6.00 Build 0)  -->
<svg version="1.1" id="Layer_1" xmlns="http://www.w3.org/2000/svg" xmlns:xlink="http://www.w3.org/1999/xlink" x="0px" y="0px"
	 viewBox="0 0 160 160" style="enable-background:new 0 0 160 160;" xml:space="preserve">
<style type="text/css">
	.st0{opacity:0.25;}
	.st1{fill:#537191;}
	.st2{fill:#2A3548;}
	.st3{fill:#F25C00;}
</style>
<g>
	<g class="st0">
		<path class="st1" d="M31.2,83c0,5.2,0.8,10.2,2.4,15c1.6,4.8,3.8,9.2,6.6,13.4c2.8,4,6.2,7.6,10.2,10.8s8.4,5.6,13.2,7.4l-2.8,7.8
			c-5.6-2-10.8-5-15.5-8.6s-8.6-7.8-12-12.6s-5.8-10-7.6-15.6C24,94.8,23,89,23,83c0-4.6,0.6-9.2,1.6-13.6s2.6-8.6,4.8-12.6
			c2-4,4.6-7.6,7.4-11c3-3.4,6.2-6.4,9.8-9.2C50.2,34,54,31.8,58.2,30c4.2-1.8,8.6-3,13.2-3.8L62.7,17h11.6L91,33.6H81
			c-4.6,0-9,0.6-13.2,1.8s-8.2,2.8-11.8,5s-7,4.8-10,7.8s-5.6,6.4-7.8,10s-3.8,7.6-5,11.8C31.8,74,31.2,78.4,31.2,83z M139,83
			c0,4.6-0.6,9.2-1.6,13.6s-2.6,8.6-4.8,12.6c-2,4-4.6,7.6-7.4,11c-3,3.4-6.2,6.4-9.8,9.2c-3.6,2.6-7.4,4.8-11.6,6.8
			c-4.2,1.8-8.6,3-13.2,3.8l8.8,9H87.6L71,132.4h10c4.6,0,9-0.6,13.2-1.8s8.2-2.8,11.8-5s7-4.8,10-7.8s5.6-6.4,7.8-10
			s3.8-7.6,5-11.8c1.2-4.2,1.8-8.6,1.8-13.2c0-5.2-0.8-10.2-2.4-15c-1.6-4.8-3.8-9.2-6.6-13.4S115.3,47,111.3,44
			c-4-3.2-8.4-5.6-13.2-7.4l2.8-7.8c5.6,2,10.8,5,15.5,8.6c4.6,3.6,8.6,7.8,12,12.6c3.4,4.8,5.8,10,7.6,15.6
			C137.8,71.2,139,77,139,83z"/>
	</g>
	<g>
		<g>
			<path class="st2" d="M29.2,77c0,5.2,0.8,10.2,2.4,15s3.8,9.2,6.6,13.4c2.8,4,6.2,7.6,10.2,10.8s8.4,5.6,13.2,7.4l-2.8,7.8
				c-5.6-2-10.8-5-15.5-8.6s-8.6-7.8-12-12.6s-5.8-10-7.6-15.6C22,88.8,21,83,21,77c0-4.6,0.6-9.2,1.6-13.6s2.6-8.6,4.8-12.6
				c2-4,4.6-7.6,7.4-11c3-3.4,6.2-6.4,9.8-9.2C48.2,28,52,25.8,56.2,24c4.2-1.8,8.6-3,13.2-3.8L60.7,11h11.6L89,27.6H79
				c-4.6,0-9,0.6-13.2,1.8c-4.2,1.2-8.2,2.8-11.8,5s-7,4.8-10,7.8s-5.6,6.4-7.8,10s-3.8,7.6-5,11.8C29.8,68,29.2,72.4,29.2,77z
				 M137,77c0,4.6-0.6,9.2-1.6,13.6s-2.6,8.6-4.8,12.6c-2,4-4.6,7.6-7.4,11c-3,3.4-6.2,6.4-9.8,9.2c-3.6,2.6-7.4,4.8-11.6,6.8
				c-4.2,1.8-8.6,3-13.2,3.8l8.8,9H85.6L69,126.4h10c4.6,0,9-0.6,13.2-1.8s8.2-2.8,11.8-5s7-4.8,10-7.8s5.6-6.4,7.8-10
				s3.8-7.6,5-11.8c1.2-4.2,1.8-8.6,1.8-13.2c0-5.2-0.8-10.2-2.4-15s-3.8-9.2-6.6-13.4c-2.8-4.2-6.4-7.4-10.4-10.4
				c-4-3.2-8.4-5.6-13.2-7.4l2.8-7.8c5.6,2,10.8,5,15.5,8.6c4.6,3.6,8.6,7.8,12,12.6s5.8,10,7.6,15.6C135.8,65.2,137,71,137,77z"/>
		</g>
		<path class="st3" d="M96.3,85.6c-0.8-1.8-2-3.2-3.4-4.6s-3-2.6-4.6-3.6c-1.8-1-3.4-2-5.2-3V52.8c1.4,0.4,2.8,1.2,3.8,2
			c1.2,1,2.2,2,3.2,3l6.4-5.2c-1.8-2.2-3.8-3.8-6-5.4c-2.2-1.4-4.8-2.4-7.4-3v-8.6h-8.2v8.8c-2.2,0.4-4.2,1.2-5.8,2.4
			c-1.8,1.2-3.2,2.6-4.6,4c-1.2,1.6-2.2,3.4-3,5.4s-1,4-1,6.2c0,2.2,0.4,4.2,1.2,5.8c0.8,1.8,2,3.2,3.4,4.6c1.4,1.4,3,2.6,4.6,3.6
			c1.8,1,3.4,2,5.2,3V101c-1.4-0.4-2.8-1.2-3.8-2c-1.2-1-2.2-2-3.2-3l-6.4,5.2c1.8,2.2,3.8,3.8,6,5.4c2.2,1.4,4.8,2.4,7.4,3v8.6H83
			v-8.8c2.2-0.4,4-1.2,5.8-2.4c1.8-1.2,3.2-2.6,4.6-4.2c1.2-1.6,2.2-3.4,3-5.4s1-4,1-6.2C97.7,89.2,97.1,87.2,96.3,85.6z M74.8,70.2
			c-0.6-0.4-1.4-0.8-2-1.4c-0.8-0.6-1.4-1.2-2-1.8c-0.6-0.6-1.2-1.4-1.6-2.2c-0.4-0.8-0.6-1.6-0.6-2.4c0-2,0.6-4,1.6-5.6
			c1.2-1.6,2.6-3,4.6-3.8V70.2z M87.6,97c-1.2,1.6-2.6,3-4.4,3.8V83.6c0.6,0.4,1.4,0.8,2,1.4c0.8,0.6,1.4,1.2,2,1.8
			c0.6,0.6,1.2,1.4,1.6,2.2c0.4,0.8,0.6,1.6,0.6,2.4C89.2,93.6,88.6,95.4,87.6,97z"/>
	</g>
</g>
</svg>
