<?xml version="1.0" encoding="utf-8"?>
<!-- Generator: Adobe Illustrator 22.0.1, SVG Export Plug-In . SVG Version: 6.00 Build 0)  -->
<svg version="1.1" id="レイヤー_1" xmlns="http://www.w3.org/2000/svg" xmlns:xlink="http://www.w3.org/1999/xlink" x="0px"
	 y="0px" viewBox="0 0 660 360" style="enable-background:new 0 0 660 360;" xml:space="preserve">
<style type="text/css">
	.st0{clip-path:url(#SVGID_2_);}
	.st1{clip-path:url(#SVGID_4_);fill:#00538B;}
	.st2{clip-path:url(#SVGID_6_);fill:url(#SVGID_7_);}
</style>
<g>
	<g>
		<defs>
			<rect id="SVGID_1_" x="18.1" y="-261.1" width="623.8" height="882.2"/>
		</defs>
		<clipPath id="SVGID_2_">
			<use xlink:href="#SVGID_1_"  style="overflow:visible;"/>
		</clipPath>
		<g class="st0">
			<defs>
				<rect id="SVGID_3_" x="18.1" y="-261.1" width="623.8" height="882.2"/>
			</defs>
			<clipPath id="SVGID_4_">
				<use xlink:href="#SVGID_3_"  style="overflow:visible;"/>
			</clipPath>
			<path class="st1" d="M252.1,225.9h11.1v-21.6c2.3,0.9,5.2,1.4,8.3,1.4c15.2,0,23.8-9.8,23.8-26.7c0-16.3-7.6-25.1-24.9-25.1
				c-6.5,0-14,1.3-18.3,3V225.9z M284.2,179.7c0,10.3-2.7,15.5-13.2,15.5c-4.1,0-6.6-0.8-7.8-1.6v-28.2c2.4-0.9,5.3-1.1,7.7-1.1
				C280.9,164.3,284.2,168.4,284.2,179.7"/>
			<path class="st1" d="M304,204.6h11.1v-39c2-0.6,6-1.2,10.9-1.2c6.1,0,10.3,2,10.3,9.5v30.8h11v-30.8c0-14.8-8.3-19.9-20.7-19.9
				c-4.1,0-8.1,0.4-11.4,1.4v-21.1H304V204.6z"/>
			<path class="st1" d="M390.9,179.7c0,9.5-2.1,15.5-12,15.5c-9.8,0-12-6-12-15.5c0-9.5,2.2-15.4,12-15.4
				C388.8,164.3,390.9,170.3,390.9,179.7 M379,205.7c15.6,0,23-10.3,23-26c0-16.3-6.8-25.9-23-25.9c-15.5,0-23.1,10.2-23.1,25.9
				C355.8,196.1,362.8,205.7,379,205.7"/>
			<path class="st1" d="M410.7,186.9c0,14.2,7.7,18.7,18.5,18.7c4.7,0,9-0.8,12.4-2.2l-1.7-10.5c-2.6,1.3-6.7,2.2-10.8,2.2
				c-4.4,0-7.3-2-7.3-8.1v-21.6h17.9v-10.5h-17.9v-13.1h-11.1V186.9z"/>
			<path class="st1" d="M481.3,179.7c0,9.5-2.1,15.5-12,15.5c-9.8,0-12-6-12-15.5c0-9.5,2.2-15.4,12-15.4
				C479.2,164.3,481.3,170.3,481.3,179.7 M469.3,205.7c15.6,0,23-10.3,23-26c0-16.3-6.8-25.9-23-25.9c-15.5,0-23.1,10.2-23.1,25.9
				C446.2,196.1,453.1,205.7,469.3,205.7"/>
			<path class="st1" d="M501,204.6h11.1v-39c2.6-0.7,6.3-1.2,10.9-1.2c6.1,0,10.3,2,10.3,9.5v30.8h11v-31.1c0-14.1-7.7-19.6-21-19.6
				c-7.4,0-16.7,1.1-22.1,3.2V204.6z"/>
		</g>
		<g class="st0">
			<defs>
				<path id="SVGID_5_" d="M171.7,212.3l-2.5,25.8c2.5,0.2,5,0.2,7.5,0l-2.5-25.8C173.4,212.3,172.6,212.3,171.7,212.3 M157.9,236.2
					c2.4,0.6,4.9,1.1,7.3,1.5l2.6-25.7c-0.8-0.1-1.7-0.3-2.5-0.5L157.9,236.2z M178.1,211.9l2.6,25.7c2.5-0.3,4.9-0.8,7.4-1.5
					l-7.5-24.8C179.8,211.6,178.9,211.8,178.1,211.9 M147.2,232.2c2.3,1.1,4.6,2.1,6.9,2.9l7.6-24.7c-0.8-0.3-1.6-0.6-2.3-1
					L147.2,232.2z M184.3,210.3l7.6,24.7c2.4-0.8,4.7-1.8,6.9-2.9l-12.1-22.9C185.9,209.7,185.1,210,184.3,210.3 M137.5,226.2
					c2,1.5,4.1,2.9,6.2,4.2l12.3-22.8c-0.7-0.4-1.4-0.9-2.1-1.4L137.5,226.2z M190,207.5l12.3,22.8c2.1-1.2,4.2-2.6,6.2-4.2
					l-16.4-20C191.5,206.6,190.8,207.1,190,207.5 M129.1,218.3c0.8,0.9,1.7,1.8,2.6,2.7c0.9,0.9,1.8,1.7,2.7,2.6l16.5-20
					c-0.3-0.3-0.6-0.6-0.9-0.9c-0.3-0.3-0.6-0.6-0.9-0.9L129.1,218.3z M196,202.8c-0.3,0.3-0.6,0.6-0.9,0.9l16.5,20
					c0.9-0.8,1.8-1.7,2.7-2.6c0.9-0.9,1.7-1.8,2.6-2.7l-20-16.5C196.6,202.2,196.3,202.5,196,202.8 M122.4,209
					c1.2,2.1,2.6,4.2,4.2,6.2l20-16.4c-0.5-0.7-1-1.4-1.4-2.1L122.4,209z M199.4,198.9l20,16.4c1.5-2,2.9-4.1,4.2-6.2l-22.8-12.3
					C200.3,197.5,199.9,198.2,199.4,198.9 M117.6,198.6c0.8,2.4,1.8,4.7,2.9,6.9l22.9-12.1c-0.4-0.8-0.7-1.6-1-2.3L117.6,198.6z
					 M202.6,193.4l22.9,12.1c1.1-2.3,2.1-4.6,2.9-6.9l-24.7-7.6C203.3,191.8,203,192.6,202.6,193.4 M115,187.4
					c0.3,2.5,0.8,4.9,1.5,7.3l24.8-7.5c-0.2-0.8-0.4-1.7-0.5-2.5L115,187.4z M204.7,187.3l24.8,7.5c0.6-2.4,1.1-4.9,1.5-7.3
					l-25.7-2.6C205.1,185.7,204.9,186.5,204.7,187.3 M114.7,183.5l25.8-2.5c0-0.8,0-1.7,0-2.5l-25.8-2.5
					C114.5,178.5,114.5,181,114.7,183.5 M205.6,178.5c0,0.8,0,1.7,0,2.5l25.8,2.5c0.2-2.5,0.2-5,0-7.5L205.6,178.5z M115,172
					l25.7,2.6c0.1-0.8,0.3-1.7,0.5-2.5l-24.8-7.5C115.9,167.1,115.4,169.5,115,172 M204.7,172.1c0.2,0.8,0.4,1.7,0.5,2.5l25.7-2.6
					c-0.3-2.5-0.8-4.9-1.5-7.4L204.7,172.1z M202.6,166.1c0.4,0.8,0.7,1.6,1,2.3l24.7-7.6c-0.8-2.4-1.8-4.7-2.9-6.9L202.6,166.1z
					 M117.7,160.7l24.7,7.7c0.3-0.8,0.6-1.6,1-2.3l-22.8-12.2C119.5,156,118.5,158.3,117.7,160.7 M122.4,150.4l22.8,12.3
					c0.4-0.7,0.9-1.4,1.4-2.1l-20-16.4C125,146.2,123.7,148.2,122.4,150.4 M199.3,160.5c0.5,0.7,1,1.4,1.4,2.1l22.8-12.3
					c-1.2-2.1-2.6-4.2-4.2-6.2L199.3,160.5z M131.6,138.4c-0.9,0.9-1.7,1.8-2.6,2.7l20,16.5c0.3-0.3,0.6-0.6,0.9-0.9
					c0.3-0.3,0.6-0.6,0.9-0.9l-16.5-20C133.4,136.6,132.5,137.5,131.6,138.4 M195.1,155.8c0.3,0.3,0.6,0.6,0.9,0.9
					c0.3,0.3,0.6,0.6,0.9,0.9l20-16.5c-0.8-0.9-1.7-1.8-2.6-2.7c-0.9-0.9-1.8-1.7-2.7-2.6L195.1,155.8z M137.5,133.3l16.4,20
					c0.7-0.5,1.4-1,2.1-1.4l-12.3-22.8C141.5,130.4,139.5,131.8,137.5,133.3 M190,151.9c0.7,0.4,1.4,0.9,2.1,1.4l16.4-20.1
					c-2-1.5-4.1-2.9-6.2-4.2L190,151.9z M184.3,149.1c0.8,0.3,1.6,0.6,2.3,1l12.2-22.9c-2.3-1.1-4.6-2.1-6.9-2.9L184.3,149.1z
					 M147.2,127.2l12.1,22.9c0.8-0.4,1.6-0.7,2.3-1l-7.5-24.8C151.8,125.2,149.5,126.1,147.2,127.2 M157.9,123.2l7.5,24.8
					c0.8-0.2,1.7-0.4,2.5-0.5l-2.6-25.7C162.8,122.1,160.3,122.6,157.9,123.2 M178.1,147.5c0.8,0.1,1.7,0.3,2.5,0.5l7.5-24.8
					c-2.4-0.6-4.9-1.1-7.3-1.5L178.1,147.5z M169.2,121.4l2.5,25.8c0.8,0,1.7,0,2.5,0l2.5-25.8c-1.2-0.1-2.5-0.1-3.7-0.1
					C171.7,121.3,170.5,121.3,169.2,121.4"/>
			</defs>
			<clipPath id="SVGID_6_">
				<use xlink:href="#SVGID_5_"  style="overflow:visible;"/>
			</clipPath>
			
				<linearGradient id="SVGID_7_" gradientUnits="userSpaceOnUse" x1="4.5164" y1="-2.9037" x2="5.5643" y2="-2.9037" gradientTransform="matrix(64.0114 91.4178 91.4178 -64.0114 115.7868 -466.9166)">
				<stop  offset="0" style="stop-color:#6EC9EE"/>
				<stop  offset="0.1" style="stop-color:#6EC9EE"/>
				<stop  offset="0.196" style="stop-color:#68C2E9"/>
				<stop  offset="0.3528" style="stop-color:#56B0DA"/>
				<stop  offset="0.5509" style="stop-color:#3893C2"/>
				<stop  offset="0.7802" style="stop-color:#006EA3"/>
				<stop  offset="0.95" style="stop-color:#00528B"/>
				<stop  offset="1" style="stop-color:#00528B"/>
			</linearGradient>
			<polygon class="st2" points="193,66.3 286.4,199.7 153,293.2 59.5,159.7 			"/>
		</g>
	</g>
</g>
</svg>
