<?xml version="1.0" encoding="utf-8"?>
<!-- Generator: Adobe Illustrator 21.1.0, SVG Export Plug-In . SVG Version: 6.00 Build 0)  -->
<svg version="1.1" id="Layer_1" xmlns="http://www.w3.org/2000/svg" xmlns:xlink="http://www.w3.org/1999/xlink" x="0px" y="0px"
	 viewBox="0 0 160 160" style="enable-background:new 0 0 160 160;" xml:space="preserve">
<style type="text/css">
	.st0{opacity:0.25;fill:#537191;enable-background:new    ;}
	.st1{fill:#F25C00;}
	.st2{fill:#2A3548;}
</style>
<g>
	<path class="st0" d="M120.3,118.6V70.2c0-3.6-0.4-7.2-1.4-10.6s-2.4-6.6-4-9.6c-1.8-3-3.8-5.6-6.2-8.2c-2.4-2.4-5.2-4.6-8.3-6.2
		c-3-1.8-6.2-3-9.7-4c-1.7-0.8-3.6-1-5.6-1.4v-2.6c0-2.8-2.2-5-5-5h-0.2c-2.8,0-5,2.2-5,5v2.6c-2,0.2-3.8,0.6-5.6,1.2
		c-3.4,1-6.6,2.4-9.7,4c-3,1.8-5.6,3.8-8.3,6.2c-2.4,2.4-4.6,5.2-6.2,8.2c-1.8,3-3,6.2-4,9.6c-1,3.4-1.4,7-1.4,10.6v48.5h-4v8H64
		c0,2.2,0.4,4.4,1.2,6.2c0.8,2,2,3.6,3.4,5.2c1.4,1.4,3.2,2.6,5.2,3.4c2,0.8,4,1.2,6.2,1.2s4.4-0.4,6.2-1.2c2-0.8,3.6-2,5.2-3.4
		c1.4-1.4,2.6-3.2,3.4-5.2s1.2-4,1.2-6.2h28.5v-8L120.3,118.6L120.3,118.6L120.3,118.6z M47.1,118.6V70.2c0-4.4,0.7-8.6,2.4-12.6
		c1.5-3.8,3.7-7.4,6.4-10.2c2.8-3,5.9-5.2,9.5-7c3.5-1.6,7.4-2.6,11.7-2.6c4,0,8,0.8,11.7,2.6c3.5,1.6,6.8,4,9.5,7
		c2.8,3,4.8,6.4,6.4,10.2c1.5,3.8,2.4,8,2.4,12.6v48.5L47.1,118.6z"/>
	<path class="st1" d="M88.5,124.6c-0.5,1.2-1.2,2.1-2.1,3c-0.9,0.9-1.9,1.6-3,2.1s-2.3,0.7-3.7,0.7c-1.4,0-2.6-0.2-3.7-0.7
		c-1.2-0.5-2.1-1.2-3-2.1c-0.9-0.9-1.6-1.9-2.1-3s-0.7-2.3-0.7-3.7h18.8C89.2,122.3,88.9,123.5,88.5,124.6z"/>
	<path class="st2" d="M120.3,113.6V65.2c0-3.6-0.4-7.2-1.4-10.6c-1-3.4-2.4-6.6-4-9.6c-1.8-3-3.8-5.6-6.2-8.2
		c-2.4-2.4-5.2-4.6-8.3-6.2c-3-1.8-6.2-3-9.7-4c-1.7-0.8-3.6-1-5.6-1.4v-2.6c0-2.8-2.2-5-5-5h-0.2c-2.8,0-5,2.2-5,5v2.6
		c-2,0.2-3.8,0.6-5.6,1.2c-3.4,1-6.6,2.4-9.7,4c-3,1.8-5.6,3.8-8.3,6.2c-2.4,2.4-4.6,5.2-6.2,8.2c-1.8,3-3,6.2-4,9.6
		s-1.4,7-1.4,10.6v48.5h-8v8H64c0,2.2,0.4,4.4,1.2,6.2c0.8,2,2,3.6,3.4,5.2c1.4,1.4,3.2,2.6,5.2,3.4c2,0.8,4,1.2,6.2,1.2
		s4.4-0.4,6.2-1.2c2-0.8,3.6-2,5.2-3.4c1.4-1.4,2.6-3.2,3.4-5.2s1.2-4,1.2-6.2h32.5v-8L120.3,113.6L120.3,113.6L120.3,113.6z
		 M87.2,124.8c-0.4,1-1,1.8-1.8,2.6s-1.6,1.4-2.6,1.8s-2,0.6-3.2,0.6s-2.2-0.2-3.2-0.6c-1-0.4-1.8-1-2.6-1.8
		c-0.8-0.8-1.4-1.6-1.8-2.6s-0.6-2-0.6-3.2h16.1C87.8,122.8,87.6,123.8,87.2,124.8z M112.1,113.6h-65V65.2c0-4.4,0.8-8.6,2.6-12.6
		c1.6-3.8,4-7.4,7-10.2c3-3,6.4-5.2,10.3-7c3.8-1.6,8-2.6,12.7-2.6c4.4,0,8.7,0.8,12.7,2.6c3.8,1.6,7.4,4,10.3,7c3,3,5.2,6.4,7,10.2
		c1.6,3.8,2.6,8,2.6,12.6v48.5h-0.4v-0.1H112.1z"/>
</g>
</svg>
