<?xml version="1.0" encoding="utf-8"?>
<!-- Generator: Adobe Illustrator 21.1.0, SVG Export Plug-In . SVG Version: 6.00 Build 0)  -->
<svg version="1.1" id="Layer_1" xmlns="http://www.w3.org/2000/svg" xmlns:xlink="http://www.w3.org/1999/xlink" x="0px" y="0px"
	 viewBox="0 0 160 160" style="enable-background:new 0 0 160 160;" xml:space="preserve">
<style type="text/css">
	.st0{fill:#2A3548;}
	.st1{fill:#F25C00;}
	.st2{fill:#1E2937;}
	.st3{fill:#CC4602;}
	.st4{fill:#D7DEED;}
</style>
<g>
	<g>
		<polygon class="st0" points="145.4,114.1 145.4,42.2 79.9,4.4 14.4,42.2 14.4,114.1 79.9,152 		"/>
		<polygon class="st1" points="14.4,109.5 79.9,147.3 145.4,109.5 145.4,117.8 79.9,155.7 14.4,117.8 		"/>
		<polygon class="st2" points="145.4,114.1 145.4,42.2 79.9,4.4 79.9,152 		"/>
		<polygon class="st3" points="145.4,117.8 145.4,109.5 79.9,147.3 79.9,155.7 		"/>
	</g>
</g>
<polygon class="st0" points="75.9,55.1 97,55 97.4,77.6 69.9,103.8 48.9,81.5 "/>
<path class="st2" d="M74.7,57L46,85.7l24.6,24.6l5.6-5.6l9.4-9.4l13.6-13.6V57H74.7z M96.2,78.9L83.4,91.7l-9.1,9.1l-2.7,2.7
	L52.8,84.7l24.6-24.6h18.8V78.9z"/>
<g>
	<path class="st4" d="M74.7,53L46,81.7l24.6,24.6l5.6-5.6l9.4-9.4l13.6-13.6V53H74.7z M95.2,75.9L82.4,88.7l-9.1,9.1l-2.7,2.7
		L51.8,81.7l24.6-24.6h18.8V75.9z"/>
	<path class="st1" d="M91.4,102.3c-4.6,0-9.1-1.5-12.7-4.4c-1-0.8-1.1-2.2-0.4-3.2c0.8-1,2.2-1.1,3.2-0.4c3.2,2.5,7.3,3.7,11.4,3.4
		c4.3-0.4,8.2-2.4,10.9-5.7s4.1-7.5,3.7-11.8c-0.8-8.9-8.6-15.4-17.4-14.7c-1.2,0.1-2.3-0.8-2.4-2c-0.1-1.2,0.8-2.3,2-2.4
		c11.3-1,21.3,7.4,22.3,18.8c0.5,5.5-1.2,10.8-4.8,15c-3.5,4.2-8.5,6.8-14,7.3C92.6,102.3,92,102.3,91.4,102.3z"/>
	<polygon class="st4" points="76.2,100.7 85.7,91.3 82.4,88.7 73.3,97.9 	"/>
</g>
</svg>
