<?xml version="1.0" encoding="utf-8"?>
<!-- Generator: Adobe Illustrator 21.1.0, SVG Export Plug-In . SVG Version: 6.00 Build 0)  -->
<svg version="1.1" id="Layer_1" xmlns="http://www.w3.org/2000/svg" xmlns:xlink="http://www.w3.org/1999/xlink" x="0px" y="0px"
	 viewBox="0 0 160 160" style="enable-background:new 0 0 160 160;" xml:space="preserve">
<style type="text/css">
	.st0{fill:#2A3548;}
	.st1{fill:#F25C00;}
	.st2{fill:#1E2937;}
	.st3{fill:#CC4602;}
	.st4{fill:#D7DEED;}
</style>
<g>
	<g>
		<polygon class="st0" points="145.4,114.1 145.4,42.2 79.9,4.4 14.4,42.2 14.4,114.1 79.9,152 		"/>
		<polygon class="st1" points="14.4,109.5 79.9,147.3 145.4,109.5 145.4,117.8 79.9,155.7 14.4,117.8 		"/>
		<polygon class="st2" points="145.4,114.1 145.4,42.2 79.9,4.4 79.9,152 		"/>
		<polygon class="st3" points="145.4,117.8 145.4,109.5 79.9,147.3 79.9,155.7 		"/>
	</g>
</g>
<path class="st2" d="M113,81c-0.7-1.5-1.5-2.8-2.7-3.9c-1.1-1.1-2.4-2-4-2.6c-1.5-0.6-3.1-1-4.9-1c-0.3-2.3-1-4.5-2-6.5
	c-1.1-2-2.4-3.8-4-5.2c-1.6-1.5-3.5-2.6-5.6-3.5C87.7,57.5,85.4,57,83,57c-1.6,0-3.1,0.2-4.6,0.6c-1.5,0.4-2.9,0.9-4.3,1.7
	c-1.3,0.7-2.6,1.6-3.7,2.7s-2.1,2.3-3,3.6c-1-0.2-2-0.3-3-0.3c-2.3,0-4.4,0.4-6.4,1.3s-3.8,2-5.3,3.5s-2.7,3.2-3.5,5.3
	c-0.9,2-1.3,4.2-1.3,6.4c0,2.3,0.4,4.4,1.3,6.4c0.9,2,2,3.8,3.5,5.3s3.2,2.7,5.3,3.5c2,0.9,4.2,1.3,6.4,1.3h3.2
	c1,6.9,7,12.3,14.2,12.3S95,105.3,96,98.3h5.5c1.7,0,3.3-0.3,4.8-1c1.5-0.6,2.8-1.5,3.9-2.7c1.1-1.1,2-2.4,2.7-3.9
	c0.6-1.5,1-3.1,1-4.8C114,84.1,113.7,82.5,113,81z M81.9,106.2c-5.5,0-10.1-4.5-10.1-10.1c0-5.5,4.5-10.1,10.1-10.1
	C87.4,86,92,90.5,92,96.1S87.5,106.2,81.9,106.2z M109.2,89.1c-0.4,1-1,1.9-1.8,2.6c-0.8,0.8-1.6,1.3-2.6,1.8
	c-1,0.4-2.1,0.6-3.2,0.6h-5.5c-1-6.9-7-12.3-14.2-12.3s-13.2,5.4-14.2,12.3h-3.2c-1.7,0-3.3-0.3-4.8-1c-1.5-0.6-2.8-1.5-3.9-2.7
	c-1.1-1.1-2-2.4-2.7-3.9c-0.6-1.5-1-3.1-1-4.8c0-1.7,0.3-3.3,1-4.8c0.6-1.5,1.5-2.8,2.7-3.9c1.1-1.1,2.4-2,3.9-2.7
	c1.5-0.6,3.1-1,4.8-1c1.8,0,3.5,0.4,5.1,1.1c0.5-1.4,1.3-2.7,2.2-3.9c0.9-1.1,1.9-2.1,3.1-2.9s2.5-1.5,3.9-1.9
	c1.4-0.5,2.8-0.7,4.4-0.7c2,0,3.9,0.4,5.6,1.1c1.8,0.8,3.3,1.8,4.6,3.1c1.3,1.3,2.3,2.8,3.1,4.6c0.8,1.8,1.1,3.6,1.1,5.6v2.1h4.1
	c1.1,0,2.2,0.2,3.2,0.6s1.9,1,2.6,1.8c0.8,0.8,1.3,1.6,1.8,2.6c0.4,1,0.6,2.1,0.6,3.2C109.9,87,109.7,88.1,109.2,89.1z"/>
<circle class="st0" cx="80.4" cy="93.6" r="11"/>
<g>
	<path class="st4" d="M111,78c-0.7-1.5-1.5-2.8-2.7-3.9c-1.1-1.1-2.4-2-4-2.6c-1.5-0.6-3.1-1-4.9-1c-0.3-2.3-1-4.5-2-6.5
		c-1.1-2-2.4-3.8-4-5.2c-1.6-1.5-3.5-2.6-5.6-3.5C85.7,54.5,83.4,54,81,54c-1.6,0-3.1,0.2-4.6,0.6c-1.5,0.4-2.9,0.9-4.3,1.7
		c-1.3,0.7-2.6,1.6-3.7,2.7c-1.1,1.1-2.1,2.3-3,3.6c-1-0.2-2-0.3-3-0.3c-2.3,0-4.4,0.4-6.4,1.3s-3.8,2-5.3,3.5s-2.7,3.2-3.5,5.3
		c-0.9,2-1.3,4.2-1.3,6.4c0,2.3,0.4,4.4,1.3,6.4c0.9,2,2,3.8,3.5,5.3s3.2,2.7,5.3,3.5c2,0.9,4.2,1.3,6.4,1.3h3.2
		c1,6.9,7,12.3,14.2,12.3S93,102.3,94,95.3h5.5c1.7,0,3.3-0.3,4.8-1c1.5-0.6,2.8-1.5,3.9-2.7c1.1-1.1,2-2.4,2.7-3.9
		c0.6-1.5,1-3.1,1-4.8C112,81.1,111.7,79.5,111,78z M79.9,103.2c-5.5,0-10.1-4.5-10.1-10.1c0-5.5,4.5-10.1,10.1-10.1
		C85.4,83,90,87.5,90,93.1S85.5,103.2,79.9,103.2z M107.2,86.1c-0.4,1-1,1.9-1.8,2.6c-0.8,0.8-1.6,1.3-2.6,1.8
		c-1,0.4-2.1,0.6-3.2,0.6h-5.5c-1-6.9-7-12.3-14.2-12.3s-13.2,5.4-14.2,12.3h-3.2c-1.7,0-3.3-0.3-4.8-1c-1.5-0.6-2.8-1.5-3.9-2.7
		c-1.1-1.1-2-2.4-2.7-3.9c-0.6-1.5-1-3.1-1-4.8c0-1.7,0.3-3.3,1-4.8c0.6-1.5,1.5-2.8,2.7-3.9c1.1-1.1,2.4-2,3.9-2.7
		c1.5-0.6,3.1-1,4.8-1c1.8,0,3.5,0.4,5.1,1.1c0.5-1.4,1.3-2.7,2.2-3.9c0.9-1.1,1.9-2.1,3.1-2.9c1.2-0.8,2.5-1.5,3.9-1.9
		c1.4-0.5,2.8-0.7,4.4-0.7c2,0,3.9,0.4,5.6,1.1c1.8,0.8,3.3,1.8,4.6,3.1c1.3,1.3,2.3,2.8,3.1,4.6c0.8,1.8,1.1,3.6,1.1,5.6v2.1h4.1
		c1.1,0,2.2,0.2,3.2,0.6s1.9,1,2.6,1.8c0.8,0.8,1.3,1.6,1.8,2.6c0.4,1,0.6,2.1,0.6,3.2C107.9,84,107.7,85.1,107.2,86.1z"/>
	<polygon class="st1" points="77.4,100.3 77.4,86.4 87.3,93.4 	"/>
</g>
</svg>
