<?xml version="1.0" encoding="utf-8"?>
<!-- Generator: Adobe Illustrator 21.1.0, SVG Export Plug-In . SVG Version: 6.00 Build 0)  -->
<svg version="1.1" id="Layer_1" xmlns="http://www.w3.org/2000/svg" xmlns:xlink="http://www.w3.org/1999/xlink" x="0px" y="0px"
	 viewBox="0 0 160 160" style="enable-background:new 0 0 160 160;" xml:space="preserve">
<style type="text/css">
	.st0{fill:#2A3548;}
	.st1{fill:#F25C00;}
	.st2{fill:#1E2937;}
	.st3{fill:#CC4602;}
	.st4{fill:#D7DEED;}
</style>
<g>
	<g>
		<polygon class="st0" points="145.4,114.1 145.4,42.2 79.9,4.4 14.4,42.2 14.4,114.1 79.9,152 		"/>
		<polygon class="st1" points="14.4,109.5 79.9,147.3 145.4,109.5 145.4,117.8 79.9,155.7 14.4,117.8 		"/>
		<polygon class="st2" points="145.4,114.1 145.4,42.2 79.9,4.4 79.9,152 		"/>
		<polygon class="st3" points="145.4,117.8 145.4,109.5 79.9,147.3 79.9,155.7 		"/>
	</g>
</g>
<polygon class="st0" points="78.1,72.5 78.1,84 90.9,84 88.7,90.8 84.6,94.3 79.3,95.6 72.8,93.7 68.6,88.4 67.8,80.6 71.1,75.3 "/>
<g>
	<path class="st2" d="M103.1,52v61H54.3V68.1L70.4,52H103.1z M99.3,52.8H73.1l-15,15v41.5h41.3V52.8z"/>
</g>
<g>
	<g>
		<path class="st4" d="M103.1,50v60H54.3V66.1L70.4,50H103.1z M99.3,53.8H73.1v15h-15v37.5h41.3V53.8z M60.7,65h8.6v-8.6L60.7,65z"
			/>
	</g>
	<g>
		<path class="st1" d="M94.6,76.9c-0.3-1-0.7-2-1.2-2.9c-0.5-0.9-1.2-1.7-1.9-2.5c-0.7-0.7-1.6-1.4-2.5-1.9C88,69,87.1,68.6,86,68.3
			c-1-0.3-2.1-0.4-3.3-0.4v12.3H95C95,79,94.9,77.9,94.6,76.9z"/>
		<path class="st1" d="M80,70.6h-0.9c-1.2,0-2.4,0.2-3.5,0.5c-1.1,0.3-2.2,0.8-3.1,1.3c-1,0.6-1.9,1.3-2.7,2.1
			c-0.8,0.8-1.5,1.7-2.1,2.7c-0.6,1-1,2-1.3,3.1c-0.3,1.1-0.5,2.3-0.5,3.5c0,1.2,0.2,2.4,0.5,3.5c0.3,1.1,0.8,2.2,1.3,3.1
			c0.6,1,1.3,1.9,2.1,2.7c0.8,0.8,1.7,1.5,2.7,2.1c1,0.6,2,1,3.1,1.3c1.1,0.3,2.3,0.5,3.5,0.5c1.3,0,2.6-0.2,3.8-0.6
			c1.2-0.4,2.4-0.9,3.4-1.6c1.1-0.7,2-1.5,2.8-2.5c0.8-1,1.5-2.1,2-3.3c0.2-0.5,0.4-1,0.5-1.5c0.1-0.5,0.2-1,0.3-1.5
			c0.1-0.5,0.1-1,0.2-1.5c0-0.5,0-1,0-1.6H80V70.6z M87.6,89.3c-0.5,0.7-1,1.3-1.6,1.9c-0.6,0.6-1.3,1-2,1.4
			c-0.7,0.4-1.5,0.7-2.3,0.9c-0.8,0.2-1.7,0.3-2.5,0.3c-0.9,0-1.8-0.1-2.7-0.4c-0.9-0.2-1.7-0.6-2.4-1c-0.7-0.4-1.4-1-2-1.6
			c-0.6-0.6-1.1-1.3-1.6-2c-0.4-0.7-0.8-1.6-1-2.4c-0.2-0.9-0.4-1.8-0.4-2.7c0-0.9,0.1-1.7,0.3-2.5c0.2-0.8,0.5-1.6,0.9-2.3
			c0.4-0.7,0.9-1.4,1.4-2c0.6-0.6,1.2-1.1,1.9-1.6c0.7-0.5,1.4-0.8,2.2-1.1c0.3-0.1,0.7-0.2,1-0.3v9v1.7V86H89
			c-0.1,0.4-0.2,0.7-0.3,1.1C88.4,87.9,88,88.6,87.6,89.3z"/>
	</g>
</g>
</svg>
