<?xml version="1.0" encoding="utf-8"?>
<!-- Generator: Adobe Illustrator 21.1.0, SVG Export Plug-In . SVG Version: 6.00 Build 0)  -->
<svg version="1.1" id="Layer_1" xmlns="http://www.w3.org/2000/svg" xmlns:xlink="http://www.w3.org/1999/xlink" x="0px" y="0px"
	 viewBox="0 0 160 160" style="enable-background:new 0 0 160 160;" xml:space="preserve">
<style type="text/css">
	.st0{opacity:0.25;fill:#537191;}
	.st1{fill:#FFFFFF;}
	.st2{fill:#D7DEED;}
	.st3{fill:#2A3548;}
</style>
<g>
	<path class="st0" d="M139.1,35.5c-0.7-1.6-1.6-3-2.8-4.3c-1.2-1.2-2.7-2.1-4.3-2.8c-1.6-0.7-3.4-1.1-5.2-1.1H81.2L81.1,140h27.6
		c1.8,0,3.6-0.4,5.2-1.1s3-1.6,4.3-2.8c1.2-1.2,2.1-2.7,2.8-4.3c0.7-1.6,1.1-3.4,1.1-5.2V100V54h4.6c1.8,0,3.6-0.4,5.2-1.1
		c1.6-0.7,3-1.6,4.3-2.8c1.2-1.2,2.1-2.7,2.8-4.3c0.7-1.6,1.1-3.4,1.1-5.2C140.1,38.9,139.8,37.1,139.1,35.5z"/>
	<polygon class="st1" points="46,24.8 118.4,24.8 114.9,35.2 113.7,125.2 109.7,135.3 31,135.6 23,125.2 29.3,116 39.3,114.3 
		39.3,31.3 	"/>
	<path class="st1" d="M110.1,35v60v30c0,1-0.2,2-0.6,3c-0.4,0.8-1,1.6-1.6,2.4c-0.6,0.6-1.4,1.2-2.4,1.6c-0.8,0.4-1.8,0.6-3,0.6
		s-2-0.2-3-0.6c-0.8-0.4-1.6-1-2.4-1.6c-0.6-0.6-1.2-1.4-1.6-2.4c-0.4-0.8-0.6-1.8-0.6-3c0-1,0.2-2,0.6-2.8c0.4-1,1-1.8,1.6-2.4
		c0.6-0.6,1.6-1.2,2.4-1.6c0.8-0.4,1.8-0.6,2.8-0.6s1.8-0.4,2.6-1.2c0.8-0.8,1.2-1.6,1.2-2.6s-0.4-1.8-1.2-2.6
		c-0.8-0.8-1.6-1.2-2.6-1.2H42.2V35c0-1,0.2-2,0.6-3c0.4-0.8,1-1.6,1.6-2.4c0.6-0.6,1.4-1.2,2.4-1.6c0.8-0.4,1.8-0.6,3-0.6h62.1
		C110.7,29.8,110.1,32.4,110.1,35z"/>
	<g>
		<path class="st2" d="M134.6,39.1c-0.5,1.1-1.4,2.2-2.2,3.3c-0.8,0.8-1.9,1.6-3.3,2.2c-1.1,0.5-2.5,0.8-4.1,0.8h-10.1V35.2
			c0-1.4,0.3-2.7,0.8-4.1c0.5-1.1,1.4-2.2,2.2-3.3c0.8-0.8,1.9-1.6,3.3-2.2c1.1-0.5,2.5-0.8,4.1-0.8c1.6,0,2.7,0.3,4.1,0.8
			c1.1,0.5,2.2,1.4,3.3,2.2c0.8,0.8,1.6,1.9,2.2,3.3c0.5,1.1,0.8,2.5,0.8,4.1C135.2,36.3,135.2,37.7,134.6,39.1z"/>
		<polyline class="st2" points="94.7,114.2 91.7,126 98.7,136.8 31,135.6 23,123.8 32.6,113.6 93.7,114.2 		"/>
		<g>
			<rect x="70.3" y="45.6" class="st3" width="30.4" height="7.4"/>
			<rect x="51.4" y="85.6" class="st3" width="29.8" height="7.4"/>
			<rect x="51.4" y="66" class="st3" width="49.3" height="7.4"/>
			<rect x="51.4" y="45.6" class="st3" width="11.6" height="7.4"/>
			<path class="st3" d="M138.9,29.2c-0.8-1.8-1.8-3.4-3.2-4.8c-1.4-1.4-3-2.4-4.8-3.2c-1.8-0.8-3.8-1.2-5.8-1.2H50
				c-2,0-4,0.4-5.8,1.2c-1.8,0.8-3.4,1.8-4.8,3.2c-1.4,1.4-2.4,3-3.2,4.8C35.4,31,35,33,35,35v75c-2,0-4,0.4-5.8,1.2
				c-1.8,0.8-3.4,1.8-4.8,3.2c-1.4,1.4-2.4,3-3.2,4.8S20,123,20,125s0.4,4,1.2,5.8c0.8,1.8,1.8,3.4,3.2,4.8c1.4,1.4,3,2.4,4.8,3.2
				C31,139.6,33,140,35,140h67.5c2,0,4-0.4,5.8-1.2c1.8-0.8,3.4-1.8,4.8-3.2s2.4-3,3.2-4.8c0.8-1.8,1.2-3.8,1.2-5.8V95V50h7.4
				c2,0,4-0.4,5.8-1.2c1.8-0.8,3.4-1.8,4.8-3.2c1.4-1.4,2.4-3,3.2-4.8s1.2-3.8,1.2-5.8C140.1,33,139.7,31,138.9,29.2z M89.5,132.6
				H35c-1,0-2-0.2-3-0.6c-0.8-0.4-1.6-1-2.4-1.6c-0.6-0.6-1.2-1.4-1.6-2.4c-0.4-0.8-0.6-1.8-0.6-3c0-1,0.2-2,0.6-3
				c0.4-0.8,1-1.6,1.6-2.4c0.6-0.6,1.4-1.2,2.4-1.6c0.8-0.4,1.8-0.6,3-0.6h54.5c-1.4,2.4-2,4.8-2,7.4
				C87.5,127.6,88.3,130.2,89.5,132.6z M110.1,95v30c0,1-0.2,2-0.6,3c-0.4,0.8-1,1.6-1.6,2.4c-0.6,0.6-1.4,1.2-2.4,1.6
				c-0.8,0.4-1.8,0.6-3,0.6s-2-0.2-3-0.6c-0.8-0.4-1.6-1-2.4-1.6c-0.6-0.6-1.2-1.4-1.6-2.4c-0.4-0.8-0.6-1.8-0.6-3
				c0-1,0.2-2,0.6-2.8c0.4-1,1-1.8,1.6-2.4c0.6-0.6,1.6-1.2,2.4-1.6c0.8-0.4,1.8-0.6,2.8-0.6s1.8-0.4,2.6-1.2
				c0.8-0.8,1.2-1.6,1.2-2.6s-0.4-1.8-1.2-2.6c-0.8-0.8-1.6-1.2-2.6-1.2H42.2V35c0-1,0.2-2,0.6-3c0.4-0.8,1-1.6,1.6-2.4
				c0.6-0.6,1.4-1.2,2.4-1.6c0.8-0.4,1.8-0.6,3-0.6h62.1c-1.2,2.4-1.8,5-1.8,7.6V95z M132.1,38c-0.4,0.8-1,1.6-1.6,2.4
				c-0.6,0.6-1.4,1.2-2.4,1.6c-0.8,0.4-1.8,0.6-3,0.6h-7.4v-7.4c0-1,0.2-2,0.6-3c0.4-0.8,1-1.6,1.6-2.4c0.6-0.6,1.4-1.2,2.4-1.6
				c0.8-0.4,1.8-0.6,3-0.6s2,0.2,3,0.6c0.8,0.4,1.6,1,2.4,1.6c0.6,0.6,1.2,1.4,1.6,2.4c0.4,0.8,0.6,1.8,0.6,3
				C132.5,36,132.5,37,132.1,38z"/>
		</g>
	</g>
</g>
</svg>
