<svg id="ICONS-64x" xmlns="http://www.w3.org/2000/svg" viewBox="0 0 64 64">
  <defs>
    <style>
      .cls-1 {
        fill: #fff;
      }

      .cls-2 {
        fill: #e5e5e5;
      }

      .cls-3 {
        fill: none;
      }

      .cls-3, .cls-5 {
        stroke: #263746;
        stroke-miterlimit: 10;
        stroke-width: 2px;
      }

      .cls-4 {
        fill: #263746;
      }

      .cls-5 {
        fill: #feb586;
      }
    </style>
  </defs>
  <title>i_policy</title>
  <path class="cls-1" d="M62,8.75a7.51,7.51,0,0,1-.61,3,7.76,7.76,0,0,1-4.13,4.12,7.43,7.43,0,0,1-3,.61L50,16V56.11c0,3-1.88,6.89-6,6.89H8V8.08A10.57,10.57,0,0,1,8,7a4.38,4.38,0,0,1,.31-1.22A7.15,7.15,0,0,1,9,4.54a7.28,7.28,0,0,1,1-1.27,2.25,2.25,0,0,1,.24-.21,7.39,7.39,0,0,1,2.23-1.45,7.88,7.88,0,0,1,3-.61H54.25a7.6,7.6,0,0,1,3,.61,7.76,7.76,0,0,1,4.13,4.12A7.51,7.51,0,0,1,62,8.75Z"/>
  <path class="cls-2" d="M62,8.75a7.51,7.51,0,0,1-.61,3,7.76,7.76,0,0,1-4.13,4.12,7.43,7.43,0,0,1-3,.61L50,16v1H8V8.08A10.57,10.57,0,0,1,8,7a4.38,4.38,0,0,1,.31-1.22A7.15,7.15,0,0,1,9,4.54a7.28,7.28,0,0,1,1-1.27,2.25,2.25,0,0,1,.24-.21,7.39,7.39,0,0,1,2.23-1.45,7.88,7.88,0,0,1,3-.61H54.25a7.6,7.6,0,0,1,3,.61,7.76,7.76,0,0,1,4.13,4.12A7.51,7.51,0,0,1,62,8.75Z"/>
  <path class="cls-3" d="M62,8.75a7.48,7.48,0,0,1-.61,3,7.62,7.62,0,0,1-1.66,2.46,7.82,7.82,0,0,1-2.47,1.66,7.38,7.38,0,0,1-3,.61L50,16V56.11c0,3-1.88,6.89-6,6.89H36.12L8,55V8.75A15.22,15.22,0,0,1,8.05,7a4.3,4.3,0,0,1,.31-1.22A7.73,7.73,0,0,1,10,3.27a7.82,7.82,0,0,1,2.47-1.66,7.54,7.54,0,0,1,3-.61H54.25a7.54,7.54,0,0,1,3,.61,7.82,7.82,0,0,1,2.47,1.66,7.73,7.73,0,0,1,1.66,2.46A7.49,7.49,0,0,1,62,8.75Z"/>
  <path class="cls-4" d="M54.13,12.63a3.75,3.75,0,0,0,1.51-.3,3.94,3.94,0,0,0,2.06-2.06,3.94,3.94,0,0,0,0-3,3.94,3.94,0,0,0-2.06-2.06,3.94,3.94,0,0,0-3,0,3.94,3.94,0,0,0-2.06,2.06,3.75,3.75,0,0,0-.3,1.51L49.88,13Z"/>
  <path class="cls-5" d="M41,63c-3-1-5-2.89-5-8,0-6,6-8,5.43-8H9A8,8,0,0,0,9,63H40.27"/>
</svg>
