<?xml version="1.0" encoding="utf-8"?>
<!-- Generator: Adobe Illustrator 21.1.0, SVG Export Plug-In . SVG Version: 6.00 Build 0)  -->
<svg version="1.1" id="Layer_1" xmlns="http://www.w3.org/2000/svg" xmlns:xlink="http://www.w3.org/1999/xlink" x="0px" y="0px"
	 viewBox="0 0 160 160" style="enable-background:new 0 0 160 160;" xml:space="preserve">
<style type="text/css">
	.st0{opacity:0.25;}
	.st1{fill:#537191;}
	.st2{fill:#F25C00;}
	.st3{fill:#2A3548;}
</style>
<g>
	<g class="st0">
		<rect x="93.8" y="110.8" class="st1" width="32.8" height="8.2"/>
		<rect x="93.8" y="67.2" class="st1" width="54.2" height="8.2"/>
		<rect x="114.6" y="45.2" class="st1" width="33.4" height="8.2"/>
		<rect x="93.8" y="45.2" class="st1" width="12.8" height="8.2"/>
		<rect x="93.8" y="88.8" class="st1" width="54.2" height="8.2"/>
	</g>
	<g>
		<path class="st2" d="M76.8,106c-0.8-3-2-5.6-3.6-8.2c-1.6-2.6-3.6-4.8-5.8-7c-2.2-2-4.8-3.8-7.6-5.2c3.2-2.4,5.6-5.2,7.4-8.8
			c1.8-3.6,2.6-7.2,2.6-11.2c0-3.4-0.6-6.6-2-9.6c-1.4-3-3-5.6-5.4-7.8c-2.2-2.2-4.8-4-7.8-5.4c-3-1.4-6.2-2-9.6-2s-6.6,0.6-9.6,2
			c-3,1.4-5.6,3-7.8,5.4c-2.2,2.2-4,4.8-5.4,7.8c-1.4,3-2,6.2-2,9.6c0,4,0.8,7.6,2.6,11.2c1.8,3.6,4.2,6.4,7.4,8.8
			c-2.8,1.4-5.4,3.2-7.6,5.2s-4.2,4.4-5.8,7c-1.6,2.6-2.8,5.4-3.6,8.2c-0.8,3-1.2,6-1.2,9.2h8.2c0-3.4,0.6-6.6,2-9.6
			c1.4-3,3-5.6,5.4-7.8c2.2-2.2,4.8-4,7.8-5.4c3-1.4,6.2-2,9.6-2s6.6,0.6,9.6,2c3,1.4,5.6,3,7.8,5.4c2.2,2.2,4,4.8,5.4,7.8
			c1.4,3,2,6.2,2,9.6H78C78,112,77.6,108.8,76.8,106z M51.4,81c-2,0.8-4.2,1.4-6.4,1.4S40.6,82,38.6,81c-2-0.8-3.8-2-5.2-3.6
			c-1.4-1.4-2.6-3.2-3.6-5.2c-0.8-2-1.4-4.2-1.4-6.4c0-2.2,0.4-4.4,1.4-6.4c0.8-2,2-3.8,3.6-5.2c1.4-1.4,3.2-2.6,5.2-3.6
			c2-0.8,4.2-1.4,6.4-1.4s4.4,0.4,6.4,1.4c2,0.8,3.8,2,5.2,3.6c1.4,1.4,2.6,3.2,3.6,5.2c0.8,2,1.4,4.2,1.4,6.4
			c0,2.2-0.4,4.4-1.4,6.4c-0.8,2-2,3.8-3.6,5.2C55.2,78.8,53.4,80,51.4,81z"/>
		<g>
			<rect x="89.8" y="106.8" class="st3" width="32.8" height="8.2"/>
			<rect x="89.8" y="63.2" class="st3" width="54.2" height="8.2"/>
			<rect x="110.6" y="41.2" class="st3" width="33.4" height="8.2"/>
			<rect x="89.8" y="41.2" class="st3" width="12.8" height="8.2"/>
			<rect x="89.8" y="84.8" class="st3" width="54.2" height="8.2"/>
		</g>
	</g>
</g>
</svg>
