<?xml version="1.0" encoding="utf-8"?>
<!-- Generator: Adobe Illustrator 21.1.0, SVG Export Plug-In . SVG Version: 6.00 Build 0)  -->
<svg version="1.1" id="Layer_1" xmlns="http://www.w3.org/2000/svg" xmlns:xlink="http://www.w3.org/1999/xlink" x="0px" y="0px"
	 viewBox="0 0 160 160" style="enable-background:new 0 0 160 160;" xml:space="preserve">
<style type="text/css">
	.st0{opacity:0.25;}
	.st1{fill:#537191;}
	.st2{fill:#F25C00;}
	.st3{fill:#2A3548;}
</style>
<g>
	<g class="st0">
		<g>
			<g>
				<path class="st1" d="M69.4,92.6v-6.7c2.7,0,5.2-0.4,7.6-0.9c2.3-0.5,4.5-1.6,6.5-2.9c1.8-1.3,3.2-3.1,4.5-5.2
					c1.1-2.2,1.6-4.7,1.6-7.7c0-2.3-0.4-4.5-1.3-6.5s-2.2-3.8-3.6-5.2c-1.4-1.4-3.2-2.7-5.2-3.6c-2-0.9-4.1-1.3-6.5-1.3H46
					c-2.3,0-4.5,0.4-6.5,1.3c-2,0.9-3.8,2.2-5.2,3.6s-2.7,3.2-3.6,5.2s-1.3,4.1-1.3,6.5c0,3.1,0.5,5.6,1.6,7.7
					c1.1,2.2,2.5,3.8,4.5,5.2c1.8,1.3,4,2.3,6.5,2.9c2.3,0.5,5,0.9,7.6,0.9v6.7h-3.4c-3.2,0-6.3-0.5-9.2-1.8c-2.9-1.3-5.2-2.9-7.4-5
					s-3.8-4.5-5-7.4c-1.3-2.9-1.8-5.9-1.8-9.2s0.5-6.3,1.8-9.2c1.3-2.9,2.9-5.2,5-7.4c2.2-2.2,4.5-3.8,7.4-5s5.9-1.8,9.2-1.8H73
					c3.2,0,6.3,0.5,9.2,1.8s5.2,2.9,7.4,5c2.2,2.2,3.8,4.5,5,7.4s1.8,5.9,1.8,9.2s-0.5,6.3-1.8,9.2s-2.9,5.2-5,7.4s-4.5,3.8-7.4,5
					c-2.9,1.3-5.9,1.8-9.2,1.8H69.4z"/>
			</g>
		</g>
		<path class="st1" d="M105.4,63.6v7c2.7,0,5.4,0.4,7.9,0.9c2.5,0.7,4.9,1.6,6.7,3.1c2,1.4,3.4,3.2,4.7,5.4c1.1,2.2,1.8,4.9,1.8,8.1
			c0,2.3-0.5,4.7-1.4,6.8c-0.9,2.2-2.2,4-3.8,5.6c-1.6,1.6-3.4,2.9-5.6,3.8c-2.2,0.9-4.3,1.4-6.8,1.4H80.7c-2.3,0-4.7-0.5-6.8-1.4
			c-2.2-0.9-4-2.2-5.6-3.8s-2.9-3.4-3.8-5.6c-0.9-2.2-1.4-4.3-1.4-6.8c0-3.2,0.5-5.9,1.8-8.1c1.1-2.2,2.7-4,4.7-5.4
			c2-1.4,4.1-2.5,6.7-3.1c2.5-0.7,5.2-0.9,7.9-0.9v-7h-3.6c-3.4,0-6.7,0.7-9.5,2c-3.1,1.3-5.6,3.1-7.7,5.2c-2.2,2.2-4,4.9-5.2,7.7
			c-1.3,3.1-2,6.1-2,9.5s0.7,6.7,2,9.5c1.3,3.1,3.1,5.6,5.2,7.7c2.2,2.2,4.9,4,7.7,5.2c3.1,1.3,6.1,2,9.5,2h28.3
			c3.4,0,6.7-0.7,9.5-2c3.1-1.3,5.6-3.1,7.7-5.2c2.2-2.2,4-4.9,5.2-7.7c1.3-3.1,2-6.1,2-9.5s-0.7-6.7-2-9.5
			c-1.3-3.1-3.1-5.6-5.2-7.7c-2.2-2.2-4.9-4-7.7-5.2c-3.1-1.3-6.1-2-9.5-2C108.8,63.6,105.4,63.6,105.4,63.6z"/>
		<path class="st1" d="M104.9,22.8c-12.5-6.5-13.9-8.8-25.1-8.3c-11.1,0.5-23.5,8.5-34,13s-29.6,2-29.6,2s-5.7,52.7,14.1,74.7
			c19.8,22,49.1,42.3,49.1,42.3s35.5-19.4,52.6-42.8c14.8-20.3,11.8-73.3,11.8-73.3S117.4,29.2,104.9,22.8z M131.4,86.8
			c-12.5,28.4-51.6,49.5-51.6,49.5s-63.4-30-55.1-87.4c1.2-8.1,0-8.2,0-8.2c6.6-0.4,12.9-1.4,18.9-3.2s11.8-4.6,17.4-8.4
			c3.1-2,6-3.4,9.1-4.4c2.9-1,6.2-1.4,9.9-1.4c3.7,0,7,0.4,9.9,1.4c2.9,1,6,2.4,9.1,4.4c5.6,3.8,11.4,6.4,17.4,8.4
			c6,1.8,12.4,3,18.9,3.2C135.3,40.7,136.4,72.2,131.4,86.8z"/>
	</g>
	<g>
		<path class="st2" d="M134.8,26.7c-3.6-0.2-7-0.8-10.4-1.6c-3.4-0.8-6.8-1.8-10-3c-3.4-1.4-6.6-3-10-5.2c-2-1.2-4-2.4-5.8-3.2
			c-2-1-3.8-1.8-5.8-2.4c-2-0.6-4-1-6.2-1.4c-2.2-0.2-4.4-0.4-6.8-0.4c-4.6,0-9,0.6-12.8,1.8c-3.8,1.2-7.8,3-11.6,5.6
			c-3.4,2.2-6.6,3.8-10,5.2c-3.4,1.4-6.6,2.4-10,3c-3.4,0.8-6.8,1.2-10.4,1.6c-3.6,0.2-7.2,0.4-11,0.4v28.6l0,0
			c1.6-3.8,3.8-7,6.6-9.8c0.6-0.6,1.4-1.4,2.2-2v-8.2c6.8-0.4,13.4-1.4,19.6-3.2s12.2-4.6,18-8.4c3.2-2,6.2-3.4,9.4-4.4
			c3-1,6.4-1.4,10.2-1.4s7.2,0.4,10.2,1.4s6.2,2.4,9.4,4.4c5.8,3.8,11.8,6.4,18,8.4c6.2,1.8,12.8,3,19.6,3.2v26.6
			c0,4.2-0.4,8.4-1.2,12.4c0.6,1.2,1.2,2.2,1.8,3.4c1.6,3.8,2.4,7.8,2.4,12c0,0.2,0,0.6,0,0.8c1.2-3,2.4-6,3.2-9.2
			c1.8-6.2,2.6-12.6,2.6-19.6v-35C142,27.1,138.4,26.9,134.8,26.7z"/>
		<path class="st2" d="M109,121.3h-2.8c-4,3.6-8.2,6.8-12.4,10c-4.6,3.2-9.4,6.2-14,9c-4.6-2.8-9.4-5.6-14-9
			c-4.6-3.2-9-6.8-13.4-10.6c-4.2-3.8-8.2-8-11.8-12.2c-3-3.4-5.4-7-7.8-10.8c-1-0.4-1.8-0.6-2.8-1c-3.8-1.6-7-3.8-9.8-6.6
			c-0.8-0.8-1.6-1.6-2.4-2.6c1.6,4.2,3.4,8.2,5.6,12.2c3,5.4,6.8,10.6,10.8,15.4c4.2,4.8,8.8,9.2,13.6,13.4
			c4.8,4.2,10,8.2,15.4,11.8c5.4,3.6,10.8,7,16.2,10.2c5.4-3.2,10.8-6.6,16.2-10.2s10.6-7.6,15.4-11.8c3.6-3,7-6.2,10.2-9.6
			c-0.2,0-0.2,0.2-0.4,0.2C117.4,120.5,113.4,121.3,109,121.3z"/>
	</g>
	<g>
		<path class="st3" d="M68.2,94v-7.4c3,0,5.8-0.4,8.4-1s5-1.8,7.2-3.2c2-1.4,3.6-3.4,5-5.8c1.2-2.4,1.8-5.2,1.8-8.6
			c0-2.6-0.4-5-1.4-7.2s-2.4-4.2-4-5.8s-3.6-3-5.8-4s-4.6-1.4-7.2-1.4h-30c-2.6,0-5,0.4-7.2,1.4s-4.2,2.4-5.8,4
			c-1.6,1.6-3,3.6-4,5.8s-1.4,4.6-1.4,7.2c0,3.4,0.6,6.2,1.8,8.6c1.2,2.4,2.8,4.2,5,5.8c2,1.4,4.4,2.6,7.2,3.2c2.6,0.6,5.6,1,8.4,1
			V94h-3.8c-3.6,0-7-0.6-10.2-2s-5.8-3.2-8.2-5.6s-4.2-5-5.6-8.2c-1.4-3.2-2-6.6-2-10.2s0.6-7,2-10.2c1.4-3.2,3.2-5.8,5.6-8.2
			c2.4-2.4,5-4.2,8.2-5.6s6.6-2,10.2-2h29.8c3.6,0,7,0.6,10.2,2s5.8,3.2,8.2,5.6c2.4,2.4,4.2,5,5.6,8.2s2,6.6,2,10.2
			c0,3.6-0.6,7-2,10.2S93,84,90.6,86.4s-5,4.2-8.2,5.6s-6.6,2-10.2,2H68.2z"/>
	</g>
	<path class="st3" d="M108.2,61.8v7.8c3,0,6,0.4,8.8,1c2.8,0.8,5.4,1.8,7.4,3.4c2.2,1.6,3.8,3.6,5.2,6c1.2,2.4,2,5.4,2,9
		c0,2.6-0.6,5.2-1.6,7.6s-2.4,4.4-4.2,6.2s-3.8,3.2-6.2,4.2s-4.8,1.6-7.6,1.6H80.8c-2.6,0-5.2-0.6-7.6-1.6s-4.4-2.4-6.2-4.2
		s-3.2-3.8-4.2-6.2c-1-2.4-1.6-4.8-1.6-7.6c0-3.6,0.6-6.6,2-9c1.2-2.4,3-4.4,5.2-6s4.6-2.8,7.4-3.4c2.8-0.8,5.8-1,8.8-1v-7.8h-4
		c-3.8,0-7.4,0.8-10.6,2.2c-3.4,1.4-6.2,3.4-8.6,5.8c-2.4,2.4-4.4,5.4-5.8,8.6c-1.4,3.4-2.2,6.8-2.2,10.6s0.8,7.4,2.2,10.6
		c1.4,3.4,3.4,6.2,5.8,8.6c2.4,2.4,5.4,4.4,8.6,5.8c3.4,1.4,6.8,2.2,10.6,2.2H112c3.8,0,7.4-0.8,10.6-2.2c3.4-1.4,6.2-3.4,8.6-5.8
		s4.4-5.4,5.8-8.6c1.4-3.4,2.2-6.8,2.2-10.6s-0.8-7.4-2.2-10.6c-1.4-3.4-3.4-6.2-5.8-8.6c-2.4-2.4-5.4-4.4-8.6-5.8
		c-3.4-1.4-6.8-2.2-10.6-2.2C112,61.8,108.2,61.8,108.2,61.8z"/>
</g>
</svg>
