<svg id="ICONS-64x" xmlns="http://www.w3.org/2000/svg" viewBox="0 0 64 64">
  <defs>
    <style>
      .cls-1 {
        fill: #fc6a0d;
      }

      .cls-2 {
        fill: #fff;
      }

      .cls-3 {
        fill: #e5e5e5;
      }

      .cls-4 {
        fill: none;
        stroke: #263746;
        stroke-miterlimit: 10;
        stroke-width: 2px;
      }
    </style>
  </defs>
  <title>i_drivers</title>
  <path class="cls-1" d="M50.27,28.77a.9.9,0,0,0,.86.54L53,29.12a.9.9,0,0,0,.68-1l-.06-2.25c-.11-.6,0-1.15,1.72-2.15a1.57,1.57,0,0,1,1.55.09L59,25a1.06,1.06,0,0,0,1-.18l1.25-1.58a.94.94,0,0,0-.31-1.12l-1.7-1.63a1.14,1.14,0,0,1-.33-1.4s.49-2.27,1.44-2.44l2.09-.49a1.12,1.12,0,0,0,.68-1l-.34-2a.69.69,0,0,0-.81-.55h-.05l-2.26.07c-.6.09-1.88-1.49-2.15-1.76a2.25,2.25,0,0,1,0-1.69l1.21-1.86a1,1,0,0,0-.18-1.26l-1.58-.94a.9.9,0,0,0-1.13,0L54.31,7.12c-.37.45-1.08.88-2.68.23,0,0-1.18-.69-1.32-1.25l-.46-2.36A.9.9,0,0,0,49,3.2l-2,.34a.69.69,0,0,0-.51.84v0l-.07,2.39c0,.84-1.36,1.73-1.64,2a1.48,1.48,0,0,1-1.69,0l-2-1.34A1.1,1.1,0,0,0,40,7.81L38.75,9.39a1.24,1.24,0,0,0,.31,1.12l1.74,1.64c1,.76.41,1.87.21,2.67-.09.43-.26.86-1.24,1l-2.24.63a.9.9,0,0,0-.54.86l.34,2a.9.9,0,0,0,.72.68l2.39-.2c.84,0,1.14.24,1.29.67a12.6,12.6,0,0,1,.73,1.25,1.26,1.26,0,0,1,.18,1.51l-1.34,2a1.09,1.09,0,0,0,.31,1.11L43,27.42a.9.9,0,0,0,1.13,0l1.5-1.87a1.43,1.43,0,0,1,1.53-.45l1.28.38c.56,0,.86.26,1.15,1.09l.62,2.23m4.57-13.22A5,5,0,0,1,50.76,21a4.6,4.6,0,0,1-5.4-3.63q0-.22-.06-.44a4.72,4.72,0,0,1,3.93-5.32,4.79,4.79,0,0,1,5.6,3.8l0,.12"/>
  <path class="cls-2" d="M45,36.86c0-.35-.58-1.06-1.62-1.1l-4-.26a1.91,1.91,0,0,1-1.94-1.43s-1.84-3.45-.79-4.7l2.15-2.9a1.85,1.85,0,0,0-.22-2L36.08,22.3a1.17,1.17,0,0,0-1.64.18s0,0,0,.07l-2.82,2.54a2.26,2.26,0,0,1-2.71.52c-.68,0-1.32-.4-2-.44A3.78,3.78,0,0,1,25.06,23l-.46-3.71A1.7,1.7,0,0,0,23,17.87l-3,.5a1.5,1.5,0,0,0-1.41,1.27l.12,4c0,1-.15,2.67-3.19,3.2,0,0-2.27.4-3-.16L9.26,24.12a1.48,1.48,0,0,0-1.68.25l-.24.28L5.43,26.93a1.17,1.17,0,0,0,.25,1.63l0,0,2.5,3.15c1.44,1.42.13,3.69.08,4.35A2.47,2.47,0,0,1,6.18,38l-4,.47A1.84,1.84,0,0,0,1,40.06l.11,3.37a2.07,2.07,0,0,0,1.61,1.11l4,.21C8.11,44.82,9,45.17,10,48c.35.66.6,1.4-.49,2.65L7.28,53.84a1.54,1.54,0,0,0,.24,1.7l2.57,2.15a1.5,1.5,0,0,0,1.66.09l2.85-2.85c1-1,3.92,0,4.67.27a2.1,2.1,0,0,1,1.85,1.74l.48,4a1.83,1.83,0,0,0,1.6,1.1l3-.16a1.5,1.5,0,0,0,1.41-1.27l-.1-4c0-1,4.66-4,6.2-3l1.75,1,2,1.13c.57.28.76.18,1.22-.23l2.13-2.23a1.52,1.52,0,0,0-.23-2L38,48.48c-.78-.64-.37-3-.12-4.63A2.3,2.3,0,0,1,40,42.28l4.07-.78C45.68,41,45,36.86,45,36.86ZM18.33,46.42c-.19-.16-.38-.32-.56-.49A7.72,7.72,0,0,1,17,35.1S17,35,17,35a8.12,8.12,0,0,1,11.3-1.17l.16.12,0,0a8.09,8.09,0,0,1,.7,11.24,7.64,7.64,0,0,1-1.33,1.28A7.82,7.82,0,0,1,18.33,46.42Z"/>
  <path class="cls-3" d="M44.09,41.5,40,42.28a2.3,2.3,0,0,0-2.09,1.57c-.25,1.62-.66,4,.12,4.63l2.51,2.82a1.52,1.52,0,0,1,.23,2l-2.13,2.23c-.46.41-.65.51-1.22.23l-2-1.13-7.63-8.14a7.64,7.64,0,0,0,1.33-1.28A8.09,8.09,0,0,0,28.49,34l0,0-.16-.12A8.12,8.12,0,0,0,17,35s0,.05-.06.08L7.34,24.65l.24-.28a1.48,1.48,0,0,1,1.68-.25l3.16,2.54c.78.56,3,.16,3,.16,3-.53,3.2-2.21,3.19-3.2l-.12-4A1.5,1.5,0,0,1,20,18.37l3-.5a1.7,1.7,0,0,1,1.6,1.41L25.06,23a3.78,3.78,0,0,0,1.84,2.18c.64,0,1.28.4,2,.44a2.26,2.26,0,0,0,2.71-.52l2.82-2.54s0,0,0-.07a1.17,1.17,0,0,1,1.64-.18l2.56,2.16a1.85,1.85,0,0,1,.22,2l-2.15,2.9c-1.05,1.25.79,4.7.79,4.7a1.91,1.91,0,0,0,1.94,1.43l4,.26c1,0,1.64.75,1.62,1.1C45,36.86,45.68,41,44.09,41.5Z"/>
  <path class="cls-4" d="M37.44,55.79c.56.27.76.18,1.21-.24l2.13-2.22a1.51,1.51,0,0,0-.22-2l-2.51-2.82c-.79-.64-.37-3-.12-4.63A2.29,2.29,0,0,1,40,42.28l4.07-.78c1.59-.53.92-4.65.92-4.65,0-.34-.58-1.06-1.61-1.1l-4-.24c-.91,0-3.77-4.89-2.73-6.14l2.16-2.9a1.88,1.88,0,0,0-.22-2L36.08,22.3a1.16,1.16,0,0,0-1.64.18l-.05.07-2.82,2.53c-.68.77-6.2-1.16-6.51-2.09l-.46-3.71A1.71,1.71,0,0,0,23,17.86l-3,.5a1.51,1.51,0,0,0-1.41,1.27l.12,4c0,1-.15,2.65-3.19,3.19,0,0-2.27.4-3.05-.17L9.27,24.12a1.51,1.51,0,0,0-1.69.25L5.43,26.93a1.16,1.16,0,0,0,.26,1.63l0,0,2.5,3.15c1.44,1.42.13,3.7.07,4.35A2.48,2.48,0,0,1,6.17,38l-4,.47A1.85,1.85,0,0,0,1,40.05l.12,3.38a2.09,2.09,0,0,0,1.61,1.1l4,.22c1.33.07,2.27.42,3.17,3.2.35.65.6,1.39-.48,2.66L7.28,53.84a1.51,1.51,0,0,0,.25,1.69l2.56,2.15a1.51,1.51,0,0,0,1.67.09l2.84-2.85c1.05-.95,6.37,1.08,6.53,2l.47,4a1.83,1.83,0,0,0,1.61,1.09l3-.16a1.51,1.51,0,0,0,1.41-1.27l-.1-4c0-1,4.66-4,6.2-3Z"/>
  <circle class="cls-4" cx="23.14" cy="40.15" r="8"/>
</svg>
