<?xml version="1.0" encoding="utf-8"?>
<!-- Generator: Adobe Illustrator 21.1.0, SVG Export Plug-In . SVG Version: 6.00 Build 0)  -->
<svg version="1.1" id="Layer_1" xmlns="http://www.w3.org/2000/svg" xmlns:xlink="http://www.w3.org/1999/xlink" x="0px" y="0px"
	 viewBox="0 0 160 160" style="enable-background:new 0 0 160 160;" xml:space="preserve">
<style type="text/css">
	.st0{fill:#2A3548;}
	.st1{fill:#F25C00;}
	.st2{fill:#1E2937;}
	.st3{fill:#CC4602;}
	.st4{fill:#D7DEED;}
</style>
<g>
	<g>
		<polygon class="st0" points="145.4,114.1 145.4,42.2 79.9,4.4 14.4,42.2 14.4,114.1 79.9,152 		"/>
		<polygon class="st1" points="14.4,109.5 79.9,147.3 145.4,109.5 145.4,117.8 79.9,155.7 14.4,117.8 		"/>
		<polygon class="st2" points="145.4,114.1 145.4,42.2 79.9,4.4 79.9,152 		"/>
		<polygon class="st3" points="145.4,117.8 145.4,109.5 79.9,147.3 79.9,155.7 		"/>
	</g>
</g>
<path class="st2" d="M100.3,100.9V76.8c0-1.8-0.2-3.6-0.7-5.3c-0.5-1.7-1.2-3.3-2-4.8c-0.9-1.5-1.9-2.8-3.1-4.1
	c-1.2-1.2-2.6-2.3-4.1-3.1c-1.5-0.9-3.1-1.5-4.8-2c-0.9-0.3-1.8-0.4-2.8-0.6v-1.3c0-1.4-1.1-2.5-2.5-2.5h-0.1
	c-1.4,0-2.5,1.1-2.5,2.5v1.3c-1,0.1-1.9,0.3-2.8,0.6c-1.7,0.5-3.3,1.2-4.8,2c-1.5,0.9-2.8,1.9-4.1,3.1c-1.2,1.2-2.3,2.6-3.1,4.1
	c-0.9,1.5-1.5,3.1-2,4.8c-0.5,1.7-0.7,3.5-0.7,5.3v24.1h-4v4h16.1c0,1.1,0.2,2.2,0.6,3.1c0.4,1,1,1.8,1.7,2.6
	c0.7,0.7,1.6,1.3,2.6,1.7c1,0.4,2,0.6,3.1,0.6c1.1,0,2.2-0.2,3.1-0.6c1-0.4,1.8-1,2.6-1.7c0.7-0.7,1.3-1.6,1.7-2.6
	c0.4-1,0.6-2,0.6-3.1h16.1v-4H100.3z M83.9,103.5c-0.2,0.5-0.5,0.9-0.9,1.3c-0.4,0.4-0.8,0.7-1.3,0.9c-0.5,0.2-1,0.3-1.6,0.3
	c-0.6,0-1.1-0.1-1.6-0.3c-0.5-0.2-0.9-0.5-1.3-0.9c-0.4-0.4-0.7-0.8-0.9-1.3c-0.2-0.5-0.3-1-0.3-1.6h8
	C84.2,102.5,84.1,103,83.9,103.5z M96.2,100.9H64V76.8c0-2.2,0.4-4.3,1.3-6.3c0.8-1.9,2-3.7,3.5-5.1c1.5-1.5,3.2-2.6,5.1-3.5
	c1.9-0.8,4-1.3,6.3-1.3c2.2,0,4.3,0.4,6.3,1.3c1.9,0.8,3.7,2,5.1,3.5c1.5,1.5,2.6,3.2,3.5,5.1c0.8,1.9,1.3,4,1.3,6.3V100.9z"/>
<path class="st4" d="M100.3,97.9V73.8c0-1.8-0.2-3.6-0.7-5.3c-0.5-1.7-1.2-3.3-2-4.8c-0.9-1.5-1.9-2.8-3.1-4.1
	c-1.2-1.2-2.6-2.3-4.1-3.1c-1.5-0.9-3.1-1.5-4.8-2c-0.9-0.3-1.8-0.4-2.8-0.6v-1.3c0-1.4-1.1-2.5-2.5-2.5h-0.1
	c-1.4,0-2.5,1.1-2.5,2.5v1.3c-1,0.1-1.9,0.3-2.8,0.6c-1.7,0.5-3.3,1.2-4.8,2c-1.5,0.9-2.8,1.9-4.1,3.1c-1.2,1.2-2.3,2.6-3.1,4.1
	c-0.9,1.5-1.5,3.1-2,4.8c-0.5,1.7-0.7,3.5-0.7,5.3v24.1h-4v4h16.1c0,1.1,0.2,2.2,0.6,3.1c0.4,1,1,1.8,1.7,2.6
	c0.7,0.7,1.6,1.3,2.6,1.7c1,0.4,2,0.6,3.1,0.6c1.1,0,2.2-0.2,3.1-0.6c1-0.4,1.8-1,2.6-1.7c0.7-0.7,1.3-1.6,1.7-2.6
	c0.4-1,0.6-2,0.6-3.1h16.1v-4H100.3z M83.9,103.5c-0.2,0.5-0.5,0.9-0.9,1.3c-0.4,0.4-0.8,0.7-1.3,0.9c-0.5,0.2-1,0.3-1.6,0.3
	c-0.6,0-1.1-0.1-1.6-0.3c-0.5-0.2-0.9-0.5-1.3-0.9c-0.4-0.4-0.7-0.8-0.9-1.3c-0.2-0.5-0.3-1-0.3-1.6h8
	C84.2,102.5,84.1,103,83.9,103.5z M96.2,97.9H64V73.8c0-2.2,0.4-4.3,1.3-6.3c0.8-1.9,2-3.7,3.5-5.1c1.5-1.5,3.2-2.6,5.1-3.5
	c1.9-0.8,4-1.3,6.3-1.3c2.2,0,4.3,0.4,6.3,1.3c1.9,0.8,3.7,2,5.1,3.5c1.5,1.5,2.6,3.2,3.5,5.1c0.8,1.9,1.3,4,1.3,6.3V97.9z"/>
</svg>
