<?xml version="1.0" encoding="utf-8"?>
<!-- Generator: Adobe Illustrator 21.1.0, SVG Export Plug-In . SVG Version: 6.00 Build 0)  -->
<svg version="1.1" id="Layer_1" xmlns="http://www.w3.org/2000/svg" xmlns:xlink="http://www.w3.org/1999/xlink" x="0px" y="0px"
	 viewBox="0 0 160 160" style="enable-background:new 0 0 160 160;" xml:space="preserve">
<style type="text/css">
	.st0{opacity:0.25;}
	.st1{fill:#537191;}
	.st2{fill:#2A3548;}
	.st3{fill:#F25C00;}
</style>
<g>
	<g class="st0">
		<g>
			<path class="st1" d="M148,54.1v57.8c0,2.2-0.4,4.4-1.4,6.4c-0.8,2-2,3.8-3.6,5.2c-1.4,1.4-3.2,2.6-5.2,3.6
				c-2,0.8-4.2,1.4-6.4,1.4H31.8c-2.2,0-4.2-0.4-6.2-1.2s-3.6-2-5-3.4s-2.6-3.2-3.4-5c-0.8-2-1.2-4-1.2-6.2V37.5h115.8v16.6H148z
				 M135.8,56.3h-8.2v45.4c0,1.2-0.4,2-1.2,3c-0.8,0.8-1.8,1.2-3,1.2s-2-0.4-3-1.2s-1.2-1.8-1.2-3v-62H20v66.4c0,1,0.2,2,0.6,3
				s1,1.8,1.6,2.4c0.8,0.8,1.6,1.2,2.4,1.6c1,0.4,2,0.6,3,0.6h99.5c1.2,0,2.2-0.2,3.2-0.6s1.8-1,2.6-1.8s1.4-1.6,1.8-2.6
				c0.4-1,0.6-2,0.6-3.2V56.3H135.8z"/>
		</g>
	</g>
	<g>
		<g>
			<path class="st2" d="M144,48.1v57.8c0,2.2-0.4,4.4-1.4,6.4c-0.8,2-2,3.8-3.6,5.2c-1.4,1.4-3.2,2.6-5.2,3.6
				c-2,0.8-4.2,1.4-6.4,1.4H27.8c-2.2,0-4.2-0.4-6.2-1.2s-3.6-2-5-3.4s-2.6-3.2-3.4-5c-0.8-2-1.2-4-1.2-6.2V31.5h115.8v16.6H144z
				 M135.8,56.3h-8.2v45.4c0,1.2-0.4,2-1.2,3c-0.8,0.8-1.8,1.2-3,1.2s-2-0.4-3-1.2s-1.2-1.8-1.2-3v-62H20v66.4c0,1,0.2,2,0.6,3
				s1,1.8,1.6,2.4c0.8,0.8,1.6,1.2,2.4,1.6c1,0.4,2,0.6,3,0.6h99.5c1.2,0,2.2-0.2,3.2-0.6s1.8-1,2.6-1.8s1.4-1.6,1.8-2.6
				c0.4-1,0.6-2,0.6-3.2V56.3H135.8z M110.9,56.3H28.4v-8.2h82.7v8.2H110.9z M110.9,72.7h-33v-8.2h33V72.7z M110.9,89.3h-33v-8.2h33
				V89.3z M110.9,105.7h-33v-8.2h33V105.7z"/>
		</g>
		<path class="st3" d="M28.4,64.3v41.4h41.3V64.3H28.4z M61.5,97.5H36.6v-25h24.8v25H61.5z"/>
	</g>
</g>
</svg>
