<?xml version="1.0" encoding="utf-8"?>
<!-- Generator: Adobe Illustrator 21.1.0, SVG Export Plug-In . SVG Version: 6.00 Build 0)  -->
<svg version="1.1" id="Layer_1" xmlns="http://www.w3.org/2000/svg" xmlns:xlink="http://www.w3.org/1999/xlink" x="0px" y="0px"
	 viewBox="0 0 160 160" style="enable-background:new 0 0 160 160;" xml:space="preserve">
<style type="text/css">
	.st0{fill:#2A3548;}
	.st1{fill:#F25C00;}
	.st2{fill:#1E2937;}
	.st3{fill:#CC4602;}
	.st4{fill:#D7DEED;}
</style>
<g>
	<g>
		<polygon class="st0" points="145.4,114.1 145.4,42.2 79.9,4.4 14.4,42.2 14.4,114.1 79.9,152 		"/>
		<polygon class="st1" points="14.4,109.5 79.9,147.3 145.4,109.5 145.4,117.8 79.9,155.7 14.4,117.8 		"/>
		<polygon class="st2" points="145.4,114.1 145.4,42.2 79.9,4.4 79.9,152 		"/>
		<polygon class="st3" points="145.4,117.8 145.4,109.5 79.9,147.3 79.9,155.7 		"/>
	</g>
</g>
<g>
	<path class="st2" d="M95.6,100.4c0.9,0,1.7,0.2,2.4,0.5c0.8,0.3,1.4,0.8,2,1.3c0.6,0.6,1,1.2,1.3,2c0.3,0.8,0.5,1.6,0.5,2.4
		c0,0.9-0.2,1.7-0.5,2.4c-0.3,0.8-0.8,1.4-1.3,2c-0.6,0.6-1.2,1-2,1.3c-0.8,0.3-1.6,0.5-2.4,0.5c-0.9,0-1.7-0.2-2.4-0.5
		c-0.8-0.3-1.4-0.8-2-1.3c-0.6-0.6-1-1.2-1.3-2c-0.3-0.8-0.5-1.6-0.5-2.4c0-0.7,0.1-1.4,0.4-2.1H72.5c0.2,0.7,0.4,1.4,0.4,2.1
		c0,0.9-0.2,1.7-0.5,2.4c-0.3,0.8-0.8,1.4-1.3,2c-0.6,0.6-1.2,1-2,1.3c-0.8,0.3-1.6,0.5-2.4,0.5c-0.9,0-1.7-0.2-2.4-0.5
		c-0.8-0.3-1.4-0.8-2-1.3c-0.6-0.6-1-1.2-1.3-2c-0.3-0.8-0.5-1.6-0.5-2.4c0-1.2,0.3-2.3,1-3.3c0.6-1,1.5-1.8,2.6-2.3L50.1,59.1H44
		V55h9.1l2.7,8.3H110l-9.6,28.9h-35l2.7,8.3H95.6z M55,63.7l7.2,23h35l7.2-23H55z"/>
</g>
<g>
	<path class="st4" d="M94.6,97.4c0.9,0,1.7,0.2,2.4,0.5c0.8,0.3,1.4,0.8,2,1.3c0.6,0.6,1,1.2,1.3,2c0.3,0.8,0.5,1.6,0.5,2.4
		c0,0.9-0.2,1.7-0.5,2.4c-0.3,0.8-0.8,1.4-1.3,2c-0.6,0.6-1.2,1-2,1.3c-0.8,0.3-1.6,0.5-2.4,0.5c-0.9,0-1.7-0.2-2.4-0.5
		c-0.8-0.3-1.4-0.8-2-1.3c-0.6-0.6-1-1.2-1.3-2c-0.3-0.8-0.5-1.6-0.5-2.4c0-0.7,0.1-1.4,0.4-2.1H71.5c0.2,0.7,0.4,1.4,0.4,2.1
		c0,0.9-0.2,1.7-0.5,2.4c-0.3,0.8-0.8,1.4-1.3,2c-0.6,0.6-1.2,1-2,1.3c-0.8,0.3-1.6,0.5-2.4,0.5c-0.9,0-1.7-0.2-2.4-0.5
		c-0.8-0.3-1.4-0.8-2-1.3c-0.6-0.6-1-1.2-1.3-2c-0.3-0.8-0.5-1.6-0.5-2.4c0-1.2,0.3-2.3,1-3.3c0.6-1,1.5-1.8,2.6-2.3L49.1,56.1H43
		V52h9.1l2.7,8.3H109l-9.6,28.9h-35l2.7,8.3H94.6z M56.2,64.4L63,85h33.4l6.9-20.6H56.2z M67.8,103.6c0-0.6-0.2-1-0.6-1.5
		c-0.4-0.4-0.9-0.6-1.5-0.6c-0.6,0-1,0.2-1.5,0.6c-0.4,0.4-0.6,0.9-0.6,1.5c0,0.6,0.2,1,0.6,1.5s0.9,0.6,1.5,0.6
		c0.6,0,1-0.2,1.5-0.6C67.5,104.6,67.8,104.1,67.8,103.6z M94.6,105.6c0.6,0,1-0.2,1.5-0.6c0.4-0.4,0.6-0.9,0.6-1.5
		c0-0.6-0.2-1-0.6-1.5c-0.4-0.4-0.9-0.6-1.5-0.6c-0.6,0-1,0.2-1.5,0.6c-0.4,0.4-0.6,0.9-0.6,1.5c0,0.6,0.2,1,0.6,1.5
		S94,105.6,94.6,105.6z"/>
</g>
</svg>
