<?xml version="1.0" encoding="utf-8"?>
<!-- Generator: Adobe Illustrator 21.1.0, SVG Export Plug-In . SVG Version: 6.00 Build 0)  -->
<svg version="1.1" id="Layer_1" xmlns="http://www.w3.org/2000/svg" xmlns:xlink="http://www.w3.org/1999/xlink" x="0px" y="0px"
	 viewBox="0 0 160 160" style="enable-background:new 0 0 160 160;" xml:space="preserve">
<style type="text/css">
	.st0{fill:#2A3548;}
	.st1{fill:#F25C00;}
	.st2{fill:#1E2937;}
	.st3{fill:#CC4602;}
	.st4{fill:#D7DEED;}
</style>
<g>
	<g>
		<polygon class="st0" points="145.4,114.1 145.4,42.2 79.9,4.4 14.4,42.2 14.4,114.1 79.9,152 		"/>
		<polygon class="st1" points="14.4,109.5 79.9,147.3 145.4,109.5 145.4,117.8 79.9,155.7 14.4,117.8 		"/>
		<polygon class="st2" points="145.4,114.1 145.4,42.2 79.9,4.4 79.9,152 		"/>
		<polygon class="st3" points="145.4,117.8 145.4,109.5 79.9,147.3 79.9,155.7 		"/>
	</g>
</g>
<g>
	<g>
		<path class="st2" d="M87,77c-1.7,0-3.2,0.3-4.7,0.9c-1.4,0.6-2.7,1.5-3.8,2.6c-1.1,1.1-2,2.4-2.6,3.8c-0.6,1.5-0.9,3-0.9,4.7
			c0,1.9-0.4,3.7-1.3,5.4c-0.9,1.7-2.1,3.1-3.6,4.3c1.4,0.7,2.6,1.5,3.7,2.5c1.1,1,2,2.1,2.8,3.4c0.8,1.2,1.4,2.6,1.8,4
			c0.4,1.4,0.6,2.9,0.6,4.4h-4c0-1.6-0.3-3.2-0.9-4.7c-0.6-1.5-1.5-2.7-2.6-3.8c-1.1-1.1-2.4-2-3.8-2.6c-1.5-0.6-3-0.9-4.7-0.9
			c-1.7,0-3.2,0.3-4.7,0.9c-1.4,0.6-2.7,1.5-3.8,2.6c-1.1,1.1-2,2.4-2.6,3.8c-0.6,1.5-0.9,3-0.9,4.7h-4c0-1.5,0.2-3,0.6-4.4
			c0.4-1.4,1-2.8,1.8-4c0.8-1.2,1.7-2.4,2.8-3.4c1.1-1,2.3-1.9,3.7-2.5c-1.5-1.1-2.7-2.6-3.6-4.3C51.4,92.7,51,90.9,51,89
			c0-1.6,0.3-3.2,0.9-4.7c0.6-1.5,1.5-2.7,2.6-3.8c1.1-1.1,2.4-2,3.8-2.6c1.4-0.6,3-0.9,4.7-0.9c1.9,0,3.7,0.4,5.4,1.3
			c1.7,0.9,3.1,2.1,4.3,3.6c0.8-1.6,1.8-3,3-4.2c1.2-1.2,2.6-2.2,4.2-3c-1.5-1.1-2.7-2.6-3.6-4.3C75.4,68.7,75,66.9,75,65
			c0-1.6,0.3-3.2,0.9-4.7c0.6-1.5,1.5-2.7,2.6-3.8c1.1-1.1,2.4-2,3.8-2.6c1.4-0.6,3-0.9,4.7-0.9c1.6,0,3.2,0.3,4.7,0.9
			c1.5,0.6,2.7,1.5,3.8,2.6c1.1,1.1,2,2.4,2.6,3.8c0.6,1.5,0.9,3,0.9,4.7c0,1.9-0.4,3.7-1.3,5.4c-0.9,1.7-2.1,3.1-3.6,4.3
			c1.4,0.7,2.6,1.5,3.7,2.5c1.1,1,2,2.1,2.8,3.4c0.8,1.2,1.4,2.6,1.8,4c0.4,1.4,0.6,2.9,0.6,4.4h-4c0-1.6-0.3-3.2-0.9-4.7
			c-0.6-1.5-1.5-2.7-2.6-3.8c-1.1-1.1-2.4-2-3.8-2.6C90.2,77.3,88.6,77,87,77z M63,97c1.1,0,2.1-0.2,3.1-0.6c1-0.4,1.8-1,2.5-1.7
			c0.7-0.7,1.3-1.6,1.7-2.5c0.4-1,0.6-2,0.6-3.1c0-1.1-0.2-2.1-0.6-3.1c-0.4-1-1-1.8-1.7-2.5c-0.7-0.7-1.6-1.3-2.5-1.7
			c-1-0.4-2-0.6-3.1-0.6c-1.1,0-2.1,0.2-3.1,0.6c-1,0.4-1.8,1-2.5,1.7c-0.7,0.7-1.3,1.6-1.7,2.5c-0.4,1-0.6,2-0.6,3.1
			c0,1.1,0.2,2.1,0.6,3.1c0.4,1,1,1.8,1.7,2.5s1.6,1.3,2.5,1.7C60.9,96.8,61.9,97,63,97z M79,65c0,1.1,0.2,2.1,0.6,3.1
			c0.4,1,1,1.8,1.7,2.5s1.6,1.3,2.5,1.7c1,0.4,2,0.6,3.1,0.6c1.1,0,2.1-0.2,3.1-0.6c1-0.4,1.8-1,2.5-1.7c0.7-0.7,1.3-1.6,1.7-2.5
			c0.4-1,0.6-2,0.6-3.1c0-1.1-0.2-2.1-0.6-3.1c-0.4-1-1-1.8-1.7-2.5c-0.7-0.7-1.6-1.3-2.5-1.7c-1-0.4-2-0.6-3.1-0.6
			c-1.1,0-2.1,0.2-3.1,0.6c-1,0.4-1.8,1-2.5,1.7c-0.7,0.7-1.3,1.6-1.7,2.5C79.2,62.9,79,63.9,79,65z"/>
	</g>
</g>
<g>
	<g>
		<path class="st4" d="M87,74c-1.7,0-3.2,0.3-4.7,0.9c-1.4,0.6-2.7,1.5-3.8,2.6c-1.1,1.1-2,2.4-2.6,3.8c-0.6,1.5-0.9,3-0.9,4.7
			c0,1.9-0.4,3.7-1.3,5.4c-0.9,1.7-2.1,3.1-3.6,4.3c1.4,0.7,2.6,1.5,3.7,2.5c1.1,1,2,2.1,2.8,3.4c0.8,1.2,1.4,2.6,1.8,4
			c0.4,1.4,0.6,2.9,0.6,4.4h-4c0-1.6-0.3-3.2-0.9-4.7c-0.6-1.5-1.5-2.7-2.6-3.8c-1.1-1.1-2.4-2-3.8-2.6c-1.5-0.6-3-0.9-4.7-0.9
			c-1.7,0-3.2,0.3-4.7,0.9c-1.4,0.6-2.7,1.5-3.8,2.6c-1.1,1.1-2,2.4-2.6,3.8c-0.6,1.5-0.9,3-0.9,4.7h-4c0-1.5,0.2-3,0.6-4.4
			c0.4-1.4,1-2.8,1.8-4c0.8-1.2,1.7-2.4,2.8-3.4c1.1-1,2.3-1.9,3.7-2.5c-1.5-1.1-2.7-2.6-3.6-4.3C51.4,89.7,51,87.9,51,86
			c0-1.6,0.3-3.2,0.9-4.7c0.6-1.5,1.5-2.7,2.6-3.8c1.1-1.1,2.4-2,3.8-2.6c1.4-0.6,3-0.9,4.7-0.9c1.9,0,3.7,0.4,5.4,1.3
			c1.7,0.9,3.1,2.1,4.3,3.6c0.8-1.6,1.8-3,3-4.2c1.2-1.2,2.6-2.2,4.2-3c-1.5-1.1-2.7-2.6-3.6-4.3C75.4,65.7,75,63.9,75,62
			c0-1.6,0.3-3.2,0.9-4.7c0.6-1.5,1.5-2.7,2.6-3.8c1.1-1.1,2.4-2,3.8-2.6c1.4-0.6,3-0.9,4.7-0.9c1.6,0,3.2,0.3,4.7,0.9
			c1.5,0.6,2.7,1.5,3.8,2.6c1.1,1.1,2,2.4,2.6,3.8c0.6,1.5,0.9,3,0.9,4.7c0,1.9-0.4,3.7-1.3,5.4c-0.9,1.7-2.1,3.1-3.6,4.3
			c1.4,0.7,2.6,1.5,3.7,2.5c1.1,1,2,2.1,2.8,3.4c0.8,1.2,1.4,2.6,1.8,4c0.4,1.4,0.6,2.9,0.6,4.4h-4c0-1.6-0.3-3.2-0.9-4.7
			c-0.6-1.5-1.5-2.7-2.6-3.8c-1.1-1.1-2.4-2-3.8-2.6C90.2,74.3,88.6,74,87,74z M63,94c1.1,0,2.1-0.2,3.1-0.6c1-0.4,1.8-1,2.5-1.7
			c0.7-0.7,1.3-1.6,1.7-2.5c0.4-1,0.6-2,0.6-3.1c0-1.1-0.2-2.1-0.6-3.1c-0.4-1-1-1.8-1.7-2.5c-0.7-0.7-1.6-1.3-2.5-1.7
			c-1-0.4-2-0.6-3.1-0.6c-1.1,0-2.1,0.2-3.1,0.6c-1,0.4-1.8,1-2.5,1.7c-0.7,0.7-1.3,1.6-1.7,2.5c-0.4,1-0.6,2-0.6,3.1
			c0,1.1,0.2,2.1,0.6,3.1c0.4,1,1,1.8,1.7,2.5s1.6,1.3,2.5,1.7C60.9,93.8,61.9,94,63,94z M79,62c0,1.1,0.2,2.1,0.6,3.1
			c0.4,1,1,1.8,1.7,2.5s1.6,1.3,2.5,1.7c1,0.4,2,0.6,3.1,0.6c1.1,0,2.1-0.2,3.1-0.6c1-0.4,1.8-1,2.5-1.7c0.7-0.7,1.3-1.6,1.7-2.5
			c0.4-1,0.6-2,0.6-3.1c0-1.1-0.2-2.1-0.6-3.1c-0.4-1-1-1.8-1.7-2.5c-0.7-0.7-1.6-1.3-2.5-1.7c-1-0.4-2-0.6-3.1-0.6
			c-1.1,0-2.1,0.2-3.1,0.6c-1,0.4-1.8,1-2.5,1.7c-0.7,0.7-1.3,1.6-1.7,2.5C79.2,59.9,79,60.9,79,62z"/>
	</g>
	<polygon class="st1" points="111,102 103,102 103,110 99,110 99,102 91,102 91,98 99,98 99,90 103,90 103,98 111,98 	"/>
</g>
</svg>
