<?xml version="1.0" encoding="utf-8"?>
<!-- Generator: Adobe Illustrator 21.1.0, SVG Export Plug-In . SVG Version: 6.00 Build 0)  -->
<svg version="1.1" id="Layer_1" xmlns="http://www.w3.org/2000/svg" xmlns:xlink="http://www.w3.org/1999/xlink" x="0px" y="0px"
	 viewBox="0 0 160 160" style="enable-background:new 0 0 160 160;" xml:space="preserve">
<style type="text/css">
	.st0{opacity:0.25;}
	.st1{fill:#537191;}
	.st2{fill:#2A3548;}
</style>
<g>
	<g class="st0">
		<g>
			<path class="st1" d="M113.5,109.9c1.6,0,3.1,0.4,4.3,0.9c1.4,0.5,2.5,1.4,3.6,2.3c1.1,1.1,1.8,2.2,2.3,3.6s0.9,2.9,0.9,4.3
				c0,1.6-0.4,3.1-0.9,4.3c-0.5,1.4-1.4,2.5-2.3,3.6c-1.1,1.1-2.2,1.8-3.6,2.3c-1.4,0.5-2.9,0.9-4.3,0.9c-1.6,0-3.1-0.4-4.3-0.9
				c-1.4-0.5-2.5-1.4-3.6-2.3c-1.1-1.1-1.8-2.2-2.3-3.6c-0.5-1.4-0.9-2.9-0.9-4.3c0-1.3,0.2-2.5,0.7-3.8H71.9
				c0.4,1.3,0.7,2.5,0.7,3.8c0,1.6-0.4,3.1-0.9,4.3c-0.5,1.4-1.4,2.5-2.3,3.6c-1.1,1.1-2.2,1.8-3.6,2.3c-1.4,0.5-2.9,0.9-4.3,0.9
				c-1.6,0-3.1-0.4-4.3-0.9c-1.4-0.5-2.5-1.4-3.6-2.3c-1.1-1.1-1.8-2.2-2.3-3.6c-0.5-1.4-0.9-2.9-0.9-4.3c0-2.2,0.5-4.1,1.8-5.9
				c1.1-1.8,2.7-3.2,4.7-4.1L31.6,35.2h-11v-7.4H37l4.9,15h97.6l-17.3,52.2h-63l4.9,15C64,110.1,113.5,109.9,113.5,109.9z
				 M44.4,49.2l12.2,37.2h60.1l12.4-37.2C129.1,49.2,44.4,49.2,44.4,49.2z"/>
		</g>
	</g>
	<g>
		<g>
			<path class="st2" d="M117.2,113.2c1.8,0,3.4,0.4,4.8,1c1.6,0.6,2.8,1.6,4,2.6c1.2,1.2,2,2.4,2.6,4c0.6,1.6,1,3.2,1,4.8
				c0,1.8-0.4,3.4-1,4.8c-0.6,1.6-1.6,2.8-2.6,4c-1.2,1.2-2.4,2-4,2.6c-1.6,0.6-3.2,1-4.8,1c-1.8,0-3.4-0.4-4.8-1
				c-1.6-0.6-2.8-1.6-4-2.6c-1.2-1.2-2-2.4-2.6-4c-0.6-1.6-1-3.2-1-4.8c0-1.4,0.2-2.8,0.8-4.2H71c0.4,1.4,0.8,2.8,0.8,4.2
				c0,1.8-0.4,3.4-1,4.8c-0.6,1.6-1.6,2.8-2.6,4c-1.2,1.2-2.4,2-4,2.6c-1.6,0.6-3.2,1-4.8,1c-1.8,0-3.4-0.4-4.8-1
				c-1.6-0.6-2.8-1.6-4-2.6c-1.2-1.2-2-2.4-2.6-4c-0.6-1.6-1-3.2-1-4.8c0-2.4,0.6-4.6,2-6.6c1.2-2,3-3.6,5.2-4.6l-28-84.2H14V22
				h18.2l5.4,16.7H146l-19.2,58.1h-70l5.4,16.7C62.2,113.5,117.2,113.2,117.2,113.2z M40.4,46.9L54,88.3h66.8l13.8-41.3
				C134.6,46.9,40.4,46.9,40.4,46.9z M63.6,125.6c0-1.2-0.4-2-1.2-3c-0.8-0.8-1.8-1.2-3-1.2s-2,0.4-3,1.2c-0.8,0.8-1.2,1.8-1.2,3
				s0.4,2,1.2,3c0.8,1,1.8,1.2,3,1.2s2-0.4,3-1.2C63,127.6,63.6,126.6,63.6,125.6z M117.2,129.7c1.2,0,2-0.4,3-1.2
				c0.8-0.8,1.2-1.8,1.2-3c0-1.2-0.4-2-1.2-3c-0.8-0.8-1.8-1.2-3-1.2s-2,0.4-3,1.2c-0.8,0.8-1.2,1.8-1.2,3c0,1.2,0.4,2,1.2,3
				C115,129.5,116,129.7,117.2,129.7z"/>
		</g>
	</g>
</g>
</svg>
