<?xml version="1.0" encoding="utf-8"?>
<!-- Generator: Adobe Illustrator 21.1.0, SVG Export Plug-In . SVG Version: 6.00 Build 0)  -->
<svg version="1.1" id="Layer_1" xmlns="http://www.w3.org/2000/svg" xmlns:xlink="http://www.w3.org/1999/xlink" x="0px" y="0px"
	 viewBox="0 0 160 160" style="enable-background:new 0 0 160 160;" xml:space="preserve">
<style type="text/css">
	.st0{opacity:0.25;fill:#537191;}
	.st1{fill:#2A3548;}
	.st2{fill:#F25C00;}
</style>
<g>
	<path class="st0" d="M71.3,30.5L14,88.1l49.1,49.4l11.2-11.2l18.8-18.9l27.2-27.3V30.5H71.3z M114.3,74.5l-25.6,25.7l-18.2,18.3
		l-5.4,5.4L27.6,86.1l49.1-49.4h37.6C114.3,36.7,114.3,74.5,114.3,74.5z"/>
	<g>
		<path class="st1" d="M71.3,22.5L14,80.1l49.1,49.4l11.2-11.2l18.8-18.9l27.2-27.3V22.5H71.3z M112.3,68.5L86.7,94.1l-18.2,18.3
			l-5.4,5.4L25.6,80.1l49.1-49.4h37.6C112.3,30.7,112.3,68.5,112.3,68.5z"/>
		<path class="st2" d="M104.7,121.4c-9.2,0-18.2-3-25.4-8.8c-2-1.6-2.2-4.4-0.8-6.4c1.6-2,4.4-2.2,6.4-0.8c6.4,5,14.6,7.4,22.8,6.8
			c8.6-0.8,16.4-4.8,21.8-11.4s8.2-15.1,7.4-23.7c-1.6-17.9-17.2-30.9-34.8-29.5c-2.4,0.2-4.6-1.6-4.8-4s1.6-4.6,4-4.8
			c22.6-2,42.5,14.9,44.5,37.7c1,11-2.4,21.7-9.6,30.1c-7,8.4-17,13.6-28,14.7C107.1,121.4,105.9,121.4,104.7,121.4z"/>
		<polygon class="st1" points="73.7,118.8 90.2,102.3 84.1,96.8 68.5,112.4 		"/>
	</g>
</g>
</svg>
