<?xml version="1.0" encoding="utf-8"?>
<!-- Generator: Adobe Illustrator 21.1.0, SVG Export Plug-In . SVG Version: 6.00 Build 0)  -->
<svg version="1.1" id="Layer_1" xmlns="http://www.w3.org/2000/svg" xmlns:xlink="http://www.w3.org/1999/xlink" x="0px" y="0px"
	 viewBox="0 0 160 160" style="enable-background:new 0 0 160 160;" xml:space="preserve">
<style type="text/css">
	.st0{fill:#2A3548;}
	.st1{fill:#F25C00;}
	.st2{fill:#1E2937;}
	.st3{fill:#CC4602;}
	.st4{fill:#D7DEED;}
</style>
<g>
	<g>
		<polygon class="st0" points="145.4,114.1 145.4,42.2 79.9,4.4 14.4,42.2 14.4,114.1 79.9,152 		"/>
		<polygon class="st1" points="14.4,109.5 79.9,147.3 145.4,109.5 145.4,117.8 79.9,155.7 14.4,117.8 		"/>
		<polygon class="st2" points="145.4,114.1 145.4,42.2 79.9,4.4 79.9,152 		"/>
		<polygon class="st3" points="145.4,117.8 145.4,109.5 79.9,147.3 79.9,155.7 		"/>
	</g>
</g>
<polygon class="st0" points="82.4,52.2 73.8,52.2 69.6,59.6 73.8,67.1 82.4,67.1 86.7,59.6 "/>
<path class="st0" d="M62.8,62l46,0.1c0,0,1.1,10.9,0.8,10.9s-7.6,1.5-7.6,1.5l-4.8,5.3l0.5,6.6l5,4.4l6.8,0.1l-0.1,11.9l-23.1-0.4
	l-3.4,5.8l-8.9-0.3l-3.3-5.1l-8.1-0.8l-2.4-2.5l0.1-7.9l-6.4-1.4L50,87l-1.3-4.5l1-4.6l3.4-2l7.4-0.9L62.8,62z"/>
<path class="st2" d="M102.6,80.8c0.6-0.5,1.2-1,1.9-1.3c0.7-0.3,1.5-0.5,2.4-0.5h6.1V62.7H85.2l-0.9,4.1h24.6v8.1h-2
	c-1.4,0-2.7,0.3-4,0.8c-1.2,0.5-2.3,1.3-3.2,2.2c-0.9,0.9-1.6,2-2.2,3.2c-0.5,1.2-0.8,2.5-0.8,3.9s0.3,2.7,0.8,4
	c0.5,1.2,1.3,2.3,2.2,3.2c0.9,0.9,2,1.6,3.2,2.2c1.2,0.5,2.6,0.8,4,0.8h2v8.1L87,103.4l-3.2,5.6h-6.4l-3.2-5.6l-7.9-0.1
	c-0.6,0-1-0.2-1.4-0.6c-0.4-0.4-0.6-0.9-0.6-1.4V91.2h-6.1c-0.8,0-1.6-0.2-2.4-0.5c-0.7-0.3-1.4-0.8-1.9-1.3c-0.6-0.5-1-1.2-1.3-1.9
	c-0.3-0.7-0.5-1.5-0.5-2.4c0-0.8,0.2-1.6,0.5-2.4c0.3-0.7,0.8-1.4,1.3-1.9c0.6-0.5,1.2-1,1.9-1.3c0.7-0.3,1.5-0.5,2.4-0.5h6.1V68.8
	c0-0.5,0.2-1,0.6-1.4c0.4-0.4,0.9-0.6,1.4-0.6h7.9l-2.1-4.1h-5.8c-0.8,0-1.6,0.2-2.4,0.5c-0.7,0.3-1.4,0.8-1.9,1.3
	c-0.6,0.6-1,1.2-1.3,1.9c-0.3,0.7-0.5,1.5-0.5,2.4v6.1h-2c-1.4,0-2.7,0.3-4,0.8C53,76.3,51.9,77,51,77.9c-0.9,0.9-1.6,2-2.2,3.2
	c-0.5,1.2-0.8,2.5-0.8,3.9s0.3,2.7,0.8,4c0.5,1.2,1.3,2.3,2.2,3.2c0.9,0.9,2,1.6,3.2,2.2c1.2,0.5,2.6,0.8,4,0.8h2v6.1
	c0,0.8,0.2,1.6,0.5,2.4c0.3,0.7,0.8,1.4,1.3,1.9c0.6,0.6,1.2,1,1.9,1.3c0.7,0.3,1.5,0.5,2.4,0.5h5.6l3.2,5.6h11.1l3.2-5.6H113V91.2
	h-6.1c-0.8,0-1.6-0.2-2.4-0.5c-0.7-0.3-1.4-0.8-1.9-1.3c-0.6-0.5-1-1.2-1.3-1.9c-0.3-0.7-0.5-1.5-0.5-2.4c0-0.8,0.2-1.6,0.5-2.4
	C101.6,82,102,81.3,102.6,80.8z"/>
<g>
	<path class="st4" d="M100.6,77.8c0.6-0.5,1.2-1,1.9-1.3c0.7-0.3,1.5-0.5,2.4-0.5h6.1V59.7H87.2l-0.9,4.1h20.6v8.1h-2
		c-1.4,0-2.7,0.3-4,0.8c-1.2,0.5-2.3,1.3-3.2,2.2c-0.9,0.9-1.6,2-2.2,3.2c-0.5,1.2-0.8,2.5-0.8,3.9s0.3,2.7,0.8,4
		c0.5,1.2,1.3,2.3,2.2,3.2c0.9,0.9,2,1.6,3.2,2.2c1.2,0.5,2.6,0.8,4,0.8h2v8.1L85,100.4l-3.2,5.6h-6.4l-3.2-5.6l-7.9-0.1
		c-0.6,0-1-0.2-1.4-0.6c-0.4-0.4-0.6-0.9-0.6-1.4V88.2h-6.1c-0.8,0-1.6-0.2-2.4-0.5c-0.7-0.3-1.4-0.8-1.9-1.3
		c-0.6-0.5-1-1.2-1.3-1.9c-0.3-0.7-0.5-1.5-0.5-2.4c0-0.8,0.2-1.6,0.5-2.4c0.3-0.7,0.8-1.4,1.3-1.9c0.6-0.5,1.2-1,1.9-1.3
		c0.7-0.3,1.5-0.5,2.4-0.5h6.1V65.8c0-0.5,0.2-1,0.6-1.4c0.4-0.4,0.9-0.6,1.4-0.6h7.9l-2.1-4.1h-5.8c-0.8,0-1.6,0.2-2.4,0.5
		c-0.7,0.3-1.4,0.8-1.9,1.3c-0.6,0.6-1,1.2-1.3,1.9c-0.3,0.7-0.5,1.5-0.5,2.4v6.1h-2c-1.4,0-2.7,0.3-4,0.8C51,73.3,49.9,74,49,74.9
		c-0.9,0.9-1.6,2-2.2,3.2c-0.5,1.2-0.8,2.5-0.8,3.9s0.3,2.7,0.8,4c0.5,1.2,1.3,2.3,2.2,3.2c0.9,0.9,2,1.6,3.2,2.2
		c1.2,0.5,2.6,0.8,4,0.8h2v6.1c0,0.8,0.2,1.6,0.5,2.4c0.3,0.7,0.8,1.4,1.3,1.9c0.6,0.6,1.2,1,1.9,1.3c0.7,0.3,1.5,0.5,2.4,0.5h5.6
		l3.2,5.6h11.1l3.2-5.6H111V88.2h-6.1c-0.8,0-1.6-0.2-2.4-0.5c-0.7-0.3-1.4-0.8-1.9-1.3c-0.6-0.5-1-1.2-1.3-1.9
		c-0.3-0.7-0.5-1.5-0.5-2.4c0-0.8,0.2-1.6,0.5-2.4C99.6,79,100,78.3,100.6,77.8z"/>
	<path class="st1" d="M84.1,50H73.1l-5.5,9.6l5.5,9.6h11.1l5.5-9.6L84.1,50z M81.8,65.1h-6.4l-3.2-5.6l3.2-5.6h6.4l3.2,5.6
		L81.8,65.1z"/>
</g>
</svg>
