<?xml version="1.0" encoding="utf-8"?>
<!-- Generator: Adobe Illustrator 21.1.0, SVG Export Plug-In . SVG Version: 6.00 Build 0)  -->
<svg version="1.1" id="Layer_1" xmlns="http://www.w3.org/2000/svg" xmlns:xlink="http://www.w3.org/1999/xlink" x="0px" y="0px"
	 viewBox="0 0 160 160" style="enable-background:new 0 0 160 160;" xml:space="preserve">
<style type="text/css">
	.st0{fill:#E4EAF6;}
	.st1{opacity:0.25;fill:#537191;}
	.st2{fill:#F25C00;}
	.st3{fill:#2A3548;}
</style>
<g>
	<g>
		<polygon class="st0" points="123,138.5 140.4,138.5 140.4,56.8 123,74.3 		"/>
		<polygon class="st0" points="71.6,138.5 88.8,138.5 88.8,100.6 71.6,83.1 		"/>
		<polygon class="st1" points="45.8,138.5 63,138.5 63,83.5 45.8,101 		"/>
		<polygon class="st0" points="97.2,138.5 114.6,138.5 114.6,82.7 97.2,100.2 		"/>
		<polygon class="st1" points="122.9,138.5 140.3,138.5 140.3,56.8 122.9,74.3 		"/>
		<polygon class="st1" points="71.5,138.5 88.7,138.5 88.7,100.6 71.5,83.1 		"/>
		<polygon class="st1" points="97.1,138.5 114.5,138.5 114.5,82.7 97.1,100.2 		"/>
		<polygon class="st1" points="20,138.5 37.4,138.5 37.4,109.4 20,126.7 		"/>
	</g>
	<g>
		<polygon class="st2" points="146,21.5 116.8,21.5 116.8,29.9 131.6,29.9 86.8,74.9 61.4,49.4 14,97.2 14,109 61.4,61.4 86.8,86.9 
			137.6,35.9 137.6,50.8 146,50.8 		"/>
		<polygon class="st3" points="117,132.5 134.4,132.5 134.4,50.8 117,68.3 		"/>
		<polygon class="st3" points="65.6,132.5 82.8,132.5 82.8,94.5 65.6,77.1 		"/>
		<polygon class="st3" points="39.8,132.5 57,132.5 57,77.5 39.8,95 		"/>
		<polygon class="st3" points="91.2,132.5 108.6,132.5 108.6,76.7 91.2,94.1 		"/>
		<polygon class="st3" points="14,132.5 31.4,132.5 31.4,103.4 14,120.6 		"/>
	</g>
</g>
</svg>
