<?xml version="1.0" encoding="utf-8"?>
<!-- Generator: Adobe Illustrator 21.1.0, SVG Export Plug-In . SVG Version: 6.00 Build 0)  -->
<svg version="1.1" id="Layer_1" xmlns="http://www.w3.org/2000/svg" xmlns:xlink="http://www.w3.org/1999/xlink" x="0px" y="0px"
	 viewBox="0 0 160 160" style="enable-background:new 0 0 160 160;" xml:space="preserve">
<style type="text/css">
	.st0{fill:#2A3548;}
	.st1{fill:#F25C00;}
	.st2{fill:#1E2937;}
	.st3{fill:#CC4602;}
	.st4{fill:#D7DEED;}
</style>
<g>
	<g>
		<polygon class="st0" points="145.4,114.1 145.4,42.2 79.9,4.4 14.4,42.2 14.4,114.1 79.9,152 		"/>
		<polygon class="st1" points="14.4,109.5 79.9,147.3 145.4,109.5 145.4,117.8 79.9,155.7 14.4,117.8 		"/>
		<polygon class="st2" points="145.4,114.1 145.4,42.2 79.9,4.4 79.9,152 		"/>
		<polygon class="st3" points="145.4,117.8 145.4,109.5 79.9,147.3 79.9,155.7 		"/>
	</g>
</g>
<polygon class="st0" points="80.1,81.4 85.1,84.9 84.8,90.3 79.6,94 "/>
<g>
	<g>
		<path class="st2" d="M55.5,83.1c0,2.6,0.4,5.1,1.2,7.5c0.8,2.4,1.9,4.6,3.3,6.7c1.4,2,3.1,3.8,5.1,5.4c2,1.6,4.2,2.8,6.6,3.7
			l-1.4,3.9c-2.8-1-5.4-2.5-7.7-4.3c-2.3-1.8-4.3-3.9-6-6.3c-1.7-2.4-2.9-5-3.8-7.8c-0.9-2.8-1.4-5.7-1.4-8.7c0-2.3,0.3-4.6,0.8-6.8
			c0.5-2.2,1.3-4.3,2.4-6.3c1-2,2.3-3.8,3.7-5.5c1.5-1.7,3.1-3.2,4.9-4.6c1.8-1.3,3.7-2.4,5.8-3.3c2.1-0.9,4.3-1.5,6.6-1.9l-4.5-4.5
			h5.8l8.3,8.3h-5c-2.3,0-4.5,0.3-6.6,0.9c-2.1,0.6-4.1,1.4-5.9,2.5c-1.8,1.1-3.5,2.4-5,3.9c-1.5,1.5-2.8,3.2-3.9,5
			c-1.1,1.8-1.9,3.8-2.5,5.9C55.8,78.6,55.5,80.8,55.5,83.1z"/>
	</g>
</g>
<g>
	<g>
		<path class="st4" d="M54.1,80c0,2.6,0.4,5.1,1.2,7.5c0.8,2.4,1.9,4.6,3.3,6.7c1.4,2,3.1,3.8,5.1,5.4c2,1.6,4.2,2.8,6.6,3.7
			l-1.4,3.9c-2.8-1-5.4-2.5-7.7-4.3c-2.3-1.8-4.3-3.9-6-6.3c-1.7-2.4-2.9-5-3.8-7.8C50.5,85.9,50,83,50,80c0-2.3,0.3-4.6,0.8-6.8
			c0.5-2.2,1.3-4.3,2.4-6.3c1-2,2.3-3.8,3.7-5.5c1.5-1.7,3.1-3.2,4.9-4.6c1.8-1.3,3.7-2.4,5.8-3.3c2.1-0.9,4.3-1.5,6.6-1.9L69.8,47
			h5.8l8.3,8.3h-5c-2.3,0-4.5,0.3-6.6,0.9c-2.1,0.6-4.1,1.4-5.9,2.5c-1.8,1.1-3.5,2.4-5,3.9c-1.5,1.5-2.8,3.2-3.9,5
			c-1.1,1.8-1.9,3.8-2.5,5.9C54.4,75.5,54.1,77.7,54.1,80z M107.8,80c0,2.3-0.3,4.6-0.8,6.8c-0.5,2.2-1.3,4.3-2.4,6.3
			c-1,2-2.3,3.8-3.7,5.5c-1.5,1.7-3.1,3.2-4.9,4.6c-1.8,1.3-3.7,2.4-5.8,3.4c-2.1,0.9-4.3,1.5-6.6,1.9L88,113h-5.8l-8.3-8.3h5
			c2.3,0,4.5-0.3,6.6-0.9c2.1-0.6,4.1-1.4,5.9-2.5c1.8-1.1,3.5-2.4,5-3.9c1.5-1.5,2.8-3.2,3.9-5c1.1-1.8,1.9-3.8,2.5-5.9
			c0.6-2.1,0.9-4.3,0.9-6.6c0-2.6-0.4-5.1-1.2-7.5c-0.8-2.4-1.9-4.6-3.3-6.7S96,62,94,60.5c-2-1.6-4.2-2.8-6.6-3.7l1.4-3.9
			c2.8,1,5.4,2.5,7.7,4.3c2.3,1.8,4.3,3.9,6,6.3c1.7,2.4,2.9,5,3.8,7.8S107.8,77,107.8,80z"/>
	</g>
	<path class="st1" d="M87.5,84.3c-0.4-0.9-1-1.6-1.7-2.3c-0.7-0.7-1.5-1.3-2.3-1.8c-0.9-0.5-1.7-1-2.6-1.5V67.9
		c0.7,0.2,1.4,0.6,1.9,1c0.6,0.5,1.1,1,1.6,1.5l3.2-2.6c-0.9-1.1-1.9-1.9-3-2.7c-1.1-0.7-2.4-1.2-3.7-1.5v-4.3h-4.1v4.4
		c-1.1,0.2-2.1,0.6-2.9,1.2c-0.9,0.6-1.6,1.3-2.3,2c-0.6,0.8-1.1,1.7-1.5,2.7c-0.4,1-0.5,2-0.5,3.1s0.2,2.1,0.6,2.9
		c0.4,0.9,1,1.6,1.7,2.3c0.7,0.7,1.5,1.3,2.3,1.8c0.9,0.5,1.7,1,2.6,1.5v10.8c-0.7-0.2-1.4-0.6-1.9-1c-0.6-0.5-1.1-1-1.6-1.5
		l-3.2,2.6c0.9,1.1,1.9,1.9,3,2.7c1.1,0.7,2.4,1.2,3.7,1.5v4.3h4.1v-4.4c1.1-0.2,2-0.6,2.9-1.2c0.9-0.6,1.6-1.3,2.3-2.1
		c0.6-0.8,1.1-1.7,1.5-2.7c0.4-1,0.5-2,0.5-3.1C88.2,86.1,87.9,85.1,87.5,84.3z M76.8,76.6c-0.3-0.2-0.7-0.4-1-0.7
		c-0.4-0.3-0.7-0.6-1-0.9c-0.3-0.3-0.6-0.7-0.8-1.1c-0.2-0.4-0.3-0.8-0.3-1.2c0-1,0.3-2,0.8-2.8c0.6-0.8,1.3-1.5,2.3-1.9V76.6z
		 M83.2,90c-0.6,0.8-1.3,1.5-2.2,1.9v-8.6c0.3,0.2,0.7,0.4,1,0.7c0.4,0.3,0.7,0.6,1,0.9c0.3,0.3,0.6,0.7,0.8,1.1
		c0.2,0.4,0.3,0.8,0.3,1.2C84,88.3,83.7,89.2,83.2,90z"/>
</g>
</svg>
