<?xml version="1.0" encoding="utf-8"?>
<!-- Generator: Adobe Illustrator 21.1.0, SVG Export Plug-In . SVG Version: 6.00 Build 0)  -->
<svg version="1.1" id="Layer_1" xmlns="http://www.w3.org/2000/svg" xmlns:xlink="http://www.w3.org/1999/xlink" x="0px" y="0px"
	 viewBox="0 0 160 160" style="enable-background:new 0 0 160 160;" xml:space="preserve">
<style type="text/css">
	.st0{opacity:0.25;}
	.st1{fill:#537191;}
	.st2{fill:#2A3548;}
</style>
<g>
	<g class="st0">
		<g>
			<path class="st1" d="M116.7,69.9c1.8-0.4,3.6-0.2,5.2,0.2s3.2,1.1,4.7,2.2c1.4,1.1,2.5,2.2,3.6,3.8c0.9,1.4,1.6,3.1,1.8,5.1
				c0.4,1.8,0.2,3.6-0.2,5.2s-1.1,3.2-2.2,4.7c-1.1,1.4-2.2,2.5-3.8,3.6c-1.4,0.9-3.1,1.6-5,1.8c-1.8,0.4-3.4,0.2-5-0.2
				c-1.6-0.4-3.1-1.1-4.5-1.8c-1.4-0.9-2.5-2-3.6-3.4c-1.1-1.3-1.6-2.9-2.2-4.5h-7.9c-0.4,2.5-1.3,4.9-2.7,6.9c-1.3,2.2-3.1,4-5,5.6
				l4.5,8.4c0.2,0,0.4-0.2,0.5-0.2s0.4,0,0.5,0c1.8-0.4,3.6-0.2,5.2,0.2c1.6,0.4,3.2,1.1,4.7,2.2s2.5,2.2,3.6,3.8
				c0.9,1.4,1.6,3.1,1.8,5.1c0.4,1.8,0.2,3.6-0.2,5.2c-0.4,1.6-1.1,3.2-2.2,4.7c-1.1,1.4-2.2,2.5-3.8,3.6c-1.4,0.9-3.1,1.6-5,1.8
				c-1.8,0.4-3.6,0.2-5.2-0.2c-1.6-0.4-3.2-1.1-4.7-2.2s-2.5-2.2-3.6-3.8c-0.9-1.4-1.6-3.1-1.8-5.1c-0.4-2.3-0.2-4.5,0.5-6.7
				c0.7-2.2,2-4,3.6-5.4l-4.5-8.4c-0.5,0.2-0.9,0.4-1.4,0.4s-1.1,0.2-1.6,0.4c-3.2,0.5-6.3,0.4-9.4-0.7c-3.1-0.9-5.8-2.5-7.9-4.9
				l-9.9,6.9c0.4,0.9,0.5,1.8,0.7,2.7c0.4,1.8,0.2,3.6-0.2,5.2s-1.1,3.2-2.2,4.7c-1.1,1.4-2.2,2.5-3.8,3.6c-1.4,0.9-3.1,1.6-5,1.8
				c-1.8,0.4-3.6,0.2-5.2-0.2s-3.2-1.1-4.7-2.2c-1.4-1.1-2.5-2.2-3.6-3.8c-0.9-1.4-1.6-3.1-1.8-5.1c-0.4-1.8-0.2-3.6,0.2-5.2
				c0.4-1.6,1.1-3.2,2.2-4.7c1.1-1.4,2.2-2.5,3.8-3.6c1.4-0.9,3.1-1.6,5-1.8c2-0.4,3.8-0.2,5.6,0.4c1.8,0.5,3.6,1.4,5,2.5l9.9-7.1
				c-0.9-1.8-1.4-3.8-1.8-5.6c-0.4-2.5-0.4-4.9,0.2-7.1c0.5-2.3,1.4-4.7,2.7-6.7l-7-6.5c-1.6,1.1-3.4,1.8-5.2,2.2s-3.6,0.2-5.2-0.2
				s-3.2-1.1-4.7-2.2s-2.5-2.2-3.6-3.8c-0.9-1.4-1.6-3.1-1.8-5.1c-0.4-1.8-0.2-3.6,0.2-5.2c0.4-1.6,1.1-3.2,2.2-4.7
				c1.1-1.4,2.2-2.5,3.8-3.6c1.4-0.9,3.1-1.6,5-1.8c1.8-0.4,3.6-0.2,5.2,0.2s3.2,1.1,4.7,2.2c1.4,1.1,2.5,2.2,3.6,3.8
				c0.9,1.4,1.6,3.1,1.8,5.1c0.5,2.9,0,5.8-1.3,8.2l7.4,6.8c1.3-1.1,2.9-2,4.3-2.5c1.6-0.7,3.2-1.3,4.9-1.4c2.9-0.5,5.6-0.4,8.3,0.4
				l6.3-14c-1.3-1.1-2.3-2.2-3.1-3.6c-0.9-1.4-1.4-2.9-1.6-4.7c-0.4-1.8-0.2-3.6,0.2-5.2c0.4-1.6,1.1-3.2,2.2-4.7
				c1.1-1.4,2.2-2.5,3.8-3.6c1.4-0.9,3.1-1.6,5-1.8c1.8-0.4,3.6-0.2,5.2,0.2s3.2,1.1,4.7,2.2s2.5,2.2,3.6,3.8
				c0.9,1.4,1.6,3.1,1.8,5.1c0.4,1.8,0.2,3.6-0.2,5.2c-0.4,1.6-1.1,3.2-2.2,4.7c-1.1,1.4-2.2,2.5-3.8,3.6c-1.4,0.9-3.1,1.6-5,1.8
				c-1.4,0.2-2.9,0.2-4.5,0l-6.5,14c2.3,1.4,4.1,3.4,5.8,5.8c1.4,2.3,2.5,4.9,2.9,7.5h7.9c0.4-1.3,0.9-2.5,1.4-3.6
				c0.7-1.1,1.4-2.2,2.3-2.9c0.9-0.9,2-1.6,3.1-2.2C114,70.7,115.3,70.1,116.7,69.9z M42.9,115.9c0.9-0.2,1.8-0.5,2.5-0.9
				c0.7-0.5,1.4-1.1,1.8-1.8c0.5-0.7,0.9-1.4,1.1-2.3c0.2-0.9,0.2-1.8,0.2-2.7c-0.2-0.9-0.5-1.8-0.9-2.5c-0.5-0.7-1.1-1.3-1.8-1.8
				c-0.7-0.5-1.4-0.9-2.3-1.1c-0.9-0.2-1.8-0.2-2.7-0.2c-0.9,0.2-1.8,0.5-2.5,0.9c-0.7,0.5-1.4,1.1-1.8,1.8
				c-0.5,0.7-0.9,1.4-1.1,2.3c-0.2,0.9-0.2,1.8-0.2,2.7c0.2,0.9,0.5,1.8,0.9,2.5c0.5,0.7,1.1,1.4,1.8,1.8c0.7,0.5,1.4,0.9,2.3,1.1
				S42,116,42.9,115.9z M39.9,55.6c0.2,0.9,0.5,1.8,0.9,2.5c0.5,0.7,1.1,1.4,1.8,1.8c0.7,0.5,1.4,0.9,2.3,1.1
				c0.9,0.2,1.8,0.2,2.7,0.2c0.9-0.2,1.8-0.5,2.5-0.9c0.7-0.5,1.4-1.1,1.8-1.8c0.5-0.7,0.9-1.4,1.1-2.3c0.2-0.9,0.2-1.8,0.2-2.7
				c-0.2-0.9-0.5-1.8-0.9-2.5c-0.5-0.7-1.1-1.3-1.8-1.8c-0.7-0.5-1.4-0.9-2.3-1.1s-1.8-0.2-2.7-0.2s-1.8,0.5-2.5,0.9
				c-0.7,0.5-1.4,1.1-1.8,1.8c-0.5,0.7-0.9,1.4-1.1,2.3C39.7,53.8,39.7,54.7,39.9,55.6z M80.4,96.1c1.8-0.4,3.4-0.9,5-1.8
				c1.4-0.9,2.7-2.2,3.8-3.6c1.1-1.4,1.8-2.9,2.2-4.7c0.4-1.6,0.5-3.4,0.2-5.2c-0.4-1.8-0.9-3.4-1.8-5.1c-0.9-1.4-2.2-2.7-3.6-3.8
				c-1.4-1.1-2.9-1.8-4.7-2.2c-1.6-0.4-3.4-0.5-5.2-0.2c-1.8,0.4-3.4,0.9-5,1.8c-1.4,0.9-2.7,2.2-3.8,3.6c-1.1,1.4-1.8,2.9-2.2,4.7
				c-0.5,1.8-0.5,3.6-0.2,5.4c0.4,1.8,0.9,3.4,1.8,5.1c0.9,1.4,2.2,2.7,3.6,3.8c1.4,1.1,2.9,1.8,4.7,2.2
				C76.8,96.5,78.6,96.5,80.4,96.1z M104.5,119.2c-0.2-0.9-0.5-1.8-0.9-2.5c-0.5-0.7-1.1-1.3-1.8-1.8c-0.7-0.5-1.4-0.9-2.3-1.1
				s-1.8-0.2-2.7-0.2c-0.9,0.2-1.8,0.5-2.5,0.9c-0.7,0.5-1.4,1.1-1.8,1.8c-0.5,0.7-0.9,1.4-1.1,2.3c-0.2,0.9-0.2,1.8-0.2,2.7
				c0.2,0.9,0.5,1.8,0.9,2.5c0.5,0.7,1.1,1.4,1.8,1.8c0.7,0.5,1.4,0.9,2.3,1.1s1.8,0.2,2.7,0.2c0.9-0.2,1.8-0.5,2.5-0.9
				c0.7-0.5,1.4-1.1,1.8-1.8c0.5-0.7,0.9-1.4,1.1-2.3C104.7,121,104.7,120.1,104.5,119.2z M96.9,32.9c-0.9,0.2-1.8,0.5-2.5,0.9
				c-0.7,0.5-1.4,1.1-1.8,1.8c-0.5,0.7-0.9,1.4-1.1,2.3c-0.2,0.9-0.2,1.8-0.2,2.7c0.2,0.9,0.5,1.8,0.9,2.5c0.5,0.7,1.1,1.4,1.8,1.8
				c0.7,0.5,1.4,0.9,2.3,1.1s1.8,0.2,2.7,0.2s1.8-0.5,2.5-0.9c0.7-0.5,1.4-1.1,1.8-1.8c0.5-0.7,0.9-1.4,1.1-2.3
				c0.2-0.9,0.2-1.8,0.2-2.7c-0.2-0.9-0.5-1.8-0.9-2.5c-0.5-0.7-1.1-1.3-1.8-1.8s-1.4-0.9-2.3-1.1C98.7,32.7,97.8,32.7,96.9,32.9z
				 M119.9,89.6c0.9-0.2,1.8-0.5,2.5-0.9c0.7-0.5,1.4-1.1,1.8-1.8c0.5-0.7,0.9-1.4,1.1-2.3c0.2-0.9,0.2-1.8,0.2-2.7
				c-0.2-0.9-0.5-1.8-0.9-2.5c-0.5-0.7-1.1-1.3-1.8-1.8c-0.7-0.5-1.4-0.9-2.3-1.1c-0.9-0.2-1.8-0.2-2.7-0.2
				c-0.9,0.2-1.8,0.5-2.5,0.9c-0.7,0.5-1.4,1.1-1.8,1.8c-0.5,0.7-0.9,1.4-1.1,2.3s-0.2,1.8-0.2,2.7c0.2,0.9,0.5,1.8,0.9,2.5
				c0.5,0.7,1.1,1.4,1.8,1.8c0.7,0.5,1.4,0.9,2.3,1.1C118.1,89.8,118.9,89.8,119.9,89.6z"/>
		</g>
	</g>
	<g>
		<g>
			<path class="st2" d="M120.8,68.8c2-0.4,4-0.2,5.8,0.2c1.8,0.4,3.6,1.2,5.2,2.4c1.6,1.2,2.8,2.4,4,4.2c1,1.6,1.8,3.4,2,5.6
				c0.4,2,0.2,4-0.2,5.8s-1.2,3.6-2.4,5.2c-1.2,1.6-2.4,2.8-4.2,4c-1.6,1-3.4,1.8-5.6,2c-2,0.4-3.8,0.2-5.6-0.2
				c-1.8-0.4-3.4-1.2-5-2c-1.6-1-2.8-2.2-4-3.8c-1.2-1.4-1.8-3.2-2.4-5h-8.8c-0.4,2.8-1.4,5.4-3,7.7c-1.4,2.4-3.4,4.4-5.6,6.2l5,9.3
				c0.2,0,0.4-0.2,0.6-0.2s0.4,0,0.6,0c2-0.4,4-0.2,5.8,0.2c1.8,0.4,3.6,1.2,5.2,2.4c1.6,1.2,2.8,2.4,4,4.2c1,1.6,1.8,3.4,2,5.6
				c0.4,2,0.2,4-0.2,5.8c-0.4,1.8-1.2,3.6-2.4,5.2c-1.2,1.6-2.4,2.8-4.2,4c-1.6,1-3.4,1.8-5.6,2c-2,0.4-4,0.2-5.8-0.2
				c-1.8-0.4-3.6-1.2-5.2-2.4s-2.8-2.4-4-4.2c-1-1.6-1.8-3.4-2-5.6c-0.4-2.6-0.2-5,0.6-7.4c0.8-2.4,2.2-4.4,4-6l-5-9.3
				c-0.6,0.2-1,0.4-1.6,0.4s-1.2,0.2-1.8,0.4c-3.6,0.6-7,0.4-10.4-0.8c-3.4-1-6.4-2.8-8.8-5.4l-11,7.7c0.4,1,0.6,2,0.8,3
				c0.4,2,0.2,4-0.2,5.8c-0.4,1.8-1.2,3.6-2.4,5.2c-1.2,1.6-2.4,2.8-4.2,4c-1.6,1-3.4,1.8-5.6,2c-2,0.4-4,0.2-5.8-0.2
				c-1.8-0.4-3.6-1.2-5.2-2.4c-1.6-1.2-2.8-2.4-4-4.2c-1-1.6-1.8-3.4-2-5.6c-0.4-2-0.2-4,0.2-5.8c0.4-1.8,1.2-3.6,2.4-5.2
				c1.2-1.6,2.4-2.8,4.2-4c1.6-1,3.4-1.8,5.6-2c2.2-0.4,4.2-0.2,6.2,0.4c2,0.6,4,1.6,5.6,2.8l11-7.9c-1-2-1.6-4.2-2-6.2
				c-0.4-2.8-0.4-5.4,0.2-7.9c0.6-2.6,1.6-5.2,3-7.4L50.8,64C49,65.2,47,66,45,66.4c-2,0.4-4,0.2-5.8-0.2c-1.8-0.4-3.6-1.2-5.2-2.4
				s-2.8-2.4-4-4.2c-1-1.6-1.8-3.4-2-5.6c-0.4-2-0.2-4,0.2-5.8c0.4-1.8,1.2-3.6,2.4-5.2c1.2-1.6,2.4-2.8,4.2-4c1.6-1,3.4-1.8,5.6-2
				c2-0.4,4-0.2,5.8,0.2c1.8,0.4,3.6,1.2,5.2,2.4c1.6,1.2,2.8,2.4,4,4.2c1,1.6,1.8,3.4,2,5.6c0.6,3.2,0,6.4-1.4,9.1l8.2,7.5
				c1.4-1.2,3.2-2.2,4.8-2.8c1.8-0.8,3.6-1.4,5.4-1.6c3.2-0.6,6.2-0.4,9.2,0.4l7-15.5c-1.4-1.2-2.6-2.4-3.4-4
				c-1-1.6-1.6-3.2-1.8-5.2c-0.4-2-0.2-4,0.2-5.8c0.4-1.8,1.2-3.6,2.4-5.2c1.2-1.6,2.4-2.8,4.2-4c1.6-1,3.4-1.8,5.6-2
				c2-0.4,4-0.2,5.8,0.2c1.8,0.4,3.6,1.2,5.2,2.4s2.8,2.4,4,4.2c1,1.6,1.8,3.4,2,5.6c0.4,2,0.2,4-0.2,5.8c-0.4,1.8-1.2,3.6-2.4,5.2
				c-1.2,1.6-2.4,2.8-4.2,4c-1.6,1-3.4,1.8-5.6,2c-1.6,0.2-3.2,0.2-5,0l-7.2,15.5c2.6,1.6,4.6,3.8,6.4,6.4c1.6,2.6,2.8,5.4,3.2,8.3
				h8.8c0.4-1.4,1-2.8,1.6-4c0.8-1.2,1.6-2.4,2.6-3.2c1-1,2.2-1.8,3.4-2.4C117.8,69.6,119.2,69,120.8,68.8z M38.8,119.8
				c1-0.2,2-0.6,2.8-1c0.8-0.6,1.6-1.2,2-2c0.6-0.8,1-1.6,1.2-2.6c0.2-1,0.2-2,0.2-3c-0.2-1-0.6-2-1-2.8c-0.6-0.8-1.2-1.4-2-2
				c-0.8-0.6-1.6-1-2.6-1.2c-1-0.2-2-0.2-3-0.2c-1,0.2-2,0.6-2.8,1c-0.8,0.6-1.6,1.2-2,2c-0.6,0.8-1,1.6-1.2,2.6c-0.2,1-0.2,2-0.2,3
				c0.2,1,0.6,2,1,2.8c0.6,0.8,1.2,1.6,2,2c0.8,0.6,1.6,1,2.6,1.2C36.8,119.8,37.8,120,38.8,119.8z M35.4,52.9c0.2,1,0.6,2,1,2.8
				c0.6,0.8,1.2,1.6,2,2c0.8,0.6,1.6,1,2.6,1.2c1,0.2,2,0.2,3,0.2c1-0.2,2-0.6,2.8-1c0.8-0.6,1.6-1.2,2-2c0.6-0.8,1-1.6,1.2-2.6
				c0.2-1,0.2-2,0.2-3c-0.2-1-0.6-2-1-2.8c-0.6-0.8-1.2-1.4-2-2c-0.8-0.6-1.6-1-2.6-1.2c-1-0.2-2-0.2-3-0.2c-1,0-2,0.6-2.8,1
				c-0.8,0.6-1.6,1.2-2,2c-0.6,0.8-1,1.6-1.2,2.6C35.2,50.9,35.2,51.9,35.4,52.9z M80.4,97.9c2-0.4,3.8-1,5.6-2c1.6-1,3-2.4,4.2-4
				c1.2-1.6,2-3.2,2.4-5.2c0.4-1.8,0.6-3.8,0.2-5.8c-0.4-2-1-3.8-2-5.6c-1-1.6-2.4-3-4-4.2c-1.6-1.2-3.2-2-5.2-2.4
				c-1.8-0.4-3.8-0.6-5.8-0.2c-2,0.4-3.8,1-5.6,2c-1.6,1-3,2.4-4.2,4c-1.2,1.6-2,3.2-2.4,5.2c-0.6,2-0.6,4-0.2,6c0.4,2,1,3.8,2,5.6
				c1,1.6,2.4,3,4,4.2c1.6,1.2,3.2,2,5.2,2.4C76.4,98.3,78.4,98.3,80.4,97.9z M107.2,123.5c-0.2-1-0.6-2-1-2.8c-0.6-0.8-1.2-1.4-2-2
				c-0.8-0.6-1.6-1-2.6-1.2c-1-0.2-2-0.2-3-0.2c-1,0.2-2,0.6-2.8,1c-0.8,0.6-1.6,1.2-2,2c-0.6,0.8-1,1.6-1.2,2.6s-0.2,2-0.2,3
				c0.2,1,0.6,2,1,2.8c0.6,0.8,1.2,1.6,2,2c0.8,0.6,1.6,1,2.6,1.2s2,0.2,3,0.2c1-0.2,2-0.6,2.8-1c0.8-0.6,1.6-1.2,2-2
				c0.6-0.8,1-1.6,1.2-2.6C107.4,125.6,107.4,124.5,107.2,123.5z M98.8,27.6c-1,0.2-2,0.6-2.8,1c-0.8,0.6-1.6,1.2-2,2
				c-0.6,0.8-1,1.6-1.2,2.6s-0.2,2-0.2,3c0.2,1,0.6,2,1,2.8c0.6,0.8,1.2,1.6,2,2c0.8,0.6,1.6,1,2.6,1.2c1,0.2,2,0.2,3,0.2
				c1,0,2-0.6,2.8-1c0.8-0.6,1.6-1.2,2-2c0.6-0.8,1-1.6,1.2-2.6s0.2-2,0.2-3c-0.2-1-0.6-2-1-2.8c-0.6-0.8-1.2-1.4-2-2
				c-0.8-0.6-1.6-1-2.6-1.2C100.8,27.4,99.8,27.4,98.8,27.6z M124.4,90.7c1-0.2,2-0.6,2.8-1c0.8-0.6,1.6-1.2,2-2
				c0.6-0.8,1-1.6,1.2-2.6s0.2-2,0.2-3c-0.2-1-0.6-2-1-2.8c-0.6-0.8-1.2-1.4-2-2c-0.8-0.6-1.6-1-2.6-1.2c-1-0.2-2-0.2-3-0.2
				c-1,0.2-2,0.6-2.8,1c-0.8,0.6-1.6,1.2-2,2c-0.6,0.8-1,1.6-1.2,2.6s-0.2,2-0.2,3c0.2,1,0.6,2,1,2.8c0.6,0.8,1.2,1.6,2,2
				c0.8,0.6,1.6,1,2.6,1.2C122.4,90.9,123.2,90.9,124.4,90.7z"/>
		</g>
	</g>
</g>
</svg>
