<?xml version="1.0" encoding="utf-8"?>
<!-- Generator: Adobe Illustrator 21.1.0, SVG Export Plug-In . SVG Version: 6.00 Build 0)  -->
<svg version="1.1" id="Layer_1" xmlns="http://www.w3.org/2000/svg" xmlns:xlink="http://www.w3.org/1999/xlink" x="0px" y="0px"
	 viewBox="0 0 160 160" style="enable-background:new 0 0 160 160;" xml:space="preserve">
<style type="text/css">
	.st0{fill:#2A3548;}
	.st1{fill:#F25C00;}
	.st2{fill:#1E2937;}
	.st3{fill:#CC4602;}
	.st4{fill:#D7DEED;}
</style>
<g>
	<g>
		<polygon class="st0" points="145.4,114.1 145.4,42.2 79.9,4.4 14.4,42.2 14.4,114.1 79.9,152 		"/>
		<polygon class="st1" points="14.4,109.5 79.9,147.3 145.4,109.5 145.4,117.8 79.9,155.7 14.4,117.8 		"/>
		<polygon class="st2" points="145.4,114.1 145.4,42.2 79.9,4.4 79.9,152 		"/>
		<polygon class="st3" points="145.4,117.8 145.4,109.5 79.9,147.3 79.9,155.7 		"/>
	</g>
</g>
<rect x="54.3" y="65.3" class="st2" width="46.5" height="36.3"/>
<g>
	<g>
		<path class="st4" d="M67.2,86.1h-5.3v-5.3h5.3V86.1z M67.2,95h-5.3v-5.3h5.3V95z M76.1,77.2h-5.3v-5.3h5.3V77.2z M76.1,95h-5.3
			v-5.3h5.3V95z M85,77.2h-5.3v-5.3H85V77.2z M85,86.1h-5.3v-5.3H85V86.1z M85,95h-5.3v-5.3H85V95z M93.8,77.2h-5.3v-5.3h5.3V77.2z
			 M93.8,86.1h-5.3v-5.3h5.3V86.1z"/>
	</g>
	<g>
		<path class="st1" d="M110.9,95.7c-0.7-1.5-1.6-2.8-2.7-4c-1.1-1.1-2.4-2-4-2.7c-1.5-0.7-3.1-1-4.9-1c-1.7,0-3.3,0.3-4.9,1
			c-1.5,0.7-2.8,1.6-4,2.7c-1.1,1.1-2,2.4-2.7,4c-0.7,1.5-1,3.1-1,4.9c0,1.7,0.3,3.3,1,4.9c0.7,1.5,1.6,2.8,2.7,4
			c1.1,1.1,2.4,2,4,2.7c1.5,0.7,3.1,1,4.9,1c1.7,0,3.3-0.3,4.9-1c1.5-0.7,2.8-1.6,4-2.7c1.1-1.1,2-2.4,2.7-4c0.7-1.5,1-3.1,1-4.9
			C111.9,98.8,111.5,97.2,110.9,95.7z M108.3,104.3c-0.5,1.2-1.2,2.2-2.1,3.1c-0.9,0.9-1.9,1.6-3.1,2.1c-1.2,0.5-2.4,0.8-3.8,0.8
			c-1.3,0-2.6-0.3-3.8-0.8c-1.2-0.5-2.2-1.2-3.1-2.1c-0.9-0.9-1.6-1.9-2.1-3.1c-0.5-1.2-0.8-2.4-0.8-3.8c0-1.3,0.3-2.6,0.8-3.8
			c0.5-1.2,1.2-2.2,2.1-3.1c0.9-0.9,1.9-1.6,3.1-2.1c1.2-0.5,2.4-0.8,3.8-0.8c1.3,0,2.6,0.3,3.8,0.8c1.2,0.5,2.2,1.2,3.1,2.1
			c0.9,0.9,1.6,1.9,2.1,3.1c0.5,1.2,0.8,2.4,0.8,3.8C109.1,101.9,108.8,103.1,108.3,104.3z"/>
		<polygon class="st1" points="100.6,93.7 98,93.7 98,101.9 102.4,106.3 104.2,104.4 100.6,100.8 		"/>
	</g>
	<g>
		<path class="st4" d="M83.4,100.3H56.6V66.5h42.6v18c0.1,0,0.1,0,0.2,0c1.1,0,2.3,0.1,3.3,0.3V54.1l-7.1,7.1v-7.1v-4.4
			c0-0.7-0.3-1.4-0.8-1.9C94.3,47.3,93.7,47,93,47c-0.7,0-1.4,0.3-1.9,0.8c-0.5,0.5-0.8,1.1-0.8,1.9v4.4H72.5l-7.1,7.1v-7.1v-4.4
			c0-0.7-0.3-1.4-0.8-1.9c-0.5-0.5-1.1-0.8-1.9-0.8c-0.7,0-1.4,0.3-1.9,0.8c-0.5,0.5-0.8,1.1-0.8,1.9v4.4H53v49.7h30.7
			c-0.2-1.1-0.3-2.2-0.3-3.3C83.4,100.4,83.4,100.4,83.4,100.3z"/>
	</g>
	<rect x="70.8" y="80.7" class="st1" width="5.3" height="5.3"/>
</g>
</svg>
