<?xml version="1.0" encoding="utf-8"?>
<!-- Generator: Adobe Illustrator 21.1.0, SVG Export Plug-In . SVG Version: 6.00 Build 0)  -->
<svg version="1.1" id="Layer_1" xmlns="http://www.w3.org/2000/svg" xmlns:xlink="http://www.w3.org/1999/xlink" x="0px" y="0px"
	 viewBox="0 0 160 160" style="enable-background:new 0 0 160 160;" xml:space="preserve">
<style type="text/css">
	.st0{fill:#2A3548;}
	.st1{fill:#F25C00;}
	.st2{fill:#1E2937;}
	.st3{fill:#CC4602;}
	.st4{fill:#D7DEED;}
</style>
<g>
	<g>
		<polygon class="st0" points="145.4,114.1 145.4,42.2 79.9,4.4 14.4,42.2 14.4,114.1 79.9,152 		"/>
		<polygon class="st1" points="14.4,109.5 79.9,147.3 145.4,109.5 145.4,117.8 79.9,155.7 14.4,117.8 		"/>
		<polygon class="st2" points="145.4,114.1 145.4,42.2 79.9,4.4 79.9,152 		"/>
		<polygon class="st3" points="145.4,117.8 145.4,109.5 79.9,147.3 79.9,155.7 		"/>
	</g>
</g>
<path class="st2" d="M78.4,97.6c-0.4-1.5-1-2.8-1.8-4.1c-0.8-1.3-1.8-2.4-2.9-3.5c-1.1-1-2.4-1.9-3.8-2.6c1.6-1.2,2.8-2.6,3.7-4.4
	c0.9-1.8,1.3-3.6,1.3-5.6c0-1.7-0.3-3.3-1-4.8c-0.7-1.5-1.5-2.8-2.7-3.9c-1.1-1.1-2.4-2-3.9-2.7c-1.5-0.7-3.1-1-4.8-1
	c-1.7,0-3.3,0.3-4.8,1c-1.5,0.7-2.8,1.5-3.9,2.7c-1.1,1.1-2,2.4-2.7,3.9c-0.7,1.5-1,3.1-1,4.8c0,2,0.4,3.8,1.3,5.6
	c0.9,1.8,2.1,3.2,3.7,4.4c-1.4,0.7-2.7,1.6-3.8,2.6c-1.1,1-2.1,2.2-2.9,3.5c-0.8,1.3-1.4,2.7-1.8,4.1c-0.4,1.5-0.6,3-0.6,4.6h4.1
	c0-1.7,0.3-3.3,1-4.8c0.7-1.5,1.5-2.8,2.7-3.9c1.1-1.1,2.4-2,3.9-2.7c1.5-0.7,3.1-1,4.8-1c1.7,0,3.3,0.3,4.8,1
	c1.5,0.7,2.8,1.5,3.9,2.7c1.1,1.1,2,2.4,2.7,3.9c0.7,1.5,1,3.1,1,4.8H79C79,100.6,78.8,99,78.4,97.6z M65.7,85
	c-1,0.4-2.1,0.7-3.2,0.7c-1.1,0-2.2-0.2-3.2-0.7c-1-0.4-1.9-1-2.6-1.8c-0.7-0.7-1.3-1.6-1.8-2.6c-0.4-1-0.7-2.1-0.7-3.2
	c0-1.1,0.2-2.2,0.7-3.2c0.4-1,1-1.9,1.8-2.6c0.7-0.7,1.6-1.3,2.6-1.8c1-0.4,2.1-0.7,3.2-0.7c1.1,0,2.2,0.2,3.2,0.7
	c1,0.4,1.9,1,2.6,1.8c0.7,0.7,1.3,1.6,1.8,2.6c0.4,1,0.7,2.1,0.7,3.2c0,1.1-0.2,2.2-0.7,3.2c-0.4,1-1,1.9-1.8,2.6
	C67.6,83.9,66.7,84.5,65.7,85z"/>
<g>
	<path class="st1" d="M78.4,94.6c-0.4-1.5-1-2.8-1.8-4.1c-0.8-1.3-1.8-2.4-2.9-3.5c-1.1-1-2.4-1.9-3.8-2.6c1.6-1.2,2.8-2.6,3.7-4.4
		c0.9-1.8,1.3-3.6,1.3-5.6c0-1.7-0.3-3.3-1-4.8c-0.7-1.5-1.5-2.8-2.7-3.9c-1.1-1.1-2.4-2-3.9-2.7c-1.5-0.7-3.1-1-4.8-1
		c-1.7,0-3.3,0.3-4.8,1c-1.5,0.7-2.8,1.5-3.9,2.7c-1.1,1.1-2,2.4-2.7,3.9c-0.7,1.5-1,3.1-1,4.8c0,2,0.4,3.8,1.3,5.6
		c0.9,1.8,2.1,3.2,3.7,4.4c-1.4,0.7-2.7,1.6-3.8,2.6c-1.1,1-2.1,2.2-2.9,3.5c-0.8,1.3-1.4,2.7-1.8,4.1c-0.4,1.5-0.6,3-0.6,4.6h4.1
		c0-1.7,0.3-3.3,1-4.8c0.7-1.5,1.5-2.8,2.7-3.9c1.1-1.1,2.4-2,3.9-2.7c1.5-0.7,3.1-1,4.8-1c1.7,0,3.3,0.3,4.8,1
		c1.5,0.7,2.8,1.5,3.9,2.7c1.1,1.1,2,2.4,2.7,3.9c0.7,1.5,1,3.1,1,4.8H79C79,97.6,78.8,96,78.4,94.6z M65.7,82
		c-1,0.4-2.1,0.7-3.2,0.7c-1.1,0-2.2-0.2-3.2-0.7c-1-0.4-1.9-1-2.6-1.8c-0.7-0.7-1.3-1.6-1.8-2.6c-0.4-1-0.7-2.1-0.7-3.2
		c0-1.1,0.2-2.2,0.7-3.2c0.4-1,1-1.9,1.8-2.6c0.7-0.7,1.6-1.3,2.6-1.8c1-0.4,2.1-0.7,3.2-0.7c1.1,0,2.2,0.2,3.2,0.7
		c1,0.4,1.9,1,2.6,1.8c0.7,0.7,1.3,1.6,1.8,2.6c0.4,1,0.7,2.1,0.7,3.2c0,1.1-0.2,2.2-0.7,3.2c-0.4,1-1,1.9-1.8,2.6
		C67.6,80.9,66.7,81.5,65.7,82z"/>
	<g>
		<rect x="84.9" y="95" class="st4" width="16.4" height="4.1"/>
		<rect x="84.9" y="73.1" class="st4" width="27.1" height="4.1"/>
		<rect x="95.3" y="62" class="st4" width="16.7" height="4.1"/>
		<rect x="84.9" y="62" class="st4" width="6.4" height="4.1"/>
		<rect x="84.9" y="83.9" class="st4" width="27.1" height="4.1"/>
	</g>
</g>
</svg>
