<?xml version="1.0" encoding="utf-8"?>
<!-- Generator: Adobe Illustrator 24.0.0, SVG Export Plug-In . SVG Version: 6.00 Build 0)  -->
<svg version="1.1" xmlns="http://www.w3.org/2000/svg" xmlns:xlink="http://www.w3.org/1999/xlink" x="0px" y="0px"
	 viewBox="0 0 160 160" style="enable-background:new 0 0 160 160;" xml:space="preserve">
<style type="text/css">
	.st0{display:none;}
	.st1{display:inline;}
	.st2{opacity:0.25;fill:#537191;enable-background:new    ;}
	.st3{fill:#2A3548;}
	.st4{fill:#F25C00;}
	.st5{opacity:0.25;enable-background:new    ;}
	.st6{fill:#537191;}
	.st7{display:inline;opacity:0.25;fill:#537191;}
	.st8{display:inline;opacity:0.25;}
</style>
<g id="Layer_1" class="st0">
	<g class="st1">
		<path class="st2" d="M71.3,30.5L14,88.1l49.1,49.4l11.2-11.2l18.8-18.9l27.2-27.3V30.5H71.3z M114.3,74.5l-25.6,25.7l-18.2,18.3
			l-5.4,5.4L27.6,86.1l49.1-49.4h37.6C114.3,36.7,114.3,74.5,114.3,74.5z"/>
		<g>
			<path class="st3" d="M71.3,22.5L14,80.1l49.1,49.4l11.2-11.2l18.8-18.9l27.2-27.3V22.5H71.3z M112.3,68.5L86.7,94.1l-18.2,18.3
				l-5.4,5.4L25.6,80.1l49.1-49.4h37.6C112.3,30.7,112.3,68.5,112.3,68.5z"/>
			<path class="st4" d="M104.7,121.4c-9.2,0-18.2-3-25.4-8.8c-2-1.6-2.2-4.4-0.8-6.4c1.6-2,4.4-2.2,6.4-0.8c6.4,5,14.6,7.4,22.8,6.8
				c8.6-0.8,16.4-4.8,21.8-11.4c5.4-6.6,8.2-15.1,7.4-23.7c-1.6-17.9-17.2-30.9-34.8-29.5c-2.4,0.2-4.6-1.6-4.8-4s1.6-4.6,4-4.8
				c22.6-2,42.5,14.9,44.5,37.7c1,11-2.4,21.7-9.6,30.1c-7,8.4-17,13.6-28,14.7C107.1,121.4,105.9,121.4,104.7,121.4z"/>
			<polygon class="st3" points="73.7,118.8 90.2,102.3 84.1,96.8 68.5,112.4 			"/>
		</g>
	</g>
</g>
<g id="Layer_2">
	<g class="st5">
		<g>
			<path class="st6" d="M19.1,38.8v98.5H43V38.8H19.1z M27.3,129.1v-82h7.4v82H27.3z"/>
			<path class="st6" d="M51,60.8v76.5h23.9V60.8H51z M59.3,129.1V69h7.4v60.1H59.3z"/>
			<path class="st6" d="M98.6,104.7v24.4h-7.4V82.7H83v54.6h23.9v-32.6H98.6z"/>
			<path class="st6" d="M114.9,104.7v32.6h23.9v-32.6H114.9z M123.1,129.1v-16.2h7.4v16.2H123.1z"/>
		</g>
	</g>
	<g>
		<g>
			<path class="st3" d="M19.1,31.8v98.5H43V31.8H19.1z M27.3,122.1v-82h7.4v82H27.3z"/>
			<path class="st3" d="M51,53.8v76.5h23.9V53.8H51z M59.3,122.1V62h7.4v60.1H59.3z"/>
			<path class="st3" d="M98.6,97.7v24.4h-7.4V75.7H83v54.6h23.9V97.7H98.6z"/>
			<path class="st3" d="M114.9,97.7v32.6h23.9V97.7H114.9z M123.1,122.1v-16.2h7.4v16.2H123.1z"/>
			<path class="st4" d="M136.7,33.9c-1.4-3.3-3.3-6.1-5.7-8.5c-2.4-2.4-5.3-4.3-8.5-5.7c-3.3-1.4-6.7-2.1-10.4-2.1
				c-3.7,0-7.2,0.7-10.4,2.1c-3.3,1.4-6.1,3.3-8.5,5.7c-2.4,2.4-4.3,5.3-5.7,8.5c-1.4,3.3-2.1,6.7-2.1,10.4c0,3.7,0.7,7.1,2,10.2
				c1.3,3.1,3.3,6,5.8,8.6c0.6,0.6,1.2,1.3,1.8,2c0.6,0.7,1.2,1.4,1.7,2.2c0.5,0.8,1,1.6,1.3,2.4c0.3,0.8,0.5,1.7,0.6,2.6
				c0,1.5,0,2.9,0,4.4c0,1.5,0,2.9,0,4.4c0,1.4,0.3,2.8,0.8,4c0.5,1.2,1.3,2.3,2.2,3.2c0.9,0.9,2,1.6,3.2,2.2c1.2,0.5,2.6,0.8,4,0.8
				h6.7c1.4,0,2.7-0.3,4-0.8c1.3-0.5,2.3-1.3,3.2-2.2c0.9-0.9,1.6-2,2.2-3.2c0.5-1.2,0.8-2.6,0.8-4c0-1.5,0-2.9,0-4.4
				c0-1.5,0-2.9,0-4.4c0-0.6,0.1-1.3,0.4-2c0.2-0.7,0.5-1.3,0.9-2c0.4-0.7,0.8-1.3,1.2-1.9c0.4-0.6,0.9-1.1,1.3-1.5l1.7-1.8
				c2.5-2.6,4.4-5.5,5.8-8.6c1.3-3.1,2-6.5,2-10.2C138.8,40.6,138.1,37.1,136.7,33.9z M118.6,81.1c0,0.9-0.3,1.6-0.9,2.2
				s-1.4,0.9-2.2,0.9h-6.7c-0.9,0-1.6-0.3-2.2-0.9s-0.9-1.4-0.9-2.2v-3.2h13.1V81.1z M131.3,50.3c-0.6,1.7-1.3,3.1-2.1,4.4
				c-0.9,1.3-1.8,2.5-2.8,3.6c-1,1.1-2,2.2-3,3.4c-1,1.2-1.8,2.5-2.6,4c-0.8,1.4-1.3,3.2-1.7,5.1h-14c-0.2-1.4-0.6-2.6-1-3.7
				c-0.4-1.1-0.9-2.1-1.5-3.1c-0.6-1-1.3-1.9-2.1-2.8c-0.8-0.9-1.6-1.8-2.5-2.8l-0.1-0.1c-1.9-1.9-3.3-4.1-4.3-6.5
				c-1-2.5-1.5-5-1.5-7.7c0-2.8,0.5-5.4,1.6-7.8c1-2.4,2.5-4.6,4.3-6.4c1.8-1.8,3.9-3.2,6.4-4.3c2.4-1,5-1.6,7.8-1.6
				c2.8,0,5.4,0.5,7.8,1.6c2.4,1,4.6,2.5,6.4,4.3c1.8,1.8,3.2,3.9,4.3,6.4c1,2.4,1.6,5,1.6,7.8C132.1,46.6,131.8,48.6,131.3,50.3z"
				/>
		</g>
	</g>
</g>
<g id="Layer_3" class="st0">
	<path class="st7" d="M42.4,51c-0.6,0.6-1.1,1.3-1.6,2v45.5c2.6,3.3,5.7,6.2,9.2,8.6V60.2h8.3v51.1c2.9,1.1,6,1.9,9.2,2.2V51H42.4z"
		/>
	<path class="st7" d="M85.7,84.8H94v22.8c3.5-2.2,6.6-4.9,9.2-8.1V75.6H76.5v38.1c3.2-0.3,6.3-1,9.2-2.1V84.8z"/>
	<g class="st1">
		<path class="st3" d="M42.4,44c-0.6,0.6-1.1,1.3-1.6,2v49.5c2.6,3.3,5.7,6.2,9.2,8.6V53.2h8.3v55.1c2.9,1.1,6,1.9,9.2,2.2V44H42.4z
			"/>
		<path class="st3" d="M85.7,77.8H94v26.8c3.5-2.2,6.6-4.9,9.2-8.1V68.6H76.5v42.1c3.2-0.3,6.3-1,9.2-2.1V77.8z"/>
	</g>
	<g class="st1">
		<path class="st4" d="M138.8,133.2c0,1.2-0.4,2.3-1.1,3.2c-0.7,0.9-1.7,1.4-3,1.4c-1.1,0-2.1-0.4-2.9-1.2L101.3,106
			c-4.1,3.4-8.6,6-13.5,7.8c-4.9,1.8-10,2.7-15.4,2.7c-4.2,0-8.2-0.5-12-1.6c-3.9-1.1-7.5-2.6-10.8-4.6c-3.3-2-6.4-4.3-9.2-7.1
			c-2.8-2.8-5.1-5.8-7.1-9.2c-2-3.3-3.5-6.9-4.6-10.8c-1.1-3.9-1.6-7.9-1.6-12c0-4.2,0.5-8.2,1.6-12c1.1-3.9,2.6-7.5,4.6-10.8
			c2-3.3,4.3-6.4,7.1-9.2c2.8-2.8,5.8-5.1,9.2-7.1c3.3-2,6.9-3.5,10.8-4.6c3.9-1.1,7.9-1.6,12-1.6c4.2,0,8.2,0.5,12,1.6
			c3.9,1.1,7.5,2.6,10.8,4.6c3.3,2,6.4,4.3,9.2,7.1c2.8,2.8,5.1,5.8,7.1,9.2c2,3.3,3.5,6.9,4.6,10.8c1.1,3.9,1.6,7.9,1.6,12
			c0,5.4-0.9,10.5-2.7,15.4c-1.8,4.9-4.4,9.4-7.8,13.5c0.6,0.6,28.3,28.6,29.7,30.1C138.2,131.9,138.8,132.9,138.8,133.2z
			 M72.4,108.3c5.1,0,9.9-1,14.4-2.9c4.5-2,8.4-4.6,11.8-7.9c3.3-3.3,6-7.3,7.9-11.8c2-4.5,2.9-9.3,2.9-14.4c0-5.1-1-9.9-2.9-14.4
			c-2-4.5-4.6-8.4-7.9-11.8c-3.3-3.3-7.3-6-11.8-7.9c-4.5-2-9.3-2.9-14.4-2.9c-5.1,0-9.9,1-14.4,2.9c-4.5,2-8.4,4.6-11.8,7.9
			s-6,7.3-7.9,11.8c-2,4.5-2.9,9.3-2.9,14.4c0,5.1,1,9.9,2.9,14.4c2,4.5,4.6,8.4,7.9,11.8c3.3,3.3,7.3,6,11.8,7.9
			C62.5,107.3,67.3,108.3,72.4,108.3z"/>
	</g>
</g>
<g id="Layer_4" class="st0">
	<g class="st8">
		<path class="st6" d="M47.1,69.9v33c3.4,3.7,7.4,6.7,12,8.9V69.9H47.1z"/>
		<path class="st6" d="M70.4,49.9v61.4c2,0.3,3.9,0.4,6,0.4s4-0.2,6-0.4V49.9H70.4z"/>
		<path class="st6" d="M105.6,95v-15h-12v23.9C98.2,101.7,102.2,98.6,105.6,95z"/>
	</g>
	<g class="st1">
		<path class="st3" d="M39.1,62.9v35c3.4,3.7,11.4,6.7,16,8.9V62.9H39.1z"/>
		<path class="st3" d="M62.4,42.9v67.4c2,0.3,7.9,0.4,10,0.4s4-0.2,6-0.4V42.9H62.4z"/>
		<path class="st3" d="M101.6,98v-25h-16v33.9C90.2,104.7,98.2,101.6,101.6,98z"/>
	</g>
	<g class="st1">
		<path class="st4" d="M138.8,133.2c0,1.2-0.4,2.3-1.1,3.2c-0.7,0.9-1.7,1.4-3,1.4c-1.1,0-2.1-0.4-2.9-1.2L101.3,106
			c-4.1,3.4-8.6,6-13.5,7.8c-4.9,1.8-10,2.7-15.4,2.7c-4.2,0-8.2-0.5-12-1.6c-3.9-1.1-7.5-2.6-10.8-4.6c-3.3-2-6.4-4.3-9.2-7.1
			c-2.8-2.8-5.1-5.8-7.1-9.2c-2-3.3-3.5-6.9-4.6-10.8c-1.1-3.9-1.6-7.9-1.6-12c0-4.2,0.5-8.2,1.6-12c1.1-3.9,2.6-7.5,4.6-10.8
			c2-3.3,4.3-6.4,7.1-9.2c2.8-2.8,5.8-5.1,9.2-7.1c3.3-2,6.9-3.5,10.8-4.6c3.9-1.1,7.9-1.6,12-1.6c4.2,0,8.2,0.5,12,1.6
			c3.9,1.1,7.5,2.6,10.8,4.6c3.3,2,6.4,4.3,9.2,7.1c2.8,2.8,5.1,5.8,7.1,9.2c2,3.3,3.5,6.9,4.6,10.8c1.1,3.9,1.6,7.9,1.6,12
			c0,5.4-0.9,10.5-2.7,15.4c-1.8,4.9-4.4,9.4-7.8,13.5c0.6,0.6,28.3,28.6,29.7,30.1C138.2,131.9,138.8,132.9,138.8,133.2z
			 M72.4,108.3c5.1,0,9.9-1,14.4-2.9c4.5-2,8.4-4.6,11.8-7.9c3.3-3.3,6-7.3,7.9-11.8c2-4.5,2.9-9.3,2.9-14.4c0-5.1-1-9.9-2.9-14.4
			c-2-4.5-4.6-8.4-7.9-11.8c-3.3-3.3-7.3-6-11.8-7.9c-4.5-2-9.3-2.9-14.4-2.9c-5.1,0-9.9,1-14.4,2.9c-4.5,2-8.4,4.6-11.8,7.9
			s-6,7.3-7.9,11.8c-2,4.5-2.9,9.3-2.9,14.4c0,5.1,1,9.9,2.9,14.4c2,4.5,4.6,8.4,7.9,11.8c3.3,3.3,7.3,6,11.8,7.9
			C62.5,107.3,67.3,108.3,72.4,108.3z"/>
	</g>
</g>
</svg>
