<?xml version="1.0" encoding="utf-8"?>
<!-- Generator: Adobe Illustrator 24.0.0, SVG Export Plug-In . SVG Version: 6.00 Build 0)  -->
<svg version="1.1" id="Layer_1" xmlns="http://www.w3.org/2000/svg" xmlns:xlink="http://www.w3.org/1999/xlink" x="0px" y="0px"
	 viewBox="0 0 160 160" style="enable-background:new 0 0 160 160;" xml:space="preserve">
<style type="text/css">
	.st0{fill:#2A3548;}
	.st1{fill:#F25C00;}
	.st2{fill:#1E2937;}
	.st3{fill:#CC4602;}
	.st4{fill:#D7DEED;}
</style>
<g>
	<g>
		<polygon class="st0" points="145.5,114.1 145.5,42.2 80,4.4 14.5,42.2 14.5,114.1 80,151.9 		"/>
		<polygon class="st1" points="14.5,109.4 80,147.3 145.5,109.4 145.5,117.8 80,155.6 14.5,117.8 		"/>
		<polygon class="st2" points="145.5,114.1 145.5,42.2 80,4.4 80,151.9 		"/>
		<polygon class="st3" points="145.5,117.8 145.5,109.4 80,147.3 80,155.6 		"/>
	</g>
</g>
<g>
	<g>
		<path class="st2" d="M51,57v49.4h12V57H51z M55.1,102.2V61.1h3.7v41.1H55.1z"/>
		<path class="st2" d="M67,68v38.4h12V68H67z M71.1,102.2V72.1h3.7v30.1H71.1z"/>
	</g>
	<g>
		<path class="st4" d="M50,54v49.4h12V54H50z M54.1,99.2V58.1h3.7v41.1H54.1z"/>
		<path class="st4" d="M66,65v38.4h12V65H66z M70.1,99.2V69.1h3.7v30.1H70.1z"/>
		<path class="st4" d="M89.9,87v12.2h-3.7V76H82v27.4h12V87H89.9z"/>
		<path class="st4" d="M98,87v16.4h12V87H98z M102.1,99.2v-8.1h3.7v8.1H102.1z"/>
		<path class="st1" d="M108.9,55c-0.7-1.6-1.7-3.1-2.9-4.3c-1.2-1.2-2.6-2.2-4.3-2.9c-1.6-0.7-3.4-1-5.2-1c-1.8,0-3.6,0.3-5.2,1
			c-1.6,0.7-3.1,1.7-4.3,2.9c-1.2,1.2-2.2,2.6-2.9,4.3c-0.7,1.6-1,3.4-1,5.2c0,1.8,0.3,3.6,1,5.1c0.7,1.6,1.6,3,2.9,4.3
			c0.3,0.3,0.6,0.6,0.9,1c0.3,0.3,0.6,0.7,0.9,1.1c0.3,0.4,0.5,0.8,0.7,1.2c0.2,0.4,0.3,0.8,0.3,1.3c0,0.7,0,1.5,0,2.2
			c0,0.7,0,1.5,0,2.2c0,0.7,0.1,1.4,0.4,2c0.3,0.6,0.6,1.2,1.1,1.6c0.5,0.5,1,0.8,1.6,1.1c0.6,0.3,1.3,0.4,2,0.4h3.3
			c0.7,0,1.4-0.1,2-0.4c0.6-0.3,1.2-0.6,1.6-1.1c0.5-0.5,0.8-1,1.1-1.6c0.3-0.6,0.4-1.3,0.4-2c0-0.7,0-1.5,0-2.2c0-0.7,0-1.5,0-2.2
			c0-0.3,0.1-0.6,0.2-1c0.1-0.3,0.3-0.7,0.5-1c0.2-0.3,0.4-0.6,0.6-0.9c0.2-0.3,0.4-0.5,0.6-0.8l0.8-0.9c1.3-1.3,2.2-2.8,2.9-4.3
			c0.7-1.6,1-3.3,1-5.1C110,58.4,109.6,56.6,108.9,55z M99.9,78.6c0,0.4-0.2,0.8-0.5,1.1s-0.7,0.5-1.1,0.5h-3.3
			c-0.4,0-0.8-0.2-1.1-0.5c-0.3-0.3-0.5-0.7-0.5-1.1v-1.6h6.5V78.6z M106.2,63.2c-0.3,0.8-0.6,1.6-1.1,2.2c-0.4,0.7-0.9,1.3-1.4,1.8
			c-0.5,0.5-1,1.1-1.5,1.7c-0.5,0.6-0.9,1.3-1.3,2c-0.4,0.7-0.7,1.6-0.8,2.6h-7c-0.1-0.7-0.3-1.3-0.5-1.8c-0.2-0.5-0.5-1.1-0.8-1.5
			c-0.3-0.5-0.7-0.9-1-1.4c-0.4-0.4-0.8-0.9-1.3-1.4l-0.1,0c-0.9-0.9-1.7-2-2.2-3.3c-0.5-1.2-0.8-2.5-0.8-3.8c0-1.4,0.3-2.7,0.8-3.9
			c0.5-1.2,1.2-2.3,2.1-3.2c0.9-0.9,2-1.6,3.2-2.1c1.2-0.5,2.5-0.8,3.9-0.8c1.4,0,2.7,0.3,3.9,0.8c1.2,0.5,2.3,1.2,3.2,2.1
			c0.9,0.9,1.6,2,2.1,3.2c0.5,1.2,0.8,2.5,0.8,3.9C106.6,61.4,106.5,62.4,106.2,63.2z"/>
	</g>
</g>
</svg>
