<?xml version="1.0" encoding="utf-8"?>
<!-- Generator: Adobe Illustrator 21.1.0, SVG Export Plug-In . SVG Version: 6.00 Build 0)  -->
<svg version="1.1" id="Layer_1" xmlns="http://www.w3.org/2000/svg" xmlns:xlink="http://www.w3.org/1999/xlink" x="0px" y="0px"
	 viewBox="0 0 160 160" style="enable-background:new 0 0 160 160;" xml:space="preserve">
<style type="text/css">
	.st0{opacity:0.25;fill:#537191;}
	.st1{fill:#FFFFFF;}
	.st2{fill:#2A3548;}
	.st3{fill:#F25C00;}
</style>
<g>
	<path class="st0" d="M146.2,77.4c-1.4-3-3-5.6-5.4-7.8c-2.2-2.2-4.8-4-8-5.2c-3-1.2-6.2-2-9.8-2c-0.6-4.6-2-9-4-13
		c-2.2-4-4.8-7.6-8-10.4c-3.2-3-7-5.2-11.2-7c-4.2-1.6-8.8-2.6-13.6-2.6c-3.2,0-6.2,0.4-9.2,1.2c-3,0.8-5.8,1.8-8.6,3.4
		c-2.6,1.4-5.2,3.2-7.4,5.4s-4.2,4.6-6,7.2c-2-0.4-4-0.6-6-0.6c-4.6,0-8.8,0.8-12.8,2.6c-4,1.8-7.6,4-10.6,7c-3,3-5.4,6.4-7,10.6
		c-1.8,4-2.6,8.4-2.6,12.8c0,4.6,0.8,8.8,2.6,12.8c1.8,4,4,7.6,7,10.6c3,3,6.4,5.4,10.6,7c4,1.8,8.4,2.6,12.8,2.6h6.4
		c2,13.8,14,24.6,28.4,24.6s26.4-10.6,28.4-24.6h11c3.4,0,6.6-0.6,9.6-2c3-1.2,5.6-3,7.8-5.4c2.2-2.2,4-4.8,5.4-7.8
		c1.2-3,2-6.2,2-9.6C148.2,83.6,147.6,80.4,146.2,77.4z M84,127.6c-11,0-20.2-9-20.2-20.2c0-11,9-20.2,20.2-20.2
		c11,0,20.2,9,20.2,20.2S95.2,127.6,84,127.6z M138.6,93.6c-0.8,2-2,3.8-3.6,5.2c-1.6,1.6-3.2,2.6-5.2,3.6c-2,0.8-4.2,1.2-6.4,1.2
		h-11C110.4,89.8,98.4,79,84,79s-26.4,10.8-28.4,24.6h-6.4c-3.4,0-6.6-0.6-9.6-2c-3-1.2-5.6-3-7.8-5.4c-2.2-2.2-4-4.8-5.4-7.8
		c-1.2-3-2-6.2-2-9.6s0.6-6.6,2-9.6c1.2-3,3-5.6,5.4-7.8c2.2-2.2,4.8-4,7.8-5.4c3-1.2,6.2-2,9.6-2c3.6,0,7,0.8,10.2,2.2
		c1-2.8,2.6-5.4,4.4-7.8c1.8-2.2,3.8-4.2,6.2-5.8c2.4-1.6,5-3,7.8-3.8c2.8-1,5.6-1.4,8.8-1.4c4,0,7.8,0.8,11.2,2.2
		c3.6,1.6,6.6,3.6,9.2,6.2s4.6,5.6,6.2,9.2c1.6,3.6,2.2,7.2,2.2,11.2v4.2h8.2c2.2,0,4.4,0.4,6.4,1.2c2,0.8,3.8,2,5.2,3.6
		c1.6,1.6,2.6,3.2,3.6,5.2c0.8,2,1.2,4.2,1.2,6.4C140,89.4,139.6,91.6,138.6,93.6z"/>
	<ellipse class="st1" cx="80" cy="101.6" rx="22" ry="22"/>
	<g>
		<path class="st2" d="M142.2,71.4c-1.4-3-3-5.6-5.4-7.8c-2.2-2.2-4.8-4-8-5.2c-3-1.2-6.2-2-9.8-2c-0.6-4.6-2-9-4-13
			c-2.2-4-4.8-7.6-8-10.4c-3.2-3-7-5.2-11.2-7c-4.2-1.6-8.8-2.6-13.6-2.6c-3.2,0-6.2,0.4-9.2,1.2c-3,0.8-5.8,1.8-8.6,3.4
			c-2.6,1.4-5.2,3.2-7.4,5.4s-4.2,4.6-6,7.2c-2-0.4-4-0.6-6-0.6c-4.6,0-8.8,0.8-12.8,2.6c-4,1.8-7.6,4-10.6,7c-3,3-5.4,6.4-7,10.6
			c-1.8,4-2.6,8.4-2.6,12.8c0,4.6,0.8,8.8,2.6,12.8c1.8,4,4,7.6,7,10.6s6.4,5.4,10.6,7c4,1.8,8.4,2.6,12.8,2.6h6.4
			c2,13.8,14,24.6,28.4,24.6s26.4-10.6,28.4-24.6h11c3.4,0,6.6-0.6,9.6-2c3-1.2,5.6-3,7.8-5.4c2.2-2.2,4-4.8,5.4-7.8
			c1.2-3,2-6.2,2-9.6C144.2,77.6,143.6,74.4,142.2,71.4z M80,121.6c-11,0-20.2-9-20.2-20.2c0-11,9-20.2,20.2-20.2
			c11,0,20.2,9,20.2,20.2S91.2,121.6,80,121.6z M134.6,87.6c-0.8,2-2,3.8-3.6,5.2c-1.6,1.6-3.2,2.6-5.2,3.6c-2,0.8-4.2,1.2-6.4,1.2
			h-11C106.4,83.8,94.4,73,80,73S53.6,83.8,51.6,97.6h-6.4c-3.4,0-6.6-0.6-9.6-2c-3-1.2-5.6-3-7.8-5.4c-2.2-2.2-4-4.8-5.4-7.8
			c-1.2-3-2-6.2-2-9.6c0-3.4,0.6-6.6,2-9.6c1.2-3,3-5.6,5.4-7.8c2.2-2.2,4.8-4,7.8-5.4c3-1.2,6.2-2,9.6-2c3.6,0,7,0.8,10.2,2.2
			c1-2.8,2.6-5.4,4.4-7.8c1.8-2.2,3.8-4.2,6.2-5.8c2.4-1.6,5-3,7.8-3.8c2.8-1,5.6-1.4,8.8-1.4c4,0,7.8,0.8,11.2,2.2
			c3.6,1.6,6.6,3.6,9.2,6.2s4.6,5.6,6.2,9.2s2.2,7.2,2.2,11.2v4.2h8.2c2.2,0,4.4,0.4,6.4,1.2s3.8,2,5.2,3.6c1.6,1.6,2.6,3.2,3.6,5.2
			c0.8,2,1.2,4.2,1.2,6.4C136,83.4,135.6,85.6,134.6,87.6z"/>
		<polygon class="st3" points="75,115.8 75,88.2 94.8,102.2 		"/>
	</g>
</g>
</svg>
