<?xml version="1.0" encoding="utf-8"?>
<!-- Generator: Adobe Illustrator 22.0.0, SVG Export Plug-In . SVG Version: 6.00 Build 0)  -->
<svg version="1.1" id="Layer_1" xmlns="http://www.w3.org/2000/svg" xmlns:xlink="http://www.w3.org/1999/xlink" x="0px" y="0px"
	 viewBox="0 0 100 100" style="enable-background:new 0 0 100 100;" xml:space="preserve">
<path d="M52.7,15c1.7,0.3,3.4,0.5,5,0.9C72,19,82.9,31,84.7,45.4C87,63.8,75,80.5,56.9,84.3c-18.8,3.9-37.6-8.7-41.2-27.5
	c-3.6-19.2,8.7-37.3,27.8-41.1c1.2-0.2,2.5-0.4,3.8-0.6C49.1,15,50.9,15,52.7,15z M50.2,19.5c-16.7,0-30.3,13.5-30.3,30.3
	c0,16.7,13.5,30.4,30.3,30.4c16.8,0,30.4-13.5,30.4-30.3C80.6,33.1,67,19.5,50.2,19.5z"/>
<path d="M32.2,63.6c0.7,0,1.3,0,1.9,0c0.9-0.1,1.4-0.6,1.4-1.6c0-0.6,0-1.1,0-1.7c0-4.8,0-9.7,0-14.6c0-1.8-1.1-2.6-2.8-2
	c-1.5,0.5-2.7,1.5-3.8,2.6c-2.6,2.6-4.8,5.6-6.6,8.9c-0.1,0.1-0.2,0.3-0.4,0.5c0-0.3-0.1-0.6-0.1-0.8c0-2.5,0.6-4.9,1.7-7.2
	C27,40.4,36.3,32,43.9,29.5c0.5-0.2,1-0.3,1.7-0.5c-0.8,0.8-1.6,1.4-2.3,2.1c-1.6,1.7-2.2,3.6-1.7,6c0.3,1.6,0.9,2,2.6,1.6
	c0,0.4,0,0.7,0,1c0,6.4,0.1,12.8,0,19.2c0,2.2,2.2,3.8,4.1,3c1.4-0.6,2.6-1.4,3.9-2.2c0.2-0.1,0.3-0.5,0.3-0.7c0-5.7,0-11.4,0-17.1
	c0-1.5-0.8-2.7-1.8-3.7c-0.2-0.2-0.4-0.4-0.6-0.6c0-0.1,0-0.2,0.1-0.3c1.3,0.3,2.6,0.5,4.1,0.8c3.5-3.6,7.9-6,13.1-7
	c-0.3,0.4-0.6,0.7-0.9,1.1c-1.5,2-3.1,4.1-4.6,6.1c-0.4,0.6-0.6,1.3-0.6,1.9c0,6.3,0,12.7,0.1,19c0,0.3,0.4,0.8,0.8,1
	c1,0.5,2,0.3,2.9-0.2c1.5-0.9,3-2,4.4-3.1c0.4-0.3,0.7-0.6,1.1-0.9c-2.9,5.7-6.8,10.4-12.3,13.8c-1.6-1.3-3.2-2.7-4.8-4
	c-1.6,1.7-3,3.3-4.6,4.8c-0.2,0.2-0.6,0.5-0.9,0.5c-4.8-0.6-9.4-2-13.3-5.1c-0.7-0.6-1.2-1.2-1.9-1.8C32.5,64.1,32.3,63.9,32.2,63.6
	z"/>
</svg>
