<svg xmlns="http://www.w3.org/2000/svg" viewBox="0 0 76.41 76.41"><defs><style>.cls-1{fill:#f1592a;}</style></defs><title>Simpler &amp;amp; easier </title><g id="Layer_2" data-name="Layer 2"><g id="Layer_1-2" data-name="Layer 1"><path class="cls-1" d="M38.1,76.41C17.57,76.41.16,59.07,0,38.41A37.66,37.66,0,0,1,11,11.54,38.29,38.29,0,0,1,38.2,0h0A37.75,37.75,0,0,1,65,11.13,37.79,37.79,0,0,1,76.41,37.85a38.39,38.39,0,0,1-38,38.56ZM38.22,2A36.3,36.3,0,0,0,12.45,12.95,35.67,35.67,0,0,0,2,38.39c.15,19.58,16.65,36,36.09,36h.26A36.39,36.39,0,0,0,74.41,37.86,35.81,35.81,0,0,0,63.59,12.55,35.64,35.64,0,0,0,38.22,2Z"/><path class="cls-1" d="M8.57,49.38V27.06H14v2H11.12V47.42H14v2Z"/><path class="cls-1" d="M27,38c0,4.07-2.47,6.39-5.82,6.39s-5.58-2.61-5.58-6.18c0-3.73,2.34-6.36,5.76-6.36S27,34.59,27,38Zm-9.06.18c0,2.47,1.24,4.43,3.37,4.43s3.35-2,3.35-4.52c0-2.29-1.13-4.45-3.35-4.45S17.92,35.73,17.92,38.23Z"/><path class="cls-1" d="M28.88,32.27A18.52,18.52,0,0,1,32.1,32a5.75,5.75,0,0,1,3.48.77,2.56,2.56,0,0,1,1.26,2.27,2.82,2.82,0,0,1-2,2.63v0a3.06,3.06,0,0,1,2.45,3,3.15,3.15,0,0,1-1.17,2.5c-.86.76-2.29,1.13-4.5,1.13a21.41,21.41,0,0,1-2.72-.16Zm2.2,4.79h1.13c1.53,0,2.39-.72,2.39-1.75s-.86-1.66-2.27-1.66a6,6,0,0,0-1.26.09Zm0,5.58a9.75,9.75,0,0,0,1.17.05c1.42,0,2.68-.54,2.68-2s-1.22-2-2.75-2h-1.1Z"/><path class="cls-1" d="M41.66,32.11h2.21V40c0,3.35-1.62,4.47-4,4.47A5.91,5.91,0,0,1,38,44.15l.27-1.78a4.85,4.85,0,0,0,1.37.22c1.26,0,2-.58,2-2.68Z"/><path class="cls-1" d="M50.16,38.68v1.53H45.56V38.68Z"/><path class="cls-1" d="M60.9,43.88a7.67,7.67,0,0,1-3.13.54c-3.85,0-6.19-2.41-6.19-6.1a6.1,6.1,0,0,1,6.48-6.41,7,7,0,0,1,3,.54l-.49,1.76a5.89,5.89,0,0,0-2.38-.47c-2.47,0-4.25,1.55-4.25,4.47,0,2.66,1.57,4.38,4.23,4.38a6.2,6.2,0,0,0,2.41-.45Z"/><path class="cls-1" d="M67.84,27V49.38H62.41v-2h2.88V29H62.41V27Z"/></g></g></svg>