<?xml version="1.0" encoding="utf-8"?>
<!-- Generator: Adobe Illustrator 21.0.0, SVG Export Plug-In . SVG Version: 6.00 Build 0)  -->
<svg version="1.1" id="Layer_1" xmlns="http://www.w3.org/2000/svg" xmlns:xlink="http://www.w3.org/1999/xlink" x="0px" y="0px"
	 viewBox="0 0 34.6 45.2" style="enable-background:new 0 0 34.6 45.2;" xml:space="preserve">
<style type="text/css">
	.st0{clip-path:url(#SVGID_2_);}
	.st1{fill:#6A8CA3;}
	.st2{fill:#5B6167;}
</style>
<title>coco2dx</title>
<g>
	<defs>
		<rect id="SVGID_1_" width="34.6" height="45.2"/>
	</defs>
	<clipPath id="SVGID_2_">
		<use xlink:href="#SVGID_1_"  style="overflow:visible;"/>
	</clipPath>
	<g class="st0">
		<path class="st1" d="M12.6,0l0.9,3.6l0.3,1.1l-0.9,0.7C6.4,10.8,3.5,16.5,2.4,21.2L0,17.6v4.9c-0.1,14.2,6.7,19.1,8.9,20.3
			c2.3,1.5,5,2.4,7.8,2.4H17c1.4,0,2.9-0.3,4.2-0.8c1.9-0.6,3.6-1.6,5.1-2.9c2.8-2.3,5-5.2,6.6-8.5l1.6-3.2l-2.8,0.8
			c0.2-1.5,0.3-2.9,0.3-4.4C32,22.6,31.3,19,30,15.7l-1.6-4.2l-0.8,2.9c-1.9-3-4.1-5.8-6.7-8.3c-3-2.5-5.2-3.9-5.3-4L12.6,0z
			 M14.9,3.2c0,0,8.8,5.6,13,15.1l0.6-2.1c2.8,7.8,2.1,13.6,1.2,16.6l1.9-0.6c-4,7.9-8.9,10-10.8,10.6c-1.2,0.4-2.5,0.7-3.7,0.7
			h-0.3c-2.5,0-4.9-0.8-7-2.2c-1.8-1-8.3-5.4-8.2-19L3,24.8c0-0.3,0.1-0.5,0.2-0.8c0.7-4.3,3-11.1,10.5-17.3l-1.1,4.5l2.1-3.8
			l1.5,1.5L14.9,3.2z"/>
		<path class="st1" d="M7.3,22.2c0.4-2.1,1.4-4.1,2.8-5.6c0,1.4,0.2,2.8,0.6,4.1c-0.5-0.5-0.9-1.2-1.2-1.9
			C8.5,19.8,7.8,20.9,7.3,22.2"/>
		<path class="st1" d="M15.3,15.5c0,0,1.1-2.8,0.9-3.8c1.2,1,2,2.3,2.5,3.7c-0.6-0.7-1.2-1.3-1.9-1.9C16.3,14.3,15.8,15,15.3,15.5"
			/>
		<path class="st1" d="M12.3,35c-0.7,0.1-1.3-0.4-1.4-1.1c-0.1-0.7,0.4-1.3,1.1-1.4s1.3,0.4,1.4,1.1c0,0,0,0,0,0
			C13.5,34.3,13,35,12.3,35C12.3,35,12.3,35,12.3,35 M15.9,30.5c-0.9-3.8-3.8-6.3-6.6-5.7S5,29,5.9,32.9s3.8,6.3,6.6,5.7
			S16.7,34.3,15.9,30.5"/>
		<path class="st1" d="M23.1,34.1c-0.1,0.5-0.6,0.9-1.1,1c-0.7,0.1-1.3-0.5-1.4-1.2c0-0.1,0-0.2,0-0.4c0.1-0.5,0.6-0.9,1.1-1
			c0.7,0,1.4,0.5,1.4,1.3C23.2,33.9,23.2,34,23.1,34.1 M24.8,24.8c-2.8-0.7-5.7,1.9-6.6,5.7s0.6,7.4,3.3,8.1s5.7-1.9,6.6-5.7
			S27.6,25.5,24.8,24.8"/>
		<path class="st1" d="M15.8,25.4c-0.2-2.1,0.3-4.3,1.2-6.2c0.4,1.3,0.9,2.6,1.6,3.8c-0.6-0.4-1.2-0.9-1.6-1.5
			C16.3,22.7,15.9,24,15.8,25.4"/>
		<path class="st1" d="M1.5,22.5c0.9,1.5,1.9,2.9,3.2,4.2c-0.8-1.4-1.5-2.8-2.2-4.3L1.5,22.5z"/>
		<path class="st1" d="M28.6,16.3c-0.2,1.4-0.7,2.8-1.6,3.9c0.4-1.2,0.7-2.5,0.9-3.7L28.6,16.3z"/>
	</g>
</g>
<polygon class="st2" points="31.5,32.4 28.4,33.3 30.6,31.9 "/>
</svg>
