<svg xmlns="http://www.w3.org/2000/svg" style="isolation:isolate" width="128" height="128"><defs><clipPath id="a"><path d="M0 0h128v128H0z"/></clipPath></defs><g clip-path="url(#a)"><path d="M89.005 5.165H31.347c-5.099 0-9.022 4.118-9.022 9.021v99.628c0 4.903 4.119 9.021 9.022 9.021h74.132c4.903 0 9.021-4.118 9.021-9.021V30.856L89.005 5.165z" fill="#EEE"/><path d="M114.5 30.856H88.613l.392-25.691L114.5 30.856z" fill="#BFBFBF"/><g fill="#F33D00"><path d="M45.271 80.67c0-1.765-.588-2.942-1.961-3.922-1.373-.981-3.138-1.373-5.492-1.373v-7.06c2.55 0 4.315-.393 5.688-1.373a4.464 4.464 0 0 0 1.961-3.726v-9.61c0-2.942.981-5.099 2.942-6.276 1.961-1.177 5.295-1.765 10.002-1.765v6.668c-1.961 0-3.334.392-3.923 1.177-.784.588-1.176 1.765-1.176 2.941v8.826c-.196 3.726-2.354 5.883-6.864 6.472v.392c4.51.588 6.864 2.745 6.864 6.276V87.338c0 1.373.392 2.353 1.176 2.942.785.588 2.158.98 3.923 1.176v6.668c-4.707 0-8.041-.588-10.002-1.765-1.961-1.176-2.942-3.334-2.942-6.276V80.67h-.196zM91.554 89.887c0 2.158-.392 3.923-1.176 4.903-.785 1.177-2.158 1.961-3.923 2.354-1.765.588-4.314.784-7.648.784v-6.472c1.961 0 3.334-.392 3.922-.98.785-.589 1.177-1.765 1.177-3.138V78.12c0-1.765.588-3.137 1.765-4.118 1.177-.981 2.942-1.765 5.099-2.157v-.393c-4.511-.588-6.668-2.745-6.864-6.471v-8.826c0-1.372-.392-2.353-1.177-3.138-.784-.784-2.157-.98-3.922-1.176v-6.668c3.334 0 5.883.196 7.648.784 1.765.589 3.138 1.373 3.923 2.55.784 1.176 1.176 2.745 1.176 4.903v9.609c0 1.569.589 2.942 1.765 3.727 1.177.784 3.138 1.176 5.688 1.176v7.061c-2.354 0-4.315.392-5.491 1.176-1.373.785-1.962 2.158-1.962 4.119v9.609z"/></g><path fill="#F33D00" d="M13.5 11.049h48.637v23.73H13.5z"/><g fill="#FFF"><path d="M35.857 29.287l-.98-3.137h-4.903l-.981 3.137h-2.942l4.707-13.336h3.53l4.707 13.336h-3.138zm-1.765-5.491c-.784-2.942-1.373-4.511-1.373-4.903 0-.392-.196-.588-.196-.98-.196.784-.784 2.745-1.765 5.687h3.334v.196zM48.409 25.561c0 1.177-.392 2.157-1.373 2.746-.785.784-2.157.98-3.53.98-1.373 0-2.746-.196-3.726-.784v-2.55c.98.393 1.569.589 2.353.785.588.196 1.177.196 1.765.196.588 0 1.177-.196 1.373-.392.196-.196.588-.589.588-.981 0-.196 0-.588-.196-.784l-.588-.589c-.196-.196-.785-.392-1.765-.98-.785-.392-1.373-.785-1.765-1.177-.393-.392-.785-.784-.981-1.177-.196-.392-.392-.98-.392-1.569 0-1.176.392-2.157 1.177-2.745.784-.589 1.961-.981 3.334-.981.784 0 1.372 0 1.961.196.588.196 1.373.393 1.961.785l-1.177 2.353c-.784-.196-1.373-.588-1.765-.588-.392 0-.98-.196-1.373-.196-.588 0-.98.196-1.176.392a1.493 1.493 0 0 0-.393.981c0 .196 0 .392.196.588l.589.588c.196.196.784.392 1.765.981 1.177.588 2.157 1.177 2.549 1.765.393.588.589 1.373.589 2.157z"/></g></g></svg>