<?xml version="1.0" encoding="utf-8"?>
<!-- Generator: Adobe Illustrator 21.1.0, SVG Export Plug-In . SVG Version: 6.00 Build 0)  -->
<svg version="1.1" id="Layer_1" xmlns="http://www.w3.org/2000/svg" xmlns:xlink="http://www.w3.org/1999/xlink" x="0px" y="0px"
	 viewBox="0 0 400 140" style="enable-background:new 0 0 400 140;" xml:space="preserve">
<style type="text/css">
	.st0{fill:#334154;}
	.st1{fill:#2A3548;}
	.st2{fill:#F25C00;}
	.st3{fill:#1E2937;}
	.st4{fill:#CC4602;}
	.st5{fill:#D7DEED;}
	.st6{opacity:5.000000e-02;}
	.st7{fill:#E4EAF6;}
	.st8{opacity:0.1;}
	.st9{opacity:0.25;fill:#E4EAF6;}
	.st10{fill:#8C9CAD;}
	.st11{opacity:0.5;}
</style>
<rect x="0.2" y="0.2" class="st0" width="400" height="140"/>
<line class="st0" x1="0.2" y1="140.2" x2="0.2" y2="0.2"/>
<g>
	<polygon class="st1" points="141.7,97.5 141.7,40.4 92.2,11.8 42.7,40.4 42.7,97.5 92.2,126.1 	"/>
	<polygon class="st2" points="42.7,91.2 92.2,119.8 141.7,91.2 141.7,97.5 92.2,126.1 42.7,97.5 	"/>
	<polygon class="st3" points="141.7,97.5 141.7,40.4 92.2,11.8 92.2,126.1 	"/>
	<polygon class="st4" points="141.7,97.5 141.7,91.2 92.2,119.8 92.2,126.1 	"/>
</g>
<g>
	<path class="st3" d="M117.3,72.1c-0.5-1.1-1.1-2.1-2-3c-0.8-0.8-1.8-1.5-3-2c-1.1-0.5-2.3-0.8-3.7-0.8c-0.2-1.7-0.8-3.4-1.5-4.9
		c-0.5-0.9-1.1-1.8-1.7-2.6l-2.3,2.2c0.7,0.8,1.2,1.7,1.6,2.7c0.6,1.4,0.8,2.7,0.8,4.2v1.6h3.1c0.8,0,1.7,0.2,2.4,0.5
		c0.8,0.3,1.4,0.8,2,1.4s1,1.2,1.4,2c0.3,0.8,0.5,1.6,0.5,2.4s-0.2,1.7-0.5,2.4c-0.3,0.8-0.8,1.4-1.4,2s-1.2,1-2,1.4
		c-0.8,0.3-1.6,0.5-2.4,0.5H80.5c-1.3,0-2.5-0.2-3.6-0.8c-1.1-0.5-2.1-1.1-3-2c-0.8-0.8-1.5-1.8-2-3c-0.5-1.1-0.8-2.3-0.8-3.6
		s0.2-2.5,0.8-3.6c0.5-1.1,1.1-2.1,2-3c0.8-0.8,1.8-1.5,3-2c1.1-0.5,2.3-0.8,3.6-0.8c1.4,0,2.7,0.3,3.9,0.8c0.4-1.1,1-2,1.7-3
		c0.7-0.8,1.4-1.6,2.3-2.2c0.9-0.6,1.9-1.1,3-1.4c1.1-0.4,2.1-0.5,3.3-0.5c1.3,0,2.5,0.2,3.7,0.6l2.4-2.3c-0.3-0.2-0.7-0.3-1-0.5
		c-1.6-0.6-3.3-1-5.2-1c-1.2,0-2.3,0.2-3.5,0.5c-1.1,0.3-2.2,0.7-3.3,1.3c-1,0.5-2,1.2-2.8,2s-1.6,1.7-2.3,2.7
		c-0.8-0.2-1.5-0.2-2.3-0.2c-1.7,0-3.3,0.3-4.8,1s-2.9,1.5-4,2.7c-1.1,1.1-2,2.4-2.7,4c-0.7,1.5-1,3.2-1,4.8c0,1.7,0.3,3.3,1,4.8
		s1.5,2.9,2.7,4s2.4,2,4,2.7c1.5,0.7,3.2,1,4.8,1h28.1c1.3,0,2.5-0.2,3.6-0.8c1.1-0.5,2.1-1.1,3-2c0.8-0.8,1.5-1.8,2-3
		c0.5-1.1,0.8-2.3,0.8-3.6C118,74.4,117.8,73.2,117.3,72.1z"/>
</g>
<polygon class="st1" points="102.9,50.7 83,69.9 81.7,75.1 86.6,74.3 106.5,54.1 105.2,51.1 "/>
<g>
	<g>
		<path class="st5" d="M115.8,69.8c-0.5-1.1-1.1-2.1-2-3c-0.8-0.8-1.8-1.5-3-2c-1.1-0.5-2.3-0.8-3.7-0.8c-0.2-1.7-0.8-3.4-1.5-4.9
			c-0.5-0.9-1.1-1.8-1.7-2.6l-2.3,2.2c0.7,0.8,1.2,1.7,1.6,2.7c0.6,1.4,0.8,2.7,0.8,4.2v1.6h3.1c0.8,0,1.7,0.2,2.4,0.5
			c0.8,0.3,1.4,0.8,2,1.4s1,1.2,1.4,2c0.3,0.8,0.5,1.6,0.5,2.4s-0.2,1.7-0.5,2.4c-0.3,0.8-0.8,1.4-1.4,2s-1.2,1-2,1.4
			c-0.8,0.3-1.6,0.5-2.4,0.5H79c-1.3,0-2.5-0.2-3.6-0.8c-1.1-0.5-2.1-1.1-3-2c-0.8-0.8-1.5-1.8-2-3c-0.5-1.1-0.8-2.3-0.8-3.6
			c0-1.3,0.2-2.5,0.8-3.6c0.5-1.1,1.1-2.1,2-3c0.8-0.8,1.8-1.5,3-2c1.1-0.5,2.3-0.8,3.6-0.8c1.4,0,2.7,0.3,3.9,0.8
			c0.4-1.1,1-2,1.7-3c0.7-0.8,1.4-1.6,2.3-2.2s1.9-1.1,3-1.4c1.1-0.4,2.1-0.5,3.3-0.5c1.3,0,2.5,0.2,3.7,0.6l2.4-2.3
			c-0.3-0.2-0.7-0.3-1-0.5c-1.6-0.6-3.3-1-5.2-1c-1.2,0-2.3,0.2-3.5,0.5c-1.1,0.3-2.2,0.7-3.3,1.3c-1,0.5-2,1.2-2.8,2
			S81.9,57,81.2,58c-0.8-0.2-1.5-0.2-2.3-0.2c-1.7,0-3.3,0.3-4.8,1s-2.9,1.5-4,2.7c-1.1,1.1-2,2.4-2.7,4c-0.7,1.5-1,3.2-1,4.8
			c0,1.7,0.3,3.3,1,4.8s1.5,2.9,2.7,4c1.1,1.1,2.4,2,4,2.7c1.5,0.7,3.2,1,4.8,1H107c1.3,0,2.5-0.2,3.6-0.8c1.1-0.5,2.1-1.1,3-2
			c0.8-0.8,1.5-1.8,2-3c0.5-1.1,0.8-2.3,0.8-3.6C116.5,72.2,116.3,71,115.8,69.8z"/>
	</g>
	<g>
		<path class="st2" d="M99.5,51.9c0.3-0.3,0.6-0.6,0.9-0.9c0.3-0.3,0.6-0.6,0.9-0.8s0.7-0.5,1.1-0.6c0.4-0.2,0.8-0.2,1.3-0.2
			s1.1,0.1,1.5,0.3c0.5,0.2,0.9,0.5,1.2,0.8c0.3,0.3,0.6,0.8,0.8,1.3c0.2,0.5,0.3,1,0.3,1.5s-0.1,0.9-0.2,1.3
			c-0.2,0.4-0.3,0.8-0.5,1.1s-0.5,0.6-0.8,0.9c-0.3,0.3-0.6,0.6-0.9,0.9l-2.5,2.6L87.3,75.3l-7.4,1.9l1.9-7.4L97,54.5L99.5,51.9z
			 M86,73.1l18.7-18.7c0.3-0.3,0.4-0.6,0.4-1s-0.2-0.8-0.5-1c-0.3-0.3-0.6-0.4-1-0.4s-0.7,0.2-1,0.4L83.9,71l-0.7,2.7"/>
	</g>
</g>
<g class="st6">
	<g>
		<path class="st7" d="M304.6,76.2c0,0-0.1,0-0.1,0c-1.1-11.4-10.7-20.3-22.4-20.3c-11.5,0-21.1,8.7-22.4,19.9
			c-3.3-3.1-7.7-5-12.6-5c-8.5,0-15.7,5.8-17.7,13.7c-1.3-0.4-2.6-0.6-4-0.6c-8,0-14.4,6.5-14.4,14.4s6.5,14.4,14.4,14.4
			c5.6,0,71.2,0,79.2,0c10.1,0,18.3-8.2,18.3-18.3C322.9,84.4,314.7,76.2,304.6,76.2z"/>
	</g>
</g>
<g class="st8">
	<g>
		<path class="st7" d="M303.6,72.2c0,0-0.1,0-0.1,0c-1.1-11.4-10.7-20.3-22.4-20.3c-11.5,0-21.1,8.7-22.4,19.9
			c-3.3-3.1-7.7-5-12.6-5c-8.5,0-15.7,5.8-17.7,13.7c-1.3-0.4-2.6-0.6-4-0.6c-8,0-14.4,6.5-14.4,14.4s6.5,14.4,14.4,14.4
			c5.6,0,71.2,0,79.2,0c10.1,0,18.3-8.2,18.3-18.3C321.9,80.4,313.7,72.2,303.6,72.2z"/>
	</g>
</g>
<path class="st9" d="M284,88.3c3.1,0,5.7,2.5,5.7,5.7c0,3.1-2.5,5.7-5.7,5.7H272V88.3H284z"/>
<path class="st10" d="M280.6,100.8l-0.1,18.9c0,3.5-2.9,6.3-6.4,6.3l-21.6-0.2l0.2-31.3c0-3.5,2.9-6.3,6.4-6.3l5.6,0l20.2,0.1
	c-3.1,0-4.3,2.5-4.3,5.6L280.6,100.8z"/>
<path class="st7" d="M252.2,125.9c-3.1,0-5.7-2.5-5.7-5.7c0-3.1,2.5-5.7,5.7-5.7h21.9c-3.1,0-5.7,2.5-5.7,5.7c0,3.1,2.5,5.7,5.7,5.7
	H252.2z"/>
<g class="st11">
	<g class="st8">
		<g>
			<path class="st7" d="M367.8,29.8C367.7,29.8,367.7,29.8,367.8,29.8c-0.7-6.7-6.4-12-13.3-12c-6.8,0-12.4,5.1-13.2,11.7
				c-1.9-1.8-4.6-3-7.4-3c-5,0-9.2,3.4-10.4,8.1c-0.8-0.2-1.5-0.3-2.4-0.3c-4.7,0-8.5,3.8-8.5,8.5s3.8,8.5,8.5,8.5
				c3.3,0,42,0,46.7,0c6,0,10.8-4.8,10.8-10.8C378.5,34.6,373.7,29.8,367.8,29.8z"/>
		</g>
	</g>
	<path class="st9" d="M356.2,39.3c1.8,0,3.3,1.5,3.3,3.3c0,1.8-1.5,3.3-3.3,3.3h-7.1v-6.7H356.2z"/>
	<path class="st10" d="M354.2,46.7l-0.1,11.1c0,2.1-1.7,3.7-3.7,3.7l-12.8-0.1l0.1-18.5c0-2.1,1.7-3.7,3.7-3.7l3.3,0l11.9,0.1
		c-1.8,0-2.5,1.5-2.5,3.3L354.2,46.7z"/>
	<path class="st7" d="M337.4,61.5c-1.8,0-3.3-1.5-3.3-3.3c0-1.8,1.5-3.3,3.3-3.3h12.9c-1.8,0-3.3,1.5-3.3,3.3c0,1.8,1.5,3.3,3.3,3.3
		H337.4z"/>
</g>
<g class="st11">
	<g class="st8">
		<g>
			<path class="st7" d="M240.2,25.3C240.2,25.3,240.2,25.3,240.2,25.3c-0.8-7.6-7.2-13.5-15-13.5c-7.7,0-14,5.8-14.9,13.3
				c-2.2-2.1-5.1-3.4-8.4-3.4c-5.7,0-10.5,3.9-11.8,9.1c-0.8-0.2-1.7-0.4-2.7-0.4c-5.3,0-9.6,4.3-9.6,9.6s4.3,9.6,9.6,9.6
				c3.7,0,47.5,0,52.8,0c6.7,0,12.2-5.5,12.2-12.2C252.4,30.8,247,25.3,240.2,25.3z"/>
		</g>
	</g>
	<path class="st9" d="M227.2,36c2.1,0,3.8,1.7,3.8,3.8c0,2.1-1.7,3.8-3.8,3.8h-8V36H227.2z"/>
	<path class="st10" d="M224.8,44.4L224.8,57c0,2.3-1.9,4.2-4.2,4.2L206.1,61l0.1-20.9c0-2.3,1.9-4.2,4.2-4.2l3.7,0l13.5,0.1
		c-2.1,0-2.8,1.7-2.9,3.7L224.8,44.4z"/>
	<path class="st7" d="M205.9,61.1c-2.1,0-3.8-1.7-3.8-3.8c0-2.1,1.7-3.8,3.8-3.8h14.6c-2.1,0-3.8,1.7-3.8,3.8c0,2.1,1.7,3.8,3.8,3.8
		H205.9z"/>
</g>
</svg>
