<?xml version="1.0" encoding="utf-8"?>
<!-- Generator: Adobe Illustrator 21.1.0, SVG Export Plug-In . SVG Version: 6.00 Build 0)  -->
<svg version="1.1" id="Layer_1" xmlns="http://www.w3.org/2000/svg" xmlns:xlink="http://www.w3.org/1999/xlink" x="0px" y="0px"
	 viewBox="0 0 400 140" style="enable-background:new 0 0 400 140;" xml:space="preserve">
<style type="text/css">
	.st0{fill:#334154;}
	.st1{fill:#1E2937;}
	.st2{fill:#CC4602;}
	.st3{fill:#F25C00;}
	.st4{fill:#2A3548;}
	.st5{opacity:0.1;}
	.st6{fill:#D7DEED;}
	.st7{opacity:0.1;fill:#D7DEED;enable-background:new    ;}
	.st8{opacity:5.000000e-02;}
</style>
<rect x="0.2" y="0.2" class="st0" width="400" height="140"/>
<path class="st1" d="M281.6,64l-4.4,11.7v-12h-3.7v11.9c-1.3-3.6-3.1-8.3-4.4-11.7h-14.9v-5.3h-9V64v5.2c0,2.1,1.7,3.8,3.8,3.8h5.2
	h10.3v50.2c0,2.1,1.7,3.8,3.8,3.8h1.4c2.1,0,3.8-1.7,3.8-3.8V94h3.7v29.2c0,2.1,1.7,3.8,3.8,3.8h1.4c2.1,0,3.8-1.7,3.8-3.8V72.9
	h17.6v-9L281.6,64L281.6,64z"/>
<polygon class="st1" points="267.9,45.9 267.9,55.8 275.6,60.8 283.3,55.8 283.3,45.9 275.6,40.9 "/>
<polygon class="st2" points="319.6,68.2 308,79.8 308,56.6 "/>
<polygon class="st3" points="249.6,42.9 261.1,54.5 238,54.5 "/>
<g>
	<path class="st4" d="M273.5,63.7v11.9c-1.3-3.6-3.1-8.3-4.4-11.7h-14.9v-5.3h-9V64v5.2c0,2.1,1.7,3.8,3.8,3.8h5.2h10.3v50.2
		c0,2.1,1.7,3.8,3.8,3.8h1.4c2.1,0,3.8-1.7,3.8-3.8V94h2V63.7H273.5z"/>
	<polygon class="st4" points="267.9,45.9 267.9,55.8 275.6,60.8 275.6,40.9 	"/>
</g>
<g class="st5">
	<path class="st6" d="M249.6,33.7c-0.7,0-1.3-0.6-1.3-1.3v-0.2c0-0.7,0.6-1.3,1.3-1.3s1.3,0.6,1.3,1.3v0.2
		C250.8,33.1,250.2,33.7,249.6,33.7z M249.6,28.1c-0.7,0-1.3-0.6-1.3-1.3v-0.2c0-0.7,0.6-1.3,1.3-1.3s1.3,0.6,1.3,1.3v0.2
		C250.8,27.5,250.2,28.1,249.6,28.1z M249.6,22.5c-0.7,0-1.3-0.6-1.3-1.3V21c0-0.7,0.6-1.3,1.3-1.3s1.3,0.6,1.3,1.3v0.2
		C250.8,21.9,250.2,22.5,249.6,22.5z"/>
	<path class="st6" d="M249.6,16.9c-0.5,0-0.9-0.3-1.1-0.7c-0.3-0.4-0.3-0.9-0.1-1.3c0.3-0.6,1-0.9,1.7-0.6l0.8,0.4v0.9
		C250.8,16.3,250.2,16.9,249.6,16.9z"/>
</g>
<g class="st5">
	<path class="st6" d="M383,95.5c-0.3,0-0.6-0.1-0.9-0.4L382,95c-0.5-0.5-0.5-1.3,0-1.8s1.3-0.5,1.8,0l0.2,0.2c0.5,0.5,0.5,1.3,0,1.8
		C383.7,95.4,383.4,95.5,383,95.5z M378.6,91.1c-0.3,0-0.6-0.1-0.9-0.4l-0.2-0.2c-0.5-0.5-0.5-1.3,0-1.8s1.3-0.5,1.8,0l0.2,0.2
		c0.5,0.5,0.5,1.3,0,1.8C379.2,91,378.9,91.1,378.6,91.1z M374.1,86.7c-0.3,0-0.6-0.1-0.9-0.4l-0.2-0.2c-0.5-0.5-0.5-1.3,0-1.8
		s1.3-0.5,1.8,0l0.2,0.2c0.5,0.5,0.5,1.3,0,1.8C374.8,86.6,374.4,86.7,374.1,86.7z M369.6,82.3c-0.3,0-0.6-0.1-0.9-0.4l-0.2-0.2
		c-0.5-0.5-0.5-1.3,0-1.8s1.3-0.5,1.8,0l0.2,0.2c0.5,0.5,0.5,1.3,0,1.8C370.3,82.2,370,82.3,369.6,82.3z M365.2,77.9
		c-0.3,0-0.6-0.1-0.9-0.4l-0.2-0.2c-0.5-0.5-0.5-1.3,0-1.8s1.3-0.5,1.8,0l0.2,0.2c0.5,0.5,0.5,1.3,0,1.8
		C365.8,77.8,365.5,77.9,365.2,77.9z M360.7,73.5c-0.3,0-0.6-0.1-0.9-0.4l-0.2-0.2c-0.5-0.5-0.5-1.3,0-1.8s1.3-0.5,1.8,0l0.2,0.2
		c0.5,0.5,0.5,1.3,0,1.8C361.3,73.4,361,73.5,360.7,73.5z M343.8,69.5h-0.3c-0.7,0-1.3-0.6-1.3-1.3c0-0.7,0.6-1.3,1.3-1.3h0.3
		c0.7,0,1.3,0.6,1.3,1.3C345,68.9,344.5,69.5,343.8,69.5z M337.5,69.5h-0.3c-0.7,0-1.3-0.6-1.3-1.3c0-0.7,0.6-1.3,1.3-1.3h0.3
		c0.7,0,1.3,0.6,1.3,1.3S338.2,69.5,337.5,69.5z"/>
</g>
<path class="st7" d="M350,69.5h-0.3c-0.7,0-1.3-0.6-1.3-1.3c0-0.7,0.6-1.3,1.3-1.3h0.3c0.7,0,1.3,0.6,1.3,1.3S350.7,69.5,350,69.5z"
	/>
<path class="st7" d="M356.3,69.5H356c-0.7,0-1.3-0.6-1.3-1.3c0-0.7,0.6-1.3,1.3-1.3h0.3c0.7,0,1.3,0.6,1.3,1.3
	C357.6,68.9,357,69.5,356.3,69.5z"/>
<path class="st7" d="M396.5,108.7c-0.3,0-0.6-0.1-0.9-0.4l-0.2-0.2c-0.5-0.5-0.5-1.3,0-1.8s1.3-0.5,1.8,0l0.2,0.2
	c0.5,0.5,0.5,1.3,0,1.8C397.1,108.5,396.8,108.7,396.5,108.7z"/>
<path class="st7" d="M392,104.3c-0.3,0-0.6-0.1-0.9-0.4l-0.2-0.2c-0.5-0.5-0.5-1.3,0-1.8s1.3-0.5,1.8,0l0.2,0.2
	c0.5,0.5,0.5,1.3,0,1.8C392.6,104.2,392.3,104.3,392,104.3z"/>
<path class="st7" d="M387.5,99.9c-0.3,0-0.6-0.1-0.9-0.4l-0.2-0.2c-0.5-0.5-0.5-1.3,0-1.8s1.3-0.5,1.8,0l0.2,0.2
	c0.5,0.5,0.5,1.3,0,1.8C388.2,99.8,387.8,99.9,387.5,99.9z"/>
<g class="st8">
	<g class="st8">
		<path class="st6" d="M340.5,108.9h-1c-1.1,0-2-0.9-2-2s0.9-2,2-2h1c1.1,0,2,0.9,2,2S341.6,108.9,340.5,108.9z M329.5,108.9h-1
			c-1.1,0-2-0.9-2-2s0.9-2,2-2h1c1.1,0,2,0.9,2,2S330.7,108.9,329.5,108.9z M318.6,108.9h-1c-1.1,0-2-0.9-2-2s0.9-2,2-2h1
			c1.1,0,2,0.9,2,2S319.7,108.9,318.6,108.9z M307.6,108.9h-1c-1.1,0-2-0.9-2-2s0.9-2,2-2h1c1.1,0,2,0.9,2,2
			S308.7,108.9,307.6,108.9z M296.6,108.9h-1c-1.1,0-2-0.9-2-2s0.9-2,2-2h1c1.1,0,2,0.9,2,2S297.7,108.9,296.6,108.9z M285.7,108.9
			h-1c-1.1,0-2-0.9-2-2s0.9-2,2-2h1c1.1,0,2,0.9,2,2S286.8,108.9,285.7,108.9z M274.7,108.9h-1c-1.1,0-2-0.9-2-2s0.9-2,2-2h1
			c1.1,0,2,0.9,2,2S275.8,108.9,274.7,108.9z M263.7,108.9h-1c-1.1,0-2-0.9-2-2s0.9-2,2-2h1c1.1,0,2,0.9,2,2
			S264.8,108.9,263.7,108.9z M252.8,108.9h-1c-1.1,0-2-0.9-2-2s0.9-2,2-2h1c1.1,0,2,0.9,2,2S253.9,108.9,252.8,108.9z M241.8,108.9
			h-1c-1.1,0-2-0.9-2-2s0.9-2,2-2h1c1.1,0,2,0.9,2,2S242.9,108.9,241.8,108.9z M231.1,108.1c-0.5,0-1-0.2-1.4-0.6l-0.7-0.7
			c-0.8-0.8-0.8-2,0-2.8s2-0.8,2.8,0l0.7,0.7c0.8,0.8,0.8,2,0,2.8C232.2,107.9,231.7,108.1,231.1,108.1z M348.8,104.7
			c-0.5,0-1-0.2-1.4-0.6c-0.8-0.8-0.8-2,0-2.8l0.7-0.7c0.8-0.8,2-0.8,2.8,0s0.8,2,0,2.8l-0.7,0.7
			C349.8,104.5,349.3,104.7,348.8,104.7z M223.4,100.3c-0.5,0-1-0.2-1.4-0.6l-0.7-0.7c-0.8-0.8-0.8-2,0-2.8s2-0.8,2.8,0l0.7,0.7
			c0.8,0.8,0.8,2,0,2.8C224.4,100.1,223.9,100.3,223.4,100.3z M356.5,96.9c-0.5,0-1-0.2-1.4-0.6c-0.8-0.8-0.8-2,0-2.8l0.7-0.7
			c0.8-0.8,2-0.8,2.8,0s0.8,2,0,2.8l-0.7,0.7C357.5,96.7,357,96.9,356.5,96.9z M215.6,92.6c-0.5,0-1-0.2-1.4-0.6l-0.7-0.7
			c-0.8-0.8-0.8-2,0-2.8s2-0.8,2.8,0l0.7,0.7c0.8,0.8,0.8,2,0,2.8C216.7,92.4,216.1,92.6,215.6,92.6z M364.3,89.2
			c-0.5,0-1-0.2-1.4-0.6c-0.8-0.8-0.8-2,0-2.8l0.7-0.7c0.8-0.8,2-0.8,2.8,0s0.8,2,0,2.8l-0.7,0.7C365.3,89,364.8,89.2,364.3,89.2z
			 M207.9,84.8c-0.5,0-1-0.2-1.4-0.6l-0.7-0.7c-0.8-0.8-0.8-2,0-2.8s2-0.8,2.8,0l0.7,0.7c0.8,0.8,0.8,2,0,2.8
			C208.9,84.6,208.4,84.8,207.9,84.8z M372,81.4c-0.5,0-1-0.2-1.4-0.6c-0.8-0.8-0.8-2,0-2.8l0.7-0.7c0.8-0.8,2-0.8,2.8,0
			s0.8,2,0,2.8l-0.7,0.7C373,81.2,372.5,81.4,372,81.4z M200.1,77.1c-0.5,0-1-0.2-1.4-0.6l-0.7-0.7c-0.8-0.8-0.8-2,0-2.8
			s2-0.8,2.8,0l0.7,0.7c0.8,0.8,0.8,2,0,2.8C201.1,76.9,200.6,77.1,200.1,77.1z M379.8,73.7c-0.5,0-1-0.2-1.4-0.6
			c-0.8-0.8-0.8-2,0-2.8l0.7-0.7c0.8-0.8,2-0.8,2.8,0s0.8,2,0,2.8l-0.7,0.7C380.8,73.5,380.3,73.7,379.8,73.7z M192.4,69.3
			c-0.5,0-1-0.2-1.4-0.6l-0.7-0.7c-0.8-0.8-0.8-2,0-2.8s2-0.8,2.8,0l0.7,0.7c0.8,0.8,0.8,2,0,2.8C193.4,69.1,192.9,69.3,192.4,69.3z
			 M387.5,65.9c-0.5,0-1-0.2-1.4-0.6c-0.8-0.8-0.8-2,0-2.8l0.7-0.7c0.8-0.8,2-0.8,2.8,0s0.8,2,0,2.8l-0.7,0.7
			C388.6,65.7,388,65.9,387.5,65.9z M184.6,61.6c-0.5,0-1-0.2-1.4-0.6l-0.7-0.7c-0.8-0.8-0.8-2,0-2.8s2-0.8,2.8,0l0.7,0.7
			c0.8,0.8,0.8,2,0,2.8C185.6,61.4,185.1,61.6,184.6,61.6z M395.3,58.1c-0.5,0-1-0.2-1.4-0.6c-0.8-0.8-0.8-2,0-2.8l0.7-0.7
			c0.8-0.8,2-0.8,2.8,0s0.8,2,0,2.8l-0.7,0.7C396.3,58,395.8,58.1,395.3,58.1z M176.9,53.8c-0.5,0-1-0.2-1.4-0.6l-0.7-0.7
			c-0.8-0.8-0.8-2,0-2.8s2-0.8,2.8,0l0.7,0.7c0.8,0.8,0.8,2,0,2.8C177.9,53.6,177.4,53.8,176.9,53.8z M169.1,46
			c-0.5,0-1-0.2-1.4-0.6l-0.7-0.7c-0.8-0.8-0.8-2,0-2.8s2-0.8,2.8,0l0.7,0.7c0.8,0.8,0.8,2,0,2.8C170.1,45.8,169.6,46,169.1,46z
			 M161.3,38.3c-0.5,0-1-0.2-1.4-0.6l-0.7-0.7c-0.8-0.8-0.8-2,0-2.8s2-0.8,2.8,0l0.7,0.7c0.8,0.8,0.8,2,0,2.8
			C162.4,38.1,161.9,38.3,161.3,38.3z M155.9,29.6c-1.1,0-2-0.9-2-2v-1c0-1.1,0.9-2,2-2s2,0.9,2,2v1C157.9,28.7,157,29.6,155.9,29.6
			z M155.9,18.6c-1.1,0-2-0.9-2-2v-1c0-1.1,0.9-2,2-2s2,0.9,2,2v1C157.9,17.7,157,18.6,155.9,18.6z M155.9,7.6c-1.1,0-2-0.9-2-2v-1
			c0-1.1,0.9-2,2-2s2,0.9,2,2v1C157.9,6.7,157,7.6,155.9,7.6z"/>
	</g>
	<g>
		<path class="st6" d="M340.5,108.9h-1c-1.1,0-2-0.9-2-2s0.9-2,2-2h1c1.1,0,2,0.9,2,2S341.6,108.9,340.5,108.9z M329.5,108.9h-1
			c-1.1,0-2-0.9-2-2s0.9-2,2-2h1c1.1,0,2,0.9,2,2S330.7,108.9,329.5,108.9z M318.6,108.9h-1c-1.1,0-2-0.9-2-2s0.9-2,2-2h1
			c1.1,0,2,0.9,2,2S319.7,108.9,318.6,108.9z M307.6,108.9h-1c-1.1,0-2-0.9-2-2s0.9-2,2-2h1c1.1,0,2,0.9,2,2
			S308.7,108.9,307.6,108.9z M296.6,108.9h-1c-1.1,0-2-0.9-2-2s0.9-2,2-2h1c1.1,0,2,0.9,2,2S297.7,108.9,296.6,108.9z M285.7,108.9
			h-1c-1.1,0-2-0.9-2-2s0.9-2,2-2h1c1.1,0,2,0.9,2,2S286.8,108.9,285.7,108.9z M274.7,108.9h-1c-1.1,0-2-0.9-2-2s0.9-2,2-2h1
			c1.1,0,2,0.9,2,2S275.8,108.9,274.7,108.9z M263.7,108.9h-1c-1.1,0-2-0.9-2-2s0.9-2,2-2h1c1.1,0,2,0.9,2,2
			S264.8,108.9,263.7,108.9z M252.8,108.9h-1c-1.1,0-2-0.9-2-2s0.9-2,2-2h1c1.1,0,2,0.9,2,2S253.9,108.9,252.8,108.9z M241.8,108.9
			h-1c-1.1,0-2-0.9-2-2s0.9-2,2-2h1c1.1,0,2,0.9,2,2S242.9,108.9,241.8,108.9z M231.1,108.1c-0.5,0-1-0.2-1.4-0.6l-0.7-0.7
			c-0.8-0.8-0.8-2,0-2.8s2-0.8,2.8,0l0.7,0.7c0.8,0.8,0.8,2,0,2.8C232.2,107.9,231.7,108.1,231.1,108.1z M348.8,104.7
			c-0.5,0-1-0.2-1.4-0.6c-0.8-0.8-0.8-2,0-2.8l0.7-0.7c0.8-0.8,2-0.8,2.8,0s0.8,2,0,2.8l-0.7,0.7
			C349.8,104.5,349.3,104.7,348.8,104.7z M223.4,100.3c-0.5,0-1-0.2-1.4-0.6l-0.7-0.7c-0.8-0.8-0.8-2,0-2.8s2-0.8,2.8,0l0.7,0.7
			c0.8,0.8,0.8,2,0,2.8C224.4,100.1,223.9,100.3,223.4,100.3z M356.5,96.9c-0.5,0-1-0.2-1.4-0.6c-0.8-0.8-0.8-2,0-2.8l0.7-0.7
			c0.8-0.8,2-0.8,2.8,0s0.8,2,0,2.8l-0.7,0.7C357.5,96.7,357,96.9,356.5,96.9z M215.6,92.6c-0.5,0-1-0.2-1.4-0.6l-0.7-0.7
			c-0.8-0.8-0.8-2,0-2.8s2-0.8,2.8,0l0.7,0.7c0.8,0.8,0.8,2,0,2.8C216.7,92.4,216.1,92.6,215.6,92.6z M364.3,89.2
			c-0.5,0-1-0.2-1.4-0.6c-0.8-0.8-0.8-2,0-2.8l0.7-0.7c0.8-0.8,2-0.8,2.8,0s0.8,2,0,2.8l-0.7,0.7C365.3,89,364.8,89.2,364.3,89.2z
			 M207.9,84.8c-0.5,0-1-0.2-1.4-0.6l-0.7-0.7c-0.8-0.8-0.8-2,0-2.8s2-0.8,2.8,0l0.7,0.7c0.8,0.8,0.8,2,0,2.8
			C208.9,84.6,208.4,84.8,207.9,84.8z M372,81.4c-0.5,0-1-0.2-1.4-0.6c-0.8-0.8-0.8-2,0-2.8l0.7-0.7c0.8-0.8,2-0.8,2.8,0
			s0.8,2,0,2.8l-0.7,0.7C373,81.2,372.5,81.4,372,81.4z M200.1,77.1c-0.5,0-1-0.2-1.4-0.6l-0.7-0.7c-0.8-0.8-0.8-2,0-2.8
			s2-0.8,2.8,0l0.7,0.7c0.8,0.8,0.8,2,0,2.8C201.1,76.9,200.6,77.1,200.1,77.1z M379.8,73.7c-0.5,0-1-0.2-1.4-0.6
			c-0.8-0.8-0.8-2,0-2.8l0.7-0.7c0.8-0.8,2-0.8,2.8,0s0.8,2,0,2.8l-0.7,0.7C380.8,73.5,380.3,73.7,379.8,73.7z M192.4,69.3
			c-0.5,0-1-0.2-1.4-0.6l-0.7-0.7c-0.8-0.8-0.8-2,0-2.8s2-0.8,2.8,0l0.7,0.7c0.8,0.8,0.8,2,0,2.8C193.4,69.1,192.9,69.3,192.4,69.3z
			 M387.5,65.9c-0.5,0-1-0.2-1.4-0.6c-0.8-0.8-0.8-2,0-2.8l0.7-0.7c0.8-0.8,2-0.8,2.8,0s0.8,2,0,2.8l-0.7,0.7
			C388.6,65.7,388,65.9,387.5,65.9z M184.6,61.6c-0.5,0-1-0.2-1.4-0.6l-0.7-0.7c-0.8-0.8-0.8-2,0-2.8s2-0.8,2.8,0l0.7,0.7
			c0.8,0.8,0.8,2,0,2.8C185.6,61.4,185.1,61.6,184.6,61.6z M395.3,58.1c-0.5,0-1-0.2-1.4-0.6c-0.8-0.8-0.8-2,0-2.8l0.7-0.7
			c0.8-0.8,2-0.8,2.8,0s0.8,2,0,2.8l-0.7,0.7C396.3,58,395.8,58.1,395.3,58.1z M176.9,53.8c-0.5,0-1-0.2-1.4-0.6l-0.7-0.7
			c-0.8-0.8-0.8-2,0-2.8s2-0.8,2.8,0l0.7,0.7c0.8,0.8,0.8,2,0,2.8C177.9,53.6,177.4,53.8,176.9,53.8z M169.1,46
			c-0.5,0-1-0.2-1.4-0.6l-0.7-0.7c-0.8-0.8-0.8-2,0-2.8s2-0.8,2.8,0l0.7,0.7c0.8,0.8,0.8,2,0,2.8C170.1,45.8,169.6,46,169.1,46z
			 M161.3,38.3c-0.5,0-1-0.2-1.4-0.6l-0.7-0.7c-0.8-0.8-0.8-2,0-2.8s2-0.8,2.8,0l0.7,0.7c0.8,0.8,0.8,2,0,2.8
			C162.4,38.1,161.9,38.3,161.3,38.3z M155.9,29.6c-1.1,0-2-0.9-2-2v-1c0-1.1,0.9-2,2-2s2,0.9,2,2v1C157.9,28.7,157,29.6,155.9,29.6
			z M155.9,18.6c-1.1,0-2-0.9-2-2v-1c0-1.1,0.9-2,2-2s2,0.9,2,2v1C157.9,17.7,157,18.6,155.9,18.6z M155.9,7.6c-1.1,0-2-0.9-2-2v-1
			c0-1.1,0.9-2,2-2s2,0.9,2,2v1C157.9,6.7,157,7.6,155.9,7.6z"/>
	</g>
	<g>
		<path class="st6" d="M350.2,110l0.7,0.7c0.8,0.8,0.8,2,0,2.8s-2,0.8-2.8,0l-0.7-0.7c-0.8-0.8-0.8-2,0-2.8c0.4-0.4,0.9-0.6,1.4-0.6
			S349.8,109.6,350.2,110z M225.8,111.3c0.8,0.8,0.8,2,0,2.8l-0.7,0.7c-0.8,0.8-2,0.8-2.8,0s-0.8-2,0-2.8l0.7-0.7
			c0.4-0.4,0.9-0.6,1.4-0.6S225.4,110.9,225.8,111.3z M357.9,117.7l0.7,0.7c0.8,0.8,0.8,2,0,2.8s-2,0.8-2.8,0l-0.7-0.7
			c-0.8-0.8-0.8-2,0-2.8c0.4-0.4,0.9-0.6,1.4-0.6S357.5,117.3,357.9,117.7z M218,119.1c0.8,0.8,0.8,2,0,2.8l-0.7,0.7
			c-0.8,0.8-2,0.8-2.8,0s-0.8-2,0-2.8l0.7-0.7c0.4-0.4,0.9-0.6,1.4-0.6S217.7,118.7,218,119.1z M365.7,125.5l0.7,0.7
			c0.8,0.8,0.8,2,0,2.8s-2,0.8-2.8,0l-0.7-0.7c-0.8-0.8-0.8-2,0-2.8c0.4-0.4,0.9-0.6,1.4-0.6S365.3,125.1,365.7,125.5z M210.3,126.8
			c0.8,0.8,0.8,2,0,2.8l-0.7,0.7c-0.8,0.8-2,0.8-2.8,0s-0.8-2,0-2.8l0.7-0.7c0.4-0.4,0.9-0.6,1.4-0.6S209.9,126.4,210.3,126.8z
			 M373.4,133.2l0.7,0.7c0.8,0.8,0.8,2,0,2.8s-2,0.8-2.8,0l-0.7-0.7c-0.8-0.8-0.8-2,0-2.8c0.4-0.4,0.9-0.6,1.4-0.6
			S373,132.8,373.4,133.2z M202.5,134.6c0.8,0.8,0.8,2,0,2.8l-0.7,0.7c-0.8,0.8-2,0.8-2.8,0s-0.8-2,0-2.8l0.7-0.7
			c0.4-0.4,0.9-0.6,1.4-0.6S202.1,134.2,202.5,134.6z"/>
	</g>
</g>
<g>
	<path class="st7" d="M361.9,62.8c0.5,0.5,0.5,1.3,0,1.8l-0.2,0.2c-0.5,0.5-1.3,0.5-1.8,0s-0.5-1.3,0-1.8l0.2-0.2
		c0.2-0.2,0.6-0.4,0.9-0.4C361.4,62.4,361.7,62.5,361.9,62.8z"/>
	<path class="st7" d="M383.4,40.4c-0.3,0-0.6,0.1-0.9,0.4l-0.2,0.2c-0.5,0.5-0.5,1.3,0,1.8s1.3,0.5,1.8,0l0.2-0.2
		c0.5-0.5,0.5-1.3,0-1.8C384.1,40.5,383.7,40.4,383.4,40.4z"/>
	<path class="st7" d="M378.9,44.8c-0.3,0-0.6,0.1-0.9,0.4l-0.2,0.2c-0.5,0.5-0.5,1.3,0,1.8s1.3,0.5,1.8,0l0.2-0.2
		c0.5-0.5,0.5-1.3,0-1.8C379.6,44.9,379.3,44.8,378.9,44.8z"/>
	<path class="st7" d="M374.5,49.2c-0.3,0-0.6,0.1-0.9,0.4l-0.2,0.2c-0.5,0.5-0.5,1.3,0,1.8s1.3,0.5,1.8,0l0.2-0.2
		c0.5-0.5,0.5-1.3,0-1.8C375.1,49.3,374.8,49.2,374.5,49.2z"/>
	<path class="st7" d="M370,53.6c-0.3,0-0.6,0.1-0.9,0.4l-0.2,0.2c-0.5,0.5-0.5,1.3,0,1.8s1.3,0.5,1.8,0l0.2-0.2
		c0.5-0.5,0.5-1.3,0-1.8C370.6,53.7,370.3,53.6,370,53.6z"/>
	<path class="st7" d="M365.5,58c-0.3,0-0.6,0.1-0.9,0.4l-0.2,0.2c-0.5,0.5-0.5,1.3,0,1.8s1.3,0.5,1.8,0l0.2-0.2
		c0.5-0.5,0.5-1.3,0-1.8C366.2,58.1,365.8,58,365.5,58z"/>
</g>
<g>
	<path class="st7" d="M388.9,35.8c0.5,0.5,0.5,1.3,0,1.8l-0.2,0.2c-0.5,0.5-1.3,0.5-1.8,0s-0.5-1.3,0-1.8l0.2-0.2
		c0.2-0.2,0.6-0.4,0.9-0.4C388.4,35.4,388.7,35.5,388.9,35.8z"/>
	<path class="st7" d="M397,26.6c-0.3,0-0.6,0.1-0.9,0.4l-0.2,0.2c-0.5,0.5-0.5,1.3,0,1.8s1.3,0.5,1.8,0l0.2-0.2
		c0.5-0.5,0.5-1.3,0-1.8C397.6,26.7,397.3,26.6,397,26.6z"/>
	<path class="st7" d="M392.5,31c-0.3,0-0.6,0.1-0.9,0.4l-0.2,0.2c-0.5,0.5-0.5,1.3,0,1.8s1.3,0.5,1.8,0l0.2-0.2
		c0.5-0.5,0.5-1.3,0-1.8C393.2,31.1,392.8,31,392.5,31z"/>
</g>
<g class="st5">
	<path class="st6" d="M249.6,10.7c-0.7,0-1.3-0.6-1.3-1.3V9.2c0-0.7,0.6-1.3,1.3-1.3s1.3,0.6,1.3,1.3v0.2
		C250.8,10.1,250.2,10.7,249.6,10.7z M249.6,5.1c-0.7,0-1.3-0.6-1.3-1.3V3.6c0-0.7,0.6-1.3,1.3-1.3s1.3,0.6,1.3,1.3v0.2
		C250.8,4.5,250.2,5.1,249.6,5.1z"/>
</g>
<path class="st6" d="M324.8,69.5h-0.3c-0.7,0-1.3-0.6-1.3-1.3c0-0.7,0.6-1.3,1.3-1.3h0.3c0.7,0,1.3,0.6,1.3,1.3
	C326,68.9,325.5,69.5,324.8,69.5z"/>
<path class="st7" d="M331,69.5h-0.3c-0.7,0-1.3-0.6-1.3-1.3c0-0.7,0.6-1.3,1.3-1.3h0.3c0.7,0,1.3,0.6,1.3,1.3S331.7,69.5,331,69.5z"
	/>
<path class="st6" d="M249.8,39.5h-0.3c-0.7,0-1.3-0.6-1.3-1.3s0.6-1.3,1.3-1.3h0.3c0.7,0,1.3,0.6,1.3,1.3S250.5,39.5,249.8,39.5z"/>
<g>
	<g>
		<polygon class="st4" points="141.6,94.5 141.6,40.3 92.2,11.8 42.8,40.3 42.8,94.5 92.2,123.1 		"/>
		<polygon class="st3" points="42.8,91.1 92.2,119.6 141.6,91.1 141.6,97.3 92.2,125.9 42.8,97.3 		"/>
		<polygon class="st1" points="141.6,94.5 141.6,40.3 92.2,11.8 92.2,123.1 		"/>
		<polygon class="st2" points="141.6,97.3 141.6,91.1 92.2,119.6 92.2,125.9 		"/>
	</g>
</g>
<polygon class="st4" points="94.1,47.8 87.6,47.8 84.4,53.4 87.6,59.1 94.1,59.1 97.3,53.4 "/>
<path class="st4" d="M79.3,55.2l34.7,0.1c0,0,0.8,8.2,0.6,8.2s-5.7,1.1-5.7,1.1l-3.6,4l0.4,5l3.8,3.3l5.1,0.1l-0.1,9L97,85.7
	l-2.6,4.4l-6.7-0.2L85.3,86l-6.1-0.6l-1.8-1.9l0.1-6l-4.8-1.1l-2.9-2.4l-1-3.4l0.8-3.5l2.6-1.5l5.6-0.7L79.3,55.2z"/>
<path class="st1" d="M109.3,69.4c0.5-0.4,0.9-0.8,1.4-1c0.5-0.2,1.1-0.4,1.8-0.4h4.6V55.8h-21l-0.7,3.1h18.6V65h-1.5
	c-1.1,0-2,0.2-3,0.6c-0.9,0.4-1.7,1-2.4,1.7c-0.7,0.7-1.2,1.5-1.7,2.4c-0.4,0.9-0.6,1.9-0.6,2.9c0,1.1,0.2,2,0.6,3
	c0.4,0.9,1,1.7,1.7,2.4c0.7,0.7,1.5,1.2,2.4,1.7c0.9,0.4,2,0.6,3,0.6h1.5v6.1l-16.5,0.1l-2.4,4.2h-4.8l-2.4-4.2l-6-0.1
	c-0.5,0-0.8-0.2-1.1-0.5c-0.3-0.3-0.5-0.7-0.5-1.1v-7.6h-4.6c-0.6,0-1.2-0.2-1.8-0.4c-0.5-0.2-1.1-0.6-1.4-1c-0.5-0.4-0.8-0.9-1-1.4
	c-0.2-0.5-0.4-1.1-0.4-1.8c0-0.6,0.2-1.2,0.4-1.8c0.2-0.5,0.6-1.1,1-1.4c0.5-0.4,0.9-0.8,1.4-1s1.1-0.4,1.8-0.4h4.6v-7.7
	c0-0.4,0.2-0.8,0.5-1.1c0.3-0.3,0.7-0.5,1.1-0.5h6l-1.6-3.1h-4.4c-0.6,0-1.2,0.2-1.8,0.4c-0.5,0.2-1.1,0.6-1.4,1
	c-0.5,0.5-0.8,0.9-1,1.4c-0.2,0.5-0.4,1.1-0.4,1.8V65h-1.5c-1.1,0-2,0.2-3,0.6c-0.9,0.5-1.7,1-2.4,1.7s-1.2,1.5-1.7,2.4
	c-0.4,0.9-0.6,1.9-0.6,2.9c0,1.1,0.2,2,0.6,3c0.4,0.9,1,1.7,1.7,2.4c0.7,0.7,1.5,1.2,2.4,1.7c0.9,0.4,2,0.6,3,0.6h1.5v4.6
	c0,0.6,0.2,1.2,0.4,1.8c0.2,0.5,0.6,1.1,1,1.4c0.5,0.5,0.9,0.8,1.4,1c0.5,0.2,1.1,0.4,1.8,0.4h4.2l2.4,4.2H97l2.4-4.2h17.8V77.3
	h-4.6c-0.6,0-1.2-0.2-1.8-0.4c-0.5-0.2-1.1-0.6-1.4-1c-0.5-0.4-0.8-0.9-1-1.4c-0.2-0.5-0.4-1.1-0.4-1.8c0-0.6,0.2-1.2,0.4-1.8
	C108.6,70.3,108.9,69.8,109.3,69.4z"/>
<g>
	<path class="st6" d="M107.8,67.2c0.5-0.4,0.9-0.8,1.4-1c0.5-0.2,1.1-0.4,1.8-0.4h4.6V53.5H97.7L97,56.6h15.5v6.1h-1.5
		c-1.1,0-2,0.2-3,0.6c-0.9,0.4-1.7,1-2.4,1.7c-0.7,0.7-1.2,1.5-1.7,2.4c-0.4,0.9-0.6,1.9-0.6,2.9s0.2,2,0.6,3c0.4,0.9,1,1.7,1.7,2.4
		c0.7,0.7,1.5,1.2,2.4,1.7c0.9,0.4,2,0.6,3,0.6h1.5v6.1L96,84.2l-2.4,4.2h-4.8l-2.4-4.2l-6-0.1c-0.5,0-0.8-0.2-1.1-0.5
		c-0.3-0.3-0.5-0.7-0.5-1.1V75h-4.6c-0.6,0-1.2-0.2-1.8-0.4c-0.5-0.2-1.1-0.6-1.4-1c-0.5-0.4-0.8-0.9-1-1.4
		c-0.2-0.5-0.4-1.1-0.4-1.8c0-0.6,0.2-1.2,0.4-1.8c0.2-0.5,0.6-1.1,1-1.4c0.5-0.4,0.9-0.8,1.4-1c0.5-0.2,1.1-0.4,1.8-0.4h4.6v-7.7
		c0-0.4,0.2-0.8,0.5-1.1c0.3-0.3,0.7-0.5,1.1-0.5h6l-1.6-3.1h-4.4c-0.6,0-1.2,0.2-1.8,0.4c-0.5,0.2-1.1,0.6-1.4,1
		c-0.5,0.5-0.8,0.9-1,1.4c-0.2,0.5-0.4,1.1-0.4,1.8v4.6h-1.5c-1.1,0-2,0.2-3,0.6c-0.9,0.5-1.7,1-2.4,1.7c-0.7,0.7-1.2,1.5-1.7,2.4
		c-0.4,0.9-0.6,1.9-0.6,2.9s0.2,2,0.6,3c0.4,0.9,1,1.7,1.7,2.4c0.7,0.7,1.5,1.2,2.4,1.7c0.9,0.4,2,0.6,3,0.6h1.5v4.6
		c0,0.6,0.2,1.2,0.4,1.8c0.2,0.5,0.6,1.1,1,1.4c0.5,0.5,0.9,0.8,1.4,1s1.1,0.4,1.8,0.4h4.2l2.4,4.2h8.4l2.4-4.2h17.8V75h-4.6
		c-0.6,0-1.2-0.2-1.8-0.4c-0.5-0.2-1.1-0.6-1.4-1c-0.5-0.4-0.8-0.9-1-1.4s-0.4-1.1-0.4-1.8c0-0.6,0.2-1.2,0.4-1.8
		C107.1,68.1,107.4,67.5,107.8,67.2z"/>
	<path class="st3" d="M95.4,46.2h-8.3l-4.1,7.2l4.1,7.2h8.4l4.1-7.2L95.4,46.2z M93.6,57.6h-4.8l-2.4-4.2l2.4-4.2h4.8l2.4,4.2
		L93.6,57.6z"/>
</g>
</svg>
