<?xml version="1.0" encoding="utf-8"?>
<!-- Generator: Adobe Illustrator 21.1.0, SVG Export Plug-In . SVG Version: 6.00 Build 0)  -->
<svg version="1.1" id="Layer_1" xmlns="http://www.w3.org/2000/svg" xmlns:xlink="http://www.w3.org/1999/xlink" x="0px" y="0px"
	 viewBox="0 0 400 140" style="enable-background:new 0 0 400 140;" xml:space="preserve">
<style type="text/css">
	.st0{fill:#334154;}
	.st1{opacity:5.000000e-02;fill:#E4EAF6;}
	.st2{opacity:5.000000e-02;}
	.st3{fill:#D7DEED;}
	.st4{opacity:0.1;}
	.st5{fill:#E4EAF6;}
	.st6{opacity:0.5;fill:#E4EAF6;}
	.st7{fill:#2A3548;}
	.st8{fill:#F25C00;}
	.st9{fill:#1E2937;}
	.st10{fill:#CC4602;}
</style>
<rect x="0.2" y="0.2" class="st0" width="400" height="140"/>
<path class="st1" d="M184.9,27.3C184.9,27.3,184.9,27.3,184.9,27.3c0.8-7.3,7-13.1,14.5-13.1c7.4,0,13.6,5.6,14.4,12.8
	c2.1-2,5-3.3,8.1-3.3c5.5,0,10.1,3.8,11.4,8.8c0.8-0.2,1.7-0.4,2.6-0.4c5.1,0,9.3,4.2,9.3,9.3s-4.2,9.3-9.3,9.3
	c-3.6,0-45.9,0-51.1,0c-6.5,0-11.8-5.3-11.8-11.8C173.1,32.6,178.4,27.3,184.9,27.3z"/>
<g class="st2">
	<polygon class="st3" points="288.8,27.8 288.8,47.9 306,58.7 323.1,47.9 323.1,27.8 306.4,17.8 	"/>
</g>
<g class="st4">
	<g>
		<polygon class="st5" points="279.4,87.4 229,87.4 229,48 261.6,31.1 279.4,39.6 		"/>
		<path class="st5" d="M297.6,67c0,0-0.1,0-0.1,0c-1.2-12.1-11.4-21.6-23.9-21.6c-12.3,0-22.4,9.3-23.8,21.2
			c-3.5-3.3-8.2-5.4-13.4-5.4c-9.1,0-16.7,6.2-18.8,14.6c-1.4-0.4-2.8-0.6-4.3-0.6c-8.5,0-15.4,6.9-15.4,15.4s6.9,15.4,15.4,15.4
			c5.9,0,75.8,0,84.3,0c10.7,0,19.5-8.7,19.5-19.5C317.1,75.8,308.4,67,297.6,67z"/>
	</g>
	<path class="st6" d="M277.6,26.2c0,0,0.1,0,0.1,0c1.3-12.7,12-22.7,25-22.7c12.9,0,23.5,9.7,25,22.2c3.7-3.5,8.6-5.6,14.1-5.6
		c9.5,0,17.5,6.5,19.8,15.3c1.4-0.4,2.9-0.6,4.5-0.6c8.9,0,16.1,7.2,16.1,16.1S375,67,366.1,67c-6.2,0-79.5,0-88.5,0
		c-11.3,0-20.4-9.1-20.4-20.4C257.2,35.3,266.4,26.2,277.6,26.2z"/>
</g>
<g>
	<polygon class="st7" points="141.7,97.5 141.7,40.4 92.2,11.8 42.6,40.4 42.6,97.5 92.2,126.1 	"/>
	<polygon class="st8" points="42.6,91.2 92.2,119.8 141.7,91.2 141.7,97.5 92.2,126.1 42.6,97.5 	"/>
	<polygon class="st9" points="141.7,97.5 141.7,40.4 92.2,11.8 92.2,126.1 	"/>
	<polygon class="st10" points="141.7,97.5 141.7,91.2 92.2,119.8 92.2,126.1 	"/>
</g>
<polygon class="st9" points="321.5,47.1 306.5,56.6 306.5,39.2 321.5,30.5 "/>
<polygon class="st7" points="290.3,47.1 305.2,56.6 305.2,39.2 290.3,29.8 "/>
<polygon class="st8" points="321.3,28.9 305.8,37.7 291,28.5 306.1,19.7 "/>
<polygon class="st7" points="246.9,96.1 261.9,105.6 261.9,88.2 246.9,78.7 "/>
<polygon class="st9" points="278.1,77.2 263.2,86.7 263.2,69.3 278.1,59.8 "/>
<polygon class="st7" points="246.9,77.2 261.9,86.7 261.9,69.3 246.9,59.8 "/>
<g>
	<polygon class="st8" points="293,67.6 279.4,60 279.4,76.3 	"/>
</g>
<polygon class="st7" points="230.3,85.9 245.3,95.4 245.3,78 230.3,68.5 "/>
<polygon class="st7" points="230.3,67 245.3,76.5 245.3,59.1 230.3,49.6 "/>
<polygon class="st9" points="278.1,58.3 262.8,49.6 278.1,40.9 "/>
<g>
	<path class="st9" d="M276.2,88.7c0.7,0,1.3,0.1,2,0.2V78.7l-15,9.4v5C266.6,90.1,271.2,88.4,276.2,88.7z"/>
	<path class="st9" d="M294.4,79.1V68.5l-15,9.4v11.2c2,0.5,3.8,1.3,5.4,2.4C286,86.1,289.6,81.5,294.4,79.1z"/>
</g>
<g>
	<polygon class="st8" points="261.6,48.7 277.2,39.8 261.5,32.6 247,40.3 	"/>
	<polygon class="st8" points="245.9,57.8 260.5,49.5 245.6,40.8 230.9,48.4 	"/>
</g>
<g>
	<polygon class="st8" points="247.3,58.5 262.4,68.1 277.2,58.8 261.7,50.2 	"/>
</g>
<g>
	<path class="st5" d="M103.1,56.8l14.5,7.3v19.7l-14.5,7.3l-14.5-7.2v-8.1l-8.1,4L66,72.6l0-19.8l14.5-7.3L95,52.8l0,8.1L103.1,56.8
		z M69.3,56.4l0,14.1l9.7,4.8V61.2L69.3,56.4z M89.8,53.8l-9.3-4.6l-9.3,4.6l9.3,4.6L89.8,53.8z M82.2,75.4l6.5-3.2v-8.1l3.2-1.6
		l0-6.1l-9.7,4.8V75.4z M91.9,67.7l0,14.1l9.7,4.8V72.5L91.9,67.7z M112.4,65.1l-9.3-4.6l-9.3,4.6l9.3,4.6L112.4,65.1z M104.8,86.7
		l9.7-4.8V67.7l-9.7,4.8V86.7z"/>
</g>
<path class="st1" d="M324.7,96.1C324.7,96.1,324.6,96.2,324.7,96.1c-1-9.5-9.1-16.9-18.8-16.9c-9.6,0-17.6,7.3-18.7,16.6
	c-2.7-2.6-6.4-4.2-10.5-4.2c-7.1,0-13.1,4.9-14.8,11.5c-1.1-0.3-2.2-0.5-3.4-0.5c-6.7,0-12.1,5.4-12.1,12.1
	c0,6.7,5.4,12.1,12.1,12.1c4.6,0,59.5,0,66.2,0c8.4,0,15.3-6.8,15.3-15.3C340,103,333.1,96.1,324.7,96.1z"/>
</svg>
