<?xml version="1.0" encoding="utf-8"?>
<!-- Generator: Adobe Illustrator 21.1.0, SVG Export Plug-In . SVG Version: 6.00 Build 0)  -->
<svg version="1.1" id="Layer_1" xmlns="http://www.w3.org/2000/svg" xmlns:xlink="http://www.w3.org/1999/xlink" x="0px" y="0px"
	 viewBox="0 0 388 140" style="enable-background:new 0 0 388 140;" xml:space="preserve">
<style type="text/css">
	.st0{fill:#334154;}
	.st1{fill:#1E2937;}
	.st2{fill:#CC4602;}
	.st3{fill:#F25C00;}
	.st4{fill:#2A3548;}
	.st5{opacity:0.1;}
	.st6{fill:#D7DEED;}
	.st7{opacity:0.1;fill:#D7DEED;enable-background:new    ;}
	.st8{opacity:5.000000e-02;}
</style>
<rect class="st0" width="388" height="140"/>
<path class="st1" d="M265.6,64l-4.4,11.7v-12h-3.7v11.9c-1.3-3.6-3.1-8.3-4.4-11.7h-14.9v-5.3h-9V64v5.2c0,2.1,1.7,3.8,3.8,3.8h5.2
	h10.3v50.2c0,2.1,1.7,3.8,3.8,3.8h1.4c2.1,0,3.8-1.7,3.8-3.8V94h3.7v29.2c0,2.1,1.7,3.8,3.8,3.8h1.4c2.1,0,3.8-1.7,3.8-3.8V72.9
	h17.6v-9L265.6,64L265.6,64z"/>
<polygon class="st1" points="251.9,45.9 251.9,55.8 259.6,60.8 267.3,55.8 267.3,45.9 259.6,40.9 "/>
<polygon class="st2" points="303.6,68.2 292,79.8 292,56.6 "/>
<polygon class="st3" points="233.6,42.9 245.1,54.5 222,54.5 "/>
<g>
	<path class="st4" d="M257.5,63.7v11.9c-1.3-3.6-3.1-8.3-4.4-11.7h-14.9v-5.3h-9V64v5.2c0,2.1,1.7,3.8,3.8,3.8h5.2h10.3v50.2
		c0,2.1,1.7,3.8,3.8,3.8h1.4c2.1,0,3.8-1.7,3.8-3.8V94h2V63.7H257.5z"/>
	<polygon class="st4" points="251.9,45.9 251.9,55.8 259.6,60.8 259.6,40.9 	"/>
</g>
<g class="st5">
	<path class="st6" d="M233.6,33.7c-0.7,0-1.3-0.6-1.3-1.3v-0.2c0-0.7,0.6-1.3,1.3-1.3s1.3,0.6,1.3,1.3v0.2
		C234.8,33.1,234.2,33.7,233.6,33.7z M233.6,28.1c-0.7,0-1.3-0.6-1.3-1.3v-0.2c0-0.7,0.6-1.3,1.3-1.3s1.3,0.6,1.3,1.3v0.2
		C234.8,27.5,234.2,28.1,233.6,28.1z M233.6,22.5c-0.7,0-1.3-0.6-1.3-1.3V21c0-0.7,0.6-1.3,1.3-1.3s1.3,0.6,1.3,1.3v0.2
		C234.8,21.9,234.2,22.5,233.6,22.5z"/>
	<path class="st6" d="M233.6,16.9c-0.5,0-0.9-0.3-1.1-0.7c-0.3-0.4-0.3-0.9-0.1-1.3c0.3-0.6,1-0.9,1.7-0.6l0.8,0.4v0.9
		C234.8,16.3,234.2,16.9,233.6,16.9z"/>
</g>
<g class="st5">
	<path class="st6" d="M367,95.5c-0.3,0-0.6-0.1-0.9-0.4L366,95c-0.5-0.5-0.5-1.3,0-1.8s1.3-0.5,1.8,0l0.2,0.2c0.5,0.5,0.5,1.3,0,1.8
		C367.7,95.4,367.4,95.5,367,95.5z M362.6,91.1c-0.3,0-0.6-0.1-0.9-0.4l-0.2-0.2c-0.5-0.5-0.5-1.3,0-1.8s1.3-0.5,1.8,0l0.2,0.2
		c0.5,0.5,0.5,1.3,0,1.8C363.2,91,362.9,91.1,362.6,91.1z M358.1,86.7c-0.3,0-0.6-0.1-0.9-0.4l-0.2-0.2c-0.5-0.5-0.5-1.3,0-1.8
		s1.3-0.5,1.8,0l0.2,0.2c0.5,0.5,0.5,1.3,0,1.8C358.8,86.6,358.4,86.7,358.1,86.7z M353.6,82.3c-0.3,0-0.6-0.1-0.9-0.4l-0.2-0.2
		c-0.5-0.5-0.5-1.3,0-1.8s1.3-0.5,1.8,0l0.2,0.2c0.5,0.5,0.5,1.3,0,1.8C354.3,82.2,354,82.3,353.6,82.3z M349.2,77.9
		c-0.3,0-0.6-0.1-0.9-0.4l-0.2-0.2c-0.5-0.5-0.5-1.3,0-1.8s1.3-0.5,1.8,0l0.2,0.2c0.5,0.5,0.5,1.3,0,1.8
		C349.8,77.8,349.5,77.9,349.2,77.9z M344.7,73.5c-0.3,0-0.6-0.1-0.9-0.4l-0.2-0.2c-0.5-0.5-0.5-1.3,0-1.8s1.3-0.5,1.8,0l0.2,0.2
		c0.5,0.5,0.5,1.3,0,1.8C345.3,73.4,345,73.5,344.7,73.5z M327.8,69.5h-0.3c-0.7,0-1.3-0.6-1.3-1.3c0-0.7,0.6-1.3,1.3-1.3h0.3
		c0.7,0,1.3,0.6,1.3,1.3C329,68.9,328.5,69.5,327.8,69.5z M321.5,69.5h-0.3c-0.7,0-1.3-0.6-1.3-1.3c0-0.7,0.6-1.3,1.3-1.3h0.3
		c0.7,0,1.3,0.6,1.3,1.3S322.2,69.5,321.5,69.5z"/>
</g>
<path class="st7" d="M334,69.5h-0.3c-0.7,0-1.3-0.6-1.3-1.3c0-0.7,0.6-1.3,1.3-1.3h0.3c0.7,0,1.3,0.6,1.3,1.3S334.7,69.5,334,69.5z"
	/>
<path class="st7" d="M340.3,69.5H340c-0.7,0-1.3-0.6-1.3-1.3c0-0.7,0.6-1.3,1.3-1.3h0.3c0.7,0,1.3,0.6,1.3,1.3
	C341.6,68.9,341,69.5,340.3,69.5z"/>
<path class="st7" d="M380.5,108.7c-0.3,0-0.6-0.1-0.9-0.4l-0.2-0.2c-0.5-0.5-0.5-1.3,0-1.8s1.3-0.5,1.8,0l0.2,0.2
	c0.5,0.5,0.5,1.3,0,1.8C381.1,108.5,380.8,108.7,380.5,108.7z"/>
<path class="st7" d="M376,104.3c-0.3,0-0.6-0.1-0.9-0.4l-0.2-0.2c-0.5-0.5-0.5-1.3,0-1.8s1.3-0.5,1.8,0l0.2,0.2
	c0.5,0.5,0.5,1.3,0,1.8C376.6,104.2,376.3,104.3,376,104.3z"/>
<path class="st7" d="M371.5,99.9c-0.3,0-0.6-0.1-0.9-0.4l-0.2-0.2c-0.5-0.5-0.5-1.3,0-1.8s1.3-0.5,1.8,0l0.2,0.2
	c0.5,0.5,0.5,1.3,0,1.8C372.2,99.8,371.8,99.9,371.5,99.9z"/>
<g class="st8">
	<g class="st8">
		<path class="st6" d="M324.5,108.9h-1c-1.1,0-2-0.9-2-2s0.9-2,2-2h1c1.1,0,2,0.9,2,2S325.6,108.9,324.5,108.9z M313.5,108.9h-1
			c-1.1,0-2-0.9-2-2s0.9-2,2-2h1c1.1,0,2,0.9,2,2S314.7,108.9,313.5,108.9z M302.6,108.9h-1c-1.1,0-2-0.9-2-2s0.9-2,2-2h1
			c1.1,0,2,0.9,2,2S303.7,108.9,302.6,108.9z M291.6,108.9h-1c-1.1,0-2-0.9-2-2s0.9-2,2-2h1c1.1,0,2,0.9,2,2
			S292.7,108.9,291.6,108.9z M280.6,108.9h-1c-1.1,0-2-0.9-2-2s0.9-2,2-2h1c1.1,0,2,0.9,2,2S281.7,108.9,280.6,108.9z M269.7,108.9
			h-1c-1.1,0-2-0.9-2-2s0.9-2,2-2h1c1.1,0,2,0.9,2,2S270.8,108.9,269.7,108.9z M258.7,108.9h-1c-1.1,0-2-0.9-2-2s0.9-2,2-2h1
			c1.1,0,2,0.9,2,2S259.8,108.9,258.7,108.9z M247.7,108.9h-1c-1.1,0-2-0.9-2-2s0.9-2,2-2h1c1.1,0,2,0.9,2,2
			S248.8,108.9,247.7,108.9z M236.8,108.9h-1c-1.1,0-2-0.9-2-2s0.9-2,2-2h1c1.1,0,2,0.9,2,2S237.9,108.9,236.8,108.9z M225.8,108.9
			h-1c-1.1,0-2-0.9-2-2s0.9-2,2-2h1c1.1,0,2,0.9,2,2S226.9,108.9,225.8,108.9z M215.1,108.1c-0.5,0-1-0.2-1.4-0.6l-0.7-0.7
			c-0.8-0.8-0.8-2,0-2.8s2-0.8,2.8,0l0.7,0.7c0.8,0.8,0.8,2,0,2.8C216.2,107.9,215.7,108.1,215.1,108.1z M332.8,104.7
			c-0.5,0-1-0.2-1.4-0.6c-0.8-0.8-0.8-2,0-2.8l0.7-0.7c0.8-0.8,2-0.8,2.8,0s0.8,2,0,2.8l-0.7,0.7
			C333.8,104.5,333.3,104.7,332.8,104.7z M207.4,100.3c-0.5,0-1-0.2-1.4-0.6l-0.7-0.7c-0.8-0.8-0.8-2,0-2.8s2-0.8,2.8,0l0.7,0.7
			c0.8,0.8,0.8,2,0,2.8C208.4,100.1,207.9,100.3,207.4,100.3z M340.5,96.9c-0.5,0-1-0.2-1.4-0.6c-0.8-0.8-0.8-2,0-2.8l0.7-0.7
			c0.8-0.8,2-0.8,2.8,0s0.8,2,0,2.8l-0.7,0.7C341.5,96.7,341,96.9,340.5,96.9z M199.6,92.6c-0.5,0-1-0.2-1.4-0.6l-0.7-0.7
			c-0.8-0.8-0.8-2,0-2.8s2-0.8,2.8,0l0.7,0.7c0.8,0.8,0.8,2,0,2.8C200.7,92.4,200.1,92.6,199.6,92.6z M348.3,89.2
			c-0.5,0-1-0.2-1.4-0.6c-0.8-0.8-0.8-2,0-2.8l0.7-0.7c0.8-0.8,2-0.8,2.8,0s0.8,2,0,2.8l-0.7,0.7C349.3,89,348.8,89.2,348.3,89.2z
			 M191.9,84.8c-0.5,0-1-0.2-1.4-0.6l-0.7-0.7c-0.8-0.8-0.8-2,0-2.8s2-0.8,2.8,0l0.7,0.7c0.8,0.8,0.8,2,0,2.8
			C192.9,84.6,192.4,84.8,191.9,84.8z M356,81.4c-0.5,0-1-0.2-1.4-0.6c-0.8-0.8-0.8-2,0-2.8l0.7-0.7c0.8-0.8,2-0.8,2.8,0
			s0.8,2,0,2.8l-0.7,0.7C357,81.2,356.5,81.4,356,81.4z M184.1,77.1c-0.5,0-1-0.2-1.4-0.6l-0.7-0.7c-0.8-0.8-0.8-2,0-2.8
			s2-0.8,2.8,0l0.7,0.7c0.8,0.8,0.8,2,0,2.8C185.1,76.9,184.6,77.1,184.1,77.1z M363.8,73.7c-0.5,0-1-0.2-1.4-0.6
			c-0.8-0.8-0.8-2,0-2.8l0.7-0.7c0.8-0.8,2-0.8,2.8,0s0.8,2,0,2.8l-0.7,0.7C364.8,73.5,364.3,73.7,363.8,73.7z M176.4,69.3
			c-0.5,0-1-0.2-1.4-0.6l-0.7-0.7c-0.8-0.8-0.8-2,0-2.8s2-0.8,2.8,0l0.7,0.7c0.8,0.8,0.8,2,0,2.8C177.4,69.1,176.9,69.3,176.4,69.3z
			 M371.5,65.9c-0.5,0-1-0.2-1.4-0.6c-0.8-0.8-0.8-2,0-2.8l0.7-0.7c0.8-0.8,2-0.8,2.8,0s0.8,2,0,2.8l-0.7,0.7
			C372.6,65.7,372,65.9,371.5,65.9z M168.6,61.6c-0.5,0-1-0.2-1.4-0.6l-0.7-0.7c-0.8-0.8-0.8-2,0-2.8s2-0.8,2.8,0l0.7,0.7
			c0.8,0.8,0.8,2,0,2.8C169.6,61.4,169.1,61.6,168.6,61.6z M379.3,58.1c-0.5,0-1-0.2-1.4-0.6c-0.8-0.8-0.8-2,0-2.8l0.7-0.7
			c0.8-0.8,2-0.8,2.8,0s0.8,2,0,2.8l-0.7,0.7C380.3,58,379.8,58.1,379.3,58.1z M160.9,53.8c-0.5,0-1-0.2-1.4-0.6l-0.7-0.7
			c-0.8-0.8-0.8-2,0-2.8s2-0.8,2.8,0l0.7,0.7c0.8,0.8,0.8,2,0,2.8C161.9,53.6,161.4,53.8,160.9,53.8z M153.1,46
			c-0.5,0-1-0.2-1.4-0.6l-0.7-0.7c-0.8-0.8-0.8-2,0-2.8s2-0.8,2.8,0l0.7,0.7c0.8,0.8,0.8,2,0,2.8C154.1,45.8,153.6,46,153.1,46z
			 M145.3,38.3c-0.5,0-1-0.2-1.4-0.6l-0.7-0.7c-0.8-0.8-0.8-2,0-2.8s2-0.8,2.8,0l0.7,0.7c0.8,0.8,0.8,2,0,2.8
			C146.4,38.1,145.9,38.3,145.3,38.3z M139.9,29.6c-1.1,0-2-0.9-2-2v-1c0-1.1,0.9-2,2-2s2,0.9,2,2v1C141.9,28.7,141,29.6,139.9,29.6
			z M139.9,18.6c-1.1,0-2-0.9-2-2v-1c0-1.1,0.9-2,2-2s2,0.9,2,2v1C141.9,17.7,141,18.6,139.9,18.6z M139.9,7.6c-1.1,0-2-0.9-2-2v-1
			c0-1.1,0.9-2,2-2s2,0.9,2,2v1C141.9,6.7,141,7.6,139.9,7.6z"/>
	</g>
	<g>
		<path class="st6" d="M324.5,108.9h-1c-1.1,0-2-0.9-2-2s0.9-2,2-2h1c1.1,0,2,0.9,2,2S325.6,108.9,324.5,108.9z M313.5,108.9h-1
			c-1.1,0-2-0.9-2-2s0.9-2,2-2h1c1.1,0,2,0.9,2,2S314.7,108.9,313.5,108.9z M302.6,108.9h-1c-1.1,0-2-0.9-2-2s0.9-2,2-2h1
			c1.1,0,2,0.9,2,2S303.7,108.9,302.6,108.9z M291.6,108.9h-1c-1.1,0-2-0.9-2-2s0.9-2,2-2h1c1.1,0,2,0.9,2,2
			S292.7,108.9,291.6,108.9z M280.6,108.9h-1c-1.1,0-2-0.9-2-2s0.9-2,2-2h1c1.1,0,2,0.9,2,2S281.7,108.9,280.6,108.9z M269.7,108.9
			h-1c-1.1,0-2-0.9-2-2s0.9-2,2-2h1c1.1,0,2,0.9,2,2S270.8,108.9,269.7,108.9z M258.7,108.9h-1c-1.1,0-2-0.9-2-2s0.9-2,2-2h1
			c1.1,0,2,0.9,2,2S259.8,108.9,258.7,108.9z M247.7,108.9h-1c-1.1,0-2-0.9-2-2s0.9-2,2-2h1c1.1,0,2,0.9,2,2
			S248.8,108.9,247.7,108.9z M236.8,108.9h-1c-1.1,0-2-0.9-2-2s0.9-2,2-2h1c1.1,0,2,0.9,2,2S237.9,108.9,236.8,108.9z M225.8,108.9
			h-1c-1.1,0-2-0.9-2-2s0.9-2,2-2h1c1.1,0,2,0.9,2,2S226.9,108.9,225.8,108.9z M215.1,108.1c-0.5,0-1-0.2-1.4-0.6l-0.7-0.7
			c-0.8-0.8-0.8-2,0-2.8s2-0.8,2.8,0l0.7,0.7c0.8,0.8,0.8,2,0,2.8C216.2,107.9,215.7,108.1,215.1,108.1z M332.8,104.7
			c-0.5,0-1-0.2-1.4-0.6c-0.8-0.8-0.8-2,0-2.8l0.7-0.7c0.8-0.8,2-0.8,2.8,0s0.8,2,0,2.8l-0.7,0.7
			C333.8,104.5,333.3,104.7,332.8,104.7z M207.4,100.3c-0.5,0-1-0.2-1.4-0.6l-0.7-0.7c-0.8-0.8-0.8-2,0-2.8s2-0.8,2.8,0l0.7,0.7
			c0.8,0.8,0.8,2,0,2.8C208.4,100.1,207.9,100.3,207.4,100.3z M340.5,96.9c-0.5,0-1-0.2-1.4-0.6c-0.8-0.8-0.8-2,0-2.8l0.7-0.7
			c0.8-0.8,2-0.8,2.8,0s0.8,2,0,2.8l-0.7,0.7C341.5,96.7,341,96.9,340.5,96.9z M199.6,92.6c-0.5,0-1-0.2-1.4-0.6l-0.7-0.7
			c-0.8-0.8-0.8-2,0-2.8s2-0.8,2.8,0l0.7,0.7c0.8,0.8,0.8,2,0,2.8C200.7,92.4,200.1,92.6,199.6,92.6z M348.3,89.2
			c-0.5,0-1-0.2-1.4-0.6c-0.8-0.8-0.8-2,0-2.8l0.7-0.7c0.8-0.8,2-0.8,2.8,0s0.8,2,0,2.8l-0.7,0.7C349.3,89,348.8,89.2,348.3,89.2z
			 M191.9,84.8c-0.5,0-1-0.2-1.4-0.6l-0.7-0.7c-0.8-0.8-0.8-2,0-2.8s2-0.8,2.8,0l0.7,0.7c0.8,0.8,0.8,2,0,2.8
			C192.9,84.6,192.4,84.8,191.9,84.8z M356,81.4c-0.5,0-1-0.2-1.4-0.6c-0.8-0.8-0.8-2,0-2.8l0.7-0.7c0.8-0.8,2-0.8,2.8,0
			s0.8,2,0,2.8l-0.7,0.7C357,81.2,356.5,81.4,356,81.4z M184.1,77.1c-0.5,0-1-0.2-1.4-0.6l-0.7-0.7c-0.8-0.8-0.8-2,0-2.8
			s2-0.8,2.8,0l0.7,0.7c0.8,0.8,0.8,2,0,2.8C185.1,76.9,184.6,77.1,184.1,77.1z M363.8,73.7c-0.5,0-1-0.2-1.4-0.6
			c-0.8-0.8-0.8-2,0-2.8l0.7-0.7c0.8-0.8,2-0.8,2.8,0s0.8,2,0,2.8l-0.7,0.7C364.8,73.5,364.3,73.7,363.8,73.7z M176.4,69.3
			c-0.5,0-1-0.2-1.4-0.6l-0.7-0.7c-0.8-0.8-0.8-2,0-2.8s2-0.8,2.8,0l0.7,0.7c0.8,0.8,0.8,2,0,2.8C177.4,69.1,176.9,69.3,176.4,69.3z
			 M371.5,65.9c-0.5,0-1-0.2-1.4-0.6c-0.8-0.8-0.8-2,0-2.8l0.7-0.7c0.8-0.8,2-0.8,2.8,0s0.8,2,0,2.8l-0.7,0.7
			C372.6,65.7,372,65.9,371.5,65.9z M168.6,61.6c-0.5,0-1-0.2-1.4-0.6l-0.7-0.7c-0.8-0.8-0.8-2,0-2.8s2-0.8,2.8,0l0.7,0.7
			c0.8,0.8,0.8,2,0,2.8C169.6,61.4,169.1,61.6,168.6,61.6z M379.3,58.1c-0.5,0-1-0.2-1.4-0.6c-0.8-0.8-0.8-2,0-2.8l0.7-0.7
			c0.8-0.8,2-0.8,2.8,0s0.8,2,0,2.8l-0.7,0.7C380.3,58,379.8,58.1,379.3,58.1z M160.9,53.8c-0.5,0-1-0.2-1.4-0.6l-0.7-0.7
			c-0.8-0.8-0.8-2,0-2.8s2-0.8,2.8,0l0.7,0.7c0.8,0.8,0.8,2,0,2.8C161.9,53.6,161.4,53.8,160.9,53.8z M153.1,46
			c-0.5,0-1-0.2-1.4-0.6l-0.7-0.7c-0.8-0.8-0.8-2,0-2.8s2-0.8,2.8,0l0.7,0.7c0.8,0.8,0.8,2,0,2.8C154.1,45.8,153.6,46,153.1,46z
			 M145.3,38.3c-0.5,0-1-0.2-1.4-0.6l-0.7-0.7c-0.8-0.8-0.8-2,0-2.8s2-0.8,2.8,0l0.7,0.7c0.8,0.8,0.8,2,0,2.8
			C146.4,38.1,145.9,38.3,145.3,38.3z M139.9,29.6c-1.1,0-2-0.9-2-2v-1c0-1.1,0.9-2,2-2s2,0.9,2,2v1C141.9,28.7,141,29.6,139.9,29.6
			z M139.9,18.6c-1.1,0-2-0.9-2-2v-1c0-1.1,0.9-2,2-2s2,0.9,2,2v1C141.9,17.7,141,18.6,139.9,18.6z M139.9,7.6c-1.1,0-2-0.9-2-2v-1
			c0-1.1,0.9-2,2-2s2,0.9,2,2v1C141.9,6.7,141,7.6,139.9,7.6z"/>
	</g>
	<g>
		<path class="st6" d="M334.2,110l0.7,0.7c0.8,0.8,0.8,2,0,2.8s-2,0.8-2.8,0l-0.7-0.7c-0.8-0.8-0.8-2,0-2.8c0.4-0.4,0.9-0.6,1.4-0.6
			S333.8,109.6,334.2,110z M209.8,111.3c0.8,0.8,0.8,2,0,2.8l-0.7,0.7c-0.8,0.8-2,0.8-2.8,0s-0.8-2,0-2.8l0.7-0.7
			c0.4-0.4,0.9-0.6,1.4-0.6S209.4,110.9,209.8,111.3z M341.9,117.7l0.7,0.7c0.8,0.8,0.8,2,0,2.8s-2,0.8-2.8,0l-0.7-0.7
			c-0.8-0.8-0.8-2,0-2.8c0.4-0.4,0.9-0.6,1.4-0.6S341.5,117.3,341.9,117.7z M202,119.1c0.8,0.8,0.8,2,0,2.8l-0.7,0.7
			c-0.8,0.8-2,0.8-2.8,0s-0.8-2,0-2.8l0.7-0.7c0.4-0.4,0.9-0.6,1.4-0.6S201.7,118.7,202,119.1z M349.7,125.5l0.7,0.7
			c0.8,0.8,0.8,2,0,2.8s-2,0.8-2.8,0l-0.7-0.7c-0.8-0.8-0.8-2,0-2.8c0.4-0.4,0.9-0.6,1.4-0.6S349.3,125.1,349.7,125.5z M194.3,126.8
			c0.8,0.8,0.8,2,0,2.8l-0.7,0.7c-0.8,0.8-2,0.8-2.8,0s-0.8-2,0-2.8l0.7-0.7c0.4-0.4,0.9-0.6,1.4-0.6S193.9,126.4,194.3,126.8z
			 M357.4,133.2l0.7,0.7c0.8,0.8,0.8,2,0,2.8s-2,0.8-2.8,0l-0.7-0.7c-0.8-0.8-0.8-2,0-2.8c0.4-0.4,0.9-0.6,1.4-0.6
			S357,132.8,357.4,133.2z M186.5,134.6c0.8,0.8,0.8,2,0,2.8l-0.7,0.7c-0.8,0.8-2,0.8-2.8,0s-0.8-2,0-2.8l0.7-0.7
			c0.4-0.4,0.9-0.6,1.4-0.6S186.1,134.2,186.5,134.6z"/>
	</g>
</g>
<g>
	<path class="st7" d="M345.9,62.8c0.5,0.5,0.5,1.3,0,1.8l-0.2,0.2c-0.5,0.5-1.3,0.5-1.8,0s-0.5-1.3,0-1.8l0.2-0.2
		c0.2-0.2,0.6-0.4,0.9-0.4C345.4,62.4,345.7,62.5,345.9,62.8z"/>
	<path class="st7" d="M367.4,40.4c-0.3,0-0.6,0.1-0.9,0.4l-0.2,0.2c-0.5,0.5-0.5,1.3,0,1.8s1.3,0.5,1.8,0l0.2-0.2
		c0.5-0.5,0.5-1.3,0-1.8C368.1,40.5,367.7,40.4,367.4,40.4z"/>
	<path class="st7" d="M362.9,44.8c-0.3,0-0.6,0.1-0.9,0.4l-0.2,0.2c-0.5,0.5-0.5,1.3,0,1.8s1.3,0.5,1.8,0l0.2-0.2
		c0.5-0.5,0.5-1.3,0-1.8C363.6,44.9,363.3,44.8,362.9,44.8z"/>
	<path class="st7" d="M358.5,49.2c-0.3,0-0.6,0.1-0.9,0.4l-0.2,0.2c-0.5,0.5-0.5,1.3,0,1.8s1.3,0.5,1.8,0l0.2-0.2
		c0.5-0.5,0.5-1.3,0-1.8C359.1,49.3,358.8,49.2,358.5,49.2z"/>
	<path class="st7" d="M354,53.6c-0.3,0-0.6,0.1-0.9,0.4l-0.2,0.2c-0.5,0.5-0.5,1.3,0,1.8s1.3,0.5,1.8,0l0.2-0.2
		c0.5-0.5,0.5-1.3,0-1.8C354.6,53.7,354.3,53.6,354,53.6z"/>
	<path class="st7" d="M349.5,58c-0.3,0-0.6,0.1-0.9,0.4l-0.2,0.2c-0.5,0.5-0.5,1.3,0,1.8s1.3,0.5,1.8,0l0.2-0.2
		c0.5-0.5,0.5-1.3,0-1.8C350.2,58.1,349.8,58,349.5,58z"/>
</g>
<g>
	<path class="st7" d="M372.9,35.8c0.5,0.5,0.5,1.3,0,1.8l-0.2,0.2c-0.5,0.5-1.3,0.5-1.8,0s-0.5-1.3,0-1.8l0.2-0.2
		c0.2-0.2,0.6-0.4,0.9-0.4C372.4,35.4,372.7,35.5,372.9,35.8z"/>
	<path class="st7" d="M381,26.6c-0.3,0-0.6,0.1-0.9,0.4l-0.2,0.2c-0.5,0.5-0.5,1.3,0,1.8s1.3,0.5,1.8,0l0.2-0.2
		c0.5-0.5,0.5-1.3,0-1.8C381.6,26.7,381.3,26.6,381,26.6z"/>
	<path class="st7" d="M376.5,31c-0.3,0-0.6,0.1-0.9,0.4l-0.2,0.2c-0.5,0.5-0.5,1.3,0,1.8s1.3,0.5,1.8,0l0.2-0.2
		c0.5-0.5,0.5-1.3,0-1.8C377.2,31.1,376.8,31,376.5,31z"/>
</g>
<g class="st5">
	<path class="st6" d="M233.6,10.7c-0.7,0-1.3-0.6-1.3-1.3V9.2c0-0.7,0.6-1.3,1.3-1.3s1.3,0.6,1.3,1.3v0.2
		C234.8,10.1,234.2,10.7,233.6,10.7z M233.6,5.1c-0.7,0-1.3-0.6-1.3-1.3V3.6c0-0.7,0.6-1.3,1.3-1.3s1.3,0.6,1.3,1.3v0.2
		C234.8,4.5,234.2,5.1,233.6,5.1z"/>
</g>
<path class="st6" d="M308.8,69.5h-0.3c-0.7,0-1.3-0.6-1.3-1.3c0-0.7,0.6-1.3,1.3-1.3h0.3c0.7,0,1.3,0.6,1.3,1.3
	C310,68.9,309.5,69.5,308.8,69.5z"/>
<path class="st7" d="M315,69.5h-0.3c-0.7,0-1.3-0.6-1.3-1.3c0-0.7,0.6-1.3,1.3-1.3h0.3c0.7,0,1.3,0.6,1.3,1.3S315.7,69.5,315,69.5z"
	/>
<path class="st6" d="M233.8,39.5h-0.3c-0.7,0-1.3-0.6-1.3-1.3s0.6-1.3,1.3-1.3h0.3c0.7,0,1.3,0.6,1.3,1.3S234.5,39.5,233.8,39.5z"/>
<g>
	<g>
		<g>
			<polygon class="st4" points="133,95.9 133,41.2 83,12.5 33,41.2 33,95.9 83,124.7 			"/>
			<polygon class="st3" points="33,92.4 83,121.2 133,92.4 133,98.7 83,127.5 33,98.7 			"/>
			<polygon class="st1" points="133,95.9 133,41.2 83,12.5 83,124.7 			"/>
			<polygon class="st2" points="133,98.7 133,92.4 83,121.2 83,127.5 			"/>
		</g>
	</g>
	<polygon class="st4" points="84.9,48.8 78.3,48.8 75.1,54.4 78.3,60.2 84.9,60.2 88.2,54.4 	"/>
	<path class="st4" d="M69.9,56.2l35.1,0.1c0,0,0.8,8.3,0.6,8.3c-0.2,0-5.8,1.1-5.8,1.1l-3.6,4l0.4,5l3.8,3.3l5.2,0.1l-0.1,9.1
		L87.9,87l-2.6,4.4l-6.8-0.2L76,87.3l-6.2-0.6L68,84.8l0.1-6l-4.9-1.1l-2.9-2.4l-1-3.4l0.8-3.5l2.6-1.5l5.7-0.7L69.9,56.2z"/>
	<path class="st1" d="M100.3,70.6c0.5-0.4,0.9-0.8,1.4-1s1.1-0.4,1.8-0.4h4.7V56.8H86.9L86.2,60H105v6.1h-1.5c-1.1,0-2,0.2-3,0.6
		c-0.9,0.4-1.7,1-2.4,1.7c-0.7,0.7-1.2,1.5-1.7,2.4c-0.4,0.9-0.6,1.9-0.6,2.9c0,1.1,0.2,2,0.6,3c0.4,0.9,1,1.7,1.7,2.4
		c0.7,0.7,1.5,1.2,2.4,1.7c0.9,0.4,2,0.6,3,0.6h1.5v6.1l-16.7,0.1L85.9,92H81l-2.4-4.2l-6.1-0.1c-0.5,0-0.8-0.2-1.1-0.5
		c-0.3-0.3-0.5-0.7-0.5-1.1v-7.7h-4.7c-0.6,0-1.2-0.2-1.8-0.4c-0.5-0.2-1.1-0.6-1.4-1c-0.5-0.4-0.8-0.9-1-1.4s-0.4-1.1-0.4-1.8
		c0-0.6,0.2-1.2,0.4-1.8c0.2-0.5,0.6-1.1,1-1.4c0.5-0.4,0.9-0.8,1.4-1s1.1-0.4,1.8-0.4H71v-7.8c0-0.4,0.2-0.8,0.5-1.1
		s0.7-0.5,1.1-0.5h6.1L77,56.6h-4.5c-0.6,0-1.2,0.2-1.8,0.4c-0.5,0.2-1.1,0.6-1.4,1c-0.5,0.5-0.8,0.9-1,1.4s-0.4,1.1-0.4,1.8V66
		h-1.5c-1.1,0-2,0.2-3,0.6c-0.9,0.5-1.7,1-2.4,1.7s-1.2,1.5-1.7,2.4c-0.4,0.9-0.6,1.9-0.6,2.9c0,1.1,0.2,2,0.6,3
		c0.4,0.9,1,1.7,1.7,2.4c0.7,0.7,1.5,1.2,2.4,1.7c0.9,0.4,2,0.6,3,0.6h1.5v4.6c0,0.6,0.2,1.2,0.4,1.8c0.2,0.5,0.6,1.1,1,1.4
		c0.5,0.5,0.9,0.8,1.4,1s1.1,0.4,1.8,0.4h4.3l2.4,4.2h8.6l2.4-4.2h18v-12h-4.7c-0.6,0-1.2-0.2-1.8-0.4c-0.5-0.2-1.1-0.6-1.4-1
		c-0.5-0.4-0.8-0.9-1-1.4S99,74.6,99,73.9c0-0.6,0.2-1.2,0.4-1.8C99.6,71.5,99.9,71,100.3,70.6z"/>
	<g>
		<path class="st6" d="M98.8,68.3c0.5-0.4,0.9-0.8,1.4-1s1.1-0.4,1.8-0.4h4.7V54.5H88.6l-0.7,3.1h15.7v6.1H102c-1.1,0-2,0.2-3,0.6
			c-0.9,0.4-1.7,1-2.4,1.7c-0.7,0.7-1.2,1.5-1.7,2.4c-0.4,0.9-0.6,1.9-0.6,2.9s0.2,2,0.6,3c0.4,0.9,1,1.7,1.7,2.4
			c0.7,0.7,1.5,1.2,2.4,1.7c0.9,0.4,2,0.6,3,0.6h1.5v6.1l-16.7,0.1l-2.4,4.2h-4.9l-2.4-4.2L71,85.1c-0.5,0-0.8-0.2-1.1-0.5
			c-0.3-0.3-0.5-0.7-0.5-1.1v-7.6h-4.7c-0.6,0-1.2-0.2-1.8-0.4c-0.5-0.2-1.1-0.6-1.4-1c-0.5-0.4-0.8-0.9-1-1.4s-0.4-1.1-0.4-1.8
			c0-0.6,0.2-1.2,0.4-1.8c0.2-0.5,0.6-1.1,1-1.4c0.5-0.4,0.9-0.8,1.4-1s1.1-0.4,1.8-0.4h4.7v-7.8c0-0.4,0.2-0.8,0.5-1.1
			s0.7-0.5,1.1-0.5h6.1l-1.6-3.1H71c-0.6,0-1.2,0.2-1.8,0.4c-0.5,0.2-1.1,0.6-1.4,1c-0.5,0.5-0.8,0.9-1,1.4s-0.4,1.1-0.4,1.8v4.6
			h-1.5c-1.1,0-2,0.2-3,0.6c-0.9,0.5-1.7,1-2.4,1.7s-1.2,1.5-1.7,2.4C57.4,69,57.2,70,57.2,71s0.2,2,0.6,3c0.4,0.9,1,1.7,1.7,2.4
			s1.5,1.2,2.4,1.7c0.9,0.4,2,0.6,3,0.6h1.5v4.6c0,0.6,0.2,1.2,0.4,1.8c0.2,0.5,0.6,1.1,1,1.4c0.5,0.5,0.9,0.8,1.4,1
			s1.1,0.4,1.8,0.4h4.3l2.4,4.2h8.5l2.4-4.2h18V76.2H102c-0.6,0-1.2-0.2-1.8-0.4c-0.5-0.2-1.1-0.6-1.4-1c-0.5-0.4-0.8-0.9-1-1.4
			s-0.4-1.1-0.4-1.8c0-0.6,0.2-1.2,0.4-1.8C98.1,69.2,98.4,68.6,98.8,68.3z"/>
		<path class="st3" d="M86.2,47.2h-8.4l-4.1,7.3l4.1,7.3h8.5l4.1-7.3L86.2,47.2z M84.4,58.7h-4.9l-2.4-4.2l2.4-4.2h4.9l2.4,4.2
			L84.4,58.7z"/>
	</g>
</g>
</svg>
