<?xml version="1.0" encoding="utf-8"?>
<!-- Generator: Adobe Illustrator 21.1.0, SVG Export Plug-In . SVG Version: 6.00 Build 0)  -->
<svg version="1.1" id="Layer_1" xmlns="http://www.w3.org/2000/svg" xmlns:xlink="http://www.w3.org/1999/xlink" x="0px" y="0px"
	 viewBox="0 0 400 140" style="enable-background:new 0 0 400 140;" xml:space="preserve">
<style type="text/css">
	.st0{fill:#334154;}
	.st1{opacity:0.1;}
	.st2{fill:#E4EAF6;}
	.st3{fill:#2A3548;}
	.st4{fill:#F25C00;}
	.st5{fill:#1E2937;}
	.st6{fill:#CC4602;}
	.st7{opacity:5.000000e-02;}
	.st8{opacity:0.35;}
	.st9{opacity:0.5;fill:#E4EAF6;}
	.st10{opacity:0.25;fill:#E4EAF6;}
	.st11{opacity:0.2;fill:#E4EAF6;}
	.st12{fill:#D7DEED;}
</style>
<rect x="0.2" y="0.2" class="st0" width="400" height="140"/>
<g class="st1">
	<g>
		<path class="st2" d="M235.2,26C235.2,26,235.2,26,235.2,26c0.8-7.2,6.9-12.8,14.3-12.8c7.3,0,13.3,5.5,14.2,12.6
			c2.1-2,4.9-3.2,8-3.2c5.4,0,9.9,3.7,11.2,8.7c0.8-0.2,1.7-0.4,2.5-0.4c5,0,9.1,4.1,9.1,9.1s-4.1,9.1-9.1,9.1c-3.5,0-45.1,0-50.2,0
			c-6.4,0-11.6-5.2-11.6-11.6C223.6,31.2,228.8,26,235.2,26z"/>
	</g>
</g>
<g class="st1">
	<g>
		<path class="st2" d="M235.2,23C235.2,23,235.2,23,235.2,23c0.8-7.2,6.9-12.8,14.3-12.8c7.3,0,13.3,5.5,14.2,12.6
			c2.1-2,4.9-3.2,8-3.2c5.4,0,9.9,3.7,11.2,8.7c0.8-0.2,1.7-0.4,2.5-0.4c5,0,9.1,4.1,9.1,9.1s-4.1,9.1-9.1,9.1c-3.5,0-45.1,0-50.2,0
			c-6.4,0-11.6-5.2-11.6-11.6C223.6,28.2,228.8,23,235.2,23z"/>
	</g>
</g>
<g>
	<polygon class="st3" points="141.7,97.5 141.7,40.4 92.2,11.8 42.6,40.4 42.6,97.5 92.2,126.1 	"/>
	<polygon class="st4" points="42.6,91.2 92.2,119.8 141.7,91.2 141.7,97.5 92.2,126.1 42.6,97.5 	"/>
	<polygon class="st5" points="141.7,97.5 141.7,40.4 92.2,11.8 92.2,126.1 	"/>
	<polygon class="st6" points="141.7,97.5 141.7,91.2 92.2,119.8 92.2,126.1 	"/>
</g>
<g class="st1">
	<path class="st2" d="M325.6,88.3c-0.4,0.1-0.8,0-1.1-0.2l-0.2-0.2c-0.6-0.4-0.8-1.3-0.4-1.9c0.4-0.6,1.3-0.8,1.9-0.4l0.2,0.2
		c0.6,0.4,0.8,1.3,0.4,1.9C326.3,88,326,88.2,325.6,88.3z M320.8,84.9c-0.4,0.1-0.8,0-1.1-0.2l-0.2-0.2c-0.6-0.4-0.8-1.3-0.4-1.9
		c0.4-0.6,1.3-0.8,1.9-0.4l0.2,0.2c0.6,0.4,0.8,1.3,0.4,1.9C321.4,84.7,321.1,84.9,320.8,84.9z M315.9,81.6c-0.4,0.1-0.8,0-1.1-0.2
		l-0.2-0.2c-0.6-0.4-0.8-1.3-0.4-1.9c0.4-0.6,1.3-0.8,1.9-0.4l0.2,0.2c0.6,0.4,0.8,1.3,0.4,1.9C316.5,81.3,316.2,81.5,315.9,81.6z
		 M311,78.3c-0.4,0.1-0.8,0-1.1-0.2l-0.2-0.2c-0.6-0.4-0.8-1.3-0.4-1.9c0.4-0.6,1.3-0.8,1.9-0.4l0.2,0.2c0.6,0.4,0.8,1.3,0.4,1.9
		C311.6,78,311.3,78.2,311,78.3z M306.1,75c-0.4,0.1-0.8,0-1.1-0.2l-0.2-0.2c-0.6-0.4-0.8-1.3-0.4-1.9c0.4-0.6,1.3-0.8,1.9-0.4
		l0.2,0.2c0.6,0.4,0.8,1.3,0.4,1.9C306.8,74.7,306.4,74.9,306.1,75z M301.2,71.6c-0.4,0.1-0.8,0-1.1-0.2l-0.2-0.2
		c-0.6-0.4-0.8-1.3-0.4-1.9c0.4-0.6,1.3-0.8,1.9-0.4l0.2,0.2c0.6,0.4,0.8,1.3,0.4,1.9C301.9,71.4,301.6,71.6,301.2,71.6z
		 M296.3,68.3c-0.4,0.1-0.8,0-1.1-0.2l-0.2-0.2c-0.6-0.4-0.8-1.3-0.4-1.9c0.4-0.6,1.3-0.8,1.9-0.4l0.2,0.2c0.6,0.4,0.8,1.3,0.4,1.9
		C297,68,296.7,68.2,296.3,68.3z M291.5,65c-0.4,0.1-0.8,0-1.1-0.2l-0.2-0.2c-0.6-0.4-0.8-1.3-0.4-1.9c0.4-0.6,1.3-0.8,1.9-0.4
		l0.2,0.2c0.6,0.4,0.8,1.3,0.4,1.9C292.1,64.7,291.8,64.9,291.5,65z M286.6,61.7c-0.4,0.1-0.8,0-1.1-0.2l-0.2-0.2
		c-0.6-0.4-0.8-1.3-0.4-1.9c0.4-0.6,1.3-0.8,1.9-0.4l0.2,0.2c0.6,0.4,0.8,1.3,0.4,1.9C287.2,61.4,286.9,61.6,286.6,61.7z
		 M281.7,58.3c-0.4,0.1-0.8,0-1.1-0.2l-0.2-0.2c-0.6-0.4-0.8-1.3-0.4-1.9c0.4-0.6,1.3-0.8,1.9-0.4l0.2,0.2c0.6,0.4,0.8,1.3,0.4,1.9
		C282.3,58.1,282,58.3,281.7,58.3z M276.2,55.1c-0.8,0.2-1.5-0.3-1.7-1.1l-0.1-0.3c-0.2-0.8,0.3-1.5,1.1-1.7
		c0.8-0.2,1.5,0.3,1.7,1.1l0.1,0.3C277.4,54.2,276.9,54.9,276.2,55.1z M270.9,51.3c-0.8,0.2-1.5-0.3-1.7-1.1l-0.1-0.3
		c-0.2-0.8,0.3-1.5,1.1-1.7c0.8-0.2,1.5,0.3,1.7,1.1l0.1,0.3C272.1,50.4,271.7,51.2,270.9,51.3z M266.6,47.6
		c-0.8,0.2-1.5-0.3-1.7-1.1l-0.1-0.3c-0.2-0.8,0.3-1.5,1.1-1.7c0.8-0.2,1.5,0.3,1.7,1.1l0.1,0.3C267.9,46.6,267.4,47.4,266.6,47.6z"
		/>
</g>
<g class="st1">
	<path class="st2" d="M259.9,81.9c-0.8,0-1.4-0.6-1.4-1.4v-0.3c0-0.8,0.6-1.4,1.4-1.4s1.4,0.6,1.4,1.4v0.3
		C261.3,81.2,260.7,81.9,259.9,81.9z M259.9,75.9c-0.8,0-1.4-0.6-1.4-1.4v-0.3c0-0.8,0.6-1.4,1.4-1.4s1.4,0.6,1.4,1.4v0.3
		C261.3,75.3,260.7,75.9,259.9,75.9z M259.9,69.9c-0.8,0-1.4-0.6-1.4-1.4v-0.3c0-0.8,0.6-1.4,1.4-1.4s1.4,0.6,1.4,1.4v0.3
		C261.3,69.3,260.7,69.9,259.9,69.9z M259.9,63.9c-0.8,0-1.4-0.6-1.4-1.4v-0.3c0-0.8,0.6-1.4,1.4-1.4s1.4,0.6,1.4,1.4v0.3
		C261.3,63.3,260.7,63.9,259.9,63.9z M259.9,57.9c-0.8,0-1.4-0.6-1.4-1.4v-0.3c0-0.8,0.6-1.4,1.4-1.4s1.4,0.6,1.4,1.4v0.3
		C261.3,57.3,260.7,57.9,259.9,57.9z M259.9,51.9c-0.8,0-1.4-0.6-1.4-1.4v-0.3c0-0.8,0.6-1.4,1.4-1.4s1.4,0.6,1.4,1.4v0.3
		C261.3,51.3,260.7,51.9,259.9,51.9z M259.9,45.9c-0.8,0-1.4-0.6-1.4-1.4v-0.3c0-0.8,0.6-1.4,1.4-1.4s1.4,0.6,1.4,1.4v0.3
		C261.3,45.3,260.7,45.9,259.9,45.9z"/>
</g>
<g class="st7">
	<g>
		<path class="st2" d="M327.8,43.7C327.8,43.7,327.8,43.7,327.8,43.7c0.8-7.1,6.7-12.6,14-12.6c7.2,0,13.1,5.4,13.9,12.3
			c2-1.9,4.8-3.1,7.8-3.1c5.3,0,9.7,3.6,11,8.5c0.8-0.2,1.6-0.4,2.5-0.4c5,0,9,4,9,9s-4,9-9,9c-3.5,0-44.2,0-49.2,0
			c-6.3,0-11.4-5.1-11.4-11.4C316.4,48.8,321.5,43.7,327.8,43.7z"/>
	</g>
</g>
<g class="st7">
	<g>
		<path class="st2" d="M175.2,50.3C175.2,50.3,175.3,50.3,175.2,50.3c0.5-4.2,4-7.5,8.4-7.5c4.3,0,7.8,3.2,8.3,7.4
			c1.2-1.2,2.9-1.9,4.7-1.9c3.2,0,5.8,2.2,6.6,5.1c0.5-0.1,1-0.2,1.5-0.2c3,0,5.4,2.4,5.4,5.4s-2.4,5.4-5.4,5.4
			c-2.1,0-26.4,0-29.4,0c-3.7,0-6.8-3-6.8-6.8C168.4,53.4,171.5,50.3,175.2,50.3z"/>
	</g>
</g>
<g class="st8">
	<path class="st9" d="M352.9,90.9c0.3,0.1,0.5,0.3,0.7,0.5c0.2,0.2,0.4,0.4,0.6,0.7c0.6,0.8,1.2,1.7,1.8,2.5
		c0.6,0.9,1.1,1.7,1.6,2.6c0.7,1.1,1.4,2.3,2,3.4c0.7,1.2,1.2,2.4,1.7,3.6c0.2,0.6,0.4,1.1,0.6,1.7c0.2,0.6,0.3,1.1,0.4,1.7
		c0.1,0.8,0.2,1.6,0.1,2.3c0,0.8-0.2,1.5-0.5,2.3c-0.1,0.3-0.3,0.7-0.6,1c-0.2,0.3-0.5,0.7-0.8,0.9c-0.3,0.3-0.6,0.5-1,0.7
		c-0.4,0.2-0.7,0.3-1.1,0.4c-0.4,0.1-0.9,0-1.5-0.3c-0.6-0.3-1.1-0.6-1.7-1c-0.6-0.4-1.1-0.8-1.7-1.3c-0.5-0.4-1-0.8-1.3-1
		c-0.3-0.3-0.7-0.6-1.1-0.9c-0.4-0.3-0.8-0.6-1.2-0.8l-0.5-0.3c-0.3-0.1-0.6-0.2-0.9-0.3c-0.3,0-0.6-0.1-0.9,0c-0.3,0-0.6,0-1,0.1
		c-0.3,0-0.6,0.1-0.9,0.2l-3.8,0.7l-3.8,0.7c-0.3,0.1-0.6,0.1-0.9,0.2c-0.3,0.1-0.6,0.1-0.9,0.2c-0.3,0.1-0.6,0.2-0.9,0.4
		c-0.3,0.1-0.5,0.3-0.8,0.6l-0.4,0.4c-0.3,0.3-0.6,0.7-0.8,1.2c-0.3,0.4-0.5,0.9-0.7,1.2c-0.2,0.4-0.5,0.8-0.9,1.4
		c-0.3,0.6-0.7,1.2-1.1,1.7c-0.4,0.6-0.8,1.1-1.3,1.5c-0.4,0.4-0.9,0.7-1.3,0.8c-0.4,0.1-0.8,0.1-1.2,0c-0.4-0.1-0.8-0.2-1.2-0.4
		c-0.4-0.2-0.8-0.4-1.1-0.6c-0.3-0.2-0.6-0.5-0.9-0.7c-0.5-0.6-1-1.3-1.3-2c-0.3-0.7-0.5-1.5-0.7-2.2c-0.1-0.6-0.2-1.2-0.2-1.8
		c0-0.6,0-1.2,0-1.8c0-0.6,0-1.3,0.1-2.1c0.1-0.8,0.2-1.5,0.3-2.4c0.1-0.8,0.3-1.7,0.4-2.5c0.2-0.9,0.4-1.7,0.5-2.5
		c0.2-0.8,0.4-1.6,0.6-2.4c0.2-0.7,0.4-1.4,0.6-2c0.1-0.3,0.2-0.6,0.4-0.8c0.2-0.3,0.3-0.5,0.5-0.8c0-0.2-0.1-0.3-0.1-0.5
		s0-0.3,0-0.5c0-0.1,0-0.3,0.1-0.4c0.1-0.1,0.2-0.3,0.3-0.4c0.1-0.1,0.3-0.3,0.6-0.4c0.3-0.2,0.6-0.3,1-0.5c0.3-0.2,0.7-0.3,1-0.5
		c0.3-0.1,0.6-0.3,0.8-0.3c0.5-0.2,1-0.4,1.5-0.5c0.5-0.1,1-0.3,1.5-0.3c0.2,0,0.4-0.1,0.7-0.1c0.2,0,0.5,0,0.7,0.1l0,0
		c0.3,0.1,0.7,0.2,1,0.4c0.3,0.1,0.6,0.2,1,0.4l7.2-1.2c0.3-0.2,0.5-0.4,0.7-0.6c0.2-0.2,0.4-0.3,0.6-0.5c0.2-0.1,0.4-0.3,0.7-0.4
		c0.2-0.1,0.5-0.2,0.9-0.3c0.5-0.1,1-0.1,1.5-0.2c0.5,0,1,0,1.6,0c0.2,0,0.5,0,0.8,0.1c0.4,0,0.7,0.1,1.1,0.1c0.4,0,0.7,0.1,1.1,0.2
		c0.3,0.1,0.6,0.1,0.8,0.2c0.4,0.2,0.6,0.4,0.7,0.6C352.8,90.3,352.9,90.6,352.9,90.9z M358.1,112.8c0.5-0.2,0.8-0.5,1.1-0.8
		c0.3-0.3,0.5-0.7,0.6-1.1c0.1-0.4,0.2-0.9,0.2-1.3c0-0.5,0-0.9-0.1-1.3c-0.1-0.5-0.2-1-0.3-1.5c-0.1-0.5-0.3-1-0.5-1.5
		c-0.5-1.4-1.1-2.7-1.9-3.9c-0.7-1.3-1.5-2.5-2.3-3.7c-0.4-0.7-0.8-1.3-1.3-2c-0.4-0.7-0.9-1.3-1.3-1.9c-0.1-0.2-0.3-0.3-0.5-0.4
		c-0.2-0.1-0.4-0.2-0.5-0.3c-0.2-0.1-0.3-0.2-0.5-0.3c-0.1-0.1-0.2-0.3-0.3-0.6l-0.1-0.4c-0.8-0.1-1.6-0.2-2.4-0.2
		c-0.8,0-1.6,0-2.4,0.2c-0.1,0-0.1,0-0.2,0c-0.1,0-0.2,0-0.2,0.1c-0.5,0.4-0.8,0.7-1,0.9c-0.2,0.2-0.4,0.4-0.7,0.5
		c-0.2,0.1-0.5,0.2-0.7,0.3c-0.3,0.1-0.7,0.1-1.2,0.2l-5,0.9c-0.5,0.1-0.9,0.2-1.2,0.2c-0.3,0-0.5,0-0.8,0c-0.2,0-0.5-0.1-0.8-0.2
		c-0.3-0.1-0.7-0.3-1.2-0.5c-0.1,0-0.1,0-0.2,0c-0.1,0-0.2,0-0.2,0c-0.8,0.1-1.6,0.4-2.3,0.6c-0.7,0.3-1.5,0.6-2.2,1
		c0.1,0.4,0.1,0.7,0.1,0.9c0,0.2-0.2,0.5-0.5,0.7c-0.1,0.1-0.2,0.2-0.4,0.4c-0.1,0.1-0.2,0.3-0.2,0.5c-0.3,0.7-0.5,1.5-0.6,2.3
		c-0.2,0.8-0.3,1.5-0.5,2.3c-0.3,1.4-0.6,2.8-0.9,4.3c-0.3,1.4-0.4,2.9-0.4,4.3c0,0.5,0,1,0,1.6c0,0.5,0.1,1.1,0.2,1.6
		c0.1,0.4,0.2,0.9,0.3,1.3c0.1,0.4,0.3,0.8,0.6,1.2c0.3,0.4,0.6,0.6,0.9,0.9c0.4,0.2,0.8,0.4,1.3,0.4c0.2-0.2,0.4-0.4,0.7-0.8
		c0.3-0.4,0.6-0.8,0.8-1.2c0.3-0.4,0.6-0.9,0.8-1.3c0.3-0.4,0.5-0.7,0.6-1c0.1-0.2,0.2-0.4,0.4-0.7c0.2-0.3,0.4-0.6,0.6-0.9
		c0.2-0.3,0.4-0.6,0.6-0.8c0.2-0.3,0.4-0.5,0.5-0.6c0.1-0.1,0.1-0.1,0.2-0.1c0,0,0.1-0.1,0.2-0.1c0.3-0.3,0.7-0.6,1.1-0.8
		c0.4-0.2,0.8-0.4,1.2-0.6c0.4-0.1,0.8-0.3,1.3-0.4c0.4-0.1,0.9-0.2,1.3-0.3l3.8-0.7l3.8-0.7c0.4-0.1,0.9-0.1,1.3-0.2
		c0.4-0.1,0.9-0.1,1.3-0.1c0.4,0,0.9,0,1.3,0.1c0.4,0.1,0.9,0.2,1.3,0.4c0.1,0,0.1,0.1,0.2,0.1c0.1,0,0.1,0.1,0.2,0.1
		c0.2,0.1,0.4,0.2,0.7,0.4c0.3,0.2,0.5,0.4,0.8,0.6c0.3,0.2,0.6,0.4,0.8,0.6c0.3,0.2,0.5,0.4,0.6,0.5c0.2,0.2,0.5,0.4,0.9,0.7
		c0.4,0.3,0.8,0.6,1.2,0.9c0.4,0.3,0.8,0.6,1.2,0.8C357.6,112.6,357.9,112.7,358.1,112.8z"/>
	<path class="st2" d="M354.1,88.4c0.3,0.2,0.5,0.3,0.8,0.6c0.3,0.2,0.5,0.5,0.7,0.7c0.7,0.9,1.3,1.8,1.9,2.8c0.6,1,1.2,1.9,1.8,2.9
		c0.8,1.2,1.5,2.5,2.2,3.8c0.7,1.3,1.3,2.6,1.8,4c0.2,0.6,0.4,1.2,0.6,1.9c0.2,0.6,0.3,1.3,0.4,1.9c0.1,0.9,0.2,1.7,0.2,2.6
		c0,0.8-0.2,1.7-0.6,2.5c-0.2,0.4-0.4,0.7-0.6,1.1c-0.3,0.4-0.6,0.7-0.9,1c-0.3,0.3-0.7,0.6-1.1,0.8c-0.4,0.2-0.8,0.4-1.2,0.5
		c-0.4,0.1-1,0-1.6-0.3c-0.6-0.3-1.3-0.7-1.9-1.1c-0.6-0.4-1.3-0.9-1.8-1.4c-0.6-0.5-1-0.9-1.4-1.1c-0.4-0.3-0.8-0.6-1.2-1
		c-0.4-0.4-0.9-0.7-1.3-0.9l-0.6-0.3c-0.3-0.2-0.7-0.3-1-0.3c-0.3,0-0.7-0.1-1,0c-0.3,0-0.7,0-1,0.1c-0.3,0.1-0.7,0.1-1,0.2
		l-4.2,0.7l-4.2,0.7c-0.3,0.1-0.7,0.1-1,0.2c-0.3,0.1-0.7,0.2-1,0.3c-0.3,0.1-0.7,0.2-1,0.4c-0.3,0.2-0.6,0.4-0.8,0.6l-0.5,0.5
		c-0.3,0.4-0.7,0.8-0.9,1.3c-0.3,0.5-0.5,0.9-0.8,1.4c-0.2,0.4-0.6,0.9-0.9,1.5c-0.4,0.6-0.8,1.3-1.3,1.9c-0.5,0.6-0.9,1.2-1.4,1.7
		c-0.5,0.5-1,0.8-1.4,0.8c-0.4,0.1-0.8,0.1-1.3,0c-0.4-0.1-0.9-0.2-1.3-0.4c-0.4-0.2-0.8-0.4-1.2-0.7c-0.4-0.3-0.7-0.5-1-0.8
		c-0.6-0.7-1.1-1.4-1.4-2.2c-0.3-0.8-0.6-1.6-0.7-2.4c-0.1-0.7-0.2-1.3-0.2-2c0-0.6-0.1-1.3,0-2c0-0.7,0-1.4,0.1-2.3
		c0.1-0.8,0.2-1.7,0.3-2.6c0.1-0.9,0.3-1.8,0.5-2.8c0.2-0.9,0.4-1.9,0.6-2.8c0.2-0.9,0.4-1.8,0.6-2.6c0.2-0.8,0.4-1.6,0.6-2.2
		c0.1-0.3,0.2-0.6,0.4-0.9c0.2-0.3,0.4-0.6,0.6-0.8c0-0.2-0.1-0.4-0.1-0.5c0-0.2,0-0.3,0-0.5c0-0.2,0-0.3,0.1-0.5
		c0.1-0.2,0.2-0.3,0.4-0.5c0.1-0.1,0.4-0.3,0.7-0.5c0.3-0.2,0.7-0.4,1.1-0.6c0.4-0.2,0.7-0.4,1.1-0.5c0.4-0.2,0.6-0.3,0.8-0.4
		c0.5-0.2,1.1-0.4,1.6-0.5c0.6-0.2,1.1-0.3,1.7-0.4c0.2,0,0.5-0.1,0.7-0.1c0.3,0,0.5,0,0.7,0.1l0,0c0.4,0.1,0.7,0.2,1.1,0.4
		c0.4,0.1,0.7,0.3,1.1,0.4l7.9-1.4c0.3-0.2,0.6-0.5,0.8-0.7c0.2-0.2,0.4-0.4,0.7-0.5c0.2-0.2,0.5-0.3,0.7-0.4c0.3-0.1,0.6-0.2,1-0.3
		c0.5-0.1,1.1-0.2,1.7-0.2c0.6,0,1.1,0,1.7,0c0.2,0,0.5,0,0.9,0.1c0.4,0,0.8,0.1,1.2,0.1c0.4,0.1,0.8,0.1,1.2,0.2
		c0.4,0.1,0.7,0.1,0.8,0.2c0.4,0.2,0.7,0.4,0.7,0.7C354,87.7,354,88,354.1,88.4z M359.8,112.5c0.5-0.2,0.9-0.5,1.2-0.9
		c0.3-0.4,0.5-0.8,0.6-1.3c0.1-0.5,0.2-0.9,0.2-1.4c0-0.5,0-1-0.1-1.5c-0.1-0.6-0.2-1.1-0.4-1.7c-0.2-0.6-0.3-1.1-0.6-1.6
		c-0.6-1.5-1.2-2.9-2.1-4.3c-0.8-1.4-1.6-2.7-2.5-4.1c-0.5-0.7-0.9-1.5-1.4-2.2c-0.5-0.7-0.9-1.4-1.5-2.1c-0.2-0.2-0.3-0.3-0.5-0.4
		c-0.2-0.1-0.4-0.2-0.6-0.3c-0.2-0.1-0.4-0.2-0.5-0.4c-0.1-0.1-0.2-0.4-0.3-0.7l-0.1-0.4c-0.9-0.1-1.8-0.2-2.6-0.3
		c-0.9,0-1.7,0-2.6,0.2c-0.1,0-0.2,0-0.2,0c-0.1,0-0.2,0-0.2,0.1c-0.5,0.4-0.9,0.7-1.1,1c-0.3,0.2-0.5,0.4-0.7,0.5
		c-0.2,0.1-0.5,0.2-0.8,0.3c-0.3,0.1-0.7,0.2-1.3,0.3l-5.5,1c-0.6,0.1-1,0.2-1.3,0.2c-0.3,0-0.6,0-0.9,0c-0.3,0-0.6-0.1-0.9-0.3
		c-0.3-0.1-0.8-0.3-1.4-0.5c-0.1,0-0.2,0-0.2,0c-0.1,0-0.2,0-0.2,0c-0.9,0.2-1.7,0.4-2.5,0.7s-1.6,0.7-2.4,1.1
		c0.1,0.4,0.1,0.7,0.1,1c0,0.3-0.2,0.5-0.5,0.8c-0.1,0.1-0.3,0.3-0.4,0.4c-0.1,0.2-0.2,0.3-0.3,0.5c-0.3,0.8-0.5,1.6-0.7,2.5
		c-0.2,0.8-0.4,1.7-0.6,2.5c-0.3,1.5-0.7,3.1-1,4.7c-0.3,1.6-0.5,3.2-0.5,4.7c0,0.6,0,1.1,0,1.7c0,0.6,0.1,1.2,0.2,1.7
		c0.1,0.5,0.2,1,0.4,1.4c0.2,0.5,0.4,0.9,0.7,1.3c0.3,0.4,0.6,0.7,1,1c0.4,0.3,0.9,0.4,1.4,0.5c0.2-0.2,0.4-0.5,0.7-0.9
		c0.3-0.4,0.6-0.8,0.9-1.3c0.3-0.5,0.6-0.9,0.9-1.4c0.3-0.5,0.5-0.8,0.7-1.1c0.1-0.2,0.3-0.4,0.5-0.8c0.2-0.3,0.4-0.6,0.6-1
		c0.2-0.3,0.4-0.6,0.6-0.9c0.2-0.3,0.4-0.5,0.6-0.6c0.1-0.1,0.1-0.1,0.2-0.2c0.1-0.1,0.1-0.1,0.2-0.2c0.4-0.4,0.7-0.7,1.2-0.9
		c0.4-0.2,0.9-0.4,1.3-0.6c0.5-0.2,0.9-0.3,1.4-0.4c0.5-0.1,1-0.2,1.5-0.3l4.2-0.7l4.2-0.7c0.5-0.1,1-0.2,1.5-0.2
		c0.5-0.1,1-0.1,1.5-0.1c0.5,0,1,0,1.4,0.1c0.5,0.1,0.9,0.2,1.4,0.5c0.1,0,0.2,0.1,0.2,0.1c0.1,0,0.1,0.1,0.2,0.1
		c0.2,0.1,0.5,0.2,0.8,0.4c0.3,0.2,0.6,0.4,0.9,0.6c0.3,0.2,0.6,0.5,0.9,0.7c0.3,0.2,0.5,0.4,0.7,0.6c0.3,0.2,0.6,0.5,1,0.8
		c0.4,0.3,0.8,0.7,1.3,1c0.4,0.3,0.9,0.6,1.3,0.9C359.2,112.2,359.5,112.4,359.8,112.5z M339.3,93.9c0.6-0.1,1.1,0,1.6,0.4
		c0.5,0.3,0.8,0.8,0.9,1.4c0.1,0.6,0,1.1-0.4,1.6c-0.3,0.5-0.8,0.8-1.4,0.9c-0.6,0.1-1.1,0-1.6-0.4c-0.5-0.3-0.8-0.8-0.9-1.4
		c-0.1-0.6,0-1.1,0.4-1.6C338.3,94.2,338.7,94,339.3,93.9z"/>
</g>
<g class="st8">
	<path class="st2" d="M293.2,123.4c0.3,0.3,0.4,1,0.5,1.4c0.1,0.4,0.1,0.8,0.1,1.2c0,0.6-2.6,5.2-3.2,5.2h-60.9
		c-0.6,0-3.2-4.6-3.2-5.2c0-0.3,0-0.7,0.1-1.2c0.1-0.4,0.2-1.1,0.5-1.4l7.8-7.8V84.9h50.5v30.7L293.2,123.4z M289.9,128
		c0-0.3,1-1.6,0.9-2.1c-0.1-0.4-0.2-0.8-0.4-0.9l-7-7.5h-46.6l-7,7.5c-0.2,0.2-0.3,0.5-0.4,0.9c-0.1,0.4,0.9,1.8,0.9,2.1H289.9z
		 M237.4,115.1H283v-28h-45.6V115.1z"/>
	<polygon class="st10" points="236.2,115.9 237.2,87.1 239.4,89.2 280.9,89.2 280.9,91.2 	"/>
	<path class="st10" d="M292.4,125.1c-0.2-0.3-0.3-0.6-0.5-0.8l-6.8-7.8h-50l-6.8,7.8c-0.2,0.2-0.4,0.5-0.5,0.8l3.5,4.8l58.3,0.1
		l3.5-3.7L292.4,125.1z"/>
</g>
<g>
	<g class="st8">
		<path class="st2" d="M194.5,76.3c0.4,0.1,0.8,0.2,1.1,0.4c0.3,0.2,0.6,0.5,0.8,0.8c0.2,0.3,0.4,0.6,0.5,1c0.1,0.4,0.1,0.8,0.1,1.2
			l-5.6,40.9c-0.1,0.4-0.2,0.8-0.4,1.1c-0.2,0.3-0.5,0.6-0.8,0.8c-0.3,0.2-0.6,0.4-1,0.5c-0.4,0.1-0.8,0.1-1.2,0.1l-23.4-3.2
			c-0.4-0.1-0.8-0.2-1.1-0.4c-0.3-0.2-0.6-0.5-0.8-0.8c-0.2-0.3-0.4-0.6-0.5-1c-0.1-0.4-0.1-0.8-0.1-1.2l5.6-40.9
			c0.1-0.4,0.2-0.8,0.4-1.1c0.2-0.3,0.5-0.6,0.8-0.8c0.3-0.2,0.6-0.4,1-0.5c0.4-0.1,0.8-0.1,1.2-0.1L194.5,76.3z M194.1,79.2
			L170.7,76l-5.6,40.9l23.4,3.2L194.1,79.2z M174.7,112.3l5.8,0.8l-0.4,2.9l-5.8-0.8L174.7,112.3z"/>
		<polygon class="st11" points="169.8,74.8 171.9,77.8 192.6,80.7 192.3,83.5 169.1,99.9 166.7,116.1 163.9,117.4 		"/>
		<path class="st9" d="M195.5,77.3c0.4,0.1,0.8,0.2,1.1,0.4c0.3,0.2,0.6,0.5,0.8,0.8c0.2,0.3,0.4,0.6,0.5,1c0.1,0.4,0.1,0.8,0.1,1.2
			l-5.6,40.9c-0.1,0.4-0.2,0.8-0.4,1.1c-0.2,0.3-0.5,0.6-0.8,0.8c-0.3,0.2-0.6,0.4-1,0.5c-0.4,0.1-0.8,0.1-1.2,0.1l-23.4-3.2
			c-0.4-0.1-0.8-0.2-1.1-0.4c-0.3-0.2-0.6-0.5-0.8-0.8c-0.2-0.3-0.4-0.6-0.5-1c-0.1-0.4-0.1-0.8-0.1-1.2l5.6-40.9
			c0.1-0.4,0.2-0.8,0.4-1.1c0.2-0.3,0.5-0.6,0.8-0.8c0.3-0.2,0.6-0.4,1-0.5c0.4-0.1,0.8-0.1,1.2-0.1L195.5,77.3z M194.8,78.6
			l-24.6-3.4l-5.8,42.3l24.6,3.4L194.8,78.6z"/>
	</g>
	<polygon class="st11" points="187.4,118.7 189.6,105 172.6,116.6 	"/>
</g>
<g class="st1">
	<path class="st2" d="M198.1,93.4c0-0.4,0.2-0.7,0.5-1l0.2-0.2c0.6-0.5,1.5-0.5,2,0.1c0.5,0.6,0.5,1.5-0.1,2l-0.2,0.2
		c-0.6,0.5-1.5,0.5-2-0.1C198.2,94.1,198.1,93.8,198.1,93.4z M202.6,89.5c0-0.4,0.2-0.7,0.5-1l0.2-0.2c0.6-0.5,1.5-0.5,2,0.1
		c0.5,0.6,0.5,1.5-0.1,2l-0.2,0.2c-0.6,0.5-1.5,0.5-2-0.1C202.7,90.2,202.6,89.9,202.6,89.5z M207,85.6c0-0.4,0.2-0.7,0.5-1l0.2-0.2
		c0.6-0.5,1.5-0.5,2,0.1c0.5,0.6,0.5,1.5-0.1,2l-0.2,0.2c-0.6,0.5-1.5,0.5-2-0.1C207.1,86.3,207,86,207,85.6z M211.4,81.7
		c0-0.4,0.2-0.7,0.5-1l0.2-0.2c0.6-0.5,1.5-0.5,2,0.1c0.5,0.6,0.5,1.5-0.1,2l-0.2,0.2c-0.6,0.5-1.5,0.5-2-0.1
		C211.5,82.4,211.4,82.1,211.4,81.7z M215.9,77.8c0-0.4,0.2-0.7,0.5-1l0.2-0.2c0.6-0.5,1.5-0.5,2,0.1c0.5,0.6,0.5,1.5-0.1,2
		l-0.2,0.2c-0.6,0.5-1.5,0.5-2-0.1C216,78.5,215.8,78.2,215.9,77.8z M220.3,73.9c0-0.4,0.2-0.7,0.5-1l0.2-0.2c0.6-0.5,1.5-0.5,2,0.1
		c0.5,0.6,0.5,1.5-0.1,2l-0.2,0.2c-0.6,0.5-1.5,0.5-2-0.1C220.4,74.6,220.3,74.2,220.3,73.9z M224.7,70c0-0.4,0.2-0.7,0.5-1l0.2-0.2
		c0.6-0.5,1.5-0.5,2,0.1c0.5,0.6,0.5,1.5-0.1,2l-0.2,0.2c-0.6,0.5-1.5,0.5-2-0.1C224.8,70.7,224.7,70.3,224.7,70z M229.2,66.1
		c0-0.4,0.2-0.7,0.5-1l0.2-0.2c0.6-0.5,1.5-0.5,2,0.1c0.5,0.6,0.5,1.5-0.1,2l-0.2,0.2c-0.6,0.5-1.5,0.5-2-0.1
		C229.3,66.8,229.1,66.4,229.2,66.1z M233.6,62.2c0-0.4,0.2-0.7,0.5-1l0.2-0.2c0.6-0.5,1.5-0.5,2,0.1c0.5,0.6,0.5,1.5-0.1,2
		l-0.2,0.2c-0.6,0.5-1.5,0.5-2-0.1C233.7,62.9,233.6,62.5,233.6,62.2z M238,58.3c0-0.4,0.2-0.7,0.5-1l0.2-0.2c0.6-0.5,1.5-0.5,2,0.1
		c0.5,0.6,0.5,1.5-0.1,2l-0.2,0.2c-0.6,0.5-1.5,0.5-2-0.1C238.1,59,238,58.6,238,58.3z M242.5,53.7c0-0.8,0.7-1.4,1.5-1.4l0.3,0
		c0.8,0,1.4,0.7,1.4,1.5c0,0.8-0.7,1.4-1.5,1.4l-0.3,0C243.1,55.1,242.5,54.5,242.5,53.7z M247.5,49.6c0-0.8,0.7-1.4,1.5-1.4l0.3,0
		c0.8,0,1.4,0.7,1.4,1.5c0,0.8-0.7,1.4-1.5,1.4l-0.3,0C248.1,51,247.5,50.3,247.5,49.6z M252.2,46.4c0-0.8,0.7-1.4,1.5-1.4l0.3,0
		c0.8,0,1.4,0.7,1.4,1.5s-0.7,1.4-1.5,1.4l-0.3,0C252.8,47.8,252.2,47.1,252.2,46.4z"/>
</g>
<path class="st5" d="M117.2,69.1c-0.5-1.1-1.1-2.1-2-2.9c-0.8-0.8-1.8-1.5-3-2c-1.1-0.5-2.3-0.8-3.7-0.8c-0.2-1.7-0.8-3.4-1.5-4.9
	c-0.8-1.5-1.8-2.9-3-3.9c-1.2-1.1-2.6-2-4.2-2.6s-3.3-1-5.1-1c-1.2,0-2.3,0.2-3.5,0.5c-1.1,0.3-2.2,0.7-3.2,1.3c-1,0.5-2,1.2-2.8,2
	s-1.6,1.7-2.3,2.7c-0.8-0.2-1.5-0.2-2.3-0.2c-1.7,0-3.3,0.3-4.8,1s-2.9,1.5-4,2.6s-2,2.4-2.6,4c-0.7,1.5-1,3.2-1,4.8
	c0,1.7,0.3,3.3,1,4.8s1.5,2.9,2.6,4s2.4,2,4,2.6c1.5,0.7,3.2,1,4.8,1H83c0.8,5.2,5.3,9.3,10.7,9.3s10-4,10.7-9.3h4.2
	c1.3,0,2.5-0.2,3.6-0.8c1.1-0.5,2.1-1.1,2.9-2c0.8-0.8,1.5-1.8,2-2.9s0.8-2.3,0.8-3.6C118,71.5,117.7,70.3,117.2,69.1z M93.7,88.2
	c-4.2,0-7.6-3.4-7.6-7.6s3.4-7.6,7.6-7.6s7.6,3.4,7.6,7.6S97.9,88.2,93.7,88.2z M114.3,75.3c-0.3,0.8-0.8,1.4-1.4,2s-1.2,1-2,1.4
	c-0.8,0.3-1.6,0.5-2.4,0.5h-4.2c-0.8-5.2-5.3-9.3-10.7-9.3c-5.4,0-10,4.1-10.7,9.3h-2.4c-1.3,0-2.5-0.2-3.6-0.8
	c-1.1-0.5-2.1-1.1-2.9-2c-0.8-0.8-1.5-1.8-2-2.9s-0.8-2.3-0.8-3.6c0-1.3,0.2-2.5,0.8-3.6c0.5-1.1,1.1-2.1,2-2.9
	c0.8-0.8,1.8-1.5,2.9-2s2.3-0.8,3.6-0.8c1.4,0,2.6,0.3,3.9,0.8c0.4-1.1,1-2,1.7-2.9c0.7-0.8,1.4-1.6,2.3-2.2s1.9-1.1,2.9-1.4
	c1.1-0.4,2.1-0.5,3.3-0.5c1.5,0,2.9,0.3,4.2,0.8c1.4,0.6,2.5,1.4,3.5,2.3c1,1,1.7,2.1,2.3,3.5c0.6,1.4,0.8,2.7,0.8,4.2v1.6h3.1
	c0.8,0,1.7,0.2,2.4,0.5s1.4,0.8,2,1.4s1,1.2,1.4,2c0.3,0.8,0.5,1.6,0.5,2.4C114.9,73.7,114.7,74.5,114.3,75.3z"/>
<circle class="st3" cx="92.6" cy="78.7" r="8.3"/>
<g>
	<path class="st12" d="M115.7,66.9c-0.5-1.1-1.1-2.1-2-2.9c-0.8-0.8-1.8-1.5-3-2c-1.1-0.5-2.3-0.8-3.7-0.8c-0.2-1.7-0.8-3.4-1.5-4.9
		c-0.8-1.5-1.8-2.9-3-3.9c-1.2-1.1-2.6-2-4.2-2.6s-3.3-1-5.1-1c-1.2,0-2.3,0.2-3.5,0.5c-1.1,0.3-2.2,0.7-3.2,1.3c-1,0.5-2,1.2-2.8,2
		s-1.6,1.7-2.3,2.7C80.5,55.1,79.7,55,79,55c-1.7,0-3.3,0.3-4.8,1s-2.9,1.5-4,2.6s-2,2.4-2.6,4c-0.7,1.5-1,3.2-1,4.8
		c0,1.7,0.3,3.3,1,4.8s1.5,2.9,2.6,4s2.4,2,4,2.6c1.5,0.7,3.2,1,4.8,1h2.4c0.8,5.2,5.3,9.3,10.7,9.3c5.4,0,10-4,10.7-9.3h4.2
		c1.3,0,2.5-0.2,3.6-0.8c1.1-0.5,2.1-1.1,2.9-2c0.8-0.8,1.5-1.8,2-2.9s0.8-2.3,0.8-3.6C116.4,69.2,116.2,68,115.7,66.9z M92.2,85.9
		c-4.2,0-7.6-3.4-7.6-7.6s3.4-7.6,7.6-7.6s7.6,3.4,7.6,7.6S96.4,85.9,92.2,85.9z M112.8,73c-0.3,0.8-0.8,1.4-1.4,2s-1.2,1-2,1.4
		c-0.8,0.3-1.6,0.5-2.4,0.5h-4.2c-0.8-5.2-5.3-9.3-10.7-9.3s-10,4.1-10.7,9.3H79c-1.3,0-2.5-0.2-3.6-0.8c-1.1-0.5-2.1-1.1-2.9-2
		c-0.8-0.8-1.5-1.8-2-2.9s-0.8-2.3-0.8-3.6c0-1.3,0.2-2.5,0.8-3.6c0.5-1.1,1.1-2.1,2-2.9c0.8-0.8,1.8-1.5,2.9-2s2.3-0.8,3.6-0.8
		c1.4,0,2.6,0.3,3.9,0.8c0.4-1.1,1-2,1.7-2.9c0.7-0.8,1.4-1.6,2.3-2.2s1.9-1.1,2.9-1.4c1.1-0.4,2.1-0.5,3.3-0.5
		c1.5,0,2.9,0.3,4.2,0.8c1.4,0.6,2.5,1.4,3.5,2.3s1.7,2.1,2.3,3.5c0.6,1.4,0.8,2.7,0.8,4.2v1.6h3.1c0.8,0,1.7,0.2,2.4,0.5
		c0.8,0.3,1.4,0.8,2,1.4s1,1.2,1.4,2c0.3,0.8,0.5,1.6,0.5,2.4C113.3,71.4,113.2,72.2,112.8,73z"/>
	<polygon class="st4" points="90.3,83.7 90.3,73.2 97.8,78.5 	"/>
</g>
</svg>
