<?xml version="1.0" encoding="utf-8"?>
<!-- Generator: Adobe Illustrator 21.1.0, SVG Export Plug-In . SVG Version: 6.00 Build 0)  -->
<svg version="1.1" id="Layer_1" xmlns="http://www.w3.org/2000/svg" xmlns:xlink="http://www.w3.org/1999/xlink" x="0px" y="0px"
	 viewBox="0 0 388 140" style="enable-background:new 0 0 388 140;" xml:space="preserve">
<style type="text/css">
	.st0{fill:#334154;}
	.st1{opacity:5.000000e-02;fill:#E4EAF6;enable-background:new    ;}
	.st2{opacity:5.000000e-02;}
	.st3{fill:#D7DEED;}
	.st4{opacity:0.1;}
	.st5{fill:#E4EAF6;}
	.st6{opacity:0.5;fill:#E4EAF6;enable-background:new    ;}
	.st7{fill:#1E2937;}
	.st8{fill:#2A3548;}
	.st9{fill:#F25C00;}
	.st10{fill:#CC4602;}
</style>
<rect class="st0" width="388" height="140"/>
<path class="st1" d="M175.7,30.3L175.7,30.3c0.8-7.3,7-13.1,14.5-13.1c7.4,0,13.6,5.6,14.4,12.8c2.1-2,5-3.3,8.1-3.3
	c5.5,0,10.1,3.8,11.4,8.8c0.8-0.2,1.7-0.4,2.6-0.4c5.1,0,9.3,4.2,9.3,9.3s-4.2,9.3-9.3,9.3c-3.6,0-45.9,0-51.1,0
	c-6.5,0-11.8-5.3-11.8-11.8C163.9,35.6,169.2,30.3,175.7,30.3z"/>
<g class="st2">
	<polygon class="st3" points="279.6,30.8 279.6,50.9 296.8,61.7 313.9,50.9 313.9,30.8 297.2,20.8 	"/>
</g>
<g class="st4">
	<g>
		<polygon class="st5" points="270.2,90.4 219.8,90.4 219.8,51 252.4,34.1 270.2,42.6 		"/>
		<path class="st5" d="M288.4,70h-0.1c-1.2-12.1-11.4-21.6-23.9-21.6c-12.3,0-22.4,9.3-23.8,21.2c-3.5-3.3-8.2-5.4-13.4-5.4
			c-9.1,0-16.7,6.2-18.8,14.6c-1.4-0.4-2.8-0.6-4.3-0.6c-8.5,0-15.4,6.9-15.4,15.4s6.9,15.4,15.4,15.4c5.9,0,75.8,0,84.3,0
			c10.7,0,19.5-8.7,19.5-19.5C307.9,78.8,299.2,70,288.4,70z"/>
	</g>
	<path class="st6" d="M268.4,29.2h0.1c1.3-12.7,12-22.7,25-22.7c12.9,0,23.5,9.7,25,22.2c3.7-3.5,8.6-5.6,14.1-5.6
		c9.5,0,17.5,6.5,19.8,15.3c1.4-0.4,2.9-0.6,4.5-0.6c8.9,0,16.1,7.2,16.1,16.1S365.8,70,356.9,70c-6.2,0-79.5,0-88.5,0
		c-11.3,0-20.4-9.1-20.4-20.4S257.2,29.2,268.4,29.2z"/>
</g>
<polygon class="st7" points="312.3,50.1 297.3,59.6 297.3,42.2 312.3,33.5 "/>
<polygon class="st8" points="281.1,50.1 296,59.6 296,42.2 281.1,32.8 "/>
<polygon class="st9" points="312.1,31.9 296.6,40.7 281.8,31.5 296.9,22.7 "/>
<polygon class="st8" points="237.7,99.1 252.7,108.6 252.7,91.2 237.7,81.7 "/>
<polygon class="st7" points="268.9,80.2 254,89.7 254,72.3 268.9,62.8 "/>
<polygon class="st8" points="237.7,80.2 252.7,89.7 252.7,72.3 237.7,62.8 "/>
<g>
	<polygon class="st9" points="283.8,70.6 270.2,63 270.2,79.3 	"/>
</g>
<polygon class="st8" points="221.1,88.9 236.1,98.4 236.1,81 221.1,71.5 "/>
<polygon class="st8" points="221.1,70 236.1,79.5 236.1,62.1 221.1,52.6 "/>
<polygon class="st7" points="268.9,61.3 253.6,52.6 268.9,43.9 "/>
<g>
	<path class="st7" d="M267,91.7c0.7,0,1.3,0.1,2,0.2V81.7l-15,9.4v5C257.4,93.1,262,91.4,267,91.7z"/>
	<path class="st7" d="M285.2,82.1V71.5l-15,9.4v11.2c2,0.5,3.8,1.3,5.4,2.4C276.8,89.1,280.4,84.5,285.2,82.1z"/>
</g>
<g>
	<polygon class="st9" points="252.4,51.7 268,42.8 252.3,35.6 237.8,43.3 	"/>
	<polygon class="st9" points="236.7,60.8 251.3,52.5 236.4,43.8 221.7,51.4 	"/>
</g>
<g>
	<polygon class="st9" points="238.1,61.5 253.2,71.1 268,61.8 252.5,53.2 	"/>
</g>
<g>
	<g>
		<polygon class="st8" points="133,98.7 133,41.3 83.1,12.5 33,41.3 33,98.7 83.1,127.5 		"/>
		<polygon class="st9" points="33,92.4 83.1,121.2 133,92.4 133,98.7 83.1,127.5 33,98.7 		"/>
		<polygon class="st7" points="133,98.7 133,41.3 83.1,12.5 83.1,127.5 		"/>
		<polygon class="st10" points="133,98.7 133,92.4 83.1,121.2 83.1,127.5 		"/>
	</g>
	<g>
		<path class="st5" d="M94,57.8l14.6,7.3v19.8L94,92.3L79.4,85v-8.1l-8.2,4l-14.6-7.2V53.8l14.6-7.3l14.6,7.3v8.1L94,57.8z
			 M59.9,57.4v14.2l9.8,4.8V62.2L59.9,57.4z M80.6,54.8l-9.4-4.6l-9.4,4.6l9.4,4.6L80.6,54.8z M73,76.5l6.6-3.2v-8.1l3.2-1.6v-6.1
			L73,62.2V76.5z M82.7,68.7v14.2l9.8,4.8V73.6L82.7,68.7z M103.4,66.1L94,61.5l-9.4,4.6l9.4,4.6L103.4,66.1z M95.8,87.9l9.8-4.8
			V68.7l-9.8,4.8V87.9z"/>
	</g>
</g>
<path class="st1" d="M315.5,99.1C315.5,99.1,315.4,99.2,315.5,99.1c-1-9.5-9.1-16.9-18.8-16.9c-9.6,0-17.6,7.3-18.7,16.6
	c-2.7-2.6-6.4-4.2-10.5-4.2c-7.1,0-13.1,4.9-14.8,11.5c-1.1-0.3-2.2-0.5-3.4-0.5c-6.7,0-12.1,5.4-12.1,12.1s5.4,12.1,12.1,12.1
	c4.6,0,59.5,0,66.2,0c8.4,0,15.3-6.8,15.3-15.3S323.9,99.1,315.5,99.1z"/>
</svg>
