<?xml version="1.0" encoding="utf-8"?>
<!-- Generator: Adobe Illustrator 21.1.0, SVG Export Plug-In . SVG Version: 6.00 Build 0)  -->
<svg version="1.1" id="Layer_1" xmlns="http://www.w3.org/2000/svg" xmlns:xlink="http://www.w3.org/1999/xlink" x="0px" y="0px"
	 viewBox="0 0 388 140" style="enable-background:new 0 0 388 140;" xml:space="preserve">
<style type="text/css">
	.st0{fill:#334154;}
	.st1{fill:none;}
	.st2{fill:#2A3548;}
	.st3{fill:#F25C00;}
	.st4{fill:#1E2937;}
	.st5{fill:#CC4602;}
	.st6{fill:#D7DEED;}
	.st7{opacity:5.000000e-02;}
	.st8{fill:#E4EAF6;}
	.st9{opacity:0.1;}
	.st10{opacity:0.25;fill:#E4EAF6;enable-background:new    ;}
	.st11{fill:#8C9CAD;}
	.st12{opacity:0.5;}
</style>
<rect class="st0" width="388" height="140"/>
<line class="st1" x1="-6" y1="140.2" x2="-6" y2="0.2"/>
<g>
	<g>
		<polygon class="st2" points="133,98.7 133,41.3 83,12.5 33,41.3 33,98.7 83,127.5 		"/>
		<polygon class="st3" points="33,92.4 83,121.2 133,92.4 133,98.7 83,127.5 33,98.7 		"/>
		<polygon class="st4" points="133,98.7 133,41.3 83,12.5 83,127.5 		"/>
		<polygon class="st5" points="133,98.7 133,92.4 83,121.2 83,127.5 		"/>
	</g>
	<g>
		<path class="st4" d="M108.4,73.2c-0.5-1.1-1.1-2.1-2-3c-0.8-0.8-1.8-1.5-3-2c-1.1-0.5-2.3-0.8-3.7-0.8c-0.2-1.7-0.8-3.4-1.5-4.9
			c-0.5-0.9-1.1-1.8-1.7-2.6L94,62c0.7,0.8,1.2,1.7,1.6,2.7c0.6,1.4,0.8,2.7,0.8,4.2v1.6h3.1c0.8,0,1.7,0.2,2.4,0.5
			c0.8,0.3,1.4,0.8,2,1.4s1,1.2,1.4,2c0.3,0.8,0.5,1.6,0.5,2.4s-0.2,1.7-0.5,2.4c-0.3,0.8-0.8,1.4-1.4,2s-1.2,1-2,1.4
			c-0.8,0.3-1.6,0.5-2.4,0.5H71.2c-1.3,0-2.5-0.2-3.6-0.8c-1.1-0.5-2.1-1.1-3-2c-0.8-0.8-1.5-1.8-2-3c-0.5-1.1-0.8-2.3-0.8-3.6
			c0-1.3,0.2-2.5,0.8-3.6c0.5-1.1,1.1-2.1,2-3c0.8-0.8,1.8-1.5,3-2c1.1-0.5,2.3-0.8,3.6-0.8c1.4,0,2.7,0.3,3.9,0.8
			c0.4-1.1,1-2,1.7-3c0.7-0.8,1.4-1.6,2.3-2.2c0.9-0.6,1.9-1.1,3-1.4c1.1-0.4,2.1-0.5,3.3-0.5c1.3,0,2.5,0.2,3.7,0.6l2.4-2.3
			c-0.3-0.2-0.7-0.3-1-0.5c-1.6-0.6-3.3-1-5.3-1c-1.2,0-2.3,0.2-3.5,0.5c-1.1,0.3-2.2,0.7-3.3,1.3c-1,0.5-2,1.2-2.8,2
			s-1.6,1.7-2.3,2.7c-0.8-0.2-1.5-0.2-2.3-0.2c-1.7,0-3.3,0.3-4.8,1c-1.5,0.7-2.9,1.5-4,2.7c-1.1,1.1-2,2.4-2.7,4
			c-0.7,1.5-1,3.2-1,4.8c0,1.7,0.3,3.3,1,4.8s1.5,2.9,2.7,4s2.4,2,4,2.7c1.5,0.7,3.2,1,4.8,1h28.4c1.3,0,2.5-0.2,3.6-0.8
			c1.1-0.5,2.1-1.1,3-2c0.8-0.8,1.5-1.8,2-3c0.5-1.1,0.8-2.3,0.8-3.6C109.1,75.5,108.9,74.3,108.4,73.2z"/>
	</g>
	<polygon class="st2" points="93.8,51.6 73.7,71 72.4,76.2 77.3,75.4 97.4,55.1 96.1,52 	"/>
	<g>
		<g>
			<path class="st6" d="M106.8,70.9c-0.5-1.1-1.1-2.1-2-3c-0.8-0.8-1.8-1.5-3-2c-1.1-0.5-2.3-0.8-3.7-0.8c-0.2-1.7-0.8-3.4-1.5-4.9
				c-0.5-0.9-1.1-1.8-1.7-2.6l-2.3,2.2c0.7,0.8,1.2,1.7,1.6,2.7c0.6,1.4,0.8,2.7,0.8,4.2v1.6h3.1c0.8,0,1.7,0.2,2.4,0.5
				c0.8,0.3,1.4,0.8,2,1.4s1,1.2,1.4,2c0.3,0.8,0.5,1.6,0.5,2.4s-0.2,1.7-0.5,2.4c-0.3,0.8-0.8,1.4-1.4,2s-1.2,1-2,1.4
				c-0.8,0.3-1.6,0.5-2.4,0.5H69.7c-1.3,0-2.5-0.2-3.6-0.8c-1.1-0.5-2.1-1.1-3-2c-0.8-0.8-1.5-1.8-2-3c-0.5-1.1-0.8-2.3-0.8-3.6
				c0-1.3,0.2-2.5,0.8-3.6c0.5-1.1,1.1-2.1,2-3c0.8-0.8,1.8-1.5,3-2c1.1-0.5,2.3-0.8,3.6-0.8c1.4,0,2.7,0.3,3.9,0.8
				c0.4-1.1,1-2,1.7-3c0.7-0.8,1.4-1.6,2.3-2.2c0.9-0.6,1.9-1.1,3-1.4c1.1-0.4,2.1-0.5,3.3-0.5c1.3,0,2.5,0.2,3.7,0.6l2.4-2.3
				c-0.3-0.2-0.7-0.3-1-0.5c-1.6-0.6-3.3-1-5.3-1c-1.2,0-2.3,0.2-3.5,0.5c-1.1,0.3-2.2,0.7-3.3,1.3c-1,0.5-2,1.2-2.8,2
				s-1.6,1.7-2.3,2.7c-0.8-0.2-1.5-0.2-2.3-0.2c-1.7,0-3.3,0.3-4.8,1c-1.5,0.7-2.9,1.5-4,2.7c-1.1,1.1-2,2.4-2.7,4
				c-0.7,1.5-1,3.2-1,4.8c0,1.7,0.3,3.3,1,4.8s1.5,2.9,2.7,4c1.1,1.1,2.4,2,4,2.7c1.5,0.7,3.2,1,4.8,1h28.4c1.3,0,2.5-0.2,3.6-0.8
				c1.1-0.5,2.1-1.1,3-2c0.8-0.8,1.5-1.8,2-3c0.5-1.1,0.8-2.3,0.8-3.6C107.5,73.3,107.3,72.1,106.8,70.9z"/>
		</g>
		<g>
			<path class="st3" d="M90.4,52.8c0.3-0.3,0.6-0.6,0.9-0.9s0.6-0.6,0.9-0.8s0.7-0.5,1.1-0.6c0.4-0.2,0.8-0.2,1.3-0.2
				s1.1,0.1,1.5,0.3c0.5,0.2,0.9,0.5,1.2,0.8c0.3,0.3,0.6,0.8,0.8,1.3c0.2,0.5,0.3,1,0.3,1.5s-0.1,0.9-0.2,1.3
				c-0.2,0.4-0.3,0.8-0.5,1.1s-0.5,0.6-0.8,0.9c-0.3,0.3-0.6,0.6-0.9,0.9L93.5,61L78.1,76.4l-7.5,1.9l1.9-7.4l15.4-15.4L90.4,52.8z
				 M76.7,74.2l18.9-18.8c0.3-0.3,0.4-0.6,0.4-1s-0.2-0.8-0.5-1c-0.3-0.3-0.6-0.4-1-0.4s-0.7,0.2-1,0.4L74.6,72.1l-0.7,2.7"/>
		</g>
	</g>
</g>
<g class="st7">
	<g>
		<path class="st8" d="M291.4,76.2h-0.1c-1.1-11.4-10.7-20.3-22.4-20.3c-11.5,0-21.1,8.7-22.4,19.9c-3.3-3.1-7.7-5-12.6-5
			c-8.5,0-15.7,5.8-17.7,13.7c-1.3-0.4-2.6-0.6-4-0.6c-8,0-14.4,6.5-14.4,14.4s6.5,14.4,14.4,14.4c5.6,0,71.2,0,79.2,0
			c10.1,0,18.3-8.2,18.3-18.3C309.7,84.4,301.5,76.2,291.4,76.2z"/>
	</g>
</g>
<g class="st9">
	<g>
		<path class="st8" d="M290.4,72.2h-0.1c-1.1-11.4-10.7-20.3-22.4-20.3c-11.5,0-21.1,8.7-22.4,19.9c-3.3-3.1-7.7-5-12.6-5
			c-8.5,0-15.7,5.8-17.7,13.7c-1.3-0.4-2.6-0.6-4-0.6c-8,0-14.4,6.5-14.4,14.4s6.5,14.4,14.4,14.4c5.6,0,71.2,0,79.2,0
			c10.1,0,18.3-8.2,18.3-18.3C308.7,80.4,300.5,72.2,290.4,72.2z"/>
	</g>
</g>
<path class="st10" d="M270.8,88.3c3.1,0,5.7,2.5,5.7,5.7c0,3.1-2.5,5.7-5.7,5.7h-12V88.3H270.8z"/>
<path class="st11" d="M267.4,100.8l-0.1,18.9c0,3.5-2.9,6.3-6.4,6.3l-21.6-0.2l0.2-31.3c0-3.5,2.9-6.3,6.4-6.3h5.6l20.2,0.1
	c-3.1,0-4.3,2.5-4.3,5.6V100.8z"/>
<path class="st8" d="M239,125.9c-3.1,0-5.7-2.5-5.7-5.7c0-3.1,2.5-5.7,5.7-5.7h21.9c-3.1,0-5.7,2.5-5.7,5.7c0,3.1,2.5,5.7,5.7,5.7
	H239z"/>
<g class="st12">
	<g class="st9">
		<g>
			<path class="st8" d="M354.6,29.8C354.5,29.8,354.5,29.8,354.6,29.8c-0.7-6.7-6.4-12-13.3-12c-6.8,0-12.4,5.1-13.2,11.7
				c-1.9-1.8-4.6-3-7.4-3c-5,0-9.2,3.4-10.4,8.1c-0.8-0.2-1.5-0.3-2.4-0.3c-4.7,0-8.5,3.8-8.5,8.5s3.8,8.5,8.5,8.5
				c3.3,0,42,0,46.7,0c6,0,10.8-4.8,10.8-10.8C365.3,34.6,360.5,29.8,354.6,29.8z"/>
		</g>
	</g>
	<path class="st10" d="M343,39.3c1.8,0,3.3,1.5,3.3,3.3s-1.5,3.3-3.3,3.3h-7.1v-6.7h7.1V39.3z"/>
	<path class="st11" d="M341,46.7l-0.1,11.1c0,2.1-1.7,3.7-3.7,3.7l-12.8-0.1l0.1-18.5c0-2.1,1.7-3.7,3.7-3.7h3.3l11.9,0.1
		c-1.8,0-2.5,1.5-2.5,3.3L341,46.7z"/>
	<path class="st8" d="M324.2,61.5c-1.8,0-3.3-1.5-3.3-3.3s1.5-3.3,3.3-3.3h12.9c-1.8,0-3.3,1.5-3.3,3.3s1.5,3.3,3.3,3.3H324.2z"/>
</g>
<g class="st12">
	<g class="st9">
		<g>
			<path class="st8" d="M227,25.3L227,25.3c-0.8-7.6-7.2-13.5-15-13.5c-7.7,0-14,5.8-14.9,13.3c-2.2-2.1-5.1-3.4-8.4-3.4
				c-5.7,0-10.5,3.9-11.8,9.1c-0.8-0.2-1.7-0.4-2.7-0.4c-5.3,0-9.6,4.3-9.6,9.6s4.3,9.6,9.6,9.6c3.7,0,47.5,0,52.8,0
				c6.7,0,12.2-5.5,12.2-12.2C239.2,30.8,233.8,25.3,227,25.3z"/>
		</g>
	</g>
	<path class="st10" d="M214,36c2.1,0,3.8,1.7,3.8,3.8s-1.7,3.8-3.8,3.8h-8V36H214z"/>
	<path class="st11" d="M211.6,44.4V57c0,2.3-1.9,4.2-4.2,4.2L192.9,61l0.1-20.9c0-2.3,1.9-4.2,4.2-4.2h3.7l13.5,0.1
		c-2.1,0-2.8,1.7-2.9,3.7L211.6,44.4z"/>
	<path class="st8" d="M192.7,61.1c-2.1,0-3.8-1.7-3.8-3.8s1.7-3.8,3.8-3.8h14.6c-2.1,0-3.8,1.7-3.8,3.8s1.7,3.8,3.8,3.8H192.7z"/>
</g>
</svg>
