<svg id="ICONS" xmlns="http://www.w3.org/2000/svg" viewBox="0 0 400 140" style="background-color: #ffb690;">
  <defs>
    <style>
      .cls-1 {
        fill: #80def9;
      }

      .cls-2 {
        fill: #2bc7f4;
      }

      .cls-3 {
        fill: #9273b6;
      }

      .cls-4 {
        fill: #556a8a;
      }

      .cls-5 {
        fill: #adbdca;
      }

      .cls-6, .cls-9 {
        fill: #fff;
      }

      .cls-7 {
        fill: #c8edfb;
      }

      .cls-11, .cls-8 {
        fill: none;
      }

      .cls-8, .cls-9 {
        stroke: #556a8a;
        stroke-miterlimit: 10;
        stroke-width: 2px;
      }

      .cls-10 {
        fill: #e5e5e5;
      }
    </style>
  </defs>
  <title>system-center-configuration</title>
  <g>
    <path class="cls-1" d="M111.63,53.27a17.49,17.49,0,0,0-5.89-1.57,19.15,19.15,0,0,0-7.79,1,18.33,18.33,0,0,0-10.13,8.67,16,16,0,0,0-1.24,12.85,17.9,17.9,0,0,0,22.62,11,17.71,17.71,0,0,0,10.4-8.83,17.5,17.5,0,0,0,.67-13.57A16.36,16.36,0,0,0,111.63,53.27Zm-6.17,21.1a6,6,0,0,1-7.54-3.67,5.84,5.84,0,0,1,3.78-7.2,5.75,5.75,0,1,1,3.76,10.87Z"/>
    <path class="cls-2" d="M141.05,69.45A1.35,1.35,0,0,0,140,68l-5.73-1a9.8,9.8,0,0,0-.48-4l5.07-2.6a1.32,1.32,0,0,0,.88-1.78l-1.19-3.45a1.34,1.34,0,0,0-1.79-.87l-5.62,1a14.2,14.2,0,0,0-1.72-3.27L133,47.89a1.6,1.6,0,0,0-.11-2l-2.44-2.73a1.38,1.38,0,0,0-1.88-.25l-4.62,3c-1.17-.79-2.07-1.67-3.24-2.46l1.74-5.32a2.38,2.38,0,0,0-.64-1.86l-3.5-1.48a1.75,1.75,0,0,0-2,.37l-3.08,4.89c-1.08-.52-2.33-.69-3.41-1.22l-.41-5.49A1.71,1.71,0,0,0,108.11,32l-3.93-.15a1.35,1.35,0,0,0-1.42,1.07l-1.38,5.5c-1.16.1-2.59.28-3.75.38l-2.64-5c-.18-.53-1.17-.79-1.7-.61l-3.74,1.26a1.85,1.85,0,0,0-1,1.51l1,5.57-2.93,1.88-4.32-3.87a1.88,1.88,0,0,0-2.05.1l-2.75,2.41a1.24,1.24,0,0,0-.25,1.86l3.17,4.85A23.31,23.31,0,0,0,78,52l-5.47-2a1.74,1.74,0,0,0-1.78.9l-1.58,3.2A1.72,1.72,0,0,0,69.56,56l4.67,3.16c-.17,1.24-.69,2.31-.86,3.55l-5.54.39a1.72,1.72,0,0,0-1.59,1.43L66,68.17a1.73,1.73,0,0,0,1.18,1.67l5.72,1a16,16,0,0,0,.48,4l-5.07,2.6a1.27,1.27,0,0,0-.61,1.69l1.19,3.45a1.3,1.3,0,0,0,1.53,1l5.62-1c.63,1,1.09,2.29,1.73,3.27L74.14,90a1.34,1.34,0,0,0,0,1.77l2.53,3a2,2,0,0,0,1.88.25l4.89-3.13a11.76,11.76,0,0,0,2.88,2.28l-1.65,5.59c-.08.62.19,1.42.82,1.5l3.32,1.84a1.37,1.37,0,0,0,1.87-.63l3.18-4.63a11.75,11.75,0,0,0,3.58.86l.5,5.75a1.26,1.26,0,0,0,1.35,1.32L103,106a1.36,1.36,0,0,0,1.42-1.07l1.38-5.5c1.16-.1,2.59-.28,3.75-.38l2.54,4.77a1.79,1.79,0,0,0,1.79.87l3.74-1.26a1.49,1.49,0,0,0,.88-1.78l-.94-5.31,2.93-1.88L125,98a1.27,1.27,0,0,0,1.88.25l2.75-2.41a1.43,1.43,0,0,0,.16-2.12L126.93,89a21.52,21.52,0,0,0,2.21-3.12l5.37,1.74a1.37,1.37,0,0,0,1.87-.63l1.75-3.55a1.75,1.75,0,0,0-.55-1.59l-4.76-3.42a10,10,0,0,0,1-3.28l5.8-.48a2,2,0,0,0,1.33-1.34Zm-18,8.62a21.91,21.91,0,0,1-40.15-2.63A19.7,19.7,0,0,1,84.4,59.54a22.3,22.3,0,0,1,28.87-9.73,20.17,20.17,0,0,1,10.65,11.77A21.26,21.26,0,0,1,123.07,78.06Z"/>
  </g>
  <path class="cls-3" d="M142.45,28.28c-.64-.3-1.61-.69-2.12-1a1.35,1.35,0,0,1-.71-1.36c0-.57,0-.83.09-1.4a1.2,1.2,0,0,1,.7-1.12c.54-.33,1.56-.92,2.07-1.23a.76.76,0,0,0,.35-1.13c-.21-.49-.54-1.21-.72-1.57a.72.72,0,0,0-1-.39l-2.26.67a1.29,1.29,0,0,1-1.4-.2c-.44-.46-.89-.92-1.12-1.18a1.33,1.33,0,0,1-.21-1.36c.21-.68.51-1.88.62-2.31a.76.76,0,0,0-.58-1c-.56-.2-.92-.36-1.51-.52s-.84-.07-1.18.52-.74,1.27-1,1.72-.48.75-1,.79l-1.82.12c-.53,0-.85-.1-1.22-.8s-.76-1.67-.93-2a.86.86,0,0,0-1.27-.43c-.53.22-1.08.47-1.54.68a.82.82,0,0,0-.47,1.21c.26.69.56,1.48.76,2a1.09,1.09,0,0,1-.34,1.3c-.4.37-.84.81-1.2,1.16a1.2,1.2,0,0,1-1.4.34c-.7-.21-1.48-.45-2.14-.69a.7.7,0,0,0-1,.43c-.26.54-.54,1.29-.74,1.7a.71.71,0,0,0,.29,1c.46.32,2.18,1.14,2.46,1.32a1,1,0,0,1,.52,1.06c-.05.61-.09,1-.17,1.48a1.17,1.17,0,0,1-.75,1.1c-.65.35-1.78,1-2.16,1.22s-.47.58-.25,1.07.56,1.28.71,1.59a.82.82,0,0,0,1.12.48l2.32-.77a1.23,1.23,0,0,1,1.33.36c.36.39.66.73,1,1.05a1.22,1.22,0,0,1,.27,1.34c-.18.76-.36,1.63-.48,2.24a.83.83,0,0,0,.56,1.11c.49.19,1.16.51,1.49.64s.85.23,1.22-.57.81-1.77.94-2.07.44-.52,1.05-.57,1.27-.1,1.7-.12a1.11,1.11,0,0,1,1.08.61c.22.35.8,1.64,1,2a.89.89,0,0,0,1.26.6c.87-.26,1.38-.44,1.83-.6s.6-.59.37-1.2-.61-1.64-.82-2.17,0-.88.42-1.3a12.57,12.57,0,0,1,1.18-1.06A1.45,1.45,0,0,1,139,31c.64.16,1.25.36,1.73.46s1.12.38,1.46-.37.51-1.14.7-1.63S143.09,28.58,142.45,28.28Zm-12.22,1.84a4.79,4.79,0,1,1,5.13-4.47A4.81,4.81,0,0,1,130.22,30.12Z"/>
  <g>
    <polygon class="cls-4" points="256.8 121.1 163.2 121.1 169.05 115.1 251.32 115.1 256.8 121.1"/>
    <polygon class="cls-5" points="248 119 172 119 174.67 117 245.41 117 248 119"/>
    <polygon class="cls-4" points="230.4 107 188.8 107 184 112 235.2 112 230.4 107"/>
    <polygon class="cls-4" points="212.4 109.1 206.8 109.1 207.92 97.9 211.28 97.9 212.4 109.1"/>
    <rect class="cls-6" x="150" y="34" width="121" height="66" rx="4" ry="4" transform="translate(421 134) rotate(180)"/>
    <rect class="cls-7" x="151" y="35" width="120" height="12.8"/>
    <rect class="cls-8" x="150" y="34" width="121" height="66" rx="4" ry="4" transform="translate(421 134) rotate(180)"/>
  </g>
  <g>
    <rect class="cls-9" x="277" y="27" width="53" height="91"/>
    <g>
      <rect class="cls-10" x="303" y="28" width="26" height="89"/>
      <rect class="cls-2" x="279" y="50" width="24" height="3"/>
      <polygon class="cls-11" points="315 36 279 36 279 39 315 39 315 36 315 36"/>
      <polyline class="cls-11" points="315 36 279 36 279 39 315 39 315 36"/>
      <rect class="cls-2" x="279" y="43" width="24" height="3"/>
      <rect class="cls-2" x="279" y="36" width="24" height="3"/>
      <rect class="cls-4" x="303" y="50" width="26" height="3"/>
      <rect class="cls-4" x="303" y="43" width="26" height="3"/>
      <rect class="cls-4" x="303" y="36" width="26" height="3"/>
    </g>
    <rect class="cls-4" x="278" y="36" width="3" height="3"/>
    <rect class="cls-4" x="278" y="43" width="3" height="3"/>
    <rect class="cls-4" x="278" y="50" width="3" height="3"/>
  </g>
  <g>
    <rect class="cls-9" x="127" y="49" width="36" height="68" rx="4" ry="4"/>
    <rect class="cls-10" x="130" y="58" width="30" height="49"/>
    <path class="cls-4" d="M149.19,55h-8.38a1,1,0,0,1,0-2h8.38a1,1,0,0,1,0,2Z"/>
    <circle class="cls-4" cx="133.5" cy="111.5" r="1.5"/>
    <circle class="cls-4" cx="157.5" cy="111.5" r="1.5"/>
    <rect class="cls-4" x="140" y="111" width="10" height="2" rx="1" ry="1"/>
  </g>
</svg>
