<svg xmlns="http://www.w3.org/2000/svg" viewBox="0 0 400 140" style="background-color: #ffb690;"><defs><style>.cls-1,.cls-10{fill:#fff;}.cls-2{fill:#e5e5e5;}.cls-3,.cls-5{fill:none;}.cls-10,.cls-3,.cls-4,.cls-5{stroke:#263746;stroke-miterlimit:10;stroke-width:2px;}.cls-4{fill:#feb586;}.cls-5{stroke-dasharray:3 3;}.cls-6{fill:#263746;}.cls-7{fill:#bad80a;}.cls-8{fill:#2dbceb;}.cls-9{fill:#ddec85;}</style></defs><title>azure-architecture-patterns</title><g id="ICONS"><path class="cls-1" d="M341.38,45l-13.8.12L299,45.36V89.83c0,4.56,10,8.49,23,8.73h.5c1.76,0,3.46-.1,5.09-.26a39.9,39.9,0,0,0,13.8-3.37c2.92-1.45,4.61-3.23,4.61-5.11V45Z"/><path class="cls-2" d="M341.38,45V94.94a39.9,39.9,0,0,1-13.8,3.37V45.12Z"/><path class="cls-3" d="M299,45.36V89.83c0,4.56,9.95,8.49,23,8.73h.5c13.29-.15,23.5-4.12,23.5-8.74V45"/><path class="cls-4" d="M346,45.49c0,4.69-10.52,8.49-23.5,8.49S299,50.17,299,45.49,309.88,37,322.86,37,346,40.8,346,45.49"/><path class="cls-5" d="M151,54h19.33C185.16,54,183,64.18,183,72v2c0,7,0,6.85,0,13s4,13,13,13,14-7.42,14-12.78V57c.05-5.36,4-13,13-13s13,6.85,13,13V88c0,8.55,6.82,13,13,13s12.91-5.89,12.91-15c0-7.82-2.09-18,12.75-18h17.16"/><polygon class="cls-6" points="285.19 76.18 283.83 74.72 291.05 68 283.83 61.29 285.19 59.82 293.99 68 285.19 76.18"/><path class="cls-7" d="M222.23,67.37a.61.61,0,0,0,.57.42l1.28,0a.66.66,0,0,0,.52-.67l.07-1.57a.91.91,0,0,1,.63-1c.21-.19.5-.27.71-.46a1.1,1.1,0,0,1,1.08.15l1.43,1a.74.74,0,0,0,.69-.07l.93-1a.68.68,0,0,0-.16-.8l-1.12-1.23a.8.8,0,0,1-.15-1l-.09-.1a1.06,1.06,0,0,0,.33-.67c0-.39.23-.78.92-.84l1.49-.23a.78.78,0,0,0,.52-.66l-.13-1.38a.48.48,0,0,0-.57-.42l-1.57-.07a.94.94,0,0,1-1-.63c-.19-.21-.27-.5-.46-.71a1.58,1.58,0,0,1,.05-1.18l.94-1.24a.71.71,0,0,0-.06-.89l-1-.74a.6.6,0,0,0-.79,0l-1.14,1.23a1,1,0,0,1-1.09.25,3,3,0,0,0-.78-.23l-.09-.1a1,1,0,0,1-.75-.82l-.22-1.68a.61.61,0,0,0-.57-.42l-1.39.13a.48.48,0,0,0-.42.57l-.18,1.67c0,.59-.23.78-.53.86s-.5.27-.71.46a1,1,0,0,1-1.18-.05l-1.33-1a.76.76,0,0,0-.79.16l-.93,1a.87.87,0,0,0,.16.79l1.12,1.23c.38.41.46.71.15,1,0,.2-.12.49-.14.88s-.22.58-.92.65l-1.59.32a.61.61,0,0,0-.42.57l.13,1.38a.63.63,0,0,0,.47.51l1.67,0c.59,0,.78.23.86.53a8.79,8.79,0,0,1,.45.91.88.88,0,0,1,0,1.09l-1,1.33a.76.76,0,0,0,.16.79l.95.83a.6.6,0,0,0,.79,0l1.14-1.23a1,1,0,0,1,1.09-.25l.87.33c.39,0,.58.22.75.82l.32,1.59m3.86-9A3.46,3.46,0,0,1,223,62a3.21,3.21,0,0,1-3.6-3.12,3.3,3.3,0,0,1,3-3.5,3.34,3.34,0,0,1,3.7,3"/><path class="cls-8" d="M195.64,94.89a.61.61,0,0,0,.57.42l1.28,0a.66.66,0,0,0,.52-.67l.07-1.57a.91.91,0,0,1,.63-1c.21-.19.5-.27.71-.46a1.1,1.1,0,0,1,1.08.15l1.43,1a.74.74,0,0,0,.69-.07l.93-1a.68.68,0,0,0-.16-.8l-1.12-1.23a.8.8,0,0,1-.15-1l-.09-.1a1.06,1.06,0,0,0,.33-.67c0-.39.23-.78.92-.84l1.49-.23a.78.78,0,0,0,.52-.66l-.13-1.38a.48.48,0,0,0-.57-.42L203,84.2a.94.94,0,0,1-1-.63c-.19-.21-.27-.5-.46-.71a1.58,1.58,0,0,1,.05-1.18l.94-1.24a.71.71,0,0,0-.06-.89l-1-.74a.6.6,0,0,0-.79,0L199.58,80a1,1,0,0,1-1.09.25,3,3,0,0,0-.78-.23l-.09-.1a1,1,0,0,1-.75-.82l-.22-1.68a.61.61,0,0,0-.57-.42l-1.39.13a.48.48,0,0,0-.42.57l-.18,1.67c0,.59-.23.78-.53.86s-.5.27-.71.46a1,1,0,0,1-1.18-.05l-1.33-1a.76.76,0,0,0-.79.16l-.93,1a.87.87,0,0,0,.16.79l1.12,1.23c.38.41.46.71.15,1,0,.2-.12.49-.14.88s-.22.58-.92.65l-1.59.32a.61.61,0,0,0-.42.57l.13,1.38a.63.63,0,0,0,.47.51l1.67,0c.59,0,.78.23.86.53a8.79,8.79,0,0,1,.45.91.88.88,0,0,1,0,1.09l-1,1.33a.76.76,0,0,0,.16.79l.95.83a.6.6,0,0,0,.79,0l1.14-1.23a1,1,0,0,1,1.09-.25l.87.33c.39,0,.58.22.75.82l.32,1.59m3.86-9a3.46,3.46,0,0,1-3.12,3.6,3.21,3.21,0,0,1-3.6-3.12,3.3,3.3,0,0,1,3-3.5,3.34,3.34,0,0,1,3.7,3"/><path class="cls-1" d="M149.47,33.11H55.31a1.5,1.5,0,0,0-1.52,1.48v72.32H151V34.59A1.5,1.5,0,0,0,149.47,33.11Z"/><rect class="cls-9" x="53.99" y="48.41" width="18" height="58.59"/><rect class="cls-2" x="54.08" y="33.27" width="96.9" height="15.14"/><path class="cls-3" d="M149.37,33h-94a1.5,1.5,0,0,0-1.52,1.48V107h97V34.49A1.5,1.5,0,0,0,149.37,33Z"/><line class="cls-10" x1="53" y1="48" x2="150.98" y2="48"/><rect class="cls-6" x="78" y="55" width="4" height="4"/><rect class="cls-6" x="78" y="61" width="4" height="4"/><rect class="cls-6" x="78" y="67" width="4" height="4"/><rect class="cls-6" x="78" y="73" width="4" height="4"/><rect class="cls-6" x="84" y="55" width="4" height="4"/><rect class="cls-6" x="84" y="61" width="4" height="4"/><rect class="cls-6" x="84" y="67" width="4" height="4"/><rect class="cls-6" x="84" y="73" width="4" height="4"/><rect class="cls-6" x="90" y="55" width="4" height="4"/><rect class="cls-6" x="90" y="61" width="4" height="4"/><rect class="cls-6" x="90" y="67" width="4" height="4"/><rect class="cls-6" x="90" y="73" width="4" height="4"/><rect class="cls-6" x="96" y="55" width="4" height="4"/><rect class="cls-6" x="96" y="61" width="4" height="4"/><rect class="cls-6" x="96" y="67" width="4" height="4"/><rect class="cls-6" x="96" y="73" width="4" height="4"/><rect class="cls-6" x="102" y="55" width="4" height="4"/><rect class="cls-6" x="102" y="61" width="4" height="4"/><rect class="cls-6" x="102" y="67" width="4" height="4"/><rect class="cls-6" x="108" y="67" width="4" height="4"/><rect class="cls-6" x="114" y="67" width="4" height="4"/><rect class="cls-6" x="102" y="73" width="4" height="4"/><rect class="cls-6" x="108" y="73" width="4" height="4"/><rect class="cls-6" x="114" y="73" width="4" height="4"/><rect class="cls-6" x="120" y="73" width="4" height="4"/><rect class="cls-6" x="78" y="79" width="4" height="4"/><rect class="cls-6" x="78" y="85" width="4" height="4"/><rect class="cls-6" x="84" y="79" width="4" height="4"/><rect class="cls-6" x="84" y="85" width="4" height="4"/><rect class="cls-6" x="90" y="79" width="4" height="4"/><rect class="cls-6" x="90" y="85" width="4" height="4"/><rect class="cls-6" x="96" y="79" width="4" height="4"/><rect class="cls-6" x="96" y="85" width="4" height="4"/><rect class="cls-6" x="102" y="79" width="4" height="4"/><rect class="cls-6" x="108" y="79" width="4" height="4"/><rect class="cls-6" x="102" y="85" width="4" height="4"/><rect class="cls-6" x="90" y="91" width="4" height="4"/><rect class="cls-6" x="96" y="91" width="4" height="4"/><rect class="cls-6" x="102" y="91" width="4" height="4"/></g></svg>