<?xml version="1.0" encoding="utf-8"?>
<!-- Generator: Adobe Illustrator 21.1.0, SVG Export Plug-In . SVG Version: 6.00 Build 0)  -->
<svg version="1.1" id="Layer_1" xmlns="http://www.w3.org/2000/svg" xmlns:xlink="http://www.w3.org/1999/xlink" x="0px" y="0px"
	 viewBox="0 0 400 140" style="enable-background:new 0 0 400 140;" xml:space="preserve">
<style type="text/css">
	.st0{fill:#334154;}
	.st1{fill:#D7DEED;}
	.st2{opacity:0.25;fill:url(#SVGID_1_);}
	.st3{fill:#CAD0DB;}
	.st4{fill:#F25C00;}
	.st5{fill:#CC4602;}
	.st6{fill:#B23B06;}
	.st7{fill:#CA976A;}
	.st8{fill:#ECBF83;}
	.st9{fill:#E6AF78;}
	.st10{fill:#1E2937;}
</style>
<rect class="st0" width="400" height="140"/>
<path class="st1" d="M62.2,126.9c0.3-5.6,4.2-10.3,9.6-11.8l16-4.3c4.5-1.2,7.7-5.3,7.7-10V88h40.3v13.2c0,4.7,3.2,8.8,7.7,10
	l14.8,4c5.4,1.4,9.3,6.2,9.6,11.8l1.1,13.1H61.1L62.2,126.9z"/>
<radialGradient id="SVGID_1_" cx="329.6667" cy="28" r="179.7334" gradientUnits="userSpaceOnUse">
	<stop  offset="0" style="stop-color:#666666"/>
	<stop  offset="0.1527" style="stop-color:#666666"/>
	<stop  offset="0.2459" style="stop-color:#666666;stop-opacity:0.9276"/>
	<stop  offset="0.7964" style="stop-color:#666666;stop-opacity:0.5"/>
	<stop  offset="1" style="stop-color:#666666;stop-opacity:0"/>
</radialGradient>
<polygon class="st2" points="264,140 355.8,12.5 65,92.6 65,140 "/>
<path class="st3" d="M115.9,116.8l0.9,1.4V140h52.1l-1.1-13.1c-0.3-5.6-4.2-10.3-9.6-11.8l-14.8-4c-4.5-1.2-7.7-5.3-7.7-10V99
	c0,0-21.2,9.5-18.8,9.8S120.3,116.6,115.9,116.8z"/>
<g>
	<polygon class="st4" points="355.8,12.5 313,22.9 334.4,44.8 	"/>
	<polygon class="st5" points="320.2,41.8 320.2,30.2 355.8,12.5 324.4,34.5 	"/>
	<polygon class="st6" points="327.8,37.9 320.2,41.8 324.4,34.5 	"/>
</g>
<path class="st7" d="M115,110.2c-7.8,0-14.9-3-20.4-5.3c0.5-1.2,0.8-2.6,0.8-4V88h40.3v13.2c0,1.1,0.2,2.2,0.5,3.3
	C130.7,107,123.2,110.2,115,110.2z"/>
<path class="st8" d="M87,80.6l-3.2-43.8L115,23.3l31.1,13.5l-3.2,43.8c-0.6,4.8-3.2,9.1-7.3,11.7l-10,6.5c-6.5,4.2-14.9,4.2-21.4,0
	l-10-6.5C90.3,89.7,87.6,85.4,87,80.6z"/>
<path class="st9" d="M85.5,54l0.8-11.4C86.1,41,86,39.7,86,38.7l17.1-7.4c3.8-0.2,8.8-0.4,11.9-0.5v-4.6l31.1,10.7l-3.2,43.8
	c-0.6,4.8-3.2,9.1-7.3,11.7l-10,6.5c-3.2,2.1-7,3.2-10.7,3.2V51.6c-5-0.5-10.1-1.7-15.1-3.7c-2.8-1.1-5.9,0.4-6.7,3.3
	C91.9,56.4,90,62.1,86.4,65l-0.3,0.2L85,55.3C85.3,54.7,85.5,54.2,85.5,54z"/>
<path class="st5" d="M94.8,22.9l6.5-2.8c8.7-3.8,18.6-3.8,27.3,0l0,0v0l6.5,2.8c3.3,1.4,6.1,3.6,8.2,6.3c0.2,0.2,0.4,0.4,0.5,0.7
	c1.7,2.3,2.9,4.9,3.6,7.7c0.6,2.5,0.8,5.1,0.5,7.8l-1.7,14.9c-0.1,0.8-0.2,1.6-0.5,2.4c-3.6-3-5.8-9.8-6.9-15.1
	c-11.6,2.1-31.8,3.7-46.7-7.3c0,0-1.7,17.2-8.1,22.4c-0.2-0.8-0.4-1.6-0.5-2.4l-1.7-14.9C80.8,35.8,86.1,26.7,94.8,22.9z"/>
<polygon class="st5" points="115,17.2 133.3,17.2 128.6,21.9 "/>
<g>
	<polygon class="st10" points="234.5,77.1 154.1,77.1 145,140 225.4,140 	"/>
	<g>
		<polygon class="st1" points="183.9,114 188.6,114 189.2,109.3 184.5,109.3 		"/>
		<polygon class="st1" points="189.5,114 194.2,114 194.8,109.3 190.1,109.3 		"/>
		<polygon class="st1" points="190.9,103.7 190.3,108.4 195,108.4 195.6,103.7 		"/>
		<polygon class="st1" points="184.7,108.4 189.4,108.4 190,103.7 185.3,103.7 		"/>
	</g>
</g>
<g>
	<g>
		<path class="st1" d="M195.1,26.5l2.5,2.4l-9.3,9.2l9.3,9.2l-2.5,2.4l-11.8-11.6L195.1,26.5z M201.5,58.9l14-41.5h3.7l-14,41.5
			H201.5z M225.7,26.5l11.8,11.6l-11.8,11.6l-2.5-2.4l9.3-9.2l-9.3-9.2L225.7,26.5z"/>
	</g>
</g>
</svg>
