<?xml version="1.0" encoding="utf-8"?>
<!-- Generator: Adobe Illustrator 21.1.0, SVG Export Plug-In . SVG Version: 6.00 Build 0)  -->
<svg version="1.1" id="Layer_1" xmlns="http://www.w3.org/2000/svg" xmlns:xlink="http://www.w3.org/1999/xlink" x="0px" y="0px"
	 viewBox="0 0 400 140" style="enable-background:new 0 0 400 140;" xml:space="preserve">
<style type="text/css">
	.st0{fill:#334154;}
	.st1{opacity:0.25;fill:url(#SVGID_1_);}
	.st2{fill:#F25C00;}
	.st3{fill:#CC4602;}
	.st4{fill:#B23B06;}
	.st5{fill:#373737;}
	.st6{fill:#CA976A;}
	.st7{fill:#ECBF83;}
	.st8{fill:#E6AF78;}
	.st9{fill:#1E2937;}
	.st10{fill:#E4EAF6;}
	.st11{fill:#444444;}
	.st12{fill:#2A3548;}
	.st13{fill:#D7DEED;}
</style>
<rect x="0.2" y="0.2" class="st0" width="400" height="140"/>
<radialGradient id="SVGID_1_" cx="329.9141" cy="28.1922" r="179.7334" gradientUnits="userSpaceOnUse">
	<stop  offset="0" style="stop-color:#666666"/>
	<stop  offset="0.1527" style="stop-color:#666666"/>
	<stop  offset="0.2459" style="stop-color:#666666;stop-opacity:0.9276"/>
	<stop  offset="0.7964" style="stop-color:#666666;stop-opacity:0.5"/>
	<stop  offset="1" style="stop-color:#666666;stop-opacity:0"/>
</radialGradient>
<polygon class="st1" points="264.3,140.2 356,12.7 65.2,92.8 65.2,140.2 "/>
<g>
	<polygon class="st2" points="356,12.7 313.3,23.1 334.7,45 	"/>
	<polygon class="st3" points="320.4,42 320.4,30.4 356,12.7 324.6,34.7 	"/>
	<polygon class="st4" points="328,38.1 320.4,42 324.6,34.7 	"/>
</g>
<g>
	<g>
		<g>
			<path class="st5" d="M62.3,122.8c0.3-5.6,4.2-10.4,9.7-11.8l16.1-4.3c4.6-1.2,7.7-5.4,7.7-10.1v-13h40.6v13.3
				c0,4.7,3.2,8.9,7.7,10.1l14.9,4c5.4,1.5,9.3,6.2,9.7,11.8l1.1,17.4H61.2L62.3,122.8z"/>
			<path class="st6" d="M115.5,105.9c-7.9,0-15-3-20.5-5.3c0.5-1.2,0.8-2.6,0.8-4v-13h40.6v13.3c0,1.1,0.2,2.3,0.5,3.3
				C131.3,102.7,123.8,105.9,115.5,105.9z"/>
			<path class="st7" d="M87.4,76.1L84.2,32l31.3-13.6L146.9,32l-3.2,44.1c-0.6,4.8-3.2,9.2-7.3,11.8l-10.1,6.5
				c-6.5,4.2-15,4.2-21.5,0l-10.1-6.5C90.6,85.2,88,80.9,87.4,76.1z"/>
			<path class="st8" d="M85.8,49.3l0.8-11.4c-0.2-1.6-0.3-2.9-0.3-4l17.2-7.5c3.8-0.2,8.9-0.4,12-0.5v-4.6L146.9,32l-3.2,44.1
				c-0.6,4.8-3.2,9.2-7.3,11.8l-10.1,6.5c-3.3,2.1-7,3.2-10.8,3.2V42.3c-2.7-0.7-7.3,1.8-15.2,0.4c-3-0.5-5.9,0.8-6.7,3.7
				c-1.4,5.2-3.3,10.9-6.9,13.9l-0.3,0.2l-1.1-10C85.6,50,85.8,49.5,85.8,49.3z"/>
			<path class="st9" d="M95.2,18l6.6-2.8c8.8-3.8,18.7-3.8,27.5,0l0,0v0l6.6,2.8c3.3,1.4,6.1,3.6,8.3,6.3c0.2,0.2,0.4,0.4,0.5,0.7
				c1.7,2.3,3,4.9,3.7,7.7c0.6,2.5,0.8,5.2,0.5,7.9l-1.7,15c-0.1,0.8-0.3,1.6-0.5,2.4c-3.7-3-5.8-18.1-7-23.5
				c-17.1-5.9-32,12-47.1,1c0,0-1.8,17.3-8.2,22.5c-0.2-0.8-0.4-1.6-0.5-2.4l-1.7-15C81.1,30.9,86.4,21.8,95.2,18z"/>
		</g>
	</g>
	<circle class="st7" cx="126.9" cy="60.6" r="6.7"/>
	<path class="st10" d="M85,135.3v-7.4c0-0.2,0.1-0.4,0.2-0.6l1.3-2c0.5-0.7,1.5-0.7,1.9,0l1.3,2c0.1,0.2,0.2,0.4,0.2,0.6v7.4H85z"/>
	<path class="st10" d="M92.4,135.3v-9.5c0-0.2,0.1-0.4,0.2-0.6l1.3-2c0.5-0.7,1.5-0.7,1.9,0l1.3,2c0.1,0.2,0.2,0.4,0.2,0.6v9.5H92.4
		z"/>
	<path class="st11" d="M108.3,140.2h-5v-2.6H83.5v2.6h-5v-5.1c0-1.4,1.1-2.5,2.5-2.5h24.8c1.4,0,2.5,1.1,2.5,2.5V140.2z"/>
	<path d="M145.8,56.1h-9.4c-1.7-3.4-5.2-5.8-9.3-5.8s-7.6,2.4-9.3,5.8h-4.6c-1.7-3.4-5.2-5.8-9.3-5.8s-7.6,2.4-9.3,5.8h-9.4v5h8.4
		c0.2,5.5,4.8,10,10.3,10c5.6,0,10.1-4.4,10.3-10h2.5c0.2,5.5,4.8,10,10.3,10c5.6,0,10.1-4.4,10.3-10h8.3V56.1z M104,66
		c-3,0-5.4-2.4-5.4-5.4s2.4-5.4,5.4-5.4c3,0,5.4,2.4,5.4,5.4S106.9,66,104,66z M127.1,66c-3,0-5.4-2.4-5.4-5.4s2.4-5.4,5.4-5.4
		c3,0,5.4,2.4,5.4,5.4S130.1,66,127.1,66z"/>
</g>
<g>
	<path class="st12" d="M173.9,84.9c0.7,0,1.4,0.1,2.1,0.4c0.6,0.3,1.2,0.6,1.7,1.1c0.5,0.5,0.9,1,1.1,1.7c0.3,0.6,0.4,1.3,0.4,2.1
		c0,0.7-0.1,1.4-0.4,2.1c-0.3,0.6-0.6,1.2-1.1,1.7c-0.5,0.5-1,0.9-1.7,1.1c-0.6,0.3-1.3,0.4-2.1,0.4c-0.7,0-1.4-0.1-2.1-0.4
		c-0.6-0.3-1.2-0.6-1.7-1.1c-0.5-0.5-0.9-1-1.1-1.7c-0.3-0.6-0.4-1.3-0.4-2.1c0-0.7,0.1-1.4,0.4-2.1c0.3-0.6,0.6-1.2,1.1-1.7
		c0.5-0.5,1-0.9,1.7-1.1C172.4,85,173.1,84.9,173.9,84.9z M229,16.6c3.3,0,6.3,0.6,9.2,1.9c2.9,1.2,5.4,2.9,7.5,5.1s3.8,4.6,5.1,7.5
		c1.2,2.9,1.9,5.9,1.9,9.2c0,3.3-0.6,6.3-1.9,9.2c-1.2,2.9-2.9,5.4-5.1,7.5s-4.6,3.8-7.5,5.1c-2.9,1.2-5.9,1.9-9.2,1.9H228
		c-2.1,1.7-4.4,3-6.9,3.9c-2.5,0.9-5.2,1.4-7.9,1.4c-2,0-3.9-0.2-5.8-0.7c-1.9-0.5-3.6-1.2-5.3-2.1c-1.7-0.9-3.2-2-4.7-3.3
		c-1.4-1.3-2.7-2.8-3.8-4.4h-1.4c-2.5,0-4.9-0.5-7.2-1.4c-2.2-1-4.2-2.3-5.8-3.9c-1.7-1.7-3-3.6-3.9-5.8c-1-2.2-1.4-4.6-1.4-7.2
		s0.5-4.9,1.4-7.2c1-2.2,2.3-4.2,3.9-5.8c1.7-1.7,3.6-3,5.8-3.9c2.2-1,4.6-1.4,7.2-1.4h2.8c0.9-1.6,2.1-3.1,3.4-4.4
		c1.3-1.3,2.8-2.4,4.3-3.3c1.6-0.9,3.2-1.6,5-2.1c1.8-0.5,3.6-0.7,5.5-0.7c2.6,0,5.1,0.5,7.4,1.4c2.4,0.9,4.5,2.2,6.4,3.9H229z
		 M187,69.1c1.1,0,2.1,0.2,3.1,0.6c1,0.4,1.8,1,2.5,1.7c0.7,0.7,1.3,1.5,1.7,2.5c0.4,1,0.6,2,0.6,3.1c0,1.1-0.2,2.1-0.6,3.1
		c-0.4,1-1,1.8-1.7,2.5c-0.7,0.7-1.5,1.3-2.5,1.7c-1,0.4-2,0.6-3.1,0.6c-1.1,0-2.1-0.2-3.1-0.6c-1-0.4-1.8-1-2.5-1.7
		c-0.7-0.7-1.3-1.5-1.7-2.5c-0.4-1-0.6-2-0.6-3.1c0-1.1,0.2-2.1,0.6-3.1c0.4-1,1-1.8,1.7-2.5c0.7-0.7,1.5-1.3,2.5-1.7
		C184.9,69.3,185.9,69.1,187,69.1z"/>
</g>
<g>
	<path class="st13" d="M220.2,31.5c0.2,0.4,0.3,0.9,0.3,1.3c0,0.4-0.1,0.8-0.2,1.2c-0.2,0.4-0.4,0.7-0.6,0.9
		c-0.3,0.3-0.6,0.5-0.9,0.6c-0.4,0.2-0.7,0.2-1.2,0.2c-0.4,0-0.8-0.1-1.2-0.2c-0.4-0.2-0.7-0.4-0.9-0.6c-0.3-0.3-0.5-0.6-0.6-0.9
		c-0.2-0.4-0.2-0.7-0.2-1.2c0-0.1,0-0.1,0-0.2s0-0.1,0-0.2l-2.9-1.5c-0.3,0.3-0.6,0.5-0.9,0.6c-0.4,0.1-0.7,0.2-1.1,0.2
		c-0.4,0-0.9-0.1-1.3-0.3l-4,4c0.2,0.4,0.3,0.9,0.3,1.3c0,0.4-0.1,0.8-0.2,1.2c-0.2,0.4-0.4,0.7-0.6,0.9c-0.3,0.3-0.6,0.5-0.9,0.6
		c-0.4,0.2-0.7,0.2-1.2,0.2c-0.4,0-0.8-0.1-1.2-0.2c-0.4-0.2-0.7-0.4-0.9-0.6c-0.3-0.3-0.5-0.6-0.6-0.9c-0.2-0.4-0.2-0.7-0.2-1.2
		c0-0.4,0.1-0.8,0.2-1.2c0.2-0.4,0.4-0.7,0.6-0.9c0.3-0.3,0.6-0.5,0.9-0.6c0.4-0.2,0.7-0.2,1.2-0.2c0.4,0,0.9,0.1,1.3,0.3l4-4
		c-0.2-0.4-0.3-0.9-0.3-1.3c0-0.4,0.1-0.8,0.2-1.2c0.2-0.4,0.4-0.7,0.6-0.9c0.3-0.3,0.6-0.5,0.9-0.6c0.4-0.2,0.7-0.2,1.2-0.2
		c0.4,0,0.8,0.1,1.2,0.2c0.4,0.2,0.7,0.4,0.9,0.6c0.3,0.3,0.5,0.6,0.6,0.9c0.2,0.4,0.2,0.7,0.2,1.2c0,0.1,0,0.1,0,0.2s0,0.1,0,0.2
		l2.9,1.5c0.3-0.3,0.6-0.5,0.9-0.6c0.4-0.1,0.7-0.2,1.1-0.2c0.4,0,0.9,0.1,1.3,0.3l4-4c-0.2-0.4-0.3-0.9-0.3-1.3
		c0-0.4,0.1-0.8,0.2-1.2c0.2-0.4,0.4-0.7,0.6-0.9c0.3-0.3,0.6-0.5,0.9-0.6c0.4-0.2,0.7-0.2,1.2-0.2c0.4,0,0.8,0.1,1.2,0.2
		c0.4,0.2,0.7,0.4,0.9,0.6c0.3,0.3,0.5,0.6,0.6,0.9c0.2,0.4,0.2,0.7,0.2,1.2c0,0.4-0.1,0.8-0.2,1.2c-0.2,0.4-0.4,0.7-0.6,0.9
		c-0.3,0.3-0.6,0.5-0.9,0.6c-0.4,0.2-0.7,0.2-1.2,0.2c-0.4,0-0.9-0.1-1.3-0.3L220.2,31.5z M198.7,43.7h5.9v9.9h-5.9V43.7z
		 M201.7,37.8c0.3,0,0.5-0.1,0.7-0.3c0.2-0.2,0.3-0.4,0.3-0.7c0-0.3-0.1-0.5-0.3-0.7c-0.2-0.2-0.4-0.3-0.7-0.3
		c-0.3,0-0.5,0.1-0.7,0.3c-0.2,0.2-0.3,0.4-0.3,0.7c0,0.3,0.1,0.5,0.3,0.7C201.2,37.7,201.4,37.8,201.7,37.8z M200.7,51.6h2v-5.9h-2
		V51.6z M206.7,35.8h5.9v17.8h-5.9V35.8z M209.6,29.9c0.3,0,0.5-0.1,0.7-0.3c0.2-0.2,0.3-0.4,0.3-0.7c0-0.3-0.1-0.5-0.3-0.7
		c-0.2-0.2-0.4-0.3-0.7-0.3c-0.3,0-0.5,0.1-0.7,0.3c-0.2,0.2-0.3,0.4-0.3,0.7c0,0.3,0.1,0.5,0.3,0.7
		C209.1,29.8,209.4,29.9,209.6,29.9z M208.6,51.6h2V37.8h-2V51.6z M214.6,39.8h5.9v13.9h-5.9V39.8z M217.6,33.8
		c0.3,0,0.5-0.1,0.7-0.3c0.2-0.2,0.3-0.4,0.3-0.7c0-0.3-0.1-0.5-0.3-0.7c-0.2-0.2-0.4-0.3-0.7-0.3c-0.3,0-0.5,0.1-0.7,0.3
		c-0.2,0.2-0.3,0.4-0.3,0.7c0,0.3,0.1,0.5,0.3,0.7C217.1,33.7,217.3,33.8,217.6,33.8z M216.6,51.6h2v-9.9h-2V51.6z M222.5,31.8h5.9
		v21.8h-5.9V31.8z M225.5,23.9c-0.3,0-0.5,0.1-0.7,0.3c-0.2,0.2-0.3,0.4-0.3,0.7c0,0.3,0.1,0.5,0.3,0.7c0.2,0.2,0.4,0.3,0.7,0.3
		c0.3,0,0.5-0.1,0.7-0.3c0.2-0.2,0.3-0.4,0.3-0.7c0-0.3-0.1-0.5-0.3-0.7C226,24,225.8,23.9,225.5,23.9z M224.5,51.6h2V33.8h-2V51.6z
		"/>
</g>
</svg>
