<?xml version="1.0" encoding="utf-8"?>
<!-- Generator: Adobe Illustrator 21.1.0, SVG Export Plug-In . SVG Version: 6.00 Build 0)  -->
<svg version="1.1" id="Layer_1" xmlns="http://www.w3.org/2000/svg" xmlns:xlink="http://www.w3.org/1999/xlink" x="0px" y="0px"
	 viewBox="0 0 400 140" style="enable-background:new 0 0 400 140;" xml:space="preserve">
<style type="text/css">
	.st0{fill:#334154;}
	.st1{opacity:0.25;fill:url(#SVGID_1_);}
	.st2{fill:#F25C00;}
	.st3{fill:#CC4602;}
	.st4{fill:#B23B06;}
	.st5{fill:#E4EAF6;}
	.st6{fill:#E6AF78;}
	.st7{fill:#D7DEED;}
	.st8{fill:#CA976A;}
	.st9{fill:#263846;}
	.st10{fill:#F0C087;}
	.st11{fill:#2A3548;}
</style>
<rect x="0.2" y="0.2" class="st0" width="400" height="140"/>
<radialGradient id="SVGID_1_" cx="329.9141" cy="28.1922" r="179.7334" gradientUnits="userSpaceOnUse">
	<stop  offset="0" style="stop-color:#666666"/>
	<stop  offset="0.1527" style="stop-color:#666666"/>
	<stop  offset="0.2459" style="stop-color:#666666;stop-opacity:0.9276"/>
	<stop  offset="0.7964" style="stop-color:#666666;stop-opacity:0.5"/>
	<stop  offset="1" style="stop-color:#666666;stop-opacity:0"/>
</radialGradient>
<polygon class="st1" points="264.3,140.2 356,12.7 65.2,92.8 65.2,140.2 "/>
<g>
	<polygon class="st2" points="356,12.7 313.3,23.1 334.7,45 	"/>
	<polygon class="st3" points="320.4,42 320.4,30.4 356,12.7 324.6,34.7 	"/>
	<polygon class="st4" points="328,38.1 320.4,42 324.6,34.7 	"/>
</g>
<g>
	<path class="st3" d="M149,44.9l5.7,47.6c0.4,3.3-1.6,6.4-4.8,7.4l-34.5,10.1c-1.2,0.4-2.6,0.4-3.8,0L77.1,99.8
		c-3.2-0.9-5.2-4.1-4.8-7.4L78,44.9c1.1-7.7,5.3-14.6,11.5-19.2l7.1-5.2c10-7.3,23.6-7.3,33.7,0l7.1,5.2
		C143.7,30.3,147.9,37.2,149,44.9z"/>
	<path class="st5" d="M99.1,102.6v-14h28.8v13.9c0,2.6,1.5,4.9,3.8,5.9l20.5,9c4.3,1.9,7,6.2,6.7,10.9l-0.8,11.9H69.1l-0.8-11.9
		c-0.2-4.7,2.4-9,6.7-10.9l20.2-8.9C97.6,107.4,99.1,105.1,99.1,102.6z"/>
	<path class="st6" d="M131.7,108.3l4.7,2.1c-0.6,1.5-1.6,2.8-2.9,3.9l-10.3,8.7c-5.6,4.7-13.8,4.7-19.4,0l-10.3-8.7
		c-1.3-1.1-2.2-2.4-2.8-3.8l4.6-2c2.3-1,3.8-3.3,3.8-5.9v-14h28.8v13.9C127.8,105,129.3,107.3,131.7,108.3z"/>
	<path class="st7" d="M95.2,108.5l-4.6,2c0.6,1.4,1.6,2.8,2.8,3.8l10.3,8.7c5.6,4.7,13.8,4.7,19.4,0l10.3-8.7
		c1.3-1.1,2.2-2.4,2.9-3.9l-4.7-2.1l9.1,4c-0.7,1.8-1.9,3.4-3.4,4.6l-12.4,10.4c-6.7,5.6-16.5,5.6-23.2,0L89.5,117
		c-1.5-1.3-2.6-2.8-3.4-4.5L95.2,108.5z"/>
	<path class="st8" d="M127.8,88.5v13.9c0,2.6,1.5,4.9,3.8,5.9l2.2,1c-12.4-0.6-24.1-2.7-34.8-6.1c0-0.2,0-0.4,0-0.7v-14H127.8z"/>
	<g>
		<g>
			<path class="st9" d="M148.6,65.1v10.7c0,2.3-1.8,4.1-4.1,4.1h-4.8V61h4.8C146.8,61,148.6,62.8,148.6,65.1z"/>
			<path class="st9" d="M83.6,61h4.8v19h-4.8c-2.3,0-4.1-1.8-4.1-4.1V65.1C79.4,62.8,81.3,61,83.6,61z"/>
		</g>
	</g>
	<path class="st10" d="M85.6,79.3l-2.3-19.5c-0.6-5.6,2.1-10.9,7-13.7l16.4-9.2c4.2-2.4,9.4-2.4,13.6,0l16.4,9.2
		c4.9,2.7,7.6,8.1,7,13.7l-2.3,19.5c-0.5,4.1-2.8,7.8-6.2,10.1L121,98.5c-4.6,3-10.5,3-15.1,0l-14.1-9.1
		C88.3,87.2,86,83.5,85.6,79.3z"/>
	<path d="M86.1,78.8c3.2,4.7,10.2,8.2,22.5,8.4l-0.1,3.3c-16.6-0.3-22.8-6.8-25-10.6l0,0c-0.1-0.5,0.1-1,0.5-1.2l0.4-0.3
		C85,78.1,85.7,78.3,86.1,78.8z"/>
	<path class="st6" d="M97,53.9c-4.3,5.5-9.6,7.8-13.3,8.8l-0.3-2.9c-0.3-3,0.3-6,1.7-8.5l1-1.5c1.1-1.5,2.5-2.7,4.2-3.7l16.4-9.2
		c2.1-1.2,4.5-1.8,6.8-1.8c2.4,0,4.7,0.6,6.8,1.8l16.4,9.2c4.9,2.7,7.6,8.1,7,13.7l-2.3,19.5c-0.5,4.1-2.8,7.8-6.2,10.1L121,98.6
		c-2.3,1.5-4.9,2.2-7.6,2.2v-41c0-1.7-1.1-3.2-2.8-3.8c-3.5-1.1-6.5-2.3-8.9-3.3C100.1,52,98.1,52.4,97,53.9z"/>
	<path class="st3" d="M98,47c0,0,29.7,15.5,49.2,7.3l-5.3-13.4l-26.5-14.2L98,30.3L82.2,46.6L79.7,60C79.7,60,91.9,59.9,98,47z"/>
	<path class="st9" d="M114,83.4c3.8,0,6.9,2.2,6.9,5.1s-3,5.1-6.9,5.1c-3.8,0-6.9-2.2-6.9-5.1S110.2,83.4,114,83.4z"/>
</g>
<g>
	<path class="st11" d="M249.6,22.9v34.8c0,4.4-3.6,7.9-7.9,7.9h-40.5L185,81.9V65.7h-1.3c-4.4,0-7.9-3.6-7.9-7.9V22.9
		c0-4.4,3.6-7.9,7.9-7.9h57.9C246,15,249.6,18.6,249.6,22.9z"/>
</g>
<g>
	<path class="st7" d="M225,35.8c0.6-0.1,1.2-0.1,1.7,0.1c0.6,0.1,1.1,0.4,1.5,0.7c0.5,0.3,0.8,0.7,1.1,1.2c0.3,0.5,0.5,1,0.6,1.6
		c0.1,0.6,0.1,1.2-0.1,1.7c-0.1,0.6-0.4,1.1-0.7,1.5c-0.3,0.5-0.7,0.8-1.2,1.1c-0.5,0.3-1,0.5-1.6,0.6c-0.6,0.1-1.1,0.1-1.6,0
		c-0.5-0.1-1-0.3-1.4-0.6c-0.4-0.3-0.8-0.6-1.1-1.1c-0.3-0.4-0.6-0.9-0.7-1.5l-2.6,0c-0.1,0.8-0.4,1.6-0.9,2.3
		c-0.4,0.7-1,1.3-1.6,1.8l1.4,2.7c0.1,0,0.1,0,0.1,0c0,0,0.1,0,0.2,0c0.6-0.1,1.2-0.1,1.7,0.1c0.6,0.1,1.1,0.4,1.5,0.7
		c0.5,0.3,0.8,0.7,1.1,1.2c0.3,0.5,0.5,1,0.6,1.6c0.1,0.6,0.1,1.2-0.1,1.7c-0.1,0.6-0.4,1.1-0.7,1.5c-0.3,0.5-0.7,0.8-1.2,1.1
		c-0.5,0.3-1,0.5-1.6,0.6c-0.6,0.1-1.2,0.1-1.7-0.1c-0.6-0.1-1.1-0.4-1.5-0.7c-0.5-0.3-0.8-0.7-1.1-1.2c-0.3-0.5-0.5-1-0.6-1.6
		c-0.1-0.7-0.1-1.4,0.2-2.1s0.6-1.3,1.2-1.8l-1.4-2.7c-0.2,0-0.3,0.1-0.5,0.1c-0.2,0-0.3,0.1-0.5,0.1c-1,0.2-2,0.1-3-0.2
		c-1-0.3-1.9-0.8-2.6-1.6l-3.2,2.3c0.1,0.3,0.2,0.6,0.2,0.9c0.1,0.6,0.1,1.2-0.1,1.7c-0.1,0.6-0.4,1.1-0.7,1.5
		c-0.3,0.5-0.7,0.8-1.2,1.1c-0.5,0.3-1,0.5-1.6,0.6c-0.6,0.1-1.2,0.1-1.7-0.1c-0.6-0.1-1.1-0.4-1.5-0.7c-0.5-0.3-0.8-0.7-1.1-1.2
		c-0.3-0.5-0.5-1-0.6-1.6c-0.1-0.6-0.1-1.2,0.1-1.7c0.1-0.6,0.4-1.1,0.7-1.5c0.3-0.5,0.7-0.8,1.2-1.1c0.5-0.3,1-0.5,1.6-0.6
		c0.6-0.1,1.2-0.1,1.8,0.1c0.6,0.2,1.1,0.4,1.6,0.8l3.2-2.3c-0.3-0.6-0.5-1.2-0.6-1.8c-0.1-0.8-0.1-1.6,0-2.4
		c0.2-0.8,0.5-1.5,0.9-2.2l-2.4-2.2c-0.5,0.3-1.1,0.6-1.7,0.7c-0.6,0.1-1.2,0.1-1.7-0.1c-0.6-0.1-1.1-0.4-1.5-0.7
		c-0.5-0.3-0.8-0.7-1.1-1.2c-0.3-0.5-0.5-1-0.6-1.6c-0.1-0.6-0.1-1.2,0.1-1.7c0.1-0.6,0.4-1.1,0.7-1.5c0.3-0.5,0.7-0.8,1.2-1.1
		c0.5-0.3,1-0.5,1.6-0.6c0.6-0.1,1.2-0.1,1.7,0.1c0.6,0.1,1.1,0.4,1.5,0.7c0.5,0.3,0.8,0.7,1.1,1.2c0.3,0.5,0.5,1,0.6,1.6
		c0.2,0.9,0,1.8-0.4,2.7l2.4,2.2c0.4-0.3,0.9-0.6,1.4-0.8c0.5-0.2,1-0.4,1.6-0.5c0.9-0.2,1.8-0.1,2.7,0.1l2.1-4.6
		c-0.4-0.3-0.7-0.7-1-1.2c-0.3-0.5-0.4-1-0.5-1.5c-0.1-0.6-0.1-1.2,0.1-1.7c0.1-0.6,0.4-1.1,0.7-1.5c0.3-0.5,0.7-0.8,1.2-1.1
		c0.5-0.3,1-0.5,1.6-0.6c0.6-0.1,1.2-0.1,1.7,0.1c0.6,0.1,1.1,0.4,1.5,0.7c0.5,0.3,0.8,0.7,1.1,1.2c0.3,0.5,0.5,1,0.6,1.6
		c0.1,0.6,0.1,1.2-0.1,1.7c-0.1,0.6-0.4,1.1-0.7,1.5c-0.3,0.5-0.7,0.8-1.2,1.1c-0.5,0.3-1,0.5-1.6,0.6c-0.5,0.1-0.9,0.1-1.4,0
		l-2.1,4.6c0.7,0.5,1.4,1.1,1.8,1.9c0.5,0.7,0.8,1.6,0.9,2.4l2.6,0c0.1-0.4,0.3-0.8,0.5-1.2c0.2-0.4,0.5-0.7,0.8-1
		c0.3-0.3,0.6-0.5,1-0.7C224.1,36,224.5,35.9,225,35.8z M201.1,50.7c0.3,0,0.6-0.2,0.8-0.3c0.2-0.2,0.4-0.3,0.6-0.6
		c0.2-0.2,0.3-0.5,0.3-0.8c0.1-0.3,0.1-0.6,0-0.9c0-0.3-0.2-0.6-0.3-0.8c-0.2-0.2-0.3-0.4-0.6-0.6c-0.2-0.2-0.5-0.3-0.8-0.3
		c-0.3-0.1-0.6-0.1-0.9,0s-0.6,0.2-0.8,0.3c-0.2,0.2-0.4,0.3-0.6,0.6c-0.2,0.2-0.3,0.5-0.3,0.8c-0.1,0.3-0.1,0.6,0,0.9
		s0.2,0.6,0.3,0.8c0.2,0.2,0.3,0.4,0.6,0.6c0.2,0.2,0.5,0.3,0.8,0.3C200.5,50.8,200.8,50.8,201.1,50.7z M200,31.2
		c0,0.3,0.2,0.6,0.3,0.8c0.2,0.2,0.3,0.4,0.6,0.6c0.2,0.2,0.5,0.3,0.8,0.3c0.3,0.1,0.6,0.1,0.9,0s0.6-0.2,0.8-0.3
		c0.2-0.2,0.4-0.3,0.6-0.6c0.2-0.2,0.3-0.5,0.3-0.8c0.1-0.3,0.1-0.6,0-0.9c0-0.3-0.2-0.6-0.3-0.8c-0.2-0.2-0.3-0.4-0.6-0.6
		c-0.2-0.2-0.5-0.3-0.8-0.3c-0.3-0.1-0.6-0.1-0.9,0c-0.3,0-0.6,0.2-0.8,0.3c-0.2,0.2-0.4,0.3-0.6,0.6c-0.2,0.2-0.3,0.5-0.3,0.8
		C200,30.6,200,30.9,200,31.2z M213.2,44.4c0.6-0.1,1.1-0.3,1.6-0.6c0.5-0.3,0.9-0.7,1.2-1.1c0.3-0.5,0.6-1,0.7-1.5
		c0.1-0.6,0.2-1.1,0.1-1.7c-0.1-0.6-0.3-1.1-0.6-1.6c-0.3-0.5-0.7-0.9-1.1-1.2c-0.5-0.3-1-0.6-1.5-0.7c-0.6-0.1-1.1-0.2-1.7-0.1
		c-0.6,0.1-1.1,0.3-1.6,0.6c-0.5,0.3-0.9,0.7-1.2,1.1c-0.3,0.5-0.6,1-0.7,1.5c-0.1,0.6-0.2,1.1-0.1,1.7c0.1,0.6,0.3,1.1,0.6,1.6
		c0.3,0.5,0.7,0.9,1.1,1.2c0.5,0.3,1,0.6,1.5,0.7C212,44.4,212.6,44.5,213.2,44.4z M221,51.8c0-0.3-0.2-0.6-0.3-0.8
		c-0.2-0.2-0.3-0.4-0.6-0.6c-0.2-0.2-0.5-0.3-0.8-0.3c-0.3-0.1-0.6-0.1-0.9,0c-0.3,0-0.6,0.2-0.8,0.3c-0.2,0.2-0.4,0.3-0.6,0.6
		c-0.2,0.2-0.3,0.5-0.3,0.8c-0.1,0.3-0.1,0.6,0,0.9c0,0.3,0.2,0.6,0.3,0.8c0.2,0.2,0.3,0.4,0.6,0.6c0.2,0.2,0.5,0.3,0.8,0.3
		c0.3,0.1,0.6,0.1,0.9,0s0.6-0.2,0.8-0.3c0.2-0.2,0.4-0.3,0.6-0.6c0.2-0.2,0.3-0.5,0.3-0.8C221,52.4,221.1,52.2,221,51.8z
		 M218.6,23.7c-0.3,0-0.6,0.2-0.8,0.3c-0.2,0.2-0.4,0.3-0.6,0.6c-0.2,0.2-0.3,0.5-0.3,0.8c-0.1,0.3-0.1,0.6,0,0.9
		c0,0.3,0.2,0.6,0.3,0.8c0.2,0.2,0.3,0.4,0.6,0.6c0.2,0.2,0.5,0.3,0.8,0.3c0.3,0.1,0.6,0.1,0.9,0c0.3,0,0.6-0.2,0.8-0.3
		c0.2-0.2,0.4-0.3,0.6-0.6c0.2-0.2,0.3-0.5,0.3-0.8c0.1-0.3,0.1-0.6,0-0.9c0-0.3-0.2-0.6-0.3-0.8c-0.2-0.2-0.3-0.4-0.6-0.6
		c-0.2-0.2-0.5-0.3-0.8-0.3C219.1,23.7,218.9,23.7,218.6,23.7z M226,42.2c0.3,0,0.6-0.2,0.8-0.3c0.2-0.2,0.4-0.3,0.6-0.6
		c0.2-0.2,0.3-0.5,0.3-0.8c0.1-0.3,0.1-0.6,0-0.9c0-0.3-0.2-0.6-0.3-0.8c-0.2-0.2-0.3-0.4-0.6-0.6c-0.2-0.2-0.5-0.3-0.8-0.3
		c-0.3-0.1-0.6-0.1-0.9,0c-0.3,0-0.6,0.2-0.8,0.3c-0.2,0.2-0.4,0.3-0.6,0.6c-0.2,0.2-0.3,0.5-0.3,0.8c-0.1,0.3-0.1,0.6,0,0.9
		c0,0.3,0.2,0.6,0.3,0.8c0.2,0.2,0.3,0.4,0.6,0.6c0.2,0.2,0.5,0.3,0.8,0.3C225.4,42.3,225.7,42.3,226,42.2z"/>
</g>
</svg>
