<?xml version="1.0" encoding="utf-8"?>
<!-- Generator: Adobe Illustrator 21.1.0, SVG Export Plug-In . SVG Version: 6.00 Build 0)  -->
<svg version="1.1" id="Layer_1" xmlns="http://www.w3.org/2000/svg" xmlns:xlink="http://www.w3.org/1999/xlink" x="0px" y="0px"
	 viewBox="0 0 388 140" style="enable-background:new 0 0 388 140;" xml:space="preserve">
<style type="text/css">
	.st0{fill:#334154;}
	.st1{opacity:0.25;fill:url(#SVGID_1_);enable-background:new    ;}
	.st2{fill:#F25C00;}
	.st3{fill:#CC4602;}
	.st4{fill:#B23B06;}
	.st5{fill:#E4EAF6;}
	.st6{fill:#E6AF78;}
	.st7{fill:#D7DEED;}
	.st8{fill:#CA976A;}
	.st9{fill:#263846;}
	.st10{fill:#F0C087;}
	.st11{fill:#2A3548;}
</style>
<rect class="st0" width="388" height="140"/>
<radialGradient id="SVGID_1_" cx="323.7141" cy="-356.1922" r="179.7334" gradientTransform="matrix(1 0 0 -1 0 -328)" gradientUnits="userSpaceOnUse">
	<stop  offset="0" style="stop-color:#666666"/>
	<stop  offset="0.1527" style="stop-color:#666666"/>
	<stop  offset="0.2459" style="stop-color:#666666;stop-opacity:0.9276"/>
	<stop  offset="0.7964" style="stop-color:#666666;stop-opacity:0.5"/>
	<stop  offset="1" style="stop-color:#666666;stop-opacity:0"/>
</radialGradient>
<polygon class="st1" points="258.1,140.2 349.8,12.7 59,92.8 59,140.2 "/>
<g>
	<polygon class="st2" points="349.8,12.7 307.1,23.1 328.5,45 	"/>
	<polygon class="st3" points="314.2,42 314.2,30.4 349.8,12.7 318.4,34.7 	"/>
	<polygon class="st4" points="321.8,38.1 314.2,42 318.4,34.7 	"/>
</g>
<g>
	<path class="st3" d="M142,44.1l5.7,47.8c0.4,3.3-1.6,6.4-4.8,7.4l-34.3,10.2c-1.2,0.4-2.6,0.4-3.8,0L70.6,99.2
		c-3.2-0.9-5.2-4.1-4.8-7.4l5.7-47.7c1.1-7.8,5.3-14.7,11.4-19.3l7.1-5.2c9.9-7.3,23.4-7.3,33.5,0l7.1,5.2
		C136.8,29.5,141,36.3,142,44.1z"/>
	<path class="st5" d="M92.6,102.2V88.1h28.6v14c0,2.6,1.5,4.9,3.8,5.9l20.4,9.1c4.3,1.9,7,6.2,6.7,11l-0.8,12H62.8L62,127.9
		c-0.2-4.7,2.4-9.1,6.7-11l20.1-9C91.1,106.9,92.6,104.6,92.6,102.2z"/>
	<path class="st6" d="M124.9,107.8l4.7,2.1c-0.6,1.5-1.6,2.8-2.9,3.9l-10.2,8.8c-5.6,4.7-13.7,4.7-19.3,0L87,113.8
		c-1.3-1.1-2.2-2.4-2.8-3.8l4.6-2c2.3-1,3.8-3.3,3.8-5.9v-14h28.6v14C121,104.5,122.5,106.8,124.9,107.8z"/>
	<path class="st7" d="M88.7,108l-4.6,2c0.6,1.4,1.6,2.8,2.8,3.8l10.2,8.8c5.6,4.7,13.7,4.7,19.3,0l10.2-8.8c1.3-1.1,2.2-2.4,2.9-3.9
		l-4.7-2.1l9,4c-0.7,1.8-1.9,3.4-3.4,4.6L118,126.9c-6.7,5.6-16.4,5.6-23,0l-12-10.4c-1.5-1.3-2.6-2.8-3.4-4.5L88.7,108z"/>
	<path class="st8" d="M121,88v14c0,2.6,1.5,4.9,3.8,5.9l2.2,1c-12.3-0.6-23.9-2.7-34.6-6.1c0-0.2,0-0.4,0-0.7V88
		C92.5,88,121,88,121,88z"/>
	<g>
		<g>
			<path class="st9" d="M141.6,64.4v10.8c0,2.3-1.8,4.1-4.1,4.1h-4.8v-19h4.8C139.9,60.3,141.6,62.1,141.6,64.4z"/>
			<path class="st9" d="M77.2,60.3H82v19.1h-4.8c-2.3,0-4.1-1.8-4.1-4.1V64.4C73,62.1,74.9,60.3,77.2,60.3z"/>
		</g>
	</g>
	<path class="st10" d="M79.2,78.7l-2.3-19.6c-0.6-5.6,2.1-11,7-13.8l16.3-9.3c4.2-2.4,9.3-2.4,13.5,0l16.3,9.3
		c4.9,2.7,7.5,8.2,7,13.8l-2.3,19.6c-0.5,4.1-2.8,7.9-6.2,10.2L114.3,98c-4.6,3-10.4,3-15,0l-14-9.2C81.9,86.7,79.6,82.9,79.2,78.7z
		"/>
	<path d="M79.7,78.2c3.2,4.7,10.1,8.3,22.3,8.5l-0.1,3.3c-16.5-0.3-22.6-6.8-24.8-10.7l0,0c-0.1-0.5,0.1-1,0.5-1.2l0.4-0.3
		C78.6,77.5,79.3,77.7,79.7,78.2z"/>
	<path class="st6" d="M90.5,53.1C86.2,58.7,81,61,77.3,62L77,59.1c-0.3-3,0.3-6,1.7-8.6l1-1.5c1.1-1.5,2.5-2.7,4.2-3.7l16.3-9.3
		c2.1-1.2,4.5-1.8,6.8-1.8c2.4,0,4.7,0.6,6.8,1.8l16.3,9.3c4.9,2.7,7.5,8.2,7,13.8l-2.3,19.6c-0.5,4.1-2.8,7.9-6.2,10.2l-14.3,9.3
		c-2.3,1.5-4.9,2.2-7.5,2.2V59.1c0-1.7-1.1-3.2-2.8-3.8c-3.5-1.1-6.5-2.3-8.8-3.3C93.6,51.2,91.6,51.6,90.5,53.1z"/>
	<path class="st3" d="M91.5,46.2c0,0,29.5,15.6,48.8,7.3L135,40l-26.3-14.3l-17.3,3.6L75.8,45.8l-2.5,13.5
		C73.3,59.3,85.4,59.2,91.5,46.2z"/>
	<path class="st9" d="M107.3,82.8c3.8,0,6.9,2.2,6.9,5.1s-3,5.1-6.9,5.1c-3.8,0-6.9-2.2-6.9-5.1C100.5,85,103.5,82.8,107.3,82.8z"/>
</g>
<g>
	<path class="st11" d="M243.4,22.9v34.8c0,4.4-3.6,7.9-7.9,7.9H195l-16.2,16.3V65.7h-1.3c-4.4,0-7.9-3.6-7.9-7.9V22.9
		c0-4.4,3.6-7.9,7.9-7.9h57.9C239.8,15,243.4,18.6,243.4,22.9z"/>
</g>
<g>
	<path class="st7" d="M218.8,35.8c0.6-0.1,1.2-0.1,1.7,0.1c0.6,0.1,1.1,0.4,1.5,0.7c0.5,0.3,0.8,0.7,1.1,1.2s0.5,1,0.6,1.6
		s0.1,1.2-0.1,1.7c-0.1,0.6-0.4,1.1-0.7,1.5c-0.3,0.5-0.7,0.8-1.2,1.1s-1,0.5-1.6,0.6s-1.1,0.1-1.6,0s-1-0.3-1.4-0.6
		s-0.8-0.6-1.1-1.1c-0.3-0.4-0.6-0.9-0.7-1.5h-2.6c-0.1,0.8-0.4,1.6-0.9,2.3c-0.4,0.7-1,1.3-1.6,1.8l1.4,2.7c0.1,0,0.1,0,0.1,0
		s0.1,0,0.2,0c0.6-0.1,1.2-0.1,1.7,0.1c0.6,0.1,1.1,0.4,1.5,0.7c0.5,0.3,0.8,0.7,1.1,1.2s0.5,1,0.6,1.6s0.1,1.2-0.1,1.7
		c-0.1,0.6-0.4,1.1-0.7,1.5c-0.3,0.5-0.7,0.8-1.2,1.1s-1,0.5-1.6,0.6s-1.2,0.1-1.7-0.1c-0.6-0.1-1.1-0.4-1.5-0.7
		c-0.5-0.3-0.8-0.7-1.1-1.2s-0.5-1-0.6-1.6c-0.1-0.7-0.1-1.4,0.2-2.1s0.6-1.3,1.2-1.8l-1.4-2.7c-0.2,0-0.3,0.1-0.5,0.1
		s-0.3,0.1-0.5,0.1c-1,0.2-2,0.1-3-0.2s-1.9-0.8-2.6-1.6l-3.2,2.3c0.1,0.3,0.2,0.6,0.2,0.9c0.1,0.6,0.1,1.2-0.1,1.7
		c-0.1,0.6-0.4,1.1-0.7,1.5c-0.3,0.5-0.7,0.8-1.2,1.1s-1,0.5-1.6,0.6s-1.2,0.1-1.7-0.1c-0.6-0.1-1.1-0.4-1.5-0.7
		c-0.5-0.3-0.8-0.7-1.1-1.2s-0.5-1-0.6-1.6s-0.1-1.2,0.1-1.7c0.1-0.6,0.4-1.1,0.7-1.5c0.3-0.5,0.7-0.8,1.2-1.1s1-0.5,1.6-0.6
		s1.2-0.1,1.8,0.1c0.6,0.2,1.1,0.4,1.6,0.8l3.2-2.3c-0.3-0.6-0.5-1.2-0.6-1.8c-0.1-0.8-0.1-1.6,0-2.4c0.2-0.8,0.5-1.5,0.9-2.2
		l-2.4-2.2c-0.5,0.3-1.1,0.6-1.7,0.7c-0.6,0.1-1.2,0.1-1.7-0.1c-0.6-0.1-1.1-0.4-1.5-0.7c-0.5-0.3-0.8-0.7-1.1-1.2s-0.5-1-0.6-1.6
		s-0.1-1.2,0.1-1.7c0.1-0.6,0.4-1.1,0.7-1.5c0.3-0.5,0.7-0.8,1.2-1.1c0.5-0.3,1-0.5,1.6-0.6s1.2-0.1,1.7,0.1
		c0.6,0.1,1.1,0.4,1.5,0.7c0.5,0.3,0.8,0.7,1.1,1.2s0.5,1,0.6,1.6c0.2,0.9,0,1.8-0.4,2.7l2.4,2.2c0.4-0.3,0.9-0.6,1.4-0.8
		s1-0.4,1.6-0.5c0.9-0.2,1.8-0.1,2.7,0.1l2.1-4.6c-0.4-0.3-0.7-0.7-1-1.2s-0.4-1-0.5-1.5c-0.1-0.6-0.1-1.2,0.1-1.7
		c0.1-0.6,0.4-1.1,0.7-1.5c0.3-0.5,0.7-0.8,1.2-1.1c0.5-0.3,1-0.5,1.6-0.6s1.2-0.1,1.7,0.1c0.6,0.1,1.1,0.4,1.5,0.7
		c0.5,0.3,0.8,0.7,1.1,1.2s0.5,1,0.6,1.6s0.1,1.2-0.1,1.7c-0.1,0.6-0.4,1.1-0.7,1.5c-0.3,0.5-0.7,0.8-1.2,1.1
		c-0.5,0.3-1,0.5-1.6,0.6c-0.5,0.1-0.9,0.1-1.4,0l-2.1,4.6c0.7,0.5,1.4,1.1,1.8,1.9c0.5,0.7,0.8,1.6,0.9,2.4h2.6
		c0.1-0.4,0.3-0.8,0.5-1.2s0.5-0.7,0.8-1s0.6-0.5,1-0.7C217.9,36,218.3,35.9,218.8,35.8z M194.9,50.7c0.3,0,0.6-0.2,0.8-0.3
		c0.2-0.2,0.4-0.3,0.6-0.6c0.2-0.2,0.3-0.5,0.3-0.8c0.1-0.3,0.1-0.6,0-0.9c0-0.3-0.2-0.6-0.3-0.8c-0.2-0.2-0.3-0.4-0.6-0.6
		c-0.2-0.2-0.5-0.3-0.8-0.3c-0.3-0.1-0.6-0.1-0.9,0s-0.6,0.2-0.8,0.3c-0.2,0.2-0.4,0.3-0.6,0.6c-0.2,0.2-0.3,0.5-0.3,0.8
		c-0.1,0.3-0.1,0.6,0,0.9s0.2,0.6,0.3,0.8c0.2,0.2,0.3,0.4,0.6,0.6c0.2,0.2,0.5,0.3,0.8,0.3C194.3,50.8,194.6,50.8,194.9,50.7z
		 M193.8,31.2c0,0.3,0.2,0.6,0.3,0.8c0.2,0.2,0.3,0.4,0.6,0.6c0.2,0.2,0.5,0.3,0.8,0.3c0.3,0.1,0.6,0.1,0.9,0s0.6-0.2,0.8-0.3
		c0.2-0.2,0.4-0.3,0.6-0.6c0.2-0.2,0.3-0.5,0.3-0.8c0.1-0.3,0.1-0.6,0-0.9c0-0.3-0.2-0.6-0.3-0.8c-0.2-0.2-0.3-0.4-0.6-0.6
		c-0.2-0.2-0.5-0.3-0.8-0.3c-0.3-0.1-0.6-0.1-0.9,0c-0.3,0-0.6,0.2-0.8,0.3c-0.2,0.2-0.4,0.3-0.6,0.6c-0.2,0.2-0.3,0.5-0.3,0.8
		C193.8,30.6,193.8,30.9,193.8,31.2z M207,44.4c0.6-0.1,1.1-0.3,1.6-0.6s0.9-0.7,1.2-1.1c0.3-0.5,0.6-1,0.7-1.5
		c0.1-0.6,0.2-1.1,0.1-1.7c-0.1-0.6-0.3-1.1-0.6-1.6s-0.7-0.9-1.1-1.2c-0.5-0.3-1-0.6-1.5-0.7c-0.6-0.1-1.1-0.2-1.7-0.1
		c-0.6,0.1-1.1,0.3-1.6,0.6s-0.9,0.7-1.2,1.1c-0.3,0.5-0.6,1-0.7,1.5c-0.1,0.6-0.2,1.1-0.1,1.7c0.1,0.6,0.3,1.1,0.6,1.6
		s0.7,0.9,1.1,1.2c0.5,0.3,1,0.6,1.5,0.7C205.8,44.4,206.4,44.5,207,44.4z M214.8,51.8c0-0.3-0.2-0.6-0.3-0.8
		c-0.2-0.2-0.3-0.4-0.6-0.6c-0.2-0.2-0.5-0.3-0.8-0.3c-0.3-0.1-0.6-0.1-0.9,0c-0.3,0-0.6,0.2-0.8,0.3c-0.2,0.2-0.4,0.3-0.6,0.6
		c-0.2,0.2-0.3,0.5-0.3,0.8c-0.1,0.3-0.1,0.6,0,0.9c0,0.3,0.2,0.6,0.3,0.8c0.2,0.2,0.3,0.4,0.6,0.6c0.2,0.2,0.5,0.3,0.8,0.3
		c0.3,0.1,0.6,0.1,0.9,0s0.6-0.2,0.8-0.3c0.2-0.2,0.4-0.3,0.6-0.6c0.2-0.2,0.3-0.5,0.3-0.8S214.9,52.2,214.8,51.8z M212.4,23.7
		c-0.3,0-0.6,0.2-0.8,0.3c-0.2,0.2-0.4,0.3-0.6,0.6c-0.2,0.2-0.3,0.5-0.3,0.8c-0.1,0.3-0.1,0.6,0,0.9c0,0.3,0.2,0.6,0.3,0.8
		c0.2,0.2,0.3,0.4,0.6,0.6c0.2,0.2,0.5,0.3,0.8,0.3c0.3,0.1,0.6,0.1,0.9,0c0.3,0,0.6-0.2,0.8-0.3c0.2-0.2,0.4-0.3,0.6-0.6
		c0.2-0.2,0.3-0.5,0.3-0.8c0.1-0.3,0.1-0.6,0-0.9c0-0.3-0.2-0.6-0.3-0.8c-0.2-0.2-0.3-0.4-0.6-0.6c-0.2-0.2-0.5-0.3-0.8-0.3
		C212.9,23.7,212.7,23.7,212.4,23.7z M219.8,42.2c0.3,0,0.6-0.2,0.8-0.3c0.2-0.2,0.4-0.3,0.6-0.6c0.2-0.2,0.3-0.5,0.3-0.8
		c0.1-0.3,0.1-0.6,0-0.9c0-0.3-0.2-0.6-0.3-0.8c-0.2-0.2-0.3-0.4-0.6-0.6c-0.2-0.2-0.5-0.3-0.8-0.3c-0.3-0.1-0.6-0.1-0.9,0
		c-0.3,0-0.6,0.2-0.8,0.3c-0.2,0.2-0.4,0.3-0.6,0.6c-0.2,0.2-0.3,0.5-0.3,0.8c-0.1,0.3-0.1,0.6,0,0.9c0,0.3,0.2,0.6,0.3,0.8
		c0.2,0.2,0.3,0.4,0.6,0.6c0.2,0.2,0.5,0.3,0.8,0.3C219.2,42.3,219.5,42.3,219.8,42.2z"/>
</g>
</svg>
