<?xml version="1.0" encoding="utf-8"?>
<!-- Generator: Adobe Illustrator 21.1.0, SVG Export Plug-In . SVG Version: 6.00 Build 0)  -->
<svg version="1.1" id="Layer_1" xmlns="http://www.w3.org/2000/svg" xmlns:xlink="http://www.w3.org/1999/xlink" x="0px" y="0px"
	 viewBox="0 0 160 160" style="enable-background:new 0 0 160 160;" xml:space="preserve">
<style type="text/css">
	.st0{fill:#2A3548;}
	.st1{fill:#F25C00;}
	.st2{fill:#1E2937;}
	.st3{fill:#CC4602;}
	.st4{fill:#E4EAF6;}
</style>
<g>
	<polygon class="st0" points="145.4,114.1 145.4,42.2 79.9,4.4 14.4,42.2 14.4,114.1 79.9,152 	"/>
	<polygon class="st1" points="14.4,109.5 79.9,147.3 145.4,109.5 145.4,117.8 79.9,155.7 14.4,117.8 	"/>
	<polygon class="st2" points="145.4,114.1 145.4,42.2 79.9,4.4 79.9,152 	"/>
	<polygon class="st3" points="145.4,117.8 145.4,109.5 79.9,147.3 79.9,155.7 	"/>
</g>
<g>
	<path class="st2" d="M113,80c-0.7-1.5-1.5-2.8-2.7-3.9c-1.1-1.1-2.4-2-4-2.6c-1.5-0.6-3.1-1-4.9-1c-0.3-2.3-1-4.5-2-6.5
		c-1.1-2-2.4-3.8-4-5.2c-1.6-1.5-3.5-2.6-5.6-3.5c-2.1-0.8-4.4-1.3-6.8-1.3c-1.6,0-3.1,0.2-4.6,0.6c-1.5,0.4-2.9,0.9-4.3,1.7
		c-1.3,0.7-2.6,1.6-3.7,2.7c-1.1,1.1-2.1,2.3-3,3.6c-1-0.2-2-0.3-3-0.3c-2.3,0-4.4,0.4-6.4,1.3c-2,0.9-3.8,2-5.3,3.5
		c-1.5,1.5-2.7,3.2-3.5,5.3c-0.9,2-1.3,4.2-1.3,6.4c0,2.3,0.4,4.4,1.3,6.4c0.9,2,2,3.8,3.5,5.3c1.5,1.5,3.2,2.7,5.3,3.5
		c2,0.9,4.2,1.3,6.4,1.3h0.9c-0.1-0.7-0.1-1.4-0.1-2.1c0-0.7,0-1.4,0.1-2h-0.9c-1.7,0-3.3-0.3-4.8-1c-1.5-0.6-2.8-1.5-3.9-2.7
		c-1.1-1.1-2-2.4-2.7-3.9c-0.6-1.5-1-3.1-1-4.8c0-1.7,0.3-3.3,1-4.8c0.6-1.5,1.5-2.8,2.7-3.9c1.1-1.1,2.4-2,3.9-2.7
		c1.5-0.6,3.1-1,4.8-1c1.8,0,3.5,0.4,5.1,1.1c0.5-1.4,1.3-2.7,2.2-3.9c0.9-1.1,1.9-2.1,3.1-2.9c1.2-0.8,2.5-1.5,3.9-1.9
		c1.4-0.5,2.8-0.7,4.4-0.7c2,0,3.9,0.4,5.6,1.1c1.8,0.8,3.3,1.8,4.6,3.1c1.3,1.3,2.3,2.8,3.1,4.6c0.8,1.8,1.1,3.6,1.1,5.6v2.1h4.1
		c1.1,0,2.2,0.2,3.2,0.6c1,0.4,1.9,1,2.6,1.8c0.8,0.8,1.3,1.6,1.8,2.6c0.4,1,0.6,2.1,0.6,3.2c0,1.1-0.2,2.2-0.6,3.2
		c-0.4,1-1,1.9-1.8,2.6c-0.8,0.8-1.6,1.3-2.6,1.8c-1,0.4-2.1,0.6-3.2,0.6h-2.6c0.1,0.7,0.1,1.4,0.1,2c0,0.7,0,1.4-0.1,2.1h2.6
		c1.7,0,3.3-0.3,4.8-1c1.5-0.6,2.8-1.5,3.9-2.7c1.1-1.1,2-2.4,2.7-3.9c0.6-1.5,1-3.1,1-4.8C114,83.1,113.7,81.5,113,80z"/>
</g>
<g>
	<g>
		<path class="st4" d="M111,77c-0.7-1.5-1.5-2.8-2.7-3.9c-1.1-1.1-2.4-2-4-2.6c-1.5-0.6-3.1-1-4.9-1c-0.3-2.3-1-4.5-2-6.5
			c-1.1-2-2.4-3.8-4-5.2c-1.6-1.5-3.5-2.6-5.6-3.5c-2.1-0.8-4.4-1.3-6.8-1.3c-1.6,0-3.1,0.2-4.6,0.6c-1.5,0.4-2.9,0.9-4.3,1.7
			c-1.3,0.7-2.6,1.6-3.7,2.7c-1.1,1.1-2.1,2.3-3,3.6c-1-0.2-2-0.3-3-0.3c-2.3,0-4.4,0.4-6.4,1.3c-2,0.9-3.8,2-5.3,3.5
			c-1.5,1.5-2.7,3.2-3.5,5.3c-0.9,2-1.3,4.2-1.3,6.4c0,2.3,0.4,4.4,1.3,6.4c0.9,2,2,3.8,3.5,5.3c1.5,1.5,3.2,2.7,5.3,3.5
			c2,0.9,4.2,1.3,6.4,1.3h0.9c-0.1-0.7-0.1-1.4-0.1-2.1c0-0.7,0-1.4,0.1-2h-0.9c-1.7,0-3.3-0.3-4.8-1c-1.5-0.6-2.8-1.5-3.9-2.7
			c-1.1-1.1-2-2.4-2.7-3.9c-0.6-1.5-1-3.1-1-4.8c0-1.7,0.3-3.3,1-4.8c0.6-1.5,1.5-2.8,2.7-3.9c1.1-1.1,2.4-2,3.9-2.7
			c1.5-0.6,3.1-1,4.8-1c1.8,0,3.5,0.4,5.1,1.1c0.5-1.4,1.3-2.7,2.2-3.9c0.9-1.1,1.9-2.1,3.1-2.9c1.2-0.8,2.5-1.5,3.9-1.9
			c1.4-0.5,2.8-0.7,4.4-0.7c2,0,3.9,0.4,5.6,1.1c1.8,0.8,3.3,1.8,4.6,3.1c1.3,1.3,2.3,2.8,3.1,4.6c0.8,1.8,1.1,3.6,1.1,5.6v2.1h4.1
			c1.1,0,2.2,0.2,3.2,0.6c1,0.4,1.9,1,2.6,1.8c0.8,0.8,1.3,1.6,1.8,2.6c0.4,1,0.6,2.1,0.6,3.2c0,1.1-0.2,2.2-0.6,3.2
			c-0.4,1-1,1.9-1.8,2.6c-0.8,0.8-1.6,1.3-2.6,1.8c-1,0.4-2.1,0.6-3.2,0.6h-2.6c0.1,0.7,0.1,1.4,0.1,2c0,0.7,0,1.4-0.1,2.1h2.6
			c1.7,0,3.3-0.3,4.8-1c1.5-0.6,2.8-1.5,3.9-2.7c1.1-1.1,2-2.4,2.7-3.9c0.6-1.5,1-3.1,1-4.8C112,80.1,111.7,78.5,111,77z"/>
	</g>
	<g>
		<path class="st1" d="M91.5,92.4c0-0.1,0-0.2,0-0.3c0-0.1,0-0.2,0-0.3c0-0.1,0-0.2,0-0.3l3.9-2.4L93,83.5l-4.4,1
			c-0.2-0.3-0.5-0.5-0.7-0.7l1-4.4L83.2,77l-2.4,3.9c-0.1,0-0.2,0-0.3,0c-0.1,0-0.2,0-0.3,0c-0.1,0-0.2,0-0.3,0c-0.1,0-0.2,0-0.3,0
			L77.3,77l-5.7,2.4l1,4.4c-0.3,0.2-0.5,0.5-0.7,0.7l-4.4-1l-2.4,5.7l3.9,2.4c0,0.1,0,0.2,0,0.3c0,0.1,0,0.2,0,0.3
			c0,0.1,0,0.2,0,0.3c0,0.1,0,0.2,0,0.3l-3.9,2.4l2.4,5.7l4.4-1c0.2,0.3,0.5,0.5,0.7,0.7l-1,4.4l5.7,2.4l2.4-3.9c0.1,0,0.2,0,0.3,0
			c0.1,0,0.2,0,0.3,0c0.1,0,0.2,0,0.3,0c0.1,0,0.2,0,0.3,0l2.4,3.9l5.7-2.4l-1-4.4c0.3-0.2,0.5-0.5,0.7-0.7l4.4,1l2.4-5.7l-3.9-2.4
			C91.5,92.6,91.5,92.5,91.5,92.4z M80.2,99.9c-4.3,0-7.7-3.5-7.7-7.7s3.5-7.7,7.7-7.7s7.7,3.5,7.7,7.7S84.5,99.9,80.2,99.9z"/>
	</g>
</g>
</svg>
