<svg xmlns="http://www.w3.org/2000/svg" viewBox="0 0 18 18">
  <defs>
    <style>
      .cls-1 {
        fill: #444;
      }

      .cls-2 {
        fill: #fff;
      }
    </style>
  </defs>
  <title>delegate</title>
  <g id="ICONS">
    <path class="cls-1" d="M15.75,4H13V1.61A1.74,1.74,0,0,0,11.25,0H6.75A1.74,1.74,0,0,0,5,1.61V4H2.25A2.13,2.13,0,0,0,0,6.11v9.64A2.25,2.25,0,0,0,2.25,18h13.5A2.25,2.25,0,0,0,18,15.75V6.11A2.13,2.13,0,0,0,15.75,4ZM11,4H7V2h4Z"/>
    <path class="cls-2" d="M15.75,16H2.25A.25.25,0,0,1,2,15.75V6.11S2.09,6,2.25,6h13.5a.36.36,0,0,1,.25.07v9.68A.25.25,0,0,1,15.75,16Z"/>
    <rect class="cls-1" x="12" y="7" width="2" height="8"/>
    <rect class="cls-1" x="4" y="7" width="2" height="8"/>
  </g>
</svg>
