<?xml version="1.0" encoding="utf-8"?>
<!-- Generator: Adobe Illustrator 21.1.0, SVG Export Plug-In . SVG Version: 6.00 Build 0)  -->
<svg version="1.1" id="Layer_1" xmlns="http://www.w3.org/2000/svg" xmlns:xlink="http://www.w3.org/1999/xlink" x="0px" y="0px"
	 viewBox="0 0 160 160" style="enable-background:new 0 0 160 160;" xml:space="preserve">
<style type="text/css">
	.st0{fill:#2A3548;}
	.st1{fill:#F25C00;}
	.st2{fill:#1E2937;}
	.st3{fill:#CC4602;}
	.st4{fill:#D7DEED;}
</style>
<g>
	<polygon class="st0" points="145.4,116 145.4,42.2 79.9,4.4 14.4,42.2 14.4,116 79.9,153.8 	"/>
	<polygon class="st1" points="14.4,109.5 79.9,147.3 145.4,109.5 145.4,117.8 79.9,155.7 14.4,117.8 	"/>
	<polygon class="st2" points="145.4,116 145.4,42.2 79.9,4.4 79.9,153.8 	"/>
	<polygon class="st3" points="145.4,117.8 145.4,109.5 79.9,147.3 79.9,155.7 	"/>
</g>
<g>
	<g>
		<path class="st2" d="M108.8,96.4v9.8H98.3v-5.3H93v-5.3h-5.3v-4.3c-1,0.5-2.1,0.9-3.2,1.2c-1.1,0.3-2.2,0.4-3.4,0.4
			c-1.3,0-2.6-0.2-3.9-0.5c-1.2-0.3-2.4-0.8-3.5-1.5c-1.1-0.6-2-1.4-2.9-2.3c-0.9-0.9-1.6-1.9-2.3-2.9c-0.6-1.1-1.1-2.2-1.5-3.5
			c-0.3-1.2-0.5-2.5-0.5-3.9c0-1.3,0.2-2.6,0.5-3.9s0.8-2.4,1.5-3.5c0.6-1.1,1.4-2,2.3-2.9s1.9-1.6,2.9-2.3c1.1-0.6,2.2-1.1,3.5-1.5
			c1.2-0.3,2.5-0.5,3.9-0.5c1.3,0,2.6,0.2,3.9,0.5c1.2,0.3,2.4,0.8,3.5,1.5c1.1,0.6,2,1.4,2.9,2.3c0.9,0.9,1.6,1.9,2.3,2.9
			s1.1,2.2,1.5,3.5c0.3,1.2,0.5,2.5,0.5,3.9c0,0.7-0.1,1.4-0.2,2.1c-0.1,0.7-0.3,1.4-0.5,2L108.8,96.4z M106.2,97.5L92,83.3
			c0.3-0.8,0.5-1.6,0.7-2.4c0.2-0.8,0.3-1.6,0.3-2.4c0-1.6-0.3-3.2-0.9-4.6c-0.6-1.4-1.5-2.7-2.5-3.8s-2.3-1.9-3.8-2.5
			c-1.4-0.6-3-0.9-4.6-0.9c-1.6,0-3.2,0.3-4.6,0.9c-1.4,0.6-2.7,1.5-3.8,2.5c-1.1,1.1-1.9,2.3-2.5,3.8c-0.6,1.4-0.9,3-0.9,4.6
			c0,1.6,0.3,3.2,0.9,4.6c0.6,1.4,1.5,2.7,2.5,3.8c1.1,1.1,2.3,1.9,3.8,2.5c1.4,0.6,3,0.9,4.6,0.9c1.3,0,2.6-0.2,3.9-0.7
			c1.3-0.5,2.4-1.1,3.5-2h1.8V93h5.3v5.3h5.3v5.3h5.3V97.5z"/>
	</g>
	<g>
		<path class="st2" d="M87.5,105.1c-2.2,1.5-4.4,2.9-6.5,4.2c-2.2-1.3-4.4-2.7-6.5-4.2c-2.2-1.5-4.2-3.2-6.2-5
			c-2-1.8-3.8-3.7-5.5-5.7c-1.7-2-3.2-4.2-4.4-6.4c-1.2-2.3-2.2-4.6-2.9-7.1c-0.7-2.5-1.1-5.1-1.1-7.8V60.6c3.2-0.2,6.2-0.7,9.2-1.5
			c2.9-0.9,5.7-2.2,8.4-3.9c1.5-0.9,2.9-1.6,4.4-2.1c1.4-0.4,3-0.7,4.8-0.7s3.3,0.2,4.8,0.7c1.4,0.4,2.9,1.1,4.4,2.1
			c2.7,1.7,5.5,3,8.4,3.9c2.9,0.9,6,1.4,9.2,1.5V73c0,2.7-0.4,5.3-1.1,7.8c-0.6,2.2-1.4,4.2-2.5,6.2l3.1,3.1c1.4-2.5,2.5-5.2,3.3-8
			c0.8-2.9,1.2-5.9,1.2-9.2V56.5c-1.8,0-3.5-0.1-5.2-0.2c-1.7-0.1-3.3-0.4-4.9-0.7c-1.6-0.3-3.1-0.8-4.7-1.4
			c-1.5-0.6-3.1-1.4-4.6-2.4c-0.9-0.6-1.8-1.1-2.7-1.5c-0.9-0.4-1.8-0.8-2.7-1.1c-0.9-0.3-1.9-0.5-2.9-0.6c-1-0.1-2-0.2-3.1-0.2
			c-2.2,0-4.2,0.3-6,0.9c-1.8,0.6-3.6,1.4-5.5,2.6c-1.5,1-3.1,1.8-4.6,2.4c-1.5,0.6-3.1,1.1-4.7,1.4c-1.6,0.3-3.2,0.6-4.9,0.7
			c-1.7,0.1-3.4,0.2-5.2,0.2V73c0,3.2,0.4,6.3,1.2,9.2c0.8,2.9,1.9,5.6,3.4,8.1c1.4,2.5,3.1,4.9,5.1,7.2c2,2.2,4.1,4.3,6.4,6.3
			c2.3,2,4.7,3.8,7.2,5.5c2.5,1.7,5,3.3,7.6,4.8c2.5-1.5,5.1-3.1,7.6-4.8c1.8-1.2,4.8-3.6,6.5-4.9l-4.2,0l0.1-1.8
			C89.8,103.4,88.7,104.2,87.5,105.1z"/>
	</g>
</g>
<g>
	<g>
		<path class="st4" d="M109.8,96.4v10.5H98.5v-5.6h-5.6v-5.6h-5.6V91c-1.1,0.6-2.2,1-3.4,1.3c-1.2,0.3-2.4,0.4-3.6,0.4
			c-1.4,0-2.8-0.2-4.1-0.6c-1.3-0.4-2.6-0.9-3.7-1.6c-1.1-0.7-2.2-1.5-3.1-2.4c-0.9-0.9-1.8-2-2.4-3.1s-1.2-2.4-1.6-3.7
			c-0.4-1.3-0.6-2.7-0.6-4.1c0-1.4,0.2-2.8,0.6-4.1c0.4-1.3,0.9-2.6,1.6-3.7s1.5-2.2,2.4-3.1c0.9-0.9,2-1.8,3.1-2.4
			c1.1-0.7,2.4-1.2,3.7-1.6c1.3-0.4,2.7-0.6,4.1-0.6s2.8,0.2,4.1,0.6c1.3,0.4,2.6,0.9,3.7,1.6c1.1,0.7,2.2,1.5,3.1,2.4
			c0.9,0.9,1.8,2,2.4,3.1c0.7,1.1,1.2,2.4,1.6,3.7c0.4,1.3,0.6,2.7,0.6,4.1c0,0.7-0.1,1.5-0.2,2.2c-0.1,0.7-0.3,1.5-0.5,2.2
			L109.8,96.4z M107,97.6L91.7,82.4c0.3-0.8,0.6-1.7,0.8-2.5c0.2-0.8,0.3-1.7,0.3-2.6c0-1.7-0.3-3.4-1-4.9s-1.6-2.9-2.7-4
			s-2.5-2.1-4-2.7c-1.5-0.7-3.2-1-4.9-1s-3.4,0.3-4.9,1c-1.5,0.7-2.9,1.6-4,2.7s-2.1,2.5-2.7,4c-0.7,1.5-1,3.2-1,4.9
			c0,1.7,0.3,3.4,1,4.9c0.7,1.5,1.6,2.9,2.7,4c1.1,1.1,2.5,2.1,4,2.7c1.5,0.7,3.2,1,4.9,1c1.4,0,2.8-0.2,4.2-0.7
			c1.4-0.5,2.6-1.2,3.7-2.1h2v5.6h5.6v5.6h5.6v5.6h5.6V97.6z M75.9,70.2c0.4,0,0.8,0.1,1.1,0.2c0.3,0.1,0.6,0.3,0.9,0.6
			c0.3,0.3,0.5,0.6,0.6,0.9c0.1,0.3,0.2,0.7,0.2,1.1c0,0.4-0.1,0.8-0.2,1.1c-0.1,0.3-0.3,0.6-0.6,0.9c-0.3,0.3-0.6,0.5-0.9,0.6
			c-0.3,0.1-0.7,0.2-1.1,0.2c-0.4,0-0.8-0.1-1.1-0.2c-0.3-0.1-0.6-0.3-0.9-0.6c-0.3-0.3-0.5-0.6-0.6-0.9c-0.1-0.3-0.2-0.7-0.2-1.1
			c0-0.4,0.1-0.8,0.2-1.1c0.1-0.3,0.3-0.6,0.6-0.9c0.3-0.3,0.6-0.5,0.9-0.6C75.2,70.3,75.5,70.2,75.9,70.2z"/>
	</g>
	<g>
		<path class="st1" d="M87,105.7c-2.3,1.6-4.7,3.1-7,4.5c-2.3-1.4-4.7-2.8-7-4.5c-2.3-1.6-4.5-3.4-6.7-5.3c-2.1-1.9-4.1-4-5.9-6.1
			c-1.8-2.2-3.4-4.5-4.7-6.9c-1.3-2.4-2.4-5-3.1-7.6c-0.8-2.7-1.2-5.5-1.2-8.4V58.1c3.4-0.2,6.7-0.7,9.8-1.7c3.1-0.9,6.1-2.3,9-4.2
			c1.6-1,3.1-1.7,4.7-2.2c1.5-0.5,3.2-0.7,5.1-0.7s3.6,0.2,5.1,0.7c1.5,0.5,3.1,1.2,4.7,2.2c2.9,1.9,5.9,3.2,9,4.2
			c3.1,0.9,6.4,1.5,9.8,1.7v13.3c0,2.9-0.4,5.7-1.2,8.4c-0.7,2.3-1.5,4.5-2.6,6.6l3.3,3.3c1.5-2.7,2.7-5.5,3.5-8.6
			c0.9-3.1,1.3-6.3,1.3-9.8V53.8c-1.9,0-3.7-0.1-5.5-0.2c-1.8-0.1-3.5-0.4-5.2-0.8c-1.7-0.4-3.4-0.9-5-1.5c-1.7-0.7-3.3-1.5-4.9-2.6
			c-1-0.6-2-1.2-2.9-1.6c-1-0.5-1.9-0.9-2.9-1.2c-1-0.3-2-0.5-3.1-0.7C82.3,45.1,81.2,45,80,45c-2.3,0-4.5,0.3-6.4,0.9
			c-1.9,0.6-3.9,1.5-5.8,2.8c-1.7,1.1-3.3,1.9-4.9,2.6c-1.7,0.7-3.3,1.2-5,1.5c-1.7,0.4-3.4,0.6-5.2,0.8c-1.8,0.1-3.6,0.2-5.5,0.2
			v17.6c0,3.5,0.4,6.7,1.3,9.8c0.9,3.1,2.1,6,3.6,8.7c1.5,2.7,3.4,5.3,5.4,7.7c2.1,2.4,4.4,4.6,6.8,6.7c2.4,2.1,5,4.1,7.7,5.9
			c2.7,1.8,5.4,3.5,8.1,5.1c2.7-1.6,5.4-3.3,8.1-5.1c1.9-1.3,5.1-3.8,6.9-5.3l-4.5,0l0.1-1.9C89.5,103.9,88.2,104.9,87,105.7z"/>
	</g>
</g>
</svg>
