<?xml version="1.0" encoding="utf-8"?>
<!-- Generator: Adobe Illustrator 21.1.0, SVG Export Plug-In . SVG Version: 6.00 Build 0)  -->
<svg version="1.1" id="Layer_1" xmlns="http://www.w3.org/2000/svg" xmlns:xlink="http://www.w3.org/1999/xlink" x="0px" y="0px"
	 viewBox="0 0 160 160" style="enable-background:new 0 0 160 160;" xml:space="preserve">
<style type="text/css">
	.st0{fill:#2A3548;}
	.st1{fill:#F25C00;}
	.st2{fill:#1E2937;}
	.st3{fill:#CC4602;}
	.st4{fill:#D7DEED;}
</style>
<g>
	<polygon class="st0" points="145.4,114.1 145.4,42.2 79.9,4.4 14.4,42.2 14.4,114.1 79.9,152 	"/>
	<polygon class="st1" points="14.4,109.5 79.9,147.3 145.4,109.5 145.4,117.8 79.9,155.7 14.4,117.8 	"/>
	<polygon class="st2" points="145.4,114.1 145.4,42.2 79.9,4.4 79.9,152 	"/>
	<polygon class="st3" points="145.4,117.8 145.4,109.5 79.9,147.3 79.9,155.7 	"/>
</g>
<path class="st1" d="M99.3,60.8l-15.1-3.5l-4.5-14.9l10.6-11.4l15.1,3.5l4.5,14.9L99.3,60.8z M87.9,53.3l9.8,2.2l6.9-7.4l-3-9.6
	l-9.8-2.2l-6.9,7.4L87.9,53.3z"/>
<g>
	<path class="st2" d="M120.3,76.3c-0.7-2.4-1.8-4.5-3-6.6c-1.3-2-2.9-3.9-4.8-5.5c-1.8-1.5-3.6-2.8-5.8-3.8l-2.9,4.4
		c1.8,0.9,3.5,1.9,4.9,3.1c1.5,1.3,2.9,2.7,3.9,4.4c1.1,1.6,1.9,3.4,2.5,5.4c0.6,1.9,0.9,3.9,0.9,6c0,2-0.3,4-0.8,5.7
		c-0.5,1.8-1.3,3.5-2.1,5.1c-0.9,1.6-2,3.1-3.3,4.5s-2.6,2.7-4.3,4v9c0,0.8-0.3,1.3-0.8,1.9c-0.5,0.5-1.1,0.8-1.9,0.8h-5.1
		c-0.8,0-1.3-0.1-1.6-0.5c-0.4-0.4-0.6-0.7-0.8-1.3c-0.1-0.5-0.3-1.1-0.1-1.8c0-0.6,0-1.1,0-1.6H74.9v2.6c0,0.8-0.2,1.3-0.8,1.9
		c-0.5,0.5-1.1,0.8-1.9,0.8h-5.1c-0.8,0-1.3-0.2-1.9-0.8c-0.6-0.5-0.8-1.1-0.8-1.9v-7.7c-2.1,0-4.1-0.4-6-1.3
		c-1.9-0.8-3.5-1.9-4.9-3.4c-1.4-1.4-2.5-3-3.4-4.9c-0.7-1.9-1.3-3.9-1.3-6h-2.6c-0.8,0-1.3-0.3-1.9-0.8s-0.8-1.1-0.8-1.9v-5.1
		c0-0.6,0.1-1.1,0.4-1.5c0.3-0.4,0.5-0.6,0.9-0.8s0.8-0.3,1.3-0.3c0.5,0,0.9,0,1.4,0c1.3-1.9,2.5-3.6,3.6-5c1.3-1.5,2.4-2.9,3.8-4.3
		c1.3-1.3,2.6-2.5,4.3-3.8c1.5-1.3,3.2-2.4,5.1-3.6v-8.8l9.8,4.9H80l-0.3-5.1h-4.4l-16.1-8v14.4c-2.9,1.9-5.5,4.1-7.9,6.5
		c-2.4,2.4-4.5,5-6.5,7.9c-0.9,0.1-1.8,0.5-2.5,1c-0.7,0.5-1.4,1-2,1.8c-0.6,0.6-1,1.5-1.3,2.3c-0.3,0.9-0.5,1.8-0.5,2.6v5.1
		c0,0.9,0.1,1.8,0.4,2.5s0.6,1.5,1.1,2.3c0.5,0.6,1.1,1.3,1.8,1.8c0.7,0.5,1.5,0.9,2.4,1c0.4,1.9,1.1,3.6,2,5.3
		c0.9,1.6,2,3.1,3.4,4.4c1.3,1.4,2.8,2.5,4.4,3.4c1.6,1,3.4,1.6,5.1,2.1v3.2c0,1.1,0.3,2.1,0.6,3c0.4,1,1,1.8,1.6,2.5
		c0.7,0.7,1.5,1.3,2.5,1.6c1,0.4,2,0.6,3,0.6H72c0.8,0,1.6-0.1,2.4-0.4s1.5-0.6,2.1-1c0.6-0.4,1.3-1,1.8-1.6s0.9-1.4,1.1-2.1h11.3
		c0.3,0.8,0.6,1.5,1.1,2.1c0.5,0.6,1,1.1,1.8,1.6c0.7,0.5,1.4,0.8,2.1,1c0.8,0.2,1.5,0.4,2.4,0.4h5.1c1.1,0,2.1-0.2,3-0.6
		c1-0.4,1.8-1,2.5-1.6c0.8-0.8,1.3-1.5,1.6-2.5c0.4-1,0.6-2,0.6-3v-6.6c1.6-1.4,3-2.9,4.3-4.5c1.3-1.6,2.4-3.4,3.3-5.2
		c0.9-1.9,1.6-3.8,2-5.8c0.4-2,0.7-4.1,0.7-6.3C121.3,81.1,120.9,78.7,120.3,76.3z"/>
</g>
<g>
	<path class="st4" d="M120.3,71.3c-0.7-2.4-1.8-4.5-3-6.6c-1.3-2-2.9-3.9-4.8-5.5c-1.8-1.5-3.6-2.7-5.8-3.8l-2.9,4.4
		c1.8,0.9,3.5,1.9,4.9,3.1c1.5,1.3,2.9,2.7,3.9,4.4c1.1,1.6,1.9,3.4,2.5,5.4c0.6,1.9,0.9,3.9,0.9,6c0,2-0.3,4-0.8,5.7
		c-0.5,1.8-1.3,3.5-2.1,5.1c-0.9,1.6-2,3.1-3.3,4.5s-2.6,2.7-4.3,4v9c0,0.8-0.3,1.3-0.8,1.9c-0.5,0.5-1.1,0.8-1.9,0.8h-5.1
		c-0.8,0-1.3-0.1-1.6-0.5c-0.4-0.4-0.6-0.7-0.8-1.3c-0.1-0.5-0.3-1.1-0.1-1.8c0-0.6,0-1.1,0-1.6H74.9v2.6c0,0.8-0.2,1.3-0.8,1.9
		c-0.5,0.5-1.1,0.8-1.9,0.8h-5.1c-0.8,0-1.3-0.2-1.9-0.8c-0.6-0.5-0.8-1.1-0.8-1.9v-7.7c-2.1,0-4.1-0.4-6-1.3
		c-1.9-0.8-3.5-1.9-4.9-3.4c-1.4-1.4-2.5-3-3.4-4.9c-0.7-1.9-1.3-3.9-1.3-6h-2.6c-0.8,0-1.3-0.3-1.9-0.8s-0.8-1.1-0.8-1.9v-5.1
		c0-0.6,0.1-1.1,0.4-1.5c0.3-0.4,0.5-0.6,0.9-0.8s0.8-0.3,1.3-0.3c0.5,0,0.9,0,1.4,0c1.3-1.9,2.5-3.6,3.6-5c1.3-1.5,2.4-2.9,3.8-4.3
		c1.3-1.3,2.6-2.5,4.3-3.8c1.5-1.3,3.2-2.4,5.1-3.6v-8.8l9.8,4.9H80l-0.3-5.1h-4.4l-16.1-8v14.4c-2.9,1.9-5.5,4.1-7.9,6.5
		c-2.4,2.4-4.5,5-6.5,7.9c-0.9,0.1-1.8,0.5-2.5,1c-0.7,0.5-1.4,1-2,1.8c-0.6,0.6-1,1.5-1.3,2.3c-0.3,0.9-0.5,1.8-0.5,2.6v5.1
		c0,0.9,0.1,1.8,0.4,2.5s0.6,1.5,1.1,2.3c0.5,0.6,1.1,1.3,1.8,1.8c0.7,0.5,1.5,0.9,2.4,1c0.4,1.9,1.1,3.6,2,5.3
		c0.9,1.6,2,3.1,3.4,4.4c1.3,1.4,2.8,2.5,4.4,3.4c1.6,1,3.4,1.6,5.1,2.1v3.2c0,1.1,0.3,2.1,0.6,3c0.4,1,1,1.8,1.6,2.5
		c0.7,0.7,1.5,1.3,2.5,1.6c1,0.4,2,0.6,3,0.6H72c0.8,0,1.6-0.1,2.4-0.4s1.5-0.6,2.1-1c0.6-0.4,1.3-1,1.8-1.6s0.9-1.4,1.1-2.1h11.3
		c0.3,0.8,0.6,1.5,1.1,2.1c0.5,0.6,1,1.1,1.8,1.6c0.7,0.5,1.4,0.8,2.1,1c0.8,0.2,1.5,0.4,2.4,0.4h5.1c1.1,0,2.1-0.2,3-0.6
		c1-0.4,1.8-1,2.5-1.6c0.8-0.8,1.3-1.5,1.6-2.5c0.4-1,0.6-2,0.6-3v-6.6c1.6-1.4,3-2.9,4.3-4.5c1.3-1.6,2.4-3.4,3.3-5.2
		c0.9-1.9,1.6-3.8,2-5.8c0.4-2,0.7-4.1,0.7-6.3C121.3,76.1,120.9,73.7,120.3,71.3z"/>
	<path class="st4" d="M60.1,69.1c-0.5,0.5-0.7,1.1-0.7,1.9s0.3,1.3,0.7,1.9c0.5,0.5,1.1,0.8,1.9,0.8c0.8,0,1.3-0.3,1.9-0.8
		c0.5-0.5,0.7-1.1,0.7-1.9s-0.2-1.3-0.7-1.9c-0.5-0.5-1.1-0.8-1.9-0.8C61.3,68.3,60.6,68.6,60.1,69.1z"/>
</g>
</svg>
