<?xml version="1.0" encoding="utf-8"?>
<!-- Generator: Adobe Illustrator 21.1.0, SVG Export Plug-In . SVG Version: 6.00 Build 0)  -->
<svg version="1.1" id="Layer_1" xmlns="http://www.w3.org/2000/svg" xmlns:xlink="http://www.w3.org/1999/xlink" x="0px" y="0px"
	 viewBox="0 0 160 160" style="enable-background:new 0 0 160 160;" xml:space="preserve">
<style type="text/css">
	.st0{fill:#2A3548;}
	.st1{fill:#F25C00;}
	.st2{fill:#1E2937;}
	.st3{fill:#CC4602;}
	.st4{fill:#E4EAF6;}
</style>
<g>
	<polygon class="st0" points="145.4,116 145.4,42.2 79.9,4.4 14.4,42.2 14.4,116 79.9,153.8 	"/>
	<polygon class="st1" points="14.4,109.5 79.9,147.3 145.4,109.5 145.4,117.8 79.9,155.7 14.4,117.8 	"/>
	<polygon class="st2" points="145.4,116 145.4,42.2 79.9,4.4 79.9,153.8 	"/>
	<polygon class="st3" points="145.4,117.8 145.4,109.5 79.9,147.3 79.9,155.7 	"/>
</g>
<path class="st2" d="M122.5,60.3c0-1.5-0.1-3-0.5-4.4l-12.3,4.1l-7.3-7.1l4-12.2c-1.4-0.3-2.8-0.5-4.3-0.5c-11.1,0-20.1,9-20.1,20.1
	c0,1.3,0.1,2.4,0.4,3.5h-0.1L62.1,84.1c0,0-2.1,0-3.4,0c-10.9,0-19.8,8.6-20.1,19.5l0,0l0,0c0,0.2,0,0.4,0,0.6c0,1.5,0.1,3,0.5,4.4
	l12.3-3.4l6.4,6.4l-3.2,12.3c1.4,0.3,2.8,0.5,4.3,0.5c11.1,0,20.1-9,20.1-20.1c0-1.3-0.1-2.4-0.4-3.5h0.1l20.5-20.3c0,0,2.1,0,3.4,0
	c10.9,0,19.8-8.6,20.1-19.5l0,0l0,0C122.5,60.8,122.5,60.6,122.5,60.3z M102.4,76.1c-1.6,0-3.1-0.3-4.6-0.8l-24,23.9
	c0.5,1.5,0.8,3.2,0.8,5c0,8-6,14.6-13.8,15.6l2.6-9.8L52.9,99.7l-9.7,2.6c0.9-7.9,7.6-13.9,15.6-13.9c1.6,0,3.1,0.2,4.6,0.7l24-23.8
	c-0.5-1.5-0.7-3.2-0.7-5c0-8,6-14.6,13.8-15.6l-1.6,9.8l9.6,9.5l9.8-1.9C117.1,70.1,110.5,76.1,102.4,76.1z"/>
<g>
	<path class="st4" d="M120,57.8c0-1.5-0.1-3-0.5-4.4l-12.3,4.1l-7.3-7.1l4-12.2c-1.4-0.3-2.8-0.5-4.3-0.5c-11.1,0-20.1,9-20.1,20.1
		c0,1.3,0.1,2.4,0.4,3.5h-0.1L59.6,81.6c0,0-2.1,0-3.4,0c-10.9,0-19.8,8.6-20.1,19.5l0,0l0,0c0,0.2,0,0.4,0,0.6c0,1.5,0.1,3,0.5,4.4
		l12.3-3.4l6.4,6.4L52,121.3c1.4,0.3,2.8,0.5,4.3,0.5c11.1,0,20.1-9,20.1-20.1c0-1.3-0.1-2.4-0.4-3.5h0.1L96.6,78c0,0,2.1,0,3.4,0
		c10.9,0,19.8-8.6,20.1-19.5l0,0l0,0C120,58.3,120,58.1,120,57.8z M99.9,73.6c-1.6,0-3.1-0.3-4.6-0.8l-24,23.9
		c0.5,1.5,0.8,3.2,0.8,5c0,8-6,14.6-13.8,15.6l2.6-9.8L50.4,97.2l-9.7,2.6C41.5,92,48.3,86,56.3,86c1.6,0,3.1,0.2,4.6,0.7l24-23.7
		c-0.5-1.5-0.7-3.3-0.7-5c0-8,6-14.6,13.8-15.6l-1.6,9.8l9.6,9.5l9.8-1.9C114.6,67.6,108,73.6,99.9,73.6z"/>
	<g>
		<path class="st1" d="M105.9,62.3L95.4,52l3.8-14.3l14.1-3.9l10.5,10.4L120,58.5L105.9,62.3z M100.9,50.6l6.4,6.4l8.6-2.4l2.3-8.6
			l-6.4-6.4l-8.6,2.4L100.9,50.6z"/>
	</g>
</g>
</svg>
