<?xml version="1.0" encoding="utf-8"?>
<!-- Generator: Adobe Illustrator 21.1.0, SVG Export Plug-In . SVG Version: 6.00 Build 0)  -->
<svg version="1.1" id="Layer_1" xmlns="http://www.w3.org/2000/svg" xmlns:xlink="http://www.w3.org/1999/xlink" x="0px" y="0px"
	 viewBox="0 0 160 160" style="enable-background:new 0 0 160 160;" xml:space="preserve">
<style type="text/css">
	.st0{fill:#2A3548;}
	.st1{fill:#F25C00;}
	.st2{fill:#1E2937;}
	.st3{fill:#CC4602;}
	.st4{fill:#D7DEED;}
</style>
<g>
	<polygon class="st0" points="145.4,116 145.4,42.2 79.9,4.4 14.4,42.2 14.4,116 79.9,153.8 	"/>
	<polygon class="st1" points="14.4,109.5 79.9,147.3 145.4,109.5 145.4,117.8 79.9,155.7 14.4,117.8 	"/>
	<polygon class="st2" points="145.4,116 145.4,42.2 79.9,4.4 79.9,153.8 	"/>
	<polygon class="st3" points="145.4,117.8 145.4,109.5 79.9,147.3 79.9,155.7 	"/>
</g>
<g>
	<g>
		<path class="st2" d="M116,100.5v12.3h-13.1v-6.6h-6.6v-6.6h-6.6v-5.4c-1.3,0.6-2.6,1.1-4,1.5c-1.4,0.4-2.8,0.5-4.3,0.5
			c-1.6,0-3.2-0.3-4.9-0.6c-1.5-0.4-3-1-4.4-1.9c-1.4-0.8-2.5-1.8-3.6-2.9c-1.1-1.1-2-2.4-2.9-3.6c-0.7-1.4-1.4-2.7-1.9-4.4
			c-0.4-1.5-0.6-3.1-0.6-4.9c0-1.6,0.2-3.3,0.6-4.9c0.4-1.6,1-3,1.9-4.4c0.8-1.4,1.8-2.5,2.9-3.6c1.1-1.1,2.4-2,3.6-2.9
			c1.4-0.8,2.8-1.4,4.4-1.9c1.5-0.4,3.1-0.6,4.9-0.6c1.6,0,3.3,0.3,4.9,0.6c1.5,0.4,3,1,4.4,1.9c1.4,0.7,2.5,1.8,3.6,2.9
			c1.1,1.1,2,2.4,2.9,3.6c0.9,1.3,1.4,2.7,1.9,4.4c0.4,1.5,0.6,3.1,0.6,4.9c0,0.9-0.1,1.8-0.2,2.6c-0.1,0.9-0.4,1.8-0.6,2.5
			L116,100.5z M112.7,101.8L95,84.1c0.4-1,0.6-2,0.9-3c0.3-1,0.4-2,0.4-3c0-2-0.4-4-1.1-5.8c-0.7-1.8-1.9-3.4-3.1-4.8
			s-2.9-2.4-4.8-3.1c-1.8-0.8-3.8-1.1-5.8-1.1s-4,0.4-5.8,1.1c-1.8,0.7-3.4,1.9-4.8,3.1c-1.4,1.4-2.4,2.9-3.1,4.8
			c-0.8,1.8-1.1,3.8-1.1,5.8s0.4,4,1.1,5.8c0.8,1.8,1.9,3.4,3.1,4.8c1.4,1.4,2.9,2.4,4.8,3.1c1.8,0.8,3.8,1.1,5.8,1.1
			c1.6,0,3.3-0.2,4.9-0.9c1.6-0.6,3-1.4,4.4-2.5H93v6.7h6.6v6.6h6.6v6.6h6.6v-7.6H112.7z"/>
	</g>
	<g>
		<path class="st2" d="M89.4,111.3c-2.8,1.9-5.5,3.6-8.1,5.2c-2.8-1.6-5.5-3.4-8.1-5.2c-2.8-1.9-5.3-4-7.8-6.3
			c-2.5-2.3-4.8-4.6-6.9-7.1c-2.1-2.5-4-5.2-5.5-8c-1.5-2.9-2.8-5.8-3.6-8.9C48.5,78,48,74.7,48,71.3V55.7c4-0.3,7.8-0.9,11.5-1.9
			c3.6-1.1,7.1-2.8,10.5-4.9c1.9-1.1,3.6-2,5.5-2.6c1.8-0.5,3.8-0.9,6-0.9c2.3,0,4.1,0.3,6,0.9c1.8,0.5,3.6,1.4,5.5,2.6
			c3.4,2.1,6.9,3.8,10.5,4.9c3.6,1.1,7.5,1.8,11.5,1.9v15.5c0,3.4-0.5,6.6-1.4,9.8c-0.8,2.8-1.8,5.3-3.1,7.8l3.9,3.9
			c1.8-3.1,3.1-6.5,4.1-10c1-3.6,1.5-7.4,1.5-11.5V50.6c-2.3,0-4.4-0.1-6.5-0.3c-2.1-0.1-4.1-0.5-6.1-0.9c-2-0.4-3.9-1-5.9-1.8
			c-1.9-0.8-3.9-1.8-5.8-3c-1.1-0.7-2.3-1.4-3.4-1.9c-1.1-0.5-2.3-1-3.4-1.4c-1.1-0.4-2.4-0.6-3.6-0.8c-1.3-0.1-2.5-0.3-3.9-0.3
			c-2.8,0-5.3,0.4-7.5,1.1c-2.3,0.7-4.5,1.8-6.9,3.2c-1.9,1.3-3.9,2.3-5.8,3c-1.9,0.7-3.9,1.4-5.9,1.8c-2,0.4-4,0.8-6.1,0.9
			c-2.1,0.1-4.3,0.3-6.5,0.3v20.5c0,4,0.5,7.9,1.5,11.5c1,3.6,2.4,7,4.3,10.1c1.8,3.1,3.9,6.1,6.4,9c2.5,2.7,5.1,5.4,8,7.9
			c2.9,2.5,5.9,4.8,9,6.9c3.1,2.1,6.3,4.1,9.5,6c3.1-1.9,6.4-3.9,9.5-6c2.3-1.5,6-4.5,8.1-6.1h-5.2l0.1-2.3
			C92.2,109.2,90.9,110.2,89.4,111.3z"/>
	</g>
</g>
<g>
	<g>
		<path class="st4" d="M117.2,100.5v13.1h-14.1v-7h-7v-7h-7v-5.9c-1.4,0.8-2.7,1.3-4.3,1.6c-1.5,0.4-3,0.5-4.5,0.5
			c-1.8,0-3.5-0.3-5.1-0.8s-3.2-1.1-4.6-2c-1.4-0.9-2.8-1.9-3.9-3s-2.3-2.5-3-3.9s-1.5-3-2-4.6C61.2,80,61,78.2,61,76.5
			s0.2-3.5,0.7-5.1c0.5-1.6,1.1-3.3,2-4.6c0.9-1.4,1.9-2.8,3-3.9c1.1-1.1,2.5-2.3,3.9-3c1.4-0.9,3-1.5,4.6-2
			c1.6-0.5,3.4-0.8,5.1-0.8s3.5,0.3,5.1,0.8c1.6,0.5,3.3,1.1,4.6,2c1.4,0.9,2.8,1.9,3.9,3c1.1,1.1,2.3,2.5,3,3.9
			c0.9,1.4,1.5,3,2,4.6c0.5,1.6,0.8,3.4,0.8,5.1c0,0.9-0.1,1.9-0.3,2.7c-0.1,0.9-0.4,1.9-0.6,2.8L117.2,100.5z M113.7,102L94.6,83
			c0.4-1,0.8-2.1,1-3.1c0.2-1,0.4-2.1,0.4-3.3c0-2.1-0.4-4.3-1.3-6.1c-0.9-1.9-2-3.6-3.4-5c-1.4-1.4-3.1-2.6-5-3.4
			c-1.9-0.9-4-1.3-6.1-1.3c-2.1,0-4.3,0.4-6.1,1.3s-3.6,2-5,3.4s-2.6,3.1-3.4,5c-0.9,1.9-1.3,4-1.3,6.1s0.4,4.3,1.3,6.1
			c0.9,1.9,2,3.6,3.4,5c1.4,1.4,3.1,2.6,5,3.4c1.9,0.9,4,1.3,6.1,1.3c1.8,0,3.5-0.2,5.3-0.9c1.8-0.6,3.3-1.5,4.6-2.6h2.5v7h7v7h7v7
			h7V102H113.7z M74.9,67.7c0.5,0,1,0.1,1.4,0.3s0.7,0.4,1.1,0.8c0.4,0.4,0.6,0.7,0.8,1.1c0.1,0.4,0.2,0.9,0.2,1.4
			c0,0.5-0.1,1-0.2,1.4c-0.1,0.4-0.4,0.8-0.8,1.1c-0.4,0.4-0.8,0.6-1.1,0.7c-0.4,0.1-0.9,0.3-1.4,0.3s-1-0.1-1.4-0.3
			c-0.4-0.1-0.8-0.4-1.1-0.7c-0.4-0.4-0.6-0.8-0.8-1.1c-0.1-0.4-0.2-0.9-0.2-1.4c0-0.5,0.1-1,0.2-1.4c0.1-0.4,0.4-0.8,0.8-1.1
			c0.4-0.4,0.8-0.6,1.1-0.8C74,67.8,74.4,67.7,74.9,67.7z"/>
	</g>
	<g>
		<path class="st1" d="M88.7,112.1c-2.9,2-5.9,3.9-8.8,5.6c-2.9-1.8-5.9-3.5-8.8-5.6c-2.9-2-5.6-4.3-8.4-6.6c-2.6-2.4-5.1-5-7.4-7.6
			c-2.3-2.7-4.3-5.6-5.9-8.6c-1.6-3-3-6.3-3.9-9.5c-1-3.4-1.5-6.9-1.5-10.5V52.6c4.3-0.3,8.4-0.9,12.3-2.1c3.9-1.1,7.6-2.9,11.2-5.3
			c2-1.3,3.9-2.1,5.9-2.8c1.9-0.6,4-0.9,6.4-0.9c2.4,0,4.5,0.3,6.4,0.9s3.9,1.5,5.9,2.8c3.6,2.4,7.4,4,11.3,5.3
			c3.9,1.1,8,1.9,12.3,2.1v16.6c0,3.6-0.5,7.1-1.5,10.5c-0.9,2.9-1.9,5.6-3.3,8.3l4.1,4.1c1.9-3.4,3.4-6.9,4.4-10.8
			c1.1-3.9,1.6-7.9,1.6-12.3V47.2c-2.4,0-4.6-0.1-6.9-0.3c-2.3-0.1-4.4-0.5-6.5-1c-2.1-0.5-4.3-1.1-6.3-1.9
			c-2.1-0.9-4.1-1.9-6.1-3.3c-1.3-0.8-2.5-1.5-3.6-2c-1.3-0.6-2.4-1.1-3.6-1.5s-2.5-0.6-3.9-0.9c-1.4-0.1-2.8-0.3-4.3-0.3
			c-2.9,0-5.6,0.4-8,1.1c-2.4,0.8-4.9,1.9-7.3,3.5c-2.1,1.4-4.1,2.4-6.1,3.3c-2.1,0.9-4.1,1.5-6.3,1.9c-2.1,0.5-4.3,0.7-6.5,1
			c-2.3,0.1-4.5,0.3-6.9,0.3v22c0,4.4,0.5,8.4,1.6,12.3c1.1,3.9,2.6,7.5,4.5,10.9c1.9,3.4,4.3,6.6,6.8,9.6c2.6,3,5.5,5.7,8.5,8.4
			c3,2.6,6.3,5.1,9.6,7.4c3.4,2.3,6.8,4.4,10.1,6.4c3.4-2,6.8-4.1,10.1-6.4c2.4-1.6,6.4-4.8,8.6-6.6h-5.6l0.1-2.4
			C91.9,109.8,90.2,111.1,88.7,112.1z"/>
	</g>
</g>
</svg>
