<?xml version="1.0" encoding="utf-8"?>
<!-- Generator: Adobe Illustrator 21.1.0, SVG Export Plug-In . SVG Version: 6.00 Build 0)  -->
<svg version="1.1" id="Layer_1" xmlns="http://www.w3.org/2000/svg" xmlns:xlink="http://www.w3.org/1999/xlink" x="0px" y="0px"
	 viewBox="0 0 160 160" style="enable-background:new 0 0 160 160;" xml:space="preserve">
<style type="text/css">
	.st0{fill:#2A3548;}
	.st1{fill:#F25C00;}
	.st2{fill:#1E2937;}
	.st3{fill:#CC4602;}
	.st4{fill:#D7DEED;}
</style>
<g>
	<polygon class="st0" points="145.4,114.1 145.4,42.2 79.9,4.4 14.4,42.2 14.4,114.1 79.9,152 	"/>
	<polygon class="st1" points="14.4,109.5 79.9,147.3 145.4,109.5 145.4,117.8 79.9,155.7 14.4,117.8 	"/>
	<polygon class="st2" points="145.4,114.1 145.4,42.2 79.9,4.4 79.9,152 	"/>
	<polygon class="st3" points="145.4,117.8 145.4,109.5 79.9,147.3 79.9,155.7 	"/>
</g>
<path class="st1" d="M95.4,67.8L83.3,65l-3.6-11.9l8.5-9.1l12.1,2.8l3.6,11.9L95.4,67.8z M86.3,61.8l7.8,1.8l5.5-5.9l-2.4-7.7
	l-7.8-1.8l-5.5,5.9L86.3,61.8z"/>
<g>
	<path class="st2" d="M112.2,80.2c-0.6-1.9-1.4-3.6-2.4-5.3c-1-1.6-2.3-3.1-3.8-4.4c-1.4-1.2-2.9-2.2-4.6-3l-2.3,3.5
		c1.4,0.7,2.8,1.5,3.9,2.5c1.2,1,2.3,2.2,3.1,3.5c0.9,1.3,1.5,2.7,2,4.3c0.5,1.5,0.7,3.1,0.7,4.8c0,1.6-0.2,3.2-0.6,4.6
		c-0.4,1.4-1,2.8-1.7,4.1c-0.7,1.3-1.6,2.5-2.6,3.6c-1,1.1-2.1,2.2-3.4,3.2v7.2c0,0.6-0.2,1-0.6,1.5c-0.4,0.4-0.9,0.6-1.5,0.6h-4.1
		c-0.6,0-1-0.1-1.3-0.4c-0.3-0.3-0.5-0.6-0.6-1c-0.1-0.4-0.2-0.9-0.1-1.4c0-0.5,0-0.9,0-1.3H75.9v2.1c0,0.6-0.2,1-0.6,1.5
		c-0.4,0.4-0.9,0.6-1.5,0.6h-4.1c-0.6,0-1-0.2-1.5-0.6s-0.6-0.9-0.6-1.5v-6.2c-1.7,0-3.3-0.3-4.8-1c-1.5-0.6-2.8-1.5-3.9-2.7
		c-1.1-1.1-2-2.4-2.7-3.9c-0.6-1.5-1-3.1-1-4.8h-2.1c-0.6,0-1-0.2-1.5-0.6s-0.6-0.9-0.6-1.5v-4.1c0-0.5,0.1-0.9,0.3-1.2
		c0.2-0.3,0.4-0.5,0.7-0.6c0.3-0.1,0.6-0.2,1-0.2c0.4,0,0.7,0,1.1,0c1-1.5,2-2.9,2.9-4c1-1.2,1.9-2.3,3-3.4c1-1,2.1-2,3.4-3
		c1.2-1,2.6-1.9,4.1-2.9v-7l7.8,3.9H80l-0.2-4.1h-3.5l-12.9-6.4v11.5c-2.3,1.5-4.4,3.3-6.3,5.2c-1.9,1.9-3.6,4-5.2,6.3
		c-0.7,0.1-1.4,0.4-2,0.8c-0.6,0.4-1.1,0.8-1.6,1.4c-0.5,0.5-0.8,1.2-1,1.8c-0.2,0.7-0.4,1.4-0.4,2.1v4.1c0,0.7,0.1,1.4,0.3,2
		c0.2,0.6,0.5,1.2,0.9,1.8c0.4,0.5,0.9,1,1.4,1.4c0.6,0.4,1.2,0.7,1.9,0.8c0.3,1.5,0.9,2.9,1.6,4.2c0.7,1.3,1.6,2.5,2.7,3.5
		c1,1.1,2.2,2,3.5,2.7c1.3,0.8,2.7,1.3,4.1,1.7v2.6c0,0.9,0.2,1.7,0.5,2.4c0.3,0.8,0.8,1.4,1.3,2c0.6,0.6,1.2,1,2,1.3
		c0.8,0.3,1.6,0.5,2.4,0.5h4.1c0.6,0,1.3-0.1,1.9-0.3c0.6-0.2,1.2-0.5,1.7-0.8s1-0.8,1.4-1.3c0.4-0.5,0.7-1.1,0.9-1.7h9
		c0.2,0.6,0.5,1.2,0.9,1.7c0.4,0.5,0.8,0.9,1.4,1.3s1.1,0.6,1.7,0.8c0.6,0.2,1.2,0.3,1.9,0.3h4.1c0.9,0,1.7-0.2,2.4-0.5
		c0.8-0.3,1.4-0.8,2-1.3c0.6-0.6,1-1.2,1.3-2c0.3-0.8,0.5-1.6,0.5-2.4v-5.3c1.3-1.1,2.4-2.3,3.4-3.6c1-1.3,1.9-2.7,2.6-4.2
		c0.7-1.5,1.3-3,1.6-4.6s0.6-3.3,0.6-5C113,84,112.7,82.1,112.2,80.2z"/>
</g>
<g>
	<path class="st4" d="M112.2,76.2c-0.6-1.9-1.4-3.6-2.4-5.3c-1-1.6-2.3-3.1-3.8-4.4c-1.4-1.2-2.9-2.2-4.6-3l-2.3,3.5
		c1.4,0.7,2.8,1.5,3.9,2.5c1.2,1,2.3,2.2,3.1,3.5c0.9,1.3,1.5,2.7,2,4.3c0.5,1.5,0.7,3.1,0.7,4.8c0,1.6-0.2,3.2-0.6,4.6
		c-0.4,1.4-1,2.8-1.7,4.1c-0.7,1.3-1.6,2.5-2.6,3.6c-1,1.1-2.1,2.2-3.4,3.2v7.2c0,0.6-0.2,1-0.6,1.5c-0.4,0.4-0.9,0.6-1.5,0.6h-4.1
		c-0.6,0-1-0.1-1.3-0.4c-0.3-0.3-0.5-0.6-0.6-1c-0.1-0.4-0.2-0.9-0.1-1.4c0-0.5,0-0.9,0-1.3H75.9v2.1c0,0.6-0.2,1-0.6,1.5
		c-0.4,0.4-0.9,0.6-1.5,0.6h-4.1c-0.6,0-1-0.2-1.5-0.6s-0.6-0.9-0.6-1.5v-6.2c-1.7,0-3.3-0.3-4.8-1c-1.5-0.6-2.8-1.5-3.9-2.7
		c-1.1-1.1-2-2.4-2.7-3.9c-0.6-1.5-1-3.1-1-4.8h-2.1c-0.6,0-1-0.2-1.5-0.6s-0.6-0.9-0.6-1.5v-4.1c0-0.5,0.1-0.9,0.3-1.2
		c0.2-0.3,0.4-0.5,0.7-0.6c0.3-0.1,0.6-0.2,1-0.2c0.4,0,0.7,0,1.1,0c1-1.5,2-2.9,2.9-4c1-1.2,1.9-2.3,3-3.4c1-1,2.1-2,3.4-3
		c1.2-1,2.6-1.9,4.1-2.9v-7l7.8,3.9H80l-0.2-4.1h-3.5l-12.9-6.4v11.5c-2.3,1.5-4.4,3.3-6.3,5.2c-1.9,1.9-3.6,4-5.2,6.3
		c-0.7,0.1-1.4,0.4-2,0.8c-0.6,0.4-1.1,0.8-1.6,1.4c-0.5,0.5-0.8,1.2-1,1.8c-0.2,0.7-0.4,1.4-0.4,2.1v4.1c0,0.7,0.1,1.4,0.3,2
		c0.2,0.6,0.5,1.2,0.9,1.8c0.4,0.5,0.9,1,1.4,1.4c0.6,0.4,1.2,0.7,1.9,0.8c0.3,1.5,0.9,2.9,1.6,4.2c0.7,1.3,1.6,2.5,2.7,3.5
		c1,1.1,2.2,2,3.5,2.7c1.3,0.8,2.7,1.3,4.1,1.7v2.6c0,0.9,0.2,1.7,0.5,2.4c0.3,0.8,0.8,1.4,1.3,2c0.6,0.6,1.2,1,2,1.3
		c0.8,0.3,1.6,0.5,2.4,0.5h4.1c0.6,0,1.3-0.1,1.9-0.3c0.6-0.2,1.2-0.5,1.7-0.8s1-0.8,1.4-1.3c0.4-0.5,0.7-1.1,0.9-1.7h9
		c0.2,0.6,0.5,1.2,0.9,1.7c0.4,0.5,0.8,0.9,1.4,1.3s1.1,0.6,1.7,0.8c0.6,0.2,1.2,0.3,1.9,0.3h4.1c0.9,0,1.7-0.2,2.4-0.5
		c0.8-0.3,1.4-0.8,2-1.3c0.6-0.6,1-1.2,1.3-2c0.3-0.8,0.5-1.6,0.5-2.4v-5.3c1.3-1.1,2.4-2.3,3.4-3.6c1-1.3,1.9-2.7,2.6-4.2
		c0.7-1.5,1.3-3,1.6-4.6s0.6-3.3,0.6-5C113,80,112.7,78.1,112.2,76.2z"/>
	<path class="st4" d="M64.1,74.4c-0.4,0.4-0.6,0.9-0.6,1.5c0,0.6,0.2,1,0.6,1.5c0.4,0.4,0.9,0.6,1.5,0.6c0.6,0,1-0.2,1.5-0.6
		c0.4-0.4,0.6-0.9,0.6-1.5c0-0.6-0.2-1-0.6-1.5c-0.4-0.4-0.9-0.6-1.5-0.6C65,73.8,64.5,74,64.1,74.4z"/>
</g>
</svg>
