<?xml version="1.0" encoding="utf-8"?>
<!-- Generator: Adobe Illustrator 21.1.0, SVG Export Plug-In . SVG Version: 6.00 Build 0)  -->
<svg version="1.1" id="Layer_1" xmlns="http://www.w3.org/2000/svg" xmlns:xlink="http://www.w3.org/1999/xlink" x="0px" y="0px"
	 viewBox="0 0 160 160" style="enable-background:new 0 0 160 160;" xml:space="preserve">
<style type="text/css">
	.st0{fill:#2A3548;}
	.st1{fill:#F25C00;}
	.st2{fill:#1E2937;}
	.st3{fill:#CC4602;}
	.st4{fill:#E4EAF6;}
</style>
<g>
	<polygon class="st0" points="145.4,114.1 145.4,42.2 79.9,4.4 14.4,42.2 14.4,114.1 79.9,152 	"/>
	<polygon class="st1" points="14.4,109.5 79.9,147.3 145.4,109.5 145.4,117.8 79.9,155.7 14.4,117.8 	"/>
	<polygon class="st2" points="145.4,114.1 145.4,42.2 79.9,4.4 79.9,152 	"/>
	<polygon class="st3" points="145.4,117.8 145.4,109.5 79.9,147.3 79.9,155.7 	"/>
</g>
<g>
	<path class="st2" d="M121.3,79.9c-0.9-1.9-1.9-3.5-3.4-4.9c-1.4-1.4-3-2.5-5-3.3c-1.9-0.8-3.9-1.3-6.1-1.3
		c-0.4-2.9-1.3-5.6-2.5-8.1c-1.4-2.5-3-4.7-5-6.5c-2-1.9-4.4-3.2-7-4.4c-2.6-1-5.5-1.6-8.5-1.6c-2,0-3.9,0.3-5.7,0.8
		c-1.9,0.5-3.6,1.1-5.4,2.1c-1.6,0.9-3.3,2-4.6,3.4c-1.4,1.4-2.6,2.9-3.8,4.5c-1.3-0.2-2.5-0.4-3.8-0.4c-2.9,0-5.5,0.5-8,1.6
		s-4.8,2.5-6.6,4.4s-3.4,4-4.4,6.6c-1.1,2.5-1.6,5.3-1.6,8c0,2.9,0.5,5.5,1.6,8c1.1,2.5,2.5,4.8,4.4,6.6s4,3.4,6.6,4.4
		c2.5,1.1,5.3,1.6,8,1.6h1.1c-0.1-0.9-0.1-1.8-0.1-2.6c0-0.9,0-1.8,0.1-2.5h-1.1c-2.1,0-4.1-0.4-6-1.3c-1.9-0.8-3.5-1.9-4.9-3.4
		c-1.4-1.4-2.5-3-3.4-4.9c-0.8-1.9-1.3-3.9-1.3-6c0-2.1,0.4-4.1,1.3-6c0.7-1.9,1.9-3.5,3.4-4.9c1.4-1.4,3-2.5,4.9-3.4
		c1.9-0.8,3.9-1.3,6-1.3c2.3,0,4.4,0.5,6.4,1.4c0.6-1.8,1.6-3.4,2.8-4.9c1.1-1.4,2.4-2.6,3.9-3.6c1.5-1,3.1-1.9,4.9-2.4
		c1.8-0.6,3.5-0.9,5.5-0.9c2.5,0,4.9,0.5,7,1.4c2.3,1,4.1,2.2,5.8,3.9c1.6,1.6,2.9,3.5,3.9,5.7c1,2.3,1.4,4.5,1.4,7v2.6h5.1
		c1.4,0,2.7,0.3,4,0.8s2.4,1.3,3.3,2.3c1,1,1.6,2,2.3,3.3c0.5,1.3,0.7,2.6,0.7,4c0,1.4-0.2,2.7-0.7,4c-0.5,1.3-1.3,2.4-2.3,3.3
		c-1,1-2,1.6-3.3,2.3c-1.3,0.5-2.6,0.8-4,0.8h-3.3c0.1,0.9,0.1,1.8,0.1,2.5c0,0.9,0,1.8-0.1,2.6h3.3c2.1,0,4.1-0.4,6-1.3
		c1.9-0.8,3.5-1.9,4.9-3.4c1.4-1.4,2.5-3,3.4-4.9c0.8-1.9,1.3-3.9,1.3-6C122.5,83.8,122.1,81.8,121.3,79.9z"/>
</g>
<g>
	<g>
		<path class="st4" d="M118.8,76.2c-0.9-1.9-1.9-3.5-3.4-4.9c-1.4-1.4-3-2.5-5-3.3c-1.9-0.8-3.9-1.3-6.1-1.3
			c-0.4-2.9-1.3-5.6-2.5-8.1c-1.4-2.5-3-4.7-5-6.5c-2-1.9-4.4-3.2-7-4.4c-2.6-1-5.5-1.6-8.5-1.6c-2,0-3.9,0.3-5.7,0.8
			c-1.9,0.5-3.6,1.1-5.4,2.1c-1.6,0.9-3.3,2-4.6,3.4c-1.4,1.4-2.6,2.9-3.8,4.5c-1.3-0.3-2.5-0.4-3.8-0.4c-2.9,0-5.5,0.5-8,1.6
			c-2.5,1.1-4.8,2.5-6.6,4.4s-3.4,4-4.4,6.6c-1.1,2.5-1.6,5.3-1.6,8c0,2.9,0.5,5.5,1.6,8c1.1,2.5,2.5,4.8,4.4,6.6s4,3.4,6.6,4.4
			c2.5,1.1,5.3,1.6,8,1.6h1.1C59,97,59,96.1,59,95.2c0-0.9,0-1.8,0.1-2.5H58c-2.1,0-4.1-0.4-6-1.3c-1.9-0.8-3.5-1.9-4.9-3.4
			c-1.4-1.4-2.5-3-3.4-4.9c-0.8-1.9-1.3-3.9-1.3-6c0-2.1,0.4-4.1,1.3-6c0.7-1.9,1.9-3.5,3.4-4.9c1.4-1.4,3-2.5,4.9-3.4
			c1.9-0.8,3.9-1.3,6-1.3c2.3,0,4.4,0.5,6.4,1.4c0.6-1.8,1.6-3.4,2.8-4.9c1.1-1.4,2.4-2.6,3.9-3.6c1.5-1,3.1-1.9,4.9-2.4
			c1.8-0.6,3.5-0.9,5.5-0.9c2.5,0,4.9,0.5,7,1.4c2.3,1,4.1,2.2,5.8,3.9s2.9,3.5,3.9,5.8c1,2.3,1.4,4.5,1.4,7v2.6h5.1
			c1.4,0,2.7,0.3,4,0.8s2.4,1.3,3.3,2.3c1,1,1.6,2,2.3,3.3c0.5,1.3,0.7,2.6,0.7,4c0,1.4-0.2,2.7-0.7,4c-0.5,1.3-1.3,2.4-2.3,3.3
			c-1,1-2,1.6-3.3,2.3c-1.3,0.5-2.6,0.8-4,0.8h-3.3c0.1,0.9,0.1,1.8,0.1,2.5c0,0.9,0,1.8-0.1,2.6h3.3c2.1,0,4.1-0.4,6-1.3
			c1.9-0.8,3.5-1.9,4.9-3.4c1.4-1.4,2.5-3,3.4-4.9c0.8-1.9,1.3-3.9,1.3-6C120,80.1,119.6,78.1,118.8,76.2z"/>
	</g>
	<g>
		<path class="st1" d="M94.4,95.4c0-0.1,0-0.2,0-0.4c0-0.1,0-0.3,0-0.4s0-0.3,0-0.4l4.9-3l-3-7l-5.5,1.3c-0.2-0.4-0.6-0.6-0.9-0.9
			l1.3-5.5l-7.1-3l-3,4.9c-0.1,0-0.3,0-0.4,0c-0.1,0-0.2,0-0.4,0c-0.1,0-0.3,0-0.4,0c-0.1,0-0.2,0-0.4,0l-2.9-4.9l-7.1,3l1.3,5.5
			c-0.4,0.2-0.6,0.6-0.9,0.9l-5.5-1.3l-3,7.1l4.9,3c0,0.1,0,0.3,0,0.4s0,0.3,0,0.4c0,0.1,0,0.2,0,0.4c0,0.1,0,0.2,0,0.4l-4.9,3
			l3,7.1l5.5-1.3c0.2,0.4,0.6,0.6,0.9,0.9l-1.3,5.5l7.1,3l3-4.9c0.1,0,0.3,0,0.4,0c0.1,0,0.2,0,0.4,0c0.1,0,0.3,0,0.4,0
			c0.1,0,0.2,0,0.4,0l3,4.9l7.1-3l-1.3-5.5c0.4-0.2,0.6-0.6,0.9-0.9l5.5,1.3l3-7.1l-4.9-3C94.4,95.7,94.4,95.6,94.4,95.4z
			 M80.3,104.8c-5.4,0-9.6-4.4-9.6-9.6s4.4-9.6,9.6-9.6c5.2,0,9.6,4.4,9.6,9.6S85.6,104.8,80.3,104.8z"/>
	</g>
</g>
</svg>
