<?xml version="1.0" encoding="utf-8"?>
<!-- Generator: Adobe Illustrator 21.1.0, SVG Export Plug-In . SVG Version: 6.00 Build 0)  -->
<svg version="1.1" id="Layer_1" xmlns="http://www.w3.org/2000/svg" xmlns:xlink="http://www.w3.org/1999/xlink" x="0px" y="0px"
	 viewBox="0 0 160 160" style="enable-background:new 0 0 160 160;" xml:space="preserve">
<style type="text/css">
	.st0{fill:#2A3548;}
	.st1{fill:#F25C00;}
	.st2{fill:#1E2937;}
	.st3{fill:#CC4602;}
	.st4{fill:#D7DEED;}
</style>
<g>
	<polygon class="st0" points="145.4,114.1 145.4,42.2 79.9,4.4 14.4,42.2 14.4,114.1 79.9,152 	"/>
	<polygon class="st1" points="14.4,109.5 79.9,147.3 145.4,109.5 145.4,117.8 79.9,155.7 14.4,117.8 	"/>
	<polygon class="st2" points="145.4,114.1 145.4,42.2 79.9,4.4 79.9,152 	"/>
	<polygon class="st3" points="145.4,117.8 145.4,109.5 79.9,147.3 79.9,155.7 	"/>
</g>
<g>
	<path class="st2" d="M102.7,82.5c-0.4-1.5-1-2.8-1.8-4.1c-0.8-1.3-1.7-2.5-2.9-3.5c-1.1-1-2.4-1.9-3.8-2.6c1.6-1.2,2.8-2.6,3.7-4.4
		c0.9-1.7,1.3-3.6,1.3-5.6c0-1.7-0.3-3.3-1-4.8c-0.6-1.5-1.5-2.8-2.6-3.9c-1.1-1.1-2.4-2-3.9-2.7c-1.5-0.7-3.1-1-4.8-1
		c-1.7,0-3.3,0.3-4.8,1c-1.5,0.7-2.8,1.5-3.9,2.7c-1.1,1.1-2,2.4-2.6,3.9c-0.6,1.5-1,3.1-1,4.8c0,2,0.4,3.8,1.3,5.6
		c0.9,1.7,2.1,3.2,3.7,4.4c-1.6,0.8-3,1.9-4.3,3.1c-1.3,1.3-2.3,2.7-3.1,4.3c-1.2-1.6-2.6-2.8-4.3-3.7c-1.7-0.9-3.6-1.3-5.6-1.3
		c-1.7,0-3.3,0.3-4.8,1c-1.5,0.7-2.8,1.5-3.9,2.7c-1.1,1.1-2,2.4-2.6,3.9c-0.6,1.5-1,3.1-1,4.8c0,2,0.4,3.8,1.3,5.6
		c0.9,1.7,2.1,3.2,3.7,4.4c-1.4,0.7-2.7,1.6-3.8,2.6c-1.1,1-2.1,2.2-2.9,3.5c-0.8,1.3-1.4,2.6-1.8,4.1c-0.4,1.5-0.6,3-0.6,4.6h4.1
		c0-1.6,0.3-3.2,0.9-4.7c1.8-4.8,6.4-8.2,11.8-8.2c5.2,0,9.7,3.2,11.7,7.7v-5.9c-1.4-1.5-3-2.8-4.9-3.7c1.6-1.2,2.8-2.6,3.7-4.4
		c0.9-1.7,1.3-3.6,1.3-5.6v-0.3c0.1-1.7,0.5-3.3,1.1-4.7c0.6-1.5,1.5-2.8,2.6-3.9c1.1-1.1,2.4-2,3.8-2.6c1.5-0.6,3.1-0.9,4.8-0.9
		c1.7,0,3.3,0.3,4.8,1c1.5,0.7,2.8,1.5,3.9,2.7c1.1,1.1,2,2.4,2.6,3.9c0.6,1.5,1,3.1,1,4.8h4.1C103.4,85.5,103.2,84,102.7,82.5z
		 M69.9,90.3c-0.4,1-1,1.9-1.8,2.6c-0.7,0.7-1.6,1.3-2.6,1.8c-1,0.4-2,0.7-3.2,0.7c-1.1,0-2.2-0.2-3.2-0.7c-1-0.4-1.9-1-2.6-1.8
		c-0.8-0.7-1.3-1.6-1.8-2.6c-0.4-1-0.6-2.1-0.6-3.2c0-1.1,0.2-2.2,0.6-3.2c0.4-1,1-1.9,1.8-2.6c0.7-0.8,1.6-1.3,2.6-1.8
		c1-0.4,2.1-0.7,3.2-0.7c1.1,0,2.2,0.2,3.2,0.7c1,0.4,1.9,1,2.6,1.8c0.7,0.8,1.3,1.6,1.8,2.6c0.4,1,0.6,2.1,0.6,3.2
		C70.6,88.2,70.4,89.3,69.9,90.3z M90.2,69.9c-1,0.4-2,0.7-3.2,0.7c-1.1,0-2.2-0.2-3.2-0.7c-1-0.4-1.9-1-2.6-1.8
		c-0.7-0.7-1.3-1.6-1.8-2.6c-0.4-1-0.6-2.1-0.6-3.2c0-1.1,0.2-2.2,0.6-3.2c0.4-1,1-1.9,1.8-2.6c0.7-0.8,1.6-1.3,2.6-1.8
		c1-0.4,2.1-0.6,3.2-0.6c1.1,0,2.2,0.2,3.2,0.7c1,0.4,1.9,1,2.6,1.8c0.7,0.7,1.3,1.6,1.8,2.6c0.4,1,0.6,2.1,0.6,3.2
		c0,1.1-0.2,2.2-0.6,3.2c-0.4,1-1,1.9-1.8,2.6C92,68.9,91.2,69.5,90.2,69.9z"/>
</g>
<g>
	<g>
		<path class="st4" d="M87,71.7c-1.7,0-3.3,0.3-4.8,0.9c-1.5,0.6-2.7,1.5-3.8,2.6c-1.1,1.1-1.9,2.4-2.6,3.9s-1,3.1-1.1,4.7v0.3
			c0,2-0.4,3.8-1.3,5.6s-2.1,3.2-3.7,4.4c1.9,0.9,3.5,2.2,4.9,3.7v9c-0.2-1.5-0.7-2.9-1.4-4.2c-0.7-1.3-1.6-2.3-2.7-3.3
			c-1.1-0.9-2.3-1.6-3.7-2.1c-1.4-0.5-2.8-0.8-4.3-0.8c-1.7,0-3.3,0.3-4.8,1c-1.5,0.7-2.8,1.5-3.9,2.7c-1.1,1.1-2,2.4-2.6,3.9
			c-0.6,1.5-1,3.1-1,4.8H46c0-1.6,0.2-3.1,0.6-4.6c0.4-1.5,1-2.8,1.8-4.1c0.8-1.3,1.8-2.4,2.9-3.5c1.1-1,2.4-1.9,3.8-2.6
			c-1.6-1.2-2.8-2.6-3.7-4.4c-0.9-1.7-1.3-3.6-1.3-5.6c0-1.7,0.3-3.3,1-4.8c0.6-1.5,1.5-2.8,2.6-3.9c1.1-1.1,2.4-2,3.9-2.7
			c1.5-0.7,3.1-1,4.8-1c2,0,3.8,0.4,5.6,1.3c1.7,0.9,3.2,2.1,4.3,3.7c0.8-1.6,1.8-3.1,3.1-4.3c1.3-1.3,2.7-2.3,4.3-3.1
			c-1.6-1.2-2.8-2.6-3.7-4.4c-0.9-1.7-1.3-3.6-1.3-5.6c0-1.7,0.3-3.3,1-4.8c0.6-1.5,1.5-2.8,2.6-3.9c1.1-1.1,2.4-2,3.9-2.7
			c1.5-0.7,3.1-1,4.8-1c1.7,0,3.3,0.3,4.8,1c1.5,0.7,2.8,1.5,3.9,2.7c1.1,1.1,2,2.4,2.6,3.9c0.6,1.5,1,3.1,1,4.8
			c0,2-0.4,3.8-1.3,5.6c-0.9,1.7-2.1,3.2-3.7,4.4c1.4,0.7,2.7,1.6,3.8,2.6c1.1,1,2.1,2.2,2.9,3.5c0.8,1.3,1.4,2.7,1.8,4.1
			c0.4,1.5,0.6,3,0.6,4.6h-4.1c0-1.7-0.3-3.3-1-4.8c-0.6-1.5-1.5-2.8-2.6-3.9c-1.1-1.1-2.4-2-3.9-2.7C90.3,72,88.7,71.7,87,71.7z
			 M62.4,92.3c1.1,0,2.2-0.2,3.2-0.7c1-0.4,1.9-1,2.6-1.8c0.7-0.7,1.3-1.6,1.8-2.6c0.4-1,0.6-2.1,0.6-3.2c0-1.1-0.2-2.2-0.6-3.2
			c-0.4-1-1-1.9-1.8-2.6c-0.7-0.8-1.6-1.3-2.6-1.8c-1-0.4-2-0.7-3.2-0.7c-1.1,0-2.2,0.2-3.2,0.7c-1,0.4-1.9,1-2.6,1.8
			c-0.7,0.8-1.3,1.6-1.8,2.6c-0.4,1-0.6,2.1-0.6,3.2c0,1.1,0.2,2.2,0.6,3.2c0.4,1,1,1.9,1.8,2.6c0.8,0.7,1.6,1.3,2.6,1.8
			C60.2,92.1,61.3,92.3,62.4,92.3z M78.8,59.4c0,1.1,0.2,2.2,0.6,3.2c0.4,1,1,1.9,1.8,2.6c0.7,0.7,1.6,1.3,2.6,1.8
			c1,0.4,2.1,0.7,3.2,0.7c1.1,0,2.2-0.2,3.2-0.7c1-0.4,1.9-1,2.6-1.8c0.7-0.7,1.3-1.6,1.8-2.6c0.4-1,0.6-2.1,0.6-3.2
			c0-1.1-0.2-2.2-0.6-3.2c-0.4-1-1-1.9-1.8-2.6c-0.7-0.7-1.6-1.3-2.6-1.8c-1-0.4-2-0.7-3.2-0.7c-1.1,0-2.2,0.2-3.2,0.6
			c-1,0.4-1.9,1-2.6,1.8c-0.7,0.8-1.3,1.6-1.8,2.6C79,57.2,78.8,58.2,78.8,59.4z"/>
	</g>
</g>
<path class="st1" d="M110.2,102.8c-0.1-0.7-0.2-1.3-0.4-1.8l-3.5-9.5c-0.1-0.2-0.2-0.4-0.4-0.7c-0.2-0.2-0.4-0.4-0.6-0.5v-1
	c-0.9-0.4-1.7-0.8-2.5-1c-0.8-0.2-1.7-0.3-2.7-0.3c-0.3,0-0.6,0.1-0.9,0.2c-0.3,0.1-0.5,0.2-0.8,0.3c-0.2,0.1-0.5,0.2-0.7,0.3
	S97.4,89,97.1,89h-5.5c-0.2,0-0.4-0.1-0.7-0.2c-0.2-0.1-0.4-0.2-0.7-0.3s-0.5-0.2-0.8-0.3C89.3,88.1,89,88,88.7,88
	c-1,0-1.9,0.1-2.7,0.3c-0.8,0.2-1.7,0.5-2.5,1v1c-0.4,0.3-0.7,0.7-0.9,1.1l0,0l-3.5,9.5v0c-0.2,0.6-0.3,1.2-0.4,1.8
	c-0.1,0.6-0.1,1.2-0.1,1.9c0,0.5,0.1,1.1,0.2,1.6c0.2,0.6,0.4,1.1,0.7,1.5c0.3,0.5,0.7,0.8,1.2,1.1c0.5,0.3,1,0.4,1.6,0.4
	c0.2,0,0.4,0,0.7-0.1c0.2-0.1,0.4-0.2,0.6-0.3l4.7-4.7c0.1-0.1,0.3-0.3,0.5-0.4c0.2-0.1,0.4-0.2,0.7-0.3c0.2-0.1,0.5-0.1,0.7-0.1
	c0.2,0,0.4,0,0.6,0h7.5c0.2,0,0.4,0,0.6,0c0.2,0,0.5,0.1,0.7,0.1c0.2,0.1,0.4,0.2,0.7,0.3s0.4,0.2,0.5,0.4l4.7,4.7
	c0.1,0.1,0.3,0.3,0.6,0.3c0.2,0.1,0.5,0.1,0.7,0.1c0.6,0,1.1-0.1,1.6-0.4c0.5-0.3,0.9-0.7,1.2-1.1c0.3-0.5,0.5-1,0.7-1.5
	c0.2-0.6,0.2-1.1,0.2-1.6C110.3,104.1,110.3,103.4,110.2,102.8z M95.7,95.3c-0.4,0.4-0.9,0.6-1.5,0.6s-1.1-0.2-1.5-0.6
	c-0.4-0.4-0.6-0.9-0.6-1.5c0-0.6,0.2-1.1,0.6-1.5c0.4-0.4,0.9-0.6,1.5-0.6s1.1,0.2,1.5,0.6c0.4,0.4,0.6,0.9,0.6,1.5
	C96.3,94.3,96.1,94.8,95.7,95.3z"/>
</svg>
