<?xml version="1.0" encoding="utf-8"?>
<!-- Generator: Adobe Illustrator 21.1.0, SVG Export Plug-In . SVG Version: 6.00 Build 0)  -->
<svg version="1.1" id="Layer_1" xmlns="http://www.w3.org/2000/svg" xmlns:xlink="http://www.w3.org/1999/xlink" x="0px" y="0px"
	 viewBox="0 0 160 160" style="enable-background:new 0 0 160 160;" xml:space="preserve">
<style type="text/css">
	.st0{fill:#2A3548;}
	.st1{fill:#F25C00;}
	.st2{fill:#1E2937;}
	.st3{fill:#CC4602;}
	.st4{fill:#E4EAF6;}
</style>
<g>
	<polygon class="st0" points="145.4,114.1 145.4,42.2 79.9,4.4 14.4,42.2 14.4,114.1 79.9,152 	"/>
	<polygon class="st1" points="14.4,109.5 79.9,147.3 145.4,109.5 145.4,117.8 79.9,155.7 14.4,117.8 	"/>
	<polygon class="st2" points="145.4,114.1 145.4,42.2 79.9,4.4 79.9,152 	"/>
	<polygon class="st3" points="145.4,117.8 145.4,109.5 79.9,147.3 79.9,155.7 	"/>
</g>
<g>
	<path class="st2" d="M113.3,70.6c1.3,0.6,2.3,1.5,3.3,2.5c1,1,1.9,2,2.5,3.3c0.6,1.1,1.3,2.4,1.6,3.8s0.6,2.7,0.6,4.1h-5.1
		c0-1.4-0.2-2.7-0.9-4c-0.5-1.3-1.3-2.4-2.3-3.3c-0.9-0.9-2-1.6-3.3-2.3c-1.3-0.5-2.6-0.9-4-0.9s-2.7,0.3-4,0.9
		c-1.3,0.5-2.4,1.3-3.3,2.3c-0.9,0.9-1.6,2-2.3,3.3c-0.5,1.3-0.9,2.6-0.9,4c0,2.5-0.5,4.8-1.6,7c-1.1,2.3-2.6,4-4.6,5.5
		c1.8,0.9,3.4,2,4.8,3.3c1.4,1.3,2.6,2.8,3.6,4.4c1,1.6,1.8,3.4,2.3,5.1c0.5,1.9,0.8,3.8,0.8,5.8h-5.1c0-2.1-0.4-4.1-1.3-6
		s-1.9-3.5-3.4-4.9c-1.5-1.4-3-2.5-4.9-3.4c-1.9-0.9-3.9-1.3-6-1.3c-2.1,0-4.1,0.4-6,1.3c-1.9,0.9-3.5,1.9-4.9,3.4
		c-1.4,1.4-2.5,3-3.4,4.9c-0.9,1.9-1.3,3.9-1.3,6h-5.1c0-2,0.3-3.9,0.7-5.8c0.5-1.9,1.3-3.5,2.3-5.1c1-1.6,2.3-3,3.6-4.4
		c1.4-1.3,3-2.4,4.8-3.3c-2-1.5-3.5-3.2-4.6-5.5c-1.1-2.3-1.6-4.5-1.6-7c0-1.4-0.3-2.7-0.9-4c-0.5-1.3-1.3-2.4-2.3-3.3
		c-0.9-0.9-2-1.6-3.3-2.3c-1.3-0.5-2.6-0.9-4-0.9s-2.8,0.3-4,0.9c-1.3,0.5-2.4,1.3-3.3,2.3c-0.9,0.9-1.6,2-2.3,3.3
		c-0.5,1.3-0.9,2.6-0.9,4h-4.9c0-1.4,0.3-2.7,0.6-4.1c0.4-1.4,0.9-2.6,1.6-3.8c0.6-1.1,1.5-2.3,2.5-3.3c1-1,2.1-1.8,3.2-2.5
		c-0.9-1-1.6-2-2.1-3.3s-0.7-2.5-0.7-3.9s0.3-2.7,0.9-4c0.5-1.3,1.3-2.4,2.3-3.2c0.9-0.9,2-1.6,3.2-2.3c1.3-0.5,2.6-0.9,4-0.9
		c1.4,0,2.8,0.3,4,0.9c1.3,0.5,2.4,1.3,3.2,2.3c0.9,0.9,1.6,2,2.3,3.2c0.5,1.3,0.9,2.6,0.9,4s-0.3,2.6-0.8,3.9
		c-0.5,1.3-1.3,2.4-2.1,3.3c2.3,1.3,4,2.9,5.4,5c1.5-2.1,3.2-3.9,5.6-5.1c2.3-1.3,4.8-1.9,7.3-1.9c2.6,0,5,0.6,7.3,1.9
		c2.3,1.3,4.1,2.9,5.6,5.1c1.4-2.1,3.3-3.8,5.4-5c-0.9-1-1.6-2-2.1-3.3c-0.5-1.3-0.8-2.5-0.8-3.9s0.2-2.7,0.9-4
		c0.5-1.3,1.3-2.4,2.3-3.2c0.9-0.9,2-1.6,3.3-2.3c1.3-0.5,2.6-0.9,4-0.9s2.8,0.3,4,0.9c1.3,0.5,2.4,1.3,3.3,2.3
		c0.9,0.9,1.6,2,2.3,3.2c0.5,1.3,0.9,2.6,0.9,4s-0.3,2.6-0.8,3.9C114.9,68.6,114.1,69.7,113.3,70.6z M49.1,63.6c0,0.7,0.1,1.4,0.4,2
		c0.3,0.6,0.6,1.1,1.1,1.6c0.5,0.5,1,0.9,1.6,1.1c0.6,0.2,1.3,0.4,2,0.4c0.8,0,1.4-0.1,2-0.4c0.6-0.3,1.1-0.6,1.6-1.1
		c0.5-0.5,0.9-1,1.1-1.6s0.4-1.3,0.4-2c0-0.8-0.1-1.4-0.4-2s-0.6-1.1-1.1-1.6c-0.5-0.5-1-0.9-1.6-1.1s-1.3-0.4-2-0.4
		c-0.7,0-1.4,0.1-2,0.4s-1.1,0.6-1.6,1.1c-0.5,0.5-0.9,1-1.1,1.6C49.3,62.1,49.1,62.8,49.1,63.6z M80,94.4c1.4,0,2.8-0.3,4-0.9
		c1.3-0.5,2.4-1.3,3.2-2.3c0.9-0.9,1.6-2,2.3-3.3c0.5-1.3,0.9-2.6,0.9-4c0-1.4-0.2-2.8-0.9-4c-0.5-1.3-1.3-2.4-2.3-3.3
		c-0.9-0.9-2-1.6-3.2-2.3c-1.3-0.5-2.6-0.9-4-0.9s-2.8,0.3-4,0.9c-1.3,0.5-2.4,1.3-3.2,2.3c-0.9,0.9-1.6,2-2.3,3.3
		c-0.5,1.3-0.9,2.6-0.9,4c0,1.4,0.2,2.7,0.9,4c0.5,1.3,1.3,2.4,2.3,3.3c0.9,0.9,2,1.6,3.2,2.3S78.6,94.4,80,94.4z M100.6,63.6
		c0,0.7,0.1,1.4,0.4,2s0.6,1.1,1.1,1.6c0.5,0.5,1,0.9,1.6,1.1c0.6,0.2,1.3,0.4,2,0.4s1.4-0.1,2-0.4c0.6-0.3,1.1-0.6,1.6-1.1
		c0.5-0.5,0.9-1,1.1-1.6c0.2-0.6,0.4-1.3,0.4-2c0-0.8-0.1-1.4-0.4-2s-0.6-1.1-1.1-1.6c-0.5-0.5-1-0.9-1.6-1.1s-1.3-0.4-2-0.4
		s-1.4,0.1-2,0.4s-1.1,0.6-1.6,1.1c-0.5,0.5-0.9,1-1.1,1.6C100.8,62.1,100.6,62.8,100.6,63.6z"/>
</g>
<g>
	<path class="st4" d="M113.3,66.8c1.3,0.6,2.3,1.5,3.3,2.5c1,1,1.9,2,2.5,3.3c0.6,1.1,1.3,2.4,1.6,3.8s0.6,2.7,0.6,4.1h-5.1
		c0-1.4-0.2-2.7-0.9-4c-0.5-1.3-1.3-2.4-2.3-3.3c-0.9-0.9-2-1.6-3.3-2.3c-1.3-0.5-2.6-0.9-4-0.9s-2.7,0.3-4,0.9
		c-1.3,0.5-2.4,1.3-3.3,2.3c-0.9,0.9-1.6,2-2.3,3.3c-0.5,1.3-0.9,2.6-0.9,4c0,2.5-0.5,4.8-1.6,7c-1.1,2.3-2.6,4-4.6,5.5
		c1.8,0.9,3.4,2,4.8,3.3c1.4,1.3,2.6,2.8,3.6,4.4c1,1.6,1.8,3.4,2.3,5.1c0.5,1.9,0.8,3.8,0.8,5.8h-5.1c0-2.1-0.4-4.1-1.3-6
		s-1.9-3.5-3.4-4.9c-1.5-1.4-3-2.5-4.9-3.4c-1.9-0.9-3.9-1.3-6-1.3c-2.1,0-4.1,0.4-6,1.3c-1.9,0.9-3.5,1.9-4.9,3.4
		c-1.4,1.4-2.5,3-3.4,4.9c-0.9,1.9-1.3,3.9-1.3,6h-5.1c0-2,0.3-3.9,0.7-5.8c0.5-1.9,1.3-3.5,2.3-5.1c1-1.6,2.3-3,3.6-4.4
		c1.4-1.3,3-2.4,4.8-3.3c-2-1.5-3.5-3.2-4.6-5.5c-1.1-2.3-1.6-4.5-1.6-7c0-1.4-0.3-2.7-0.9-4c-0.5-1.3-1.3-2.4-2.3-3.3
		c-0.9-0.9-2-1.6-3.3-2.3c-1.3-0.5-2.6-0.9-4-0.9s-2.8,0.3-4,0.9c-1.3,0.5-2.4,1.3-3.3,2.3c-0.9,0.9-1.6,2-2.3,3.3
		c-0.5,1.3-0.9,2.6-0.9,4h-4.9c0-1.4,0.3-2.7,0.6-4.1c0.4-1.4,0.9-2.6,1.6-3.8c0.6-1.1,1.5-2.3,2.5-3.3c1-1,2.1-1.8,3.2-2.5
		c-0.9-1-1.6-2-2.1-3.2c-0.5-1.3-0.7-2.5-0.7-3.9c0-1.4,0.3-2.8,0.9-4c0.5-1.3,1.3-2.4,2.3-3.2c0.9-0.9,2-1.6,3.2-2.3
		c1.3-0.5,2.6-0.9,4-0.9c1.4,0,2.8,0.3,4,0.9c1.3,0.5,2.4,1.3,3.2,2.3c0.9,0.9,1.6,2,2.3,3.2c0.5,1.3,0.9,2.6,0.9,4
		s-0.3,2.6-0.8,3.9c-0.5,1.2-1.3,2.4-2.1,3.2c2.3,1.3,4,2.9,5.4,5c1.5-2.1,3.2-3.9,5.6-5.1c2.3-1.3,4.8-1.9,7.3-1.9
		c2.6,0,5,0.6,7.3,1.9c2.3,1.3,4.1,2.9,5.6,5.1c1.4-2.1,3.3-3.8,5.4-5c-0.9-1-1.6-2-2.1-3.2c-0.5-1.3-0.8-2.5-0.8-3.9
		c0-1.4,0.2-2.8,0.9-4c0.5-1.3,1.3-2.4,2.3-3.2c0.9-0.9,2-1.6,3.3-2.3c1.3-0.5,2.6-0.9,4-0.9s2.8,0.3,4,0.9c1.3,0.5,2.4,1.3,3.3,2.3
		c0.9,0.9,1.6,2,2.3,3.2c0.5,1.3,0.9,2.6,0.9,4s-0.3,2.6-0.8,3.9C114.9,64.8,114.1,65.9,113.3,66.8z M49.1,59.8c0,0.7,0.1,1.4,0.4,2
		c0.3,0.6,0.6,1.1,1.1,1.6c0.5,0.5,1,0.9,1.6,1.1c0.6,0.2,1.3,0.4,2,0.4c0.8,0,1.4-0.1,2-0.4c0.6-0.3,1.1-0.6,1.6-1.1
		c0.5-0.5,0.9-1,1.1-1.6s0.4-1.3,0.4-2c0-0.8-0.1-1.4-0.4-2s-0.6-1.1-1.1-1.6c-0.5-0.5-1-0.9-1.6-1.1s-1.3-0.4-2-0.4
		c-0.7,0-1.4,0.1-2,0.4s-1.1,0.6-1.6,1.1c-0.5,0.5-0.9,1-1.1,1.6C49.3,58.3,49.1,59.1,49.1,59.8z M80,90.7c1.4,0,2.8-0.3,4-0.9
		c1.3-0.5,2.4-1.3,3.2-2.3c0.9-0.9,1.6-2,2.3-3.3c0.5-1.3,0.9-2.6,0.9-4c0-1.4-0.2-2.8-0.9-4c-0.5-1.3-1.3-2.4-2.3-3.3
		c-0.9-0.9-2-1.6-3.2-2.3c-1.3-0.5-2.6-0.9-4-0.9s-2.8,0.3-4,0.9c-1.3,0.5-2.4,1.3-3.2,2.3c-0.9,0.9-1.6,2-2.3,3.3
		c-0.5,1.3-0.9,2.6-0.9,4c0,1.4,0.2,2.7,0.9,4c0.5,1.3,1.3,2.4,2.3,3.3c0.9,0.9,2,1.6,3.2,2.3S78.6,90.7,80,90.7z M100.6,59.8
		c0,0.7,0.1,1.4,0.4,2s0.6,1.1,1.1,1.6c0.5,0.5,1,0.9,1.6,1.1c0.6,0.2,1.3,0.4,2,0.4s1.4-0.1,2-0.4c0.6-0.3,1.1-0.6,1.6-1.1
		c0.5-0.5,0.9-1,1.1-1.6c0.2-0.6,0.4-1.3,0.4-2c0-0.8-0.1-1.4-0.4-2s-0.6-1.1-1.1-1.6c-0.5-0.5-1-0.9-1.6-1.1s-1.3-0.4-2-0.4
		s-1.4,0.1-2,0.4s-1.1,0.6-1.6,1.1c-0.5,0.5-0.9,1-1.1,1.6C100.8,58.3,100.6,59.1,100.6,59.8z"/>
</g>
</svg>
