<?xml version="1.0" encoding="utf-8"?>
<!-- Generator: Adobe Illustrator 21.1.0, SVG Export Plug-In . SVG Version: 6.00 Build 0)  -->
<svg version="1.1" id="Layer_1" xmlns="http://www.w3.org/2000/svg" xmlns:xlink="http://www.w3.org/1999/xlink" x="0px" y="0px"
	 viewBox="0 0 160 160" style="enable-background:new 0 0 160 160;" xml:space="preserve">
<style type="text/css">
	.st0{fill:#2A3548;}
	.st1{fill:#F25C00;}
	.st2{fill:#1E2937;}
	.st3{fill:#CC4602;}
	.st4{fill:#E4EAF6;}
</style>
<g>
	<polygon class="st0" points="145.4,114.1 145.4,42.2 79.9,4.4 14.4,42.2 14.4,114.1 79.9,152 	"/>
	<polygon class="st1" points="14.4,109.5 79.9,147.3 145.4,109.5 145.4,117.8 79.9,155.7 14.4,117.8 	"/>
	<polygon class="st2" points="145.4,114.1 145.4,42.2 79.9,4.4 79.9,152 	"/>
	<polygon class="st3" points="145.4,117.8 145.4,109.5 79.9,147.3 79.9,155.7 	"/>
</g>
<g>
	<path class="st2" d="M105.6,72.9c1,0.5,1.8,1.2,2.6,2c0.8,0.8,1.5,1.6,2,2.6c0.5,0.9,1,1.9,1.3,3c0.3,1.1,0.5,2.2,0.5,3.3h-4.1
		c0-1.1-0.2-2.2-0.7-3.2c-0.4-1-1-1.9-1.8-2.6c-0.7-0.7-1.6-1.3-2.6-1.8c-1-0.4-2.1-0.7-3.2-0.7c-1.1,0-2.2,0.2-3.2,0.7
		c-1,0.4-1.9,1-2.6,1.8c-0.7,0.7-1.3,1.6-1.8,2.6c-0.4,1-0.7,2.1-0.7,3.2c0,2-0.4,3.8-1.3,5.6c-0.9,1.8-2.1,3.2-3.7,4.4
		c1.4,0.7,2.7,1.6,3.8,2.6c1.1,1,2.1,2.2,2.9,3.5c0.8,1.3,1.4,2.7,1.8,4.1c0.4,1.5,0.6,3,0.6,4.6h-4.1c0-1.7-0.3-3.3-1-4.8
		c-0.7-1.5-1.5-2.8-2.7-3.9s-2.4-2-3.9-2.7c-1.5-0.7-3.1-1-4.8-1c-1.7,0-3.3,0.3-4.8,1c-1.5,0.7-2.8,1.5-3.9,2.7
		c-1.1,1.1-2,2.4-2.7,3.9c-0.7,1.5-1,3.1-1,4.8h-4.1c0-1.6,0.2-3.1,0.6-4.6c0.4-1.5,1-2.8,1.8-4.1c0.8-1.3,1.8-2.4,2.9-3.5
		c1.1-1,2.4-1.9,3.8-2.6c-1.6-1.2-2.8-2.6-3.7-4.4c-0.9-1.8-1.3-3.6-1.3-5.6c0-1.1-0.2-2.2-0.7-3.2c-0.4-1-1-1.9-1.8-2.6
		c-0.7-0.7-1.6-1.3-2.6-1.8c-1-0.4-2.1-0.7-3.2-0.7c-1.1,0-2.2,0.2-3.2,0.7c-1,0.4-1.9,1-2.6,1.8c-0.7,0.7-1.3,1.6-1.8,2.6
		c-0.4,1-0.7,2.1-0.7,3.2H46c0-1.1,0.2-2.2,0.5-3.3c0.3-1.1,0.7-2.1,1.3-3c0.5-0.9,1.2-1.8,2-2.6c0.8-0.8,1.7-1.4,2.6-2
		c-0.7-0.8-1.3-1.6-1.7-2.6c-0.4-1-0.6-2-0.6-3.1c0-1.1,0.2-2.2,0.7-3.2c0.4-1,1-1.9,1.8-2.6c0.7-0.7,1.6-1.3,2.6-1.8
		c1-0.4,2.1-0.7,3.2-0.7c1.1,0,2.2,0.2,3.2,0.7c1,0.4,1.9,1,2.6,1.8c0.7,0.7,1.3,1.6,1.8,2.6c0.4,1,0.7,2.1,0.7,3.2
		c0,1.1-0.2,2.1-0.6,3.1c-0.4,1-1,1.9-1.7,2.6c1.8,1,3.2,2.3,4.3,4c1.2-1.7,2.6-3.1,4.5-4.1c1.8-1,3.8-1.5,5.8-1.5
		c2.1,0,4,0.5,5.8,1.5c1.8,1,3.3,2.3,4.5,4.1c1.1-1.7,2.6-3,4.3-4c-0.7-0.8-1.3-1.6-1.7-2.6c-0.4-1-0.6-2-0.6-3.1
		c0-1.1,0.2-2.2,0.7-3.2c0.4-1,1-1.9,1.8-2.6c0.7-0.7,1.6-1.3,2.6-1.8c1-0.4,2.1-0.7,3.2-0.7c1.1,0,2.2,0.2,3.2,0.7
		c1,0.4,1.9,1,2.6,1.8c0.7,0.7,1.3,1.6,1.8,2.6c0.4,1,0.7,2.1,0.7,3.2c0,1.1-0.2,2.1-0.6,3.1C106.9,71.3,106.3,72.2,105.6,72.9z
		 M54.3,67.3c0,0.6,0.1,1.1,0.3,1.6c0.2,0.5,0.5,0.9,0.9,1.3c0.4,0.4,0.8,0.7,1.3,0.9c0.5,0.2,1,0.3,1.6,0.3s1.1-0.1,1.6-0.3
		c0.5-0.2,0.9-0.5,1.3-0.9c0.4-0.4,0.7-0.8,0.9-1.3c0.2-0.5,0.3-1,0.3-1.6s-0.1-1.1-0.3-1.6c-0.2-0.5-0.5-0.9-0.9-1.3
		c-0.4-0.4-0.8-0.7-1.3-0.9c-0.5-0.2-1-0.3-1.6-0.3s-1.1,0.1-1.6,0.3c-0.5,0.2-0.9,0.5-1.3,0.9c-0.4,0.4-0.7,0.8-0.9,1.3
		C54.4,66.1,54.3,66.7,54.3,67.3z M79,92c1.1,0,2.2-0.2,3.2-0.7c1-0.4,1.9-1,2.6-1.8c0.7-0.7,1.3-1.6,1.8-2.6c0.4-1,0.7-2.1,0.7-3.2
		c0-1.1-0.2-2.2-0.7-3.2c-0.4-1-1-1.9-1.8-2.6c-0.7-0.7-1.6-1.3-2.6-1.8c-1-0.4-2.1-0.7-3.2-0.7c-1.1,0-2.2,0.2-3.2,0.7
		c-1,0.4-1.9,1-2.6,1.8c-0.7,0.7-1.3,1.6-1.8,2.6c-0.4,1-0.7,2.1-0.7,3.2c0,1.1,0.2,2.2,0.7,3.2c0.4,1,1,1.9,1.8,2.6
		c0.7,0.7,1.6,1.3,2.6,1.8C76.8,91.8,77.9,92,79,92z M95.5,67.3c0,0.6,0.1,1.1,0.3,1.6c0.2,0.5,0.5,0.9,0.9,1.3
		c0.4,0.4,0.8,0.7,1.3,0.9c0.5,0.2,1,0.3,1.6,0.3s1.1-0.1,1.6-0.3c0.5-0.2,0.9-0.5,1.3-0.9c0.4-0.4,0.7-0.8,0.9-1.3
		c0.2-0.5,0.3-1,0.3-1.6s-0.1-1.1-0.3-1.6c-0.2-0.5-0.5-0.9-0.9-1.3c-0.4-0.4-0.8-0.7-1.3-0.9c-0.5-0.2-1-0.3-1.6-0.3
		s-1.1,0.1-1.6,0.3c-0.5,0.2-0.9,0.5-1.3,0.9c-0.4,0.4-0.7,0.8-0.9,1.3C95.6,66.1,95.5,66.7,95.5,67.3z"/>
</g>
<g>
	<path class="st4" d="M105.6,69.9c1,0.5,1.8,1.2,2.6,2c0.8,0.8,1.5,1.6,2,2.6c0.5,0.9,1,1.9,1.3,3c0.3,1.1,0.5,2.2,0.5,3.3h-4.1
		c0-1.1-0.2-2.2-0.7-3.2c-0.4-1-1-1.9-1.8-2.6c-0.7-0.7-1.6-1.3-2.6-1.8c-1-0.4-2.1-0.7-3.2-0.7c-1.1,0-2.2,0.2-3.2,0.7
		c-1,0.4-1.9,1-2.6,1.8c-0.7,0.7-1.3,1.6-1.8,2.6c-0.4,1-0.7,2.1-0.7,3.2c0,2-0.4,3.8-1.3,5.6c-0.9,1.8-2.1,3.2-3.7,4.4
		c1.4,0.7,2.7,1.6,3.8,2.6c1.1,1,2.1,2.2,2.9,3.5c0.8,1.3,1.4,2.7,1.8,4.1c0.4,1.5,0.6,3,0.6,4.6h-4.1c0-1.7-0.3-3.3-1-4.8
		c-0.7-1.5-1.5-2.8-2.7-3.9s-2.4-2-3.9-2.7c-1.5-0.7-3.1-1-4.8-1c-1.7,0-3.3,0.3-4.8,1c-1.5,0.7-2.8,1.5-3.9,2.7
		c-1.1,1.1-2,2.4-2.7,3.9c-0.7,1.5-1,3.1-1,4.8h-4.1c0-1.6,0.2-3.1,0.6-4.6c0.4-1.5,1-2.8,1.8-4.1c0.8-1.3,1.8-2.4,2.9-3.5
		c1.1-1,2.4-1.9,3.8-2.6c-1.6-1.2-2.8-2.6-3.7-4.4c-0.9-1.8-1.3-3.6-1.3-5.6c0-1.1-0.2-2.2-0.7-3.2c-0.4-1-1-1.9-1.8-2.6
		c-0.7-0.7-1.6-1.3-2.6-1.8c-1-0.4-2.1-0.7-3.2-0.7c-1.1,0-2.2,0.2-3.2,0.7c-1,0.4-1.9,1-2.6,1.8c-0.7,0.7-1.3,1.6-1.8,2.6
		c-0.4,1-0.7,2.1-0.7,3.2H46c0-1.1,0.2-2.2,0.5-3.3c0.3-1.1,0.7-2.1,1.3-3c0.5-0.9,1.2-1.8,2-2.6c0.8-0.8,1.7-1.4,2.6-2
		c-0.7-0.8-1.3-1.6-1.7-2.6c-0.4-1-0.6-2-0.6-3.1c0-1.1,0.2-2.2,0.7-3.2c0.4-1,1-1.9,1.8-2.6c0.7-0.7,1.6-1.3,2.6-1.8
		c1-0.4,2.1-0.7,3.2-0.7c1.1,0,2.2,0.2,3.2,0.7c1,0.4,1.9,1,2.6,1.8c0.7,0.7,1.3,1.6,1.8,2.6c0.4,1,0.7,2.1,0.7,3.2
		c0,1.1-0.2,2.1-0.6,3.1c-0.4,1-1,1.9-1.7,2.6c1.8,1,3.2,2.3,4.3,4c1.2-1.7,2.6-3.1,4.5-4.1c1.8-1,3.8-1.5,5.8-1.5
		c2.1,0,4,0.5,5.8,1.5c1.8,1,3.3,2.3,4.5,4.1c1.1-1.7,2.6-3,4.3-4c-0.7-0.8-1.3-1.6-1.7-2.6c-0.4-1-0.6-2-0.6-3.1
		c0-1.1,0.2-2.2,0.7-3.2c0.4-1,1-1.9,1.8-2.6c0.7-0.7,1.6-1.3,2.6-1.8c1-0.4,2.1-0.7,3.2-0.7c1.1,0,2.2,0.2,3.2,0.7
		c1,0.4,1.9,1,2.6,1.8c0.7,0.7,1.3,1.6,1.8,2.6c0.4,1,0.7,2.1,0.7,3.2c0,1.1-0.2,2.1-0.6,3.1C106.9,68.3,106.3,69.2,105.6,69.9z
		 M54.3,64.3c0,0.6,0.1,1.1,0.3,1.6c0.2,0.5,0.5,0.9,0.9,1.3c0.4,0.4,0.8,0.7,1.3,0.9c0.5,0.2,1,0.3,1.6,0.3s1.1-0.1,1.6-0.3
		c0.5-0.2,0.9-0.5,1.3-0.9c0.4-0.4,0.7-0.8,0.9-1.3c0.2-0.5,0.3-1,0.3-1.6s-0.1-1.1-0.3-1.6c-0.2-0.5-0.5-0.9-0.9-1.3
		c-0.4-0.4-0.8-0.7-1.3-0.9c-0.5-0.2-1-0.3-1.6-0.3s-1.1,0.1-1.6,0.3c-0.5,0.2-0.9,0.5-1.3,0.9c-0.4,0.4-0.7,0.8-0.9,1.3
		C54.4,63.1,54.3,63.7,54.3,64.3z M79,89c1.1,0,2.2-0.2,3.2-0.7c1-0.4,1.9-1,2.6-1.8c0.7-0.7,1.3-1.6,1.8-2.6c0.4-1,0.7-2.1,0.7-3.2
		c0-1.1-0.2-2.2-0.7-3.2c-0.4-1-1-1.9-1.8-2.6c-0.7-0.7-1.6-1.3-2.6-1.8c-1-0.4-2.1-0.7-3.2-0.7c-1.1,0-2.2,0.2-3.2,0.7
		c-1,0.4-1.9,1-2.6,1.8c-0.7,0.7-1.3,1.6-1.8,2.6c-0.4,1-0.7,2.1-0.7,3.2c0,1.1,0.2,2.2,0.7,3.2c0.4,1,1,1.9,1.8,2.6
		c0.7,0.7,1.6,1.3,2.6,1.8C76.8,88.8,77.9,89,79,89z M95.5,64.3c0,0.6,0.1,1.1,0.3,1.6c0.2,0.5,0.5,0.9,0.9,1.3
		c0.4,0.4,0.8,0.7,1.3,0.9c0.5,0.2,1,0.3,1.6,0.3s1.1-0.1,1.6-0.3c0.5-0.2,0.9-0.5,1.3-0.9c0.4-0.4,0.7-0.8,0.9-1.3
		c0.2-0.5,0.3-1,0.3-1.6s-0.1-1.1-0.3-1.6c-0.2-0.5-0.5-0.9-0.9-1.3c-0.4-0.4-0.8-0.7-1.3-0.9c-0.5-0.2-1-0.3-1.6-0.3
		s-1.1,0.1-1.6,0.3c-0.5,0.2-0.9,0.5-1.3,0.9c-0.4,0.4-0.7,0.8-0.9,1.3C95.6,63.1,95.5,63.7,95.5,64.3z"/>
</g>
</svg>
