<?xml version="1.0" encoding="utf-8"?>
<!-- Generator: Adobe Illustrator 21.1.0, SVG Export Plug-In . SVG Version: 6.00 Build 0)  -->
<svg version="1.1" id="Layer_1" xmlns="http://www.w3.org/2000/svg" xmlns:xlink="http://www.w3.org/1999/xlink" x="0px" y="0px"
	 viewBox="0 0 160 160" style="enable-background:new 0 0 160 160;" xml:space="preserve">
<style type="text/css">
	.st0{fill:#2A3548;}
	.st1{fill:#F25C00;}
	.st2{fill:#1E2937;}
	.st3{fill:#CC4602;}
	.st4{fill:#D7DEED;}
</style>
<g>
	<polygon class="st0" points="145.4,114.1 145.4,42.2 79.9,4.4 14.4,42.2 14.4,114.1 79.9,152 	"/>
	<polygon class="st1" points="14.4,109.5 79.9,147.3 145.4,109.5 145.4,117.8 79.9,155.7 14.4,117.8 	"/>
	<polygon class="st2" points="145.4,114.1 145.4,42.2 79.9,4.4 79.9,152 	"/>
	<polygon class="st3" points="145.4,117.8 145.4,109.5 79.9,147.3 79.9,155.7 	"/>
</g>
<g>
	<path class="st2" d="M110.8,77.3c-0.5-1.9-1.3-3.5-2.3-5.1c-1-1.6-2.1-3.1-3.6-4.4c-1.4-1.3-3-2.4-4.8-3.3c2-1.5,3.5-3.3,4.6-5.5
		c1.1-2.1,1.6-4.5,1.6-7c0-2.1-0.4-4.1-1.3-6c-0.8-1.9-1.9-3.5-3.3-4.9c-1.4-1.4-3-2.5-4.9-3.4s-3.9-1.3-6-1.3c-2.1,0-4.1,0.4-6,1.3
		s-3.5,1.9-4.9,3.4c-1.4,1.4-2.5,3-3.3,4.9s-1.3,3.9-1.3,6c0,2.5,0.5,4.8,1.6,7c1.1,2.1,2.6,4,4.6,5.5c-2,1-3.8,2.4-5.4,3.9
		c-1.6,1.6-2.9,3.4-3.9,5.4c-1.5-2-3.3-3.5-5.4-4.6c-2.1-1.1-4.5-1.6-7-1.6c-2.1,0-4.1,0.4-6,1.3s-3.5,1.9-4.9,3.4
		c-1.4,1.4-2.5,3-3.2,4.9c-0.8,1.9-1.3,3.9-1.3,6c0,2.5,0.5,4.8,1.6,7c1.1,2.1,2.6,4,4.6,5.5c-1.8,0.9-3.4,2-4.8,3.3
		c-1.4,1.3-2.6,2.8-3.6,4.4c-1,1.6-1.8,3.3-2.3,5.1c-0.5,1.9-0.8,3.8-0.8,5.8h5.1c0-2,0.4-4,1.1-5.9c2.3-6,8-10.3,14.8-10.3
		c6.5,0,12.1,4,14.6,9.6v-7.4c-1.8-1.9-3.8-3.5-6.1-4.6c2-1.5,3.5-3.3,4.6-5.5c1.1-2.1,1.6-4.5,1.6-7v-0.4c0.1-2.1,0.6-4.1,1.4-5.9
		c0.7-1.9,1.9-3.5,3.2-4.9c1.4-1.4,3-2.5,4.8-3.3c1.9-0.8,3.9-1.1,6-1.1s4.1,0.4,6,1.3s3.5,1.9,4.9,3.4c1.4,1.4,2.5,3,3.3,4.9
		s1.3,3.9,1.3,6h5.1C111.7,81,111.5,79.2,110.8,77.3z M69.8,87c-0.5,1.3-1.3,2.4-2.3,3.3c-0.9,0.9-2,1.6-3.2,2.3
		c-1.3,0.5-2.5,0.9-4,0.9c-1.4,0-2.8-0.3-4-0.9c-1.3-0.5-2.4-1.3-3.3-2.3c-1-0.9-1.6-2-2.3-3.3c-0.5-1.3-0.7-2.6-0.7-4
		s0.3-2.7,0.7-4c0.5-1.3,1.3-2.4,2.3-3.3c0.9-1,2-1.6,3.3-2.3c1.3-0.5,2.6-0.9,4-0.9c1.4,0,2.8,0.2,4,0.9c1.3,0.5,2.4,1.3,3.2,2.3
		c0.9,1,1.6,2,2.3,3.3c0.5,1.3,0.8,2.6,0.8,4C70.7,84.4,70.5,85.8,69.8,87z M95.2,61.5c-1.3,0.5-2.5,0.9-4,0.9c-1.4,0-2.8-0.2-4-0.9
		C86,61,84.8,60.3,84,59.3c-0.9-0.9-1.6-2-2.3-3.3c-0.5-1.3-0.8-2.6-0.8-4c0-1.4,0.3-2.8,0.8-4s1.3-2.4,2.3-3.3c0.9-1,2-1.6,3.3-2.2
		c1.3-0.5,2.6-0.8,4-0.8c1.4,0,2.7,0.3,4,0.9c1.3,0.5,2.4,1.3,3.3,2.2c0.9,0.9,1.6,2,2.3,3.3c0.5,1.3,0.8,2.6,0.8,4
		c0,1.4-0.2,2.7-0.8,4c-0.5,1.3-1.3,2.4-2.3,3.3C97.5,60.3,96.5,61,95.2,61.5z"/>
</g>
<g>
	<g>
		<path class="st4" d="M91.2,63.8c-2.1,0-4.1,0.4-6,1.1s-3.4,1.9-4.8,3.3c-1.4,1.4-2.4,3-3.3,4.9c-0.9,1.9-1.3,3.9-1.4,5.9v0.4
			c0,2.5-0.5,4.8-1.6,7c-1.1,2.2-2.6,4-4.6,5.5c2.4,1.1,4.4,2.7,6.1,4.6v11.3c-0.2-1.9-0.9-3.6-1.8-5.2c-0.9-1.6-2-2.9-3.4-4.1
			c-1.4-1.1-2.9-2-4.6-2.6c-1.8-0.6-3.5-1-5.4-1c-2.1,0-4.1,0.4-6,1.3c-1.9,0.9-3.5,1.9-4.9,3.4c-1.4,1.4-2.5,3-3.2,4.9
			c-0.8,1.9-1.3,3.9-1.3,6H40c0-2,0.3-3.9,0.8-5.7s1.3-3.5,2.2-5.1c1-1.6,2.3-3,3.6-4.4c1.4-1.3,3-2.4,4.8-3.3
			c-2-1.5-3.5-3.2-4.6-5.5c-1.1-2.1-1.6-4.5-1.6-7c0-2.1,0.4-4.1,1.3-6c0.7-1.9,1.9-3.5,3.2-4.9c1.4-1.4,3-2.5,4.9-3.4
			s3.9-1.3,6-1.3c2.5,0,4.8,0.5,7,1.6c2.1,1.1,4,2.6,5.4,4.6c1-2,2.3-3.9,3.9-5.4c1.6-1.6,3.4-2.9,5.4-3.9c-2-1.5-3.5-3.3-4.6-5.5
			c-1.1-2.1-1.6-4.5-1.6-7c0-2.1,0.4-4.1,1.3-6c0.8-1.9,1.9-3.5,3.3-4.9c1.4-1.4,3-2.5,4.9-3.4s3.9-1.3,6-1.3c2.1,0,4.1,0.4,6,1.3
			s3.5,1.9,4.9,3.4c1.4,1.4,2.5,3,3.2,4.9c0.8,1.9,1.3,3.9,1.3,6c0,2.5-0.5,4.7-1.6,7c-1.1,2.1-2.6,4-4.6,5.5c1.8,0.9,3.4,2,4.8,3.2
			c1.4,1.2,2.6,2.7,3.6,4.4c1,1.6,1.8,3.4,2.3,5.1c0.5,1.9,0.7,3.8,0.7,5.8h-5.1c0-2.1-0.4-4.1-1.3-6c-0.8-1.9-1.9-3.5-3.3-4.9
			c-1.4-1.4-3-2.5-4.9-3.4C95.3,64.2,93.3,63.8,91.2,63.8z M60.5,89.5c1.4,0,2.7-0.3,4-0.9c1.3-0.5,2.4-1.3,3.3-2.3
			c0.9-0.9,1.6-2,2.3-3.3c0.5-1.3,0.7-2.6,0.7-4c0-1.4-0.2-2.7-0.7-4c-0.5-1.3-1.3-2.4-2.3-3.3c-0.9-1-2-1.6-3.3-2.3
			c-1.2-0.5-2.5-0.9-4-0.9c-1.4,0-2.8,0.3-4,0.9c-1.3,0.5-2.4,1.3-3.2,2.3c-0.9,1-1.6,2-2.3,3.3c-0.5,1.3-0.8,2.6-0.8,4
			c0,1.4,0.3,2.8,0.8,4c0.5,1.3,1.3,2.4,2.3,3.3c1,0.9,2,1.6,3.2,2.3C57.7,89.3,59.1,89.5,60.5,89.5z M81,48.4c0,1.4,0.3,2.8,0.8,4
			s1.3,2.4,2.3,3.3c0.9,0.9,2,1.6,3.3,2.3c1.3,0.5,2.6,0.9,4,0.9c1.4,0,2.7-0.2,4-0.9c1.3-0.5,2.4-1.3,3.3-2.3
			c0.9-0.9,1.6-2,2.3-3.3c0.5-1.3,0.8-2.6,0.8-4c0-1.4-0.2-2.8-0.8-4c-0.5-1.3-1.3-2.4-2.3-3.3c-0.9-0.9-2-1.6-3.3-2.2
			c-1.3-0.5-2.5-0.9-4-0.9c-1.4,0-2.8,0.3-4,0.8C86,39.3,84.8,40,84,41c-0.9,1-1.6,2-2.3,3.2C81.2,45.7,81,46.9,81,48.4z"/>
	</g>
</g>
<path class="st1" d="M120.2,102.7c-0.1-0.9-0.2-1.6-0.5-2.3l-4.4-11.9c-0.1-0.2-0.3-0.5-0.5-0.9c-0.3-0.3-0.5-0.5-0.8-0.6v-1.3
	c-1.1-0.5-2.1-1-3.1-1.3c-1-0.3-2.1-0.4-3.4-0.4c-0.4,0-0.7,0.1-1.1,0.3c-0.4,0.1-0.6,0.2-1,0.4c-0.3,0.1-0.6,0.3-0.9,0.4
	c-0.2,0.1-0.4,0.2-0.8,0.2H97c-0.2,0-0.5-0.1-0.9-0.2c-0.3-0.1-0.5-0.3-0.9-0.4c-0.4-0.1-0.6-0.2-1-0.4c-0.1-0.1-0.5-0.3-0.9-0.3
	c-1.3,0-2.4,0.1-3.4,0.4c-1,0.2-2.1,0.6-3.1,1.3V87c-0.5,0.4-0.9,0.9-1.1,1.4l0,0l-4.4,11.9l0,0c-0.2,0.7-0.4,1.5-0.5,2.3
	c-0.1,0.8-0.1,1.5-0.1,2.4c0,0.6,0.1,1.4,0.3,2c0.2,0.8,0.5,1.4,0.9,1.9c0.4,0.6,0.9,1,1.5,1.4s1.3,0.5,2,0.5c0.2,0,0.5,0,0.9-0.1
	c0.3-0.1,0.5-0.2,0.8-0.4l5.9-5.9c0.1-0.1,0.4-0.4,0.6-0.5c0.3-0.1,0.5-0.3,0.9-0.4c0.2-0.1,0.6-0.1,0.9-0.1c0.3,0,0.5,0,0.8,0h9.4
	c0.3,0,0.5,0,0.8,0c0.2,0,0.6,0.1,0.9,0.1c0.3,0.1,0.5,0.2,0.9,0.4s0.5,0.3,0.6,0.5l5.9,5.9c0.1,0.1,0.4,0.4,0.8,0.4
	c0.3,0.1,0.6,0.1,0.9,0.1c0.7,0,1.4-0.1,2-0.5c0.6-0.4,1.1-0.9,1.5-1.4c0.4-0.6,0.6-1.3,0.9-1.9c0.3-0.8,0.3-1.4,0.3-2
	C120.3,104.3,120.3,103.4,120.2,102.7z M102.1,93.3c-0.5,0.5-1.1,0.8-1.9,0.8s-1.4-0.3-1.9-0.8s-0.8-1.1-0.8-1.9s0.3-1.4,0.8-1.9
	s1.1-0.8,1.9-0.8s1.4,0.3,1.9,0.8s0.8,1.1,0.8,1.9C102.8,92,102.6,92.7,102.1,93.3z"/>
</svg>
