<?xml version="1.0" encoding="utf-8"?>
<!-- Generator: Adobe Illustrator 21.1.0, SVG Export Plug-In . SVG Version: 6.00 Build 0)  -->
<svg version="1.1" id="Layer_1" xmlns="http://www.w3.org/2000/svg" xmlns:xlink="http://www.w3.org/1999/xlink" x="0px" y="0px"
	 viewBox="0 0 160 160" style="enable-background:new 0 0 160 160;" xml:space="preserve">
<style type="text/css">
	.st0{fill:#2A3548;}
	.st1{fill:#F25C00;}
	.st2{fill:#1E2937;}
	.st3{fill:#CC4602;}
	.st4{fill:#E4EAF6;}
</style>
<g>
	<polygon class="st0" points="145.4,116 145.4,42.2 79.9,4.4 14.4,42.2 14.4,116 79.9,153.8 	"/>
	<polygon class="st1" points="14.4,109.5 79.9,147.3 145.4,109.5 145.4,117.8 79.9,155.7 14.4,117.8 	"/>
	<polygon class="st2" points="145.4,116 145.4,42.2 79.9,4.4 79.9,153.8 	"/>
	<polygon class="st3" points="145.4,117.8 145.4,109.5 79.9,147.3 79.9,155.7 	"/>
</g>
<path class="st2" d="M114,64.1c0-1.2-0.1-2.4-0.4-3.5l-9.8,3.3l-5.8-5.7l3.2-9.8c-1.1-0.2-2.2-0.4-3.4-0.4
	c-8.9,0-16.1,7.2-16.1,16.1c0,1,0.1,1.9,0.3,2.8c0,0-0.1,0-0.1,0L65.7,83.1c0,0-1.7,0-2.7,0c-8.7,0-15.8,6.9-16.1,15.6l0,0l0,0
	c0,0.2,0,0.3,0,0.5c0,1.2,0.1,2.4,0.4,3.5l9.8-2.7l5.1,5.1l-2.6,9.8c1.1,0.2,2.2,0.4,3.4,0.4c8.9,0,16.1-7.2,16.1-16.1
	c0-1-0.1-1.9-0.3-2.8c0,0,0.1,0,0.1,0l16.4-16.2c0,0,1.7,0,2.7,0c8.7,0,15.8-6.9,16.1-15.6l0,0l0,0C114,64.5,114,64.3,114,64.1z
	 M97.9,76.7c-1.3,0-2.5-0.2-3.7-0.6L75,95.2c0.4,1.2,0.6,2.6,0.6,4c0,6.4-4.8,11.7-11,12.5l2.1-7.8l-8.4-8.3l-7.8,2.1
	c0.7-6.3,6.1-11.1,12.5-11.1c1.3,0,2.5,0.2,3.7,0.6l19.2-19c-0.4-1.2-0.6-2.6-0.6-4c0-6.4,4.8-11.7,11-12.5L95,59.5l7.7,7.6l7.8-1.5
	C109.7,71.9,104.4,76.7,97.9,76.7z"/>
<g>
	<path class="st4" d="M112,62.1c0-1.2-0.1-2.4-0.4-3.5l-9.8,3.3l-5.8-5.7l3.2-9.8c-1.1-0.2-2.2-0.4-3.4-0.4
		c-8.9,0-16.1,7.2-16.1,16.1c0,1,0.1,1.9,0.3,2.8c0,0-0.1,0-0.1,0L63.7,81.1c0,0-1.7,0-2.7,0c-8.7,0-15.8,6.9-16.1,15.6l0,0l0,0
		c0,0.2,0,0.3,0,0.5c0,1.2,0.1,2.4,0.4,3.5l9.8-2.7l5.1,5.1l-2.6,9.8c1.1,0.2,2.2,0.4,3.4,0.4c8.9,0,16.1-7.2,16.1-16.1
		c0-1-0.1-1.9-0.3-2.8c0,0,0.1,0,0.1,0l16.4-16.2c0,0,1.7,0,2.7,0c8.7,0,15.8-6.9,16.1-15.6l0,0l0,0C112,62.5,112,62.3,112,62.1z
		 M95.9,74.7c-1.3,0-2.5-0.2-3.7-0.6L73,93.2c0.4,1.2,0.6,2.6,0.6,4c0,6.4-4.8,11.7-11,12.5l2.1-7.8l-8.4-8.3l-7.8,2.1
		c0.7-6.3,6.1-11.1,12.5-11.1c1.3,0,2.5,0.2,3.7,0.6l19.2-19c-0.4-1.2-0.6-2.6-0.6-4c0-6.4,4.8-11.7,11-12.5L93,57.5l7.7,7.6
		l7.8-1.5C107.7,69.9,102.4,74.7,95.9,74.7z"/>
	<g>
		<path class="st1" d="M100.7,65.7l-8.4-8.3l3-11.4l11.3-3.1l8.4,8.3l-3,11.4L100.7,65.7z M96.7,56.3l5.1,5.1l6.9-1.9l1.8-6.9
			l-5.1-5.1l-6.9,1.9L96.7,56.3z"/>
	</g>
</g>
</svg>
