<?xml version="1.0" encoding="utf-8"?>
<!-- Generator: Adobe Illustrator 21.1.0, SVG Export Plug-In . SVG Version: 6.00 Build 0)  -->
<svg version="1.1" id="Layer_1" xmlns="http://www.w3.org/2000/svg" xmlns:xlink="http://www.w3.org/1999/xlink" x="0px" y="0px"
	 viewBox="0 0 388 140" style="enable-background:new 0 0 388 140;" xml:space="preserve">
<style type="text/css">
	.st0{fill:#334154;}
	.st1{fill:#2A3548;}
	.st2{fill:#F25C00;}
	.st3{fill:#1E2937;}
	.st4{fill:#CC4602;}
	.st5{fill:#D7DEED;}
	.st6{opacity:0.5;}
	.st7{opacity:5.000000e-02;}
	.st8{opacity:0.15;}
	.st9{opacity:0.25;}
	.st10{fill:none;stroke:#D7DEED;stroke-miterlimit:10;}
	.st11{fill:none;}
</style>
<rect class="st0" width="388" height="140"/>
<g>
	<g>
		<polygon class="st1" points="133,98.7 133,41.3 83.1,12.5 33,41.3 33,98.7 83.1,127.5 		"/>
		<polygon class="st2" points="33,92.4 83.1,121.2 133,92.4 133,98.7 83.1,127.5 33,98.7 		"/>
		<polygon class="st3" points="133,98.7 133,41.3 83.1,12.5 83.1,127.5 		"/>
		<polygon class="st4" points="133,98.7 133,92.4 83.1,121.2 83.1,127.5 		"/>
	</g>
	<g>
		<path class="st3" d="M98.9,87.2c-1.6,0-3,1-3.5,2.5H82.1l4.2-4.2H88c0.6,1.5,2,2.5,3.7,2.5c2.1,0,3.8-1.7,3.8-3.8
			c0-2.1-1.7-3.8-3.8-3.8c-1.5,0-2.7,0.8-3.4,2.1h-3.1l-7.4,7.1H66.6v-4.7l-3-3v10.8H71l7.3,7.2h5.1c0.6,1.3,1.9,2.1,3.4,2.1
			c2.1,0,3.8-1.7,3.8-3.8s-1.7-3.8-3.8-3.8c-1.6,0-3,1-3.5,2.5h-3.7l-4.2-4.2h20.2c0.6,1.3,1.9,2.1,3.4,2.1c2.1,0,3.8-1.7,3.8-3.8
			C102.7,88.9,101,87.2,98.9,87.2z"/>
	</g>
	<g>
		<g>
			<rect x="70.7" y="47.5" class="st5" width="12.8" height="3.3"/>
			<rect x="70.7" y="54" class="st5" width="13.2" height="3.3"/>
			<rect x="70.7" y="74.7" class="st5" width="10.8" height="3.3"/>
			<path class="st5" d="M89.9,41.2H63.6v34l3,3v-34h21.2v12.1h12.1v26.1c1.1,0.1,2.1,0.6,3,1.2V54.1L89.9,41.2z M90.7,53.2v-6.9
				l7,6.9H90.7z"/>
		</g>
		<path class="st2" d="M98.9,85.1c-1.6,0-3,1-3.5,2.5H82.1l4.2-4.2H88c0.5,1.5,1.9,2.5,3.6,2.5c2.1,0,3.8-1.7,3.8-3.8
			c0-2.1-1.7-3.8-3.8-3.8c-1.5,0-2.7,0.8-3.4,2.1h-3.1l-7.4,7.1H66.6v-4.7l-3-3v10.8H71l7.3,7.2h5.1c0.6,1.3,1.9,2.1,3.4,2.1
			c2.1,0,3.8-1.7,3.8-3.8c0-2.1-1.7-3.8-3.8-3.8c-1.6,0-3,1-3.5,2.5h-3.7l-4.2-4.2h20.2c0.6,1.3,1.9,2.1,3.4,2.1
			c2.1,0,3.8-1.7,3.8-3.8C102.7,86.9,101,85.1,98.9,85.1z M91.6,80.4c0.9,0,1.7,0.8,1.7,1.7c0,0.9-0.8,1.7-1.7,1.7
			c-0.9,0-1.7-0.8-1.7-1.7C89.9,81.1,90.7,80.4,91.6,80.4z M86.8,94.5c0.9,0,1.7,0.8,1.7,1.7c0,0.9-0.8,1.7-1.7,1.7
			c-0.9,0-1.7-0.8-1.7-1.7C85.1,95.2,85.9,94.5,86.8,94.5z M98.9,90.7c-0.9,0-1.7-0.8-1.7-1.7c0-0.9,0.8-1.7,1.7-1.7
			s1.7,0.8,1.7,1.7C100.7,89.9,99.9,90.7,98.9,90.7z"/>
		<rect x="77.1" y="60.9" class="st5" width="16.9" height="3.3"/>
		<ellipse class="st5" cx="72.7" cy="62.6" rx="1.7" ry="1.7"/>
		<rect x="70.8" y="67.8" class="st5" width="23.2" height="3.3"/>
	</g>
</g>
<g class="st6">
	<g class="st7">
		<g>
			<path class="st5" d="M153.4,8.5v19h-3.3V12.2c-0.6,0.4-1.2,0.7-1.9,1s-1.5,0.5-2.4,0.7v-2.6c0.6-0.2,1.1-0.3,1.6-0.5
				s1-0.4,1.5-0.6c0.5-0.2,1-0.5,1.5-0.8s1-0.6,1.6-0.9C152,8.5,153.4,8.5,153.4,8.5z"/>
			<path class="st5" d="M164.6,27.8c-2.1,0-3.8-0.8-5-2.4s-1.8-3.9-1.8-6.8c0-3.3,0.6-5.8,1.9-7.4c1.3-1.7,3.1-2.5,5.4-2.5
				c4.5,0,6.8,3.2,6.8,9.5c0,3.1-0.6,5.5-1.9,7.2C168.6,27,166.9,27.8,164.6,27.8z M164.9,11c-2.5,0-3.7,2.5-3.7,7.4
				c0,4.6,1.2,7,3.7,7c2.4,0,3.6-2.4,3.6-7.1C168.4,13.5,167.2,11,164.9,11z"/>
			<path class="st5" d="M181.1,27.8c-2.1,0-3.8-0.8-5-2.4s-1.8-3.9-1.8-6.8c0-3.3,0.6-5.8,1.9-7.4c1.3-1.7,3.1-2.5,5.4-2.5
				c4.5,0,6.8,3.2,6.8,9.5c0,3.1-0.6,5.5-1.9,7.2C185.2,27,183.4,27.8,181.1,27.8z M181.4,11c-2.5,0-3.7,2.5-3.7,7.4
				c0,4.6,1.2,7,3.7,7c2.4,0,3.6-2.4,3.6-7.1C184.9,13.5,183.8,11,181.4,11z"/>
			<path class="st5" d="M198.5,8.5v19h-3.3V12.2c-0.6,0.4-1.2,0.7-1.9,1s-1.5,0.5-2.4,0.7v-2.6c0.6-0.2,1.1-0.3,1.6-0.5
				s1-0.4,1.5-0.6c0.5-0.2,1-0.5,1.5-0.8s1-0.6,1.6-0.9C197.1,8.5,198.5,8.5,198.5,8.5z"/>
			<path class="st5" d="M210.5,8.5v19h-3.3V12.2c-0.6,0.4-1.2,0.7-1.9,1s-1.5,0.5-2.4,0.7v-2.6c0.6-0.2,1.1-0.3,1.6-0.5
				s1-0.4,1.5-0.6c0.5-0.2,1-0.5,1.5-0.8s1-0.6,1.6-0.9C209.1,8.5,210.5,8.5,210.5,8.5z"/>
			<path class="st5" d="M221.7,27.8c-2.1,0-3.8-0.8-5-2.4s-1.8-3.9-1.8-6.8c0-3.3,0.6-5.8,1.9-7.4c1.3-1.7,3.1-2.5,5.4-2.5
				c4.5,0,6.8,3.2,6.8,9.5c0,3.1-0.6,5.5-1.9,7.2C225.7,27,223.9,27.8,221.7,27.8z M222,11c-2.5,0-3.7,2.5-3.7,7.4
				c0,4.6,1.2,7,3.7,7c2.4,0,3.6-2.4,3.6-7.1C225.5,13.5,224.3,11,222,11z"/>
			<path class="st5" d="M238.2,27.8c-2.1,0-3.8-0.8-5-2.4s-1.8-3.9-1.8-6.8c0-3.3,0.6-5.8,1.9-7.4c1.3-1.7,3.1-2.5,5.4-2.5
				c4.5,0,6.8,3.2,6.8,9.5c0,3.1-0.6,5.5-1.9,7.2C242.2,27,240.5,27.8,238.2,27.8z M238.5,11c-2.5,0-3.7,2.5-3.7,7.4
				c0,4.6,1.2,7,3.7,7c2.4,0,3.6-2.4,3.6-7.1C242,13.5,240.9,11,238.5,11z"/>
			<path class="st5" d="M255.6,8.5v19h-3.3V12.2c-0.6,0.4-1.2,0.7-1.9,1s-1.5,0.5-2.4,0.7v-2.6c0.6-0.2,1.1-0.3,1.6-0.5
				s1-0.4,1.5-0.6c0.5-0.2,1-0.5,1.5-0.8s1-0.6,1.6-0.9C254.2,8.5,255.6,8.5,255.6,8.5z"/>
			<path class="st5" d="M266.7,27.8c-2.1,0-3.8-0.8-5-2.4s-1.8-3.9-1.8-6.8c0-3.3,0.6-5.8,1.9-7.4c1.3-1.7,3.1-2.5,5.4-2.5
				c4.5,0,6.8,3.2,6.8,9.5c0,3.1-0.6,5.5-1.9,7.2C270.8,27,269,27.8,266.7,27.8z M267,11c-2.5,0-3.7,2.5-3.7,7.4c0,4.6,1.2,7,3.7,7
				c2.4,0,3.6-2.4,3.6-7.1C270.6,13.5,269.4,11,267,11z"/>
			<path class="st5" d="M284.1,8.5v19h-3.3V12.2c-0.6,0.4-1.2,0.7-1.9,1c-0.7,0.3-1.5,0.5-2.4,0.7v-2.6c0.6-0.2,1.1-0.3,1.6-0.5
				s1-0.4,1.5-0.6c0.5-0.2,1-0.5,1.5-0.8s1-0.6,1.6-0.9C282.7,8.5,284.1,8.5,284.1,8.5z"/>
			<path class="st5" d="M295.3,27.8c-2.1,0-3.8-0.8-5-2.4s-1.8-3.9-1.8-6.8c0-3.3,0.6-5.8,1.9-7.4c1.3-1.7,3.1-2.5,5.4-2.5
				c4.5,0,6.8,3.2,6.8,9.5c0,3.1-0.6,5.5-1.9,7.2C299.3,27,297.6,27.8,295.3,27.8z M295.6,11c-2.5,0-3.7,2.5-3.7,7.4
				c0,4.6,1.2,7,3.7,7c2.4,0,3.6-2.4,3.6-7.1C299.1,13.5,298,11,295.6,11z"/>
			<path class="st5" d="M311.8,27.8c-2.1,0-3.8-0.8-5-2.4s-1.8-3.9-1.8-6.8c0-3.3,0.6-5.8,1.9-7.4c1.3-1.7,3.1-2.5,5.4-2.5
				c4.5,0,6.8,3.2,6.8,9.5c0,3.1-0.6,5.5-1.9,7.2C315.9,27,314.1,27.8,311.8,27.8z M312.1,11c-2.5,0-3.7,2.5-3.7,7.4
				c0,4.6,1.2,7,3.7,7c2.4,0,3.6-2.4,3.6-7.1C315.6,13.5,314.5,11,312.1,11z"/>
			<path class="st5" d="M328.3,27.8c-2.1,0-3.8-0.8-5-2.4s-1.8-3.9-1.8-6.8c0-3.3,0.6-5.8,1.9-7.4c1.3-1.7,3.1-2.5,5.4-2.5
				c4.5,0,6.8,3.2,6.8,9.5c0,3.1-0.6,5.5-1.9,7.2C332.4,27,330.6,27.8,328.3,27.8z M328.6,11c-2.5,0-3.7,2.5-3.7,7.4
				c0,4.6,1.2,7,3.7,7c2.4,0,3.6-2.4,3.6-7.1C332.2,13.5,331,11,328.6,11z"/>
			<path class="st5" d="M344.8,27.8c-2.1,0-3.8-0.8-5-2.4s-1.8-3.9-1.8-6.8c0-3.3,0.6-5.8,1.9-7.4c1.3-1.7,3.1-2.5,5.4-2.5
				c4.5,0,6.8,3.2,6.8,9.5c0,3.1-0.6,5.5-1.9,7.2C348.9,27,347.1,27.8,344.8,27.8z M345.1,11c-2.5,0-3.7,2.5-3.7,7.4
				c0,4.6,1.2,7,3.7,7c2.4,0,3.6-2.4,3.6-7.1C348.7,13.5,347.5,11,345.1,11z"/>
			<path class="st5" d="M362.2,8.5v19h-3.3V12.2c-0.6,0.4-1.2,0.7-1.9,1c-0.7,0.3-1.5,0.5-2.4,0.7v-2.6c0.6-0.2,1.1-0.3,1.6-0.5
				s1-0.4,1.5-0.6c0.5-0.2,1-0.5,1.5-0.8s1-0.6,1.6-0.9C360.8,8.5,362.2,8.5,362.2,8.5z"/>
			<path class="st5" d="M373.4,27.8c-2.1,0-3.8-0.8-5-2.4s-1.8-3.9-1.8-6.8c0-3.3,0.6-5.8,1.9-7.4c1.3-1.7,3.1-2.5,5.4-2.5
				c4.5,0,6.8,3.2,6.8,9.5c0,3.1-0.6,5.5-1.9,7.2C377.4,27,375.7,27.8,373.4,27.8z M373.7,11c-2.5,0-3.7,2.5-3.7,7.4
				c0,4.6,1.2,7,3.7,7c2.4,0,3.6-2.4,3.6-7.1C377.2,13.5,376,11,373.7,11z"/>
			<path class="st5" d="M153.4,35v19h-3.3V38.7c-0.6,0.4-1.2,0.7-1.9,1s-1.5,0.5-2.4,0.7v-2.6c0.6-0.2,1.1-0.3,1.6-0.5
				s1-0.4,1.5-0.6c0.5-0.2,1-0.5,1.5-0.8s1-0.6,1.6-0.9C152,35,153.4,35,153.4,35z"/>
			<path class="st5" d="M164.9,54.3c-2.1,0-3.8-0.8-5-2.4c-1.2-1.6-1.8-3.9-1.8-6.8c0-3.3,0.6-5.8,1.9-7.4c1.3-1.7,3.1-2.5,5.4-2.5
				c4.5,0,6.8,3.2,6.8,9.5c0,3.1-0.6,5.5-1.9,7.2C168.9,53.5,167.2,54.3,164.9,54.3z M165.2,37.5c-2.5,0-3.7,2.5-3.7,7.4
				c0,4.6,1.2,7,3.7,7c2.4,0,3.6-2.4,3.6-7.1C168.7,40,167.5,37.5,165.2,37.5z"/>
			<path class="st5" d="M182.6,35v19h-3.3V38.7c-0.6,0.4-1.2,0.7-1.9,1s-1.5,0.5-2.4,0.7v-2.6c0.6-0.2,1.1-0.3,1.6-0.5
				s1-0.4,1.5-0.6c0.5-0.2,1-0.5,1.5-0.8s1-0.6,1.6-0.9C181.2,35,182.6,35,182.6,35z"/>
			<path class="st5" d="M194,54.3c-2.1,0-3.8-0.8-5-2.4c-1.2-1.6-1.8-3.9-1.8-6.8c0-3.3,0.6-5.8,1.9-7.4c1.3-1.7,3.1-2.5,5.4-2.5
				c4.5,0,6.8,3.2,6.8,9.5c0,3.1-0.6,5.5-1.9,7.2C198.1,53.5,196.3,54.3,194,54.3z M194.3,37.5c-2.5,0-3.7,2.5-3.7,7.4
				c0,4.6,1.2,7,3.7,7c2.4,0,3.6-2.4,3.6-7.1C197.9,40,196.7,37.5,194.3,37.5z"/>
			<path class="st5" d="M210.8,54.3c-2.1,0-3.8-0.8-5-2.4c-1.2-1.6-1.8-3.9-1.8-6.8c0-3.3,0.6-5.8,1.9-7.4c1.3-1.7,3.1-2.5,5.4-2.5
				c4.5,0,6.8,3.2,6.8,9.5c0,3.1-0.6,5.5-1.9,7.2C214.9,53.5,213.1,54.3,210.8,54.3z M211.1,37.5c-2.5,0-3.7,2.5-3.7,7.4
				c0,4.6,1.2,7,3.7,7c2.4,0,3.6-2.4,3.6-7.1C214.7,40,213.5,37.5,211.1,37.5z"/>
			<path class="st5" d="M227.6,54.3c-2.1,0-3.8-0.8-5-2.4c-1.2-1.6-1.8-3.9-1.8-6.8c0-3.3,0.6-5.8,1.9-7.4c1.3-1.7,3.1-2.5,5.4-2.5
				c4.5,0,6.8,3.2,6.8,9.5c0,3.1-0.6,5.5-1.9,7.2C231.7,53.5,229.9,54.3,227.6,54.3z M228,37.5c-2.5,0-3.7,2.5-3.7,7.4
				c0,4.6,1.2,7,3.7,7c2.4,0,3.6-2.4,3.6-7.1C231.5,40,230.3,37.5,228,37.5z"/>
			<path class="st5" d="M245.3,35v19H242V38.7c-0.6,0.4-1.2,0.7-1.9,1s-1.5,0.5-2.4,0.7v-2.6c0.6-0.2,1.1-0.3,1.6-0.5s1-0.4,1.5-0.6
				c0.5-0.2,1-0.5,1.5-0.8s1-0.6,1.6-0.9C243.9,35,245.3,35,245.3,35z"/>
			<path class="st5" d="M256.8,54.3c-2.1,0-3.8-0.8-5-2.4c-1.2-1.6-1.8-3.9-1.8-6.8c0-3.3,0.6-5.8,1.9-7.4c1.3-1.7,3.1-2.5,5.4-2.5
				c4.5,0,6.8,3.2,6.8,9.5c0,3.1-0.6,5.5-1.9,7.2C260.9,53.5,259.1,54.3,256.8,54.3z M257.1,37.5c-2.5,0-3.7,2.5-3.7,7.4
				c0,4.6,1.2,7,3.7,7c2.4,0,3.6-2.4,3.6-7.1C260.6,40,259.5,37.5,257.1,37.5z"/>
			<path class="st5" d="M273.6,54.3c-2.1,0-3.8-0.8-5-2.4c-1.2-1.6-1.8-3.9-1.8-6.8c0-3.3,0.6-5.8,1.9-7.4c1.3-1.7,3.1-2.5,5.4-2.5
				c4.5,0,6.8,3.2,6.8,9.5c0,3.1-0.6,5.5-1.9,7.2C277.7,53.5,275.9,54.3,273.6,54.3z M273.9,37.5c-2.5,0-3.7,2.5-3.7,7.4
				c0,4.6,1.2,7,3.7,7c2.4,0,3.6-2.4,3.6-7.1C277.5,40,276.3,37.5,273.9,37.5z"/>
			<path class="st5" d="M291.3,35v19H288V38.7c-0.6,0.4-1.2,0.7-1.9,1c-0.7,0.3-1.5,0.5-2.4,0.7v-2.6c0.6-0.2,1.1-0.3,1.6-0.5
				s1-0.4,1.5-0.6c0.5-0.2,1-0.5,1.5-0.8s1-0.6,1.6-0.9C289.9,35,291.3,35,291.3,35z"/>
			<path class="st5" d="M302.7,54.3c-2.1,0-3.8-0.8-5-2.4c-1.2-1.6-1.8-3.9-1.8-6.8c0-3.3,0.6-5.8,1.9-7.4c1.3-1.7,3.1-2.5,5.4-2.5
				c4.5,0,6.8,3.2,6.8,9.5c0,3.1-0.6,5.5-1.9,7.2C306.8,53.5,305,54.3,302.7,54.3z M303.1,37.5c-2.5,0-3.7,2.5-3.7,7.4
				c0,4.6,1.2,7,3.7,7c2.4,0,3.6-2.4,3.6-7.1C306.6,40,305.4,37.5,303.1,37.5z"/>
			<path class="st5" d="M319.6,54.3c-2.1,0-3.8-0.8-5-2.4c-1.2-1.6-1.8-3.9-1.8-6.8c0-3.3,0.6-5.8,1.9-7.4c1.3-1.7,3.1-2.5,5.4-2.5
				c4.5,0,6.8,3.2,6.8,9.5c0,3.1-0.6,5.5-1.9,7.2C323.6,53.5,321.8,54.3,319.6,54.3z M319.9,37.5c-2.5,0-3.7,2.5-3.7,7.4
				c0,4.6,1.2,7,3.7,7c2.4,0,3.6-2.4,3.6-7.1C323.4,40,322.2,37.5,319.9,37.5z"/>
			<path class="st5" d="M337.3,35v19H334V38.7c-0.6,0.4-1.2,0.7-1.9,1c-0.7,0.3-1.5,0.5-2.4,0.7v-2.6c0.6-0.2,1.1-0.3,1.6-0.5
				s1-0.4,1.5-0.6c0.5-0.2,1-0.5,1.5-0.8s1-0.6,1.6-0.9C335.9,35,337.3,35,337.3,35z"/>
			<path class="st5" d="M349.6,35v19h-3.3V38.7c-0.6,0.4-1.2,0.7-1.9,1c-0.7,0.3-1.5,0.5-2.4,0.7v-2.6c0.6-0.2,1.1-0.3,1.6-0.5
				s1-0.4,1.5-0.6c0.5-0.2,1-0.5,1.5-0.8s1-0.6,1.6-0.9C348.2,35,349.6,35,349.6,35z"/>
			<path class="st5" d="M361.9,35v19h-3.3V38.7c-0.6,0.4-1.2,0.7-1.9,1c-0.7,0.3-1.5,0.5-2.4,0.7v-2.6c0.6-0.2,1.1-0.3,1.6-0.5
				s1-0.4,1.5-0.6c0.5-0.2,1-0.5,1.5-0.8s1-0.6,1.6-0.9C360.5,35,361.9,35,361.9,35z"/>
			<path class="st5" d="M373.4,54.3c-2.1,0-3.8-0.8-5-2.4c-1.2-1.6-1.8-3.9-1.8-6.8c0-3.3,0.6-5.8,1.9-7.4c1.3-1.7,3.1-2.5,5.4-2.5
				c4.5,0,6.8,3.2,6.8,9.5c0,3.1-0.6,5.5-1.9,7.2C377.4,53.5,375.7,54.3,373.4,54.3z M373.7,37.5c-2.5,0-3.7,2.5-3.7,7.4
				c0,4.6,1.2,7,3.7,7c2.4,0,3.6-2.4,3.6-7.1C377.2,40,376,37.5,373.7,37.5z"/>
			<path class="st5" d="M152.5,80.8c-2.1,0-3.8-0.8-5-2.4s-1.8-3.9-1.8-6.8c0-3.3,0.6-5.8,1.9-7.4c1.3-1.7,3.1-2.5,5.4-2.5
				c4.5,0,6.8,3.2,6.8,9.5c0,3.1-0.6,5.5-1.9,7.2C156.6,80,154.8,80.8,152.5,80.8z M152.9,64.1c-2.5,0-3.7,2.5-3.7,7.4
				c0,4.6,1.2,7,3.7,7c2.4,0,3.6-2.4,3.6-7.1C156.4,66.5,155.2,64.1,152.9,64.1z"/>
			<path class="st5" d="M170,61.6v19h-3.3V65.2c-0.6,0.4-1.2,0.7-1.9,1s-1.5,0.5-2.4,0.7v-2.6c0.6-0.2,1.1-0.3,1.6-0.5
				s1-0.4,1.5-0.6c0.5-0.2,1-0.5,1.5-0.8s1-0.6,1.6-0.9h1.4L170,61.6L170,61.6z"/>
			<path class="st5" d="M181.3,80.8c-2.1,0-3.8-0.8-5-2.4s-1.8-3.9-1.8-6.8c0-3.3,0.6-5.8,1.9-7.4c1.3-1.7,3.1-2.5,5.4-2.5
				c4.5,0,6.8,3.2,6.8,9.5c0,3.1-0.6,5.5-1.9,7.2C185.3,80,183.5,80.8,181.3,80.8z M181.6,64.1c-2.5,0-3.7,2.5-3.7,7.4
				c0,4.6,1.2,7,3.7,7c2.4,0,3.6-2.4,3.6-7.1C185.1,66.5,183.9,64.1,181.6,64.1z"/>
			<path class="st5" d="M198.7,61.6v19h-3.3V65.2c-0.6,0.4-1.2,0.7-1.9,1s-1.5,0.5-2.4,0.7v-2.6c0.6-0.2,1.1-0.3,1.6-0.5
				s1-0.4,1.5-0.6c0.5-0.2,1-0.5,1.5-0.8s1-0.6,1.6-0.9h1.4L198.7,61.6L198.7,61.6z"/>
			<path class="st5" d="M210.9,61.6v19h-3.3V65.2c-0.6,0.4-1.2,0.7-1.9,1s-1.5,0.5-2.4,0.7v-2.6c0.6-0.2,1.1-0.3,1.6-0.5
				s1-0.4,1.5-0.6c0.5-0.2,1-0.5,1.5-0.8s1-0.6,1.6-0.9h1.4L210.9,61.6L210.9,61.6z"/>
			<path class="st5" d="M223,61.6v19h-3.3V65.2c-0.6,0.4-1.2,0.7-1.9,1s-1.5,0.5-2.4,0.7v-2.6c0.6-0.2,1.1-0.3,1.6-0.5
				s1-0.4,1.5-0.6c0.5-0.2,1-0.5,1.5-0.8s1-0.6,1.6-0.9h1.4L223,61.6L223,61.6z"/>
			<path class="st5" d="M234.2,80.8c-2.1,0-3.8-0.8-5-2.4s-1.8-3.9-1.8-6.8c0-3.3,0.6-5.8,1.9-7.4c1.3-1.7,3.1-2.5,5.4-2.5
				c4.5,0,6.8,3.2,6.8,9.5c0,3.1-0.6,5.5-1.9,7.2C238.3,80,236.5,80.8,234.2,80.8z M234.5,64.1c-2.5,0-3.7,2.5-3.7,7.4
				c0,4.6,1.2,7,3.7,7c2.4,0,3.6-2.4,3.6-7.1C238.1,66.5,236.9,64.1,234.5,64.1z"/>
			<path class="st5" d="M250.8,80.8c-2.1,0-3.8-0.8-5-2.4s-1.8-3.9-1.8-6.8c0-3.3,0.6-5.8,1.9-7.4c1.3-1.7,3.1-2.5,5.4-2.5
				c4.5,0,6.8,3.2,6.8,9.5c0,3.1-0.6,5.5-1.9,7.2C254.9,80,253.1,80.8,250.8,80.8z M251.2,64.1c-2.5,0-3.7,2.5-3.7,7.4
				c0,4.6,1.2,7,3.7,7c2.4,0,3.6-2.4,3.6-7.1C254.7,66.5,253.5,64.1,251.2,64.1z"/>
			<path class="st5" d="M268.3,61.6v19H265V65.2c-0.6,0.4-1.2,0.7-1.9,1c-0.7,0.3-1.5,0.5-2.4,0.7v-2.6c0.6-0.2,1.1-0.3,1.6-0.5
				s1-0.4,1.5-0.6c0.5-0.2,1-0.5,1.5-0.8s1-0.6,1.6-0.9h1.4L268.3,61.6L268.3,61.6z"/>
			<path class="st5" d="M280.4,61.6v19h-3.3V65.2c-0.6,0.4-1.2,0.7-1.9,1c-0.7,0.3-1.5,0.5-2.4,0.7v-2.6c0.6-0.2,1.1-0.3,1.6-0.5
				s1-0.4,1.5-0.6c0.5-0.2,1-0.5,1.5-0.8s1-0.6,1.6-0.9h1.4L280.4,61.6L280.4,61.6z"/>
			<path class="st5" d="M291.7,80.8c-2.1,0-3.8-0.8-5-2.4s-1.8-3.9-1.8-6.8c0-3.3,0.6-5.8,1.9-7.4c1.3-1.7,3.1-2.5,5.4-2.5
				c4.5,0,6.8,3.2,6.8,9.5c0,3.1-0.6,5.5-1.9,7.2C295.7,80,294,80.8,291.7,80.8z M292,64.1c-2.5,0-3.7,2.5-3.7,7.4
				c0,4.6,1.2,7,3.7,7c2.4,0,3.6-2.4,3.6-7.1C295.5,66.5,294.4,64.1,292,64.1z"/>
			<path class="st5" d="M308.3,80.8c-2.1,0-3.8-0.8-5-2.4s-1.8-3.9-1.8-6.8c0-3.3,0.6-5.8,1.9-7.4c1.3-1.7,3.1-2.5,5.4-2.5
				c4.5,0,6.8,3.2,6.8,9.5c0,3.1-0.6,5.5-1.9,7.2C312.3,80,310.6,80.8,308.3,80.8z M308.6,64.1c-2.5,0-3.7,2.5-3.7,7.4
				c0,4.6,1.2,7,3.7,7c2.4,0,3.6-2.4,3.6-7.1C312.1,66.5,311,64.1,308.6,64.1z"/>
			<path class="st5" d="M325.8,61.6v19h-3.3V65.2c-0.6,0.4-1.2,0.7-1.9,1c-0.7,0.3-1.5,0.5-2.4,0.7v-2.6c0.6-0.2,1.1-0.3,1.6-0.5
				s1-0.4,1.5-0.6c0.5-0.2,1-0.5,1.5-0.8s1-0.6,1.6-0.9h1.4L325.8,61.6L325.8,61.6z"/>
			<path class="st5" d="M337.9,61.6v19h-3.3V65.2c-0.6,0.4-1.2,0.7-1.9,1c-0.7,0.3-1.5,0.5-2.4,0.7v-2.6c0.6-0.2,1.1-0.3,1.6-0.5
				s1-0.4,1.5-0.6c0.5-0.2,1-0.5,1.5-0.8s1-0.6,1.6-0.9h1.4L337.9,61.6L337.9,61.6z"/>
			<path class="st5" d="M350,61.6v19h-3.3V65.2c-0.6,0.4-1.2,0.7-1.9,1c-0.7,0.3-1.5,0.5-2.4,0.7v-2.6c0.6-0.2,1.1-0.3,1.6-0.5
				s1-0.4,1.5-0.6c0.5-0.2,1-0.5,1.5-0.8s1-0.6,1.6-0.9h1.4L350,61.6L350,61.6z"/>
			<path class="st5" d="M361.2,80.8c-2.1,0-3.8-0.8-5-2.4s-1.8-3.9-1.8-6.8c0-3.3,0.6-5.8,1.9-7.4c1.3-1.7,3.1-2.5,5.4-2.5
				c4.5,0,6.8,3.2,6.8,9.5c0,3.1-0.6,5.5-1.9,7.2C365.3,80,363.5,80.8,361.2,80.8z M361.6,64.1c-2.5,0-3.7,2.5-3.7,7.4
				c0,4.6,1.2,7,3.7,7c2.4,0,3.6-2.4,3.6-7.1C365.1,66.5,363.9,64.1,361.6,64.1z"/>
			<path class="st5" d="M378.7,61.6v19h-3.3V65.2c-0.6,0.4-1.2,0.7-1.9,1c-0.7,0.3-1.5,0.5-2.4,0.7v-2.6c0.6-0.2,1.1-0.3,1.6-0.5
				s1-0.4,1.5-0.6c0.5-0.2,1-0.5,1.5-0.8s1-0.6,1.6-0.9h1.4L378.7,61.6L378.7,61.6z"/>
			<path class="st5" d="M152.5,107.4c-2.1,0-3.8-0.8-5-2.4s-1.8-3.9-1.8-6.8c0-3.3,0.6-5.8,1.9-7.4c1.3-1.7,3.1-2.5,5.4-2.5
				c4.5,0,6.8,3.2,6.8,9.5c0,3.1-0.6,5.5-1.9,7.2C156.6,106.5,154.8,107.4,152.5,107.4z M152.9,90.6c-2.5,0-3.7,2.5-3.7,7.4
				c0,4.6,1.2,7,3.7,7c2.4,0,3.6-2.4,3.6-7.1C156.4,93,155.2,90.6,152.9,90.6z"/>
			<path class="st5" d="M170.8,88.1v19h-3.3V91.7c-0.6,0.4-1.2,0.7-1.9,1s-1.5,0.5-2.4,0.7v-2.6c0.6-0.2,1.1-0.3,1.6-0.5
				s1-0.4,1.5-0.6s1-0.5,1.5-0.8s1-0.6,1.6-0.9h1.4L170.8,88.1L170.8,88.1z"/>
			<path class="st5" d="M182.8,107.4c-2.1,0-3.8-0.8-5-2.4s-1.8-3.9-1.8-6.8c0-3.3,0.6-5.8,1.9-7.4c1.3-1.7,3.1-2.5,5.4-2.5
				c4.5,0,6.8,3.2,6.8,9.5c0,3.1-0.6,5.5-1.9,7.2C186.9,106.5,185.1,107.4,182.8,107.4z M183.1,90.6c-2.5,0-3.7,2.5-3.7,7.4
				c0,4.6,1.2,7,3.7,7c2.4,0,3.6-2.4,3.6-7.1C186.7,93,185.5,90.6,183.1,90.6z"/>
			<path class="st5" d="M200.2,107.4c-2.1,0-3.8-0.8-5-2.4s-1.8-3.9-1.8-6.8c0-3.3,0.6-5.8,1.9-7.4c1.3-1.7,3.1-2.5,5.4-2.5
				c4.5,0,6.8,3.2,6.8,9.5c0,3.1-0.6,5.5-1.9,7.2C204.2,106.5,202.5,107.4,200.2,107.4z M200.5,90.6c-2.5,0-3.7,2.5-3.7,7.4
				c0,4.6,1.2,7,3.7,7c2.4,0,3.6-2.4,3.6-7.1C204,93,202.9,90.6,200.5,90.6z"/>
			<path class="st5" d="M218.4,88.1v19h-3.3V91.7c-0.6,0.4-1.2,0.7-1.9,1s-1.5,0.5-2.4,0.7v-2.6c0.6-0.2,1.1-0.3,1.6-0.5
				s1-0.4,1.5-0.6s1-0.5,1.5-0.8s1-0.6,1.6-0.9h1.4L218.4,88.1L218.4,88.1z"/>
			<path class="st5" d="M231.3,88.1v19H228V91.7c-0.6,0.4-1.2,0.7-1.9,1s-1.5,0.5-2.4,0.7v-2.6c0.6-0.2,1.1-0.3,1.6-0.5
				s1-0.4,1.5-0.6s1-0.5,1.5-0.8s1-0.6,1.6-0.9h1.4L231.3,88.1L231.3,88.1z"/>
			<path class="st5" d="M243.3,107.4c-2.1,0-3.8-0.8-5-2.4s-1.8-3.9-1.8-6.8c0-3.3,0.6-5.8,1.9-7.4c1.3-1.7,3.1-2.5,5.4-2.5
				c4.5,0,6.8,3.2,6.8,9.5c0,3.1-0.6,5.5-1.9,7.2C247.4,106.5,245.6,107.4,243.3,107.4z M243.7,90.6c-2.5,0-3.7,2.5-3.7,7.4
				c0,4.6,1.2,7,3.7,7c2.4,0,3.6-2.4,3.6-7.1C247.2,93,246,90.6,243.7,90.6z"/>
			<path class="st5" d="M260.7,107.4c-2.1,0-3.8-0.8-5-2.4c-1.2-1.6-1.8-3.9-1.8-6.8c0-3.3,0.6-5.8,1.9-7.4c1.3-1.7,3.1-2.5,5.4-2.5
				c4.5,0,6.8,3.2,6.8,9.5c0,3.1-0.6,5.5-1.9,7.2C264.8,106.5,263,107.4,260.7,107.4z M261,90.6c-2.5,0-3.7,2.5-3.7,7.4
				c0,4.6,1.2,7,3.7,7c2.4,0,3.6-2.4,3.6-7.1C264.6,93,263.4,90.6,261,90.6z"/>
			<path class="st5" d="M279,88.1v19h-3.3V91.7c-0.6,0.4-1.2,0.7-1.9,1c-0.7,0.3-1.5,0.5-2.4,0.7v-2.6c0.6-0.2,1.1-0.3,1.6-0.5
				s1-0.4,1.5-0.6s1-0.5,1.5-0.8s1-0.6,1.6-0.9h1.4L279,88.1L279,88.1z"/>
			<path class="st5" d="M291,107.4c-2.1,0-3.8-0.8-5-2.4s-1.8-3.9-1.8-6.8c0-3.3,0.6-5.8,1.9-7.4c1.3-1.7,3.1-2.5,5.4-2.5
				c4.5,0,6.8,3.2,6.8,9.5c0,3.1-0.6,5.5-1.9,7.2C295,106.5,293.3,107.4,291,107.4z M291.3,90.6c-2.5,0-3.7,2.5-3.7,7.4
				c0,4.6,1.2,7,3.7,7c2.4,0,3.6-2.4,3.6-7.1C294.8,93,293.7,90.6,291.3,90.6z"/>
			<path class="st5" d="M309.2,88.1v19h-3.3V91.7c-0.6,0.4-1.2,0.7-1.9,1c-0.7,0.3-1.5,0.5-2.4,0.7v-2.6c0.6-0.2,1.1-0.3,1.6-0.5
				s1-0.4,1.5-0.6s1-0.5,1.5-0.8s1-0.6,1.6-0.9h1.4L309.2,88.1L309.2,88.1z"/>
			<path class="st5" d="M321.2,107.4c-2.1,0-3.8-0.8-5-2.4s-1.8-3.9-1.8-6.8c0-3.3,0.6-5.8,1.9-7.4c1.3-1.7,3.1-2.5,5.4-2.5
				c4.5,0,6.8,3.2,6.8,9.5c0,3.1-0.6,5.5-1.9,7.2C325.3,106.5,323.5,107.4,321.2,107.4z M321.6,90.6c-2.5,0-3.7,2.5-3.7,7.4
				c0,4.6,1.2,7,3.7,7c2.4,0,3.6-2.4,3.6-7.1C325.1,93,323.9,90.6,321.6,90.6z"/>
			<path class="st5" d="M338.6,107.4c-2.1,0-3.8-0.8-5-2.4s-1.8-3.9-1.8-6.8c0-3.3,0.6-5.8,1.9-7.4c1.3-1.7,3.1-2.5,5.4-2.5
				c4.5,0,6.8,3.2,6.8,9.5c0,3.1-0.6,5.5-1.9,7.2C342.7,106.5,340.9,107.4,338.6,107.4z M338.9,90.6c-2.5,0-3.7,2.5-3.7,7.4
				c0,4.6,1.2,7,3.7,7c2.4,0,3.6-2.4,3.6-7.1C342.5,93,341.3,90.6,338.9,90.6z"/>
			<path class="st5" d="M356,107.4c-2.1,0-3.8-0.8-5-2.4s-1.8-3.9-1.8-6.8c0-3.3,0.6-5.8,1.9-7.4c1.3-1.7,3.1-2.5,5.4-2.5
				c4.5,0,6.8,3.2,6.8,9.5c0,3.1-0.6,5.5-1.9,7.2C360.1,106.5,358.3,107.4,356,107.4z M356.3,90.6c-2.5,0-3.7,2.5-3.7,7.4
				c0,4.6,1.2,7,3.7,7c2.4,0,3.6-2.4,3.6-7.1C359.9,93,358.7,90.6,356.3,90.6z"/>
			<path class="st5" d="M373.4,107.4c-2.1,0-3.8-0.8-5-2.4s-1.8-3.9-1.8-6.8c0-3.3,0.6-5.8,1.9-7.4c1.3-1.7,3.1-2.5,5.4-2.5
				c4.5,0,6.8,3.2,6.8,9.5c0,3.1-0.6,5.5-1.9,7.2C377.4,106.5,375.7,107.4,373.4,107.4z M373.7,90.6c-2.5,0-3.7,2.5-3.7,7.4
				c0,4.6,1.2,7,3.7,7c2.4,0,3.6-2.4,3.6-7.1C377.2,93,376,90.6,373.7,90.6z"/>
			<path class="st5" d="M152.5,133.9c-2.1,0-3.8-0.8-5-2.4c-1.2-1.6-1.8-3.9-1.8-6.8c0-3.3,0.6-5.8,1.9-7.4c1.3-1.7,3.1-2.5,5.4-2.5
				c4.5,0,6.8,3.2,6.8,9.5c0,3.1-0.6,5.5-1.9,7.2C156.6,133,154.8,133.9,152.5,133.9z M152.9,117.1c-2.5,0-3.7,2.5-3.7,7.4
				c0,4.6,1.2,7,3.7,7c2.4,0,3.6-2.4,3.6-7.1C156.4,119.5,155.2,117.1,152.9,117.1z"/>
			<path class="st5" d="M170,114.6v19h-3.3v-15.3c-0.6,0.4-1.2,0.7-1.9,1s-1.5,0.5-2.4,0.7v-2.6c0.6-0.2,1.1-0.3,1.6-0.5
				s1-0.4,1.5-0.6s1-0.5,1.5-0.8s1-0.6,1.6-0.9H170z"/>
			<path class="st5" d="M181.3,133.9c-2.1,0-3.8-0.8-5-2.4c-1.2-1.6-1.8-3.9-1.8-6.8c0-3.3,0.6-5.8,1.9-7.4c1.3-1.7,3.1-2.5,5.4-2.5
				c4.5,0,6.8,3.2,6.8,9.5c0,3.1-0.6,5.5-1.9,7.2C185.3,133,183.5,133.9,181.3,133.9z M181.6,117.1c-2.5,0-3.7,2.5-3.7,7.4
				c0,4.6,1.2,7,3.7,7c2.4,0,3.6-2.4,3.6-7.1C185.1,119.5,183.9,117.1,181.6,117.1z"/>
			<path class="st5" d="M198.7,114.6v19h-3.3v-15.3c-0.6,0.4-1.2,0.7-1.9,1s-1.5,0.5-2.4,0.7v-2.6c0.6-0.2,1.1-0.3,1.6-0.5
				s1-0.4,1.5-0.6s1-0.5,1.5-0.8s1-0.6,1.6-0.9H198.7z"/>
			<path class="st5" d="M210.9,114.6v19h-3.3v-15.3c-0.6,0.4-1.2,0.7-1.9,1s-1.5,0.5-2.4,0.7v-2.6c0.6-0.2,1.1-0.3,1.6-0.5
				s1-0.4,1.5-0.6s1-0.5,1.5-0.8s1-0.6,1.6-0.9H210.9z"/>
			<path class="st5" d="M223,114.6v19h-3.3v-15.3c-0.6,0.4-1.2,0.7-1.9,1s-1.5,0.5-2.4,0.7v-2.6c0.6-0.2,1.1-0.3,1.6-0.5
				s1-0.4,1.5-0.6s1-0.5,1.5-0.8s1-0.6,1.6-0.9H223z"/>
			<path class="st5" d="M234.2,133.9c-2.1,0-3.8-0.8-5-2.4c-1.2-1.6-1.8-3.9-1.8-6.8c0-3.3,0.6-5.8,1.9-7.4c1.3-1.7,3.1-2.5,5.4-2.5
				c4.5,0,6.8,3.2,6.8,9.5c0,3.1-0.6,5.5-1.9,7.2C238.3,133,236.5,133.9,234.2,133.9z M234.5,117.1c-2.5,0-3.7,2.5-3.7,7.4
				c0,4.6,1.2,7,3.7,7c2.4,0,3.6-2.4,3.6-7.1C238.1,119.5,236.9,117.1,234.5,117.1z"/>
			<path class="st5" d="M250.8,133.9c-2.1,0-3.8-0.8-5-2.4c-1.2-1.6-1.8-3.9-1.8-6.8c0-3.3,0.6-5.8,1.9-7.4c1.3-1.7,3.1-2.5,5.4-2.5
				c4.5,0,6.8,3.2,6.8,9.5c0,3.1-0.6,5.5-1.9,7.2C254.9,133,253.1,133.9,250.8,133.9z M251.2,117.1c-2.5,0-3.7,2.5-3.7,7.4
				c0,4.6,1.2,7,3.7,7c2.4,0,3.6-2.4,3.6-7.1C254.7,119.5,253.5,117.1,251.2,117.1z"/>
			<path class="st5" d="M268.3,114.6v19H265v-15.3c-0.6,0.4-1.2,0.7-1.9,1c-0.7,0.3-1.5,0.5-2.4,0.7v-2.6c0.6-0.2,1.1-0.3,1.6-0.5
				s1-0.4,1.5-0.6s1-0.5,1.5-0.8s1-0.6,1.6-0.9H268.3z"/>
			<path class="st5" d="M280.4,114.6v19h-3.3v-15.3c-0.6,0.4-1.2,0.7-1.9,1c-0.7,0.3-1.5,0.5-2.4,0.7v-2.6c0.6-0.2,1.1-0.3,1.6-0.5
				s1-0.4,1.5-0.6s1-0.5,1.5-0.8s1-0.6,1.6-0.9H280.4z"/>
			<path class="st5" d="M291.7,133.9c-2.1,0-3.8-0.8-5-2.4c-1.2-1.6-1.8-3.9-1.8-6.8c0-3.3,0.6-5.8,1.9-7.4c1.3-1.7,3.1-2.5,5.4-2.5
				c4.5,0,6.8,3.2,6.8,9.5c0,3.1-0.6,5.5-1.9,7.2C295.7,133,294,133.9,291.7,133.9z M292,117.1c-2.5,0-3.7,2.5-3.7,7.4
				c0,4.6,1.2,7,3.7,7c2.4,0,3.6-2.4,3.6-7.1C295.5,119.5,294.4,117.1,292,117.1z"/>
			<path class="st5" d="M308.3,133.9c-2.1,0-3.8-0.8-5-2.4c-1.2-1.6-1.8-3.9-1.8-6.8c0-3.3,0.6-5.8,1.9-7.4c1.3-1.7,3.1-2.5,5.4-2.5
				c4.5,0,6.8,3.2,6.8,9.5c0,3.1-0.6,5.5-1.9,7.2C312.3,133,310.6,133.9,308.3,133.9z M308.6,117.1c-2.5,0-3.7,2.5-3.7,7.4
				c0,4.6,1.2,7,3.7,7c2.4,0,3.6-2.4,3.6-7.1C312.1,119.5,311,117.1,308.6,117.1z"/>
			<path class="st5" d="M325.8,114.6v19h-3.3v-15.3c-0.6,0.4-1.2,0.7-1.9,1c-0.7,0.3-1.5,0.5-2.4,0.7v-2.6c0.6-0.2,1.1-0.3,1.6-0.5
				s1-0.4,1.5-0.6s1-0.5,1.5-0.8s1-0.6,1.6-0.9H325.8z"/>
			<path class="st5" d="M337.9,114.6v19h-3.3v-15.3c-0.6,0.4-1.2,0.7-1.9,1c-0.7,0.3-1.5,0.5-2.4,0.7v-2.6c0.6-0.2,1.1-0.3,1.6-0.5
				s1-0.4,1.5-0.6s1-0.5,1.5-0.8s1-0.6,1.6-0.9H337.9z"/>
			<path class="st5" d="M350,114.6v19h-3.3v-15.3c-0.6,0.4-1.2,0.7-1.9,1c-0.7,0.3-1.5,0.5-2.4,0.7v-2.6c0.6-0.2,1.1-0.3,1.6-0.5
				s1-0.4,1.5-0.6s1-0.5,1.5-0.8s1-0.6,1.6-0.9H350z"/>
			<path class="st5" d="M361.2,133.9c-2.1,0-3.8-0.8-5-2.4c-1.2-1.6-1.8-3.9-1.8-6.8c0-3.3,0.6-5.8,1.9-7.4c1.3-1.7,3.1-2.5,5.4-2.5
				c4.5,0,6.8,3.2,6.8,9.5c0,3.1-0.6,5.5-1.9,7.2C365.3,133,363.5,133.9,361.2,133.9z M361.6,117.1c-2.5,0-3.7,2.5-3.7,7.4
				c0,4.6,1.2,7,3.7,7c2.4,0,3.6-2.4,3.6-7.1C365.1,119.5,363.9,117.1,361.6,117.1z"/>
			<path class="st5" d="M378.7,114.6v19h-3.3v-15.3c-0.6,0.4-1.2,0.7-1.9,1c-0.7,0.3-1.5,0.5-2.4,0.7v-2.6c0.6-0.2,1.1-0.3,1.6-0.5
				s1-0.4,1.5-0.6s1-0.5,1.5-0.8s1-0.6,1.6-0.9H378.7z"/>
		</g>
	</g>
	<g class="st8">
		<g>
			<path class="st5" d="M158.5,8.9v18.8h-3.2V12.5c-0.6,0.4-1.2,0.7-1.9,1s-1.4,0.5-2.3,0.7v-2.5c0.5-0.2,1-0.3,1.5-0.5
				s1-0.4,1.5-0.6c0.5-0.2,1-0.5,1.4-0.7c0.5-0.3,1-0.6,1.5-0.9h1.5V8.9z"/>
			<path class="st5" d="M169.1,27.9c-2,0-3.6-0.8-4.8-2.3c-1.1-1.6-1.7-3.8-1.7-6.8c0-3.2,0.6-5.7,1.8-7.4s2.9-2.5,5.2-2.5
				c4.3,0,6.5,3.1,6.5,9.4c0,3.1-0.6,5.5-1.8,7.1C173,27.1,171.3,27.9,169.1,27.9z M169.4,11.3c-2.4,0-3.6,2.5-3.6,7.4
				c0,4.6,1.2,6.9,3.5,6.9s3.4-2.3,3.4-7C172.8,13.8,171.7,11.3,169.4,11.3z"/>
			<path class="st5" d="M184.9,27.9c-2,0-3.6-0.8-4.8-2.3c-1.1-1.6-1.7-3.8-1.7-6.8c0-3.2,0.6-5.7,1.8-7.4s2.9-2.5,5.2-2.5
				c4.3,0,6.5,3.1,6.5,9.4c0,3.1-0.6,5.5-1.8,7.1C188.8,27.1,187.1,27.9,184.9,27.9z M185.2,11.3c-2.4,0-3.6,2.5-3.6,7.4
				c0,4.6,1.2,6.9,3.5,6.9s3.4-2.3,3.4-7C188.6,13.8,187.4,11.3,185.2,11.3z"/>
			<path class="st5" d="M201.5,8.9v18.8h-3.2V12.5c-0.6,0.4-1.2,0.7-1.9,1s-1.4,0.5-2.3,0.7v-2.5c0.5-0.2,1-0.3,1.5-0.5
				s1-0.4,1.5-0.6c0.5-0.2,1-0.5,1.4-0.7c0.5-0.3,1-0.6,1.5-0.9h1.5V8.9z"/>
			<path class="st5" d="M212.9,8.9v18.8h-3.2V12.5c-0.6,0.4-1.2,0.7-1.9,1s-1.4,0.5-2.3,0.7v-2.5c0.5-0.2,1-0.3,1.5-0.5
				s1-0.4,1.5-0.6c0.5-0.2,1-0.5,1.4-0.7c0.5-0.3,1-0.6,1.5-0.9h1.5V8.9z"/>
			<path class="st5" d="M223.6,27.9c-2,0-3.6-0.8-4.8-2.3c-1.1-1.6-1.7-3.8-1.7-6.8c0-3.2,0.6-5.7,1.8-7.4s2.9-2.5,5.2-2.5
				c4.3,0,6.5,3.1,6.5,9.4c0,3.1-0.6,5.5-1.8,7.1C227.5,27.1,225.8,27.9,223.6,27.9z M223.9,11.3c-2.4,0-3.6,2.5-3.6,7.4
				c0,4.6,1.2,6.9,3.5,6.9s3.4-2.3,3.4-7C227.3,13.8,226.1,11.3,223.9,11.3z"/>
			<path class="st5" d="M239.3,27.9c-2,0-3.6-0.8-4.8-2.3c-1.1-1.6-1.7-3.8-1.7-6.8c0-3.2,0.6-5.7,1.8-7.4s2.9-2.5,5.2-2.5
				c4.3,0,6.5,3.1,6.5,9.4c0,3.1-0.6,5.5-1.8,7.1C243.2,27.1,241.5,27.9,239.3,27.9z M239.6,11.3c-2.4,0-3.6,2.5-3.6,7.4
				c0,4.6,1.2,6.9,3.5,6.9s3.4-2.3,3.4-7C243,13.8,241.9,11.3,239.6,11.3z"/>
			<path class="st5" d="M255.9,8.9v18.8h-3.2V12.5c-0.6,0.4-1.2,0.7-1.9,1s-1.4,0.5-2.3,0.7v-2.5c0.5-0.2,1-0.3,1.5-0.5
				s1-0.4,1.5-0.6c0.5-0.2,1-0.5,1.4-0.7c0.5-0.3,1-0.6,1.5-0.9h1.5V8.9z"/>
			<path class="st5" d="M266.6,27.9c-2,0-3.6-0.8-4.8-2.3c-1.1-1.6-1.7-3.8-1.7-6.8c0-3.2,0.6-5.7,1.8-7.4c1.2-1.7,2.9-2.5,5.2-2.5
				c4.3,0,6.5,3.1,6.5,9.4c0,3.1-0.6,5.5-1.8,7.1C270.4,27.1,268.7,27.9,266.6,27.9z M266.9,11.3c-2.4,0-3.6,2.5-3.6,7.4
				c0,4.6,1.2,6.9,3.5,6.9s3.4-2.3,3.4-7C270.2,13.8,269.1,11.3,266.9,11.3z"/>
			<path class="st5" d="M283.2,8.9v18.8H280V12.5c-0.6,0.4-1.2,0.7-1.9,1c-0.7,0.3-1.4,0.5-2.3,0.7v-2.5c0.5-0.2,1-0.3,1.5-0.5
				s1-0.4,1.5-0.6c0.5-0.2,1-0.5,1.4-0.7c0.5-0.3,1-0.6,1.5-0.9h1.5V8.9z"/>
			<path class="st5" d="M293.8,27.9c-2,0-3.6-0.8-4.8-2.3c-1.1-1.6-1.7-3.8-1.7-6.8c0-3.2,0.6-5.7,1.8-7.4c1.2-1.7,2.9-2.5,5.2-2.5
				c4.3,0,6.5,3.1,6.5,9.4c0,3.1-0.6,5.5-1.8,7.1C297.7,27.1,296,27.9,293.8,27.9z M294.1,11.3c-2.4,0-3.6,2.5-3.6,7.4
				c0,4.6,1.2,6.9,3.5,6.9s3.4-2.3,3.4-7C297.5,13.8,296.3,11.3,294.1,11.3z"/>
			<path class="st5" d="M309.5,27.9c-2,0-3.6-0.8-4.8-2.3c-1.1-1.6-1.7-3.8-1.7-6.8c0-3.2,0.6-5.7,1.8-7.4c1.2-1.6,3-2.4,5.2-2.4
				c4.3,0,6.5,3.1,6.5,9.4c0,3.1-0.6,5.5-1.8,7.1C313.4,27.1,311.7,27.9,309.5,27.9z M309.9,11.3c-2.4,0-3.6,2.5-3.6,7.4
				c0,4.6,1.2,6.9,3.5,6.9s3.4-2.3,3.4-7C313.2,13.8,312.1,11.3,309.9,11.3z"/>
			<path class="st5" d="M325.3,27.9c-2,0-3.6-0.8-4.8-2.3c-1.1-1.6-1.7-3.8-1.7-6.8c0-3.2,0.6-5.7,1.8-7.4c1.2-1.7,2.9-2.5,5.2-2.5
				c4.3,0,6.5,3.1,6.5,9.4c0,3.1-0.6,5.5-1.8,7.1C329.2,27.1,327.5,27.9,325.3,27.9z M325.6,11.3c-2.4,0-3.6,2.5-3.6,7.4
				c0,4.6,1.2,6.9,3.5,6.9s3.4-2.3,3.4-7C329,13.8,327.9,11.3,325.6,11.3z"/>
			<path class="st5" d="M341,27.9c-2,0-3.6-0.8-4.8-2.3c-1.1-1.6-1.7-3.8-1.7-6.8c0-3.2,0.6-5.7,1.8-7.4c1.2-1.7,2.9-2.5,5.2-2.5
				c4.3,0,6.5,3.1,6.5,9.4c0,3.1-0.6,5.5-1.8,7.1C344.9,27.1,343.2,27.9,341,27.9z M341.4,11.3c-2.4,0-3.6,2.5-3.6,7.4
				c0,4.6,1.2,6.9,3.5,6.9s3.4-2.3,3.4-7C344.7,13.8,343.6,11.3,341.4,11.3z"/>
			<path class="st5" d="M357.6,8.9v18.8h-3.2V12.5c-0.6,0.4-1.2,0.7-1.9,1c-0.7,0.3-1.4,0.5-2.3,0.7v-2.5c0.5-0.2,1-0.3,1.5-0.5
				s1-0.4,1.5-0.6c0.5-0.2,1-0.5,1.4-0.7c0.5-0.3,1-0.6,1.5-0.9h1.5V8.9z"/>
			<path class="st5" d="M368.3,27.9c-2,0-3.6-0.8-4.8-2.3c-1.1-1.6-1.7-3.8-1.7-6.8c0-3.2,0.6-5.7,1.8-7.4c1.2-1.7,2.9-2.5,5.2-2.5
				c4.3,0,6.5,3.1,6.5,9.4c0,3.1-0.6,5.5-1.8,7.1C372.2,27.1,370.5,27.9,368.3,27.9z M368.6,11.3c-2.4,0-3.6,2.5-3.6,7.4
				c0,4.6,1.2,6.9,3.5,6.9s3.4-2.3,3.4-7C372,13.8,370.8,11.3,368.6,11.3z"/>
			<path class="st5" d="M158.5,35.1v18.8h-3.2V38.7c-0.6,0.4-1.2,0.7-1.9,1s-1.4,0.5-2.3,0.7v-2.5c0.5-0.2,1-0.3,1.5-0.5
				s1-0.4,1.5-0.6c0.5-0.2,1-0.5,1.4-0.7c0.5-0.3,1-0.6,1.5-0.9h1.5V35.1z"/>
			<path class="st5" d="M169.4,54.2c-2,0-3.6-0.8-4.8-2.3c-1.1-1.6-1.7-3.8-1.7-6.8c0-3.2,0.6-5.7,1.8-7.4s2.9-2.5,5.2-2.5
				c4.3,0,6.5,3.1,6.5,9.4c0,3.1-0.6,5.5-1.8,7.1C173.3,53.4,171.6,54.2,169.4,54.2z M169.7,37.6c-2.4,0-3.6,2.5-3.6,7.4
				c0,4.6,1.2,6.9,3.5,6.9s3.4-2.3,3.4-7C173.1,40,172,37.6,169.7,37.6z"/>
			<path class="st5" d="M186.3,35.1v18.8h-3.2V38.7c-0.6,0.4-1.2,0.7-1.9,1s-1.4,0.5-2.3,0.7v-2.5c0.5-0.2,1-0.3,1.5-0.5
				s1-0.4,1.5-0.6c0.5-0.2,1-0.5,1.4-0.7c0.5-0.3,1-0.6,1.5-0.9h1.5V35.1z"/>
			<path class="st5" d="M197.2,54.2c-2,0-3.6-0.8-4.8-2.3c-1.1-1.6-1.7-3.8-1.7-6.8c0-3.2,0.6-5.7,1.8-7.4s2.9-2.5,5.2-2.5
				c4.3,0,6.5,3.1,6.5,9.4c0,3.1-0.6,5.5-1.8,7.1C201.1,53.4,199.4,54.2,197.2,54.2z M197.5,37.6c-2.4,0-3.6,2.5-3.6,7.4
				c0,4.6,1.2,6.9,3.5,6.9s3.4-2.3,3.4-7C200.9,40,199.8,37.6,197.5,37.6z"/>
			<path class="st5" d="M213.2,54.2c-2,0-3.6-0.8-4.8-2.3c-1.1-1.6-1.7-3.8-1.7-6.8c0-3.2,0.6-5.7,1.8-7.4s2.9-2.5,5.2-2.5
				c4.3,0,6.5,3.1,6.5,9.4c0,3.1-0.6,5.5-1.8,7.1C217.1,53.4,215.4,54.2,213.2,54.2z M213.6,37.6c-2.4,0-3.6,2.5-3.6,7.4
				c0,4.6,1.2,6.9,3.5,6.9s3.4-2.3,3.4-7C216.9,40,215.8,37.6,213.6,37.6z"/>
			<path class="st5" d="M229.3,54.2c-2,0-3.6-0.8-4.8-2.3c-1.1-1.6-1.7-3.8-1.7-6.8c0-3.2,0.6-5.7,1.8-7.4s2.9-2.5,5.2-2.5
				c4.3,0,6.5,3.1,6.5,9.4c0,3.1-0.6,5.5-1.8,7.1C233.2,53.4,231.5,54.2,229.3,54.2z M229.6,37.6c-2.4,0-3.6,2.5-3.6,7.4
				c0,4.6,1.2,6.9,3.5,6.9s3.4-2.3,3.4-7C233,40,231.8,37.6,229.6,37.6z"/>
			<path class="st5" d="M246.2,35.1v18.8H243V38.7c-0.6,0.4-1.2,0.7-1.9,1s-1.4,0.5-2.3,0.7v-2.5c0.5-0.2,1-0.3,1.5-0.5
				s1-0.4,1.5-0.6c0.5-0.2,1-0.5,1.4-0.7c0.5-0.3,1-0.6,1.5-0.9h1.5V35.1z"/>
			<path class="st5" d="M257.1,54.2c-2,0-3.6-0.8-4.8-2.3c-1.1-1.6-1.7-3.8-1.7-6.8c0-3.2,0.6-5.7,1.8-7.4s2.9-2.5,5.2-2.5
				c4.3,0,6.5,3.1,6.5,9.4c0,3.1-0.6,5.5-1.8,7.1C261,53.4,259.3,54.2,257.1,54.2z M257.4,37.6c-2.4,0-3.6,2.5-3.6,7.4
				c0,4.6,1.2,6.9,3.5,6.9c2.3,0,3.4-2.3,3.4-7C260.8,40,259.6,37.6,257.4,37.6z"/>
			<path class="st5" d="M273.1,54.2c-2,0-3.6-0.8-4.8-2.3c-1.1-1.6-1.7-3.8-1.7-6.8c0-3.2,0.6-5.7,1.8-7.4c1.2-1.7,2.9-2.5,5.2-2.5
				c4.3,0,6.5,3.1,6.5,9.4c0,3.1-0.6,5.5-1.8,7.1C277,53.4,275.3,54.2,273.1,54.2z M273.4,37.6c-2.4,0-3.6,2.5-3.6,7.4
				c0,4.6,1.2,6.9,3.5,6.9s3.4-2.3,3.4-7C276.8,40,275.7,37.6,273.4,37.6z"/>
			<path class="st5" d="M290,35.1v18.8h-3.2V38.7c-0.6,0.4-1.2,0.7-1.9,1c-0.7,0.3-1.4,0.5-2.3,0.7v-2.5c0.5-0.2,1-0.3,1.5-0.5
				s1-0.4,1.5-0.6c0.5-0.2,1-0.5,1.4-0.7c0.5-0.3,1-0.6,1.5-0.9h1.5V35.1z"/>
			<path class="st5" d="M300.9,54.2c-2,0-3.6-0.8-4.8-2.3c-1.1-1.6-1.7-3.8-1.7-6.8c0-3.2,0.6-5.7,1.8-7.4c1.2-1.7,2.9-2.5,5.2-2.5
				c4.3,0,6.5,3.1,6.5,9.4c0,3.1-0.6,5.5-1.8,7.1C304.8,53.4,303.1,54.2,300.9,54.2z M301.2,37.6c-2.4,0-3.6,2.5-3.6,7.4
				c0,4.6,1.2,6.9,3.5,6.9s3.4-2.3,3.4-7C304.6,40,303.5,37.6,301.2,37.6z"/>
			<path class="st5" d="M316.9,54.2c-2,0-3.6-0.8-4.8-2.3c-1.1-1.6-1.7-3.8-1.7-6.8c0-3.2,0.6-5.7,1.8-7.4c1.2-1.7,2.9-2.5,5.2-2.5
				c4.3,0,6.5,3.1,6.5,9.4c0,3.1-0.6,5.5-1.8,7.1C320.8,53.4,319.1,54.2,316.9,54.2z M317.3,37.6c-2.4,0-3.6,2.5-3.6,7.4
				c0,4.6,1.2,6.9,3.5,6.9s3.4-2.3,3.4-7C320.6,40,319.5,37.6,317.3,37.6z"/>
			<path class="st5" d="M333.8,35.1v18.8h-3.2V38.7c-0.6,0.4-1.2,0.7-1.9,1c-0.7,0.3-1.4,0.5-2.3,0.7v-2.5c0.5-0.2,1-0.3,1.5-0.5
				s1-0.4,1.5-0.6c0.5-0.2,1-0.5,1.4-0.7c0.5-0.3,1-0.6,1.5-0.9h1.5V35.1z"/>
			<path class="st5" d="M345.6,35.1v18.8h-3.2V38.7c-0.6,0.4-1.2,0.7-1.9,1c-0.7,0.3-1.4,0.5-2.3,0.7v-2.5c0.5-0.2,1-0.3,1.5-0.5
				s1-0.4,1.5-0.6c0.5-0.2,1-0.5,1.4-0.7c0.5-0.3,1-0.6,1.5-0.9h1.5V35.1z"/>
			<path class="st5" d="M357.4,35.1v18.8h-3.2V38.7c-0.6,0.4-1.2,0.7-1.9,1c-0.7,0.3-1.4,0.5-2.3,0.7v-2.5c0.5-0.2,1-0.3,1.5-0.5
				s1-0.4,1.5-0.6c0.5-0.2,1-0.5,1.4-0.7c0.5-0.3,1-0.6,1.5-0.9h1.5V35.1z"/>
			<path class="st5" d="M368.3,54.2c-2,0-3.6-0.8-4.8-2.3c-1.1-1.6-1.7-3.8-1.7-6.8c0-3.2,0.6-5.7,1.8-7.4c1.2-1.7,2.9-2.5,5.2-2.5
				c4.3,0,6.5,3.1,6.5,9.4c0,3.1-0.6,5.5-1.8,7.1C372.2,53.4,370.5,54.2,368.3,54.2z M368.6,37.6c-2.4,0-3.6,2.5-3.6,7.4
				c0,4.6,1.2,6.9,3.5,6.9s3.4-2.3,3.4-7C372,40,370.8,37.6,368.6,37.6z"/>
			<path class="st5" d="M157.6,80.4c-2,0-3.6-0.8-4.8-2.3c-1.1-1.6-1.7-3.8-1.7-6.8c0-3.2,0.6-5.7,1.8-7.4c1.2-1.7,2.9-2.5,5.2-2.5
				c4.3,0,6.5,3.1,6.5,9.4c0,3.1-0.6,5.5-1.8,7.1C161.5,79.6,159.8,80.4,157.6,80.4z M158,63.8c-2.4,0-3.6,2.5-3.6,7.4
				c0,4.6,1.2,6.9,3.5,6.9s3.4-2.3,3.4-7C161.3,66.2,160.2,63.8,158,63.8z"/>
			<path class="st5" d="M174.3,61.3v18.8h-3.2V65c-0.6,0.4-1.2,0.7-1.9,1s-1.4,0.5-2.3,0.7v-2.5c0.5-0.2,1-0.3,1.5-0.5
				s1-0.4,1.5-0.6c0.5-0.2,1-0.5,1.4-0.7c0.5-0.3,1-0.6,1.5-0.9h1.5V61.3z"/>
			<path class="st5" d="M185,80.4c-2,0-3.6-0.8-4.8-2.3c-1.1-1.6-1.7-3.8-1.7-6.8c0-3.2,0.6-5.7,1.8-7.4c1.2-1.7,2.9-2.5,5.2-2.5
				c4.3,0,6.5,3.1,6.5,9.4c0,3.1-0.6,5.5-1.8,7.1C188.9,79.6,187.2,80.4,185,80.4z M185.3,63.8c-2.4,0-3.6,2.5-3.6,7.4
				c0,4.6,1.2,6.9,3.5,6.9s3.4-2.3,3.4-7C188.7,66.2,187.6,63.8,185.3,63.8z"/>
			<path class="st5" d="M201.7,61.3v18.8h-3.2V65c-0.6,0.4-1.2,0.7-1.9,1s-1.4,0.5-2.3,0.7v-2.5c0.5-0.2,1-0.3,1.5-0.5
				s1-0.4,1.5-0.6c0.5-0.2,1-0.5,1.4-0.7c0.5-0.3,1-0.6,1.5-0.9h1.5V61.3z"/>
			<path class="st5" d="M213.3,61.3v18.8h-3.2V65c-0.6,0.4-1.2,0.7-1.9,1s-1.4,0.5-2.3,0.7v-2.5c0.5-0.2,1-0.3,1.5-0.5
				s1-0.4,1.5-0.6c0.5-0.2,1-0.5,1.4-0.7c0.5-0.3,1-0.6,1.5-0.9h1.5V61.3z"/>
			<path class="st5" d="M224.8,61.3v18.8h-3.2V65c-0.6,0.4-1.2,0.7-1.9,1s-1.4,0.5-2.3,0.7v-2.5c0.5-0.2,1-0.3,1.5-0.5
				s1-0.4,1.5-0.6c0.5-0.2,1-0.5,1.4-0.7c0.5-0.3,1-0.6,1.5-0.9h1.5V61.3z"/>
			<path class="st5" d="M235.6,80.4c-2,0-3.6-0.8-4.8-2.3c-1.1-1.6-1.7-3.8-1.7-6.8c0-3.2,0.6-5.7,1.8-7.4c1.2-1.7,2.9-2.5,5.2-2.5
				c4.3,0,6.5,3.1,6.5,9.4c0,3.1-0.6,5.5-1.8,7.1C239.4,79.6,237.7,80.4,235.6,80.4z M235.9,63.8c-2.4,0-3.6,2.5-3.6,7.4
				c0,4.6,1.2,6.9,3.5,6.9s3.4-2.3,3.4-7C239.2,66.2,238.1,63.8,235.9,63.8z"/>
			<path class="st5" d="M251.4,80.4c-2,0-3.6-0.8-4.8-2.3c-1.1-1.6-1.7-3.8-1.7-6.8c0-3.2,0.6-5.7,1.8-7.4c1.2-1.7,2.9-2.5,5.2-2.5
				c4.3,0,6.5,3.1,6.5,9.4c0,3.1-0.6,5.5-1.8,7.1C255.3,79.6,253.6,80.4,251.4,80.4z M251.7,63.8c-2.4,0-3.6,2.5-3.6,7.4
				c0,4.6,1.2,6.9,3.5,6.9s3.4-2.3,3.4-7C255.1,66.2,254,63.8,251.7,63.8z"/>
			<path class="st5" d="M268.1,61.3v18.8h-3.2V65c-0.6,0.4-1.2,0.7-1.9,1c-0.7,0.3-1.4,0.5-2.3,0.7v-2.5c0.5-0.2,1-0.3,1.5-0.5
				s1-0.4,1.5-0.6c0.5-0.2,1-0.5,1.4-0.7c0.5-0.3,1-0.6,1.5-0.9h1.5V61.3z"/>
			<path class="st5" d="M279.6,61.3v18.8h-3.2V65c-0.6,0.4-1.2,0.7-1.9,1c-0.7,0.3-1.4,0.5-2.3,0.7v-2.5c0.5-0.2,1-0.3,1.5-0.5
				s1-0.4,1.5-0.6c0.5-0.2,1-0.5,1.4-0.7c0.5-0.3,1-0.6,1.5-0.9h1.5V61.3z"/>
			<path class="st5" d="M290.4,80.4c-2,0-3.6-0.8-4.8-2.3c-1.1-1.6-1.7-3.8-1.7-6.8c0-3.2,0.6-5.7,1.8-7.4c1.2-1.7,2.9-2.5,5.2-2.5
				c4.3,0,6.5,3.1,6.5,9.4c0,3.1-0.6,5.5-1.8,7.1C294.2,79.6,292.5,80.4,290.4,80.4z M290.7,63.8c-2.4,0-3.6,2.5-3.6,7.4
				c0,4.6,1.2,6.9,3.5,6.9s3.4-2.3,3.4-7C294,66.2,292.9,63.8,290.7,63.8z"/>
			<path class="st5" d="M306.2,80.4c-2,0-3.6-0.8-4.8-2.3c-1.1-1.6-1.7-3.8-1.7-6.8c0-3.2,0.6-5.7,1.8-7.4c1.2-1.7,2.9-2.5,5.2-2.5
				c4.3,0,6.5,3.1,6.5,9.4c0,3.1-0.6,5.5-1.8,7.1C310.1,79.6,308.4,80.4,306.2,80.4z M306.5,63.8c-2.4,0-3.6,2.5-3.6,7.4
				c0,4.6,1.2,6.9,3.5,6.9s3.4-2.3,3.4-7C309.9,66.2,308.8,63.8,306.5,63.8z"/>
			<path class="st5" d="M322.9,61.3v18.8h-3.2V65c-0.6,0.4-1.2,0.7-1.9,1c-0.7,0.3-1.4,0.5-2.3,0.7v-2.5c0.5-0.2,1-0.3,1.5-0.5
				s1-0.4,1.5-0.6c0.5-0.2,1-0.5,1.4-0.7c0.5-0.3,1-0.6,1.5-0.9h1.5V61.3z"/>
			<path class="st5" d="M334.4,61.3v18.8h-3.2V65c-0.6,0.4-1.2,0.7-1.9,1c-0.7,0.3-1.4,0.5-2.3,0.7v-2.5c0.5-0.2,1-0.3,1.5-0.5
				s1-0.4,1.5-0.6c0.5-0.2,1-0.5,1.4-0.7c0.5-0.3,1-0.6,1.5-0.9h1.5V61.3z"/>
			<path class="st5" d="M346,61.3v18.8h-3.2V65c-0.6,0.4-1.2,0.7-1.9,1c-0.7,0.3-1.4,0.5-2.3,0.7v-2.5c0.5-0.2,1-0.3,1.5-0.5
				s1-0.4,1.5-0.6c0.5-0.2,1-0.5,1.4-0.7c0.5-0.3,1-0.6,1.5-0.9h1.5V61.3z"/>
			<path class="st5" d="M356.7,80.4c-2,0-3.6-0.8-4.8-2.3c-1.1-1.6-1.7-3.8-1.7-6.8c0-3.2,0.6-5.7,1.8-7.4c1.2-1.7,2.9-2.5,5.2-2.5
				c4.3,0,6.5,3.1,6.5,9.4c0,3.1-0.6,5.5-1.8,7.1C360.6,79.6,358.9,80.4,356.7,80.4z M357,63.8c-2.4,0-3.6,2.5-3.6,7.4
				c0,4.6,1.2,6.9,3.5,6.9s3.4-2.3,3.4-7C360.4,66.2,359.3,63.8,357,63.8z"/>
			<path class="st5" d="M373.4,61.3v18.8h-3.2V65c-0.6,0.4-1.2,0.7-1.9,1c-0.7,0.3-1.4,0.5-2.3,0.7v-2.5c0.5-0.2,1-0.3,1.5-0.5
				s1-0.4,1.5-0.6c0.5-0.2,1-0.5,1.4-0.7c0.5-0.3,1-0.6,1.5-0.9h1.5V61.3z"/>
			<path class="st5" d="M157.6,106.6c-2,0-3.6-0.8-4.8-2.3c-1.1-1.6-1.7-3.8-1.7-6.8c0-3.2,0.6-5.7,1.8-7.4c1.2-1.7,2.9-2.5,5.2-2.5
				c4.3,0,6.5,3.1,6.5,9.4c0,3.1-0.6,5.5-1.8,7.1C161.5,105.8,159.8,106.6,157.6,106.6z M158,90c-2.4,0-3.6,2.5-3.6,7.4
				c0,4.6,1.2,6.9,3.5,6.9s3.4-2.3,3.4-7C161.3,92.4,160.2,90,158,90z"/>
			<path class="st5" d="M175.1,87.6v18.8h-3.2V91.2c-0.6,0.4-1.2,0.7-1.9,1s-1.4,0.5-2.3,0.7v-2.5c0.5-0.2,1-0.3,1.5-0.5
				s1-0.4,1.5-0.6s1-0.5,1.4-0.7c0.5-0.3,1-0.6,1.5-0.9L175.1,87.6L175.1,87.6z"/>
			<path class="st5" d="M186.5,106.6c-2,0-3.6-0.8-4.8-2.3c-1.1-1.6-1.7-3.8-1.7-6.8c0-3.2,0.6-5.7,1.8-7.4c1.2-1.7,2.9-2.5,5.2-2.5
				c4.3,0,6.5,3.1,6.5,9.4c0,3.1-0.6,5.5-1.8,7.1C190.4,105.8,188.7,106.6,186.5,106.6z M186.8,90c-2.4,0-3.6,2.5-3.6,7.4
				c0,4.6,1.2,6.9,3.5,6.9s3.4-2.3,3.4-7C190.2,92.4,189.1,90,186.8,90z"/>
			<path class="st5" d="M203.1,106.6c-2,0-3.6-0.8-4.8-2.3c-1.1-1.6-1.7-3.8-1.7-6.8c0-3.2,0.6-5.7,1.8-7.4c1.2-1.7,2.9-2.5,5.2-2.5
				c4.3,0,6.5,3.1,6.5,9.4c0,3.1-0.6,5.5-1.8,7.1C207,105.8,205.3,106.6,203.1,106.6z M203.4,90c-2.4,0-3.6,2.5-3.6,7.4
				c0,4.6,1.2,6.9,3.5,6.9s3.4-2.3,3.4-7C206.8,92.4,205.6,90,203.4,90z"/>
			<path class="st5" d="M220.5,87.6v18.8h-3.2V91.2c-0.6,0.4-1.2,0.7-1.9,1s-1.4,0.5-2.3,0.7v-2.5c0.5-0.2,1-0.3,1.5-0.5
				s1-0.4,1.5-0.6s1-0.5,1.4-0.7c0.5-0.3,1-0.6,1.5-0.9L220.5,87.6L220.5,87.6z"/>
			<path class="st5" d="M232.8,87.6v18.8h-3.2V91.2c-0.6,0.4-1.2,0.7-1.9,1s-1.4,0.5-2.3,0.7v-2.5c0.5-0.2,1-0.3,1.5-0.5
				s1-0.4,1.5-0.6s1-0.5,1.4-0.7c0.5-0.3,1-0.6,1.5-0.9L232.8,87.6L232.8,87.6z"/>
			<path class="st5" d="M244.2,106.6c-2,0-3.6-0.8-4.8-2.3c-1.1-1.6-1.7-3.8-1.7-6.8c0-3.2,0.6-5.7,1.8-7.4c1.2-1.7,2.9-2.5,5.2-2.5
				c4.3,0,6.5,3.1,6.5,9.4c0,3.1-0.6,5.5-1.8,7.1C248.1,105.8,246.4,106.6,244.2,106.6z M244.6,90c-2.4,0-3.6,2.5-3.6,7.4
				c0,4.6,1.2,6.9,3.5,6.9s3.4-2.3,3.4-7C247.9,92.4,246.8,90,244.6,90z"/>
			<path class="st5" d="M260.8,106.6c-2,0-3.6-0.8-4.8-2.3c-1.1-1.6-1.7-3.8-1.7-6.8c0-3.2,0.6-5.7,1.8-7.4c1.2-1.7,2.9-2.5,5.2-2.5
				c4.3,0,6.5,3.1,6.5,9.4c0,3.1-0.6,5.5-1.8,7.1C264.7,105.8,263,106.6,260.8,106.6z M261.1,90c-2.4,0-3.6,2.5-3.6,7.4
				c0,4.6,1.2,6.9,3.5,6.9s3.4-2.3,3.4-7C264.5,92.4,263.4,90,261.1,90z"/>
			<path class="st5" d="M278.2,87.6v18.8H275V91.2c-0.6,0.4-1.2,0.7-1.9,1c-0.7,0.3-1.4,0.5-2.3,0.7v-2.5c0.5-0.2,1-0.3,1.5-0.5
				s1-0.4,1.5-0.6s1-0.5,1.4-0.7c0.5-0.3,1-0.6,1.5-0.9L278.2,87.6L278.2,87.6z"/>
			<path class="st5" d="M289.7,106.6c-2,0-3.6-0.8-4.8-2.3c-1.1-1.6-1.7-3.8-1.7-6.8c0-3.2,0.6-5.7,1.8-7.4c1.2-1.7,2.9-2.5,5.2-2.5
				c4.3,0,6.5,3.1,6.5,9.4c0,3.1-0.6,5.5-1.8,7.1C293.6,105.8,291.9,106.6,289.7,106.6z M290,90c-2.4,0-3.6,2.5-3.6,7.4
				c0,4.6,1.2,6.9,3.5,6.9s3.4-2.3,3.4-7C293.4,92.4,292.3,90,290,90z"/>
			<path class="st5" d="M307.1,87.6v18.8h-3.2V91.2c-0.6,0.4-1.2,0.7-1.9,1c-0.7,0.3-1.4,0.5-2.3,0.7v-2.5c0.5-0.2,1-0.3,1.5-0.5
				s1-0.4,1.5-0.6s1-0.5,1.4-0.7c0.5-0.3,1-0.6,1.5-0.9L307.1,87.6L307.1,87.6z"/>
			<path class="st5" d="M318.6,106.6c-2,0-3.6-0.8-4.8-2.3c-1.1-1.6-1.7-3.8-1.7-6.8c0-3.2,0.6-5.7,1.8-7.4c1.2-1.7,2.9-2.5,5.2-2.5
				c4.3,0,6.5,3.1,6.5,9.4c0,3.1-0.6,5.5-1.8,7.1C322.4,105.8,320.7,106.6,318.6,106.6z M318.9,90c-2.4,0-3.6,2.5-3.6,7.4
				c0,4.6,1.2,6.9,3.5,6.9s3.4-2.3,3.4-7C322.2,92.4,321.1,90,318.9,90z"/>
			<path class="st5" d="M335.1,106.6c-2,0-3.6-0.8-4.8-2.3c-1.1-1.6-1.7-3.8-1.7-6.8c0-3.2,0.6-5.7,1.8-7.4c1.2-1.7,2.9-2.5,5.2-2.5
				c4.3,0,6.5,3.1,6.5,9.4c0,3.1-0.6,5.5-1.8,7.1C339,105.8,337.3,106.6,335.1,106.6z M335.4,90c-2.4,0-3.6,2.5-3.6,7.4
				c0,4.6,1.2,6.9,3.5,6.9s3.4-2.3,3.4-7C338.8,92.4,337.7,90,335.4,90z"/>
			<path class="st5" d="M351.7,106.6c-2,0-3.6-0.8-4.8-2.3c-1.1-1.6-1.7-3.8-1.7-6.8c0-3.2,0.6-5.7,1.8-7.4c1.2-1.7,2.9-2.5,5.2-2.5
				c4.3,0,6.5,3.1,6.5,9.4c0,3.1-0.6,5.5-1.8,7.1C355.6,105.8,353.9,106.6,351.7,106.6z M352,90c-2.4,0-3.6,2.5-3.6,7.4
				c0,4.6,1.2,6.9,3.5,6.9s3.4-2.3,3.4-7C355.4,92.4,354.3,90,352,90z"/>
			<path class="st5" d="M368.3,106.6c-2,0-3.6-0.8-4.8-2.3c-1.1-1.6-1.7-3.8-1.7-6.8c0-3.2,0.6-5.7,1.8-7.4c1.2-1.7,2.9-2.5,5.2-2.5
				c4.3,0,6.5,3.1,6.5,9.4c0,3.1-0.6,5.5-1.8,7.1C372.2,105.8,370.5,106.6,368.3,106.6z M368.6,90c-2.4,0-3.6,2.5-3.6,7.4
				c0,4.6,1.2,6.9,3.5,6.9s3.4-2.3,3.4-7C372,92.4,370.8,90,368.6,90z"/>
			<path class="st5" d="M157.6,132.9c-2,0-3.6-0.8-4.8-2.3c-1.1-1.6-1.7-3.8-1.7-6.8c0-3.2,0.6-5.7,1.8-7.4c1.2-1.7,2.9-2.5,5.2-2.5
				c4.3,0,6.5,3.1,6.5,9.4c0,3.1-0.6,5.5-1.8,7.1C161.5,132,159.8,132.9,157.6,132.9z M158,116.3c-2.4,0-3.6,2.5-3.6,7.4
				c0,4.6,1.2,6.9,3.5,6.9s3.4-2.3,3.4-7C161.3,118.7,160.2,116.3,158,116.3z"/>
			<path class="st5" d="M174.3,113.8v18.8h-3.2v-15.1c-0.6,0.4-1.2,0.7-1.9,1s-1.4,0.5-2.3,0.7v-2.5c0.5-0.2,1-0.3,1.5-0.5
				s1-0.4,1.5-0.6s1-0.5,1.4-0.7c0.5-0.3,1-0.6,1.5-0.9h1.5V113.8z"/>
			<path class="st5" d="M185,132.9c-2,0-3.6-0.8-4.8-2.3c-1.1-1.6-1.7-3.8-1.7-6.8c0-3.2,0.6-5.7,1.8-7.4c1.2-1.7,2.9-2.5,5.2-2.5
				c4.3,0,6.5,3.1,6.5,9.4c0,3.1-0.6,5.5-1.8,7.1C188.9,132,187.2,132.9,185,132.9z M185.3,116.3c-2.4,0-3.6,2.5-3.6,7.4
				c0,4.6,1.2,6.9,3.5,6.9s3.4-2.3,3.4-7C188.7,118.7,187.6,116.3,185.3,116.3z"/>
			<path class="st5" d="M201.7,113.8v18.8h-3.2v-15.1c-0.6,0.4-1.2,0.7-1.9,1s-1.4,0.5-2.3,0.7v-2.5c0.5-0.2,1-0.3,1.5-0.5
				s1-0.4,1.5-0.6s1-0.5,1.4-0.7c0.5-0.3,1-0.6,1.5-0.9h1.5V113.8z"/>
			<path class="st5" d="M213.3,113.8v18.8h-3.2v-15.1c-0.6,0.4-1.2,0.7-1.9,1s-1.4,0.5-2.3,0.7v-2.5c0.5-0.2,1-0.3,1.5-0.5
				s1-0.4,1.5-0.6s1-0.5,1.4-0.7c0.5-0.3,1-0.6,1.5-0.9h1.5V113.8z"/>
			<path class="st5" d="M224.8,113.8v18.8h-3.2v-15.1c-0.6,0.4-1.2,0.7-1.9,1s-1.4,0.5-2.3,0.7v-2.5c0.5-0.2,1-0.3,1.5-0.5
				s1-0.4,1.5-0.6s1-0.5,1.4-0.7c0.5-0.3,1-0.6,1.5-0.9h1.5V113.8z"/>
			<path class="st5" d="M235.6,132.9c-2,0-3.6-0.8-4.8-2.3c-1.1-1.6-1.7-3.8-1.7-6.8c0-3.2,0.6-5.7,1.8-7.4c1.2-1.7,2.9-2.5,5.2-2.5
				c4.3,0,6.5,3.1,6.5,9.4c0,3.1-0.6,5.5-1.8,7.1C239.4,132,237.7,132.9,235.6,132.9z M235.9,116.3c-2.4,0-3.6,2.5-3.6,7.4
				c0,4.6,1.2,6.9,3.5,6.9s3.4-2.3,3.4-7C239.2,118.7,238.1,116.3,235.9,116.3z"/>
			<path class="st5" d="M251.4,132.9c-2,0-3.6-0.8-4.8-2.3c-1.1-1.6-1.7-3.8-1.7-6.8c0-3.2,0.6-5.7,1.8-7.4c1.2-1.7,2.9-2.5,5.2-2.5
				c4.3,0,6.5,3.1,6.5,9.4c0,3.1-0.6,5.5-1.8,7.1C255.3,132,253.6,132.9,251.4,132.9z M251.7,116.3c-2.4,0-3.6,2.5-3.6,7.4
				c0,4.6,1.2,6.9,3.5,6.9s3.4-2.3,3.4-7C255.1,118.7,254,116.3,251.7,116.3z"/>
			<path class="st5" d="M268.1,113.8v18.8h-3.2v-15.1c-0.6,0.4-1.2,0.7-1.9,1c-0.7,0.3-1.4,0.5-2.3,0.7v-2.5c0.5-0.2,1-0.3,1.5-0.5
				s1-0.4,1.5-0.6s1-0.5,1.4-0.7c0.5-0.3,1-0.6,1.5-0.9h1.5V113.8z"/>
			<path class="st5" d="M279.6,113.8v18.8h-3.2v-15.1c-0.6,0.4-1.2,0.7-1.9,1c-0.7,0.3-1.4,0.5-2.3,0.7v-2.5c0.5-0.2,1-0.3,1.5-0.5
				s1-0.4,1.5-0.6s1-0.5,1.4-0.7c0.5-0.3,1-0.6,1.5-0.9h1.5V113.8z"/>
			<path class="st5" d="M290.4,132.9c-2,0-3.6-0.8-4.8-2.3c-1.1-1.6-1.7-3.8-1.7-6.8c0-3.2,0.6-5.7,1.8-7.4c1.2-1.7,2.9-2.5,5.2-2.5
				c4.3,0,6.5,3.1,6.5,9.4c0,3.1-0.6,5.5-1.8,7.1C294.2,132,292.5,132.9,290.4,132.9z M290.7,116.3c-2.4,0-3.6,2.5-3.6,7.4
				c0,4.6,1.2,6.9,3.5,6.9s3.4-2.3,3.4-7C294,118.7,292.9,116.3,290.7,116.3z"/>
			<path class="st5" d="M306.2,132.9c-2,0-3.6-0.8-4.8-2.3c-1.1-1.6-1.7-3.8-1.7-6.8c0-3.2,0.6-5.7,1.8-7.4c1.2-1.7,2.9-2.5,5.2-2.5
				c4.3,0,6.5,3.1,6.5,9.4c0,3.1-0.6,5.5-1.8,7.1C310.1,132,308.4,132.9,306.2,132.9z M306.5,116.3c-2.4,0-3.6,2.5-3.6,7.4
				c0,4.6,1.2,6.9,3.5,6.9s3.4-2.3,3.4-7C309.9,118.7,308.8,116.3,306.5,116.3z"/>
			<path class="st5" d="M322.9,113.8v18.8h-3.2v-15.1c-0.6,0.4-1.2,0.7-1.9,1c-0.7,0.3-1.4,0.5-2.3,0.7v-2.5c0.5-0.2,1-0.3,1.5-0.5
				s1-0.4,1.5-0.6s1-0.5,1.4-0.7c0.5-0.3,1-0.6,1.5-0.9h1.5V113.8z"/>
			<path class="st5" d="M334.4,113.8v18.8h-3.2v-15.1c-0.6,0.4-1.2,0.7-1.9,1c-0.7,0.3-1.4,0.5-2.3,0.7v-2.5c0.5-0.2,1-0.3,1.5-0.5
				s1-0.4,1.5-0.6s1-0.5,1.4-0.7c0.5-0.3,1-0.6,1.5-0.9h1.5V113.8z"/>
			<path class="st5" d="M346,113.8v18.8h-3.2v-15.1c-0.6,0.4-1.2,0.7-1.9,1c-0.7,0.3-1.4,0.5-2.3,0.7v-2.5c0.5-0.2,1-0.3,1.5-0.5
				s1-0.4,1.5-0.6s1-0.5,1.4-0.7c0.5-0.3,1-0.6,1.5-0.9h1.5V113.8z"/>
			<path class="st5" d="M356.7,132.9c-2,0-3.6-0.8-4.8-2.3c-1.1-1.6-1.7-3.8-1.7-6.8c0-3.2,0.6-5.7,1.8-7.4c1.2-1.7,2.9-2.5,5.2-2.5
				c4.3,0,6.5,3.1,6.5,9.4c0,3.1-0.6,5.5-1.8,7.1C360.6,132,358.9,132.9,356.7,132.9z M357,116.3c-2.4,0-3.6,2.5-3.6,7.4
				c0,4.6,1.2,6.9,3.5,6.9s3.4-2.3,3.4-7C360.4,118.7,359.3,116.3,357,116.3z"/>
			<path class="st5" d="M373.4,113.8v18.8h-3.2v-15.1c-0.6,0.4-1.2,0.7-1.9,1c-0.7,0.3-1.4,0.5-2.3,0.7v-2.5c0.5-0.2,1-0.3,1.5-0.5
				s1-0.4,1.5-0.6s1-0.5,1.4-0.7c0.5-0.3,1-0.6,1.5-0.9h1.5V113.8z"/>
		</g>
	</g>
	<g class="st9">
		<g>
			<path class="st5" d="M164.3,9.8v18.3h-3V13.3c-0.5,0.4-1.1,0.7-1.7,1c-0.6,0.3-1.3,0.5-2.1,0.7v-2.5c0.5-0.2,1-0.3,1.4-0.5
				c0.5-0.2,0.9-0.4,1.4-0.6c0.5-0.2,0.9-0.5,1.4-0.7c0.5-0.3,0.9-0.6,1.4-0.9H164.3z"/>
			<path class="st5" d="M174.3,28.4c-1.9,0-3.4-0.8-4.5-2.3s-1.6-3.7-1.6-6.6c0-3.2,0.6-5.6,1.7-7.2c1.1-1.6,2.8-2.4,4.9-2.4
				c4.1,0,6.1,3.1,6.1,9.2c0,3-0.6,5.4-1.7,6.9C178,27.6,176.4,28.4,174.3,28.4z M174.6,12.2c-2.2,0-3.4,2.4-3.4,7.2
				c0,4.5,1.1,6.7,3.3,6.7s3.3-2.3,3.3-6.8C177.8,14.5,176.7,12.2,174.6,12.2z"/>
			<path class="st5" d="M189.2,28.4c-1.9,0-3.4-0.8-4.5-2.3s-1.6-3.7-1.6-6.6c0-3.2,0.6-5.6,1.7-7.2c1.1-1.6,2.8-2.4,4.9-2.4
				c4.1,0,6.1,3.1,6.1,9.2c0,3-0.6,5.4-1.7,6.9C192.9,27.6,191.3,28.4,189.2,28.4z M189.5,12.2c-2.2,0-3.4,2.4-3.4,7.2
				c0,4.5,1.1,6.7,3.3,6.7s3.3-2.3,3.3-6.8C192.7,14.5,191.6,12.2,189.5,12.2z"/>
			<path class="st5" d="M204.9,9.8v18.3h-3V13.3c-0.5,0.4-1.1,0.7-1.7,1c-0.6,0.3-1.3,0.5-2.1,0.7v-2.5c0.5-0.2,1-0.3,1.4-0.5
				c0.5-0.2,0.9-0.4,1.4-0.6c0.5-0.2,0.9-0.5,1.4-0.7c0.5-0.3,0.9-0.6,1.4-0.9H204.9z"/>
			<path class="st5" d="M215.7,9.8v18.3h-3V13.3c-0.5,0.4-1.1,0.7-1.7,1c-0.6,0.3-1.3,0.5-2.1,0.7v-2.5c0.5-0.2,1-0.3,1.4-0.5
				c0.5-0.2,0.9-0.4,1.4-0.6c0.5-0.2,0.9-0.5,1.4-0.7c0.5-0.3,0.9-0.6,1.4-0.9H215.7z"/>
			<path class="st5" d="M225.8,28.4c-1.9,0-3.4-0.8-4.5-2.3s-1.6-3.7-1.6-6.6c0-3.2,0.6-5.6,1.7-7.2c1.1-1.6,2.8-2.4,4.9-2.4
				c4.1,0,6.1,3.1,6.1,9.2c0,3-0.6,5.4-1.7,6.9C229.4,27.6,227.8,28.4,225.8,28.4z M226.1,12.2c-2.2,0-3.4,2.4-3.4,7.2
				c0,4.5,1.1,6.7,3.3,6.7s3.3-2.3,3.3-6.8C229.2,14.5,228.2,12.2,226.1,12.2z"/>
			<path class="st5" d="M240.6,28.4c-1.9,0-3.4-0.8-4.5-2.3s-1.6-3.7-1.6-6.6c0-3.2,0.6-5.6,1.7-7.2c1.1-1.6,2.8-2.4,4.9-2.4
				c4.1,0,6.1,3.1,6.1,9.2c0,3-0.6,5.4-1.7,6.9C244.3,27.6,242.7,28.4,240.6,28.4z M240.9,12.2c-2.2,0-3.4,2.4-3.4,7.2
				c0,4.5,1.1,6.7,3.3,6.7s3.3-2.3,3.3-6.8C244.1,14.5,243.1,12.2,240.9,12.2z"/>
			<path class="st5" d="M256.3,9.8v18.3h-3V13.3c-0.5,0.4-1.1,0.7-1.7,1s-1.3,0.5-2.1,0.7v-2.5c0.5-0.2,1-0.3,1.4-0.5
				c0.5-0.2,0.9-0.4,1.4-0.6c0.5-0.2,0.9-0.5,1.4-0.7c0.5-0.3,0.9-0.6,1.4-0.9H256.3z"/>
			<path class="st5" d="M266.4,28.4c-1.9,0-3.4-0.8-4.5-2.3s-1.6-3.7-1.6-6.6c0-3.2,0.6-5.6,1.7-7.2s2.8-2.4,4.9-2.4
				c4.1,0,6.1,3.1,6.1,9.2c0,3-0.6,5.4-1.7,6.9C270,27.6,268.4,28.4,266.4,28.4z M266.7,12.2c-2.2,0-3.4,2.4-3.4,7.2
				c0,4.5,1.1,6.7,3.3,6.7c2.2,0,3.3-2.3,3.3-6.8C269.9,14.5,268.8,12.2,266.7,12.2z"/>
			<path class="st5" d="M282.1,9.8v18.3h-3V13.3c-0.5,0.4-1.1,0.7-1.7,1s-1.3,0.5-2.1,0.7v-2.5c0.5-0.2,1-0.3,1.4-0.5
				c0.5-0.2,0.9-0.4,1.4-0.6c0.5-0.2,0.9-0.5,1.4-0.7c0.5-0.3,0.9-0.6,1.4-0.9H282.1z"/>
			<path class="st5" d="M292.1,28.4c-1.9,0-3.4-0.8-4.5-2.3s-1.6-3.7-1.6-6.6c0-3.2,0.6-5.6,1.7-7.2s2.8-2.4,4.9-2.4
				c4.1,0,6.1,3.1,6.1,9.2c0,3-0.6,5.4-1.7,6.9C295.8,27.6,294.2,28.4,292.1,28.4z M292.4,12.2c-2.2,0-3.4,2.4-3.4,7.2
				c0,4.5,1.1,6.7,3.3,6.7c2.2,0,3.3-2.3,3.3-6.8C295.6,14.5,294.5,12.2,292.4,12.2z"/>
			<path class="st5" d="M307,28.4c-1.9,0-3.4-0.8-4.5-2.3s-1.6-3.7-1.6-6.6c0-3.2,0.6-5.6,1.7-7.2s2.8-2.4,4.9-2.4
				c4.1,0,6.1,3.1,6.1,9.2c0,3-0.6,5.4-1.7,6.9C310.6,27.6,309,28.4,307,28.4z M307.3,12.2c-2.2,0-3.4,2.4-3.4,7.2
				c0,4.5,1.1,6.7,3.3,6.7c2.2,0,3.3-2.3,3.3-6.8C310.5,14.5,309.4,12.2,307.3,12.2z"/>
			<path class="st5" d="M321.9,28.4c-1.9,0-3.4-0.8-4.5-2.3s-1.6-3.7-1.6-6.6c0-3.2,0.6-5.6,1.7-7.2s2.8-2.4,4.9-2.4
				c4.1,0,6.1,3.1,6.1,9.2c0,3-0.6,5.4-1.7,6.9C325.5,27.6,323.9,28.4,321.9,28.4z M322.2,12.2c-2.2,0-3.4,2.4-3.4,7.2
				c0,4.5,1.1,6.7,3.3,6.7c2.2,0,3.3-2.3,3.3-6.8C325.3,14.5,324.3,12.2,322.2,12.2z"/>
			<path class="st5" d="M336.7,28.4c-1.9,0-3.4-0.8-4.5-2.3s-1.6-3.7-1.6-6.6c0-3.2,0.6-5.6,1.7-7.2s2.8-2.4,4.9-2.4
				c4.1,0,6.1,3.1,6.1,9.2c0,3-0.6,5.4-1.7,6.9C340.4,27.6,338.8,28.4,336.7,28.4z M337,12.2c-2.2,0-3.4,2.4-3.4,7.2
				c0,4.5,1.1,6.7,3.3,6.7c2.2,0,3.3-2.3,3.3-6.8C340.2,14.5,339.2,12.2,337,12.2z"/>
			<path class="st5" d="M352.4,9.8v18.3h-3V13.3c-0.5,0.4-1.1,0.7-1.7,1s-1.3,0.5-2.1,0.7v-2.5c0.5-0.2,1-0.3,1.4-0.5
				c0.5-0.2,0.9-0.4,1.4-0.6c0.5-0.2,0.9-0.5,1.4-0.7c0.5-0.3,0.9-0.6,1.4-0.9H352.4z"/>
			<path class="st5" d="M362.5,28.4c-1.9,0-3.4-0.8-4.5-2.3s-1.6-3.7-1.6-6.6c0-3.2,0.6-5.6,1.7-7.2s2.8-2.4,4.9-2.4
				c4.1,0,6.1,3.1,6.1,9.2c0,3-0.6,5.4-1.7,6.9C366.1,27.6,364.5,28.4,362.5,28.4z M362.8,12.2c-2.2,0-3.4,2.4-3.4,7.2
				c0,4.5,1.1,6.7,3.3,6.7c2.2,0,3.3-2.3,3.3-6.8C366,14.5,364.9,12.2,362.8,12.2z"/>
			<path class="st5" d="M164.3,35.4v18.3h-3V38.9c-0.5,0.4-1.1,0.7-1.7,1c-0.6,0.3-1.3,0.5-2.1,0.7v-2.5c0.5-0.2,1-0.3,1.4-0.5
				c0.5-0.2,0.9-0.4,1.4-0.6c0.5-0.2,0.9-0.5,1.4-0.7c0.5-0.3,0.9-0.6,1.4-0.9H164.3z"/>
			<path class="st5" d="M174.6,54c-1.9,0-3.4-0.8-4.5-2.3s-1.6-3.7-1.6-6.6c0-3.2,0.6-5.6,1.7-7.2c1.1-1.6,2.8-2.4,4.9-2.4
				c4.1,0,6.1,3.1,6.1,9.2c0,3-0.6,5.4-1.7,6.9C178.3,53.2,176.6,54,174.6,54z M174.9,37.8c-2.2,0-3.4,2.4-3.4,7.2
				c0,4.5,1.1,6.7,3.3,6.7s3.3-2.3,3.3-6.8C178.1,40.1,177,37.8,174.9,37.8z"/>
			<path class="st5" d="M190.5,35.4v18.3h-3V38.9c-0.5,0.4-1.1,0.7-1.7,1c-0.6,0.3-1.3,0.5-2.1,0.7v-2.5c0.5-0.2,1-0.3,1.4-0.5
				c0.5-0.2,0.9-0.4,1.4-0.6c0.5-0.2,0.9-0.5,1.4-0.7c0.5-0.3,0.9-0.6,1.4-0.9H190.5z"/>
			<path class="st5" d="M200.8,54c-1.9,0-3.4-0.8-4.5-2.3s-1.6-3.7-1.6-6.6c0-3.2,0.6-5.6,1.7-7.2c1.1-1.6,2.8-2.4,4.9-2.4
				c4.1,0,6.1,3.1,6.1,9.2c0,3-0.6,5.4-1.7,6.9C204.5,53.2,202.9,54,200.8,54z M201.1,37.8c-2.2,0-3.4,2.4-3.4,7.2
				c0,4.5,1.1,6.7,3.3,6.7s3.3-2.3,3.3-6.8C204.3,40.1,203.3,37.8,201.1,37.8z"/>
			<path class="st5" d="M216,54c-1.9,0-3.4-0.8-4.5-2.3s-1.6-3.7-1.6-6.6c0-3.2,0.6-5.6,1.7-7.2c1.1-1.6,2.8-2.4,4.9-2.4
				c4.1,0,6.1,3.1,6.1,9.2c0,3-0.6,5.4-1.7,6.9C219.7,53.2,218.1,54,216,54z M216.3,37.8c-2.2,0-3.4,2.4-3.4,7.2
				c0,4.5,1.1,6.7,3.3,6.7s3.3-2.3,3.3-6.8C219.5,40.1,218.4,37.8,216.3,37.8z"/>
			<path class="st5" d="M231.1,54c-1.9,0-3.4-0.8-4.5-2.3S225,48,225,45.1c0-3.2,0.6-5.6,1.7-7.2c1.1-1.6,2.8-2.4,4.9-2.4
				c4.1,0,6.1,3.1,6.1,9.2c0,3-0.6,5.4-1.7,6.9C234.8,53.2,233.2,54,231.1,54z M231.4,37.8c-2.2,0-3.4,2.4-3.4,7.2
				c0,4.5,1.1,6.7,3.3,6.7s3.3-2.3,3.3-6.8C234.6,40.1,233.6,37.8,231.4,37.8z"/>
			<path class="st5" d="M247.1,35.4v18.3h-3V38.9c-0.5,0.4-1.1,0.7-1.7,1c-0.6,0.3-1.3,0.5-2.1,0.7v-2.5c0.5-0.2,1-0.3,1.4-0.5
				c0.5-0.2,0.9-0.4,1.4-0.6c0.5-0.2,0.9-0.5,1.4-0.7c0.5-0.3,0.9-0.6,1.4-0.9H247.1z"/>
			<path class="st5" d="M257.4,54c-1.9,0-3.4-0.8-4.5-2.3s-1.6-3.7-1.6-6.6c0-3.2,0.6-5.6,1.7-7.2c1.1-1.6,2.8-2.4,4.9-2.4
				c4.1,0,6.1,3.1,6.1,9.2c0,3-0.6,5.4-1.7,6.9C261.1,53.2,259.5,54,257.4,54z M257.7,37.8c-2.2,0-3.4,2.4-3.4,7.2
				c0,4.5,1.1,6.7,3.3,6.7c2.2,0,3.3-2.3,3.3-6.8C260.9,40.1,259.8,37.8,257.7,37.8z"/>
			<path class="st5" d="M272.6,54c-1.9,0-3.4-0.8-4.5-2.3s-1.6-3.7-1.6-6.6c0-3.2,0.6-5.6,1.7-7.2c1.1-1.6,2.8-2.4,4.9-2.4
				c4.1,0,6.1,3.1,6.1,9.2c0,3-0.6,5.4-1.7,6.9C276.2,53.2,274.6,54,272.6,54z M272.9,37.8c-2.2,0-3.4,2.4-3.4,7.2
				c0,4.5,1.1,6.7,3.3,6.7c2.2,0,3.3-2.3,3.3-6.8C276,40.1,275,37.8,272.9,37.8z"/>
			<path class="st5" d="M288.5,35.4v18.3h-3V38.9c-0.5,0.4-1.1,0.7-1.7,1s-1.3,0.5-2.1,0.7v-2.5c0.5-0.2,1-0.3,1.4-0.5
				c0.5-0.2,0.9-0.4,1.4-0.6c0.5-0.2,0.9-0.5,1.4-0.7c0.5-0.3,0.9-0.6,1.4-0.9H288.5z"/>
			<path class="st5" d="M298.8,54c-1.9,0-3.4-0.8-4.5-2.3s-1.6-3.7-1.6-6.6c0-3.2,0.6-5.6,1.7-7.2c1.1-1.6,2.8-2.4,4.9-2.4
				c4.1,0,6.1,3.1,6.1,9.2c0,3-0.6,5.4-1.7,6.9C302.5,53.2,300.9,54,298.8,54z M299.1,37.8c-2.2,0-3.4,2.4-3.4,7.2
				c0,4.5,1.1,6.7,3.3,6.7c2.2,0,3.3-2.3,3.3-6.8C302.3,40.1,301.2,37.8,299.1,37.8z"/>
			<path class="st5" d="M314,54c-1.9,0-3.4-0.8-4.5-2.3s-1.6-3.7-1.6-6.6c0-3.2,0.6-5.6,1.7-7.2c1.1-1.6,2.8-2.4,4.9-2.4
				c4.1,0,6.1,3.1,6.1,9.2c0,3-0.6,5.4-1.7,6.9C317.7,53.2,316,54,314,54z M314.3,37.8c-2.2,0-3.4,2.4-3.4,7.2
				c0,4.5,1.1,6.7,3.3,6.7c2.2,0,3.3-2.3,3.3-6.8C317.5,40.1,316.4,37.8,314.3,37.8z"/>
			<path class="st5" d="M329.9,35.4v18.3h-3V38.9c-0.5,0.4-1.1,0.7-1.7,1s-1.3,0.5-2.1,0.7v-2.5c0.5-0.2,1-0.3,1.4-0.5
				c0.5-0.2,0.9-0.4,1.4-0.6c0.5-0.2,0.9-0.5,1.4-0.7c0.5-0.3,0.9-0.6,1.4-0.9H329.9z"/>
			<path class="st5" d="M341,35.4v18.3h-3V38.9c-0.5,0.4-1.1,0.7-1.7,1s-1.3,0.5-2.1,0.7v-2.5c0.5-0.2,1-0.3,1.4-0.5
				c0.5-0.2,0.9-0.4,1.4-0.6c0.5-0.2,0.9-0.5,1.4-0.7c0.5-0.3,0.9-0.6,1.4-0.9H341z"/>
			<path class="st5" d="M352.2,35.4v18.3h-3V38.9c-0.5,0.4-1.1,0.7-1.7,1s-1.3,0.5-2.1,0.7v-2.5c0.5-0.2,1-0.3,1.4-0.5
				c0.5-0.2,0.9-0.4,1.4-0.6c0.5-0.2,0.9-0.5,1.4-0.7c0.5-0.3,0.9-0.6,1.4-0.9H352.2z"/>
			<path class="st5" d="M362.5,54c-1.9,0-3.4-0.8-4.5-2.3s-1.6-3.7-1.6-6.6c0-3.2,0.6-5.6,1.7-7.2c1.1-1.6,2.8-2.4,4.9-2.4
				c4.1,0,6.1,3.1,6.1,9.2c0,3-0.6,5.4-1.7,6.9C366.1,53.2,364.5,54,362.5,54z M362.8,37.8c-2.2,0-3.4,2.4-3.4,7.2
				c0,4.5,1.1,6.7,3.3,6.7c2.2,0,3.3-2.3,3.3-6.8C366,40.1,364.9,37.8,362.8,37.8z"/>
			<path class="st5" d="M163.5,79.6c-1.9,0-3.4-0.8-4.5-2.3s-1.6-3.7-1.6-6.6c0-3.2,0.6-5.6,1.7-7.2c1.1-1.6,2.8-2.4,4.9-2.4
				c4.1,0,6.1,3.1,6.1,9.2c0,3-0.6,5.4-1.7,6.9C167.1,78.8,165.5,79.6,163.5,79.6z M163.8,63.4c-2.2,0-3.4,2.4-3.4,7.2
				c0,4.5,1.1,6.7,3.3,6.7s3.3-2.3,3.3-6.8C167,65.8,165.9,63.4,163.8,63.4z"/>
			<path class="st5" d="M179.2,61v18.3h-3V64.5c-0.5,0.4-1.1,0.7-1.7,1c-0.6,0.3-1.3,0.5-2.1,0.7v-2.5c0.5-0.2,1-0.3,1.4-0.5
				c0.5-0.2,0.9-0.4,1.4-0.6c0.5-0.2,0.9-0.5,1.4-0.7c0.5-0.3,0.9-0.6,1.4-0.9C178,61,179.2,61,179.2,61z"/>
			<path class="st5" d="M189.4,79.6c-1.9,0-3.4-0.8-4.5-2.3s-1.6-3.7-1.6-6.6c0-3.2,0.6-5.6,1.7-7.2c1.1-1.6,2.8-2.4,4.9-2.4
				c4.1,0,6.1,3.1,6.1,9.2c0,3-0.6,5.4-1.7,6.9C193,78.8,191.4,79.6,189.4,79.6z M189.6,63.4c-2.2,0-3.4,2.4-3.4,7.2
				c0,4.5,1.1,6.7,3.3,6.7s3.3-2.3,3.3-6.8C192.8,65.8,191.8,63.4,189.6,63.4z"/>
			<path class="st5" d="M205.1,61v18.3h-3V64.5c-0.5,0.4-1.1,0.7-1.7,1c-0.6,0.3-1.3,0.5-2.1,0.7v-2.5c0.5-0.2,1-0.3,1.4-0.5
				c0.5-0.2,0.9-0.4,1.4-0.6c0.5-0.2,0.9-0.5,1.4-0.7c0.5-0.3,0.9-0.6,1.4-0.9C203.9,61,205.1,61,205.1,61z"/>
			<path class="st5" d="M216,61v18.3h-3V64.5c-0.5,0.4-1.1,0.7-1.7,1c-0.6,0.3-1.3,0.5-2.1,0.7v-2.5c0.5-0.2,1-0.3,1.4-0.5
				c0.5-0.2,0.9-0.4,1.4-0.6c0.5-0.2,0.9-0.5,1.4-0.7c0.5-0.3,0.9-0.6,1.4-0.9C214.8,61,216,61,216,61z"/>
			<path class="st5" d="M227,61v18.3h-3V64.5c-0.5,0.4-1.1,0.7-1.7,1c-0.6,0.3-1.3,0.5-2.1,0.7v-2.5c0.5-0.2,1-0.3,1.4-0.5
				c0.5-0.2,0.9-0.4,1.4-0.6c0.5-0.2,0.9-0.5,1.4-0.7c0.5-0.3,0.9-0.6,1.4-0.9C225.8,61,227,61,227,61z"/>
			<path class="st5" d="M237.1,79.6c-1.9,0-3.4-0.8-4.5-2.3s-1.6-3.7-1.6-6.6c0-3.2,0.6-5.6,1.7-7.2c1.1-1.6,2.8-2.4,4.9-2.4
				c4.1,0,6.1,3.1,6.1,9.2c0,3-0.6,5.4-1.7,6.9C240.8,78.8,239.1,79.6,237.1,79.6z M237.4,63.4c-2.2,0-3.4,2.4-3.4,7.2
				c0,4.5,1.1,6.7,3.3,6.7s3.3-2.3,3.3-6.8C240.6,65.8,239.5,63.4,237.4,63.4z"/>
			<path class="st5" d="M252,79.6c-1.9,0-3.4-0.8-4.5-2.3s-1.6-3.7-1.6-6.6c0-3.2,0.6-5.6,1.7-7.2c1.1-1.6,2.8-2.4,4.9-2.4
				c4.1,0,6.1,3.1,6.1,9.2c0,3-0.6,5.4-1.7,6.9C255.7,78.8,254.1,79.6,252,79.6z M252.3,63.4c-2.2,0-3.4,2.4-3.4,7.2
				c0,4.5,1.1,6.7,3.3,6.7s3.3-2.3,3.3-6.8C255.5,65.8,254.5,63.4,252.3,63.4z"/>
			<path class="st5" d="M267.8,61v18.3h-3V64.5c-0.5,0.4-1.1,0.7-1.7,1s-1.3,0.5-2.1,0.7v-2.5c0.5-0.2,1-0.3,1.4-0.5
				c0.5-0.2,0.9-0.4,1.4-0.6c0.5-0.2,0.9-0.5,1.4-0.7c0.5-0.3,0.9-0.6,1.4-0.9C266.6,61,267.8,61,267.8,61z"/>
			<path class="st5" d="M278.7,61v18.3h-3V64.5c-0.5,0.4-1.1,0.7-1.7,1s-1.3,0.5-2.1,0.7v-2.5c0.5-0.2,1-0.3,1.4-0.5
				c0.5-0.2,0.9-0.4,1.4-0.6c0.5-0.2,0.9-0.5,1.4-0.7c0.5-0.3,0.9-0.6,1.4-0.9C277.5,61,278.7,61,278.7,61z"/>
			<path class="st5" d="M288.9,79.6c-1.9,0-3.4-0.8-4.5-2.3s-1.6-3.7-1.6-6.6c0-3.2,0.6-5.6,1.7-7.2c1.1-1.6,2.8-2.4,4.9-2.4
				c4.1,0,6.1,3.1,6.1,9.2c0,3-0.6,5.4-1.7,6.9C292.5,78.8,290.9,79.6,288.9,79.6z M289.1,63.4c-2.2,0-3.4,2.4-3.4,7.2
				c0,4.5,1.1,6.7,3.3,6.7c2.2,0,3.3-2.3,3.3-6.8C292.3,65.8,291.3,63.4,289.1,63.4z"/>
			<path class="st5" d="M303.8,79.6c-1.9,0-3.4-0.8-4.5-2.3s-1.6-3.7-1.6-6.6c0-3.2,0.6-5.6,1.7-7.2c1.1-1.6,2.8-2.4,4.9-2.4
				c4.1,0,6.1,3.1,6.1,9.2c0,3-0.6,5.4-1.7,6.9C307.5,78.8,305.9,79.6,303.8,79.6z M304.1,63.4c-2.2,0-3.4,2.4-3.4,7.2
				c0,4.5,1.1,6.7,3.3,6.7c2.2,0,3.3-2.3,3.3-6.8C307.3,65.8,306.2,63.4,304.1,63.4z"/>
			<path class="st5" d="M319.6,61v18.3h-3V64.5c-0.5,0.4-1.1,0.7-1.7,1s-1.3,0.5-2.1,0.7v-2.5c0.5-0.2,1-0.3,1.4-0.5
				c0.5-0.2,0.9-0.4,1.4-0.6c0.5-0.2,0.9-0.5,1.4-0.7c0.5-0.3,0.9-0.6,1.4-0.9C318.4,61,319.6,61,319.6,61z"/>
			<path class="st5" d="M330.5,61v18.3h-3V64.5c-0.5,0.4-1.1,0.7-1.7,1s-1.3,0.5-2.1,0.7v-2.5c0.5-0.2,1-0.3,1.4-0.5
				c0.5-0.2,0.9-0.4,1.4-0.6c0.5-0.2,0.9-0.5,1.4-0.7c0.5-0.3,0.9-0.6,1.4-0.9C329.3,61,330.5,61,330.5,61z"/>
			<path class="st5" d="M341.4,61v18.3h-3V64.5c-0.5,0.4-1.1,0.7-1.7,1s-1.3,0.5-2.1,0.7v-2.5c0.5-0.2,1-0.3,1.4-0.5
				c0.5-0.2,0.9-0.4,1.4-0.6c0.5-0.2,0.9-0.5,1.4-0.7c0.5-0.3,0.9-0.6,1.4-0.9C340.2,61,341.4,61,341.4,61z"/>
			<path class="st5" d="M351.5,79.6c-1.9,0-3.4-0.8-4.5-2.3s-1.6-3.7-1.6-6.6c0-3.2,0.6-5.6,1.7-7.2c1.1-1.6,2.8-2.4,4.9-2.4
				c4.1,0,6.1,3.1,6.1,9.2c0,3-0.6,5.4-1.7,6.9C355.2,78.8,353.6,79.6,351.5,79.6z M351.8,63.4c-2.2,0-3.4,2.4-3.4,7.2
				c0,4.5,1.1,6.7,3.3,6.7c2.2,0,3.3-2.3,3.3-6.8C355,65.8,354,63.4,351.8,63.4z"/>
			<path class="st5" d="M367.3,61v18.3h-3V64.5c-0.5,0.4-1.1,0.7-1.7,1s-1.3,0.5-2.1,0.7v-2.5c0.5-0.2,1-0.3,1.4-0.5
				c0.5-0.2,0.9-0.4,1.4-0.6c0.5-0.2,0.9-0.5,1.4-0.7c0.5-0.3,0.9-0.6,1.4-0.9C366.1,61,367.3,61,367.3,61z"/>
			<path class="st5" d="M163.5,105.2c-1.9,0-3.4-0.8-4.5-2.3s-1.6-3.7-1.6-6.6c0-3.2,0.6-5.6,1.7-7.2c1.1-1.6,2.8-2.4,4.9-2.4
				c4.1,0,6.1,3.1,6.1,9.2c0,3-0.6,5.4-1.7,6.9C167.1,104.4,165.5,105.2,163.5,105.2z M163.8,89c-2.2,0-3.4,2.4-3.4,7.2
				c0,4.5,1.1,6.7,3.3,6.7s3.3-2.3,3.3-6.8C167,91.4,165.9,89,163.8,89z"/>
			<path class="st5" d="M179.9,86.6v18.3h-3V90.2c-0.5,0.4-1.1,0.7-1.7,1c-0.6,0.3-1.3,0.5-2.1,0.7v-2.5c0.5-0.2,1-0.3,1.4-0.5
				c0.5-0.2,0.9-0.4,1.4-0.6s0.9-0.5,1.4-0.7c0.5-0.3,0.9-0.6,1.4-0.9L179.9,86.6L179.9,86.6z"/>
			<path class="st5" d="M190.7,105.2c-1.9,0-3.4-0.8-4.5-2.3s-1.6-3.7-1.6-6.6c0-3.2,0.6-5.6,1.7-7.2c1.1-1.6,2.8-2.4,4.9-2.4
				c4.1,0,6.1,3.1,6.1,9.2c0,3-0.6,5.4-1.7,6.9C194.4,104.4,192.8,105.2,190.7,105.2z M191,89c-2.2,0-3.4,2.4-3.4,7.2
				c0,4.5,1.1,6.7,3.3,6.7s3.3-2.3,3.3-6.8C194.2,91.4,193.2,89,191,89z"/>
			<path class="st5" d="M206.4,105.2c-1.9,0-3.4-0.8-4.5-2.3s-1.6-3.7-1.6-6.6c0-3.2,0.6-5.6,1.7-7.2c1.1-1.6,2.8-2.4,4.9-2.4
				c4.1,0,6.1,3.1,6.1,9.2c0,3-0.6,5.4-1.7,6.9C210.1,104.4,208.5,105.2,206.4,105.2z M206.7,89c-2.2,0-3.4,2.4-3.4,7.2
				c0,4.5,1.1,6.7,3.3,6.7s3.3-2.3,3.3-6.8C209.9,91.4,208.8,89,206.7,89z"/>
			<path class="st5" d="M222.9,86.6v18.3h-3V90.2c-0.5,0.4-1.1,0.7-1.7,1c-0.6,0.3-1.3,0.5-2.1,0.7v-2.5c0.5-0.2,1-0.3,1.4-0.5
				c0.5-0.2,0.9-0.4,1.4-0.6s0.9-0.5,1.4-0.7c0.5-0.3,0.9-0.6,1.4-0.9L222.9,86.6L222.9,86.6z"/>
			<path class="st5" d="M234.5,86.6v18.3h-3V90.2c-0.5,0.4-1.1,0.7-1.7,1c-0.6,0.3-1.3,0.5-2.1,0.7v-2.5c0.5-0.2,1-0.3,1.4-0.5
				c0.5-0.2,0.9-0.4,1.4-0.6s0.9-0.5,1.4-0.7c0.5-0.3,0.9-0.6,1.4-0.9L234.5,86.6L234.5,86.6z"/>
			<path class="st5" d="M245.3,105.2c-1.9,0-3.4-0.8-4.5-2.3s-1.6-3.7-1.6-6.6c0-3.2,0.6-5.6,1.7-7.2c1.1-1.6,2.8-2.4,4.9-2.4
				c4.1,0,6.1,3.1,6.1,9.2c0,3-0.6,5.4-1.7,6.9C249,104.4,247.4,105.2,245.3,105.2z M245.6,89c-2.2,0-3.4,2.4-3.4,7.2
				c0,4.5,1.1,6.7,3.3,6.7s3.3-2.3,3.3-6.8C248.8,91.4,247.7,89,245.6,89z"/>
			<path class="st5" d="M260.9,105.2c-1.9,0-3.4-0.8-4.5-2.3s-1.6-3.7-1.6-6.6c0-3.2,0.6-5.6,1.7-7.2c1.1-1.6,2.8-2.4,4.9-2.4
				c4.1,0,6.1,3.1,6.1,9.2c0,3-0.6,5.4-1.7,6.9C264.6,104.4,263,105.2,260.9,105.2z M261.2,89c-2.2,0-3.4,2.4-3.4,7.2
				c0,4.5,1.1,6.7,3.3,6.7c2.2,0,3.3-2.3,3.3-6.8C264.4,91.4,263.4,89,261.2,89z"/>
			<path class="st5" d="M277.4,86.6v18.3h-3V90.2c-0.5,0.4-1.1,0.7-1.7,1s-1.3,0.5-2.1,0.7v-2.5c0.5-0.2,1-0.3,1.4-0.5
				c0.5-0.2,0.9-0.4,1.4-0.6s0.9-0.5,1.4-0.7c0.5-0.3,0.9-0.6,1.4-0.9L277.4,86.6L277.4,86.6z"/>
			<path class="st5" d="M288.2,105.2c-1.9,0-3.4-0.8-4.5-2.3s-1.6-3.7-1.6-6.6c0-3.2,0.6-5.6,1.7-7.2s2.8-2.4,4.9-2.4
				c4.1,0,6.1,3.1,6.1,9.2c0,3-0.6,5.4-1.7,6.9C291.9,104.4,290.3,105.2,288.2,105.2z M288.5,89c-2.2,0-3.4,2.4-3.4,7.2
				c0,4.5,1.1,6.7,3.3,6.7c2.2,0,3.3-2.3,3.3-6.8C291.7,91.4,290.6,89,288.5,89z"/>
			<path class="st5" d="M304.7,86.6v18.3h-3V90.2c-0.5,0.4-1.1,0.7-1.7,1s-1.3,0.5-2.1,0.7v-2.5c0.5-0.2,1-0.3,1.4-0.5
				c0.5-0.2,0.9-0.4,1.4-0.6s0.9-0.5,1.4-0.7c0.5-0.3,0.9-0.6,1.4-0.9L304.7,86.6L304.7,86.6z"/>
			<path class="st5" d="M315.5,105.2c-1.9,0-3.4-0.8-4.5-2.3s-1.6-3.7-1.6-6.6c0-3.2,0.6-5.6,1.7-7.2s2.8-2.4,4.9-2.4
				c4.1,0,6.1,3.1,6.1,9.2c0,3-0.6,5.4-1.7,6.9C319.2,104.4,317.6,105.2,315.5,105.2z M315.8,89c-2.2,0-3.4,2.4-3.4,7.2
				c0,4.5,1.1,6.7,3.3,6.7c2.2,0,3.3-2.3,3.3-6.8C319,91.4,317.9,89,315.8,89z"/>
			<path class="st5" d="M331.2,105.2c-1.9,0-3.4-0.8-4.5-2.3s-1.6-3.7-1.6-6.6c0-3.2,0.6-5.6,1.7-7.2s2.8-2.4,4.9-2.4
				c4.1,0,6.1,3.1,6.1,9.2c0,3-0.6,5.4-1.7,6.9C334.8,104.4,333.2,105.2,331.2,105.2z M331.5,89c-2.2,0-3.4,2.4-3.4,7.2
				c0,4.5,1.1,6.7,3.3,6.7c2.2,0,3.3-2.3,3.3-6.8C334.6,91.4,333.6,89,331.5,89z"/>
			<path class="st5" d="M346.8,105.2c-1.9,0-3.4-0.8-4.5-2.3s-1.6-3.7-1.6-6.6c0-3.2,0.6-5.6,1.7-7.2s2.8-2.4,4.9-2.4
				c4.1,0,6.1,3.1,6.1,9.2c0,3-0.6,5.4-1.7,6.9C350.5,104.4,348.9,105.2,346.8,105.2z M347.1,89c-2.2,0-3.4,2.4-3.4,7.2
				c0,4.5,1.1,6.7,3.3,6.7c2.2,0,3.3-2.3,3.3-6.8C350.3,91.4,349.2,89,347.1,89z"/>
			<path class="st5" d="M362.5,105.2c-1.9,0-3.4-0.8-4.5-2.3s-1.6-3.7-1.6-6.6c0-3.2,0.6-5.6,1.7-7.2s2.8-2.4,4.9-2.4
				c4.1,0,6.1,3.1,6.1,9.2c0,3-0.6,5.4-1.7,6.9C366.1,104.4,364.5,105.2,362.5,105.2z M362.8,89c-2.2,0-3.4,2.4-3.4,7.2
				c0,4.5,1.1,6.7,3.3,6.7c2.2,0,3.3-2.3,3.3-6.8C366,91.4,364.9,89,362.8,89z"/>
			<path class="st5" d="M163.5,130.9c-1.9,0-3.4-0.8-4.5-2.3s-1.6-3.7-1.6-6.6c0-3.2,0.6-5.6,1.7-7.2c1.1-1.6,2.8-2.4,4.9-2.4
				c4.1,0,6.1,3.1,6.1,9.2c0,3-0.6,5.4-1.7,6.9C167.1,130.1,165.5,130.9,163.5,130.9z M163.8,114.6c-2.2,0-3.4,2.4-3.4,7.2
				c0,4.5,1.1,6.7,3.3,6.7s3.3-2.3,3.3-6.8C167,117,165.9,114.6,163.8,114.6z"/>
			<path class="st5" d="M179.2,112.2v18.3h-3v-14.8c-0.5,0.4-1.1,0.7-1.7,1c-0.6,0.3-1.3,0.5-2.1,0.7V115c0.5-0.2,1-0.3,1.4-0.5
				c0.5-0.2,0.9-0.4,1.4-0.6s0.9-0.5,1.4-0.7c0.5-0.3,0.9-0.6,1.4-0.9h1.2L179.2,112.2L179.2,112.2z"/>
			<path class="st5" d="M189.4,130.9c-1.9,0-3.4-0.8-4.5-2.3s-1.6-3.7-1.6-6.6c0-3.2,0.6-5.6,1.7-7.2c1.1-1.6,2.8-2.4,4.9-2.4
				c4.1,0,6.1,3.1,6.1,9.2c0,3-0.6,5.4-1.7,6.9C193,130.1,191.4,130.9,189.4,130.9z M189.6,114.6c-2.2,0-3.4,2.4-3.4,7.2
				c0,4.5,1.1,6.7,3.3,6.7s3.3-2.3,3.3-6.8C192.8,117,191.8,114.6,189.6,114.6z"/>
			<path class="st5" d="M205.1,112.2v18.3h-3v-14.8c-0.5,0.4-1.1,0.7-1.7,1c-0.6,0.3-1.3,0.5-2.1,0.7V115c0.5-0.2,1-0.3,1.4-0.5
				c0.5-0.2,0.9-0.4,1.4-0.6s0.9-0.5,1.4-0.7c0.5-0.3,0.9-0.6,1.4-0.9h1.2L205.1,112.2L205.1,112.2z"/>
			<path class="st5" d="M216,112.2v18.3h-3v-14.8c-0.5,0.4-1.1,0.7-1.7,1c-0.6,0.3-1.3,0.5-2.1,0.7V115c0.5-0.2,1-0.3,1.4-0.5
				c0.5-0.2,0.9-0.4,1.4-0.6s0.9-0.5,1.4-0.7c0.5-0.3,0.9-0.6,1.4-0.9h1.2L216,112.2L216,112.2z"/>
			<path class="st5" d="M227,112.2v18.3h-3v-14.8c-0.5,0.4-1.1,0.7-1.7,1c-0.6,0.3-1.3,0.5-2.1,0.7V115c0.5-0.2,1-0.3,1.4-0.5
				c0.5-0.2,0.9-0.4,1.4-0.6s0.9-0.5,1.4-0.7c0.5-0.3,0.9-0.6,1.4-0.9h1.2L227,112.2L227,112.2z"/>
			<path class="st5" d="M237.1,130.9c-1.9,0-3.4-0.8-4.5-2.3s-1.6-3.7-1.6-6.6c0-3.2,0.6-5.6,1.7-7.2c1.1-1.6,2.8-2.4,4.9-2.4
				c4.1,0,6.1,3.1,6.1,9.2c0,3-0.6,5.4-1.7,6.9C240.8,130.1,239.1,130.9,237.1,130.9z M237.4,114.6c-2.2,0-3.4,2.4-3.4,7.2
				c0,4.5,1.1,6.7,3.3,6.7s3.3-2.3,3.3-6.8C240.6,117,239.5,114.6,237.4,114.6z"/>
			<path class="st5" d="M252,130.9c-1.9,0-3.4-0.8-4.5-2.3s-1.6-3.7-1.6-6.6c0-3.2,0.6-5.6,1.7-7.2c1.1-1.6,2.8-2.4,4.9-2.4
				c4.1,0,6.1,3.1,6.1,9.2c0,3-0.6,5.4-1.7,6.9C255.7,130.1,254.1,130.9,252,130.9z M252.3,114.6c-2.2,0-3.4,2.4-3.4,7.2
				c0,4.5,1.1,6.7,3.3,6.7s3.3-2.3,3.3-6.8C255.5,117,254.5,114.6,252.3,114.6z"/>
			<path class="st5" d="M267.8,112.2v18.3h-3v-14.8c-0.5,0.4-1.1,0.7-1.7,1s-1.3,0.5-2.1,0.7V115c0.5-0.2,1-0.3,1.4-0.5
				c0.5-0.2,0.9-0.4,1.4-0.6s0.9-0.5,1.4-0.7c0.5-0.3,0.9-0.6,1.4-0.9h1.2L267.8,112.2L267.8,112.2z"/>
			<path class="st5" d="M278.7,112.2v18.3h-3v-14.8c-0.5,0.4-1.1,0.7-1.7,1s-1.3,0.5-2.1,0.7V115c0.5-0.2,1-0.3,1.4-0.5
				c0.5-0.2,0.9-0.4,1.4-0.6s0.9-0.5,1.4-0.7c0.5-0.3,0.9-0.6,1.4-0.9h1.2L278.7,112.2L278.7,112.2z"/>
			<path class="st5" d="M288.9,130.9c-1.9,0-3.4-0.8-4.5-2.3s-1.6-3.7-1.6-6.6c0-3.2,0.6-5.6,1.7-7.2s2.8-2.4,4.9-2.4
				c4.1,0,6.1,3.1,6.1,9.2c0,3-0.6,5.4-1.7,6.9C292.5,130.1,290.9,130.9,288.9,130.9z M289.1,114.6c-2.2,0-3.4,2.4-3.4,7.2
				c0,4.5,1.1,6.7,3.3,6.7c2.2,0,3.3-2.3,3.3-6.8C292.3,117,291.3,114.6,289.1,114.6z"/>
			<path class="st5" d="M303.8,130.9c-1.9,0-3.4-0.8-4.5-2.3s-1.6-3.7-1.6-6.6c0-3.2,0.6-5.6,1.7-7.2s2.8-2.4,4.9-2.4
				c4.1,0,6.1,3.1,6.1,9.2c0,3-0.6,5.4-1.7,6.9C307.5,130.1,305.9,130.9,303.8,130.9z M304.1,114.6c-2.2,0-3.4,2.4-3.4,7.2
				c0,4.5,1.1,6.7,3.3,6.7c2.2,0,3.3-2.3,3.3-6.8C307.3,117,306.2,114.6,304.1,114.6z"/>
			<path class="st5" d="M319.6,112.2v18.3h-3v-14.8c-0.5,0.4-1.1,0.7-1.7,1s-1.3,0.5-2.1,0.7V115c0.5-0.2,1-0.3,1.4-0.5
				c0.5-0.2,0.9-0.4,1.4-0.6s0.9-0.5,1.4-0.7c0.5-0.3,0.9-0.6,1.4-0.9h1.2L319.6,112.2L319.6,112.2z"/>
			<path class="st5" d="M330.5,112.2v18.3h-3v-14.8c-0.5,0.4-1.1,0.7-1.7,1s-1.3,0.5-2.1,0.7V115c0.5-0.2,1-0.3,1.4-0.5
				c0.5-0.2,0.9-0.4,1.4-0.6s0.9-0.5,1.4-0.7c0.5-0.3,0.9-0.6,1.4-0.9h1.2L330.5,112.2L330.5,112.2z"/>
			<path class="st5" d="M341.4,112.2v18.3h-3v-14.8c-0.5,0.4-1.1,0.7-1.7,1s-1.3,0.5-2.1,0.7V115c0.5-0.2,1-0.3,1.4-0.5
				c0.5-0.2,0.9-0.4,1.4-0.6s0.9-0.5,1.4-0.7c0.5-0.3,0.9-0.6,1.4-0.9h1.2L341.4,112.2L341.4,112.2z"/>
			<path class="st5" d="M351.5,130.9c-1.9,0-3.4-0.8-4.5-2.3s-1.6-3.7-1.6-6.6c0-3.2,0.6-5.6,1.7-7.2s2.8-2.4,4.9-2.4
				c4.1,0,6.1,3.1,6.1,9.2c0,3-0.6,5.4-1.7,6.9C355.2,130.1,353.6,130.9,351.5,130.9z M351.8,114.6c-2.2,0-3.4,2.4-3.4,7.2
				c0,4.5,1.1,6.7,3.3,6.7c2.2,0,3.3-2.3,3.3-6.8C355,117,354,114.6,351.8,114.6z"/>
			<path class="st5" d="M367.3,112.2v18.3h-3v-14.8c-0.5,0.4-1.1,0.7-1.7,1s-1.3,0.5-2.1,0.7V115c0.5-0.2,1-0.3,1.4-0.5
				c0.5-0.2,0.9-0.4,1.4-0.6s0.9-0.5,1.4-0.7c0.5-0.3,0.9-0.6,1.4-0.9h1.2L367.3,112.2L367.3,112.2z"/>
		</g>
	</g>
	<g class="st6">
		<path class="st5" d="M168.7,10v18.1h-2.9V13.5c-0.5,0.4-1.1,0.7-1.7,0.9c-0.6,0.3-1.3,0.5-2,0.7v-2.4c0.5-0.2,0.9-0.3,1.4-0.5
			c0.4-0.2,0.9-0.4,1.3-0.6c0.4-0.2,0.9-0.5,1.3-0.7c0.4-0.3,0.9-0.6,1.4-0.9C167.5,10,168.7,10,168.7,10z"/>
		<path class="st5" d="M178.3,28.4c-1.8,0-3.3-0.8-4.3-2.3s-1.5-3.7-1.5-6.5c0-3.1,0.5-5.5,1.6-7.1s2.6-2.4,4.7-2.4
			c3.9,0,5.8,3,5.8,9.1c0,3-0.5,5.3-1.6,6.8C181.8,27.6,180.3,28.4,178.3,28.4z M178.6,12.4c-2.1,0-3.2,2.4-3.2,7.1
			c0,4.4,1.1,6.6,3.2,6.6c2.1,0,3.1-2.2,3.1-6.7C181.6,14.7,180.6,12.4,178.6,12.4z"/>
		<path class="st5" d="M192.5,28.4c-1.8,0-3.3-0.8-4.3-2.3s-1.5-3.7-1.5-6.5c0-3.1,0.5-5.5,1.6-7.1s2.6-2.4,4.7-2.4
			c3.9,0,5.8,3,5.8,9.1c0,3-0.5,5.3-1.6,6.8C196,27.6,194.5,28.4,192.5,28.4z M192.8,12.4c-2.1,0-3.2,2.4-3.2,7.1
			c0,4.4,1.1,6.6,3.2,6.6c2.1,0,3.1-2.2,3.1-6.7C195.9,14.7,194.8,12.4,192.8,12.4z"/>
		<path class="st5" d="M207.5,10v18.1h-2.9V13.5c-0.5,0.4-1.1,0.7-1.7,0.9c-0.6,0.3-1.3,0.5-2,0.7v-2.4c0.5-0.2,0.9-0.3,1.4-0.5
			c0.4-0.2,0.9-0.4,1.3-0.6c0.4-0.2,0.9-0.5,1.3-0.7c0.4-0.3,0.9-0.6,1.4-0.9C206.3,10,207.5,10,207.5,10z"/>
		<path class="st5" d="M217.9,10v18.1H215V13.5c-0.5,0.4-1.1,0.7-1.7,0.9c-0.6,0.3-1.3,0.5-2,0.7v-2.4c0.5-0.2,0.9-0.3,1.4-0.5
			c0.4-0.2,0.9-0.4,1.3-0.6c0.4-0.2,0.9-0.5,1.3-0.7c0.4-0.3,0.9-0.6,1.4-0.9C216.7,10,217.9,10,217.9,10z"/>
		<path class="st5" d="M227.4,28.4c-1.8,0-3.3-0.8-4.3-2.3s-1.5-3.7-1.5-6.5c0-3.1,0.5-5.5,1.6-7.1s2.6-2.4,4.7-2.4
			c3.9,0,5.8,3,5.8,9.1c0,3-0.5,5.3-1.6,6.8C231,27.6,229.4,28.4,227.4,28.4z M227.7,12.4c-2.1,0-3.2,2.4-3.2,7.1
			c0,4.4,1.1,6.6,3.2,6.6c2.1,0,3.1-2.2,3.1-6.7C230.8,14.7,229.8,12.4,227.7,12.4z"/>
		<path class="st5" d="M241.7,28.4c-1.8,0-3.3-0.8-4.3-2.3s-1.5-3.7-1.5-6.5c0-3.1,0.5-5.5,1.6-7.1s2.6-2.4,4.7-2.4
			c3.9,0,5.8,3,5.8,9.1c0,3-0.5,5.3-1.6,6.8C245.2,27.6,243.6,28.4,241.7,28.4z M241.9,12.4c-2.1,0-3.2,2.4-3.2,7.1
			c0,4.4,1.1,6.6,3.2,6.6c2.1,0,3.1-2.2,3.1-6.7C245,14.7,244,12.4,241.9,12.4z"/>
		<path class="st5" d="M256.6,10v18.1h-2.9V13.5c-0.5,0.4-1.1,0.7-1.7,0.9c-0.6,0.3-1.3,0.5-2,0.7v-2.4c0.5-0.2,0.9-0.3,1.4-0.5
			c0.4-0.2,0.9-0.4,1.3-0.6c0.4-0.2,0.9-0.5,1.3-0.7c0.4-0.3,0.9-0.6,1.4-0.9C255.4,10,256.6,10,256.6,10z"/>
		<path class="st5" d="M266.2,28.4c-1.8,0-3.3-0.8-4.3-2.3s-1.5-3.7-1.5-6.5c0-3.1,0.5-5.5,1.6-7.1s2.6-2.4,4.7-2.4
			c3.9,0,5.8,3,5.8,9.1c0,3-0.5,5.3-1.6,6.8C269.7,27.6,268.2,28.4,266.2,28.4z M266.5,12.4c-2.1,0-3.2,2.4-3.2,7.1
			c0,4.4,1.1,6.6,3.2,6.6s3.1-2.2,3.1-6.7C269.6,14.7,268.5,12.4,266.5,12.4z"/>
		<path class="st5" d="M281.2,10v18.1h-2.9V13.5c-0.5,0.4-1.1,0.7-1.7,0.9c-0.6,0.3-1.3,0.5-2,0.7v-2.4c0.5-0.2,0.9-0.3,1.4-0.5
			c0.4-0.2,0.9-0.4,1.3-0.6c0.4-0.2,0.9-0.5,1.3-0.7c0.4-0.3,0.9-0.6,1.4-0.9C280,10,281.2,10,281.2,10z"/>
		<path class="st5" d="M290.8,28.4c-1.8,0-3.3-0.8-4.3-2.3s-1.5-3.7-1.5-6.5c0-3.1,0.5-5.5,1.6-7.1s2.6-2.4,4.7-2.4
			c3.9,0,5.8,3,5.8,9.1c0,3-0.5,5.3-1.6,6.8C294.3,27.6,292.8,28.4,290.8,28.4z M291.1,12.4c-2.1,0-3.2,2.4-3.2,7.1
			c0,4.4,1.1,6.6,3.2,6.6s3.1-2.2,3.1-6.7C294.1,14.7,293.1,12.4,291.1,12.4z"/>
		<path class="st5" d="M305,28.4c-1.8,0-3.3-0.8-4.3-2.3s-1.5-3.7-1.5-6.5c0-3.1,0.5-5.5,1.6-7.1s2.6-2.4,4.7-2.4
			c3.9,0,5.8,3,5.8,9.1c0,3-0.5,5.3-1.6,6.8C308.5,27.6,307,28.4,305,28.4z M305.3,12.4c-2.1,0-3.2,2.4-3.2,7.1
			c0,4.4,1.1,6.6,3.2,6.6s3.1-2.2,3.1-6.7C308.3,14.7,307.3,12.4,305.3,12.4z"/>
		<path class="st5" d="M319.2,28.4c-1.8,0-3.3-0.8-4.3-2.3s-1.5-3.7-1.5-6.5c0-3.1,0.5-5.5,1.6-7.1s2.6-2.4,4.7-2.4
			c3.9,0,5.8,3,5.8,9.1c0,3-0.5,5.3-1.6,6.8C322.7,27.6,321.2,28.4,319.2,28.4z M319.5,12.4c-2.1,0-3.2,2.4-3.2,7.1
			c0,4.4,1.1,6.6,3.2,6.6s3.1-2.2,3.1-6.7C322.5,14.7,321.5,12.4,319.5,12.4z"/>
		<path class="st5" d="M333.4,28.4c-1.8,0-3.3-0.8-4.3-2.3s-1.5-3.7-1.5-6.5c0-3.1,0.5-5.5,1.6-7.1s2.6-2.4,4.7-2.4
			c3.9,0,5.8,3,5.8,9.1c0,3-0.5,5.3-1.6,6.8C336.9,27.6,335.4,28.4,333.4,28.4z M333.7,12.4c-2.1,0-3.2,2.4-3.2,7.1
			c0,4.4,1.1,6.6,3.2,6.6s3.1-2.2,3.1-6.7C336.8,14.7,335.7,12.4,333.7,12.4z"/>
		<path class="st5" d="M348.4,10v18.1h-2.9V13.5c-0.5,0.4-1.1,0.7-1.7,0.9c-0.6,0.3-1.3,0.5-2,0.7v-2.4c0.5-0.2,0.9-0.3,1.4-0.5
			c0.4-0.2,0.9-0.4,1.3-0.6c0.4-0.2,0.9-0.5,1.3-0.7c0.4-0.3,0.9-0.6,1.4-0.9C347.2,10,348.4,10,348.4,10z"/>
		<path class="st5" d="M358,28.4c-1.8,0-3.3-0.8-4.3-2.3s-1.5-3.7-1.5-6.5c0-3.1,0.5-5.5,1.6-7.1s2.6-2.4,4.7-2.4
			c3.9,0,5.8,3,5.8,9.1c0,3-0.5,5.3-1.6,6.8C361.5,27.6,360,28.4,358,28.4z M358.3,12.4c-2.1,0-3.2,2.4-3.2,7.1
			c0,4.4,1.1,6.6,3.2,6.6s3.1-2.2,3.1-6.7C361.3,14.7,360.3,12.4,358.3,12.4z"/>
		<path class="st5" d="M168.7,35.3v18.1h-2.9V38.8c-0.5,0.4-1.1,0.7-1.7,0.9c-0.6,0.3-1.3,0.5-2,0.7V38c0.5-0.2,0.9-0.3,1.4-0.5
			c0.4-0.2,0.9-0.4,1.3-0.6c0.4-0.2,0.9-0.5,1.3-0.7c0.4-0.3,0.9-0.6,1.4-0.9H168.7z"/>
		<path class="st5" d="M178.6,53.6c-1.8,0-3.3-0.8-4.3-2.3s-1.5-3.7-1.5-6.5c0-3.1,0.5-5.5,1.6-7.1s2.6-2.4,4.7-2.4
			c3.9,0,5.8,3,5.8,9.1c0,3-0.5,5.3-1.6,6.8C182.1,52.8,180.5,53.6,178.6,53.6z M178.9,37.6c-2.1,0-3.2,2.4-3.2,7.1
			c0,4.4,1.1,6.6,3.2,6.6c2.1,0,3.1-2.2,3.1-6.7C181.9,40,180.9,37.6,178.9,37.6z"/>
		<path class="st5" d="M193.8,35.3v18.1h-2.9V38.8c-0.5,0.4-1.1,0.7-1.7,0.9c-0.6,0.3-1.3,0.5-2,0.7V38c0.5-0.2,0.9-0.3,1.4-0.5
			c0.4-0.2,0.9-0.4,1.3-0.6c0.4-0.2,0.9-0.5,1.3-0.7c0.4-0.3,0.9-0.6,1.4-0.9H193.8z"/>
		<path class="st5" d="M203.7,53.6c-1.8,0-3.3-0.8-4.3-2.3s-1.5-3.7-1.5-6.5c0-3.1,0.5-5.5,1.6-7.1s2.6-2.4,4.7-2.4
			c3.9,0,5.8,3,5.8,9.1c0,3-0.5,5.3-1.6,6.8C207.2,52.8,205.6,53.6,203.7,53.6z M203.9,37.6c-2.1,0-3.2,2.4-3.2,7.1
			c0,4.4,1.1,6.6,3.2,6.6c2.1,0,3.1-2.2,3.1-6.7C207,40,206,37.6,203.9,37.6z"/>
		<path class="st5" d="M218.1,53.6c-1.8,0-3.3-0.8-4.3-2.3s-1.5-3.7-1.5-6.5c0-3.1,0.5-5.5,1.6-7.1s2.6-2.4,4.7-2.4
			c3.9,0,5.8,3,5.8,9.1c0,3-0.5,5.3-1.6,6.8C221.6,52.8,220.1,53.6,218.1,53.6z M218.4,37.6c-2.1,0-3.2,2.4-3.2,7.1
			c0,4.4,1.1,6.6,3.2,6.6c2.1,0,3.1-2.2,3.1-6.7C221.4,40,220.4,37.6,218.4,37.6z"/>
		<path class="st5" d="M232.6,53.6c-1.8,0-3.3-0.8-4.3-2.3s-1.5-3.7-1.5-6.5c0-3.1,0.5-5.5,1.6-7.1s2.6-2.4,4.7-2.4
			c3.9,0,5.8,3,5.8,9.1c0,3-0.5,5.3-1.6,6.8C236.1,52.8,234.6,53.6,232.6,53.6z M232.9,37.6c-2.1,0-3.2,2.4-3.2,7.1
			c0,4.4,1.1,6.6,3.2,6.6c2.1,0,3.1-2.2,3.1-6.7C235.9,40,234.9,37.6,232.9,37.6z"/>
		<path class="st5" d="M247.8,35.3v18.1H245V38.8c-0.5,0.4-1.1,0.7-1.7,0.9c-0.6,0.3-1.3,0.5-2,0.7V38c0.5-0.2,0.9-0.3,1.4-0.5
			c0.4-0.2,0.9-0.4,1.3-0.6c0.4-0.2,0.9-0.5,1.3-0.7c0.4-0.3,0.9-0.6,1.4-0.9H247.8z"/>
		<path class="st5" d="M257.7,53.6c-1.8,0-3.3-0.8-4.3-2.3s-1.5-3.7-1.5-6.5c0-3.1,0.5-5.5,1.6-7.1s2.6-2.4,4.7-2.4
			c3.9,0,5.8,3,5.8,9.1c0,3-0.5,5.3-1.6,6.8C261.2,52.8,259.6,53.6,257.7,53.6z M258,37.6c-2.1,0-3.2,2.4-3.2,7.1
			c0,4.4,1.1,6.6,3.2,6.6c2.1,0,3.1-2.2,3.1-6.7C261,40,260,37.6,258,37.6z"/>
		<path class="st5" d="M272.1,53.6c-1.8,0-3.3-0.8-4.3-2.3s-1.5-3.7-1.5-6.5c0-3.1,0.5-5.5,1.6-7.1s2.6-2.4,4.7-2.4
			c3.9,0,5.8,3,5.8,9.1c0,3-0.5,5.3-1.6,6.8C275.6,52.8,274.1,53.6,272.1,53.6z M272.4,37.6c-2.1,0-3.2,2.4-3.2,7.1
			c0,4.4,1.1,6.6,3.2,6.6s3.1-2.2,3.1-6.7C275.5,40,274.5,37.6,272.4,37.6z"/>
		<path class="st5" d="M287.4,35.3v18.1h-2.9V38.8c-0.5,0.4-1.1,0.7-1.7,0.9c-0.6,0.3-1.3,0.5-2,0.7V38c0.5-0.2,0.9-0.3,1.4-0.5
			c0.4-0.2,0.9-0.4,1.3-0.6c0.4-0.2,0.9-0.5,1.3-0.7c0.4-0.3,0.9-0.6,1.4-0.9H287.4z"/>
		<path class="st5" d="M297.2,53.6c-1.8,0-3.3-0.8-4.3-2.3s-1.5-3.7-1.5-6.5c0-3.1,0.5-5.5,1.6-7.1s2.6-2.4,4.7-2.4
			c3.9,0,5.8,3,5.8,9.1c0,3-0.5,5.3-1.6,6.8C300.7,52.8,299.2,53.6,297.2,53.6z M297.5,37.6c-2.1,0-3.2,2.4-3.2,7.1
			c0,4.4,1.1,6.6,3.2,6.6s3.1-2.2,3.1-6.7C300.5,40,299.5,37.6,297.5,37.6z"/>
		<path class="st5" d="M311.7,53.6c-1.8,0-3.3-0.8-4.3-2.3s-1.5-3.7-1.5-6.5c0-3.1,0.5-5.5,1.6-7.1s2.6-2.4,4.7-2.4
			c3.9,0,5.8,3,5.8,9.1c0,3-0.5,5.3-1.6,6.8C315.2,52.8,313.7,53.6,311.7,53.6z M312,37.6c-2.1,0-3.2,2.4-3.2,7.1
			c0,4.4,1.1,6.6,3.2,6.6s3.1-2.2,3.1-6.7C315,40,314,37.6,312,37.6z"/>
		<path class="st5" d="M326.9,35.3v18.1H324V38.8c-0.5,0.4-1.1,0.7-1.7,0.9c-0.6,0.3-1.3,0.5-2,0.7V38c0.5-0.2,0.9-0.3,1.4-0.5
			c0.4-0.2,0.9-0.4,1.3-0.6c0.4-0.2,0.9-0.5,1.3-0.7c0.4-0.3,0.9-0.6,1.4-0.9H326.9z"/>
		<path class="st5" d="M337.5,35.3v18.1h-2.9V38.8c-0.5,0.4-1.1,0.7-1.7,0.9c-0.6,0.3-1.3,0.5-2,0.7V38c0.5-0.2,0.9-0.3,1.4-0.5
			c0.4-0.2,0.9-0.4,1.3-0.6c0.4-0.2,0.9-0.5,1.3-0.7c0.4-0.3,0.9-0.6,1.4-0.9H337.5z"/>
		<path class="st5" d="M348.1,35.3v18.1h-2.9V38.8c-0.5,0.4-1.1,0.7-1.7,0.9c-0.6,0.3-1.3,0.5-2,0.7V38c0.5-0.2,0.9-0.3,1.4-0.5
			c0.4-0.2,0.9-0.4,1.3-0.6c0.4-0.2,0.9-0.5,1.3-0.7c0.4-0.3,0.9-0.6,1.4-0.9H348.1z"/>
		<path class="st5" d="M358,53.6c-1.8,0-3.3-0.8-4.3-2.3s-1.5-3.7-1.5-6.5c0-3.1,0.5-5.5,1.6-7.1s2.6-2.4,4.7-2.4
			c3.9,0,5.8,3,5.8,9.1c0,3-0.5,5.3-1.6,6.8C361.5,52.8,360,53.6,358,53.6z M358.3,37.6c-2.1,0-3.2,2.4-3.2,7.1
			c0,4.4,1.1,6.6,3.2,6.6s3.1-2.2,3.1-6.7C361.3,40,360.3,37.6,358.3,37.6z"/>
		<path class="st5" d="M168,78.9c-1.8,0-3.3-0.8-4.3-2.3s-1.5-3.7-1.5-6.5c0-3.1,0.5-5.5,1.6-7.1s2.6-2.4,4.7-2.4
			c3.9,0,5.8,3,5.8,9.1c0,3-0.5,5.3-1.6,6.8C171.5,78.1,169.9,78.9,168,78.9z M168.2,62.9c-2.1,0-3.2,2.4-3.2,7.1
			c0,4.4,1.1,6.6,3.2,6.6c2.1,0,3.1-2.2,3.1-6.7C171.3,65.2,170.3,62.9,168.2,62.9z"/>
		<path class="st5" d="M183,60.5v18.1h-2.9V64c-0.5,0.4-1.1,0.7-1.7,0.9c-0.6,0.3-1.3,0.5-2,0.7v-2.4c0.5-0.2,0.9-0.3,1.4-0.5
			c0.4-0.2,0.9-0.4,1.3-0.6c0.4-0.2,0.9-0.5,1.3-0.7c0.4-0.3,0.9-0.6,1.4-0.9C181.8,60.5,183,60.5,183,60.5z"/>
		<path class="st5" d="M192.7,78.9c-1.8,0-3.3-0.8-4.3-2.3s-1.5-3.7-1.5-6.5c0-3.1,0.5-5.5,1.6-7.1s2.6-2.4,4.7-2.4
			c3.9,0,5.8,3,5.8,9.1c0,3-0.5,5.3-1.6,6.8C196.2,78.1,194.7,78.9,192.7,78.9z M193,62.9c-2.1,0-3.2,2.4-3.2,7.1
			c0,4.4,1.1,6.6,3.2,6.6c2.1,0,3.1-2.2,3.1-6.7C196,65.2,195,62.9,193,62.9z"/>
		<path class="st5" d="M207.7,60.5v18.1h-2.9V64c-0.5,0.4-1.1,0.7-1.7,0.9c-0.6,0.3-1.3,0.5-2,0.7v-2.4c0.5-0.2,0.9-0.3,1.4-0.5
			c0.4-0.2,0.9-0.4,1.3-0.6c0.4-0.2,0.9-0.5,1.3-0.7c0.4-0.3,0.9-0.6,1.4-0.9C206.5,60.5,207.7,60.5,207.7,60.5z"/>
		<path class="st5" d="M218.2,60.5v18.1h-2.9V64c-0.5,0.4-1.1,0.7-1.7,0.9c-0.6,0.3-1.3,0.5-2,0.7v-2.4c0.5-0.2,0.9-0.3,1.4-0.5
			c0.4-0.2,0.9-0.4,1.3-0.6c0.4-0.2,0.9-0.5,1.3-0.7c0.4-0.3,0.9-0.6,1.4-0.9C217,60.5,218.2,60.5,218.2,60.5z"/>
		<path class="st5" d="M228.6,60.5v18.1h-2.9V64c-0.5,0.4-1.1,0.7-1.7,0.9c-0.6,0.3-1.3,0.5-2,0.7v-2.4c0.5-0.2,0.9-0.3,1.4-0.5
			c0.4-0.2,0.9-0.4,1.3-0.6c0.4-0.2,0.9-0.5,1.3-0.7c0.4-0.3,0.9-0.6,1.4-0.9C227.4,60.5,228.6,60.5,228.6,60.5z"/>
		<path class="st5" d="M238.3,78.9c-1.8,0-3.3-0.8-4.3-2.3s-1.5-3.7-1.5-6.5c0-3.1,0.5-5.5,1.6-7.1s2.6-2.4,4.7-2.4
			c3.9,0,5.8,3,5.8,9.1c0,3-0.5,5.3-1.6,6.8C241.8,78.1,240.2,78.9,238.3,78.9z M238.5,62.9c-2.1,0-3.2,2.4-3.2,7.1
			c0,4.4,1.1,6.6,3.2,6.6c2.1,0,3.1-2.2,3.1-6.7C241.6,65.2,240.6,62.9,238.5,62.9z"/>
		<path class="st5" d="M252.5,78.9c-1.8,0-3.3-0.8-4.3-2.3s-1.5-3.7-1.5-6.5c0-3.1,0.5-5.5,1.6-7.1s2.6-2.4,4.7-2.4
			c3.9,0,5.8,3,5.8,9.1c0,3-0.5,5.3-1.6,6.8C256.1,78.1,254.5,78.9,252.5,78.9z M252.8,62.9c-2.1,0-3.2,2.4-3.2,7.1
			c0,4.4,1.1,6.6,3.2,6.6s3.1-2.2,3.1-6.7C255.9,65.2,254.9,62.9,252.8,62.9z"/>
		<path class="st5" d="M267.6,60.5v18.1h-2.9V64c-0.5,0.4-1.1,0.7-1.7,0.9c-0.6,0.3-1.3,0.5-2,0.7v-2.4c0.5-0.2,0.9-0.3,1.4-0.5
			c0.4-0.2,0.9-0.4,1.3-0.6c0.4-0.2,0.9-0.5,1.3-0.7c0.4-0.3,0.9-0.6,1.4-0.9C266.4,60.5,267.6,60.5,267.6,60.5z"/>
		<path class="st5" d="M278,60.5v18.1h-2.9V64c-0.5,0.4-1.1,0.7-1.7,0.9c-0.6,0.3-1.3,0.5-2,0.7v-2.4c0.5-0.2,0.9-0.3,1.4-0.5
			c0.4-0.2,0.9-0.4,1.3-0.6c0.4-0.2,0.9-0.5,1.3-0.7c0.4-0.3,0.9-0.6,1.4-0.9C276.8,60.5,278,60.5,278,60.5z"/>
		<path class="st5" d="M287.7,78.9c-1.8,0-3.3-0.8-4.3-2.3s-1.5-3.7-1.5-6.5c0-3.1,0.5-5.5,1.6-7.1s2.6-2.4,4.7-2.4
			c3.9,0,5.8,3,5.8,9.1c0,3-0.5,5.3-1.6,6.8C291.2,78.1,289.7,78.9,287.7,78.9z M288,62.9c-2.1,0-3.2,2.4-3.2,7.1
			c0,4.4,1.1,6.6,3.2,6.6s3.1-2.2,3.1-6.7C291,65.2,290,62.9,288,62.9z"/>
		<path class="st5" d="M302,78.9c-1.8,0-3.3-0.8-4.3-2.3s-1.5-3.7-1.5-6.5c0-3.1,0.5-5.5,1.6-7.1s2.6-2.4,4.7-2.4
			c3.9,0,5.8,3,5.8,9.1c0,3-0.5,5.3-1.6,6.8C305.5,78.1,304,78.9,302,78.9z M302.3,62.9c-2.1,0-3.2,2.4-3.2,7.1
			c0,4.4,1.1,6.6,3.2,6.6s3.1-2.2,3.1-6.7C305.3,65.2,304.3,62.9,302.3,62.9z"/>
		<path class="st5" d="M317,60.5v18.1h-2.9V64c-0.5,0.4-1.1,0.7-1.7,0.9c-0.6,0.3-1.3,0.5-2,0.7v-2.4c0.5-0.2,0.9-0.3,1.4-0.5
			c0.4-0.2,0.9-0.4,1.3-0.6c0.4-0.2,0.9-0.5,1.3-0.7c0.4-0.3,0.9-0.6,1.4-0.9C315.8,60.5,317,60.5,317,60.5z"/>
		<path class="st5" d="M327.5,60.5v18.1h-2.9V64c-0.5,0.4-1.1,0.7-1.7,0.9c-0.6,0.3-1.3,0.5-2,0.7v-2.4c0.5-0.2,0.9-0.3,1.4-0.5
			c0.4-0.2,0.9-0.4,1.3-0.6c0.4-0.2,0.9-0.5,1.3-0.7c0.4-0.3,0.9-0.6,1.4-0.9C326.3,60.5,327.5,60.5,327.5,60.5z"/>
		<path class="st5" d="M337.9,60.5v18.1H335V64c-0.5,0.4-1.1,0.7-1.7,0.9c-0.6,0.3-1.3,0.5-2,0.7v-2.4c0.5-0.2,0.9-0.3,1.4-0.5
			c0.4-0.2,0.9-0.4,1.3-0.6c0.4-0.2,0.9-0.5,1.3-0.7c0.4-0.3,0.9-0.6,1.4-0.9C336.7,60.5,337.9,60.5,337.9,60.5z"/>
		<path class="st5" d="M347.6,78.9c-1.8,0-3.3-0.8-4.3-2.3s-1.5-3.7-1.5-6.5c0-3.1,0.5-5.5,1.6-7.1s2.6-2.4,4.7-2.4
			c3.9,0,5.8,3,5.8,9.1c0,3-0.5,5.3-1.6,6.8C351.1,78.1,349.5,78.9,347.6,78.9z M347.8,62.9c-2.1,0-3.2,2.4-3.2,7.1
			c0,4.4,1.1,6.6,3.2,6.6s3.1-2.2,3.1-6.7C350.9,65.2,349.9,62.9,347.8,62.9z"/>
		<path class="st5" d="M362.6,60.5v18.1h-2.9V64c-0.5,0.4-1.1,0.7-1.7,0.9c-0.6,0.3-1.3,0.5-2,0.7v-2.4c0.5-0.2,0.9-0.3,1.4-0.5
			c0.4-0.2,0.9-0.4,1.3-0.6c0.4-0.2,0.9-0.5,1.3-0.7c0.4-0.3,0.9-0.6,1.4-0.9C361.4,60.5,362.6,60.5,362.6,60.5z"/>
		<path class="st5" d="M168,104.1c-1.8,0-3.3-0.8-4.3-2.3s-1.5-3.7-1.5-6.5c0-3.1,0.5-5.5,1.6-7.1s2.6-2.4,4.7-2.4
			c3.9,0,5.8,3,5.8,9.1c0,3-0.5,5.3-1.6,6.8C171.5,103.3,169.9,104.1,168,104.1z M168.2,88.1c-2.1,0-3.2,2.4-3.2,7.1
			c0,4.4,1.1,6.6,3.2,6.6c2.1,0,3.1-2.2,3.1-6.7C171.3,90.4,170.3,88.1,168.2,88.1z"/>
		<path class="st5" d="M183.7,85.7v18.1h-2.9V89.2c-0.5,0.4-1.1,0.7-1.7,0.9c-0.6,0.3-1.3,0.5-2,0.7v-2.4c0.5-0.2,0.9-0.3,1.4-0.5
			c0.4-0.2,0.9-0.4,1.3-0.6c0.4-0.2,0.9-0.5,1.3-0.7c0.4-0.3,0.9-0.6,1.4-0.9H183.7z"/>
		<path class="st5" d="M194,104.1c-1.8,0-3.3-0.8-4.3-2.3s-1.5-3.7-1.5-6.5c0-3.1,0.5-5.5,1.6-7.1s2.6-2.4,4.7-2.4
			c3.9,0,5.8,3,5.8,9.1c0,3-0.5,5.3-1.6,6.8C197.5,103.3,196,104.1,194,104.1z M194.3,88.1c-2.1,0-3.2,2.4-3.2,7.1
			c0,4.4,1.1,6.6,3.2,6.6c2.1,0,3.1-2.2,3.1-6.7C197.3,90.4,196.3,88.1,194.3,88.1z"/>
		<path class="st5" d="M209,104.1c-1.8,0-3.3-0.8-4.3-2.3s-1.5-3.7-1.5-6.5c0-3.1,0.5-5.5,1.6-7.1s2.6-2.4,4.7-2.4
			c3.9,0,5.8,3,5.8,9.1c0,3-0.5,5.3-1.6,6.8C212.5,103.3,210.9,104.1,209,104.1z M209.2,88.1c-2.1,0-3.2,2.4-3.2,7.1
			c0,4.4,1.1,6.6,3.2,6.6c2.1,0,3.1-2.2,3.1-6.7C212.3,90.4,211.3,88.1,209.2,88.1z"/>
		<path class="st5" d="M224.7,85.7v18.1h-2.9V89.2c-0.5,0.4-1.1,0.7-1.7,0.9c-0.6,0.3-1.3,0.5-2,0.7v-2.4c0.5-0.2,0.9-0.3,1.4-0.5
			c0.4-0.2,0.9-0.4,1.3-0.6c0.4-0.2,0.9-0.5,1.3-0.7c0.4-0.3,0.9-0.6,1.4-0.9H224.7z"/>
		<path class="st5" d="M235.8,85.7v18.1h-2.9V89.2c-0.5,0.4-1.1,0.7-1.7,0.9c-0.6,0.3-1.3,0.5-2,0.7v-2.4c0.5-0.2,0.9-0.3,1.4-0.5
			c0.4-0.2,0.9-0.4,1.3-0.6c0.4-0.2,0.9-0.5,1.3-0.7c0.4-0.3,0.9-0.6,1.4-0.9H235.8z"/>
		<path class="st5" d="M246.1,104.1c-1.8,0-3.3-0.8-4.3-2.3s-1.5-3.7-1.5-6.5c0-3.1,0.5-5.5,1.6-7.1s2.6-2.4,4.7-2.4
			c3.9,0,5.8,3,5.8,9.1c0,3-0.5,5.3-1.6,6.8C249.6,103.3,248.1,104.1,246.1,104.1z M246.4,88.1c-2.1,0-3.2,2.4-3.2,7.1
			c0,4.4,1.1,6.6,3.2,6.6c2.1,0,3.1-2.2,3.1-6.7C249.4,90.4,248.4,88.1,246.4,88.1z"/>
		<path class="st5" d="M261,104.1c-1.8,0-3.3-0.8-4.3-2.3c-1-1.5-1.5-3.7-1.5-6.5c0-3.1,0.5-5.5,1.6-7.1c1.1-1.6,2.6-2.4,4.7-2.4
			c3.9,0,5.8,3,5.8,9.1c0,3-0.5,5.3-1.6,6.8C264.6,103.3,263,104.1,261,104.1z M261.3,88.1c-2.1,0-3.2,2.4-3.2,7.1
			c0,4.4,1.1,6.6,3.2,6.6s3.1-2.2,3.1-6.7C264.4,90.4,263.4,88.1,261.3,88.1z"/>
		<path class="st5" d="M276.8,85.7v18.1h-2.9V89.2c-0.5,0.4-1.1,0.7-1.7,0.9c-0.6,0.3-1.3,0.5-2,0.7v-2.4c0.5-0.2,0.9-0.3,1.4-0.5
			c0.4-0.2,0.9-0.4,1.3-0.6s0.9-0.5,1.3-0.7c0.4-0.3,0.9-0.6,1.4-0.9H276.8z"/>
		<path class="st5" d="M287.1,104.1c-1.8,0-3.3-0.8-4.3-2.3s-1.5-3.7-1.5-6.5c0-3.1,0.5-5.5,1.6-7.1s2.6-2.4,4.7-2.4
			c3.9,0,5.8,3,5.8,9.1c0,3-0.5,5.3-1.6,6.8C290.6,103.3,289.1,104.1,287.1,104.1z M287.4,88.1c-2.1,0-3.2,2.4-3.2,7.1
			c0,4.4,1.1,6.6,3.2,6.6s3.1-2.2,3.1-6.7C290.4,90.4,289.4,88.1,287.4,88.1z"/>
		<path class="st5" d="M302.8,85.7v18.1H300V89.2c-0.5,0.4-1.1,0.7-1.7,0.9c-0.6,0.3-1.3,0.5-2,0.7v-2.4c0.5-0.2,0.9-0.3,1.4-0.5
			c0.4-0.2,0.9-0.4,1.3-0.6s0.9-0.5,1.3-0.7c0.4-0.3,0.9-0.6,1.4-0.9H302.8z"/>
		<path class="st5" d="M313.1,104.1c-1.8,0-3.3-0.8-4.3-2.3s-1.5-3.7-1.5-6.5c0-3.1,0.5-5.5,1.6-7.1s2.6-2.4,4.7-2.4
			c3.9,0,5.8,3,5.8,9.1c0,3-0.5,5.3-1.6,6.8C316.6,103.3,315.1,104.1,313.1,104.1z M313.4,88.1c-2.1,0-3.2,2.4-3.2,7.1
			c0,4.4,1.1,6.6,3.2,6.6s3.1-2.2,3.1-6.7C316.5,90.4,315.5,88.1,313.4,88.1z"/>
		<path class="st5" d="M328.1,104.1c-1.8,0-3.3-0.8-4.3-2.3s-1.5-3.7-1.5-6.5c0-3.1,0.5-5.5,1.6-7.1s2.6-2.4,4.7-2.4
			c3.9,0,5.8,3,5.8,9.1c0,3-0.5,5.3-1.6,6.8C331.6,103.3,330.1,104.1,328.1,104.1z M328.4,88.1c-2.1,0-3.2,2.4-3.2,7.1
			c0,4.4,1.1,6.6,3.2,6.6s3.1-2.2,3.1-6.7C331.4,90.4,330.4,88.1,328.4,88.1z"/>
		<path class="st5" d="M343,104.1c-1.8,0-3.3-0.8-4.3-2.3s-1.5-3.7-1.5-6.5c0-3.1,0.5-5.5,1.6-7.1s2.6-2.4,4.7-2.4
			c3.9,0,5.8,3,5.8,9.1c0,3-0.5,5.3-1.6,6.8C346.5,103.3,345,104.1,343,104.1z M343.3,88.1c-2.1,0-3.2,2.4-3.2,7.1
			c0,4.4,1.1,6.6,3.2,6.6s3.1-2.2,3.1-6.7C346.4,90.4,345.4,88.1,343.3,88.1z"/>
		<path class="st5" d="M358,104.1c-1.8,0-3.3-0.8-4.3-2.3s-1.5-3.7-1.5-6.5c0-3.1,0.5-5.5,1.6-7.1s2.6-2.4,4.7-2.4
			c3.9,0,5.8,3,5.8,9.1c0,3-0.5,5.3-1.6,6.8C361.5,103.3,360,104.1,358,104.1z M358.3,88.1c-2.1,0-3.2,2.4-3.2,7.1
			c0,4.4,1.1,6.6,3.2,6.6s3.1-2.2,3.1-6.7C361.3,90.4,360.3,88.1,358.3,88.1z"/>
		<path class="st5" d="M168,129.3c-1.8,0-3.3-0.8-4.3-2.3s-1.5-3.7-1.5-6.5c0-3.1,0.5-5.5,1.6-7.1s2.6-2.4,4.7-2.4
			c3.9,0,5.8,3,5.8,9.1c0,3-0.5,5.3-1.6,6.8C171.5,128.5,169.9,129.3,168,129.3z M168.2,113.3c-2.1,0-3.2,2.4-3.2,7.1
			c0,4.4,1.1,6.6,3.2,6.6c2.1,0,3.1-2.2,3.1-6.7C171.3,115.7,170.3,113.3,168.2,113.3z"/>
		<path class="st5" d="M183,111v18h-2.9v-14.6c-0.5,0.4-1.1,0.7-1.7,0.9c-0.6,0.3-1.3,0.5-2,0.7v-2.4c0.5-0.2,0.9-0.3,1.4-0.5
			c0.4-0.2,0.9-0.4,1.3-0.6c0.4-0.2,0.9-0.5,1.3-0.7c0.4-0.3,0.9-0.6,1.4-0.9L183,111L183,111z"/>
		<path class="st5" d="M192.7,129.3c-1.8,0-3.3-0.8-4.3-2.3s-1.5-3.7-1.5-6.5c0-3.1,0.5-5.5,1.6-7.1s2.6-2.4,4.7-2.4
			c3.9,0,5.8,3,5.8,9.1c0,3-0.5,5.3-1.6,6.8C196.2,128.5,194.7,129.3,192.7,129.3z M193,113.3c-2.1,0-3.2,2.4-3.2,7.1
			c0,4.4,1.1,6.6,3.2,6.6c2.1,0,3.1-2.2,3.1-6.7C196,115.7,195,113.3,193,113.3z"/>
		<path class="st5" d="M207.7,111v18h-2.9v-14.6c-0.5,0.4-1.1,0.7-1.7,0.9c-0.6,0.3-1.3,0.5-2,0.7v-2.4c0.5-0.2,0.9-0.3,1.4-0.5
			c0.4-0.2,0.9-0.4,1.3-0.6c0.4-0.2,0.9-0.5,1.3-0.7c0.4-0.3,0.9-0.6,1.4-0.9L207.7,111L207.7,111z"/>
		<path class="st5" d="M218.2,111v18h-2.9v-14.6c-0.5,0.4-1.1,0.7-1.7,0.9c-0.6,0.3-1.3,0.5-2,0.7v-2.4c0.5-0.2,0.9-0.3,1.4-0.5
			c0.4-0.2,0.9-0.4,1.3-0.6c0.4-0.2,0.9-0.5,1.3-0.7c0.4-0.3,0.9-0.6,1.4-0.9L218.2,111L218.2,111z"/>
		<path class="st5" d="M228.6,111v18h-2.9v-14.6c-0.5,0.4-1.1,0.7-1.7,0.9c-0.6,0.3-1.3,0.5-2,0.7v-2.4c0.5-0.2,0.9-0.3,1.4-0.5
			c0.4-0.2,0.9-0.4,1.3-0.6c0.4-0.2,0.9-0.5,1.3-0.7c0.4-0.3,0.9-0.6,1.4-0.9L228.6,111L228.6,111z"/>
		<path class="st5" d="M238.3,129.3c-1.8,0-3.3-0.8-4.3-2.3s-1.5-3.7-1.5-6.5c0-3.1,0.5-5.5,1.6-7.1s2.6-2.4,4.7-2.4
			c3.9,0,5.8,3,5.8,9.1c0,3-0.5,5.3-1.6,6.8C241.8,128.5,240.2,129.3,238.3,129.3z M238.5,113.3c-2.1,0-3.2,2.4-3.2,7.1
			c0,4.4,1.1,6.6,3.2,6.6c2.1,0,3.1-2.2,3.1-6.7C241.6,115.7,240.6,113.3,238.5,113.3z"/>
		<path class="st5" d="M252.5,129.3c-1.8,0-3.3-0.8-4.3-2.3s-1.5-3.7-1.5-6.5c0-3.1,0.5-5.5,1.6-7.1s2.6-2.4,4.7-2.4
			c3.9,0,5.8,3,5.8,9.1c0,3-0.5,5.3-1.6,6.8C256.1,128.5,254.5,129.3,252.5,129.3z M252.8,113.3c-2.1,0-3.2,2.4-3.2,7.1
			c0,4.4,1.1,6.6,3.2,6.6s3.1-2.2,3.1-6.7C255.9,115.7,254.9,113.3,252.8,113.3z"/>
		<path class="st5" d="M267.6,111v18h-2.9v-14.6c-0.5,0.4-1.1,0.7-1.7,0.9c-0.6,0.3-1.3,0.5-2,0.7v-2.4c0.5-0.2,0.9-0.3,1.4-0.5
			c0.4-0.2,0.9-0.4,1.3-0.6s0.9-0.5,1.3-0.7c0.4-0.3,0.9-0.6,1.4-0.9L267.6,111L267.6,111z"/>
		<path class="st5" d="M278,111v18h-2.9v-14.6c-0.5,0.4-1.1,0.7-1.7,0.9c-0.6,0.3-1.3,0.5-2,0.7v-2.4c0.5-0.2,0.9-0.3,1.4-0.5
			c0.4-0.2,0.9-0.4,1.3-0.6s0.9-0.5,1.3-0.7c0.4-0.3,0.9-0.6,1.4-0.9L278,111L278,111z"/>
		<path class="st5" d="M287.7,129.3c-1.8,0-3.3-0.8-4.3-2.3s-1.5-3.7-1.5-6.5c0-3.1,0.5-5.5,1.6-7.1s2.6-2.4,4.7-2.4
			c3.9,0,5.8,3,5.8,9.1c0,3-0.5,5.3-1.6,6.8C291.2,128.5,289.7,129.3,287.7,129.3z M288,113.3c-2.1,0-3.2,2.4-3.2,7.1
			c0,4.4,1.1,6.6,3.2,6.6s3.1-2.2,3.1-6.7C291,115.7,290,113.3,288,113.3z"/>
		<path class="st5" d="M302,129.3c-1.8,0-3.3-0.8-4.3-2.3s-1.5-3.7-1.5-6.5c0-3.1,0.5-5.5,1.6-7.1s2.6-2.4,4.7-2.4
			c3.9,0,5.8,3,5.8,9.1c0,3-0.5,5.3-1.6,6.8C305.5,128.5,304,129.3,302,129.3z M302.3,113.3c-2.1,0-3.2,2.4-3.2,7.1
			c0,4.4,1.1,6.6,3.2,6.6s3.1-2.2,3.1-6.7C305.3,115.7,304.3,113.3,302.3,113.3z"/>
		<path class="st5" d="M317,111v18h-2.9v-14.6c-0.5,0.4-1.1,0.7-1.7,0.9c-0.6,0.3-1.3,0.5-2,0.7v-2.4c0.5-0.2,0.9-0.3,1.4-0.5
			c0.4-0.2,0.9-0.4,1.3-0.6s0.9-0.5,1.3-0.7c0.4-0.3,0.9-0.6,1.4-0.9L317,111L317,111z"/>
		<path class="st5" d="M327.5,111v18h-2.9v-14.6c-0.5,0.4-1.1,0.7-1.7,0.9c-0.6,0.3-1.3,0.5-2,0.7v-2.4c0.5-0.2,0.9-0.3,1.4-0.5
			c0.4-0.2,0.9-0.4,1.3-0.6s0.9-0.5,1.3-0.7c0.4-0.3,0.9-0.6,1.4-0.9L327.5,111L327.5,111z"/>
		<path class="st5" d="M337.9,111v18H335v-14.6c-0.5,0.4-1.1,0.7-1.7,0.9c-0.6,0.3-1.3,0.5-2,0.7v-2.4c0.5-0.2,0.9-0.3,1.4-0.5
			c0.4-0.2,0.9-0.4,1.3-0.6s0.9-0.5,1.3-0.7c0.4-0.3,0.9-0.6,1.4-0.9L337.9,111L337.9,111z"/>
		<path class="st5" d="M347.6,129.3c-1.8,0-3.3-0.8-4.3-2.3s-1.5-3.7-1.5-6.5c0-3.1,0.5-5.5,1.6-7.1s2.6-2.4,4.7-2.4
			c3.9,0,5.8,3,5.8,9.1c0,3-0.5,5.3-1.6,6.8C351.1,128.5,349.5,129.3,347.6,129.3z M347.8,113.3c-2.1,0-3.2,2.4-3.2,7.1
			c0,4.4,1.1,6.6,3.2,6.6s3.1-2.2,3.1-6.7C350.9,115.7,349.9,113.3,347.8,113.3z"/>
		<path class="st5" d="M362.6,111v18h-2.9v-14.6c-0.5,0.4-1.1,0.7-1.7,0.9c-0.6,0.3-1.3,0.5-2,0.7v-2.4c0.5-0.2,0.9-0.3,1.4-0.5
			c0.4-0.2,0.9-0.4,1.3-0.6s0.9-0.5,1.3-0.7c0.4-0.3,0.9-0.6,1.4-0.9L362.6,111L362.6,111z"/>
	</g>
</g>
<g>
	<g class="st6">
		<polygon class="st3" points="211.6,3.7 194.1,3.7 185.3,18.9 194.1,34.1 211.6,34.1 220.3,18.9 		"/>
		<polygon class="st3" points="289.5,54.2 272,54.2 263.3,69.4 272,84.5 289.5,84.5 298.3,69.4 		"/>
		<polygon class="st3" points="228.4,105 210.9,105 202.2,120.1 210.9,135.3 228.4,135.3 237.2,120.1 		"/>
	</g>
	<g>
		<polygon class="st10" points="211.6,3.7 194.1,3.7 185.3,18.9 194.1,34.1 211.6,34.1 220.3,18.9 		"/>
		<polygon class="st10" points="289.5,54.2 272,54.2 263.3,69.4 272,84.5 289.5,84.5 298.3,69.4 		"/>
		<polygon class="st10" points="228.4,105 210.9,105 202.2,120.1 210.9,135.3 228.4,135.3 237.2,120.1 		"/>
		<line class="st10" x1="215.5" y1="27.3" x2="268" y2="61.3"/>
		<line class="st10" x1="268" y1="77.5" x2="232.8" y2="113.1"/>
	</g>
</g>
<g>
	<g>
		<polygon class="st11" points="263.5,69.9 264.7,72 264.7,67.7 		"/>
		<path class="st11" d="M288,62.9c-2.1,0-3.2,2.4-3.2,7.1c0,4.4,1.1,6.6,3.2,6.6s3.1-2.2,3.1-6.7C291,65.2,290,62.9,288,62.9z"/>
		<path class="st11" d="M289,55.1h-17l-4.4,7.7V77l4.4,7.7h17l8.5-14.7L289,55.1z M278,78.6h-2.9V64c-0.5,0.4-1.1,0.7-1.7,0.9
			c-0.6,0.3-1.3,0.5-2,0.7v-2.4c0.5-0.2,0.9-0.3,1.4-0.5c0.4-0.2,0.9-0.4,1.3-0.6c0.4-0.2,0.9-0.5,1.3-0.7c0.4-0.3,0.9-0.6,1.4-0.9
			h1.2L278,78.6L278,78.6z M287.7,78.9c-1.8,0-3.3-0.8-4.3-2.3s-1.5-3.7-1.5-6.5c0-3.1,0.5-5.5,1.6-7.1s2.6-2.4,4.7-2.4
			c3.9,0,5.8,3,5.8,9.1c0,3-0.5,5.3-1.6,6.8C291.2,78.1,289.7,78.9,287.7,78.9z"/>
		<polygon class="st5" points="264.7,67.7 264.7,72 267.6,77 267.6,62.8 		"/>
		<path class="st5" d="M275.5,61.4c-0.4,0.3-0.9,0.5-1.3,0.7s-0.9,0.4-1.3,0.6c-0.4,0.2-0.9,0.3-1.4,0.5v2.4c0.8-0.2,1.4-0.4,2-0.7
			c0.6-0.3,1.2-0.6,1.7-0.9v14.6h2.9V60.5h-1.2C276.4,60.8,275.9,61.1,275.5,61.4z"/>
		<path class="st5" d="M288.1,60.6c-2,0-3.6,0.8-4.7,2.4c-1.1,1.6-1.6,4-1.6,7.1c0,2.8,0.5,5,1.5,6.5s2.5,2.3,4.3,2.3
			c2,0,3.5-0.8,4.6-2.4s1.6-3.9,1.6-6.8C293.9,63.6,292,60.6,288.1,60.6z M287.9,76.6c-2.1,0-3.2-2.2-3.2-6.6c0-4.7,1.1-7.1,3.2-7.1
			c2,0,3,2.3,3,7C291,74.3,290,76.6,287.9,76.6z"/>
	</g>
	<g>
		<path class="st11" d="M232.4,120.6c0-2.2,0.3-4,0.8-5.5l-5.2-9h-17l-3.3,5.7V129h-0.5l3.8,6.6h17l5.4-9.4
			C232.8,124.8,232.4,122.9,232.4,120.6z M218.2,129h-2.9v-14.6c-0.5,0.4-1.1,0.7-1.7,0.9c-0.6,0.3-1.3,0.5-2,0.7v-2.4
			c0.5-0.2,0.9-0.3,1.4-0.5c0.4-0.2,0.9-0.4,1.3-0.6c0.4-0.2,0.9-0.5,1.3-0.7c0.4-0.3,0.9-0.6,1.4-0.9h1.2V129z M228.6,129h-2.9
			v-14.6c-0.5,0.4-1.1,0.7-1.7,0.9c-0.6,0.3-1.3,0.5-2,0.7v-2.4c0.5-0.2,0.9-0.3,1.4-0.5c0.4-0.2,0.9-0.4,1.3-0.6
			c0.4-0.2,0.9-0.5,1.3-0.7c0.4-0.3,0.9-0.6,1.4-0.9h1.2V129z"/>
		<path class="st11" d="M235.5,122.8l1.1-1.9l-1.2-2.1c0,0.5,0,1,0,1.6C235.3,121.3,235.4,122.1,235.5,122.8z"/>
		<polygon class="st11" points="202.5,120.9 204.9,125 204.9,116.8 		"/>
		<polygon class="st5" points="207.7,111.8 204.9,116.8 204.9,125 207.2,129 207.7,129 		"/>
		<path class="st5" d="M215.6,111.9c-0.4,0.3-0.9,0.5-1.3,0.7c-0.4,0.2-0.9,0.4-1.3,0.6c-0.4,0.2-0.9,0.3-1.4,0.5v2.4
			c0.8-0.2,1.4-0.4,2-0.7c0.6-0.3,1.2-0.6,1.7-0.9V129h2.9v-18H217C216.5,111.3,216,111.6,215.6,111.9z"/>
		<path class="st5" d="M226,111.9c-0.4,0.3-0.9,0.5-1.3,0.7c-0.4,0.2-0.9,0.4-1.3,0.6c-0.4,0.2-0.9,0.3-1.4,0.5v2.4
			c0.8-0.2,1.4-0.4,2-0.7c0.6-0.3,1.2-0.6,1.7-0.9V129h2.9v-18h-1.2C226.9,111.3,226.5,111.6,226,111.9z"/>
		<path class="st5" d="M233.5,126.2l2-3.5c-0.1-0.7-0.1-1.5-0.1-2.3c0-0.6,0-1.1,0-1.6l-2.2-3.7c-0.5,1.4-0.8,3.3-0.8,5.5
			C232.4,122.9,232.8,124.8,233.5,126.2z"/>
	</g>
	<g>
		<path class="st11" d="M186.5,18.9l0.2,0.3c0-0.2,0-0.4,0-0.6L186.5,18.9z"/>
		<path class="st11" d="M215,28.1V13.5c-0.5,0.4-1.1,0.7-1.7,0.9c-0.6,0.3-1.3,0.5-2,0.7v-2.4c0.5-0.2,0.9-0.3,1.4-0.5
			c0.4-0.2,0.9-0.4,1.3-0.6c0.4-0.2,0.9-0.5,1.3-0.7c0.2-0.1,0.3-0.2,0.5-0.3L212,4.1h-17l-3.6,6.2c0.5-0.1,1-0.2,1.5-0.2
			c3.9,0,5.8,3,5.8,9.1c0,3-0.5,5.3-1.6,6.8c-1.1,1.6-2.6,2.4-4.6,2.4c-0.2,0-0.4,0-0.5,0l3,5.3h17l3.2-5.5H215V28.1z M207.5,28.1
			h-2.9V13.5c-0.5,0.4-1.1,0.7-1.7,0.9c-0.6,0.3-1.3,0.5-2,0.7v-2.4c0.5-0.2,0.9-0.3,1.4-0.5c0.4-0.2,0.9-0.4,1.3-0.6
			c0.4-0.2,0.9-0.5,1.3-0.7c0.4-0.3,0.9-0.6,1.4-0.9h1.2V28.1z"/>
		<path class="st11" d="M195.9,19.4c0-4.6-1-7-3-7c-2.1,0-3.2,2.4-3.2,7.1c0,4.4,1.1,6.6,3.2,6.6C194.8,26.1,195.9,23.9,195.9,19.4z
			"/>
		<polygon class="st11" points="220.6,18.9 217.9,14.2 217.9,23.5 		"/>
		<path class="st5" d="M197.1,26c1.1-1.6,1.6-3.9,1.6-6.8c0-6-1.9-9.1-5.8-9.1c-0.5,0-1,0.1-1.5,0.2l-4.8,8.3c0,0.2,0,0.4,0,0.6
			l5.3,9.2c0.2,0,0.4,0,0.5,0C194.5,28.4,196,27.6,197.1,26z M189.6,19.5c0-4.7,1.1-7.1,3.2-7.1c2,0,3,2.3,3,7c0,4.5-1,6.7-3.1,6.7
			C190.6,26.1,189.6,23.9,189.6,19.5z"/>
		<path class="st5" d="M204.9,10.9c-0.4,0.3-0.9,0.5-1.3,0.7c-0.4,0.2-0.9,0.4-1.3,0.6c-0.4,0.2-0.9,0.3-1.4,0.5v2.4
			c0.8-0.2,1.4-0.4,2-0.7s1.2-0.6,1.7-0.9v14.6h2.9V10h-1.2C205.8,10.4,205.4,10.7,204.9,10.9z"/>
		<path class="st5" d="M214,11.6c-0.4,0.2-0.9,0.4-1.3,0.6c-0.4,0.2-0.9,0.3-1.4,0.5v2.4c0.8-0.2,1.4-0.4,2-0.7s1.2-0.6,1.7-0.9
			v14.6h0.2l2.6-4.5v-9.4l-2.1-3.6c-0.2,0.1-0.3,0.2-0.5,0.3C214.8,11.2,214.4,11.4,214,11.6z"/>
	</g>
</g>
</svg>
