<?xml version="1.0" encoding="utf-8"?>
<!-- Generator: Adobe Illustrator 21.1.0, SVG Export Plug-In . SVG Version: 6.00 Build 0)  -->
<svg version="1.1" id="Layer_1" xmlns="http://www.w3.org/2000/svg" xmlns:xlink="http://www.w3.org/1999/xlink" x="0px" y="0px"
	 viewBox="0 0 400 140" style="enable-background:new 0 0 400 140;" xml:space="preserve">
<style type="text/css">
	.st0{fill:#334154;}
	.st1{fill:#2A3548;}
	.st2{fill:#F25C00;}
	.st3{fill:#1E2937;}
	.st4{fill:#CC4602;}
	.st5{fill:#D7DEED;}
	.st6{opacity:0.3;}
	.st7{opacity:0.5;}
	.st8{fill:#E4EAF6;}
	.st9{opacity:5.000000e-02;}
	.st10{opacity:0.1;}
	.st11{clip-path:url(#SVGID_2_);}
	.st12{opacity:0.25;}
	.st13{opacity:0.75;fill:#F25C00;}
</style>
<rect x="0.2" y="0.2" class="st0" width="400" height="140"/>
<g>
	<polygon class="st1" points="141.7,97.5 141.7,40.4 92.2,11.8 42.7,40.4 42.7,97.5 92.2,126.1 	"/>
	<polygon class="st2" points="42.7,91.2 92.2,119.8 141.7,91.2 141.7,97.5 92.2,126.1 42.7,97.5 	"/>
	<polygon class="st3" points="141.7,97.5 141.7,40.4 92.2,11.8 92.2,126.1 	"/>
	<polygon class="st4" points="141.7,97.5 141.7,91.2 92.2,119.8 92.2,126.1 	"/>
</g>
<polygon class="st3" points="98.3,72.5 87.3,72.4 87.4,92.1 94.8,79.6 116.9,79.6 116.8,68.2 103.2,68.1 "/>
<polygon class="st1" points="94.4,79.3 87.7,92.8 113.7,93.1 120.2,79.7 "/>
<polygon class="st3" points="71.6,48.7 111.9,48.7 111.9,56.8 72.2,56.8 "/>
<g>
	<g>
		<rect x="86.5" y="60.9" class="st5" width="2.6" height="2.6"/>
		<rect x="86.5" y="66.3" class="st5" width="2.6" height="2.6"/>
		<rect x="78.5" y="77" class="st5" width="2.6" height="2.6"/>
		<rect x="78.5" y="66.3" class="st5" width="2.6" height="2.6"/>
		<rect x="78.5" y="71.6" class="st5" width="2.6" height="2.6"/>
		<rect x="94.6" y="66.3" class="st5" width="2.6" height="2.6"/>
		<path class="st5" d="M73.1,82.4V58.2h37.6v9h2.6V47.4h-8v-2.6h-2.6v2.6H81.2v-2.6h-2.6v2.6h-8V85h15.9v-2.6H73.1z M73.1,50.2h5.4
			v2.6h2.6v-2.6h21.5v2.6h2.6v-2.6h5.4v5.4H73.1V50.2z"/>
		<rect x="102.6" y="60.9" class="st5" width="2.6" height="2.6"/>
		<rect x="94.6" y="60.9" class="st5" width="2.6" height="2.6"/>
	</g>
	<g>
		<path class="st2" d="M118.2,78.2h4.2l-8,16.1H85.9v-23h12.2l4.6-4.6h15.4C118.2,66.7,118.2,78.2,118.2,78.2z M88.6,73.9v15.3
			l5.4-11h21.7v-8.9h-11.6l-4.6,4.6H88.6z M112.6,91.8l5.5-11H95.3l-5.2,11H112.6z"/>
	</g>
</g>
<g>
	<g class="st6">
		<g class="st7">
			<polygon class="st8" points="198.7,42.6 181.7,54.3 171.4,110.3 221.9,119.6 234.9,49.3 			"/>
		</g>
		<polygon class="st8" points="198.7,42.6 196.1,56.9 181.7,54.3 		"/>
	</g>
	<g>
		<g>
			<g>
				
					<rect x="194.2" y="69.8" transform="matrix(0.9835 0.1811 -0.1811 0.9835 16.4405 -34.5188)" class="st5" width="6" height="6"/>
				<rect x="187" y="68.4" transform="matrix(0.9835 0.1811 -0.1811 0.9835 16.0782 -33.2255)" class="st5" width="6" height="6"/>
				
					<rect x="208.8" y="72.4" transform="matrix(0.9835 0.1811 -0.1811 0.9835 17.1665 -37.1101)" class="st5" width="6" height="6"/>
				
					<rect x="201.5" y="71.1" transform="matrix(0.9835 0.1811 -0.1811 0.9835 16.8042 -35.8168)" class="st2" width="6" height="6"/>
				
					<rect x="216.1" y="73.8" transform="matrix(0.9835 0.1811 -0.1811 0.9835 17.5289 -38.4034)" class="st5" width="6" height="6"/>
				<rect x="195.5" y="62.7" transform="matrix(0.9835 0.1811 -0.1811 0.9835 15.18 -34.872)" class="st5" width="6" height="6"/>
				
					<rect x="188.3" y="61.3" transform="matrix(0.9835 0.1811 -0.1811 0.9835 14.8176 -33.5786)" class="st5" width="6" height="6"/>
				<rect x="210.1" y="65.4" transform="matrix(0.9835 0.1811 -0.1811 0.9835 15.906 -37.4633)" class="st5" width="6" height="6"/>
				<rect x="202.8" y="64" transform="matrix(0.9835 0.1811 -0.1811 0.9835 15.5436 -36.17)" class="st5" width="6" height="6"/>
				
					<rect x="217.4" y="66.7" transform="matrix(0.9835 0.1811 -0.1811 0.9835 16.2683 -38.7566)" class="st5" width="6" height="6"/>
				
					<rect x="192.9" y="76.9" transform="matrix(0.9835 0.1811 -0.1811 0.9835 17.7148 -34.1618)" class="st5" width="6" height="6"/>
				
					<rect x="185.7" y="75.6" transform="matrix(0.9835 0.1811 -0.1811 0.9835 17.3525 -32.8684)" class="st5" width="6" height="6"/>
				
					<rect x="207.5" y="79.6" transform="matrix(0.9835 0.1811 -0.1811 0.9835 18.4408 -36.7531)" class="st5" width="6" height="6"/>
				
					<rect x="200.2" y="78.3" transform="matrix(0.9835 0.1811 -0.1811 0.9835 18.0785 -35.4598)" class="st5" width="6" height="6"/>
				
					<rect x="214.7" y="80.9" transform="matrix(0.9835 0.1811 -0.1811 0.9835 18.8032 -38.0464)" class="st5" width="6" height="6"/>
				
					<rect x="191.6" y="84.2" transform="matrix(0.9835 0.1811 -0.1811 0.9835 19.0082 -33.7994)" class="st5" width="6" height="6"/>
				
					<rect x="184.3" y="82.8" transform="matrix(0.9835 0.1811 -0.1811 0.9835 18.6458 -32.5061)" class="st5" width="6" height="6"/>
				
					<rect x="206.1" y="86.9" transform="matrix(0.9835 0.1811 -0.1811 0.9835 19.7342 -36.3907)" class="st5" width="6" height="6"/>
				
					<rect x="198.9" y="85.5" transform="matrix(0.9835 0.1811 -0.1811 0.9835 19.3718 -35.0974)" class="st5" width="6" height="6"/>
			</g>
		</g>
	</g>
</g>
<g class="st9">
	<g>
		<path class="st8" d="M383.8,12.7C383.8,12.7,383.8,12.7,383.8,12.7c-0.6-5.6-5.4-10-11.1-10c-5.7,0-10.4,4.3-11,9.8
			c-1.6-1.5-3.8-2.5-6.2-2.5c-4.2,0-7.7,2.9-8.7,6.8c-0.6-0.2-1.3-0.3-2-0.3c-3.9,0-7.1,3.2-7.1,7.1s3.2,7.1,7.1,7.1
			c2.7,0,35.2,0,39.1,0c5,0,9-4,9-9C392.8,16.8,388.8,12.7,383.8,12.7z"/>
	</g>
</g>
<g class="st10">
	<g>
		<path class="st8" d="M235.4,13.2C235.4,13.2,235.4,13.2,235.4,13.2c0.5-5,4.7-8.9,9.8-8.9c5,0,9.2,3.8,9.8,8.7
			c1.4-1.4,3.4-2.2,5.5-2.2c3.7,0,6.8,2.5,7.7,6c0.6-0.2,1.1-0.2,1.8-0.2c3.5,0,6.3,2.8,6.3,6.3s-2.8,6.3-6.3,6.3
			c-2.4,0-31.1,0-34.6,0c-4.4,0-8-3.6-8-8C227.4,16.8,231,13.2,235.4,13.2z"/>
	</g>
	<g class="st7">
		<g>
			<path class="st8" d="M227.3,13.5C227.3,13.5,227.3,13.5,227.3,13.5c-0.4-3.5-3.3-6.2-6.9-6.2c-3.5,0-6.4,2.7-6.8,6.1
				c-1-1-2.4-1.5-3.8-1.5c-2.6,0-4.8,1.8-5.4,4.2c-0.4-0.1-0.8-0.2-1.2-0.2c-2.4,0-4.4,2-4.4,4.4s2,4.4,4.4,4.4c1.7,0,21.7,0,24.2,0
				c3.1,0,5.6-2.5,5.6-5.6C232.9,16,230.4,13.5,227.3,13.5z"/>
		</g>
	</g>
</g>
<g>
	<defs>
		<rect id="SVGID_1_" x="228.2" y="24.6" width="172" height="115.6"/>
	</defs>
	<clipPath id="SVGID_2_">
		<use xlink:href="#SVGID_1_"  style="overflow:visible;"/>
	</clipPath>
	<g class="st11">
		<g class="st9">
			<g class="st7">
				<polygon class="st8" points="305.3,77.1 290.9,71.1 305.3,56.6 319.8,62.6 				"/>
				<polygon class="st8" points="322.3,84.3 307.9,78.3 322.3,63.9 336.7,69.9 				"/>
				<polygon class="st8" points="339.1,91.3 324.7,85.3 339.1,70.9 353.5,76.9 				"/>
				<polygon class="st8" points="356.1,98.1 341.6,92.2 356.1,77.7 370.5,83.7 				"/>
				<polygon class="st8" points="373.1,104.9 358.6,99 373.1,84.5 387.5,90.5 				"/>
				<polygon class="st8" points="288.9,93.5 274.4,87.6 288.9,73.1 303.3,79.1 				"/>
				<polygon class="st8" points="305.9,100.8 291.4,94.8 305.9,80.4 320.3,86.3 				"/>
				<polygon class="st8" points="322.6,107.8 308.2,101.8 322.6,87.4 337.1,93.3 				"/>
				<polygon class="st8" points="339.6,114.6 325.2,108.6 339.6,94.2 354.1,100.2 				"/>
				<polygon class="st8" points="356.6,121.4 342.2,115.4 356.6,101 371,107 				"/>
				<polygon class="st8" points="273.1,110 258.6,104.1 273.1,89.6 287.5,95.6 				"/>
				<polygon class="st8" points="290,117.3 275.6,111.3 290,96.9 304.5,102.8 				"/>
				<polygon class="st8" points="306.8,124.3 292.4,118.3 306.8,103.9 321.3,109.9 				"/>
				<polygon class="st8" points="323.8,131.1 309.4,125.1 323.8,110.7 338.2,116.7 				"/>
				<polygon class="st8" points="340.8,137.9 326.4,132 340.8,117.5 355.2,123.5 				"/>
				<polygon class="st8" points="257,126.6 242.5,120.6 257,106.2 271.4,112.1 				"/>
				<polygon class="st2" points="274,133.8 259.5,127.8 274,113.4 288.4,119.4 				"/>
				<polygon class="st8" points="290.7,140.8 276.3,134.9 290.7,120.4 305.2,126.4 				"/>
				<polygon class="st8" points="307.7,147.6 293.3,141.7 307.7,127.2 322.2,133.2 				"/>
				<polygon class="st8" points="324.7,154.4 310.3,148.5 324.7,134 339.1,140 				"/>
			</g>
		</g>
		<g class="st10">
			<g class="st7">
				<polygon class="st8" points="305.3,69.5 290.9,63.5 305.3,49.1 319.8,55.1 				"/>
				<polygon class="st8" points="322.3,76.7 307.9,70.8 322.3,56.3 336.7,62.3 				"/>
				<polygon class="st8" points="339.1,83.7 324.7,77.8 339.1,63.3 353.5,69.3 				"/>
				<polygon class="st2" points="356.1,90.6 341.6,84.6 356.1,70.2 370.5,76.1 				"/>
				<polygon class="st8" points="373.1,97.4 358.6,91.4 373.1,77 387.5,82.9 				"/>
				<polygon class="st8" points="288.9,86 274.4,80 288.9,65.6 303.3,71.5 				"/>
				<polygon class="st8" points="305.9,93.2 291.4,87.2 305.9,72.8 320.3,78.8 				"/>
				<polygon class="st8" points="322.6,100.2 308.2,94.3 322.6,79.8 337.1,85.8 				"/>
				<polygon class="st8" points="339.6,107 325.2,101.1 339.6,86.6 354.1,92.6 				"/>
				<polygon class="st8" points="356.6,113.8 342.2,107.9 356.6,93.4 371,99.4 				"/>
				<polygon class="st8" points="273.1,102.5 258.6,96.5 273.1,82.1 287.5,88 				"/>
				<polygon class="st8" points="290,109.7 275.6,103.8 290,89.3 304.5,95.3 				"/>
				<polygon class="st8" points="306.8,116.7 292.4,110.8 306.8,96.3 321.3,102.3 				"/>
				<polygon class="st8" points="323.8,123.5 309.4,117.6 323.8,103.1 338.2,109.1 				"/>
				<polygon class="st8" points="340.8,130.4 326.4,124.4 340.8,110 355.2,115.9 				"/>
				<polygon class="st8" points="257,119 242.5,113 257,98.6 271.4,104.6 				"/>
				<polygon class="st8" points="274,126.2 259.5,120.3 274,105.8 288.4,111.8 				"/>
				<polygon class="st8" points="290.7,133.3 276.3,127.3 290.7,112.9 305.2,118.8 				"/>
				<polygon class="st8" points="307.7,140.1 293.3,134.1 307.7,119.7 322.2,125.6 				"/>
				<polygon class="st8" points="324.7,146.9 310.3,140.9 324.7,126.5 339.1,132.4 				"/>
			</g>
		</g>
		<g class="st12">
			<g class="st7">
				<polygon class="st8" points="305.3,61.9 290.9,56 305.3,41.5 319.8,47.5 				"/>
				<polygon class="st8" points="322.3,69.2 307.9,63.2 322.3,48.8 336.7,54.7 				"/>
				<polygon class="st8" points="339.1,76.2 324.7,70.2 339.1,55.8 353.5,61.7 				"/>
				<polygon class="st8" points="356.1,83 341.6,77 356.1,62.6 370.5,68.6 				"/>
				<polygon class="st8" points="373.1,89.8 358.6,83.8 373.1,69.4 387.5,75.4 				"/>
				<polygon class="st8" points="288.9,78.4 274.4,72.4 288.9,58 303.3,64 				"/>
				<polygon class="st8" points="305.9,85.6 291.4,79.7 305.9,65.2 320.3,71.2 				"/>
				<polygon class="st8" points="322.6,92.7 308.2,86.7 322.6,72.3 337.1,78.2 				"/>
				<polygon class="st8" points="339.6,99.5 325.2,93.5 339.6,79.1 354.1,85 				"/>
				<polygon class="st8" points="356.6,106.3 342.2,100.3 356.6,85.9 371,91.8 				"/>
				<polygon class="st8" points="273.1,94.9 258.6,89 273.1,74.5 287.5,80.5 				"/>
				<polygon class="st2" points="290,102.2 275.6,96.2 290,81.8 304.5,87.7 				"/>
				<polygon class="st8" points="306.8,109.2 292.4,103.2 306.8,88.8 321.3,94.7 				"/>
				<polygon class="st8" points="323.8,116 309.4,110 323.8,95.6 338.2,101.6 				"/>
				<polygon class="st8" points="340.8,122.8 326.4,116.8 340.8,102.4 355.2,108.4 				"/>
				<polygon class="st8" points="257,111.4 242.5,105.5 257,91 271.4,97 				"/>
				<polygon class="st8" points="274,118.7 259.5,112.7 274,98.3 288.4,104.2 				"/>
				<polygon class="st8" points="290.7,125.7 276.3,119.7 290.7,105.3 305.2,111.3 				"/>
				<polygon class="st8" points="307.7,132.5 293.3,126.5 307.7,112.1 322.2,118.1 				"/>
				<polygon class="st8" points="324.7,139.3 310.3,133.4 324.7,118.9 339.1,124.9 				"/>
			</g>
		</g>
		<g class="st7">
			<g class="st7">
				<polygon class="st8" points="305.3,54.4 290.9,48.4 305.3,34 319.8,39.9 				"/>
				<polygon class="st8" points="322.3,61.6 307.9,55.6 322.3,41.2 336.7,47.2 				"/>
				<polygon class="st8" points="339.1,68.6 324.7,62.7 339.1,48.2 353.5,54.2 				"/>
				<polygon class="st8" points="356.1,75.4 341.6,69.5 356.1,55 370.5,61 				"/>
				<polygon class="st8" points="373.1,82.2 358.6,76.3 373.1,61.8 387.5,67.8 				"/>
				<polygon class="st8" points="288.9,70.8 274.4,64.9 288.9,50.4 303.3,56.4 				"/>
				<polygon class="st8" points="305.9,78.1 291.4,72.1 305.9,57.7 320.3,63.6 				"/>
				<polygon class="st2" points="322.6,85.1 308.2,79.1 322.6,64.7 337.1,70.7 				"/>
				<polygon class="st8" points="339.6,91.9 325.2,85.9 339.6,71.5 354.1,77.5 				"/>
				<polygon class="st8" points="356.6,98.7 342.2,92.8 356.6,78.3 371,84.3 				"/>
				<polygon class="st8" points="273.1,87.4 258.6,81.4 273.1,67 287.5,72.9 				"/>
				<polygon class="st8" points="290,94.6 275.6,88.6 290,74.2 304.5,80.2 				"/>
				<polygon class="st8" points="306.8,101.6 292.4,95.6 306.8,81.2 321.3,87.2 				"/>
				<polygon class="st8" points="323.8,108.4 309.4,102.5 323.8,88 338.2,94 				"/>
				<polygon class="st8" points="340.8,115.2 326.4,109.3 340.8,94.8 355.2,100.8 				"/>
				<polygon class="st8" points="257,103.9 242.5,97.9 257,83.5 271.4,89.4 				"/>
				<polygon class="st8" points="274,111.1 259.5,105.2 274,90.7 288.4,96.7 				"/>
				<polygon class="st8" points="290.7,118.1 276.3,112.2 290.7,97.7 305.2,103.7 				"/>
				<polygon class="st8" points="307.7,124.9 293.3,119 307.7,104.5 322.2,110.5 				"/>
				<polygon class="st8" points="324.7,131.8 310.3,125.8 324.7,111.4 339.1,117.3 				"/>
			</g>
		</g>
		<polygon class="st13" points="322.6,85.1 308.2,79.1 322.6,64.7 337.1,70.7 		"/>
	</g>
</g>
</svg>
