<?xml version="1.0" encoding="utf-8"?>
<!-- Generator: Adobe Illustrator 21.1.0, SVG Export Plug-In . SVG Version: 6.00 Build 0)  -->
<svg version="1.1" id="Layer_1" xmlns="http://www.w3.org/2000/svg" xmlns:xlink="http://www.w3.org/1999/xlink" x="0px" y="0px"
	 viewBox="0 0 400 140" style="enable-background:new 0 0 400 140;" xml:space="preserve">
<style type="text/css">
	.st0{fill:#334154;}
	.st1{fill:#2A3548;}
	.st2{fill:#F25C00;}
	.st3{fill:#1E2937;}
	.st4{fill:#CC4602;}
	.st5{fill:#D7DEED;}
	.st6{opacity:0.5;}
	.st7{opacity:5.000000e-02;}
	.st8{opacity:0.15;}
	.st9{opacity:0.25;}
	.st10{fill:none;stroke:#D7DEED;stroke-miterlimit:10;}
	.st11{fill:none;}
</style>
<rect x="0.2" y="0.2" class="st0" width="400" height="140"/>
<g>
	<polygon class="st1" points="141.7,97.5 141.7,40.4 92.2,11.8 42.6,40.4 42.6,97.5 92.2,126.1 	"/>
	<polygon class="st2" points="42.6,91.2 92.2,119.8 141.7,91.2 141.7,97.5 92.2,126.1 42.6,97.5 	"/>
	<polygon class="st3" points="141.7,97.5 141.7,40.4 92.2,11.8 92.2,126.1 	"/>
	<polygon class="st4" points="141.7,97.5 141.7,91.2 92.2,119.8 92.2,126.1 	"/>
</g>
<g>
	<path class="st3" d="M107.9,86c-1.6,0-3,1-3.5,2.5H91.3l4.2-4.2h1.7c0.5,1.5,1.9,2.5,3.6,2.5c2.1,0,3.8-1.7,3.8-3.8
		c0-2.1-1.7-3.8-3.8-3.8c-1.5,0-2.7,0.8-3.4,2.1h-3.1L87,88.4H75.9v-4.7l-3-3v10.7h7.4l7.2,7.2h5.1c0.6,1.3,1.9,2.1,3.4,2.1
		c2.1,0,3.8-1.7,3.8-3.8c0-2.1-1.7-3.8-3.8-3.8c-1.6,0-3,1-3.5,2.5h-3.7l-4.2-4.2h20c0.6,1.3,1.9,2.1,3.4,2.1c2.1,0,3.8-1.7,3.8-3.8
		C111.7,87.7,110,86,107.9,86z"/>
</g>
<g>
	<g>
		<rect x="80" y="46.6" class="st5" width="12.7" height="3.3"/>
		<rect x="80" y="53" class="st5" width="13.1" height="3.3"/>
		<rect x="80" y="73.6" class="st5" width="10.7" height="3.3"/>
		<path class="st5" d="M99,40.3H72.9v33.8l3,3V43.3h21v12h12v25.9c1.1,0.1,2.1,0.6,3,1.2V53.1L99,40.3z M99.8,52.3v-6.9l6.9,6.9
			H99.8z"/>
	</g>
	<path class="st2" d="M107.9,84c-1.6,0-3,1-3.5,2.5H91.3l4.2-4.2h1.7c0.5,1.5,1.9,2.5,3.6,2.5c2.1,0,3.8-1.7,3.8-3.8
		c0-2.1-1.7-3.8-3.8-3.8c-1.5,0-2.7,0.8-3.4,2.1h-3.1L87,86.4H75.9v-4.7l-3-3v10.7h7.4l7.2,7.2h5.1c0.6,1.3,1.9,2.1,3.4,2.1
		c2.1,0,3.8-1.7,3.8-3.8c0-2.1-1.7-3.8-3.8-3.8c-1.6,0-3,1-3.5,2.5h-3.7l-4.2-4.2h20c0.6,1.3,1.9,2.1,3.4,2.1c2.1,0,3.8-1.7,3.8-3.8
		C111.7,85.7,110,84,107.9,84z M100.7,79.3c0.9,0,1.7,0.8,1.7,1.7c0,0.9-0.8,1.7-1.7,1.7c-0.9,0-1.7-0.8-1.7-1.7
		C99,80,99.8,79.3,100.7,79.3z M95.9,93.3c0.9,0,1.7,0.8,1.7,1.7c0,0.9-0.8,1.7-1.7,1.7s-1.7-0.8-1.7-1.7C94.2,94,95,93.3,95.9,93.3
		z M107.9,89.5c-0.9,0-1.7-0.8-1.7-1.7c0-0.9,0.8-1.7,1.7-1.7c0.9,0,1.7,0.8,1.7,1.7C109.7,88.7,108.9,89.5,107.9,89.5z"/>
	<rect x="86.3" y="59.9" class="st5" width="16.7" height="3.3"/>
	<circle class="st5" cx="81.9" cy="61.6" r="1.7"/>
	<rect x="80.1" y="66.8" class="st5" width="23" height="3.3"/>
</g>
<g class="st6">
	<g class="st7">
		<g>
			<path class="st5" d="M159.4,8.5v19h-3.3V12.2c-0.6,0.4-1.2,0.7-1.9,1s-1.5,0.5-2.4,0.7v-2.6c0.6-0.2,1.1-0.3,1.6-0.5
				s1-0.4,1.5-0.6c0.5-0.2,1-0.5,1.5-0.8s1-0.6,1.6-0.9C158,8.5,159.4,8.5,159.4,8.5z"/>
			<path class="st5" d="M170.6,27.8c-2.1,0-3.8-0.8-5-2.4s-1.8-3.9-1.8-6.8c0-3.3,0.6-5.8,1.9-7.4c1.3-1.7,3.1-2.5,5.4-2.5
				c4.5,0,6.8,3.2,6.8,9.5c0,3.1-0.6,5.5-1.9,7.2C174.6,27,172.9,27.8,170.6,27.8z M170.9,11c-2.5,0-3.7,2.5-3.7,7.4
				c0,4.6,1.2,7,3.7,7c2.4,0,3.6-2.4,3.6-7.1C174.4,13.5,173.2,11,170.9,11z"/>
			<path class="st5" d="M187.1,27.8c-2.1,0-3.8-0.8-5-2.4s-1.8-3.9-1.8-6.8c0-3.3,0.6-5.8,1.9-7.4c1.3-1.7,3.1-2.5,5.4-2.5
				c4.5,0,6.8,3.2,6.8,9.5c0,3.1-0.6,5.5-1.9,7.2C191.2,27,189.4,27.8,187.1,27.8z M187.4,11c-2.5,0-3.7,2.5-3.7,7.4
				c0,4.6,1.2,7,3.7,7c2.4,0,3.6-2.4,3.6-7.1C190.9,13.5,189.8,11,187.4,11z"/>
			<path class="st5" d="M204.5,8.5v19h-3.3V12.2c-0.6,0.4-1.2,0.7-1.9,1s-1.5,0.5-2.4,0.7v-2.6c0.6-0.2,1.1-0.3,1.6-0.5
				s1-0.4,1.5-0.6c0.5-0.2,1-0.5,1.5-0.8s1-0.6,1.6-0.9C203.1,8.5,204.5,8.5,204.5,8.5z"/>
			<path class="st5" d="M216.5,8.5v19h-3.3V12.2c-0.6,0.4-1.2,0.7-1.9,1s-1.5,0.5-2.4,0.7v-2.6c0.6-0.2,1.1-0.3,1.6-0.5
				s1-0.4,1.5-0.6c0.5-0.2,1-0.5,1.5-0.8s1-0.6,1.6-0.9C215.1,8.5,216.5,8.5,216.5,8.5z"/>
			<path class="st5" d="M227.7,27.8c-2.1,0-3.8-0.8-5-2.4s-1.8-3.9-1.8-6.8c0-3.3,0.6-5.8,1.9-7.4c1.3-1.7,3.1-2.5,5.4-2.5
				c4.5,0,6.8,3.2,6.8,9.5c0,3.1-0.6,5.5-1.9,7.2C231.7,27,229.9,27.8,227.7,27.8z M228,11c-2.5,0-3.7,2.5-3.7,7.4
				c0,4.6,1.2,7,3.7,7c2.4,0,3.6-2.4,3.6-7.1C231.5,13.5,230.3,11,228,11z"/>
			<path class="st5" d="M244.2,27.8c-2.1,0-3.8-0.8-5-2.4s-1.8-3.9-1.8-6.8c0-3.3,0.6-5.8,1.9-7.4c1.3-1.7,3.1-2.5,5.4-2.5
				c4.5,0,6.8,3.2,6.8,9.5c0,3.1-0.6,5.5-1.9,7.2C248.2,27,246.5,27.8,244.2,27.8z M244.5,11c-2.5,0-3.7,2.5-3.7,7.4
				c0,4.6,1.2,7,3.7,7c2.4,0,3.6-2.4,3.6-7.1C248,13.5,246.9,11,244.5,11z"/>
			<path class="st5" d="M261.6,8.5v19h-3.3V12.2c-0.6,0.4-1.2,0.7-1.9,1c-0.7,0.3-1.5,0.5-2.4,0.7v-2.6c0.6-0.2,1.1-0.3,1.6-0.5
				s1-0.4,1.5-0.6c0.5-0.2,1-0.5,1.5-0.8s1-0.6,1.6-0.9C260.2,8.5,261.6,8.5,261.6,8.5z"/>
			<path class="st5" d="M272.7,27.8c-2.1,0-3.8-0.8-5-2.4s-1.8-3.9-1.8-6.8c0-3.3,0.6-5.8,1.9-7.4c1.3-1.7,3.1-2.5,5.4-2.5
				c4.5,0,6.8,3.2,6.8,9.5c0,3.1-0.6,5.5-1.9,7.2C276.8,27,275,27.8,272.7,27.8z M273,11c-2.5,0-3.7,2.5-3.7,7.4c0,4.6,1.2,7,3.7,7
				c2.4,0,3.6-2.4,3.6-7.1C276.6,13.5,275.4,11,273,11z"/>
			<path class="st5" d="M290.1,8.5v19h-3.3V12.2c-0.6,0.4-1.2,0.7-1.9,1c-0.7,0.3-1.5,0.5-2.4,0.7v-2.6c0.6-0.2,1.1-0.3,1.6-0.5
				s1-0.4,1.5-0.6c0.5-0.2,1-0.5,1.5-0.8s1-0.6,1.6-0.9C288.7,8.5,290.1,8.5,290.1,8.5z"/>
			<path class="st5" d="M301.3,27.8c-2.1,0-3.8-0.8-5-2.4s-1.8-3.9-1.8-6.8c0-3.3,0.6-5.8,1.9-7.4c1.3-1.7,3.1-2.5,5.4-2.5
				c4.5,0,6.8,3.2,6.8,9.5c0,3.1-0.6,5.5-1.9,7.2C305.3,27,303.6,27.8,301.3,27.8z M301.6,11c-2.5,0-3.7,2.5-3.7,7.4
				c0,4.6,1.2,7,3.7,7c2.4,0,3.6-2.4,3.6-7.1C305.1,13.5,304,11,301.6,11z"/>
			<path class="st5" d="M317.8,27.8c-2.1,0-3.8-0.8-5-2.4s-1.8-3.9-1.8-6.8c0-3.3,0.6-5.8,1.9-7.4c1.3-1.7,3.1-2.5,5.4-2.5
				c4.5,0,6.8,3.2,6.8,9.5c0,3.1-0.6,5.5-1.9,7.2C321.9,27,320.1,27.8,317.8,27.8z M318.1,11c-2.5,0-3.7,2.5-3.7,7.4
				c0,4.6,1.2,7,3.7,7c2.4,0,3.6-2.4,3.6-7.1C321.6,13.5,320.5,11,318.1,11z"/>
			<path class="st5" d="M334.3,27.8c-2.1,0-3.8-0.8-5-2.4s-1.8-3.9-1.8-6.8c0-3.3,0.6-5.8,1.9-7.4c1.3-1.7,3.1-2.5,5.4-2.5
				c4.5,0,6.8,3.2,6.8,9.5c0,3.1-0.6,5.5-1.9,7.2C338.4,27,336.6,27.8,334.3,27.8z M334.6,11c-2.5,0-3.7,2.5-3.7,7.4
				c0,4.6,1.2,7,3.7,7c2.4,0,3.6-2.4,3.6-7.1C338.2,13.5,337,11,334.6,11z"/>
			<path class="st5" d="M350.8,27.8c-2.1,0-3.8-0.8-5-2.4s-1.8-3.9-1.8-6.8c0-3.3,0.6-5.8,1.9-7.4c1.3-1.7,3.1-2.5,5.4-2.5
				c4.5,0,6.8,3.2,6.8,9.5c0,3.1-0.6,5.5-1.9,7.2C354.9,27,353.1,27.8,350.8,27.8z M351.1,11c-2.5,0-3.7,2.5-3.7,7.4
				c0,4.6,1.2,7,3.7,7c2.4,0,3.6-2.4,3.6-7.1C354.7,13.5,353.5,11,351.1,11z"/>
			<path class="st5" d="M368.2,8.5v19h-3.3V12.2c-0.6,0.4-1.2,0.7-1.9,1c-0.7,0.3-1.5,0.5-2.4,0.7v-2.6c0.6-0.2,1.1-0.3,1.6-0.5
				s1-0.4,1.5-0.6c0.5-0.2,1-0.5,1.5-0.8s1-0.6,1.6-0.9C366.8,8.5,368.2,8.5,368.2,8.5z"/>
			<path class="st5" d="M379.4,27.8c-2.1,0-3.8-0.8-5-2.4s-1.8-3.9-1.8-6.8c0-3.3,0.6-5.8,1.9-7.4c1.3-1.7,3.1-2.5,5.4-2.5
				c4.5,0,6.8,3.2,6.8,9.5c0,3.1-0.6,5.5-1.9,7.2C383.4,27,381.7,27.8,379.4,27.8z M379.7,11c-2.5,0-3.7,2.5-3.7,7.4
				c0,4.6,1.2,7,3.7,7c2.4,0,3.6-2.4,3.6-7.1C383.2,13.5,382,11,379.7,11z"/>
			<path class="st5" d="M159.4,35v19h-3.3V38.7c-0.6,0.4-1.2,0.7-1.9,1s-1.5,0.5-2.4,0.7v-2.6c0.6-0.2,1.1-0.3,1.6-0.5
				s1-0.4,1.5-0.6c0.5-0.2,1-0.5,1.5-0.8s1-0.6,1.6-0.9C158,35,159.4,35,159.4,35z"/>
			<path class="st5" d="M170.9,54.3c-2.1,0-3.8-0.8-5-2.4c-1.2-1.6-1.8-3.9-1.8-6.8c0-3.3,0.6-5.8,1.9-7.4c1.3-1.7,3.1-2.5,5.4-2.5
				c4.5,0,6.8,3.2,6.8,9.5c0,3.1-0.6,5.5-1.9,7.2C174.9,53.5,173.2,54.3,170.9,54.3z M171.2,37.5c-2.5,0-3.7,2.5-3.7,7.4
				c0,4.6,1.2,7,3.7,7c2.4,0,3.6-2.4,3.6-7.1C174.7,40,173.5,37.5,171.2,37.5z"/>
			<path class="st5" d="M188.6,35v19h-3.3V38.7c-0.6,0.4-1.2,0.7-1.9,1s-1.5,0.5-2.4,0.7v-2.6c0.6-0.2,1.1-0.3,1.6-0.5
				s1-0.4,1.5-0.6c0.5-0.2,1-0.5,1.5-0.8s1-0.6,1.6-0.9C187.2,35,188.6,35,188.6,35z"/>
			<path class="st5" d="M200,54.3c-2.1,0-3.8-0.8-5-2.4c-1.2-1.6-1.8-3.9-1.8-6.8c0-3.3,0.6-5.8,1.9-7.4c1.3-1.7,3.1-2.5,5.4-2.5
				c4.5,0,6.8,3.2,6.8,9.5c0,3.1-0.6,5.5-1.9,7.2C204.1,53.5,202.3,54.3,200,54.3z M200.3,37.5c-2.5,0-3.7,2.5-3.7,7.4
				c0,4.6,1.2,7,3.7,7c2.4,0,3.6-2.4,3.6-7.1C203.9,40,202.7,37.5,200.3,37.5z"/>
			<path class="st5" d="M216.8,54.3c-2.1,0-3.8-0.8-5-2.4c-1.2-1.6-1.8-3.9-1.8-6.8c0-3.3,0.6-5.8,1.9-7.4c1.3-1.7,3.1-2.5,5.4-2.5
				c4.5,0,6.8,3.2,6.8,9.5c0,3.1-0.6,5.5-1.9,7.2C220.9,53.5,219.1,54.3,216.8,54.3z M217.1,37.5c-2.5,0-3.7,2.5-3.7,7.4
				c0,4.6,1.2,7,3.7,7c2.4,0,3.6-2.4,3.6-7.1C220.7,40,219.5,37.5,217.1,37.5z"/>
			<path class="st5" d="M233.6,54.3c-2.1,0-3.8-0.8-5-2.4c-1.2-1.6-1.8-3.9-1.8-6.8c0-3.3,0.6-5.8,1.9-7.4c1.3-1.7,3.1-2.5,5.4-2.5
				c4.5,0,6.8,3.2,6.8,9.5c0,3.1-0.6,5.5-1.9,7.2C237.7,53.5,235.9,54.3,233.6,54.3z M234,37.5c-2.5,0-3.7,2.5-3.7,7.4
				c0,4.6,1.2,7,3.7,7c2.4,0,3.6-2.4,3.6-7.1C237.5,40,236.3,37.5,234,37.5z"/>
			<path class="st5" d="M251.3,35v19H248V38.7c-0.6,0.4-1.2,0.7-1.9,1s-1.5,0.5-2.4,0.7v-2.6c0.6-0.2,1.1-0.3,1.6-0.5s1-0.4,1.5-0.6
				c0.5-0.2,1-0.5,1.5-0.8s1-0.6,1.6-0.9C249.9,35,251.3,35,251.3,35z"/>
			<path class="st5" d="M262.8,54.3c-2.1,0-3.8-0.8-5-2.4c-1.2-1.6-1.8-3.9-1.8-6.8c0-3.3,0.6-5.8,1.9-7.4c1.3-1.7,3.1-2.5,5.4-2.5
				c4.5,0,6.8,3.2,6.8,9.5c0,3.1-0.6,5.5-1.9,7.2C266.9,53.5,265.1,54.3,262.8,54.3z M263.1,37.5c-2.5,0-3.7,2.5-3.7,7.4
				c0,4.6,1.2,7,3.7,7c2.4,0,3.6-2.4,3.6-7.1C266.6,40,265.5,37.5,263.1,37.5z"/>
			<path class="st5" d="M279.6,54.3c-2.1,0-3.8-0.8-5-2.4c-1.2-1.6-1.8-3.9-1.8-6.8c0-3.3,0.6-5.8,1.9-7.4c1.3-1.7,3.1-2.5,5.4-2.5
				c4.5,0,6.8,3.2,6.8,9.5c0,3.1-0.6,5.5-1.9,7.2C283.7,53.5,281.9,54.3,279.6,54.3z M279.9,37.5c-2.5,0-3.7,2.5-3.7,7.4
				c0,4.6,1.2,7,3.7,7c2.4,0,3.6-2.4,3.6-7.1C283.5,40,282.3,37.5,279.9,37.5z"/>
			<path class="st5" d="M297.3,35v19H294V38.7c-0.6,0.4-1.2,0.7-1.9,1c-0.7,0.3-1.5,0.5-2.4,0.7v-2.6c0.6-0.2,1.1-0.3,1.6-0.5
				s1-0.4,1.5-0.6c0.5-0.2,1-0.5,1.5-0.8s1-0.6,1.6-0.9C295.9,35,297.3,35,297.3,35z"/>
			<path class="st5" d="M308.7,54.3c-2.1,0-3.8-0.8-5-2.4c-1.2-1.6-1.8-3.9-1.8-6.8c0-3.3,0.6-5.8,1.9-7.4c1.3-1.7,3.1-2.5,5.4-2.5
				c4.5,0,6.8,3.2,6.8,9.5c0,3.1-0.6,5.5-1.9,7.2C312.8,53.5,311,54.3,308.7,54.3z M309.1,37.5c-2.5,0-3.7,2.5-3.7,7.4
				c0,4.6,1.2,7,3.7,7c2.4,0,3.6-2.4,3.6-7.1C312.6,40,311.4,37.5,309.1,37.5z"/>
			<path class="st5" d="M325.6,54.3c-2.1,0-3.8-0.8-5-2.4c-1.2-1.6-1.8-3.9-1.8-6.8c0-3.3,0.6-5.8,1.9-7.4c1.3-1.7,3.1-2.5,5.4-2.5
				c4.5,0,6.8,3.2,6.8,9.5c0,3.1-0.6,5.5-1.9,7.2C329.6,53.5,327.8,54.3,325.6,54.3z M325.9,37.5c-2.5,0-3.7,2.5-3.7,7.4
				c0,4.6,1.2,7,3.7,7c2.4,0,3.6-2.4,3.6-7.1C329.4,40,328.2,37.5,325.9,37.5z"/>
			<path class="st5" d="M343.3,35v19H340V38.7c-0.6,0.4-1.2,0.7-1.9,1c-0.7,0.3-1.5,0.5-2.4,0.7v-2.6c0.6-0.2,1.1-0.3,1.6-0.5
				s1-0.4,1.5-0.6c0.5-0.2,1-0.5,1.5-0.8s1-0.6,1.6-0.9C341.9,35,343.3,35,343.3,35z"/>
			<path class="st5" d="M355.6,35v19h-3.3V38.7c-0.6,0.4-1.2,0.7-1.9,1c-0.7,0.3-1.5,0.5-2.4,0.7v-2.6c0.6-0.2,1.1-0.3,1.6-0.5
				s1-0.4,1.5-0.6c0.5-0.2,1-0.5,1.5-0.8s1-0.6,1.6-0.9C354.2,35,355.6,35,355.6,35z"/>
			<path class="st5" d="M367.9,35v19h-3.3V38.7c-0.6,0.4-1.2,0.7-1.9,1c-0.7,0.3-1.5,0.5-2.4,0.7v-2.6c0.6-0.2,1.1-0.3,1.6-0.5
				s1-0.4,1.5-0.6c0.5-0.2,1-0.5,1.5-0.8s1-0.6,1.6-0.9C366.5,35,367.9,35,367.9,35z"/>
			<path class="st5" d="M379.4,54.3c-2.1,0-3.8-0.8-5-2.4c-1.2-1.6-1.8-3.9-1.8-6.8c0-3.3,0.6-5.8,1.9-7.4c1.3-1.7,3.1-2.5,5.4-2.5
				c4.5,0,6.8,3.2,6.8,9.5c0,3.1-0.6,5.5-1.9,7.2C383.4,53.5,381.7,54.3,379.4,54.3z M379.7,37.5c-2.5,0-3.7,2.5-3.7,7.4
				c0,4.6,1.2,7,3.7,7c2.4,0,3.6-2.4,3.6-7.1C383.2,40,382,37.5,379.7,37.5z"/>
			<path class="st5" d="M158.5,80.8c-2.1,0-3.8-0.8-5-2.4s-1.8-3.9-1.8-6.8c0-3.3,0.6-5.8,1.9-7.4c1.3-1.7,3.1-2.5,5.4-2.5
				c4.5,0,6.8,3.2,6.8,9.5c0,3.1-0.6,5.5-1.9,7.2C162.6,80,160.8,80.8,158.5,80.8z M158.9,64.1c-2.5,0-3.7,2.5-3.7,7.4
				c0,4.6,1.2,7,3.7,7c2.4,0,3.6-2.4,3.6-7.1C162.4,66.5,161.2,64.1,158.9,64.1z"/>
			<path class="st5" d="M176,61.6v19h-3.3V65.2c-0.6,0.4-1.2,0.7-1.9,1s-1.5,0.5-2.4,0.7v-2.6c0.6-0.2,1.1-0.3,1.6-0.5
				s1-0.4,1.5-0.6c0.5-0.2,1-0.5,1.5-0.8s1-0.6,1.6-0.9h1.4V61.6z"/>
			<path class="st5" d="M187.3,80.8c-2.1,0-3.8-0.8-5-2.4s-1.8-3.9-1.8-6.8c0-3.3,0.6-5.8,1.9-7.4c1.3-1.7,3.1-2.5,5.4-2.5
				c4.5,0,6.8,3.2,6.8,9.5c0,3.1-0.6,5.5-1.9,7.2C191.3,80,189.5,80.8,187.3,80.8z M187.6,64.1c-2.5,0-3.7,2.5-3.7,7.4
				c0,4.6,1.2,7,3.7,7c2.4,0,3.6-2.4,3.6-7.1C191.1,66.5,189.9,64.1,187.6,64.1z"/>
			<path class="st5" d="M204.7,61.6v19h-3.3V65.2c-0.6,0.4-1.2,0.7-1.9,1s-1.5,0.5-2.4,0.7v-2.6c0.6-0.2,1.1-0.3,1.6-0.5
				s1-0.4,1.5-0.6c0.5-0.2,1-0.5,1.5-0.8s1-0.6,1.6-0.9h1.4V61.6z"/>
			<path class="st5" d="M216.9,61.6v19h-3.3V65.2c-0.6,0.4-1.2,0.7-1.9,1s-1.5,0.5-2.4,0.7v-2.6c0.6-0.2,1.1-0.3,1.6-0.5
				s1-0.4,1.5-0.6c0.5-0.2,1-0.5,1.5-0.8s1-0.6,1.6-0.9h1.4V61.6z"/>
			<path class="st5" d="M229,61.6v19h-3.3V65.2c-0.6,0.4-1.2,0.7-1.9,1s-1.5,0.5-2.4,0.7v-2.6c0.6-0.2,1.1-0.3,1.6-0.5
				s1-0.4,1.5-0.6c0.5-0.2,1-0.5,1.5-0.8s1-0.6,1.6-0.9h1.4V61.6z"/>
			<path class="st5" d="M240.2,80.8c-2.1,0-3.8-0.8-5-2.4s-1.8-3.9-1.8-6.8c0-3.3,0.6-5.8,1.9-7.4c1.3-1.7,3.1-2.5,5.4-2.5
				c4.5,0,6.8,3.2,6.8,9.5c0,3.1-0.6,5.5-1.9,7.2C244.3,80,242.5,80.8,240.2,80.8z M240.5,64.1c-2.5,0-3.7,2.5-3.7,7.4
				c0,4.6,1.2,7,3.7,7c2.4,0,3.6-2.4,3.6-7.1C244.1,66.5,242.9,64.1,240.5,64.1z"/>
			<path class="st5" d="M256.8,80.8c-2.1,0-3.8-0.8-5-2.4s-1.8-3.9-1.8-6.8c0-3.3,0.6-5.8,1.9-7.4c1.3-1.7,3.1-2.5,5.4-2.5
				c4.5,0,6.8,3.2,6.8,9.5c0,3.1-0.6,5.5-1.9,7.2C260.9,80,259.1,80.8,256.8,80.8z M257.2,64.1c-2.5,0-3.7,2.5-3.7,7.4
				c0,4.6,1.2,7,3.7,7c2.4,0,3.6-2.4,3.6-7.1C260.7,66.5,259.5,64.1,257.2,64.1z"/>
			<path class="st5" d="M274.3,61.6v19H271V65.2c-0.6,0.4-1.2,0.7-1.9,1c-0.7,0.3-1.5,0.5-2.4,0.7v-2.6c0.6-0.2,1.1-0.3,1.6-0.5
				s1-0.4,1.5-0.6c0.5-0.2,1-0.5,1.5-0.8s1-0.6,1.6-0.9h1.4V61.6z"/>
			<path class="st5" d="M286.4,61.6v19h-3.3V65.2c-0.6,0.4-1.2,0.7-1.9,1c-0.7,0.3-1.5,0.5-2.4,0.7v-2.6c0.6-0.2,1.1-0.3,1.6-0.5
				s1-0.4,1.5-0.6c0.5-0.2,1-0.5,1.5-0.8s1-0.6,1.6-0.9h1.4V61.6z"/>
			<path class="st5" d="M297.7,80.8c-2.1,0-3.8-0.8-5-2.4s-1.8-3.9-1.8-6.8c0-3.3,0.6-5.8,1.9-7.4c1.3-1.7,3.1-2.5,5.4-2.5
				c4.5,0,6.8,3.2,6.8,9.5c0,3.1-0.6,5.5-1.9,7.2C301.7,80,300,80.8,297.7,80.8z M298,64.1c-2.5,0-3.7,2.5-3.7,7.4
				c0,4.6,1.2,7,3.7,7c2.4,0,3.6-2.4,3.6-7.1C301.5,66.5,300.4,64.1,298,64.1z"/>
			<path class="st5" d="M314.3,80.8c-2.1,0-3.8-0.8-5-2.4s-1.8-3.9-1.8-6.8c0-3.3,0.6-5.8,1.9-7.4c1.3-1.7,3.1-2.5,5.4-2.5
				c4.5,0,6.8,3.2,6.8,9.5c0,3.1-0.6,5.5-1.9,7.2C318.3,80,316.6,80.8,314.3,80.8z M314.6,64.1c-2.5,0-3.7,2.5-3.7,7.4
				c0,4.6,1.2,7,3.7,7c2.4,0,3.6-2.4,3.6-7.1C318.1,66.5,317,64.1,314.6,64.1z"/>
			<path class="st5" d="M331.8,61.6v19h-3.3V65.2c-0.6,0.4-1.2,0.7-1.9,1c-0.7,0.3-1.5,0.5-2.4,0.7v-2.6c0.6-0.2,1.1-0.3,1.6-0.5
				s1-0.4,1.5-0.6c0.5-0.2,1-0.5,1.5-0.8s1-0.6,1.6-0.9h1.4V61.6z"/>
			<path class="st5" d="M343.9,61.6v19h-3.3V65.2c-0.6,0.4-1.2,0.7-1.9,1c-0.7,0.3-1.5,0.5-2.4,0.7v-2.6c0.6-0.2,1.1-0.3,1.6-0.5
				s1-0.4,1.5-0.6c0.5-0.2,1-0.5,1.5-0.8s1-0.6,1.6-0.9h1.4V61.6z"/>
			<path class="st5" d="M356,61.6v19h-3.3V65.2c-0.6,0.4-1.2,0.7-1.9,1c-0.7,0.3-1.5,0.5-2.4,0.7v-2.6c0.6-0.2,1.1-0.3,1.6-0.5
				s1-0.4,1.5-0.6c0.5-0.2,1-0.5,1.5-0.8s1-0.6,1.6-0.9h1.4V61.6z"/>
			<path class="st5" d="M367.2,80.8c-2.1,0-3.8-0.8-5-2.4s-1.8-3.9-1.8-6.8c0-3.3,0.6-5.8,1.9-7.4c1.3-1.7,3.1-2.5,5.4-2.5
				c4.5,0,6.8,3.2,6.8,9.5c0,3.1-0.6,5.5-1.9,7.2C371.3,80,369.5,80.8,367.2,80.8z M367.6,64.1c-2.5,0-3.7,2.5-3.7,7.4
				c0,4.6,1.2,7,3.7,7c2.4,0,3.6-2.4,3.6-7.1C371.1,66.5,369.9,64.1,367.6,64.1z"/>
			<path class="st5" d="M384.7,61.6v19h-3.3V65.2c-0.6,0.4-1.2,0.7-1.9,1c-0.7,0.3-1.5,0.5-2.4,0.7v-2.6c0.6-0.2,1.1-0.3,1.6-0.5
				s1-0.4,1.5-0.6c0.5-0.2,1-0.5,1.5-0.8s1-0.6,1.6-0.9h1.4V61.6z"/>
			<path class="st5" d="M158.5,107.4c-2.1,0-3.8-0.8-5-2.4s-1.8-3.9-1.8-6.8c0-3.3,0.6-5.8,1.9-7.4c1.3-1.7,3.1-2.5,5.4-2.5
				c4.5,0,6.8,3.2,6.8,9.5c0,3.1-0.6,5.5-1.9,7.2C162.6,106.5,160.8,107.4,158.5,107.4z M158.9,90.6c-2.5,0-3.7,2.5-3.7,7.4
				c0,4.6,1.2,7,3.7,7c2.4,0,3.6-2.4,3.6-7.1C162.4,93,161.2,90.6,158.9,90.6z"/>
			<path class="st5" d="M176.8,88.1v19h-3.3V91.7c-0.6,0.4-1.2,0.7-1.9,1s-1.5,0.5-2.4,0.7v-2.6c0.6-0.2,1.1-0.3,1.6-0.5
				s1-0.4,1.5-0.6s1-0.5,1.5-0.8s1-0.6,1.6-0.9h1.4V88.1z"/>
			<path class="st5" d="M188.8,107.4c-2.1,0-3.8-0.8-5-2.4s-1.8-3.9-1.8-6.8c0-3.3,0.6-5.8,1.9-7.4c1.3-1.7,3.1-2.5,5.4-2.5
				c4.5,0,6.8,3.2,6.8,9.5c0,3.1-0.6,5.5-1.9,7.2C192.9,106.5,191.1,107.4,188.8,107.4z M189.1,90.6c-2.5,0-3.7,2.5-3.7,7.4
				c0,4.6,1.2,7,3.7,7c2.4,0,3.6-2.4,3.6-7.1C192.7,93,191.5,90.6,189.1,90.6z"/>
			<path class="st5" d="M206.2,107.4c-2.1,0-3.8-0.8-5-2.4s-1.8-3.9-1.8-6.8c0-3.3,0.6-5.8,1.9-7.4c1.3-1.7,3.1-2.5,5.4-2.5
				c4.5,0,6.8,3.2,6.8,9.5c0,3.1-0.6,5.5-1.9,7.2C210.2,106.5,208.5,107.4,206.2,107.4z M206.5,90.6c-2.5,0-3.7,2.5-3.7,7.4
				c0,4.6,1.2,7,3.7,7c2.4,0,3.6-2.4,3.6-7.1C210,93,208.9,90.6,206.5,90.6z"/>
			<path class="st5" d="M224.4,88.1v19h-3.3V91.7c-0.6,0.4-1.2,0.7-1.9,1s-1.5,0.5-2.4,0.7v-2.6c0.6-0.2,1.1-0.3,1.6-0.5
				s1-0.4,1.5-0.6s1-0.5,1.5-0.8s1-0.6,1.6-0.9h1.4V88.1z"/>
			<path class="st5" d="M237.3,88.1v19H234V91.7c-0.6,0.4-1.2,0.7-1.9,1s-1.5,0.5-2.4,0.7v-2.6c0.6-0.2,1.1-0.3,1.6-0.5
				s1-0.4,1.5-0.6s1-0.5,1.5-0.8s1-0.6,1.6-0.9h1.4V88.1z"/>
			<path class="st5" d="M249.3,107.4c-2.1,0-3.8-0.8-5-2.4s-1.8-3.9-1.8-6.8c0-3.3,0.6-5.8,1.9-7.4c1.3-1.7,3.1-2.5,5.4-2.5
				c4.5,0,6.8,3.2,6.8,9.5c0,3.1-0.6,5.5-1.9,7.2C253.4,106.5,251.6,107.4,249.3,107.4z M249.7,90.6c-2.5,0-3.7,2.5-3.7,7.4
				c0,4.6,1.2,7,3.7,7c2.4,0,3.6-2.4,3.6-7.1C253.2,93,252,90.6,249.7,90.6z"/>
			<path class="st5" d="M266.7,107.4c-2.1,0-3.8-0.8-5-2.4s-1.8-3.9-1.8-6.8c0-3.3,0.6-5.8,1.9-7.4c1.3-1.7,3.1-2.5,5.4-2.5
				c4.5,0,6.8,3.2,6.8,9.5c0,3.1-0.6,5.5-1.9,7.2C270.8,106.5,269,107.4,266.7,107.4z M267,90.6c-2.5,0-3.7,2.5-3.7,7.4
				c0,4.6,1.2,7,3.7,7c2.4,0,3.6-2.4,3.6-7.1C270.6,93,269.4,90.6,267,90.6z"/>
			<path class="st5" d="M285,88.1v19h-3.3V91.7c-0.6,0.4-1.2,0.7-1.9,1c-0.7,0.3-1.5,0.5-2.4,0.7v-2.6c0.6-0.2,1.1-0.3,1.6-0.5
				s1-0.4,1.5-0.6s1-0.5,1.5-0.8s1-0.6,1.6-0.9h1.4V88.1z"/>
			<path class="st5" d="M297,107.4c-2.1,0-3.8-0.8-5-2.4s-1.8-3.9-1.8-6.8c0-3.3,0.6-5.8,1.9-7.4c1.3-1.7,3.1-2.5,5.4-2.5
				c4.5,0,6.8,3.2,6.8,9.5c0,3.1-0.6,5.5-1.9,7.2C301,106.5,299.3,107.4,297,107.4z M297.3,90.6c-2.5,0-3.7,2.5-3.7,7.4
				c0,4.6,1.2,7,3.7,7c2.4,0,3.6-2.4,3.6-7.1C300.8,93,299.7,90.6,297.3,90.6z"/>
			<path class="st5" d="M315.2,88.1v19h-3.3V91.7c-0.6,0.4-1.2,0.7-1.9,1c-0.7,0.3-1.5,0.5-2.4,0.7v-2.6c0.6-0.2,1.1-0.3,1.6-0.5
				s1-0.4,1.5-0.6s1-0.5,1.5-0.8s1-0.6,1.6-0.9h1.4V88.1z"/>
			<path class="st5" d="M327.2,107.4c-2.1,0-3.8-0.8-5-2.4s-1.8-3.9-1.8-6.8c0-3.3,0.6-5.8,1.9-7.4c1.3-1.7,3.1-2.5,5.4-2.5
				c4.5,0,6.8,3.2,6.8,9.5c0,3.1-0.6,5.5-1.9,7.2C331.3,106.5,329.5,107.4,327.2,107.4z M327.6,90.6c-2.5,0-3.7,2.5-3.7,7.4
				c0,4.6,1.2,7,3.7,7c2.4,0,3.6-2.4,3.6-7.1C331.1,93,329.9,90.6,327.6,90.6z"/>
			<path class="st5" d="M344.6,107.4c-2.1,0-3.8-0.8-5-2.4s-1.8-3.9-1.8-6.8c0-3.3,0.6-5.8,1.9-7.4c1.3-1.7,3.1-2.5,5.4-2.5
				c4.5,0,6.8,3.2,6.8,9.5c0,3.1-0.6,5.5-1.9,7.2C348.7,106.5,346.9,107.4,344.6,107.4z M344.9,90.6c-2.5,0-3.7,2.5-3.7,7.4
				c0,4.6,1.2,7,3.7,7c2.4,0,3.6-2.4,3.6-7.1C348.5,93,347.3,90.6,344.9,90.6z"/>
			<path class="st5" d="M362,107.4c-2.1,0-3.8-0.8-5-2.4s-1.8-3.9-1.8-6.8c0-3.3,0.6-5.8,1.9-7.4c1.3-1.7,3.1-2.5,5.4-2.5
				c4.5,0,6.8,3.2,6.8,9.5c0,3.1-0.6,5.5-1.9,7.2C366.1,106.5,364.3,107.4,362,107.4z M362.3,90.6c-2.5,0-3.7,2.5-3.7,7.4
				c0,4.6,1.2,7,3.7,7c2.4,0,3.6-2.4,3.6-7.1C365.9,93,364.7,90.6,362.3,90.6z"/>
			<path class="st5" d="M379.4,107.4c-2.1,0-3.8-0.8-5-2.4s-1.8-3.9-1.8-6.8c0-3.3,0.6-5.8,1.9-7.4c1.3-1.7,3.1-2.5,5.4-2.5
				c4.5,0,6.8,3.2,6.8,9.5c0,3.1-0.6,5.5-1.9,7.2C383.4,106.5,381.7,107.4,379.4,107.4z M379.7,90.6c-2.5,0-3.7,2.5-3.7,7.4
				c0,4.6,1.2,7,3.7,7c2.4,0,3.6-2.4,3.6-7.1C383.2,93,382,90.6,379.7,90.6z"/>
			<path class="st5" d="M158.5,133.9c-2.1,0-3.8-0.8-5-2.4c-1.2-1.6-1.8-3.9-1.8-6.8c0-3.3,0.6-5.8,1.9-7.4c1.3-1.7,3.1-2.5,5.4-2.5
				c4.5,0,6.8,3.2,6.8,9.5c0,3.1-0.6,5.5-1.9,7.2C162.6,133,160.8,133.9,158.5,133.9z M158.9,117.1c-2.5,0-3.7,2.5-3.7,7.4
				c0,4.6,1.2,7,3.7,7c2.4,0,3.6-2.4,3.6-7.1C162.4,119.5,161.2,117.1,158.9,117.1z"/>
			<path class="st5" d="M176,114.6v19h-3.3v-15.3c-0.6,0.4-1.2,0.7-1.9,1s-1.5,0.5-2.4,0.7v-2.6c0.6-0.2,1.1-0.3,1.6-0.5
				s1-0.4,1.5-0.6s1-0.5,1.5-0.8s1-0.6,1.6-0.9H176z"/>
			<path class="st5" d="M187.3,133.9c-2.1,0-3.8-0.8-5-2.4c-1.2-1.6-1.8-3.9-1.8-6.8c0-3.3,0.6-5.8,1.9-7.4c1.3-1.7,3.1-2.5,5.4-2.5
				c4.5,0,6.8,3.2,6.8,9.5c0,3.1-0.6,5.5-1.9,7.2C191.3,133,189.5,133.9,187.3,133.9z M187.6,117.1c-2.5,0-3.7,2.5-3.7,7.4
				c0,4.6,1.2,7,3.7,7c2.4,0,3.6-2.4,3.6-7.1C191.1,119.5,189.9,117.1,187.6,117.1z"/>
			<path class="st5" d="M204.7,114.6v19h-3.3v-15.3c-0.6,0.4-1.2,0.7-1.9,1s-1.5,0.5-2.4,0.7v-2.6c0.6-0.2,1.1-0.3,1.6-0.5
				s1-0.4,1.5-0.6s1-0.5,1.5-0.8s1-0.6,1.6-0.9H204.7z"/>
			<path class="st5" d="M216.9,114.6v19h-3.3v-15.3c-0.6,0.4-1.2,0.7-1.9,1s-1.5,0.5-2.4,0.7v-2.6c0.6-0.2,1.1-0.3,1.6-0.5
				s1-0.4,1.5-0.6s1-0.5,1.5-0.8s1-0.6,1.6-0.9H216.9z"/>
			<path class="st5" d="M229,114.6v19h-3.3v-15.3c-0.6,0.4-1.2,0.7-1.9,1s-1.5,0.5-2.4,0.7v-2.6c0.6-0.2,1.1-0.3,1.6-0.5
				s1-0.4,1.5-0.6s1-0.5,1.5-0.8s1-0.6,1.6-0.9H229z"/>
			<path class="st5" d="M240.2,133.9c-2.1,0-3.8-0.8-5-2.4c-1.2-1.6-1.8-3.9-1.8-6.8c0-3.3,0.6-5.8,1.9-7.4c1.3-1.7,3.1-2.5,5.4-2.5
				c4.5,0,6.8,3.2,6.8,9.5c0,3.1-0.6,5.5-1.9,7.2C244.3,133,242.5,133.9,240.2,133.9z M240.5,117.1c-2.5,0-3.7,2.5-3.7,7.4
				c0,4.6,1.2,7,3.7,7c2.4,0,3.6-2.4,3.6-7.1C244.1,119.5,242.9,117.1,240.5,117.1z"/>
			<path class="st5" d="M256.8,133.9c-2.1,0-3.8-0.8-5-2.4c-1.2-1.6-1.8-3.9-1.8-6.8c0-3.3,0.6-5.8,1.9-7.4c1.3-1.7,3.1-2.5,5.4-2.5
				c4.5,0,6.8,3.2,6.8,9.5c0,3.1-0.6,5.5-1.9,7.2C260.9,133,259.1,133.9,256.8,133.9z M257.2,117.1c-2.5,0-3.7,2.5-3.7,7.4
				c0,4.6,1.2,7,3.7,7c2.4,0,3.6-2.4,3.6-7.1C260.7,119.5,259.5,117.1,257.2,117.1z"/>
			<path class="st5" d="M274.3,114.6v19H271v-15.3c-0.6,0.4-1.2,0.7-1.9,1c-0.7,0.3-1.5,0.5-2.4,0.7v-2.6c0.6-0.2,1.1-0.3,1.6-0.5
				s1-0.4,1.5-0.6s1-0.5,1.5-0.8s1-0.6,1.6-0.9H274.3z"/>
			<path class="st5" d="M286.4,114.6v19h-3.3v-15.3c-0.6,0.4-1.2,0.7-1.9,1c-0.7,0.3-1.5,0.5-2.4,0.7v-2.6c0.6-0.2,1.1-0.3,1.6-0.5
				s1-0.4,1.5-0.6s1-0.5,1.5-0.8s1-0.6,1.6-0.9H286.4z"/>
			<path class="st5" d="M297.7,133.9c-2.1,0-3.8-0.8-5-2.4c-1.2-1.6-1.8-3.9-1.8-6.8c0-3.3,0.6-5.8,1.9-7.4c1.3-1.7,3.1-2.5,5.4-2.5
				c4.5,0,6.8,3.2,6.8,9.5c0,3.1-0.6,5.5-1.9,7.2C301.7,133,300,133.9,297.7,133.9z M298,117.1c-2.5,0-3.7,2.5-3.7,7.4
				c0,4.6,1.2,7,3.7,7c2.4,0,3.6-2.4,3.6-7.1C301.5,119.5,300.4,117.1,298,117.1z"/>
			<path class="st5" d="M314.3,133.9c-2.1,0-3.8-0.8-5-2.4c-1.2-1.6-1.8-3.9-1.8-6.8c0-3.3,0.6-5.8,1.9-7.4c1.3-1.7,3.1-2.5,5.4-2.5
				c4.5,0,6.8,3.2,6.8,9.5c0,3.1-0.6,5.5-1.9,7.2C318.3,133,316.6,133.9,314.3,133.9z M314.6,117.1c-2.5,0-3.7,2.5-3.7,7.4
				c0,4.6,1.2,7,3.7,7c2.4,0,3.6-2.4,3.6-7.1C318.1,119.5,317,117.1,314.6,117.1z"/>
			<path class="st5" d="M331.8,114.6v19h-3.3v-15.3c-0.6,0.4-1.2,0.7-1.9,1c-0.7,0.3-1.5,0.5-2.4,0.7v-2.6c0.6-0.2,1.1-0.3,1.6-0.5
				s1-0.4,1.5-0.6s1-0.5,1.5-0.8s1-0.6,1.6-0.9H331.8z"/>
			<path class="st5" d="M343.9,114.6v19h-3.3v-15.3c-0.6,0.4-1.2,0.7-1.9,1c-0.7,0.3-1.5,0.5-2.4,0.7v-2.6c0.6-0.2,1.1-0.3,1.6-0.5
				s1-0.4,1.5-0.6s1-0.5,1.5-0.8s1-0.6,1.6-0.9H343.9z"/>
			<path class="st5" d="M356,114.6v19h-3.3v-15.3c-0.6,0.4-1.2,0.7-1.9,1c-0.7,0.3-1.5,0.5-2.4,0.7v-2.6c0.6-0.2,1.1-0.3,1.6-0.5
				s1-0.4,1.5-0.6s1-0.5,1.5-0.8s1-0.6,1.6-0.9H356z"/>
			<path class="st5" d="M367.2,133.9c-2.1,0-3.8-0.8-5-2.4c-1.2-1.6-1.8-3.9-1.8-6.8c0-3.3,0.6-5.8,1.9-7.4c1.3-1.7,3.1-2.5,5.4-2.5
				c4.5,0,6.8,3.2,6.8,9.5c0,3.1-0.6,5.5-1.9,7.2C371.3,133,369.5,133.9,367.2,133.9z M367.6,117.1c-2.5,0-3.7,2.5-3.7,7.4
				c0,4.6,1.2,7,3.7,7c2.4,0,3.6-2.4,3.6-7.1C371.1,119.5,369.9,117.1,367.6,117.1z"/>
			<path class="st5" d="M384.7,114.6v19h-3.3v-15.3c-0.6,0.4-1.2,0.7-1.9,1c-0.7,0.3-1.5,0.5-2.4,0.7v-2.6c0.6-0.2,1.1-0.3,1.6-0.5
				s1-0.4,1.5-0.6s1-0.5,1.5-0.8s1-0.6,1.6-0.9H384.7z"/>
		</g>
	</g>
	<g class="st8">
		<g>
			<path class="st5" d="M164.5,8.9v18.8h-3.2V12.5c-0.6,0.4-1.2,0.7-1.9,1s-1.4,0.5-2.3,0.7v-2.5c0.5-0.2,1-0.3,1.5-0.5
				s1-0.4,1.5-0.6c0.5-0.2,1-0.5,1.4-0.7c0.5-0.3,1-0.6,1.5-0.9h1.5V8.9z"/>
			<path class="st5" d="M175.1,27.9c-2,0-3.6-0.8-4.8-2.3c-1.1-1.6-1.7-3.8-1.7-6.8c0-3.2,0.6-5.7,1.8-7.4s2.9-2.5,5.2-2.5
				c4.3,0,6.5,3.1,6.5,9.4c0,3.1-0.6,5.5-1.8,7.1C179,27.1,177.3,27.9,175.1,27.9z M175.4,11.3c-2.4,0-3.6,2.5-3.6,7.4
				c0,4.6,1.2,6.9,3.5,6.9s3.4-2.3,3.4-7C178.8,13.8,177.7,11.3,175.4,11.3z"/>
			<path class="st5" d="M190.9,27.9c-2,0-3.6-0.8-4.8-2.3c-1.1-1.6-1.7-3.8-1.7-6.8c0-3.2,0.6-5.7,1.8-7.4s2.9-2.5,5.2-2.5
				c4.3,0,6.5,3.1,6.5,9.4c0,3.1-0.6,5.5-1.8,7.1C194.8,27.1,193.1,27.9,190.9,27.9z M191.2,11.3c-2.4,0-3.6,2.5-3.6,7.4
				c0,4.6,1.2,6.9,3.5,6.9s3.4-2.3,3.4-7C194.6,13.8,193.4,11.3,191.2,11.3z"/>
			<path class="st5" d="M207.5,8.9v18.8h-3.2V12.5c-0.6,0.4-1.2,0.7-1.9,1s-1.4,0.5-2.3,0.7v-2.5c0.5-0.2,1-0.3,1.5-0.5
				s1-0.4,1.5-0.6c0.5-0.2,1-0.5,1.4-0.7c0.5-0.3,1-0.6,1.5-0.9h1.5V8.9z"/>
			<path class="st5" d="M218.9,8.9v18.8h-3.2V12.5c-0.6,0.4-1.2,0.7-1.9,1s-1.4,0.5-2.3,0.7v-2.5c0.5-0.2,1-0.3,1.5-0.5
				s1-0.4,1.5-0.6c0.5-0.2,1-0.5,1.4-0.7c0.5-0.3,1-0.6,1.5-0.9h1.5V8.9z"/>
			<path class="st5" d="M229.6,27.9c-2,0-3.6-0.8-4.8-2.3c-1.1-1.6-1.7-3.8-1.7-6.8c0-3.2,0.6-5.7,1.8-7.4s2.9-2.5,5.2-2.5
				c4.3,0,6.5,3.1,6.5,9.4c0,3.1-0.6,5.5-1.8,7.1C233.5,27.1,231.8,27.9,229.6,27.9z M229.9,11.3c-2.4,0-3.6,2.5-3.6,7.4
				c0,4.6,1.2,6.9,3.5,6.9s3.4-2.3,3.4-7C233.3,13.8,232.1,11.3,229.9,11.3z"/>
			<path class="st5" d="M245.3,27.9c-2,0-3.6-0.8-4.8-2.3c-1.1-1.6-1.7-3.8-1.7-6.8c0-3.2,0.6-5.7,1.8-7.4s2.9-2.5,5.2-2.5
				c4.3,0,6.5,3.1,6.5,9.4c0,3.1-0.6,5.5-1.8,7.1C249.2,27.1,247.5,27.9,245.3,27.9z M245.6,11.3c-2.4,0-3.6,2.5-3.6,7.4
				c0,4.6,1.2,6.9,3.5,6.9s3.4-2.3,3.4-7C249,13.8,247.9,11.3,245.6,11.3z"/>
			<path class="st5" d="M261.9,8.9v18.8h-3.2V12.5c-0.6,0.4-1.2,0.7-1.9,1c-0.7,0.3-1.4,0.5-2.3,0.7v-2.5c0.5-0.2,1-0.3,1.5-0.5
				c0.5-0.2,1-0.4,1.5-0.6c0.5-0.2,1-0.5,1.4-0.7c0.5-0.3,1-0.6,1.5-0.9h1.5V8.9z"/>
			<path class="st5" d="M272.6,27.9c-2,0-3.6-0.8-4.8-2.3c-1.1-1.6-1.7-3.8-1.7-6.8c0-3.2,0.6-5.7,1.8-7.4c1.2-1.7,2.9-2.5,5.2-2.5
				c4.3,0,6.5,3.1,6.5,9.4c0,3.1-0.6,5.5-1.8,7.1C276.4,27.1,274.7,27.9,272.6,27.9z M272.9,11.3c-2.4,0-3.6,2.5-3.6,7.4
				c0,4.6,1.2,6.9,3.5,6.9s3.4-2.3,3.4-7C276.2,13.8,275.1,11.3,272.9,11.3z"/>
			<path class="st5" d="M289.2,8.9v18.8H286V12.5c-0.6,0.4-1.2,0.7-1.9,1c-0.7,0.3-1.4,0.5-2.3,0.7v-2.5c0.5-0.2,1-0.3,1.5-0.5
				s1-0.4,1.5-0.6c0.5-0.2,1-0.5,1.4-0.7c0.5-0.3,1-0.6,1.5-0.9h1.5V8.9z"/>
			<path class="st5" d="M299.8,27.9c-2,0-3.6-0.8-4.8-2.3c-1.1-1.6-1.7-3.8-1.7-6.8c0-3.2,0.6-5.7,1.8-7.4c1.2-1.7,2.9-2.5,5.2-2.5
				c4.3,0,6.5,3.1,6.5,9.4c0,3.1-0.6,5.5-1.8,7.1C303.7,27.1,302,27.9,299.8,27.9z M300.1,11.3c-2.4,0-3.6,2.5-3.6,7.4
				c0,4.6,1.2,6.9,3.5,6.9s3.4-2.3,3.4-7C303.5,13.8,302.3,11.3,300.1,11.3z"/>
			<path class="st5" d="M315.5,27.9c-2,0-3.6-0.8-4.8-2.3c-1.1-1.6-1.7-3.8-1.7-6.8c0-3.2,0.6-5.7,1.8-7.4c1.2-1.6,3-2.4,5.2-2.4
				c4.3,0,6.5,3.1,6.5,9.4c0,3.1-0.6,5.5-1.8,7.1C319.4,27.1,317.7,27.9,315.5,27.9z M315.9,11.3c-2.4,0-3.6,2.5-3.6,7.4
				c0,4.6,1.2,6.9,3.5,6.9s3.4-2.3,3.4-7C319.2,13.8,318.1,11.3,315.9,11.3z"/>
			<path class="st5" d="M331.3,27.9c-2,0-3.6-0.8-4.8-2.3c-1.1-1.6-1.7-3.8-1.7-6.8c0-3.2,0.6-5.7,1.8-7.4c1.2-1.7,2.9-2.5,5.2-2.5
				c4.3,0,6.5,3.1,6.5,9.4c0,3.1-0.6,5.5-1.8,7.1C335.2,27.1,333.5,27.9,331.3,27.9z M331.6,11.3c-2.4,0-3.6,2.5-3.6,7.4
				c0,4.6,1.2,6.9,3.5,6.9s3.4-2.3,3.4-7C335,13.8,333.9,11.3,331.6,11.3z"/>
			<path class="st5" d="M347,27.9c-2,0-3.6-0.8-4.8-2.3c-1.1-1.6-1.7-3.8-1.7-6.8c0-3.2,0.6-5.7,1.8-7.4c1.2-1.7,2.9-2.5,5.2-2.5
				c4.3,0,6.5,3.1,6.5,9.4c0,3.1-0.6,5.5-1.8,7.1C350.9,27.1,349.2,27.9,347,27.9z M347.4,11.3c-2.4,0-3.6,2.5-3.6,7.4
				c0,4.6,1.2,6.9,3.5,6.9s3.4-2.3,3.4-7C350.7,13.8,349.6,11.3,347.4,11.3z"/>
			<path class="st5" d="M363.6,8.9v18.8h-3.2V12.5c-0.6,0.4-1.2,0.7-1.9,1c-0.7,0.3-1.4,0.5-2.3,0.7v-2.5c0.5-0.2,1-0.3,1.5-0.5
				s1-0.4,1.5-0.6c0.5-0.2,1-0.5,1.4-0.7c0.5-0.3,1-0.6,1.5-0.9h1.5V8.9z"/>
			<path class="st5" d="M374.3,27.9c-2,0-3.6-0.8-4.8-2.3c-1.1-1.6-1.7-3.8-1.7-6.8c0-3.2,0.6-5.7,1.8-7.4c1.2-1.7,2.9-2.5,5.2-2.5
				c4.3,0,6.5,3.1,6.5,9.4c0,3.1-0.6,5.5-1.8,7.1C378.2,27.1,376.5,27.9,374.3,27.9z M374.6,11.3c-2.4,0-3.6,2.5-3.6,7.4
				c0,4.6,1.2,6.9,3.5,6.9s3.4-2.3,3.4-7C378,13.8,376.8,11.3,374.6,11.3z"/>
			<path class="st5" d="M164.5,35.1v18.8h-3.2V38.7c-0.6,0.4-1.2,0.7-1.9,1s-1.4,0.5-2.3,0.7v-2.5c0.5-0.2,1-0.3,1.5-0.5
				s1-0.4,1.5-0.6c0.5-0.2,1-0.5,1.4-0.7c0.5-0.3,1-0.6,1.5-0.9h1.5V35.1z"/>
			<path class="st5" d="M175.4,54.2c-2,0-3.6-0.8-4.8-2.3c-1.1-1.6-1.7-3.8-1.7-6.8c0-3.2,0.6-5.7,1.8-7.4s2.9-2.5,5.2-2.5
				c4.3,0,6.5,3.1,6.5,9.4c0,3.1-0.6,5.5-1.8,7.1C179.3,53.4,177.6,54.2,175.4,54.2z M175.7,37.6c-2.4,0-3.6,2.5-3.6,7.4
				c0,4.6,1.2,6.9,3.5,6.9s3.4-2.3,3.4-7C179.1,40,178,37.6,175.7,37.6z"/>
			<path class="st5" d="M192.3,35.1v18.8h-3.2V38.7c-0.6,0.4-1.2,0.7-1.9,1s-1.4,0.5-2.3,0.7v-2.5c0.5-0.2,1-0.3,1.5-0.5
				s1-0.4,1.5-0.6c0.5-0.2,1-0.5,1.4-0.7c0.5-0.3,1-0.6,1.5-0.9h1.5V35.1z"/>
			<path class="st5" d="M203.2,54.2c-2,0-3.6-0.8-4.8-2.3c-1.1-1.6-1.7-3.8-1.7-6.8c0-3.2,0.6-5.7,1.8-7.4s2.9-2.5,5.2-2.5
				c4.3,0,6.5,3.1,6.5,9.4c0,3.1-0.6,5.5-1.8,7.1C207.1,53.4,205.4,54.2,203.2,54.2z M203.5,37.6c-2.4,0-3.6,2.5-3.6,7.4
				c0,4.6,1.2,6.9,3.5,6.9s3.4-2.3,3.4-7C206.9,40,205.8,37.6,203.5,37.6z"/>
			<path class="st5" d="M219.2,54.2c-2,0-3.6-0.8-4.8-2.3c-1.1-1.6-1.7-3.8-1.7-6.8c0-3.2,0.6-5.7,1.8-7.4s2.9-2.5,5.2-2.5
				c4.3,0,6.5,3.1,6.5,9.4c0,3.1-0.6,5.5-1.8,7.1C223.1,53.4,221.4,54.2,219.2,54.2z M219.6,37.6c-2.4,0-3.6,2.5-3.6,7.4
				c0,4.6,1.2,6.9,3.5,6.9s3.4-2.3,3.4-7C222.9,40,221.8,37.6,219.6,37.6z"/>
			<path class="st5" d="M235.3,54.2c-2,0-3.6-0.8-4.8-2.3c-1.1-1.6-1.7-3.8-1.7-6.8c0-3.2,0.6-5.7,1.8-7.4s2.9-2.5,5.2-2.5
				c4.3,0,6.5,3.1,6.5,9.4c0,3.1-0.6,5.5-1.8,7.1C239.2,53.4,237.5,54.2,235.3,54.2z M235.6,37.6c-2.4,0-3.6,2.5-3.6,7.4
				c0,4.6,1.2,6.9,3.5,6.9s3.4-2.3,3.4-7C239,40,237.8,37.6,235.6,37.6z"/>
			<path class="st5" d="M252.2,35.1v18.8H249V38.7c-0.6,0.4-1.2,0.7-1.9,1s-1.4,0.5-2.3,0.7v-2.5c0.5-0.2,1-0.3,1.5-0.5
				s1-0.4,1.5-0.6c0.5-0.2,1-0.5,1.4-0.7c0.5-0.3,1-0.6,1.5-0.9h1.5V35.1z"/>
			<path class="st5" d="M263.1,54.2c-2,0-3.6-0.8-4.8-2.3c-1.1-1.6-1.7-3.8-1.7-6.8c0-3.2,0.6-5.7,1.8-7.4c1.2-1.7,2.9-2.5,5.2-2.5
				c4.3,0,6.5,3.1,6.5,9.4c0,3.1-0.6,5.5-1.8,7.1C267,53.4,265.3,54.2,263.1,54.2z M263.4,37.6c-2.4,0-3.6,2.5-3.6,7.4
				c0,4.6,1.2,6.9,3.5,6.9s3.4-2.3,3.4-7C266.8,40,265.6,37.6,263.4,37.6z"/>
			<path class="st5" d="M279.1,54.2c-2,0-3.6-0.8-4.8-2.3c-1.1-1.6-1.7-3.8-1.7-6.8c0-3.2,0.6-5.7,1.8-7.4c1.2-1.7,2.9-2.5,5.2-2.5
				c4.3,0,6.5,3.1,6.5,9.4c0,3.1-0.6,5.5-1.8,7.1C283,53.4,281.3,54.2,279.1,54.2z M279.4,37.6c-2.4,0-3.6,2.5-3.6,7.4
				c0,4.6,1.2,6.9,3.5,6.9s3.4-2.3,3.4-7C282.8,40,281.7,37.6,279.4,37.6z"/>
			<path class="st5" d="M296,35.1v18.8h-3.2V38.7c-0.6,0.4-1.2,0.7-1.9,1c-0.7,0.3-1.4,0.5-2.3,0.7v-2.5c0.5-0.2,1-0.3,1.5-0.5
				s1-0.4,1.5-0.6c0.5-0.2,1-0.5,1.4-0.7c0.5-0.3,1-0.6,1.5-0.9h1.5V35.1z"/>
			<path class="st5" d="M306.9,54.2c-2,0-3.6-0.8-4.8-2.3c-1.1-1.6-1.7-3.8-1.7-6.8c0-3.2,0.6-5.7,1.8-7.4c1.2-1.7,2.9-2.5,5.2-2.5
				c4.3,0,6.5,3.1,6.5,9.4c0,3.1-0.6,5.5-1.8,7.1C310.8,53.4,309.1,54.2,306.9,54.2z M307.2,37.6c-2.4,0-3.6,2.5-3.6,7.4
				c0,4.6,1.2,6.9,3.5,6.9s3.4-2.3,3.4-7C310.6,40,309.5,37.6,307.2,37.6z"/>
			<path class="st5" d="M322.9,54.2c-2,0-3.6-0.8-4.8-2.3c-1.1-1.6-1.7-3.8-1.7-6.8c0-3.2,0.6-5.7,1.8-7.4c1.2-1.7,2.9-2.5,5.2-2.5
				c4.3,0,6.5,3.1,6.5,9.4c0,3.1-0.6,5.5-1.8,7.1C326.8,53.4,325.1,54.2,322.9,54.2z M323.3,37.6c-2.4,0-3.6,2.5-3.6,7.4
				c0,4.6,1.2,6.9,3.5,6.9s3.4-2.3,3.4-7C326.6,40,325.5,37.6,323.3,37.6z"/>
			<path class="st5" d="M339.8,35.1v18.8h-3.2V38.7c-0.6,0.4-1.2,0.7-1.9,1c-0.7,0.3-1.4,0.5-2.3,0.7v-2.5c0.5-0.2,1-0.3,1.5-0.5
				s1-0.4,1.5-0.6c0.5-0.2,1-0.5,1.4-0.7c0.5-0.3,1-0.6,1.5-0.9h1.5V35.1z"/>
			<path class="st5" d="M351.6,35.1v18.8h-3.2V38.7c-0.6,0.4-1.2,0.7-1.9,1c-0.7,0.3-1.4,0.5-2.3,0.7v-2.5c0.5-0.2,1-0.3,1.5-0.5
				s1-0.4,1.5-0.6c0.5-0.2,1-0.5,1.4-0.7c0.5-0.3,1-0.6,1.5-0.9h1.5V35.1z"/>
			<path class="st5" d="M363.4,35.1v18.8h-3.2V38.7c-0.6,0.4-1.2,0.7-1.9,1c-0.7,0.3-1.4,0.5-2.3,0.7v-2.5c0.5-0.2,1-0.3,1.5-0.5
				s1-0.4,1.5-0.6c0.5-0.2,1-0.5,1.4-0.7c0.5-0.3,1-0.6,1.5-0.9h1.5V35.1z"/>
			<path class="st5" d="M374.3,54.2c-2,0-3.6-0.8-4.8-2.3c-1.1-1.6-1.7-3.8-1.7-6.8c0-3.2,0.6-5.7,1.8-7.4c1.2-1.7,2.9-2.5,5.2-2.5
				c4.3,0,6.5,3.1,6.5,9.4c0,3.1-0.6,5.5-1.8,7.1C378.2,53.4,376.5,54.2,374.3,54.2z M374.6,37.6c-2.4,0-3.6,2.5-3.6,7.4
				c0,4.6,1.2,6.9,3.5,6.9s3.4-2.3,3.4-7C378,40,376.8,37.6,374.6,37.6z"/>
			<path class="st5" d="M163.6,80.4c-2,0-3.6-0.8-4.8-2.3c-1.1-1.6-1.7-3.8-1.7-6.8c0-3.2,0.6-5.7,1.8-7.4c1.2-1.7,2.9-2.5,5.2-2.5
				c4.3,0,6.5,3.1,6.5,9.4c0,3.1-0.6,5.5-1.8,7.1C167.5,79.6,165.8,80.4,163.6,80.4z M164,63.8c-2.4,0-3.6,2.5-3.6,7.4
				c0,4.6,1.2,6.9,3.5,6.9s3.4-2.3,3.4-7C167.3,66.2,166.2,63.8,164,63.8z"/>
			<path class="st5" d="M180.3,61.3v18.8h-3.2V65c-0.6,0.4-1.2,0.7-1.9,1s-1.4,0.5-2.3,0.7v-2.5c0.5-0.2,1-0.3,1.5-0.5
				s1-0.4,1.5-0.6c0.5-0.2,1-0.5,1.4-0.7c0.5-0.3,1-0.6,1.5-0.9h1.5V61.3z"/>
			<path class="st5" d="M191,80.4c-2,0-3.6-0.8-4.8-2.3c-1.1-1.6-1.7-3.8-1.7-6.8c0-3.2,0.6-5.7,1.8-7.4c1.2-1.7,2.9-2.5,5.2-2.5
				c4.3,0,6.5,3.1,6.5,9.4c0,3.1-0.6,5.5-1.8,7.1C194.9,79.6,193.2,80.4,191,80.4z M191.3,63.8c-2.4,0-3.6,2.5-3.6,7.4
				c0,4.6,1.2,6.9,3.5,6.9s3.4-2.3,3.4-7C194.7,66.2,193.6,63.8,191.3,63.8z"/>
			<path class="st5" d="M207.7,61.3v18.8h-3.2V65c-0.6,0.4-1.2,0.7-1.9,1s-1.4,0.5-2.3,0.7v-2.5c0.5-0.2,1-0.3,1.5-0.5
				s1-0.4,1.5-0.6c0.5-0.2,1-0.5,1.4-0.7c0.5-0.3,1-0.6,1.5-0.9h1.5V61.3z"/>
			<path class="st5" d="M219.3,61.3v18.8h-3.2V65c-0.6,0.4-1.2,0.7-1.9,1s-1.4,0.5-2.3,0.7v-2.5c0.5-0.2,1-0.3,1.5-0.5
				s1-0.4,1.5-0.6c0.5-0.2,1-0.5,1.4-0.7c0.5-0.3,1-0.6,1.5-0.9h1.5V61.3z"/>
			<path class="st5" d="M230.8,61.3v18.8h-3.2V65c-0.6,0.4-1.2,0.7-1.9,1s-1.4,0.5-2.3,0.7v-2.5c0.5-0.2,1-0.3,1.5-0.5
				s1-0.4,1.5-0.6c0.5-0.2,1-0.5,1.4-0.7c0.5-0.3,1-0.6,1.5-0.9h1.5V61.3z"/>
			<path class="st5" d="M241.6,80.4c-2,0-3.6-0.8-4.8-2.3c-1.1-1.6-1.7-3.8-1.7-6.8c0-3.2,0.6-5.7,1.8-7.4c1.2-1.7,2.9-2.5,5.2-2.5
				c4.3,0,6.5,3.1,6.5,9.4c0,3.1-0.6,5.5-1.8,7.1C245.4,79.6,243.7,80.4,241.6,80.4z M241.9,63.8c-2.4,0-3.6,2.5-3.6,7.4
				c0,4.6,1.2,6.9,3.5,6.9s3.4-2.3,3.4-7C245.2,66.2,244.1,63.8,241.9,63.8z"/>
			<path class="st5" d="M257.4,80.4c-2,0-3.6-0.8-4.8-2.3c-1.1-1.6-1.7-3.8-1.7-6.8c0-3.2,0.6-5.7,1.8-7.4c1.2-1.7,2.9-2.5,5.2-2.5
				c4.3,0,6.5,3.1,6.5,9.4c0,3.1-0.6,5.5-1.8,7.1C261.3,79.6,259.6,80.4,257.4,80.4z M257.7,63.8c-2.4,0-3.6,2.5-3.6,7.4
				c0,4.6,1.2,6.9,3.5,6.9c2.3,0,3.4-2.3,3.4-7C261.1,66.2,260,63.8,257.7,63.8z"/>
			<path class="st5" d="M274.1,61.3v18.8h-3.2V65c-0.6,0.4-1.2,0.7-1.9,1c-0.7,0.3-1.4,0.5-2.3,0.7v-2.5c0.5-0.2,1-0.3,1.5-0.5
				s1-0.4,1.5-0.6c0.5-0.2,1-0.5,1.4-0.7c0.5-0.3,1-0.6,1.5-0.9h1.5V61.3z"/>
			<path class="st5" d="M285.6,61.3v18.8h-3.2V65c-0.6,0.4-1.2,0.7-1.9,1c-0.7,0.3-1.4,0.5-2.3,0.7v-2.5c0.5-0.2,1-0.3,1.5-0.5
				s1-0.4,1.5-0.6c0.5-0.2,1-0.5,1.4-0.7c0.5-0.3,1-0.6,1.5-0.9h1.5V61.3z"/>
			<path class="st5" d="M296.4,80.4c-2,0-3.6-0.8-4.8-2.3c-1.1-1.6-1.7-3.8-1.7-6.8c0-3.2,0.6-5.7,1.8-7.4c1.2-1.7,2.9-2.5,5.2-2.5
				c4.3,0,6.5,3.1,6.5,9.4c0,3.1-0.6,5.5-1.8,7.1C300.2,79.6,298.5,80.4,296.4,80.4z M296.7,63.8c-2.4,0-3.6,2.5-3.6,7.4
				c0,4.6,1.2,6.9,3.5,6.9s3.4-2.3,3.4-7C300,66.2,298.9,63.8,296.7,63.8z"/>
			<path class="st5" d="M312.2,80.4c-2,0-3.6-0.8-4.8-2.3c-1.1-1.6-1.7-3.8-1.7-6.8c0-3.2,0.6-5.7,1.8-7.4c1.2-1.7,2.9-2.5,5.2-2.5
				c4.3,0,6.5,3.1,6.5,9.4c0,3.1-0.6,5.5-1.8,7.1C316.1,79.6,314.4,80.4,312.2,80.4z M312.5,63.8c-2.4,0-3.6,2.5-3.6,7.4
				c0,4.6,1.2,6.9,3.5,6.9s3.4-2.3,3.4-7C315.9,66.2,314.8,63.8,312.5,63.8z"/>
			<path class="st5" d="M328.9,61.3v18.8h-3.2V65c-0.6,0.4-1.2,0.7-1.9,1c-0.7,0.3-1.4,0.5-2.3,0.7v-2.5c0.5-0.2,1-0.3,1.5-0.5
				s1-0.4,1.5-0.6c0.5-0.2,1-0.5,1.4-0.7c0.5-0.3,1-0.6,1.5-0.9h1.5V61.3z"/>
			<path class="st5" d="M340.4,61.3v18.8h-3.2V65c-0.6,0.4-1.2,0.7-1.9,1c-0.7,0.3-1.4,0.5-2.3,0.7v-2.5c0.5-0.2,1-0.3,1.5-0.5
				s1-0.4,1.5-0.6c0.5-0.2,1-0.5,1.4-0.7c0.5-0.3,1-0.6,1.5-0.9h1.5V61.3z"/>
			<path class="st5" d="M352,61.3v18.8h-3.2V65c-0.6,0.4-1.2,0.7-1.9,1c-0.7,0.3-1.4,0.5-2.3,0.7v-2.5c0.5-0.2,1-0.3,1.5-0.5
				s1-0.4,1.5-0.6c0.5-0.2,1-0.5,1.4-0.7c0.5-0.3,1-0.6,1.5-0.9h1.5V61.3z"/>
			<path class="st5" d="M362.7,80.4c-2,0-3.6-0.8-4.8-2.3c-1.1-1.6-1.7-3.8-1.7-6.8c0-3.2,0.6-5.7,1.8-7.4c1.2-1.7,2.9-2.5,5.2-2.5
				c4.3,0,6.5,3.1,6.5,9.4c0,3.1-0.6,5.5-1.8,7.1C366.6,79.6,364.9,80.4,362.7,80.4z M363,63.8c-2.4,0-3.6,2.5-3.6,7.4
				c0,4.6,1.2,6.9,3.5,6.9s3.4-2.3,3.4-7C366.4,66.2,365.3,63.8,363,63.8z"/>
			<path class="st5" d="M379.4,61.3v18.8h-3.2V65c-0.6,0.4-1.2,0.7-1.9,1c-0.7,0.3-1.4,0.5-2.3,0.7v-2.5c0.5-0.2,1-0.3,1.5-0.5
				s1-0.4,1.5-0.6c0.5-0.2,1-0.5,1.4-0.7c0.5-0.3,1-0.6,1.5-0.9h1.5V61.3z"/>
			<path class="st5" d="M163.6,106.6c-2,0-3.6-0.8-4.8-2.3c-1.1-1.6-1.7-3.8-1.7-6.8c0-3.2,0.6-5.7,1.8-7.4c1.2-1.7,2.9-2.5,5.2-2.5
				c4.3,0,6.5,3.1,6.5,9.4c0,3.1-0.6,5.5-1.8,7.1C167.5,105.8,165.8,106.6,163.6,106.6z M164,90c-2.4,0-3.6,2.5-3.6,7.4
				c0,4.6,1.2,6.9,3.5,6.9s3.4-2.3,3.4-7C167.3,92.4,166.2,90,164,90z"/>
			<path class="st5" d="M181.1,87.6v18.8h-3.2V91.2c-0.6,0.4-1.2,0.7-1.9,1s-1.4,0.5-2.3,0.7v-2.5c0.5-0.2,1-0.3,1.5-0.5
				s1-0.4,1.5-0.6s1-0.5,1.4-0.7c0.5-0.3,1-0.6,1.5-0.9L181.1,87.6L181.1,87.6z"/>
			<path class="st5" d="M192.5,106.6c-2,0-3.6-0.8-4.8-2.3c-1.1-1.6-1.7-3.8-1.7-6.8c0-3.2,0.6-5.7,1.8-7.4c1.2-1.7,2.9-2.5,5.2-2.5
				c4.3,0,6.5,3.1,6.5,9.4c0,3.1-0.6,5.5-1.8,7.1C196.4,105.8,194.7,106.6,192.5,106.6z M192.8,90c-2.4,0-3.6,2.5-3.6,7.4
				c0,4.6,1.2,6.9,3.5,6.9s3.4-2.3,3.4-7C196.2,92.4,195.1,90,192.8,90z"/>
			<path class="st5" d="M209.1,106.6c-2,0-3.6-0.8-4.8-2.3c-1.1-1.6-1.7-3.8-1.7-6.8c0-3.2,0.6-5.7,1.8-7.4c1.2-1.7,2.9-2.5,5.2-2.5
				c4.3,0,6.5,3.1,6.5,9.4c0,3.1-0.6,5.5-1.8,7.1C213,105.8,211.3,106.6,209.1,106.6z M209.4,90c-2.4,0-3.6,2.5-3.6,7.4
				c0,4.6,1.2,6.9,3.5,6.9s3.4-2.3,3.4-7C212.8,92.4,211.6,90,209.4,90z"/>
			<path class="st5" d="M226.5,87.6v18.8h-3.2V91.2c-0.6,0.4-1.2,0.7-1.9,1s-1.4,0.5-2.3,0.7v-2.5c0.5-0.2,1-0.3,1.5-0.5
				s1-0.4,1.5-0.6s1-0.5,1.4-0.7c0.5-0.3,1-0.6,1.5-0.9L226.5,87.6L226.5,87.6z"/>
			<path class="st5" d="M238.8,87.6v18.8h-3.2V91.2c-0.6,0.4-1.2,0.7-1.9,1s-1.4,0.5-2.3,0.7v-2.5c0.5-0.2,1-0.3,1.5-0.5
				s1-0.4,1.5-0.6s1-0.5,1.4-0.7c0.5-0.3,1-0.6,1.5-0.9L238.8,87.6L238.8,87.6z"/>
			<path class="st5" d="M250.2,106.6c-2,0-3.6-0.8-4.8-2.3c-1.1-1.6-1.7-3.8-1.7-6.8c0-3.2,0.6-5.7,1.8-7.4c1.2-1.7,2.9-2.5,5.2-2.5
				c4.3,0,6.5,3.1,6.5,9.4c0,3.1-0.6,5.5-1.8,7.1C254.1,105.8,252.4,106.6,250.2,106.6z M250.6,90c-2.4,0-3.6,2.5-3.6,7.4
				c0,4.6,1.2,6.9,3.5,6.9s3.4-2.3,3.4-7C253.9,92.4,252.8,90,250.6,90z"/>
			<path class="st5" d="M266.8,106.6c-2,0-3.6-0.8-4.8-2.3c-1.1-1.6-1.7-3.8-1.7-6.8c0-3.2,0.6-5.7,1.8-7.4c1.2-1.7,2.9-2.5,5.2-2.5
				c4.3,0,6.5,3.1,6.5,9.4c0,3.1-0.6,5.5-1.8,7.1C270.7,105.8,269,106.6,266.8,106.6z M267.1,90c-2.4,0-3.6,2.5-3.6,7.4
				c0,4.6,1.2,6.9,3.5,6.9s3.4-2.3,3.4-7C270.5,92.4,269.4,90,267.1,90z"/>
			<path class="st5" d="M284.2,87.6v18.8H281V91.2c-0.6,0.4-1.2,0.7-1.9,1c-0.7,0.3-1.4,0.5-2.3,0.7v-2.5c0.5-0.2,1-0.3,1.5-0.5
				s1-0.4,1.5-0.6s1-0.5,1.4-0.7c0.5-0.3,1-0.6,1.5-0.9L284.2,87.6L284.2,87.6z"/>
			<path class="st5" d="M295.7,106.6c-2,0-3.6-0.8-4.8-2.3c-1.1-1.6-1.7-3.8-1.7-6.8c0-3.2,0.6-5.7,1.8-7.4c1.2-1.7,2.9-2.5,5.2-2.5
				c4.3,0,6.5,3.1,6.5,9.4c0,3.1-0.6,5.5-1.8,7.1C299.6,105.8,297.9,106.6,295.7,106.6z M296,90c-2.4,0-3.6,2.5-3.6,7.4
				c0,4.6,1.2,6.9,3.5,6.9s3.4-2.3,3.4-7C299.4,92.4,298.3,90,296,90z"/>
			<path class="st5" d="M313.1,87.6v18.8h-3.2V91.2c-0.6,0.4-1.2,0.7-1.9,1c-0.7,0.3-1.4,0.5-2.3,0.7v-2.5c0.5-0.2,1-0.3,1.5-0.5
				s1-0.4,1.5-0.6s1-0.5,1.4-0.7c0.5-0.3,1-0.6,1.5-0.9L313.1,87.6L313.1,87.6z"/>
			<path class="st5" d="M324.6,106.6c-2,0-3.6-0.8-4.8-2.3c-1.1-1.6-1.7-3.8-1.7-6.8c0-3.2,0.6-5.7,1.8-7.4c1.2-1.7,2.9-2.5,5.2-2.5
				c4.3,0,6.5,3.1,6.5,9.4c0,3.1-0.6,5.5-1.8,7.1C328.4,105.8,326.7,106.6,324.6,106.6z M324.9,90c-2.4,0-3.6,2.5-3.6,7.4
				c0,4.6,1.2,6.9,3.5,6.9s3.4-2.3,3.4-7C328.2,92.4,327.1,90,324.9,90z"/>
			<path class="st5" d="M341.1,106.6c-2,0-3.6-0.8-4.8-2.3c-1.1-1.6-1.7-3.8-1.7-6.8c0-3.2,0.6-5.7,1.8-7.4c1.2-1.7,2.9-2.5,5.2-2.5
				c4.3,0,6.5,3.1,6.5,9.4c0,3.1-0.6,5.5-1.8,7.1C345,105.8,343.3,106.6,341.1,106.6z M341.4,90c-2.4,0-3.6,2.5-3.6,7.4
				c0,4.6,1.2,6.9,3.5,6.9s3.4-2.3,3.4-7C344.8,92.4,343.7,90,341.4,90z"/>
			<path class="st5" d="M357.7,106.6c-2,0-3.6-0.8-4.8-2.3c-1.1-1.6-1.7-3.8-1.7-6.8c0-3.2,0.6-5.7,1.8-7.4c1.2-1.7,2.9-2.5,5.2-2.5
				c4.3,0,6.5,3.1,6.5,9.4c0,3.1-0.6,5.5-1.8,7.1C361.6,105.8,359.9,106.6,357.7,106.6z M358,90c-2.4,0-3.6,2.5-3.6,7.4
				c0,4.6,1.2,6.9,3.5,6.9s3.4-2.3,3.4-7C361.4,92.4,360.3,90,358,90z"/>
			<path class="st5" d="M374.3,106.6c-2,0-3.6-0.8-4.8-2.3c-1.1-1.6-1.7-3.8-1.7-6.8c0-3.2,0.6-5.7,1.8-7.4c1.2-1.7,2.9-2.5,5.2-2.5
				c4.3,0,6.5,3.1,6.5,9.4c0,3.1-0.6,5.5-1.8,7.1C378.2,105.8,376.5,106.6,374.3,106.6z M374.6,90c-2.4,0-3.6,2.5-3.6,7.4
				c0,4.6,1.2,6.9,3.5,6.9s3.4-2.3,3.4-7C378,92.4,376.8,90,374.6,90z"/>
			<path class="st5" d="M163.6,132.9c-2,0-3.6-0.8-4.8-2.3c-1.1-1.6-1.7-3.8-1.7-6.8c0-3.2,0.6-5.7,1.8-7.4c1.2-1.7,2.9-2.5,5.2-2.5
				c4.3,0,6.5,3.1,6.5,9.4c0,3.1-0.6,5.5-1.8,7.1C167.5,132,165.8,132.9,163.6,132.9z M164,116.3c-2.4,0-3.6,2.5-3.6,7.4
				c0,4.6,1.2,6.9,3.5,6.9s3.4-2.3,3.4-7C167.3,118.7,166.2,116.3,164,116.3z"/>
			<path class="st5" d="M180.3,113.8v18.8h-3.2v-15.1c-0.6,0.4-1.2,0.7-1.9,1s-1.4,0.5-2.3,0.7v-2.5c0.5-0.2,1-0.3,1.5-0.5
				s1-0.4,1.5-0.6s1-0.5,1.4-0.7c0.5-0.3,1-0.6,1.5-0.9h1.5V113.8z"/>
			<path class="st5" d="M191,132.9c-2,0-3.6-0.8-4.8-2.3c-1.1-1.6-1.7-3.8-1.7-6.8c0-3.2,0.6-5.7,1.8-7.4c1.2-1.7,2.9-2.5,5.2-2.5
				c4.3,0,6.5,3.1,6.5,9.4c0,3.1-0.6,5.5-1.8,7.1C194.9,132,193.2,132.9,191,132.9z M191.3,116.3c-2.4,0-3.6,2.5-3.6,7.4
				c0,4.6,1.2,6.9,3.5,6.9s3.4-2.3,3.4-7C194.7,118.7,193.6,116.3,191.3,116.3z"/>
			<path class="st5" d="M207.7,113.8v18.8h-3.2v-15.1c-0.6,0.4-1.2,0.7-1.9,1s-1.4,0.5-2.3,0.7v-2.5c0.5-0.2,1-0.3,1.5-0.5
				s1-0.4,1.5-0.6s1-0.5,1.4-0.7c0.5-0.3,1-0.6,1.5-0.9h1.5V113.8z"/>
			<path class="st5" d="M219.3,113.8v18.8h-3.2v-15.1c-0.6,0.4-1.2,0.7-1.9,1s-1.4,0.5-2.3,0.7v-2.5c0.5-0.2,1-0.3,1.5-0.5
				s1-0.4,1.5-0.6s1-0.5,1.4-0.7c0.5-0.3,1-0.6,1.5-0.9h1.5V113.8z"/>
			<path class="st5" d="M230.8,113.8v18.8h-3.2v-15.1c-0.6,0.4-1.2,0.7-1.9,1s-1.4,0.5-2.3,0.7v-2.5c0.5-0.2,1-0.3,1.5-0.5
				s1-0.4,1.5-0.6s1-0.5,1.4-0.7c0.5-0.3,1-0.6,1.5-0.9h1.5V113.8z"/>
			<path class="st5" d="M241.6,132.9c-2,0-3.6-0.8-4.8-2.3c-1.1-1.6-1.7-3.8-1.7-6.8c0-3.2,0.6-5.7,1.8-7.4c1.2-1.7,2.9-2.5,5.2-2.5
				c4.3,0,6.5,3.1,6.5,9.4c0,3.1-0.6,5.5-1.8,7.1C245.4,132,243.7,132.9,241.6,132.9z M241.9,116.3c-2.4,0-3.6,2.5-3.6,7.4
				c0,4.6,1.2,6.9,3.5,6.9s3.4-2.3,3.4-7C245.2,118.7,244.1,116.3,241.9,116.3z"/>
			<path class="st5" d="M257.4,132.9c-2,0-3.6-0.8-4.8-2.3c-1.1-1.6-1.7-3.8-1.7-6.8c0-3.2,0.6-5.7,1.8-7.4c1.2-1.7,2.9-2.5,5.2-2.5
				c4.3,0,6.5,3.1,6.5,9.4c0,3.1-0.6,5.5-1.8,7.1C261.3,132,259.6,132.9,257.4,132.9z M257.7,116.3c-2.4,0-3.6,2.5-3.6,7.4
				c0,4.6,1.2,6.9,3.5,6.9c2.3,0,3.4-2.3,3.4-7C261.1,118.7,260,116.3,257.7,116.3z"/>
			<path class="st5" d="M274.1,113.8v18.8h-3.2v-15.1c-0.6,0.4-1.2,0.7-1.9,1c-0.7,0.3-1.4,0.5-2.3,0.7v-2.5c0.5-0.2,1-0.3,1.5-0.5
				s1-0.4,1.5-0.6s1-0.5,1.4-0.7c0.5-0.3,1-0.6,1.5-0.9h1.5V113.8z"/>
			<path class="st5" d="M285.6,113.8v18.8h-3.2v-15.1c-0.6,0.4-1.2,0.7-1.9,1c-0.7,0.3-1.4,0.5-2.3,0.7v-2.5c0.5-0.2,1-0.3,1.5-0.5
				s1-0.4,1.5-0.6s1-0.5,1.4-0.7c0.5-0.3,1-0.6,1.5-0.9h1.5V113.8z"/>
			<path class="st5" d="M296.4,132.9c-2,0-3.6-0.8-4.8-2.3c-1.1-1.6-1.7-3.8-1.7-6.8c0-3.2,0.6-5.7,1.8-7.4c1.2-1.7,2.9-2.5,5.2-2.5
				c4.3,0,6.5,3.1,6.5,9.4c0,3.1-0.6,5.5-1.8,7.1C300.2,132,298.5,132.9,296.4,132.9z M296.7,116.3c-2.4,0-3.6,2.5-3.6,7.4
				c0,4.6,1.2,6.9,3.5,6.9s3.4-2.3,3.4-7C300,118.7,298.9,116.3,296.7,116.3z"/>
			<path class="st5" d="M312.2,132.9c-2,0-3.6-0.8-4.8-2.3c-1.1-1.6-1.7-3.8-1.7-6.8c0-3.2,0.6-5.7,1.8-7.4c1.2-1.7,2.9-2.5,5.2-2.5
				c4.3,0,6.5,3.1,6.5,9.4c0,3.1-0.6,5.5-1.8,7.1C316.1,132,314.4,132.9,312.2,132.9z M312.5,116.3c-2.4,0-3.6,2.5-3.6,7.4
				c0,4.6,1.2,6.9,3.5,6.9s3.4-2.3,3.4-7C315.9,118.7,314.8,116.3,312.5,116.3z"/>
			<path class="st5" d="M328.9,113.8v18.8h-3.2v-15.1c-0.6,0.4-1.2,0.7-1.9,1c-0.7,0.3-1.4,0.5-2.3,0.7v-2.5c0.5-0.2,1-0.3,1.5-0.5
				s1-0.4,1.5-0.6s1-0.5,1.4-0.7c0.5-0.3,1-0.6,1.5-0.9h1.5V113.8z"/>
			<path class="st5" d="M340.4,113.8v18.8h-3.2v-15.1c-0.6,0.4-1.2,0.7-1.9,1c-0.7,0.3-1.4,0.5-2.3,0.7v-2.5c0.5-0.2,1-0.3,1.5-0.5
				s1-0.4,1.5-0.6s1-0.5,1.4-0.7c0.5-0.3,1-0.6,1.5-0.9h1.5V113.8z"/>
			<path class="st5" d="M352,113.8v18.8h-3.2v-15.1c-0.6,0.4-1.2,0.7-1.9,1c-0.7,0.3-1.4,0.5-2.3,0.7v-2.5c0.5-0.2,1-0.3,1.5-0.5
				s1-0.4,1.5-0.6s1-0.5,1.4-0.7c0.5-0.3,1-0.6,1.5-0.9h1.5V113.8z"/>
			<path class="st5" d="M362.7,132.9c-2,0-3.6-0.8-4.8-2.3c-1.1-1.6-1.7-3.8-1.7-6.8c0-3.2,0.6-5.7,1.8-7.4c1.2-1.7,2.9-2.5,5.2-2.5
				c4.3,0,6.5,3.1,6.5,9.4c0,3.1-0.6,5.5-1.8,7.1C366.6,132,364.9,132.9,362.7,132.9z M363,116.3c-2.4,0-3.6,2.5-3.6,7.4
				c0,4.6,1.2,6.9,3.5,6.9s3.4-2.3,3.4-7C366.4,118.7,365.3,116.3,363,116.3z"/>
			<path class="st5" d="M379.4,113.8v18.8h-3.2v-15.1c-0.6,0.4-1.2,0.7-1.9,1c-0.7,0.3-1.4,0.5-2.3,0.7v-2.5c0.5-0.2,1-0.3,1.5-0.5
				s1-0.4,1.5-0.6s1-0.5,1.4-0.7c0.5-0.3,1-0.6,1.5-0.9h1.5V113.8z"/>
		</g>
	</g>
	<g class="st9">
		<g>
			<path class="st5" d="M170.3,9.8v18.3h-3V13.3c-0.5,0.4-1.1,0.7-1.7,1c-0.6,0.3-1.3,0.5-2.1,0.7v-2.5c0.5-0.2,1-0.3,1.4-0.5
				c0.5-0.2,0.9-0.4,1.4-0.6c0.5-0.2,0.9-0.5,1.4-0.7c0.5-0.3,0.9-0.6,1.4-0.9H170.3z"/>
			<path class="st5" d="M180.3,28.4c-1.9,0-3.4-0.8-4.5-2.3s-1.6-3.7-1.6-6.6c0-3.2,0.6-5.6,1.7-7.2c1.1-1.6,2.8-2.4,4.9-2.4
				c4.1,0,6.1,3.1,6.1,9.2c0,3-0.6,5.4-1.7,6.9C184,27.6,182.4,28.4,180.3,28.4z M180.6,12.2c-2.2,0-3.4,2.4-3.4,7.2
				c0,4.5,1.1,6.7,3.3,6.7s3.3-2.3,3.3-6.8C183.8,14.5,182.7,12.2,180.6,12.2z"/>
			<path class="st5" d="M195.2,28.4c-1.9,0-3.4-0.8-4.5-2.3s-1.6-3.7-1.6-6.6c0-3.2,0.6-5.6,1.7-7.2c1.1-1.6,2.8-2.4,4.9-2.4
				c4.1,0,6.1,3.1,6.1,9.2c0,3-0.6,5.4-1.7,6.9C198.9,27.6,197.3,28.4,195.2,28.4z M195.5,12.2c-2.2,0-3.4,2.4-3.4,7.2
				c0,4.5,1.1,6.7,3.3,6.7s3.3-2.3,3.3-6.8C198.7,14.5,197.6,12.2,195.5,12.2z"/>
			<path class="st5" d="M210.9,9.8v18.3h-3V13.3c-0.5,0.4-1.1,0.7-1.7,1c-0.6,0.3-1.3,0.5-2.1,0.7v-2.5c0.5-0.2,1-0.3,1.4-0.5
				c0.5-0.2,0.9-0.4,1.4-0.6c0.5-0.2,0.9-0.5,1.4-0.7c0.5-0.3,0.9-0.6,1.4-0.9H210.9z"/>
			<path class="st5" d="M221.7,9.8v18.3h-3V13.3c-0.5,0.4-1.1,0.7-1.7,1c-0.6,0.3-1.3,0.5-2.1,0.7v-2.5c0.5-0.2,1-0.3,1.4-0.5
				c0.5-0.2,0.9-0.4,1.4-0.6c0.5-0.2,0.9-0.5,1.4-0.7c0.5-0.3,0.9-0.6,1.4-0.9H221.7z"/>
			<path class="st5" d="M231.8,28.4c-1.9,0-3.4-0.8-4.5-2.3s-1.6-3.7-1.6-6.6c0-3.2,0.6-5.6,1.7-7.2c1.1-1.6,2.8-2.4,4.9-2.4
				c4.1,0,6.1,3.1,6.1,9.2c0,3-0.6,5.4-1.7,6.9C235.4,27.6,233.8,28.4,231.8,28.4z M232.1,12.2c-2.2,0-3.4,2.4-3.4,7.2
				c0,4.5,1.1,6.7,3.3,6.7s3.3-2.3,3.3-6.8C235.2,14.5,234.2,12.2,232.1,12.2z"/>
			<path class="st5" d="M246.6,28.4c-1.9,0-3.4-0.8-4.5-2.3s-1.6-3.7-1.6-6.6c0-3.2,0.6-5.6,1.7-7.2c1.1-1.6,2.8-2.4,4.9-2.4
				c4.1,0,6.1,3.1,6.1,9.2c0,3-0.6,5.4-1.7,6.9C250.3,27.6,248.7,28.4,246.6,28.4z M246.9,12.2c-2.2,0-3.4,2.4-3.4,7.2
				c0,4.5,1.1,6.7,3.3,6.7s3.3-2.3,3.3-6.8C250.1,14.5,249.1,12.2,246.9,12.2z"/>
			<path class="st5" d="M262.3,9.8v18.3h-3V13.3c-0.5,0.4-1.1,0.7-1.7,1s-1.3,0.5-2.1,0.7v-2.5c0.5-0.2,1-0.3,1.4-0.5
				c0.5-0.2,0.9-0.4,1.4-0.6c0.5-0.2,0.9-0.5,1.4-0.7c0.5-0.3,0.9-0.6,1.4-0.9H262.3z"/>
			<path class="st5" d="M272.4,28.4c-1.9,0-3.4-0.8-4.5-2.3s-1.6-3.7-1.6-6.6c0-3.2,0.6-5.6,1.7-7.2s2.8-2.4,4.9-2.4
				c4.1,0,6.1,3.1,6.1,9.2c0,3-0.6,5.4-1.7,6.9C276,27.6,274.4,28.4,272.4,28.4z M272.7,12.2c-2.2,0-3.4,2.4-3.4,7.2
				c0,4.5,1.1,6.7,3.3,6.7c2.2,0,3.3-2.3,3.3-6.8C275.9,14.5,274.8,12.2,272.7,12.2z"/>
			<path class="st5" d="M288.1,9.8v18.3h-3V13.3c-0.5,0.4-1.1,0.7-1.7,1s-1.3,0.5-2.1,0.7v-2.5c0.5-0.2,1-0.3,1.4-0.5
				c0.5-0.2,0.9-0.4,1.4-0.6c0.5-0.2,0.9-0.5,1.4-0.7c0.5-0.3,0.9-0.6,1.4-0.9H288.1z"/>
			<path class="st5" d="M298.1,28.4c-1.9,0-3.4-0.8-4.5-2.3s-1.6-3.7-1.6-6.6c0-3.2,0.6-5.6,1.7-7.2s2.8-2.4,4.9-2.4
				c4.1,0,6.1,3.1,6.1,9.2c0,3-0.6,5.4-1.7,6.9C301.8,27.6,300.2,28.4,298.1,28.4z M298.4,12.2c-2.2,0-3.4,2.4-3.4,7.2
				c0,4.5,1.1,6.7,3.3,6.7c2.2,0,3.3-2.3,3.3-6.8C301.6,14.5,300.5,12.2,298.4,12.2z"/>
			<path class="st5" d="M313,28.4c-1.9,0-3.4-0.8-4.5-2.3s-1.6-3.7-1.6-6.6c0-3.2,0.6-5.6,1.7-7.2s2.8-2.4,4.9-2.4
				c4.1,0,6.1,3.1,6.1,9.2c0,3-0.6,5.4-1.7,6.9C316.6,27.6,315,28.4,313,28.4z M313.3,12.2c-2.2,0-3.4,2.4-3.4,7.2
				c0,4.5,1.1,6.7,3.3,6.7c2.2,0,3.3-2.3,3.3-6.8C316.5,14.5,315.4,12.2,313.3,12.2z"/>
			<path class="st5" d="M327.9,28.4c-1.9,0-3.4-0.8-4.5-2.3s-1.6-3.7-1.6-6.6c0-3.2,0.6-5.6,1.7-7.2s2.8-2.4,4.9-2.4
				c4.1,0,6.1,3.1,6.1,9.2c0,3-0.6,5.4-1.7,6.9C331.5,27.6,329.9,28.4,327.9,28.4z M328.2,12.2c-2.2,0-3.4,2.4-3.4,7.2
				c0,4.5,1.1,6.7,3.3,6.7c2.2,0,3.3-2.3,3.3-6.8C331.3,14.5,330.3,12.2,328.2,12.2z"/>
			<path class="st5" d="M342.7,28.4c-1.9,0-3.4-0.8-4.5-2.3s-1.6-3.7-1.6-6.6c0-3.2,0.6-5.6,1.7-7.2s2.8-2.4,4.9-2.4
				c4.1,0,6.1,3.1,6.1,9.2c0,3-0.6,5.4-1.7,6.9C346.4,27.6,344.8,28.4,342.7,28.4z M343,12.2c-2.2,0-3.4,2.4-3.4,7.2
				c0,4.5,1.1,6.7,3.3,6.7c2.2,0,3.3-2.3,3.3-6.8C346.2,14.5,345.2,12.2,343,12.2z"/>
			<path class="st5" d="M358.4,9.8v18.3h-3V13.3c-0.5,0.4-1.1,0.7-1.7,1s-1.3,0.5-2.1,0.7v-2.5c0.5-0.2,1-0.3,1.4-0.5
				c0.5-0.2,0.9-0.4,1.4-0.6c0.5-0.2,0.9-0.5,1.4-0.7c0.5-0.3,0.9-0.6,1.4-0.9H358.4z"/>
			<path class="st5" d="M368.5,28.4c-1.9,0-3.4-0.8-4.5-2.3s-1.6-3.7-1.6-6.6c0-3.2,0.6-5.6,1.7-7.2s2.8-2.4,4.9-2.4
				c4.1,0,6.1,3.1,6.1,9.2c0,3-0.6,5.4-1.7,6.9C372.1,27.6,370.5,28.4,368.5,28.4z M368.8,12.2c-2.2,0-3.4,2.4-3.4,7.2
				c0,4.5,1.1,6.7,3.3,6.7c2.2,0,3.3-2.3,3.3-6.8C372,14.5,370.9,12.2,368.8,12.2z"/>
			<path class="st5" d="M170.3,35.4v18.3h-3V38.9c-0.5,0.4-1.1,0.7-1.7,1c-0.6,0.3-1.3,0.5-2.1,0.7v-2.5c0.5-0.2,1-0.3,1.4-0.5
				c0.5-0.2,0.9-0.4,1.4-0.6c0.5-0.2,0.9-0.5,1.4-0.7c0.5-0.3,0.9-0.6,1.4-0.9H170.3z"/>
			<path class="st5" d="M180.6,54c-1.9,0-3.4-0.8-4.5-2.3s-1.6-3.7-1.6-6.6c0-3.2,0.6-5.6,1.7-7.2c1.1-1.6,2.8-2.4,4.9-2.4
				c4.1,0,6.1,3.1,6.1,9.2c0,3-0.6,5.4-1.7,6.9C184.3,53.2,182.6,54,180.6,54z M180.9,37.8c-2.2,0-3.4,2.4-3.4,7.2
				c0,4.5,1.1,6.7,3.3,6.7s3.3-2.3,3.3-6.8C184.1,40.1,183,37.8,180.9,37.8z"/>
			<path class="st5" d="M196.5,35.4v18.3h-3V38.9c-0.5,0.4-1.1,0.7-1.7,1c-0.6,0.3-1.3,0.5-2.1,0.7v-2.5c0.5-0.2,1-0.3,1.4-0.5
				c0.5-0.2,0.9-0.4,1.4-0.6c0.5-0.2,0.9-0.5,1.4-0.7c0.5-0.3,0.9-0.6,1.4-0.9H196.5z"/>
			<path class="st5" d="M206.8,54c-1.9,0-3.4-0.8-4.5-2.3s-1.6-3.7-1.6-6.6c0-3.2,0.6-5.6,1.7-7.2c1.1-1.6,2.8-2.4,4.9-2.4
				c4.1,0,6.1,3.1,6.1,9.2c0,3-0.6,5.4-1.7,6.9C210.5,53.2,208.9,54,206.8,54z M207.1,37.8c-2.2,0-3.4,2.4-3.4,7.2
				c0,4.5,1.1,6.7,3.3,6.7s3.3-2.3,3.3-6.8C210.3,40.1,209.3,37.8,207.1,37.8z"/>
			<path class="st5" d="M222,54c-1.9,0-3.4-0.8-4.5-2.3s-1.6-3.7-1.6-6.6c0-3.2,0.6-5.6,1.7-7.2c1.1-1.6,2.8-2.4,4.9-2.4
				c4.1,0,6.1,3.1,6.1,9.2c0,3-0.6,5.4-1.7,6.9C225.7,53.2,224.1,54,222,54z M222.3,37.8c-2.2,0-3.4,2.4-3.4,7.2
				c0,4.5,1.1,6.7,3.3,6.7s3.3-2.3,3.3-6.8C225.5,40.1,224.4,37.8,222.3,37.8z"/>
			<path class="st5" d="M237.1,54c-1.9,0-3.4-0.8-4.5-2.3S231,48,231,45.1c0-3.2,0.6-5.6,1.7-7.2c1.1-1.6,2.8-2.4,4.9-2.4
				c4.1,0,6.1,3.1,6.1,9.2c0,3-0.6,5.4-1.7,6.9C240.8,53.2,239.2,54,237.1,54z M237.4,37.8c-2.2,0-3.4,2.4-3.4,7.2
				c0,4.5,1.1,6.7,3.3,6.7s3.3-2.3,3.3-6.8C240.6,40.1,239.6,37.8,237.4,37.8z"/>
			<path class="st5" d="M253.1,35.4v18.3h-3V38.9c-0.5,0.4-1.1,0.7-1.7,1c-0.6,0.3-1.3,0.5-2.1,0.7v-2.5c0.5-0.2,1-0.3,1.4-0.5
				c0.5-0.2,0.9-0.4,1.4-0.6c0.5-0.2,0.9-0.5,1.4-0.7c0.5-0.3,0.9-0.6,1.4-0.9H253.1z"/>
			<path class="st5" d="M263.4,54c-1.9,0-3.4-0.8-4.5-2.3s-1.6-3.7-1.6-6.6c0-3.2,0.6-5.6,1.7-7.2c1.1-1.6,2.8-2.4,4.9-2.4
				c4.1,0,6.1,3.1,6.1,9.2c0,3-0.6,5.4-1.7,6.9C267.1,53.2,265.5,54,263.4,54z M263.7,37.8c-2.2,0-3.4,2.4-3.4,7.2
				c0,4.5,1.1,6.7,3.3,6.7c2.2,0,3.3-2.3,3.3-6.8C266.9,40.1,265.8,37.8,263.7,37.8z"/>
			<path class="st5" d="M278.6,54c-1.9,0-3.4-0.8-4.5-2.3s-1.6-3.7-1.6-6.6c0-3.2,0.6-5.6,1.7-7.2c1.1-1.6,2.8-2.4,4.9-2.4
				c4.1,0,6.1,3.1,6.1,9.2c0,3-0.6,5.4-1.7,6.9C282.2,53.2,280.6,54,278.6,54z M278.9,37.8c-2.2,0-3.4,2.4-3.4,7.2
				c0,4.5,1.1,6.7,3.3,6.7c2.2,0,3.3-2.3,3.3-6.8C282,40.1,281,37.8,278.9,37.8z"/>
			<path class="st5" d="M294.5,35.4v18.3h-3V38.9c-0.5,0.4-1.1,0.7-1.7,1s-1.3,0.5-2.1,0.7v-2.5c0.5-0.2,1-0.3,1.4-0.5
				c0.5-0.2,0.9-0.4,1.4-0.6c0.5-0.2,0.9-0.5,1.4-0.7c0.5-0.3,0.9-0.6,1.4-0.9H294.5z"/>
			<path class="st5" d="M304.8,54c-1.9,0-3.4-0.8-4.5-2.3s-1.6-3.7-1.6-6.6c0-3.2,0.6-5.6,1.7-7.2c1.1-1.6,2.8-2.4,4.9-2.4
				c4.1,0,6.1,3.1,6.1,9.2c0,3-0.6,5.4-1.7,6.9C308.5,53.2,306.9,54,304.8,54z M305.1,37.8c-2.2,0-3.4,2.4-3.4,7.2
				c0,4.5,1.1,6.7,3.3,6.7c2.2,0,3.3-2.3,3.3-6.8C308.3,40.1,307.2,37.8,305.1,37.8z"/>
			<path class="st5" d="M320,54c-1.9,0-3.4-0.8-4.5-2.3s-1.6-3.7-1.6-6.6c0-3.2,0.6-5.6,1.7-7.2c1.1-1.6,2.8-2.4,4.9-2.4
				c4.1,0,6.1,3.1,6.1,9.2c0,3-0.6,5.4-1.7,6.9C323.7,53.2,322,54,320,54z M320.3,37.8c-2.2,0-3.4,2.4-3.4,7.2
				c0,4.5,1.1,6.7,3.3,6.7c2.2,0,3.3-2.3,3.3-6.8C323.5,40.1,322.4,37.8,320.3,37.8z"/>
			<path class="st5" d="M335.9,35.4v18.3h-3V38.9c-0.5,0.4-1.1,0.7-1.7,1s-1.3,0.5-2.1,0.7v-2.5c0.5-0.2,1-0.3,1.4-0.5
				c0.5-0.2,0.9-0.4,1.4-0.6c0.5-0.2,0.9-0.5,1.4-0.7c0.5-0.3,0.9-0.6,1.4-0.9H335.9z"/>
			<path class="st5" d="M347,35.4v18.3h-3V38.9c-0.5,0.4-1.1,0.7-1.7,1s-1.3,0.5-2.1,0.7v-2.5c0.5-0.2,1-0.3,1.4-0.5
				c0.5-0.2,0.9-0.4,1.4-0.6c0.5-0.2,0.9-0.5,1.4-0.7c0.5-0.3,0.9-0.6,1.4-0.9H347z"/>
			<path class="st5" d="M358.2,35.4v18.3h-3V38.9c-0.5,0.4-1.1,0.7-1.7,1s-1.3,0.5-2.1,0.7v-2.5c0.5-0.2,1-0.3,1.4-0.5
				c0.5-0.2,0.9-0.4,1.4-0.6c0.5-0.2,0.9-0.5,1.4-0.7c0.5-0.3,0.9-0.6,1.4-0.9H358.2z"/>
			<path class="st5" d="M368.5,54c-1.9,0-3.4-0.8-4.5-2.3s-1.6-3.7-1.6-6.6c0-3.2,0.6-5.6,1.7-7.2c1.1-1.6,2.8-2.4,4.9-2.4
				c4.1,0,6.1,3.1,6.1,9.2c0,3-0.6,5.4-1.7,6.9C372.1,53.2,370.5,54,368.5,54z M368.8,37.8c-2.2,0-3.4,2.4-3.4,7.2
				c0,4.5,1.1,6.7,3.3,6.7c2.2,0,3.3-2.3,3.3-6.8C372,40.1,370.9,37.8,368.8,37.8z"/>
			<path class="st5" d="M169.5,79.6c-1.9,0-3.4-0.8-4.5-2.3s-1.6-3.7-1.6-6.6c0-3.2,0.6-5.6,1.7-7.2c1.1-1.6,2.8-2.4,4.9-2.4
				c4.1,0,6.1,3.1,6.1,9.2c0,3-0.6,5.4-1.7,6.9C173.1,78.8,171.5,79.6,169.5,79.6z M169.8,63.4c-2.2,0-3.4,2.4-3.4,7.2
				c0,4.5,1.1,6.7,3.3,6.7s3.3-2.3,3.3-6.8C173,65.8,171.9,63.4,169.8,63.4z"/>
			<path class="st5" d="M185.2,61v18.3h-3V64.5c-0.5,0.4-1.1,0.7-1.7,1c-0.6,0.3-1.3,0.5-2.1,0.7v-2.5c0.5-0.2,1-0.3,1.4-0.5
				c0.5-0.2,0.9-0.4,1.4-0.6c0.5-0.2,0.9-0.5,1.4-0.7c0.5-0.3,0.9-0.6,1.4-0.9C184,61,185.2,61,185.2,61z"/>
			<path class="st5" d="M195.4,79.6c-1.9,0-3.4-0.8-4.5-2.3s-1.6-3.7-1.6-6.6c0-3.2,0.6-5.6,1.7-7.2c1.1-1.6,2.8-2.4,4.9-2.4
				c4.1,0,6.1,3.1,6.1,9.2c0,3-0.6,5.4-1.7,6.9C199,78.8,197.4,79.6,195.4,79.6z M195.6,63.4c-2.2,0-3.4,2.4-3.4,7.2
				c0,4.5,1.1,6.7,3.3,6.7s3.3-2.3,3.3-6.8C198.8,65.8,197.8,63.4,195.6,63.4z"/>
			<path class="st5" d="M211.1,61v18.3h-3V64.5c-0.5,0.4-1.1,0.7-1.7,1c-0.6,0.3-1.3,0.5-2.1,0.7v-2.5c0.5-0.2,1-0.3,1.4-0.5
				c0.5-0.2,0.9-0.4,1.4-0.6c0.5-0.2,0.9-0.5,1.4-0.7c0.5-0.3,0.9-0.6,1.4-0.9C209.9,61,211.1,61,211.1,61z"/>
			<path class="st5" d="M222,61v18.3h-3V64.5c-0.5,0.4-1.1,0.7-1.7,1c-0.6,0.3-1.3,0.5-2.1,0.7v-2.5c0.5-0.2,1-0.3,1.4-0.5
				c0.5-0.2,0.9-0.4,1.4-0.6c0.5-0.2,0.9-0.5,1.4-0.7c0.5-0.3,0.9-0.6,1.4-0.9C220.8,61,222,61,222,61z"/>
			<path class="st5" d="M233,61v18.3h-3V64.5c-0.5,0.4-1.1,0.7-1.7,1c-0.6,0.3-1.3,0.5-2.1,0.7v-2.5c0.5-0.2,1-0.3,1.4-0.5
				c0.5-0.2,0.9-0.4,1.4-0.6c0.5-0.2,0.9-0.5,1.4-0.7c0.5-0.3,0.9-0.6,1.4-0.9C231.8,61,233,61,233,61z"/>
			<path class="st5" d="M243.1,79.6c-1.9,0-3.4-0.8-4.5-2.3s-1.6-3.7-1.6-6.6c0-3.2,0.6-5.6,1.7-7.2c1.1-1.6,2.8-2.4,4.9-2.4
				c4.1,0,6.1,3.1,6.1,9.2c0,3-0.6,5.4-1.7,6.9C246.8,78.8,245.1,79.6,243.1,79.6z M243.4,63.4c-2.2,0-3.4,2.4-3.4,7.2
				c0,4.5,1.1,6.7,3.3,6.7s3.3-2.3,3.3-6.8C246.6,65.8,245.5,63.4,243.4,63.4z"/>
			<path class="st5" d="M258,79.6c-1.9,0-3.4-0.8-4.5-2.3s-1.6-3.7-1.6-6.6c0-3.2,0.6-5.6,1.7-7.2c1.1-1.6,2.8-2.4,4.9-2.4
				c4.1,0,6.1,3.1,6.1,9.2c0,3-0.6,5.4-1.7,6.9C261.7,78.8,260.1,79.6,258,79.6z M258.3,63.4c-2.2,0-3.4,2.4-3.4,7.2
				c0,4.5,1.1,6.7,3.3,6.7c2.2,0,3.3-2.3,3.3-6.8C261.5,65.8,260.5,63.4,258.3,63.4z"/>
			<path class="st5" d="M273.8,61v18.3h-3V64.5c-0.5,0.4-1.1,0.7-1.7,1s-1.3,0.5-2.1,0.7v-2.5c0.5-0.2,1-0.3,1.4-0.5
				c0.5-0.2,0.9-0.4,1.4-0.6c0.5-0.2,0.9-0.5,1.4-0.7c0.5-0.3,0.9-0.6,1.4-0.9C272.6,61,273.8,61,273.8,61z"/>
			<path class="st5" d="M284.7,61v18.3h-3V64.5c-0.5,0.4-1.1,0.7-1.7,1s-1.3,0.5-2.1,0.7v-2.5c0.5-0.2,1-0.3,1.4-0.5
				c0.5-0.2,0.9-0.4,1.4-0.6c0.5-0.2,0.9-0.5,1.4-0.7c0.5-0.3,0.9-0.6,1.4-0.9C283.5,61,284.7,61,284.7,61z"/>
			<path class="st5" d="M294.9,79.6c-1.9,0-3.4-0.8-4.5-2.3s-1.6-3.7-1.6-6.6c0-3.2,0.6-5.6,1.7-7.2c1.1-1.6,2.8-2.4,4.9-2.4
				c4.1,0,6.1,3.1,6.1,9.2c0,3-0.6,5.4-1.7,6.9C298.5,78.8,296.9,79.6,294.9,79.6z M295.1,63.4c-2.2,0-3.4,2.4-3.4,7.2
				c0,4.5,1.1,6.7,3.3,6.7c2.2,0,3.3-2.3,3.3-6.8C298.3,65.8,297.3,63.4,295.1,63.4z"/>
			<path class="st5" d="M309.8,79.6c-1.9,0-3.4-0.8-4.5-2.3s-1.6-3.7-1.6-6.6c0-3.2,0.6-5.6,1.7-7.2c1.1-1.6,2.8-2.4,4.9-2.4
				c4.1,0,6.1,3.1,6.1,9.2c0,3-0.6,5.4-1.7,6.9C313.5,78.8,311.9,79.6,309.8,79.6z M310.1,63.4c-2.2,0-3.4,2.4-3.4,7.2
				c0,4.5,1.1,6.7,3.3,6.7c2.2,0,3.3-2.3,3.3-6.8C313.3,65.8,312.2,63.4,310.1,63.4z"/>
			<path class="st5" d="M325.6,61v18.3h-3V64.5c-0.5,0.4-1.1,0.7-1.7,1s-1.3,0.5-2.1,0.7v-2.5c0.5-0.2,1-0.3,1.4-0.5
				c0.5-0.2,0.9-0.4,1.4-0.6c0.5-0.2,0.9-0.5,1.4-0.7c0.5-0.3,0.9-0.6,1.4-0.9C324.4,61,325.6,61,325.6,61z"/>
			<path class="st5" d="M336.5,61v18.3h-3V64.5c-0.5,0.4-1.1,0.7-1.7,1s-1.3,0.5-2.1,0.7v-2.5c0.5-0.2,1-0.3,1.4-0.5
				c0.5-0.2,0.9-0.4,1.4-0.6c0.5-0.2,0.9-0.5,1.4-0.7c0.5-0.3,0.9-0.6,1.4-0.9C335.3,61,336.5,61,336.5,61z"/>
			<path class="st5" d="M347.4,61v18.3h-3V64.5c-0.5,0.4-1.1,0.7-1.7,1s-1.3,0.5-2.1,0.7v-2.5c0.5-0.2,1-0.3,1.4-0.5
				c0.5-0.2,0.9-0.4,1.4-0.6c0.5-0.2,0.9-0.5,1.4-0.7c0.5-0.3,0.9-0.6,1.4-0.9C346.2,61,347.4,61,347.4,61z"/>
			<path class="st5" d="M357.5,79.6c-1.9,0-3.4-0.8-4.5-2.3s-1.6-3.7-1.6-6.6c0-3.2,0.6-5.6,1.7-7.2c1.1-1.6,2.8-2.4,4.9-2.4
				c4.1,0,6.1,3.1,6.1,9.2c0,3-0.6,5.4-1.7,6.9C361.2,78.8,359.6,79.6,357.5,79.6z M357.8,63.4c-2.2,0-3.4,2.4-3.4,7.2
				c0,4.5,1.1,6.7,3.3,6.7c2.2,0,3.3-2.3,3.3-6.8C361,65.8,360,63.4,357.8,63.4z"/>
			<path class="st5" d="M373.3,61v18.3h-3V64.5c-0.5,0.4-1.1,0.7-1.7,1s-1.3,0.5-2.1,0.7v-2.5c0.5-0.2,1-0.3,1.4-0.5
				c0.5-0.2,0.9-0.4,1.4-0.6c0.5-0.2,0.9-0.5,1.4-0.7c0.5-0.3,0.9-0.6,1.4-0.9C372.1,61,373.3,61,373.3,61z"/>
			<path class="st5" d="M169.5,105.2c-1.9,0-3.4-0.8-4.5-2.3s-1.6-3.7-1.6-6.6c0-3.2,0.6-5.6,1.7-7.2c1.1-1.6,2.8-2.4,4.9-2.4
				c4.1,0,6.1,3.1,6.1,9.2c0,3-0.6,5.4-1.7,6.9C173.1,104.4,171.5,105.2,169.5,105.2z M169.8,89c-2.2,0-3.4,2.4-3.4,7.2
				c0,4.5,1.1,6.7,3.3,6.7s3.3-2.3,3.3-6.8C173,91.4,171.9,89,169.8,89z"/>
			<path class="st5" d="M185.9,86.6v18.3h-3V90.2c-0.5,0.4-1.1,0.7-1.7,1c-0.6,0.3-1.3,0.5-2.1,0.7v-2.5c0.5-0.2,1-0.3,1.4-0.5
				c0.5-0.2,0.9-0.4,1.4-0.6s0.9-0.5,1.4-0.7c0.5-0.3,0.9-0.6,1.4-0.9L185.9,86.6L185.9,86.6z"/>
			<path class="st5" d="M196.7,105.2c-1.9,0-3.4-0.8-4.5-2.3s-1.6-3.7-1.6-6.6c0-3.2,0.6-5.6,1.7-7.2c1.1-1.6,2.8-2.4,4.9-2.4
				c4.1,0,6.1,3.1,6.1,9.2c0,3-0.6,5.4-1.7,6.9C200.4,104.4,198.8,105.2,196.7,105.2z M197,89c-2.2,0-3.4,2.4-3.4,7.2
				c0,4.5,1.1,6.7,3.3,6.7s3.3-2.3,3.3-6.8C200.2,91.4,199.2,89,197,89z"/>
			<path class="st5" d="M212.4,105.2c-1.9,0-3.4-0.8-4.5-2.3s-1.6-3.7-1.6-6.6c0-3.2,0.6-5.6,1.7-7.2c1.1-1.6,2.8-2.4,4.9-2.4
				c4.1,0,6.1,3.1,6.1,9.2c0,3-0.6,5.4-1.7,6.9C216.1,104.4,214.5,105.2,212.4,105.2z M212.7,89c-2.2,0-3.4,2.4-3.4,7.2
				c0,4.5,1.1,6.7,3.3,6.7s3.3-2.3,3.3-6.8C215.9,91.4,214.8,89,212.7,89z"/>
			<path class="st5" d="M228.9,86.6v18.3h-3V90.2c-0.5,0.4-1.1,0.7-1.7,1c-0.6,0.3-1.3,0.5-2.1,0.7v-2.5c0.5-0.2,1-0.3,1.4-0.5
				c0.5-0.2,0.9-0.4,1.4-0.6s0.9-0.5,1.4-0.7c0.5-0.3,0.9-0.6,1.4-0.9L228.9,86.6L228.9,86.6z"/>
			<path class="st5" d="M240.5,86.6v18.3h-3V90.2c-0.5,0.4-1.1,0.7-1.7,1c-0.6,0.3-1.3,0.5-2.1,0.7v-2.5c0.5-0.2,1-0.3,1.4-0.5
				c0.5-0.2,0.9-0.4,1.4-0.6s0.9-0.5,1.4-0.7c0.5-0.3,0.9-0.6,1.4-0.9L240.5,86.6L240.5,86.6z"/>
			<path class="st5" d="M251.3,105.2c-1.9,0-3.4-0.8-4.5-2.3s-1.6-3.7-1.6-6.6c0-3.2,0.6-5.6,1.7-7.2c1.1-1.6,2.8-2.4,4.9-2.4
				c4.1,0,6.1,3.1,6.1,9.2c0,3-0.6,5.4-1.7,6.9C255,104.4,253.4,105.2,251.3,105.2z M251.6,89c-2.2,0-3.4,2.4-3.4,7.2
				c0,4.5,1.1,6.7,3.3,6.7s3.3-2.3,3.3-6.8C254.8,91.4,253.7,89,251.6,89z"/>
			<path class="st5" d="M266.9,105.2c-1.9,0-3.4-0.8-4.5-2.3s-1.6-3.7-1.6-6.6c0-3.2,0.6-5.6,1.7-7.2s2.8-2.4,4.9-2.4
				c4.1,0,6.1,3.1,6.1,9.2c0,3-0.6,5.4-1.7,6.9C270.6,104.4,269,105.2,266.9,105.2z M267.2,89c-2.2,0-3.4,2.4-3.4,7.2
				c0,4.5,1.1,6.7,3.3,6.7c2.2,0,3.3-2.3,3.3-6.8C270.4,91.4,269.4,89,267.2,89z"/>
			<path class="st5" d="M283.4,86.6v18.3h-3V90.2c-0.5,0.4-1.1,0.7-1.7,1s-1.3,0.5-2.1,0.7v-2.5c0.5-0.2,1-0.3,1.4-0.5
				c0.5-0.2,0.9-0.4,1.4-0.6s0.9-0.5,1.4-0.7c0.5-0.3,0.9-0.6,1.4-0.9L283.4,86.6L283.4,86.6z"/>
			<path class="st5" d="M294.2,105.2c-1.9,0-3.4-0.8-4.5-2.3s-1.6-3.7-1.6-6.6c0-3.2,0.6-5.6,1.7-7.2s2.8-2.4,4.9-2.4
				c4.1,0,6.1,3.1,6.1,9.2c0,3-0.6,5.4-1.7,6.9C297.9,104.4,296.3,105.2,294.2,105.2z M294.5,89c-2.2,0-3.4,2.4-3.4,7.2
				c0,4.5,1.1,6.7,3.3,6.7c2.2,0,3.3-2.3,3.3-6.8C297.7,91.4,296.6,89,294.5,89z"/>
			<path class="st5" d="M310.7,86.6v18.3h-3V90.2c-0.5,0.4-1.1,0.7-1.7,1s-1.3,0.5-2.1,0.7v-2.5c0.5-0.2,1-0.3,1.4-0.5
				c0.5-0.2,0.9-0.4,1.4-0.6s0.9-0.5,1.4-0.7c0.5-0.3,0.9-0.6,1.4-0.9L310.7,86.6L310.7,86.6z"/>
			<path class="st5" d="M321.5,105.2c-1.9,0-3.4-0.8-4.5-2.3s-1.6-3.7-1.6-6.6c0-3.2,0.6-5.6,1.7-7.2s2.8-2.4,4.9-2.4
				c4.1,0,6.1,3.1,6.1,9.2c0,3-0.6,5.4-1.7,6.9C325.2,104.4,323.6,105.2,321.5,105.2z M321.8,89c-2.2,0-3.4,2.4-3.4,7.2
				c0,4.5,1.1,6.7,3.3,6.7c2.2,0,3.3-2.3,3.3-6.8C325,91.4,323.9,89,321.8,89z"/>
			<path class="st5" d="M337.2,105.2c-1.9,0-3.4-0.8-4.5-2.3s-1.6-3.7-1.6-6.6c0-3.2,0.6-5.6,1.7-7.2s2.8-2.4,4.9-2.4
				c4.1,0,6.1,3.1,6.1,9.2c0,3-0.6,5.4-1.7,6.9C340.8,104.4,339.2,105.2,337.2,105.2z M337.5,89c-2.2,0-3.4,2.4-3.4,7.2
				c0,4.5,1.1,6.7,3.3,6.7c2.2,0,3.3-2.3,3.3-6.8C340.6,91.4,339.6,89,337.5,89z"/>
			<path class="st5" d="M352.8,105.2c-1.9,0-3.4-0.8-4.5-2.3s-1.6-3.7-1.6-6.6c0-3.2,0.6-5.6,1.7-7.2s2.8-2.4,4.9-2.4
				c4.1,0,6.1,3.1,6.1,9.2c0,3-0.6,5.4-1.7,6.9C356.5,104.4,354.9,105.2,352.8,105.2z M353.1,89c-2.2,0-3.4,2.4-3.4,7.2
				c0,4.5,1.1,6.7,3.3,6.7c2.2,0,3.3-2.3,3.3-6.8C356.3,91.4,355.2,89,353.1,89z"/>
			<path class="st5" d="M368.5,105.2c-1.9,0-3.4-0.8-4.5-2.3s-1.6-3.7-1.6-6.6c0-3.2,0.6-5.6,1.7-7.2s2.8-2.4,4.9-2.4
				c4.1,0,6.1,3.1,6.1,9.2c0,3-0.6,5.4-1.7,6.9C372.1,104.4,370.5,105.2,368.5,105.2z M368.8,89c-2.2,0-3.4,2.4-3.4,7.2
				c0,4.5,1.1,6.7,3.3,6.7c2.2,0,3.3-2.3,3.3-6.8C372,91.4,370.9,89,368.8,89z"/>
			<path class="st5" d="M169.5,130.9c-1.9,0-3.4-0.8-4.5-2.3s-1.6-3.7-1.6-6.6c0-3.2,0.6-5.6,1.7-7.2c1.1-1.6,2.8-2.4,4.9-2.4
				c4.1,0,6.1,3.1,6.1,9.2c0,3-0.6,5.4-1.7,6.9C173.1,130.1,171.5,130.9,169.5,130.9z M169.8,114.6c-2.2,0-3.4,2.4-3.4,7.2
				c0,4.5,1.1,6.7,3.3,6.7s3.3-2.3,3.3-6.8C173,117,171.9,114.6,169.8,114.6z"/>
			<path class="st5" d="M185.2,112.2v18.3h-3v-14.8c-0.5,0.4-1.1,0.7-1.7,1c-0.6,0.3-1.3,0.5-2.1,0.7V115c0.5-0.2,1-0.3,1.4-0.5
				c0.5-0.2,0.9-0.4,1.4-0.6s0.9-0.5,1.4-0.7c0.5-0.3,0.9-0.6,1.4-0.9h1.2V112.2z"/>
			<path class="st5" d="M195.4,130.9c-1.9,0-3.4-0.8-4.5-2.3s-1.6-3.7-1.6-6.6c0-3.2,0.6-5.6,1.7-7.2c1.1-1.6,2.8-2.4,4.9-2.4
				c4.1,0,6.1,3.1,6.1,9.2c0,3-0.6,5.4-1.7,6.9C199,130.1,197.4,130.9,195.4,130.9z M195.6,114.6c-2.2,0-3.4,2.4-3.4,7.2
				c0,4.5,1.1,6.7,3.3,6.7s3.3-2.3,3.3-6.8C198.8,117,197.8,114.6,195.6,114.6z"/>
			<path class="st5" d="M211.1,112.2v18.3h-3v-14.8c-0.5,0.4-1.1,0.7-1.7,1c-0.6,0.3-1.3,0.5-2.1,0.7V115c0.5-0.2,1-0.3,1.4-0.5
				c0.5-0.2,0.9-0.4,1.4-0.6s0.9-0.5,1.4-0.7c0.5-0.3,0.9-0.6,1.4-0.9h1.2V112.2z"/>
			<path class="st5" d="M222,112.2v18.3h-3v-14.8c-0.5,0.4-1.1,0.7-1.7,1c-0.6,0.3-1.3,0.5-2.1,0.7V115c0.5-0.2,1-0.3,1.4-0.5
				c0.5-0.2,0.9-0.4,1.4-0.6s0.9-0.5,1.4-0.7c0.5-0.3,0.9-0.6,1.4-0.9h1.2V112.2z"/>
			<path class="st5" d="M233,112.2v18.3h-3v-14.8c-0.5,0.4-1.1,0.7-1.7,1c-0.6,0.3-1.3,0.5-2.1,0.7V115c0.5-0.2,1-0.3,1.4-0.5
				c0.5-0.2,0.9-0.4,1.4-0.6s0.9-0.5,1.4-0.7c0.5-0.3,0.9-0.6,1.4-0.9h1.2V112.2z"/>
			<path class="st5" d="M243.1,130.9c-1.9,0-3.4-0.8-4.5-2.3s-1.6-3.7-1.6-6.6c0-3.2,0.6-5.6,1.7-7.2c1.1-1.6,2.8-2.4,4.9-2.4
				c4.1,0,6.1,3.1,6.1,9.2c0,3-0.6,5.4-1.7,6.9C246.8,130.1,245.1,130.9,243.1,130.9z M243.4,114.6c-2.2,0-3.4,2.4-3.4,7.2
				c0,4.5,1.1,6.7,3.3,6.7s3.3-2.3,3.3-6.8C246.6,117,245.5,114.6,243.4,114.6z"/>
			<path class="st5" d="M258,130.9c-1.9,0-3.4-0.8-4.5-2.3s-1.6-3.7-1.6-6.6c0-3.2,0.6-5.6,1.7-7.2c1.1-1.6,2.8-2.4,4.9-2.4
				c4.1,0,6.1,3.1,6.1,9.2c0,3-0.6,5.4-1.7,6.9C261.7,130.1,260.1,130.9,258,130.9z M258.3,114.6c-2.2,0-3.4,2.4-3.4,7.2
				c0,4.5,1.1,6.7,3.3,6.7c2.2,0,3.3-2.3,3.3-6.8C261.5,117,260.5,114.6,258.3,114.6z"/>
			<path class="st5" d="M273.8,112.2v18.3h-3v-14.8c-0.5,0.4-1.1,0.7-1.7,1s-1.3,0.5-2.1,0.7V115c0.5-0.2,1-0.3,1.4-0.5
				c0.5-0.2,0.9-0.4,1.4-0.6s0.9-0.5,1.4-0.7c0.5-0.3,0.9-0.6,1.4-0.9h1.2V112.2z"/>
			<path class="st5" d="M284.7,112.2v18.3h-3v-14.8c-0.5,0.4-1.1,0.7-1.7,1s-1.3,0.5-2.1,0.7V115c0.5-0.2,1-0.3,1.4-0.5
				c0.5-0.2,0.9-0.4,1.4-0.6s0.9-0.5,1.4-0.7c0.5-0.3,0.9-0.6,1.4-0.9h1.2V112.2z"/>
			<path class="st5" d="M294.9,130.9c-1.9,0-3.4-0.8-4.5-2.3s-1.6-3.7-1.6-6.6c0-3.2,0.6-5.6,1.7-7.2s2.8-2.4,4.9-2.4
				c4.1,0,6.1,3.1,6.1,9.2c0,3-0.6,5.4-1.7,6.9C298.5,130.1,296.9,130.9,294.9,130.9z M295.1,114.6c-2.2,0-3.4,2.4-3.4,7.2
				c0,4.5,1.1,6.7,3.3,6.7c2.2,0,3.3-2.3,3.3-6.8C298.3,117,297.3,114.6,295.1,114.6z"/>
			<path class="st5" d="M309.8,130.9c-1.9,0-3.4-0.8-4.5-2.3s-1.6-3.7-1.6-6.6c0-3.2,0.6-5.6,1.7-7.2s2.8-2.4,4.9-2.4
				c4.1,0,6.1,3.1,6.1,9.2c0,3-0.6,5.4-1.7,6.9C313.5,130.1,311.9,130.9,309.8,130.9z M310.1,114.6c-2.2,0-3.4,2.4-3.4,7.2
				c0,4.5,1.1,6.7,3.3,6.7c2.2,0,3.3-2.3,3.3-6.8C313.3,117,312.2,114.6,310.1,114.6z"/>
			<path class="st5" d="M325.6,112.2v18.3h-3v-14.8c-0.5,0.4-1.1,0.7-1.7,1s-1.3,0.5-2.1,0.7V115c0.5-0.2,1-0.3,1.4-0.5
				c0.5-0.2,0.9-0.4,1.4-0.6s0.9-0.5,1.4-0.7c0.5-0.3,0.9-0.6,1.4-0.9h1.2V112.2z"/>
			<path class="st5" d="M336.5,112.2v18.3h-3v-14.8c-0.5,0.4-1.1,0.7-1.7,1s-1.3,0.5-2.1,0.7V115c0.5-0.2,1-0.3,1.4-0.5
				c0.5-0.2,0.9-0.4,1.4-0.6s0.9-0.5,1.4-0.7c0.5-0.3,0.9-0.6,1.4-0.9h1.2V112.2z"/>
			<path class="st5" d="M347.4,112.2v18.3h-3v-14.8c-0.5,0.4-1.1,0.7-1.7,1s-1.3,0.5-2.1,0.7V115c0.5-0.2,1-0.3,1.4-0.5
				c0.5-0.2,0.9-0.4,1.4-0.6s0.9-0.5,1.4-0.7c0.5-0.3,0.9-0.6,1.4-0.9h1.2V112.2z"/>
			<path class="st5" d="M357.5,130.9c-1.9,0-3.4-0.8-4.5-2.3s-1.6-3.7-1.6-6.6c0-3.2,0.6-5.6,1.7-7.2s2.8-2.4,4.9-2.4
				c4.1,0,6.1,3.1,6.1,9.2c0,3-0.6,5.4-1.7,6.9C361.2,130.1,359.6,130.9,357.5,130.9z M357.8,114.6c-2.2,0-3.4,2.4-3.4,7.2
				c0,4.5,1.1,6.7,3.3,6.7c2.2,0,3.3-2.3,3.3-6.8C361,117,360,114.6,357.8,114.6z"/>
			<path class="st5" d="M373.3,112.2v18.3h-3v-14.8c-0.5,0.4-1.1,0.7-1.7,1s-1.3,0.5-2.1,0.7V115c0.5-0.2,1-0.3,1.4-0.5
				c0.5-0.2,0.9-0.4,1.4-0.6s0.9-0.5,1.4-0.7c0.5-0.3,0.9-0.6,1.4-0.9h1.2V112.2z"/>
		</g>
	</g>
	<g class="st6">
		<path class="st5" d="M174.7,10v18.1h-2.9V13.5c-0.5,0.4-1.1,0.7-1.7,0.9c-0.6,0.3-1.3,0.5-2,0.7v-2.4c0.5-0.2,0.9-0.3,1.4-0.5
			c0.4-0.2,0.9-0.4,1.3-0.6c0.4-0.2,0.9-0.5,1.3-0.7c0.4-0.3,0.9-0.6,1.4-0.9C173.5,10,174.7,10,174.7,10z"/>
		<path class="st5" d="M184.3,28.4c-1.8,0-3.3-0.8-4.3-2.3s-1.5-3.7-1.5-6.5c0-3.1,0.5-5.5,1.6-7.1s2.6-2.4,4.7-2.4
			c3.9,0,5.8,3,5.8,9.1c0,3-0.5,5.3-1.6,6.8C187.8,27.6,186.3,28.4,184.3,28.4z M184.6,12.4c-2.1,0-3.2,2.4-3.2,7.1
			c0,4.4,1.1,6.6,3.2,6.6c2.1,0,3.1-2.2,3.1-6.7C187.6,14.7,186.6,12.4,184.6,12.4z"/>
		<path class="st5" d="M198.5,28.4c-1.8,0-3.3-0.8-4.3-2.3s-1.5-3.7-1.5-6.5c0-3.1,0.5-5.5,1.6-7.1s2.6-2.4,4.7-2.4
			c3.9,0,5.8,3,5.8,9.1c0,3-0.5,5.3-1.6,6.8C202,27.6,200.5,28.4,198.5,28.4z M198.8,12.4c-2.1,0-3.2,2.4-3.2,7.1
			c0,4.4,1.1,6.6,3.2,6.6c2.1,0,3.1-2.2,3.1-6.7C201.9,14.7,200.8,12.4,198.8,12.4z"/>
		<path class="st5" d="M213.5,10v18.1h-2.9V13.5c-0.5,0.4-1.1,0.7-1.7,0.9c-0.6,0.3-1.3,0.5-2,0.7v-2.4c0.5-0.2,0.9-0.3,1.4-0.5
			c0.4-0.2,0.9-0.4,1.3-0.6c0.4-0.2,0.9-0.5,1.3-0.7c0.4-0.3,0.9-0.6,1.4-0.9C212.3,10,213.5,10,213.5,10z"/>
		<path class="st5" d="M223.9,10v18.1H221V13.5c-0.5,0.4-1.1,0.7-1.7,0.9c-0.6,0.3-1.3,0.5-2,0.7v-2.4c0.5-0.2,0.9-0.3,1.4-0.5
			c0.4-0.2,0.9-0.4,1.3-0.6c0.4-0.2,0.9-0.5,1.3-0.7c0.4-0.3,0.9-0.6,1.4-0.9C222.7,10,223.9,10,223.9,10z"/>
		<path class="st5" d="M233.4,28.4c-1.8,0-3.3-0.8-4.3-2.3s-1.5-3.7-1.5-6.5c0-3.1,0.5-5.5,1.6-7.1s2.6-2.4,4.7-2.4
			c3.9,0,5.8,3,5.8,9.1c0,3-0.5,5.3-1.6,6.8C237,27.6,235.4,28.4,233.4,28.4z M233.7,12.4c-2.1,0-3.2,2.4-3.2,7.1
			c0,4.4,1.1,6.6,3.2,6.6c2.1,0,3.1-2.2,3.1-6.7C236.8,14.7,235.8,12.4,233.7,12.4z"/>
		<path class="st5" d="M247.7,28.4c-1.8,0-3.3-0.8-4.3-2.3s-1.5-3.7-1.5-6.5c0-3.1,0.5-5.5,1.6-7.1s2.6-2.4,4.7-2.4
			c3.9,0,5.8,3,5.8,9.1c0,3-0.5,5.3-1.6,6.8C251.2,27.6,249.6,28.4,247.7,28.4z M247.9,12.4c-2.1,0-3.2,2.4-3.2,7.1
			c0,4.4,1.1,6.6,3.2,6.6c2.1,0,3.1-2.2,3.1-6.7C251,14.7,250,12.4,247.9,12.4z"/>
		<path class="st5" d="M262.6,10v18.1h-2.9V13.5c-0.5,0.4-1.1,0.7-1.7,0.9c-0.6,0.3-1.3,0.5-2,0.7v-2.4c0.5-0.2,0.9-0.3,1.4-0.5
			c0.4-0.2,0.9-0.4,1.3-0.6c0.4-0.2,0.9-0.5,1.3-0.7c0.4-0.3,0.9-0.6,1.4-0.9C261.4,10,262.6,10,262.6,10z"/>
		<path class="st5" d="M272.2,28.4c-1.8,0-3.3-0.8-4.3-2.3s-1.5-3.7-1.5-6.5c0-3.1,0.5-5.5,1.6-7.1s2.6-2.4,4.7-2.4
			c3.9,0,5.8,3,5.8,9.1c0,3-0.5,5.3-1.6,6.8C275.7,27.6,274.2,28.4,272.2,28.4z M272.5,12.4c-2.1,0-3.2,2.4-3.2,7.1
			c0,4.4,1.1,6.6,3.2,6.6s3.1-2.2,3.1-6.7C275.6,14.7,274.5,12.4,272.5,12.4z"/>
		<path class="st5" d="M287.2,10v18.1h-2.9V13.5c-0.5,0.4-1.1,0.7-1.7,0.9c-0.6,0.3-1.3,0.5-2,0.7v-2.4c0.5-0.2,0.9-0.3,1.4-0.5
			c0.4-0.2,0.9-0.4,1.3-0.6c0.4-0.2,0.9-0.5,1.3-0.7c0.4-0.3,0.9-0.6,1.4-0.9C286,10,287.2,10,287.2,10z"/>
		<path class="st5" d="M296.8,28.4c-1.8,0-3.3-0.8-4.3-2.3s-1.5-3.7-1.5-6.5c0-3.1,0.5-5.5,1.6-7.1s2.6-2.4,4.7-2.4
			c3.9,0,5.8,3,5.8,9.1c0,3-0.5,5.3-1.6,6.8C300.3,27.6,298.8,28.4,296.8,28.4z M297.1,12.4c-2.1,0-3.2,2.4-3.2,7.1
			c0,4.4,1.1,6.6,3.2,6.6s3.1-2.2,3.1-6.7C300.1,14.7,299.1,12.4,297.1,12.4z"/>
		<path class="st5" d="M311,28.4c-1.8,0-3.3-0.8-4.3-2.3s-1.5-3.7-1.5-6.5c0-3.1,0.5-5.5,1.6-7.1s2.6-2.4,4.7-2.4
			c3.9,0,5.8,3,5.8,9.1c0,3-0.5,5.3-1.6,6.8C314.5,27.6,313,28.4,311,28.4z M311.3,12.4c-2.1,0-3.2,2.4-3.2,7.1
			c0,4.4,1.1,6.6,3.2,6.6s3.1-2.2,3.1-6.7C314.3,14.7,313.3,12.4,311.3,12.4z"/>
		<path class="st5" d="M325.2,28.4c-1.8,0-3.3-0.8-4.3-2.3s-1.5-3.7-1.5-6.5c0-3.1,0.5-5.5,1.6-7.1s2.6-2.4,4.7-2.4
			c3.9,0,5.8,3,5.8,9.1c0,3-0.5,5.3-1.6,6.8C328.7,27.6,327.2,28.4,325.2,28.4z M325.5,12.4c-2.1,0-3.2,2.4-3.2,7.1
			c0,4.4,1.1,6.6,3.2,6.6s3.1-2.2,3.1-6.7C328.5,14.7,327.5,12.4,325.5,12.4z"/>
		<path class="st5" d="M339.4,28.4c-1.8,0-3.3-0.8-4.3-2.3s-1.5-3.7-1.5-6.5c0-3.1,0.5-5.5,1.6-7.1s2.6-2.4,4.7-2.4
			c3.9,0,5.8,3,5.8,9.1c0,3-0.5,5.3-1.6,6.8C342.9,27.6,341.4,28.4,339.4,28.4z M339.7,12.4c-2.1,0-3.2,2.4-3.2,7.1
			c0,4.4,1.1,6.6,3.2,6.6s3.1-2.2,3.1-6.7C342.8,14.7,341.7,12.4,339.7,12.4z"/>
		<path class="st5" d="M354.4,10v18.1h-2.9V13.5c-0.5,0.4-1.1,0.7-1.7,0.9c-0.6,0.3-1.3,0.5-2,0.7v-2.4c0.5-0.2,0.9-0.3,1.4-0.5
			c0.4-0.2,0.9-0.4,1.3-0.6c0.4-0.2,0.9-0.5,1.3-0.7c0.4-0.3,0.9-0.6,1.4-0.9C353.2,10,354.4,10,354.4,10z"/>
		<path class="st5" d="M364,28.4c-1.8,0-3.3-0.8-4.3-2.3s-1.5-3.7-1.5-6.5c0-3.1,0.5-5.5,1.6-7.1s2.6-2.4,4.7-2.4
			c3.9,0,5.8,3,5.8,9.1c0,3-0.5,5.3-1.6,6.8C367.5,27.6,366,28.4,364,28.4z M364.3,12.4c-2.1,0-3.2,2.4-3.2,7.1
			c0,4.4,1.1,6.6,3.2,6.6s3.1-2.2,3.1-6.7C367.3,14.7,366.3,12.4,364.3,12.4z"/>
		<path class="st5" d="M174.7,35.3v18.1h-2.9V38.8c-0.5,0.4-1.1,0.7-1.7,0.9c-0.6,0.3-1.3,0.5-2,0.7V38c0.5-0.2,0.9-0.3,1.4-0.5
			c0.4-0.2,0.9-0.4,1.3-0.6c0.4-0.2,0.9-0.5,1.3-0.7c0.4-0.3,0.9-0.6,1.4-0.9H174.7z"/>
		<path class="st5" d="M184.6,53.6c-1.8,0-3.3-0.8-4.3-2.3s-1.5-3.7-1.5-6.5c0-3.1,0.5-5.5,1.6-7.1s2.6-2.4,4.7-2.4
			c3.9,0,5.8,3,5.8,9.1c0,3-0.5,5.3-1.6,6.8C188.1,52.8,186.5,53.6,184.6,53.6z M184.9,37.6c-2.1,0-3.2,2.4-3.2,7.1
			c0,4.4,1.1,6.6,3.2,6.6c2.1,0,3.1-2.2,3.1-6.7C187.9,40,186.9,37.6,184.9,37.6z"/>
		<path class="st5" d="M199.8,35.3v18.1h-2.9V38.8c-0.5,0.4-1.1,0.7-1.7,0.9c-0.6,0.3-1.3,0.5-2,0.7V38c0.5-0.2,0.9-0.3,1.4-0.5
			c0.4-0.2,0.9-0.4,1.3-0.6c0.4-0.2,0.9-0.5,1.3-0.7c0.4-0.3,0.9-0.6,1.4-0.9H199.8z"/>
		<path class="st5" d="M209.7,53.6c-1.8,0-3.3-0.8-4.3-2.3s-1.5-3.7-1.5-6.5c0-3.1,0.5-5.5,1.6-7.1s2.6-2.4,4.7-2.4
			c3.9,0,5.8,3,5.8,9.1c0,3-0.5,5.3-1.6,6.8C213.2,52.8,211.6,53.6,209.7,53.6z M209.9,37.6c-2.1,0-3.2,2.4-3.2,7.1
			c0,4.4,1.1,6.6,3.2,6.6c2.1,0,3.1-2.2,3.1-6.7C213,40,212,37.6,209.9,37.6z"/>
		<path class="st5" d="M224.1,53.6c-1.8,0-3.3-0.8-4.3-2.3s-1.5-3.7-1.5-6.5c0-3.1,0.5-5.5,1.6-7.1s2.6-2.4,4.7-2.4
			c3.9,0,5.8,3,5.8,9.1c0,3-0.5,5.3-1.6,6.8C227.6,52.8,226.1,53.6,224.1,53.6z M224.4,37.6c-2.1,0-3.2,2.4-3.2,7.1
			c0,4.4,1.1,6.6,3.2,6.6c2.1,0,3.1-2.2,3.1-6.7C227.4,40,226.4,37.6,224.4,37.6z"/>
		<path class="st5" d="M238.6,53.6c-1.8,0-3.3-0.8-4.3-2.3s-1.5-3.7-1.5-6.5c0-3.1,0.5-5.5,1.6-7.1s2.6-2.4,4.7-2.4
			c3.9,0,5.8,3,5.8,9.1c0,3-0.5,5.3-1.6,6.8C242.1,52.8,240.6,53.6,238.6,53.6z M238.9,37.6c-2.1,0-3.2,2.4-3.2,7.1
			c0,4.4,1.1,6.6,3.2,6.6c2.1,0,3.1-2.2,3.1-6.7C241.9,40,240.9,37.6,238.9,37.6z"/>
		<path class="st5" d="M253.8,35.3v18.1H251V38.8c-0.5,0.4-1.1,0.7-1.7,0.9c-0.6,0.3-1.3,0.5-2,0.7V38c0.5-0.2,0.9-0.3,1.4-0.5
			c0.4-0.2,0.9-0.4,1.3-0.6c0.4-0.2,0.9-0.5,1.3-0.7c0.4-0.3,0.9-0.6,1.4-0.9H253.8z"/>
		<path class="st5" d="M263.7,53.6c-1.8,0-3.3-0.8-4.3-2.3s-1.5-3.7-1.5-6.5c0-3.1,0.5-5.5,1.6-7.1s2.6-2.4,4.7-2.4
			c3.9,0,5.8,3,5.8,9.1c0,3-0.5,5.3-1.6,6.8C267.2,52.8,265.6,53.6,263.7,53.6z M264,37.6c-2.1,0-3.2,2.4-3.2,7.1
			c0,4.4,1.1,6.6,3.2,6.6s3.1-2.2,3.1-6.7C267,40,266,37.6,264,37.6z"/>
		<path class="st5" d="M278.1,53.6c-1.8,0-3.3-0.8-4.3-2.3s-1.5-3.7-1.5-6.5c0-3.1,0.5-5.5,1.6-7.1s2.6-2.4,4.7-2.4
			c3.9,0,5.8,3,5.8,9.1c0,3-0.5,5.3-1.6,6.8C281.6,52.8,280.1,53.6,278.1,53.6z M278.4,37.6c-2.1,0-3.2,2.4-3.2,7.1
			c0,4.4,1.1,6.6,3.2,6.6s3.1-2.2,3.1-6.7C281.5,40,280.5,37.6,278.4,37.6z"/>
		<path class="st5" d="M293.4,35.3v18.1h-2.9V38.8c-0.5,0.4-1.1,0.7-1.7,0.9c-0.6,0.3-1.3,0.5-2,0.7V38c0.5-0.2,0.9-0.3,1.4-0.5
			c0.4-0.2,0.9-0.4,1.3-0.6c0.4-0.2,0.9-0.5,1.3-0.7c0.4-0.3,0.9-0.6,1.4-0.9H293.4z"/>
		<path class="st5" d="M303.2,53.6c-1.8,0-3.3-0.8-4.3-2.3s-1.5-3.7-1.5-6.5c0-3.1,0.5-5.5,1.6-7.1s2.6-2.4,4.7-2.4
			c3.9,0,5.8,3,5.8,9.1c0,3-0.5,5.3-1.6,6.8C306.7,52.8,305.2,53.6,303.2,53.6z M303.5,37.6c-2.1,0-3.2,2.4-3.2,7.1
			c0,4.4,1.1,6.6,3.2,6.6s3.1-2.2,3.1-6.7C306.5,40,305.5,37.6,303.5,37.6z"/>
		<path class="st5" d="M317.7,53.6c-1.8,0-3.3-0.8-4.3-2.3s-1.5-3.7-1.5-6.5c0-3.1,0.5-5.5,1.6-7.1s2.6-2.4,4.7-2.4
			c3.9,0,5.8,3,5.8,9.1c0,3-0.5,5.3-1.6,6.8C321.2,52.8,319.7,53.6,317.7,53.6z M318,37.6c-2.1,0-3.2,2.4-3.2,7.1
			c0,4.4,1.1,6.6,3.2,6.6s3.1-2.2,3.1-6.7C321,40,320,37.6,318,37.6z"/>
		<path class="st5" d="M332.9,35.3v18.1H330V38.8c-0.5,0.4-1.1,0.7-1.7,0.9c-0.6,0.3-1.3,0.5-2,0.7V38c0.5-0.2,0.9-0.3,1.4-0.5
			c0.4-0.2,0.9-0.4,1.3-0.6c0.4-0.2,0.9-0.5,1.3-0.7c0.4-0.3,0.9-0.6,1.4-0.9H332.9z"/>
		<path class="st5" d="M343.5,35.3v18.1h-2.9V38.8c-0.5,0.4-1.1,0.7-1.7,0.9c-0.6,0.3-1.3,0.5-2,0.7V38c0.5-0.2,0.9-0.3,1.4-0.5
			c0.4-0.2,0.9-0.4,1.3-0.6c0.4-0.2,0.9-0.5,1.3-0.7c0.4-0.3,0.9-0.6,1.4-0.9H343.5z"/>
		<path class="st5" d="M354.1,35.3v18.1h-2.9V38.8c-0.5,0.4-1.1,0.7-1.7,0.9c-0.6,0.3-1.3,0.5-2,0.7V38c0.5-0.2,0.9-0.3,1.4-0.5
			c0.4-0.2,0.9-0.4,1.3-0.6c0.4-0.2,0.9-0.5,1.3-0.7c0.4-0.3,0.9-0.6,1.4-0.9H354.1z"/>
		<path class="st5" d="M364,53.6c-1.8,0-3.3-0.8-4.3-2.3s-1.5-3.7-1.5-6.5c0-3.1,0.5-5.5,1.6-7.1s2.6-2.4,4.7-2.4
			c3.9,0,5.8,3,5.8,9.1c0,3-0.5,5.3-1.6,6.8C367.5,52.8,366,53.6,364,53.6z M364.3,37.6c-2.1,0-3.2,2.4-3.2,7.1
			c0,4.4,1.1,6.6,3.2,6.6s3.1-2.2,3.1-6.7C367.3,40,366.3,37.6,364.3,37.6z"/>
		<path class="st5" d="M174,78.9c-1.8,0-3.3-0.8-4.3-2.3s-1.5-3.7-1.5-6.5c0-3.1,0.5-5.5,1.6-7.1s2.6-2.4,4.7-2.4
			c3.9,0,5.8,3,5.8,9.1c0,3-0.5,5.3-1.6,6.8C177.5,78.1,175.9,78.9,174,78.9z M174.2,62.9c-2.1,0-3.2,2.4-3.2,7.1
			c0,4.4,1.1,6.6,3.2,6.6c2.1,0,3.1-2.2,3.1-6.7C177.3,65.2,176.3,62.9,174.2,62.9z"/>
		<path class="st5" d="M189,60.5v18.1h-2.9V64c-0.5,0.4-1.1,0.7-1.7,0.9c-0.6,0.3-1.3,0.5-2,0.7v-2.4c0.5-0.2,0.9-0.3,1.4-0.5
			c0.4-0.2,0.9-0.4,1.3-0.6c0.4-0.2,0.9-0.5,1.3-0.7c0.4-0.3,0.9-0.6,1.4-0.9C187.8,60.5,189,60.5,189,60.5z"/>
		<path class="st5" d="M198.7,78.9c-1.8,0-3.3-0.8-4.3-2.3s-1.5-3.7-1.5-6.5c0-3.1,0.5-5.5,1.6-7.1s2.6-2.4,4.7-2.4
			c3.9,0,5.8,3,5.8,9.1c0,3-0.5,5.3-1.6,6.8C202.2,78.1,200.7,78.9,198.7,78.9z M199,62.9c-2.1,0-3.2,2.4-3.2,7.1
			c0,4.4,1.1,6.6,3.2,6.6c2.1,0,3.1-2.2,3.1-6.7C202,65.2,201,62.9,199,62.9z"/>
		<path class="st5" d="M213.7,60.5v18.1h-2.9V64c-0.5,0.4-1.1,0.7-1.7,0.9c-0.6,0.3-1.3,0.5-2,0.7v-2.4c0.5-0.2,0.9-0.3,1.4-0.5
			c0.4-0.2,0.9-0.4,1.3-0.6c0.4-0.2,0.9-0.5,1.3-0.7c0.4-0.3,0.9-0.6,1.4-0.9C212.5,60.5,213.7,60.5,213.7,60.5z"/>
		<path class="st5" d="M224.2,60.5v18.1h-2.9V64c-0.5,0.4-1.1,0.7-1.7,0.9c-0.6,0.3-1.3,0.5-2,0.7v-2.4c0.5-0.2,0.9-0.3,1.4-0.5
			c0.4-0.2,0.9-0.4,1.3-0.6c0.4-0.2,0.9-0.5,1.3-0.7c0.4-0.3,0.9-0.6,1.4-0.9C223,60.5,224.2,60.5,224.2,60.5z"/>
		<path class="st5" d="M234.6,60.5v18.1h-2.9V64c-0.5,0.4-1.1,0.7-1.7,0.9c-0.6,0.3-1.3,0.5-2,0.7v-2.4c0.5-0.2,0.9-0.3,1.4-0.5
			c0.4-0.2,0.9-0.4,1.3-0.6c0.4-0.2,0.9-0.5,1.3-0.7c0.4-0.3,0.9-0.6,1.4-0.9C233.4,60.5,234.6,60.5,234.6,60.5z"/>
		<path class="st5" d="M244.3,78.9c-1.8,0-3.3-0.8-4.3-2.3s-1.5-3.7-1.5-6.5c0-3.1,0.5-5.5,1.6-7.1s2.6-2.4,4.7-2.4
			c3.9,0,5.8,3,5.8,9.1c0,3-0.5,5.3-1.6,6.8C247.8,78.1,246.2,78.9,244.3,78.9z M244.5,62.9c-2.1,0-3.2,2.4-3.2,7.1
			c0,4.4,1.1,6.6,3.2,6.6c2.1,0,3.1-2.2,3.1-6.7C247.6,65.2,246.6,62.9,244.5,62.9z"/>
		<path class="st5" d="M258.5,78.9c-1.8,0-3.3-0.8-4.3-2.3s-1.5-3.7-1.5-6.5c0-3.1,0.5-5.5,1.6-7.1s2.6-2.4,4.7-2.4
			c3.9,0,5.8,3,5.8,9.1c0,3-0.5,5.3-1.6,6.8C262.1,78.1,260.5,78.9,258.5,78.9z M258.8,62.9c-2.1,0-3.2,2.4-3.2,7.1
			c0,4.4,1.1,6.6,3.2,6.6s3.1-2.2,3.1-6.7C261.9,65.2,260.9,62.9,258.8,62.9z"/>
		<path class="st5" d="M273.6,60.5v18.1h-2.9V64c-0.5,0.4-1.1,0.7-1.7,0.9c-0.6,0.3-1.3,0.5-2,0.7v-2.4c0.5-0.2,0.9-0.3,1.4-0.5
			c0.4-0.2,0.9-0.4,1.3-0.6c0.4-0.2,0.9-0.5,1.3-0.7c0.4-0.3,0.9-0.6,1.4-0.9C272.4,60.5,273.6,60.5,273.6,60.5z"/>
		<path class="st5" d="M284,60.5v18.1h-2.9V64c-0.5,0.4-1.1,0.7-1.7,0.9c-0.6,0.3-1.3,0.5-2,0.7v-2.4c0.5-0.2,0.9-0.3,1.4-0.5
			c0.4-0.2,0.9-0.4,1.3-0.6c0.4-0.2,0.9-0.5,1.3-0.7c0.4-0.3,0.9-0.6,1.4-0.9C282.8,60.5,284,60.5,284,60.5z"/>
		<path class="st5" d="M293.7,78.9c-1.8,0-3.3-0.8-4.3-2.3s-1.5-3.7-1.5-6.5c0-3.1,0.5-5.5,1.6-7.1s2.6-2.4,4.7-2.4
			c3.9,0,5.8,3,5.8,9.1c0,3-0.5,5.3-1.6,6.8C297.2,78.1,295.7,78.9,293.7,78.9z M294,62.9c-2.1,0-3.2,2.4-3.2,7.1
			c0,4.4,1.1,6.6,3.2,6.6s3.1-2.2,3.1-6.7C297,65.2,296,62.9,294,62.9z"/>
		<path class="st5" d="M308,78.9c-1.8,0-3.3-0.8-4.3-2.3s-1.5-3.7-1.5-6.5c0-3.1,0.5-5.5,1.6-7.1s2.6-2.4,4.7-2.4
			c3.9,0,5.8,3,5.8,9.1c0,3-0.5,5.3-1.6,6.8C311.5,78.1,310,78.9,308,78.9z M308.3,62.9c-2.1,0-3.2,2.4-3.2,7.1
			c0,4.4,1.1,6.6,3.2,6.6s3.1-2.2,3.1-6.7C311.3,65.2,310.3,62.9,308.3,62.9z"/>
		<path class="st5" d="M323,60.5v18.1h-2.9V64c-0.5,0.4-1.1,0.7-1.7,0.9c-0.6,0.3-1.3,0.5-2,0.7v-2.4c0.5-0.2,0.9-0.3,1.4-0.5
			c0.4-0.2,0.9-0.4,1.3-0.6c0.4-0.2,0.9-0.5,1.3-0.7c0.4-0.3,0.9-0.6,1.4-0.9C321.8,60.5,323,60.5,323,60.5z"/>
		<path class="st5" d="M333.5,60.5v18.1h-2.9V64c-0.5,0.4-1.1,0.7-1.7,0.9c-0.6,0.3-1.3,0.5-2,0.7v-2.4c0.5-0.2,0.9-0.3,1.4-0.5
			c0.4-0.2,0.9-0.4,1.3-0.6c0.4-0.2,0.9-0.5,1.3-0.7c0.4-0.3,0.9-0.6,1.4-0.9C332.3,60.5,333.5,60.5,333.5,60.5z"/>
		<path class="st5" d="M343.9,60.5v18.1H341V64c-0.5,0.4-1.1,0.7-1.7,0.9c-0.6,0.3-1.3,0.5-2,0.7v-2.4c0.5-0.2,0.9-0.3,1.4-0.5
			c0.4-0.2,0.9-0.4,1.3-0.6c0.4-0.2,0.9-0.5,1.3-0.7c0.4-0.3,0.9-0.6,1.4-0.9C342.7,60.5,343.9,60.5,343.9,60.5z"/>
		<path class="st5" d="M353.6,78.9c-1.8,0-3.3-0.8-4.3-2.3s-1.5-3.7-1.5-6.5c0-3.1,0.5-5.5,1.6-7.1s2.6-2.4,4.7-2.4
			c3.9,0,5.8,3,5.8,9.1c0,3-0.5,5.3-1.6,6.8C357.1,78.1,355.5,78.9,353.6,78.9z M353.8,62.9c-2.1,0-3.2,2.4-3.2,7.1
			c0,4.4,1.1,6.6,3.2,6.6s3.1-2.2,3.1-6.7C356.9,65.2,355.9,62.9,353.8,62.9z"/>
		<path class="st5" d="M368.6,60.5v18.1h-2.9V64c-0.5,0.4-1.1,0.7-1.7,0.9c-0.6,0.3-1.3,0.5-2,0.7v-2.4c0.5-0.2,0.9-0.3,1.4-0.5
			c0.4-0.2,0.9-0.4,1.3-0.6c0.4-0.2,0.9-0.5,1.3-0.7c0.4-0.3,0.9-0.6,1.4-0.9C367.4,60.5,368.6,60.5,368.6,60.5z"/>
		<path class="st5" d="M174,104.1c-1.8,0-3.3-0.8-4.3-2.3s-1.5-3.7-1.5-6.5c0-3.1,0.5-5.5,1.6-7.1s2.6-2.4,4.7-2.4
			c3.9,0,5.8,3,5.8,9.1c0,3-0.5,5.3-1.6,6.8C177.5,103.3,175.9,104.1,174,104.1z M174.2,88.1c-2.1,0-3.2,2.4-3.2,7.1
			c0,4.4,1.1,6.6,3.2,6.6c2.1,0,3.1-2.2,3.1-6.7C177.3,90.4,176.3,88.1,174.2,88.1z"/>
		<path class="st5" d="M189.7,85.7v18.1h-2.9V89.2c-0.5,0.4-1.1,0.7-1.7,0.9c-0.6,0.3-1.3,0.5-2,0.7v-2.4c0.5-0.2,0.9-0.3,1.4-0.5
			c0.4-0.2,0.9-0.4,1.3-0.6c0.4-0.2,0.9-0.5,1.3-0.7c0.4-0.3,0.9-0.6,1.4-0.9H189.7z"/>
		<path class="st5" d="M200,104.1c-1.8,0-3.3-0.8-4.3-2.3s-1.5-3.7-1.5-6.5c0-3.1,0.5-5.5,1.6-7.1s2.6-2.4,4.7-2.4
			c3.9,0,5.8,3,5.8,9.1c0,3-0.5,5.3-1.6,6.8C203.5,103.3,202,104.1,200,104.1z M200.3,88.1c-2.1,0-3.2,2.4-3.2,7.1
			c0,4.4,1.1,6.6,3.2,6.6c2.1,0,3.1-2.2,3.1-6.7C203.3,90.4,202.3,88.1,200.3,88.1z"/>
		<path class="st5" d="M215,104.1c-1.8,0-3.3-0.8-4.3-2.3s-1.5-3.7-1.5-6.5c0-3.1,0.5-5.5,1.6-7.1s2.6-2.4,4.7-2.4
			c3.9,0,5.8,3,5.8,9.1c0,3-0.5,5.3-1.6,6.8C218.5,103.3,216.9,104.1,215,104.1z M215.2,88.1c-2.1,0-3.2,2.4-3.2,7.1
			c0,4.4,1.1,6.6,3.2,6.6c2.1,0,3.1-2.2,3.1-6.7C218.3,90.4,217.3,88.1,215.2,88.1z"/>
		<path class="st5" d="M230.7,85.7v18.1h-2.9V89.2c-0.5,0.4-1.1,0.7-1.7,0.9c-0.6,0.3-1.3,0.5-2,0.7v-2.4c0.5-0.2,0.9-0.3,1.4-0.5
			c0.4-0.2,0.9-0.4,1.3-0.6c0.4-0.2,0.9-0.5,1.3-0.7c0.4-0.3,0.9-0.6,1.4-0.9H230.7z"/>
		<path class="st5" d="M241.8,85.7v18.1h-2.9V89.2c-0.5,0.4-1.1,0.7-1.7,0.9c-0.6,0.3-1.3,0.5-2,0.7v-2.4c0.5-0.2,0.9-0.3,1.4-0.5
			c0.4-0.2,0.9-0.4,1.3-0.6c0.4-0.2,0.9-0.5,1.3-0.7c0.4-0.3,0.9-0.6,1.4-0.9H241.8z"/>
		<path class="st5" d="M252.1,104.1c-1.8,0-3.3-0.8-4.3-2.3s-1.5-3.7-1.5-6.5c0-3.1,0.5-5.5,1.6-7.1s2.6-2.4,4.7-2.4
			c3.9,0,5.8,3,5.8,9.1c0,3-0.5,5.3-1.6,6.8C255.6,103.3,254.1,104.1,252.1,104.1z M252.4,88.1c-2.1,0-3.2,2.4-3.2,7.1
			c0,4.4,1.1,6.6,3.2,6.6c2.1,0,3.1-2.2,3.1-6.7C255.4,90.4,254.4,88.1,252.4,88.1z"/>
		<path class="st5" d="M267,104.1c-1.8,0-3.3-0.8-4.3-2.3s-1.5-3.7-1.5-6.5c0-3.1,0.5-5.5,1.6-7.1s2.6-2.4,4.7-2.4
			c3.9,0,5.8,3,5.8,9.1c0,3-0.5,5.3-1.6,6.8C270.6,103.3,269,104.1,267,104.1z M267.3,88.1c-2.1,0-3.2,2.4-3.2,7.1
			c0,4.4,1.1,6.6,3.2,6.6s3.1-2.2,3.1-6.7C270.4,90.4,269.4,88.1,267.3,88.1z"/>
		<path class="st5" d="M282.8,85.7v18.1h-2.9V89.2c-0.5,0.4-1.1,0.7-1.7,0.9c-0.6,0.3-1.3,0.5-2,0.7v-2.4c0.5-0.2,0.9-0.3,1.4-0.5
			c0.4-0.2,0.9-0.4,1.3-0.6s0.9-0.5,1.3-0.7c0.4-0.3,0.9-0.6,1.4-0.9H282.8z"/>
		<path class="st5" d="M293.1,104.1c-1.8,0-3.3-0.8-4.3-2.3s-1.5-3.7-1.5-6.5c0-3.1,0.5-5.5,1.6-7.1s2.6-2.4,4.7-2.4
			c3.9,0,5.8,3,5.8,9.1c0,3-0.5,5.3-1.6,6.8C296.6,103.3,295.1,104.1,293.1,104.1z M293.4,88.1c-2.1,0-3.2,2.4-3.2,7.1
			c0,4.4,1.1,6.6,3.2,6.6s3.1-2.2,3.1-6.7C296.4,90.4,295.4,88.1,293.4,88.1z"/>
		<path class="st5" d="M308.8,85.7v18.1H306V89.2c-0.5,0.4-1.1,0.7-1.7,0.9c-0.6,0.3-1.3,0.5-2,0.7v-2.4c0.5-0.2,0.9-0.3,1.4-0.5
			c0.4-0.2,0.9-0.4,1.3-0.6s0.9-0.5,1.3-0.7c0.4-0.3,0.9-0.6,1.4-0.9H308.8z"/>
		<path class="st5" d="M319.1,104.1c-1.8,0-3.3-0.8-4.3-2.3s-1.5-3.7-1.5-6.5c0-3.1,0.5-5.5,1.6-7.1s2.6-2.4,4.7-2.4
			c3.9,0,5.8,3,5.8,9.1c0,3-0.5,5.3-1.6,6.8C322.6,103.3,321.1,104.1,319.1,104.1z M319.4,88.1c-2.1,0-3.2,2.4-3.2,7.1
			c0,4.4,1.1,6.6,3.2,6.6s3.1-2.2,3.1-6.7C322.5,90.4,321.5,88.1,319.4,88.1z"/>
		<path class="st5" d="M334.1,104.1c-1.8,0-3.3-0.8-4.3-2.3s-1.5-3.7-1.5-6.5c0-3.1,0.5-5.5,1.6-7.1s2.6-2.4,4.7-2.4
			c3.9,0,5.8,3,5.8,9.1c0,3-0.5,5.3-1.6,6.8C337.6,103.3,336.1,104.1,334.1,104.1z M334.4,88.1c-2.1,0-3.2,2.4-3.2,7.1
			c0,4.4,1.1,6.6,3.2,6.6s3.1-2.2,3.1-6.7C337.4,90.4,336.4,88.1,334.4,88.1z"/>
		<path class="st5" d="M349,104.1c-1.8,0-3.3-0.8-4.3-2.3s-1.5-3.7-1.5-6.5c0-3.1,0.5-5.5,1.6-7.1s2.6-2.4,4.7-2.4
			c3.9,0,5.8,3,5.8,9.1c0,3-0.5,5.3-1.6,6.8C352.5,103.3,351,104.1,349,104.1z M349.3,88.1c-2.1,0-3.2,2.4-3.2,7.1
			c0,4.4,1.1,6.6,3.2,6.6s3.1-2.2,3.1-6.7C352.4,90.4,351.4,88.1,349.3,88.1z"/>
		<path class="st5" d="M364,104.1c-1.8,0-3.3-0.8-4.3-2.3s-1.5-3.7-1.5-6.5c0-3.1,0.5-5.5,1.6-7.1s2.6-2.4,4.7-2.4
			c3.9,0,5.8,3,5.8,9.1c0,3-0.5,5.3-1.6,6.8C367.5,103.3,366,104.1,364,104.1z M364.3,88.1c-2.1,0-3.2,2.4-3.2,7.1
			c0,4.4,1.1,6.6,3.2,6.6s3.1-2.2,3.1-6.7C367.3,90.4,366.3,88.1,364.3,88.1z"/>
		<path class="st5" d="M174,129.3c-1.8,0-3.3-0.8-4.3-2.3s-1.5-3.7-1.5-6.5c0-3.1,0.5-5.5,1.6-7.1s2.6-2.4,4.7-2.4
			c3.9,0,5.8,3,5.8,9.1c0,3-0.5,5.3-1.6,6.8C177.5,128.5,175.9,129.3,174,129.3z M174.2,113.3c-2.1,0-3.2,2.4-3.2,7.1
			c0,4.4,1.1,6.6,3.2,6.6c2.1,0,3.1-2.2,3.1-6.7C177.3,115.7,176.3,113.3,174.2,113.3z"/>
		<path class="st5" d="M189,111v18h-2.9v-14.6c-0.5,0.4-1.1,0.7-1.7,0.9c-0.6,0.3-1.3,0.5-2,0.7v-2.4c0.5-0.2,0.9-0.3,1.4-0.5
			c0.4-0.2,0.9-0.4,1.3-0.6c0.4-0.2,0.9-0.5,1.3-0.7c0.4-0.3,0.9-0.6,1.4-0.9L189,111L189,111z"/>
		<path class="st5" d="M198.7,129.3c-1.8,0-3.3-0.8-4.3-2.3s-1.5-3.7-1.5-6.5c0-3.1,0.5-5.5,1.6-7.1s2.6-2.4,4.7-2.4
			c3.9,0,5.8,3,5.8,9.1c0,3-0.5,5.3-1.6,6.8C202.2,128.5,200.7,129.3,198.7,129.3z M199,113.3c-2.1,0-3.2,2.4-3.2,7.1
			c0,4.4,1.1,6.6,3.2,6.6c2.1,0,3.1-2.2,3.1-6.7C202,115.7,201,113.3,199,113.3z"/>
		<path class="st5" d="M213.7,111v18h-2.9v-14.6c-0.5,0.4-1.1,0.7-1.7,0.9c-0.6,0.3-1.3,0.5-2,0.7v-2.4c0.5-0.2,0.9-0.3,1.4-0.5
			c0.4-0.2,0.9-0.4,1.3-0.6c0.4-0.2,0.9-0.5,1.3-0.7c0.4-0.3,0.9-0.6,1.4-0.9L213.7,111L213.7,111z"/>
		<path class="st5" d="M224.2,111v18h-2.9v-14.6c-0.5,0.4-1.1,0.7-1.7,0.9c-0.6,0.3-1.3,0.5-2,0.7v-2.4c0.5-0.2,0.9-0.3,1.4-0.5
			c0.4-0.2,0.9-0.4,1.3-0.6c0.4-0.2,0.9-0.5,1.3-0.7c0.4-0.3,0.9-0.6,1.4-0.9L224.2,111L224.2,111z"/>
		<path class="st5" d="M234.6,111v18h-2.9v-14.6c-0.5,0.4-1.1,0.7-1.7,0.9c-0.6,0.3-1.3,0.5-2,0.7v-2.4c0.5-0.2,0.9-0.3,1.4-0.5
			c0.4-0.2,0.9-0.4,1.3-0.6c0.4-0.2,0.9-0.5,1.3-0.7c0.4-0.3,0.9-0.6,1.4-0.9L234.6,111L234.6,111z"/>
		<path class="st5" d="M244.3,129.3c-1.8,0-3.3-0.8-4.3-2.3s-1.5-3.7-1.5-6.5c0-3.1,0.5-5.5,1.6-7.1s2.6-2.4,4.7-2.4
			c3.9,0,5.8,3,5.8,9.1c0,3-0.5,5.3-1.6,6.8C247.8,128.5,246.2,129.3,244.3,129.3z M244.5,113.3c-2.1,0-3.2,2.4-3.2,7.1
			c0,4.4,1.1,6.6,3.2,6.6c2.1,0,3.1-2.2,3.1-6.7C247.6,115.7,246.6,113.3,244.5,113.3z"/>
		<path class="st5" d="M258.5,129.3c-1.8,0-3.3-0.8-4.3-2.3s-1.5-3.7-1.5-6.5c0-3.1,0.5-5.5,1.6-7.1s2.6-2.4,4.7-2.4
			c3.9,0,5.8,3,5.8,9.1c0,3-0.5,5.3-1.6,6.8C262.1,128.5,260.5,129.3,258.5,129.3z M258.8,113.3c-2.1,0-3.2,2.4-3.2,7.1
			c0,4.4,1.1,6.6,3.2,6.6s3.1-2.2,3.1-6.7C261.9,115.7,260.9,113.3,258.8,113.3z"/>
		<path class="st5" d="M273.6,111v18h-2.9v-14.6c-0.5,0.4-1.1,0.7-1.7,0.9c-0.6,0.3-1.3,0.5-2,0.7v-2.4c0.5-0.2,0.9-0.3,1.4-0.5
			c0.4-0.2,0.9-0.4,1.3-0.6s0.9-0.5,1.3-0.7c0.4-0.3,0.9-0.6,1.4-0.9L273.6,111L273.6,111z"/>
		<path class="st5" d="M284,111v18h-2.9v-14.6c-0.5,0.4-1.1,0.7-1.7,0.9c-0.6,0.3-1.3,0.5-2,0.7v-2.4c0.5-0.2,0.9-0.3,1.4-0.5
			c0.4-0.2,0.9-0.4,1.3-0.6s0.9-0.5,1.3-0.7c0.4-0.3,0.9-0.6,1.4-0.9L284,111L284,111z"/>
		<path class="st5" d="M293.7,129.3c-1.8,0-3.3-0.8-4.3-2.3s-1.5-3.7-1.5-6.5c0-3.1,0.5-5.5,1.6-7.1s2.6-2.4,4.7-2.4
			c3.9,0,5.8,3,5.8,9.1c0,3-0.5,5.3-1.6,6.8C297.2,128.5,295.7,129.3,293.7,129.3z M294,113.3c-2.1,0-3.2,2.4-3.2,7.1
			c0,4.4,1.1,6.6,3.2,6.6s3.1-2.2,3.1-6.7C297,115.7,296,113.3,294,113.3z"/>
		<path class="st5" d="M308,129.3c-1.8,0-3.3-0.8-4.3-2.3s-1.5-3.7-1.5-6.5c0-3.1,0.5-5.5,1.6-7.1s2.6-2.4,4.7-2.4
			c3.9,0,5.8,3,5.8,9.1c0,3-0.5,5.3-1.6,6.8C311.5,128.5,310,129.3,308,129.3z M308.3,113.3c-2.1,0-3.2,2.4-3.2,7.1
			c0,4.4,1.1,6.6,3.2,6.6s3.1-2.2,3.1-6.7C311.3,115.7,310.3,113.3,308.3,113.3z"/>
		<path class="st5" d="M323,111v18h-2.9v-14.6c-0.5,0.4-1.1,0.7-1.7,0.9c-0.6,0.3-1.3,0.5-2,0.7v-2.4c0.5-0.2,0.9-0.3,1.4-0.5
			c0.4-0.2,0.9-0.4,1.3-0.6s0.9-0.5,1.3-0.7c0.4-0.3,0.9-0.6,1.4-0.9L323,111L323,111z"/>
		<path class="st5" d="M333.5,111v18h-2.9v-14.6c-0.5,0.4-1.1,0.7-1.7,0.9c-0.6,0.3-1.3,0.5-2,0.7v-2.4c0.5-0.2,0.9-0.3,1.4-0.5
			c0.4-0.2,0.9-0.4,1.3-0.6s0.9-0.5,1.3-0.7c0.4-0.3,0.9-0.6,1.4-0.9L333.5,111L333.5,111z"/>
		<path class="st5" d="M343.9,111v18H341v-14.6c-0.5,0.4-1.1,0.7-1.7,0.9c-0.6,0.3-1.3,0.5-2,0.7v-2.4c0.5-0.2,0.9-0.3,1.4-0.5
			c0.4-0.2,0.9-0.4,1.3-0.6s0.9-0.5,1.3-0.7c0.4-0.3,0.9-0.6,1.4-0.9L343.9,111L343.9,111z"/>
		<path class="st5" d="M353.6,129.3c-1.8,0-3.3-0.8-4.3-2.3s-1.5-3.7-1.5-6.5c0-3.1,0.5-5.5,1.6-7.1s2.6-2.4,4.7-2.4
			c3.9,0,5.8,3,5.8,9.1c0,3-0.5,5.3-1.6,6.8C357.1,128.5,355.5,129.3,353.6,129.3z M353.8,113.3c-2.1,0-3.2,2.4-3.2,7.1
			c0,4.4,1.1,6.6,3.2,6.6s3.1-2.2,3.1-6.7C356.9,115.7,355.9,113.3,353.8,113.3z"/>
		<path class="st5" d="M368.6,111v18h-2.9v-14.6c-0.5,0.4-1.1,0.7-1.7,0.9c-0.6,0.3-1.3,0.5-2,0.7v-2.4c0.5-0.2,0.9-0.3,1.4-0.5
			c0.4-0.2,0.9-0.4,1.3-0.6s0.9-0.5,1.3-0.7c0.4-0.3,0.9-0.6,1.4-0.9L368.6,111L368.6,111z"/>
	</g>
</g>
<g>
	<g class="st6">
		<polygon class="st3" points="217.6,3.7 200.1,3.7 191.3,18.9 200.1,34.1 217.6,34.1 226.3,18.9 		"/>
		<polygon class="st3" points="295.5,54.2 278,54.2 269.3,69.4 278,84.5 295.5,84.5 304.3,69.4 		"/>
		<polygon class="st3" points="234.4,105 216.9,105 208.2,120.1 216.9,135.3 234.4,135.3 243.2,120.1 		"/>
	</g>
	<g>
		<polygon class="st10" points="217.6,3.7 200.1,3.7 191.3,18.9 200.1,34.1 217.6,34.1 226.3,18.9 		"/>
		<polygon class="st10" points="295.5,54.2 278,54.2 269.3,69.4 278,84.5 295.5,84.5 304.3,69.4 		"/>
		<polygon class="st10" points="234.4,105 216.9,105 208.2,120.1 216.9,135.3 234.4,135.3 243.2,120.1 		"/>
		<line class="st10" x1="221.5" y1="27.3" x2="274" y2="61.3"/>
		<line class="st10" x1="274" y1="77.5" x2="238.8" y2="113.1"/>
	</g>
</g>
<g>
	<g>
		<polygon class="st11" points="269.5,69.9 270.7,72 270.7,67.7 		"/>
		<path class="st11" d="M294,62.9c-2.1,0-3.2,2.4-3.2,7.1c0,4.4,1.1,6.6,3.2,6.6s3.1-2.2,3.1-6.7C297,65.2,296,62.9,294,62.9z"/>
		<path class="st11" d="M295,55.1h-17l-4.4,7.7V77l4.4,7.7h17l8.5-14.7L295,55.1z M284,78.6h-2.9V64c-0.5,0.4-1.1,0.7-1.7,0.9
			c-0.6,0.3-1.3,0.5-2,0.7v-2.4c0.5-0.2,0.9-0.3,1.4-0.5c0.4-0.2,0.9-0.4,1.3-0.6c0.4-0.2,0.9-0.5,1.3-0.7c0.4-0.3,0.9-0.6,1.4-0.9
			h1.2L284,78.6L284,78.6z M293.7,78.9c-1.8,0-3.3-0.8-4.3-2.3s-1.5-3.7-1.5-6.5c0-3.1,0.5-5.5,1.6-7.1s2.6-2.4,4.7-2.4
			c3.9,0,5.8,3,5.8,9.1c0,3-0.5,5.3-1.6,6.8C297.2,78.1,295.7,78.9,293.7,78.9z"/>
		<polygon class="st5" points="270.7,67.7 270.7,72 273.6,77 273.6,62.8 		"/>
		<path class="st5" d="M281.5,61.4c-0.4,0.3-0.9,0.5-1.3,0.7s-0.9,0.4-1.3,0.6c-0.4,0.2-0.9,0.3-1.4,0.5v2.4c0.8-0.2,1.4-0.4,2-0.7
			c0.6-0.3,1.2-0.6,1.7-0.9v14.6h2.9V60.5h-1.2C282.4,60.8,281.9,61.1,281.5,61.4z"/>
		<path class="st5" d="M294.1,60.6c-2,0-3.6,0.8-4.7,2.4c-1.1,1.6-1.6,4-1.6,7.1c0,2.8,0.5,5,1.5,6.5s2.5,2.3,4.3,2.3
			c2,0,3.5-0.8,4.6-2.4s1.6-3.9,1.6-6.8C299.9,63.6,298,60.6,294.1,60.6z M293.9,76.6c-2.1,0-3.2-2.2-3.2-6.6c0-4.7,1.1-7.1,3.2-7.1
			c2,0,3,2.3,3,7C297,74.3,296,76.6,293.9,76.6z"/>
	</g>
	<g>
		<path class="st11" d="M238.4,120.6c0-2.2,0.3-4,0.8-5.5l-5.2-9h-17l-3.3,5.7V129h-0.5l3.8,6.6h17l5.4-9.4
			C238.8,124.8,238.4,122.9,238.4,120.6z M224.2,129h-2.9v-14.6c-0.5,0.4-1.1,0.7-1.7,0.9c-0.6,0.3-1.3,0.5-2,0.7v-2.4
			c0.5-0.2,0.9-0.3,1.4-0.5c0.4-0.2,0.9-0.4,1.3-0.6c0.4-0.2,0.9-0.5,1.3-0.7c0.4-0.3,0.9-0.6,1.4-0.9h1.2V129z M234.6,129h-2.9
			v-14.6c-0.5,0.4-1.1,0.7-1.7,0.9c-0.6,0.3-1.3,0.5-2,0.7v-2.4c0.5-0.2,0.9-0.3,1.4-0.5c0.4-0.2,0.9-0.4,1.3-0.6
			c0.4-0.2,0.9-0.5,1.3-0.7c0.4-0.3,0.9-0.6,1.4-0.9h1.2V129z"/>
		<path class="st11" d="M241.5,122.8l1.1-1.9l-1.2-2.1c0,0.5,0,1,0,1.6C241.3,121.3,241.4,122.1,241.5,122.8z"/>
		<polygon class="st11" points="208.5,120.9 210.9,125 210.9,116.8 		"/>
		<polygon class="st5" points="213.7,111.8 210.9,116.8 210.9,125 213.2,129 213.7,129 		"/>
		<path class="st5" d="M221.6,111.9c-0.4,0.3-0.9,0.5-1.3,0.7c-0.4,0.2-0.9,0.4-1.3,0.6c-0.4,0.2-0.9,0.3-1.4,0.5v2.4
			c0.8-0.2,1.4-0.4,2-0.7c0.6-0.3,1.2-0.6,1.7-0.9V129h2.9v-18H223C222.5,111.3,222,111.6,221.6,111.9z"/>
		<path class="st5" d="M232,111.9c-0.4,0.3-0.9,0.5-1.3,0.7c-0.4,0.2-0.9,0.4-1.3,0.6c-0.4,0.2-0.9,0.3-1.4,0.5v2.4
			c0.8-0.2,1.4-0.4,2-0.7c0.6-0.3,1.2-0.6,1.7-0.9V129h2.9v-18h-1.2C232.9,111.3,232.5,111.6,232,111.9z"/>
		<path class="st5" d="M239.5,126.2l2-3.5c-0.1-0.7-0.1-1.5-0.1-2.3c0-0.6,0-1.1,0-1.6l-2.2-3.7c-0.5,1.4-0.8,3.3-0.8,5.5
			C238.4,122.9,238.8,124.8,239.5,126.2z"/>
	</g>
	<g>
		<path class="st11" d="M192.5,18.9l0.2,0.3c0-0.2,0-0.4,0-0.6L192.5,18.9z"/>
		<path class="st11" d="M221,28.1V13.5c-0.5,0.4-1.1,0.7-1.7,0.9c-0.6,0.3-1.3,0.5-2,0.7v-2.4c0.5-0.2,0.9-0.3,1.4-0.5
			c0.4-0.2,0.9-0.4,1.3-0.6c0.4-0.2,0.9-0.5,1.3-0.7c0.2-0.1,0.3-0.2,0.5-0.3L218,4.1h-17l-3.6,6.2c0.5-0.1,1-0.2,1.5-0.2
			c3.9,0,5.8,3,5.8,9.1c0,3-0.5,5.3-1.6,6.8c-1.1,1.6-2.6,2.4-4.6,2.4c-0.2,0-0.4,0-0.5,0l3,5.3h17l3.2-5.5H221V28.1z M213.5,28.1
			h-2.9V13.5c-0.5,0.4-1.1,0.7-1.7,0.9c-0.6,0.3-1.3,0.5-2,0.7v-2.4c0.5-0.2,0.9-0.3,1.4-0.5c0.4-0.2,0.9-0.4,1.3-0.6
			c0.4-0.2,0.9-0.5,1.3-0.7c0.4-0.3,0.9-0.6,1.4-0.9h1.2V28.1z"/>
		<path class="st11" d="M201.9,19.4c0-4.6-1-7-3-7c-2.1,0-3.2,2.4-3.2,7.1c0,4.4,1.1,6.6,3.2,6.6C200.8,26.1,201.9,23.9,201.9,19.4z
			"/>
		<polygon class="st11" points="226.6,18.9 223.9,14.2 223.9,23.5 		"/>
		<path class="st5" d="M203.1,26c1.1-1.6,1.6-3.9,1.6-6.8c0-6-1.9-9.1-5.8-9.1c-0.5,0-1,0.1-1.5,0.2l-4.8,8.3c0,0.2,0,0.4,0,0.6
			l5.3,9.2c0.2,0,0.4,0,0.5,0C200.5,28.4,202,27.6,203.1,26z M195.6,19.5c0-4.7,1.1-7.1,3.2-7.1c2,0,3,2.3,3,7c0,4.5-1,6.7-3.1,6.7
			C196.6,26.1,195.6,23.9,195.6,19.5z"/>
		<path class="st5" d="M210.9,10.9c-0.4,0.3-0.9,0.5-1.3,0.7c-0.4,0.2-0.9,0.4-1.3,0.6c-0.4,0.2-0.9,0.3-1.4,0.5v2.4
			c0.8-0.2,1.4-0.4,2-0.7s1.2-0.6,1.7-0.9v14.6h2.9V10h-1.2C211.8,10.4,211.4,10.7,210.9,10.9z"/>
		<path class="st5" d="M220,11.6c-0.4,0.2-0.9,0.4-1.3,0.6c-0.4,0.2-0.9,0.3-1.4,0.5v2.4c0.8-0.2,1.4-0.4,2-0.7s1.2-0.6,1.7-0.9
			v14.6h0.2l2.6-4.5v-9.4l-2.1-3.6c-0.2,0.1-0.3,0.2-0.5,0.3C220.8,11.2,220.4,11.4,220,11.6z"/>
	</g>
</g>
</svg>
