<?xml version="1.0" encoding="utf-8"?>
<!-- Generator: Adobe Illustrator 21.1.0, SVG Export Plug-In . SVG Version: 6.00 Build 0)  -->
<svg version="1.1" id="Layer_1" xmlns="http://www.w3.org/2000/svg" xmlns:xlink="http://www.w3.org/1999/xlink" x="0px" y="0px"
	 viewBox="0 0 400 140" style="enable-background:new 0 0 400 140;" xml:space="preserve">
<style type="text/css">
	.st0{fill:#334154;}
	.st1{opacity:0.35;fill:#2A3548;enable-background:new    ;}
	.st2{fill:#2A3548;}
	.st3{fill:#F25C00;}
	.st4{fill:#1E2937;}
	.st5{fill:#CC4602;}
	.st6{fill:#1D61D8;}
	.st7{fill:#D7DEED;}
	.st8{clip-path:url(#SVGID_2_);}
	.st9{opacity:0.5;fill:#B3BECE;enable-background:new    ;}
	.st10{opacity:0.5;fill:#97A5B7;enable-background:new    ;}
	.st11{fill:#97A5B7;}
	.st12{fill:#B3BECE;}
	.st13{opacity:0.25;fill:#CDD5E0;enable-background:new    ;}
	.st14{opacity:0.1;fill:#2A3548;enable-background:new    ;}
</style>
<rect x="0.2" y="0.2" class="st0" width="400" height="140"/>
<path class="st1" d="M251.1,91.5c0.1-0.7,0.1-1.4,0.1-2.2c0-0.7,0-1.4-0.1-2.1s-0.1-1.4-0.2-2.1l10.7-6.7l-3.9-9.4l-12.3,2.9
	c-0.9-1.1-1.9-2.2-2.9-3.2s-2-1.9-3.2-2.9l2.9-12.3l-9.4-3.9l-6.7,10.7c-0.7-0.1-1.4-0.1-2.1-0.2c-0.7-0.1-1.4-0.1-2.1-0.1
	c-0.7,0-1.4,0-2.2,0.1c-0.7,0.1-1.4,0.1-2.2,0.2l-6.7-10.7l-9.4,3.9l2.9,12.3c-1.1,0.9-2.2,1.9-3.2,2.9s-1.9,2-2.9,3.2L185.9,69
	l-3.9,9.4l10.7,6.7c-0.1,0.7-0.1,1.4-0.2,2.2c-0.1,0.7-0.1,1.4-0.1,2.2c0,0.7,0,1.4,0.1,2.1s0.1,1.4,0.2,2.1l-10.7,6.7l3.9,9.4
	l12.3-2.9c0.9,1.1,1.9,2.2,2.9,3.2s2,1.9,3.2,2.9l-2.9,12.3l9.4,3.9l6.7-10.7c0.7,0.1,1.4,0.1,2.1,0.2c0.7,0.1,1.4,0.1,2.1,0.1
	c0.7,0,1.4,0,2.2-0.1c0.7-0.1,1.4-0.1,2.2-0.2l6.7,10.7l9.4-3.9l-2.9-12.3c1.1-0.9,2.2-1.9,3.2-2.9s1.9-2,2.9-3.2l12.3,2.9l3.9-9.4
	l-10.7-6.7C251,92.9,251.1,92.2,251.1,91.5z M232.9,94c-0.6,1.5-1.5,2.7-2.6,3.8c-1.1,1.1-2.4,1.9-3.8,2.6c-1.5,0.6-3,0.9-4.7,0.9
	s-3.2-0.3-4.7-0.9s-2.7-1.5-3.8-2.6s-1.9-2.4-2.6-3.8c-0.6-1.5-0.9-3-0.9-4.7s0.3-3.2,0.9-4.7c0.6-1.5,1.5-2.7,2.6-3.8
	c1.1-1.1,2.4-1.9,3.8-2.6c1.5-0.6,3-0.9,4.7-0.9s3.2,0.3,4.7,0.9s2.7,1.5,3.8,2.6s1.9,2.4,2.6,3.8c0.6,1.5,0.9,3,0.9,4.7
	C233.8,91,233.5,92.6,232.9,94z"/>
<path class="st1" d="M375,75.8c0.1-1.2,0.2-2.4,0.2-3.7c0-1.2-0.1-2.4-0.2-3.6s-0.2-2.4-0.3-3.6l18.2-11.3l-6.6-16.1l-20.9,4.9
	c-1.6-2-3.2-3.8-4.9-5.4c-1.7-1.6-3.5-3.3-5.4-4.9l4.9-20.9l-16.1-6.6l-11.4,18.2c-1.2-0.1-2.4-0.2-3.6-0.3
	c-1.2-0.1-2.4-0.2-3.6-0.2s-2.5,0.1-3.7,0.2s-2.4,0.2-3.7,0.3L306.5,4.4L290.4,11l4.9,20.9c-2,1.6-3.8,3.2-5.4,4.9s-3.3,3.5-4.9,5.4
	l-21-4.7l-6.6,16.1L275.6,65c-0.1,1.2-0.2,2.5-0.3,3.7c-0.1,1.2-0.2,2.4-0.2,3.7c0,1.2,0.1,2.4,0.2,3.6s0.2,2.4,0.3,3.6l-18.2,11.3
	L264,107l20.9-4.9c1.6,2,3.2,3.8,4.9,5.4c1.7,1.6,3.5,3.3,5.4,4.9l-4.9,20.9l16.1,6.6l11.4-18.2c1.2,0.1,2.4,0.2,3.6,0.3
	c1.2,0.1,2.4,0.2,3.6,0.2s2.5-0.1,3.7-0.2s2.4-0.2,3.7-0.3l11.3,18.2l16.1-6.6l-4.9-20.9c2-1.6,3.8-3.2,5.4-4.9
	c1.6-1.7,3.3-3.5,4.9-5.4l20.9,4.9l6.6-16.1l-18.2-11.4C374.8,78.2,374.9,77,375,75.8z M343.9,80.1c-1.1,2.5-2.5,4.6-4.4,6.5
	s-4,3.3-6.5,4.4s-5.1,1.6-7.9,1.6s-5.5-0.5-7.9-1.6c-2.5-1.1-4.6-2.5-6.5-4.4s-3.3-4-4.4-6.5s-1.6-5.1-1.6-7.9s0.5-5.5,1.6-7.9
	c1.1-2.5,2.5-4.6,4.4-6.5s4-3.3,6.5-4.4c2.5-1.1,5.1-1.6,7.9-1.6s5.5,0.5,7.9,1.6c2.5,1.1,4.6,2.5,6.5,4.4s3.3,4,4.4,6.5
	s1.6,5.1,1.6,7.9S345,77.7,343.9,80.1z"/>
<g>
	<polygon class="st2" points="141.7,97.5 141.7,40.4 92.2,11.8 42.7,40.4 42.7,97.5 92.2,126.1 	"/>
	<polygon class="st3" points="42.7,91.2 92.2,119.8 141.7,91.2 141.7,97.5 92.2,126.1 42.7,97.5 	"/>
	<polygon class="st4" points="141.7,97.5 141.7,40.4 92.2,11.8 92.2,126.1 	"/>
	<polygon class="st5" points="141.7,97.5 141.7,91.2 92.2,119.8 92.2,126.1 	"/>
</g>
<g>
	<polygon class="st3" points="109.3,52.1 113.5,52.1 113.5,87.3 70.4,87.3 70.4,52.1 74.6,52.1 74.6,49.4 67.7,49.4 67.7,90.1 
		116.2,90.1 116.2,49.4 109.3,49.4 	"/>
	<path class="st6" d="M90.6,83.3"/>
	<g>
		<path class="st7" d="M93.3,52.1c0-0.6,0.1-1.1,0.3-1.6c0.2-0.5,0.5-0.9,0.9-1.3c0.4-0.4,0.8-0.7,1.3-0.9s1-0.3,1.6-0.3h10.7v33.9
			h-9.4c-1.9,0-3.7,0.5-5.4,1.4V52.1z M86.5,48c0.6,0,1.1,0.1,1.6,0.3s0.9,0.5,1.3,0.9s0.7,0.8,0.9,1.3c0.2,0.5,0.3,1,0.3,1.6v31.2
			c-1.7-0.9-3.5-1.4-5.4-1.4h-9.4V48H86.5z M73.1,84.6h12.1c0.7,0,1.4,0.1,2,0.2s1.2,0.4,1.7,0.7c0.5,0.3,1,0.6,1.5,1s1,0.8,1.5,1.4
			c0.5-0.5,1-1,1.5-1.4s1-0.7,1.5-1s1.1-0.5,1.7-0.7c0.6-0.1,1.3-0.2,2-0.2h12.1V45.3H97.4c-1.1,0-2.1,0.2-3,0.7
			c-1,0.5-1.7,1.1-2.4,2c-0.6-0.9-1.4-1.5-2.4-2s-2-0.7-3-0.7H73.1V84.6z"/>
		<path class="st3" d="M79.3,44v18.3l3.8-1.9l3.9,1.9V44H79.3z"/>
	</g>
</g>
<path class="st2" d="M239.8,46.2c0-0.4,0.1-0.8,0.1-1.2s0-0.8-0.1-1.2c0-0.4-0.1-0.8-0.1-1.2l6.1-3.8l-2.2-5.3l-6.9,1.6
	c-0.5-0.6-1.1-1.2-1.6-1.8c-0.6-0.5-1.2-1.1-1.8-1.6l1.6-6.9l-5.3-2.2l-3.8,6.1c-0.4,0-0.8-0.1-1.2-0.1s-0.8-0.1-1.2-0.1
	s-0.8,0-1.2,0.1c-0.4,0-0.8,0.1-1.2,0.1l-3.8-6.1l-5.3,2.2l1.6,6.9c-0.7,0.5-1.2,1.1-1.8,1.6c-0.5,0.6-1.1,1.2-1.6,1.8l-6.9-1.6
	l-2.2,5.3l6.1,3.8c0,0.4-0.1,0.8-0.1,1.2s-0.1,0.8-0.1,1.2s0,0.8,0.1,1.2c0,0.4,0.1,0.8,0.1,1.2l-6.1,3.8l2.2,5.3l6.9-1.6
	c0.5,0.6,1.1,1.2,1.6,1.8c0.6,0.5,1.2,1.1,1.8,1.6l-1.6,6.9l5.3,2.2l3.8-6.1c0.4,0,0.8,0.1,1.2,0.1s0.8,0.1,1.2,0.1s0.8,0,1.2-0.1
	c0.4,0,0.8-0.1,1.2-0.1l3.8,6.1l5.3-2.2l-1.6-6.9c0.6-0.5,1.2-1.1,1.8-1.6c0.5-0.6,1.1-1.2,1.6-1.8l6.9,1.6l2.2-5.3l-6.1-3.8
	C239.8,47.1,239.8,46.7,239.8,46.2z M229.5,47.7c-0.4,0.8-0.8,1.5-1.4,2.2c-0.6,0.6-1.3,1.1-2.2,1.4c-0.8,0.4-1.7,0.5-2.6,0.5
	c-0.9,0-1.8-0.2-2.6-0.5c-0.8-0.4-1.5-0.8-2.2-1.4c-0.6-0.6-1.1-1.3-1.4-2.2c-0.4-0.8-0.5-1.7-0.5-2.6c0-0.9,0.2-1.8,0.5-2.6
	c0.4-0.8,0.8-1.5,1.4-2.2c0.6-0.6,1.3-1.1,2.2-1.4c0.8-0.4,1.7-0.5,2.6-0.5c0.9,0,1.8,0.2,2.6,0.5c0.8,0.4,1.5,0.8,2.2,1.4
	c0.6,0.6,1.1,1.3,1.4,2.2c0.4,0.8,0.5,1.7,0.5,2.6C230.1,46,229.9,46.9,229.5,47.7z"/>
<path class="st2" d="M202.1,21.5c0-0.3,0-0.7,0-1s0-0.7,0-1s-0.1-0.7-0.1-1l5.1-3.2l-1.8-4.5l-5.8,1.4c-0.4-0.5-0.9-1-1.4-1.5
	s-1-0.9-1.5-1.4l1.4-5.8l-4.5-1.8l-3.2,5.1c-0.3,0-0.7-0.1-1-0.1s-0.7,0-1,0s-0.7,0-1,0s-0.7,0.1-1,0.1l-3.2-5.1l-4.5,1.8l1.4,5.8
	c-0.5,0.4-1,0.9-1.5,1.4s-0.9,1-1.4,1.5l-5.8-1.4l-1.8,4.5l5.1,3.2c0,0.3-0.1,0.7-0.1,1s0,0.7,0,1s0,0.7,0,1s0.1,0.7,0.1,1l-5.1,3.2
	l1.8,4.5l5.8-1.4c0.4,0.5,0.9,1,1.4,1.5s1,0.9,1.5,1.4l-1.4,5.8l4.5,1.8l3.2-5.1c0.3,0,0.7,0.1,1,0.1s0.7,0,1,0s0.7,0,1,0
	s0.7-0.1,1-0.1l3.2,5.1l4.5-1.8l-1.4-5.8c0.5-0.4,1-0.9,1.5-1.4s0.9-1,1.4-1.5l5.8,1.4l1.8-4.5l-5.1-3.2
	C202.1,22.1,202.1,21.8,202.1,21.5z M193.5,22.7c-0.3,0.7-0.7,1.3-1.2,1.8s-1.1,0.9-1.8,1.2c-0.7,0.3-1.4,0.4-2.2,0.4
	s-1.5-0.1-2.2-0.4s-1.3-0.7-1.8-1.2s-0.9-1.1-1.2-1.8c-0.3-0.7-0.4-1.4-0.4-2.2c0-0.8,0.1-1.5,0.4-2.2c0.3-0.7,0.7-1.3,1.2-1.8
	s1.1-0.9,1.8-1.2s1.4-0.4,2.2-0.4s1.5,0.1,2.2,0.4c0.7,0.3,1.3,0.7,1.8,1.2s0.9,1.1,1.2,1.8c0.3,0.7,0.4,1.4,0.4,2.2
	C193.9,21.3,193.8,22,193.5,22.7z"/>
<path class="st2" d="M202.1,71.2c0-0.3,0-0.7,0-1s0-0.7,0-1s-0.1-0.7-0.1-1l5.1-3.2l-1.8-4.5l-5.8,1.4c-0.4-0.5-0.9-1-1.4-1.5
	s-1-0.9-1.5-1.4l1.4-5.8l-4.5-1.8l-3.2,5.1c-0.3,0-0.7-0.1-1-0.1s-0.7,0-1,0s-0.7,0-1,0s-0.7,0.1-1,0.1l-3.2-5.1l-4.5,1.8L180,59
	c-0.5,0.4-1,0.9-1.5,1.4s-0.9,1-1.4,1.5l-5.8-1.4l-1.8,4.5l5.1,3.2c0,0.3-0.1,0.7-0.1,1s0,0.7,0,1s0,0.7,0,1s0.1,0.7,0.1,1l-5.1,3.2
	l1.8,4.5l5.8-1.4c0.4,0.5,0.9,1,1.4,1.5s1,0.9,1.5,1.4l-1.4,5.8l4.5,1.8l3.2-5.1c0.3,0,0.7,0.1,1,0.1s0.7,0,1,0s0.7,0,1,0
	s0.7-0.1,1-0.1l3.2,5.1l4.5-1.8l-1.4-5.8c0.5-0.4,1-0.9,1.5-1.4s0.9-1,1.4-1.5l5.8,1.4l1.8-4.5l-5.1-3.2
	C202.1,71.9,202.1,71.6,202.1,71.2z M193.5,72.4c-0.3,0.7-0.7,1.3-1.2,1.8s-1.1,0.9-1.8,1.2c-0.7,0.3-1.4,0.4-2.2,0.4
	s-1.5-0.1-2.2-0.4s-1.3-0.7-1.8-1.2s-0.9-1.1-1.2-1.8c-0.3-0.7-0.4-1.4-0.4-2.2c0-0.8,0.1-1.5,0.4-2.2c0.3-0.7,0.7-1.3,1.2-1.8
	s1.1-0.9,1.8-1.2c0.7-0.3,1.4-0.4,2.2-0.4s1.5,0.1,2.2,0.4s1.3,0.7,1.8,1.2s0.9,1.1,1.2,1.8c0.3,0.7,0.4,1.4,0.4,2.2
	S193.8,71.7,193.5,72.4z"/>
<g>
	<g>
		<defs>
			<rect id="SVGID_1_" x="160.9" y="34.9" width="239" height="105.3"/>
		</defs>
		<clipPath id="SVGID_2_">
			<use xlink:href="#SVGID_1_"  style="overflow:visible;"/>
		</clipPath>
		<g class="st8">
			<path class="st2" d="M360.7,56.2L247.6,91.3l20.3,65.3l46-14.3c1.2-0.4,2.4,0.3,2.8,1.5l0.1,0.4l17.4-5.4l-0.1-0.4
				c-0.4-1.2,0.3-2.4,1.5-2.8l45.5-14.1L360.7,56.2z"/>
			<path class="st9" d="M269.6,150.8l45.8-14.2c3.6-1.1,8.5-1.2,9.9,3.3l-1.8-5.8L306,77.5c-1.4-4.5-6.1-7-10.6-5.6l-45.8,14.2
				L269.6,150.8z"/>
			<path class="st10" d="M377.7,118.1l-45.8,14.2c-1.5,0.5-7.9,3.1-6.5,7.6l-1.6-5.1l-17.5-56.5c-1.4-4.5,1.1-9.2,5.6-10.6
				l45.8-14.2L377.7,118.1z"/>
			<path class="st11" d="M373.6,116.9L331.2,130c-4.5,1.4-7.2,5.4-5.8,9.8l-2.3-7.3L305.5,76c-1.4-4.5,1.1-9.2,5.6-10.6l42.4-13.1
				L373.6,116.9z"/>
			<path class="st12" d="M272.3,147.5l42.4-13.1c4.5-1.4,9.2,1.1,10.6,5.6l-2.5-8.1l-17.5-56.5c-1.4-4.5-6.1-7-10.6-5.6l-42.4,13.1
				L272.3,147.5z"/>
			
				<rect x="313.2" y="71.7" transform="matrix(0.9551 -0.2963 0.2963 0.9551 -6.9055 101.2099)" class="st2" width="34.5" height="3.4"/>
			
				<rect x="315.6" y="80.3" transform="matrix(0.9551 -0.2963 0.2963 0.9551 -9.6282 100.4489)" class="st2" width="22" height="3.4"/>
			
				<rect x="341.4" y="74" transform="matrix(0.9551 -0.2963 0.2963 0.9551 -6.8435 106.23)" class="st2" width="11.3" height="3.4"/>
			
				<rect x="262" y="87.5" transform="matrix(0.9551 -0.2963 0.2963 0.9551 -13.8907 86.7433)" class="st2" width="34.5" height="3.4"/>
			
				<rect x="264" y="93.8" transform="matrix(0.9551 -0.2963 0.2963 0.9551 -15.5951 88.1398)" class="st2" width="38" height="3.4"/>
			
				<rect x="266.4" y="102" transform="matrix(0.9551 -0.2963 0.2963 0.9551 -18.107 87.9027)" class="st2" width="29.1" height="3.4"/>
			
				<rect x="268.4" y="108" transform="matrix(0.9551 -0.2963 0.2963 0.9551 -19.6723 89.5616)" class="st2" width="34.5" height="3.4"/>
			<g>
				<path class="st2" d="M352.1,98.5c0,0.1,0.1,0.2,0.1,0.2c0,0.1,0.1,0.2,0.1,0.2c0,0.1,0,0.2,0.1,0.3c0,0.1,0,0.2,0.1,0.3l4.3,1.1
					l-0.6,6l-4.4,0.3c-0.1,0.3-0.3,0.6-0.5,0.9l2.2,3.8l-4.6,3.8l-3.3-2.9c-0.1,0-0.2,0.1-0.2,0.1c-0.1,0-0.2,0.1-0.2,0.1
					s-0.2,0-0.3,0.1c-0.1,0-0.2,0-0.3,0.1l-1.1,4.3l-6-0.6l-0.3-4.4c-0.3-0.1-0.6-0.3-0.9-0.5l-3.8,2.2l-3.8-4.6l2.9-3.3
					c0-0.1-0.1-0.2-0.1-0.2c0-0.1-0.1-0.2-0.1-0.2c0-0.1,0-0.2-0.1-0.3c0-0.1,0-0.2-0.1-0.3l-4.3-1.1l0.6-6l4.4-0.3
					c0.1-0.3,0.3-0.6,0.5-0.9l-2.2-3.8l4.6-3.8l3.3,2.9c0.1,0,0.2-0.1,0.2-0.1c0.1,0,0.2-0.1,0.2-0.1s0.2,0,0.3-0.1
					c0.1,0,0.2,0,0.3-0.1l1.1-4.3l6,0.6l0.3,4.4c0.3,0.1,0.6,0.3,0.9,0.5l3.8-2.2l3.8,4.6L352.1,98.5z M351,100.8
					c-0.1-0.2-0.1-0.5-0.1-0.7s-0.1-0.4-0.2-0.7c-0.1-0.2-0.1-0.4-0.2-0.6s-0.2-0.4-0.3-0.6l2.6-3l-2.1-2.5l-3.5,2
					c-0.4-0.3-0.8-0.5-1.2-0.7c-0.4-0.2-0.8-0.4-1.2-0.6l-0.3-4l-3.2-0.3l-1,3.9c-0.2,0-0.4,0.1-0.7,0.1c-0.2,0.1-0.4,0.1-0.7,0.2
					c-0.2,0.1-0.4,0.1-0.6,0.2s-0.4,0.2-0.6,0.3l-3-2.6l-2.5,2.1l2,3.5c-0.3,0.4-0.5,0.8-0.7,1.2c-0.2,0.4-0.4,0.8-0.6,1.2l-4,0.3
					l-0.3,3.2l3.9,1c0,0.2,0.1,0.5,0.1,0.7s0.1,0.4,0.2,0.7c0.1,0.2,0.1,0.4,0.2,0.6s0.2,0.4,0.3,0.6l-2.6,3l2.1,2.5l3.5-2
					c0.4,0.3,0.8,0.5,1.2,0.7c0.4,0.2,0.8,0.4,1.2,0.6l0.3,4l3.2,0.3l1-3.9c0.2,0,0.4-0.1,0.7-0.1c0.2-0.1,0.4-0.1,0.7-0.2
					c0.2-0.1,0.4-0.1,0.6-0.2s0.4-0.2,0.6-0.3l3,2.6l2.5-2.1l-2-3.5c0.3-0.4,0.5-0.8,0.7-1.2c0.2-0.4,0.4-0.8,0.6-1.2l4-0.3l0.3-3.2
					L351,100.8z M340.1,97.1c0.7-0.2,1.4-0.3,2.2-0.2c0.7,0.1,1.4,0.3,2,0.6c0.6,0.3,1.2,0.8,1.6,1.3c0.5,0.5,0.8,1.2,1,1.9
					c0.2,0.7,0.3,1.4,0.2,2.2c-0.1,0.7-0.3,1.4-0.6,2c-0.3,0.6-0.8,1.2-1.3,1.6c-0.5,0.5-1.2,0.8-1.9,1c-0.7,0.2-1.4,0.3-2.2,0.2
					c-0.7-0.1-1.4-0.3-2-0.6c-0.6-0.3-1.2-0.8-1.6-1.3c-0.5-0.5-0.8-1.2-1-1.9c-0.2-0.7-0.3-1.4-0.2-2.2c0.1-0.7,0.3-1.4,0.6-2
					c0.3-0.6,0.8-1.2,1.3-1.6S339.4,97.3,340.1,97.1z M342.8,105.9c0.5-0.2,1-0.4,1.3-0.7c0.4-0.3,0.7-0.7,0.9-1.1
					c0.2-0.4,0.4-0.9,0.4-1.4c0.1-0.5,0-1-0.2-1.5s-0.4-1-0.7-1.3c-0.3-0.4-0.7-0.7-1.1-0.9c-0.4-0.2-0.9-0.4-1.4-0.4
					c-0.5-0.1-1,0-1.5,0.2s-1,0.4-1.3,0.7c-0.4,0.3-0.7,0.7-0.9,1.1c-0.2,0.4-0.4,0.9-0.4,1.4c-0.1,0.5,0,1,0.2,1.5s0.4,1,0.7,1.3
					c0.3,0.4,0.7,0.7,1.1,0.9c0.4,0.2,0.9,0.4,1.4,0.4S342.3,106.1,342.8,105.9z"/>
			</g>
			<path class="st13" d="M294.7,69.7l-42.4,13.1l2.1,6.7l67.4,38.9l-16.5-53.2C303.9,70.8,299.1,68.3,294.7,69.7z"/>
			<path class="st14" d="M308.4,66.8c-2.7,2.1-4,5.7-2.9,9.2l17.5,56.5l2.3,7.3c-1.1-3.5,0.3-6.6,3.1-8.6L308.4,66.8z"/>
		</g>
	</g>
</g>
</svg>
