<?xml version="1.0" encoding="UTF-8"?>
<svg width="450px" height="450px" viewBox="0 0 450 450" version="1.1" xmlns="http://www.w3.org/2000/svg" xmlns:xlink="http://www.w3.org/1999/xlink">
    <title>Language</title>
    <defs>
        <rect id="path-1" x="0" y="0" width="450" height="450" rx="1"></rect>
    </defs>
    <g id="PlayFab-icons" stroke="none" stroke-width="1" fill="none" fill-rule="evenodd">
        <g id="Language">
            <g id="Rectangle-+-Path-Mask">
                <mask id="mask-2" fill="white">
                    <use xlink:href="#path-1"></use>
                </mask>
                <use id="Mask" fill="#0078D4" xlink:href="#path-1"></use>
            </g>
            <g id="Group" transform="translate(89.000000, 79.000000)" fill="#FFFFFF" fill-rule="nonzero">
                <path d="M0,136.266667 C5.27222222,136.266667 10.2909722,135.252778 15.05625,133.225 C19.8215278,131.197222 23.9277778,128.409028 27.375,124.860417 C30.8222222,121.311806 33.6104167,117.205556 35.7395833,112.541667 C37.86875,107.877778 38.9333333,102.808333 38.9333333,97.3333333 C38.9333333,90.1347222 38.78125,82.9361111 38.4770833,75.7375 C38.1729167,68.5388889 38.3756944,61.5430556 39.0854167,54.75 C39.7951389,47.9569444 41.4173611,41.3159722 43.9520833,34.8270833 C46.4868056,28.3381944 50.4916667,22.4069444 55.9666667,17.0333333 C61.4416667,11.5583333 67.7784722,7.35069444 74.9770833,4.41041667 C82.1756944,1.47013889 89.6277778,0 97.3333333,0 L97.3333333,19.4666667 C91.9597222,19.4666667 86.9409722,20.4805556 82.2770833,22.5083333 C77.6131944,24.5361111 73.5069444,27.3243056 69.9583333,30.8729167 C66.4097222,34.4215278 63.6215278,38.5784722 61.59375,43.34375 C59.5659722,48.1090278 58.5013889,53.1277778 58.4,58.4 C58.4,64.0777778 58.5013889,69.6541667 58.7041667,75.1291667 C58.9069444,80.6041667 58.9576389,86.0284722 58.85625,91.4020833 C58.7548611,96.7756944 58.2479167,101.946528 57.3354167,106.914583 C56.4229167,111.882639 55.0541667,116.698611 53.2291667,121.3625 C51.4041667,126.026389 48.7680556,130.386111 45.3208333,134.441667 C41.8736111,138.497222 37.5645833,142.35 32.39375,146 C37.6659722,149.548611 41.975,153.401389 45.3208333,157.558333 C48.6666667,161.715278 51.3027778,166.075 53.2291667,170.6375 C55.1555556,175.2 56.5243056,179.965278 57.3354167,184.933333 C58.1465278,189.901389 58.6027778,195.072222 58.7041667,200.445833 C58.8055556,205.819444 58.8055556,211.24375 58.7041667,216.71875 C58.6027778,222.19375 58.5013889,227.820833 58.4,233.6 C58.4,238.973611 59.4138889,243.992361 61.4416667,248.65625 C63.4694444,253.320139 66.2576389,257.426389 69.80625,260.975 C73.3548611,264.523611 77.4611111,267.311806 82.125,269.339583 C86.7888889,271.367361 91.8583333,272.431944 97.3333333,272.533333 L97.3333333,292 C89.6277778,292 82.1756944,290.529861 74.9770833,287.589583 C67.7784722,284.649306 61.4416667,280.441667 55.9666667,274.966667 C50.4916667,269.491667 46.5375,263.560417 44.1041667,257.172917 C41.6708333,250.785417 40.0486111,244.195139 39.2375,237.402083 C38.4263889,230.609028 38.1729167,223.5625 38.4770833,216.2625 C38.78125,208.9625 38.9333333,201.763889 38.9333333,194.666667 C38.9333333,189.394444 37.9194444,184.375694 35.8916667,179.610417 C33.8638889,174.845139 31.0756944,170.738889 27.5270833,167.291667 C23.9784722,163.844444 19.8215278,161.05625 15.05625,158.927083 C10.2909722,156.797917 5.27222222,155.733333 0,155.733333 L0,136.266667 Z M175.2,0 C182.905556,0 190.357639,1.47013889 197.55625,4.41041667 C204.754861,7.35069444 211.091667,11.5583333 216.566667,17.0333333 C222.041667,22.5083333 225.995833,28.4395833 228.429167,34.8270833 C230.8625,41.2145833 232.484722,47.8048611 233.295833,54.5979167 C234.106944,61.3909722 234.360417,68.4375 234.05625,75.7375 C233.752083,83.0375 233.6,90.2361111 233.6,97.3333333 C233.6,102.706944 234.613889,107.725694 236.641667,112.389583 C238.669444,117.053472 241.457639,121.159722 245.00625,124.708333 C248.554861,128.256944 252.661111,131.045139 257.325,133.072917 C261.988889,135.100694 267.058333,136.165278 272.533333,136.266667 L272.533333,155.733333 C267.159722,155.733333 262.140972,156.747222 257.477083,158.775 C252.813194,160.802778 248.706944,163.590972 245.158333,167.139583 C241.609722,170.688194 238.821528,174.845139 236.79375,179.610417 C234.765972,184.375694 233.701389,189.394444 233.6,194.666667 C233.6,201.865278 233.752083,209.063889 234.05625,216.2625 C234.360417,223.461111 234.157639,230.456944 233.447917,237.25 C232.738194,244.043056 231.115972,250.684028 228.58125,257.172917 C226.046528,263.661806 222.041667,269.593056 216.566667,274.966667 C211.091667,280.441667 204.754861,284.649306 197.55625,287.589583 C190.357639,290.529861 182.905556,292 175.2,292 L175.2,272.533333 C180.472222,272.533333 185.490972,271.519444 190.25625,269.491667 C195.021528,267.463889 199.127778,264.675694 202.575,261.127083 C206.022222,257.578472 208.810417,253.472222 210.939583,248.808333 C213.06875,244.144444 214.133333,239.075 214.133333,233.6 C214.133333,227.922222 214.031944,222.345833 213.829167,216.870833 C213.626389,211.395833 213.575694,205.971528 213.677083,200.597917 C213.778472,195.224306 214.285417,190.053472 215.197917,185.085417 C216.110417,180.117361 217.479167,175.301389 219.304167,170.6375 C221.129167,165.973611 223.765278,161.613889 227.2125,157.558333 C230.659722,153.502778 234.96875,149.65 240.139583,146 C234.867361,142.451389 230.558333,138.598611 227.2125,134.441667 C223.866667,130.284722 221.230556,125.925 219.304167,121.3625 C217.377778,116.8 216.009028,112.034722 215.197917,107.066667 C214.386806,102.098611 213.930556,96.9277778 213.829167,91.5541667 C213.727778,86.1805556 213.727778,80.75625 213.829167,75.28125 C213.930556,69.80625 214.031944,64.1791667 214.133333,58.4 C214.133333,53.1277778 213.119444,48.1090278 211.091667,43.34375 C209.063889,38.5784722 206.275694,34.4722222 202.727083,31.025 C199.178472,27.5777778 195.021528,24.7895833 190.25625,22.6604167 C185.490972,20.53125 180.472222,19.4666667 175.2,19.4666667 L175.2,0 Z" id="Shape"></path>
            </g>
        </g>
    </g>
</svg>