<?xml version="1.0" encoding="UTF-8"?>
<svg width="450px" height="450px" viewBox="0 0 450 450" version="1.1" xmlns="http://www.w3.org/2000/svg" xmlns:xlink="http://www.w3.org/1999/xlink">
    <title>Game Engine</title>
    <defs>
        <rect id="path-1" x="0" y="0" width="450" height="450" rx="1"></rect>
    </defs>
    <g id="PlayFab-icons" stroke="none" stroke-width="1" fill="none" fill-rule="evenodd">
        <g id="Game-Engine">
            <g id="Rectangle-+-Path-Mask">
                <mask id="mask-2" fill="white">
                    <use xlink:href="#path-1"></use>
                </mask>
                <use id="Mask" fill="#0078D4" xlink:href="#path-1"></use>
            </g>
            <g id="Group" transform="translate(70.000000, 79.000000)" fill="#FFFFFF" fill-rule="nonzero">
                <path d="M292,75.7827676 C292,78.0191471 291.898346,80.2046997 291.695039,82.3394256 C291.491732,84.4741514 291.085117,86.6597041 290.475196,88.8960836 L309.230287,96.6725849 L301.758747,114.665274 L282.851175,106.888773 C278.175109,114.41114 272.075892,120.510357 264.553525,125.186423 L272.330026,144.246475 L254.337337,151.718016 L246.408355,132.810444 C244.273629,133.318712 242.138903,133.6745 240.004178,133.877807 C237.869452,134.081114 235.683899,134.233594 233.44752,134.335248 C231.21114,134.335248 229.025587,134.233594 226.890862,134.030287 C224.756136,133.82698 222.570583,133.420366 220.334204,132.810444 L216.827154,141.349347 L199.901828,131.133159 L202.341514,125.186423 C194.819147,120.510357 188.71993,114.41114 184.043864,106.888773 L164.983812,114.665274 L157.512272,96.6725849 L176.419843,88.8960836 C175.911575,86.7613577 175.555788,84.6266319 175.35248,82.491906 C175.149173,80.3571802 174.996693,78.1208007 174.895039,75.7827676 C174.895039,73.5463882 174.996693,71.3608355 175.2,69.2261097 C175.403307,67.0913838 175.809922,64.956658 176.419843,62.8219321 L157.512272,54.8929504 L164.983812,36.9002611 L184.043864,44.8292428 C186.381897,41.0680592 189.075718,37.6626632 192.125326,34.6130548 C195.174935,31.5634465 198.580331,28.818799 202.341514,26.3791123 L194.565013,7.47154047 L212.557702,0 L220.334204,18.7550914 C222.46893,18.2468233 224.603655,17.8910357 226.738381,17.6877285 C228.873107,17.4844212 231.109487,17.3319408 233.44752,17.2302872 C235.683899,17.2302872 237.869452,17.3319408 240.004178,17.535248 C242.138903,17.7385553 244.273629,18.1451697 246.408355,18.7550914 L254.337337,0 L272.330026,7.47154047 L264.553525,26.3791123 C272.075892,31.0551784 278.175109,37.1543951 282.851175,44.6767624 L301.758747,36.9002611 L309.230287,54.8929504 L290.475196,62.8219321 C290.983464,64.956658 291.339252,67.0913838 291.542559,69.2261097 C291.745866,71.3608355 291.898346,73.5463882 292,75.7827676 Z M233.44752,114.817755 C238.835161,114.817755 243.867015,113.801218 248.543081,111.768146 C253.219147,109.735074 257.386945,106.9396 261.046475,103.381723 C264.706005,99.8238468 267.50148,95.7068755 269.432898,91.0308094 C271.364317,86.3547433 272.380853,81.2720627 272.482507,75.7827676 C272.482507,70.3951262 271.46597,65.3632724 269.432898,60.6872063 C267.399826,56.0111401 264.604352,51.843342 261.046475,48.183812 C257.488599,44.524282 253.371628,41.7288077 248.695561,39.797389 C244.019495,37.8659704 238.936815,36.8494343 233.44752,36.7477807 C228.059878,36.7477807 223.028024,37.7643168 218.351958,39.797389 C213.675892,41.8304613 209.508094,44.6259356 205.848564,48.183812 C202.189034,51.7416884 199.39356,55.8586597 197.462141,60.5347258 C195.530722,65.210792 194.514186,70.2934726 194.412533,75.7827676 C194.412533,81.1704091 195.429069,86.2022628 197.462141,90.878329 C199.495213,95.5543951 202.290688,99.7221932 205.848564,103.381723 C209.40644,107.041253 213.523412,109.836728 218.199478,111.768146 C222.875544,113.699565 227.958225,114.716101 233.44752,114.817755 Z M145.466319,148.363446 L166.661097,139.519582 L173.370235,155.682507 L173.370235,157.969713 L153.090339,166.356136 C153.801915,169.100783 154.36101,171.845431 154.767624,174.590078 C155.174238,177.334726 155.377546,180.181027 155.377546,183.128982 C155.377546,185.975283 155.174238,188.770757 154.767624,191.515405 C154.36101,194.260052 153.801915,197.055527 153.090339,199.901828 L173.370235,208.288251 L173.370235,210.575457 L166.661097,226.738381 L145.466319,217.894517 C142.518364,222.77389 139.062141,227.195822 135.09765,231.160313 C131.133159,235.124804 126.711227,238.631854 121.831854,241.681462 L130.675718,262.87624 L112.530548,270.347781 L103.839164,249.153003 C101.094517,249.864578 98.3498695,250.423673 95.6052219,250.830287 C92.8605744,251.236902 90.0142733,251.440209 87.0663185,251.440209 C84.2200174,251.440209 81.4245431,251.236902 78.6798956,250.830287 C75.935248,250.423673 73.1397737,249.864578 70.2934726,249.153003 L61.4496084,270.347781 L43.4569191,262.87624 L52.3007833,241.528982 C42.4403829,235.633072 34.562228,227.754917 28.6663185,217.894517 L7.31906005,226.738381 L0,208.745692 L21.0422977,199.901828 C20.3307224,197.15718 19.7716275,194.412533 19.3650131,191.667885 C18.9583986,188.923238 18.7550914,186.076936 18.7550914,183.128982 C18.7550914,180.282681 18.9583986,177.487206 19.3650131,174.742559 C19.7716275,171.997911 20.3307224,169.202437 21.0422977,166.356136 L0,157.664752 L7.31906005,139.519582 L28.6663185,148.363446 C34.562228,138.503046 42.4403829,130.624891 52.3007833,124.728982 L43.4569191,103.534204 L61.4496084,96.0626632 L70.2934726,117.104961 C73.0381201,116.393386 75.7827676,115.834291 78.5274151,115.427676 C81.2720627,115.021062 84.1183638,114.817755 87.0663185,114.817755 C89.9126197,114.817755 92.708094,115.021062 95.4527415,115.427676 C98.197389,115.834291 100.992863,116.393386 103.839164,117.104961 L112.530548,96.0626632 L130.675718,103.534204 L121.831854,124.728982 C131.692254,130.624891 139.570409,138.503046 145.466319,148.363446 Z M87.0663185,231.922715 C93.7754569,231.922715 100.077981,230.652045 105.97389,228.110705 C111.8698,225.569365 117.003307,222.113142 121.374413,217.742037 C125.745518,213.370931 129.252567,208.186597 131.895561,202.189034 C134.538555,196.191471 135.860052,189.83812 135.860052,183.128982 C135.860052,176.419843 134.589382,170.117319 132.048042,164.22141 C129.506701,158.3255 125.999652,153.191993 121.526893,148.820888 C117.054134,144.449782 111.8698,140.942733 105.97389,138.299739 C100.077981,135.656745 93.7754569,134.335248 87.0663185,134.335248 C80.3571802,134.335248 74.0546562,135.605918 68.1587467,138.147258 C62.2628372,140.688599 57.078503,144.195648 52.6057441,148.668407 C48.1329852,153.141166 44.6259356,158.3255 42.0845953,164.22141 C39.543255,170.117319 38.2725849,176.419843 38.2725849,183.128982 C38.2725849,189.83812 39.543255,196.140644 42.0845953,202.036554 C44.6259356,207.932463 48.0821584,213.116797 52.4532637,217.589556 C56.824369,222.062315 62.0087032,225.569365 68.0062663,228.110705 C74.0038294,230.652045 80.3571802,231.922715 87.0663185,231.922715 Z M192.887728,292 L192.887728,155.377546 L306.790601,223.688773 L192.887728,292 Z M212.405222,189.83812 L212.405222,257.539426 L268.822977,223.688773 L212.405222,189.83812 Z" id="Shape"></path>
            </g>
        </g>
    </g>
</svg>